<svg xmlns="http://www.w3.org/2000/svg" viewBox="0 0 512 384">

<rect width="512" height="384" fill="none"/>
  
<path style="fill:#808080;stroke-width:1" d="m 204.72334,271.40903 c -19.57198,-5.16008 -41.23737,-12.3447 -48.1452,-15.96519 -15.91468,-8.34243 -36.78144,-30.1091 -45.82613,-47.80283 -6.77345,-13.24934 -6.66846,-14.21907 3.34423,-30.96513 5.68468,-9.50817 15.68514,-22.06785 22.22275,-27.91053 20.85754,-18.64018 72.17104,-46.10024 96.84983,-51.82802 35.36822,-8.20847 38.53876,-7.67258 38.53876,6.51917 0,18.38081 8.01479,32.0758 22.15077,37.8503 6.98016,2.8516 21.76184,11.33755 32.84822,18.85817 11.08586,7.5207 21.73323,13.67387 23.66053,13.67387 1.92739,0 8.7879,-5.43893 15.24613,-12.08662 11.6164,-11.95766 51.42693,-31.75565 55.5928,-27.64719 1.18669,1.17083 -0.88034,10.92001 -4.59281,21.66616 -8.44673,24.44769 -8.62439,53.07875 -0.47151,75.86963 8.44242,23.59683 8.13461,24.72034 -5.6958,20.80875 -18.29607,-5.17508 -30.65378,-12.30151 -45.71639,-26.36491 -11.47108,-10.70986 -14.9196,-12.01085 -20.93244,-7.89782 -3.95926,2.70835 -16.90596,10.59229 -28.76984,17.51934 -21.19656,12.37599 -21.53221,12.88025 -19.33476,29.03706 0,0 2.23641,16.44212 2.23641,16.44212 0,0 -28.81036,-0.19825 -28.81036,-0.19825 -16.0919,-0.11292 -44.51953,-4.33887 -64.39553,-9.57912 0,0 0,8.6e-4 0,8.6e-4 m 77.4686,-6.76758 c 4.6179,-7.36865 -8.97055,-8.87264 -23.54011,-2.60534 0,0 -14.15684,6.08938 -14.15684,6.08938 0,0 17.54581,0.33359 17.54581,0.33359 9.65023,0.18532 18.7181,-1.53425 20.15114,-3.82082 0,0 0,0.002 0,0.002 M 177.97321,207.95279 c 3.75704,-19.74946 -0.65079,-46.44451 -8.96383,-54.29466 -6.55054,-6.18575 -6.79586,-5.92578 -3.46086,3.66471 4.47447,12.86775 4.51696,51.62615 0.069,68.12387 -3.14503,11.67933 -2.96375,11.93301 3.17649,4.4436 3.58145,-4.3687 7.70939,-14.24011 9.17373,-21.93752 0,0 -0.001,0 -0.001,0 m 223.41259,17.22481 c -5.16086,-13.38614 -5.25016,-41.18746 -0.18792,-58.59242 5.36377,-18.44511 -2.21624,-17.61407 -25.33527,2.77713 -14.57835,12.85827 -17.28006,17.23317 -13.19745,21.3712 3.51111,3.55826 3.79694,6.79077 0.90473,10.22723 -3.05745,3.63326 0.65511,9.14692 13.41295,19.91609 21.41576,18.07816 30.31977,19.64731 24.40339,4.30077 0,0 -10e-4,0 -10e-4,0 M 156.05199,179.87452 c 1.43166,-3.67945 -0.25946,-7.38227 -4.01994,-8.80557 -7.81757,-2.95867 -16.37222,4.38059 -12.43271,10.66633 4.10786,6.55528 13.59561,5.48246 16.45265,-1.86076 0,0 0,0 0,0 m 105.29518,-62.79828 c -1.58795,-6.23989 -3.42638,-11.87699 -4.08511,-12.52657 -1.9698,-1.94257 -40.80542,7.38588 -47.98616,11.5265 -4.94872,2.85419 -2.36321,3.97451 10.09234,4.37404 9.21036,0.29566 21.45592,2.02488 27.21249,3.8428 16.72253,5.28179 17.81165,4.74926 14.76644,-7.21677 0,0 0,0 0,0" />

</svg>
