<svg xmlns="http://www.w3.org/2000/svg" viewBox="0 0 512 384">

<rect width="512" height="384" fill="none"/>

<path d="m 59.306522,340.80304 c 0,0 -1.172136,-1.12707 -1.172136,-1.12707 0,0 -0.127119,-0.72819 -0.127119,-0.72819 0,0 -0.651246,-0.53597 -0.651246,-0.53597 0,0 -0.438405,-0.47562 -0.438405,-0.47562 0,0 -0.54611,-0.50579 -0.54611,-0.50579 0,0 0.427723,-1.02273 0.427723,-1.02273 0,0 0.106831,0.0308 0.202902,-0.28604 0.09579,-0.31686 0.225552,-0.73932 0.225552,-0.73932 0,0 -0.09579,-0.83187 -0.09579,-0.83187 0,0 -0.08654,-0.48478 -0.08654,-0.48478 0,0 -0.09386,-0.83381 -0.09386,-0.83381 0,0 0.03313,-0.10375 0.160182,-0.52549 0.128903,-0.42313 0.758231,-4.02929 4.116295,-3.95451 0,0 0.160195,-2.53749 1.522522,-4.72072 1.363085,-2.18196 4.723166,-6.61797 4.963266,-7.41048 0.2401,-0.78983 -4.995854,5.50538 -5.573076,6.54187 -0.577414,1.0326 -1.739612,1.98382 -1.058359,0.0301 0.681818,-1.95233 5.83842,-10.85653 8.123397,-12.33522 0,0 -3.834207,1.96808 -5.019608,2.99672 -1.187417,1.02734 -3.849668,3.17122 -6.270354,3.66127 -2.421238,0.48874 -1.475398,-0.60881 -0.145467,-1.24906 1.33178,-0.64093 1.965165,-0.71244 2.774757,-1.9379 0.810156,-1.22612 2.405226,-2.73628 2.799063,-2.87994 0,0 -3.031973,1.34484 -5.517836,0.6101 -2.48458,-0.73606 0.577966,-1.03521 1.788765,-1.28056 1.210619,-0.24536 3.3113,-1.69189 4.200065,-2.03105 0.890794,-0.3418 3.561519,-2.22263 5.011686,-2.39647 0,0 -5.708232,-1.34551 -8.64226,-2.9042 0,0 -3.42527,-0.23553 -4.282731,-0.57666 -0.858025,-0.34047 -0.520891,-1.44719 0.407833,-1.34353 0,0 -3.270237,-1.31466 -4.112418,-1.99431 -0.842745,-0.67899 -0.481497,-1.8664 1.106215,-1.04964 1.587892,0.81281 6.943531,2.74218 8.563267,2.87731 1.619748,0.13588 3.633334,0.12802 4.715063,0.015 0,0 -3.711956,-0.15027 -4.866784,-2.38859 0,0 -5.451375,-2.47386 -7.104445,-3.65274 -1.651592,-1.17886 -1.851926,-2.52961 0.241577,-1.65318 2.091462,0.87908 3.439074,1.62171 5.011686,1.9143 0,0 -4.811544,-3.14762 -6.471804,-3.72424 -1.660427,-0.57731 -1.283167,-2.10389 2.310221,-0.69671 3.592079,1.40651 5.940962,2.87798 8.515398,3.89939 2.572394,1.01946 5.813176,2.14979 7.544866,2.49027 0,0 -2.982268,-2.2613 -4.033989,-3.69274 -1.048948,-1.43146 -2.540358,-3.42643 -3.478288,-3.78724 -0.938676,-0.36343 -1.781408,-1.04308 -1.532654,-1.57381 0.248742,-0.53006 0.513521,-0.53858 1.187417,-0.166 0,0 -0.178608,-2.29345 1.83535,-0.57662 2.012302,1.71485 6.798988,5.80383 8.483914,6.30111 0,0 -1.386827,-2.04747 -1.691552,-3.34574 -0.304729,-1.29763 -2.326237,-4.13624 -3.2069,-4.39603 -0.883436,-0.26109 -4.274822,-1.17887 -4.522844,-1.51149 -0.248755,-0.33193 -0.681806,-1.49309 3.904739,-0.48215 0,0 -1.764651,-2.24426 -0.77812,-2.90096 0,0 0.01836,-2.06385 -1.307281,-2.88651 -1.321829,-0.82067 -1.732243,-2.06386 -0.01836,-1.38419 1.71623,0.68094 2.670173,2.42794 3.278891,3.29716 0.609271,0.87121 1.940307,4.53969 3.688574,5.39974 1.747522,0.86399 4.057731,1.0306 4.304457,0.50121 0.249499,-0.53074 -1.258488,-3.04462 0.257588,-1.99301 1.515911,1.05095 1.170674,1.0352 1.170674,1.0352 0,0 -0.528814,-1.70893 -2.075451,-2.94225 -1.547201,-1.23202 -2.021508,-2.83731 -1.083025,-2.47518 0.93793,0.36474 2.17396,1.76339 2.678828,1.82768 0,0 -2.880266,-4.90248 -3.143749,-5.75726 -0.264766,-0.85414 0.167553,-1.41376 1.210067,-0.24471 1.041051,1.171 1.627672,2.11829 2.269532,2.30987 0,0 -0.785479,-2.30134 -1.074192,-3.07544 -0.288701,-0.77543 0.05521,-1.6217 1.017656,-0.47432 0.96261,1.14608 2.005676,2.31512 2.758745,2.71202 0.753069,0.39558 1.92373,0.56941 1.92373,0.56941 0,0 -0.176759,-3.15547 -0.409862,-3.82722 -0.231446,-0.67243 -1.338213,-2.20491 -0.929096,-2.68841 0.409682,-0.48347 1.003673,-0.1351 1.003673,-0.1351 0,0 0.207511,-0.97355 0.890793,-2.06386 0.681254,-1.09033 1.418311,-0.3549 1.033668,0.9099 -0.385735,1.26481 -0.320558,1.6276 -7.32e-4,1.72339 0.321302,0.095 0.5382,0.24532 1.540024,1.83488 1.001823,1.59021 2.493233,2.71988 2.493233,2.71988 0,0 -0.4802,-2.72644 -0.962609,-3.73213 -0.480932,-1.00436 -0.359784,-2.26131 0.594723,-1.37633 0.95321,0.8863 2.172676,3.48743 2.493234,4.44457 0,0 0.770378,-2.53095 1.26659,-3.59108 0.496764,-1.05815 1.362892,-1.31993 1.219273,0.0168 -0.145454,1.33698 -1.026489,6.24598 -0.643336,6.70653 0.385928,0.4566 1.565987,2.61687 1.565987,2.61687 0,0 0.817514,-1.82767 0.721764,-2.37283 -0.09759,-0.54516 -2.068824,-8.71462 0.455714,-12.70783 2.526375,-3.99323 1.814729,-0.49858 1.307833,1.16376 -0.504866,1.65977 -0.5137,3.98405 0.345057,5.18523 0,0 0.288701,-1.80996 0.850283,-1.64464 0.561402,0.16653 1.194042,2.68113 0.345236,5.18848 0,0 0.42441,3.48678 0.696546,3.73933 0,0 3.008034,-9.02229 3.953144,-10.98445 0.9453,-1.96088 2.34226,-3.96043 2.95962,-3.69016 0.61793,0.26702 0.13626,0.98602 -0.2655,1.72994 -0.4012,0.74459 -3.10379,10.20185 -2.64624,13.00896 0,0 3.75983,-1.73256 4.82811,-2.3643 1.06627,-0.63372 2.70148,-0.83774 2.59709,0.0787 0,0 1.66762,-2.60967 2.62156,-3.44806 0.95524,-0.83773 2.35754,-0.85415 1.41886,0.5058 -0.93718,1.35993 -2.10877,3.77278 -2.25239,4.24774 -0.14546,0.47302 -3.42454,4.07195 -3.58472,4.88543 0,0 2.48439,-1.85 3.74435,-3.11479 1.25721,-1.26616 5.28438,-4.72797 6.82367,-4.61907 1.53873,0.11145 1.48422,0.87054 1.07363,1.35336 -0.4071,0.48087 -1.74679,-0.86202 -3.21482,2.23705 0,0 0.20879,3.33589 -0.49696,5.36957 0,0 2.05337,-1.28845 2.8624,-2.51455 0.81016,-1.22546 1.82137,-1.96085 1.11489,0.0702 -0.70576,2.03303 -2.01157,3.4566 -2.74862,4.44457 -0.74037,0.98928 -1.44557,2.15831 -1.35719,3.30505 0,0 2.89519,-1.47079 3.37667,-1.32844 0.48093,0.14298 0.42588,0.90333 -0.29,1.81193 -0.71312,0.90926 -0.85747,2.24689 -0.85747,2.24689 0,0 1.067,-1.49638 1.82062,-1.96284 0.75437,-0.46575 1.63651,-0.20467 -0.0258,2.66478 0,0 6.34274,-6.48414 8.5086,-7.56725 2.1653,-1.08309 0.92135,0.70393 -0.3132,1.89067 -1.23548,1.18544 -5.64509,6.77739 -5.59647,7.47934 0,0 3.35126,-2.11109 4.91392,-2.9416 1.56395,-0.82989 4.13027,-1.79359 4.91723,-2.07765 0.78418,-0.28734 1.49932,0.52877 -0.24158,1.65057 0,0 0.25613,0.59368 0.73043,0.47496 0.47375,-0.118 2.10067,-1.44589 2.46267,-0.90795 0.35923,0.53728 -0.61811,1.45441 -0.42036,1.94446 0.20273,0.49135 0.58662,0.0867 1.05283,-0.29193 0.46435,-0.37984 3.64806,-2.79924 4.33797,-3.62913 0.68973,-0.82987 1.61975,0.13455 0.68107,1.49444 -0.93848,1.35992 -4.53001,5.12355 -4.29986,5.79464 0,0 2.20527,-1.50098 3.52893,-2.40236 1.32386,-0.90136 3.68858,-2.35578 4.68433,-3.61401 0.99317,-1.25761 2.34961,-1.97662 1.57794,-0.30965 -0.76835,1.66956 -2.18924,3.74917 -3.65598,5.12486 -1.46674,1.37502 -3.91284,3.66978 -3.92737,4.00961 0,0 2.24631,-1.06079 2.91966,-1.54887 0.67316,-0.49071 1.99554,-1.39143 2.04268,-0.68948 0.0479,0.70456 -0.32056,1.62957 -1.20399,2.22982 0,0 1.38093,0.0637 0.6912,0.8935 0,0 2.74199,-0.39623 6.81519,0.29193 0,0 2.46984,-0.64684 3.24741,-1.19265 0.77903,-0.54646 1.5472,0.37196 0.24949,1.19331 -1.29918,0.82331 -3.80162,3.01312 -6.7119,3.96107 0,0 -0.13626,0.73736 0.41777,0.64093 0.55275,-0.095 4.11888,-2.05662 3.48751,-0.25978 0,0 0.56821,0.4251 1.538,0.10811 0.96996,-0.3149 2.74327,0.46905 1.2281,1.14017 -1.51737,0.67243 -3.01558,1.00437 -3.01558,1.00437 0,0 3.70531,0.75114 2.911,1.63612 -0.79283,0.88695 -2.6628,0.4192 -4.83658,0.37919 -2.17193,-0.0388 -5.69221,0.0401 -4.77896,0.48151 0.91603,0.44412 5.33372,2.01071 7.00999,2.24689 1.67627,0.2388 7.10243,1.06801 6.30885,1.95363 -0.79358,0.8863 -1.5553,0.23093 -1.5553,0.23093 0,0 -0.28945,0.94795 -1.05908,0.89087 -0.7689,-0.0544 -0.98581,-0.20531 -0.98581,-0.20531 0,0 2.29437,0.5071 1.7096,1.28318 -0.58662,0.77344 -3.22623,0.25321 -3.46578,0.1817 -0.2401,-0.0707 -0.64922,0.412 -0.64922,0.412 0,0 -0.92927,-0.10631 -0.92927,-0.10631 0,0 -0.56933,1.29892 -1.1309,1.13361 -0.5614,-0.16655 -3.06181,-0.56222 -3.06181,-0.56222 0,0 0.7829,1.43932 1.57593,2.27772 0.79689,0.83904 2.53631,2.30134 3.00196,2.78285 0.46234,0.48284 0.15099,1.51082 -0.81751,0.96568 -0.97181,-0.54451 -2.24853,-1.52593 -2.24853,-1.52593 0,0 -0.58257,0.77477 -0.58257,0.77477 0,0 -0.16939,0.55433 -0.16939,0.55433 0,0 0.40783,0.37723 0.40783,0.37723 0,0 0.36125,0.54057 -0.15835,0.81673 0,0 2.35477,0.87055 1.466,2.0724 -0.89006,1.20052 -2.22183,-0.74525 -3.86478,-0.80099 0,0 0.0737,1.48982 0.66507,1.83487 0.59343,0.34771 2.18997,1.4249 1.2421,1.66106 -0.94475,0.23748 -2.26786,1.13887 -7.60012,-1.73255 0,0 1.15226,2.239 -2.91763,0.68882 0,0 0.70593,1.41569 2.24318,2.38857 1.53985,0.97093 3.04654,2.6241 2.20509,2.80648 -0.8422,0.1804 -4.81947,-1.68402 -7.91332,-5.01334 0,0 -1.96626,-0.15083 0.3353,1.47867 2.30027,1.62891 4.10561,3.45464 6.68796,3.87382 2.57976,0.42052 1.00255,2.45157 -3.27079,0.41331 -4.27464,-2.04221 -1.66965,-0.84104 -1.66965,-0.84104 0,0 0.39513,1.58431 -0.56747,1.29896 -0.96518,-0.2854 -2.25442,-1.78769 -2.714,-2.00877 -0.4557,-0.22238 -0.26348,0.86925 0.78695,1.43867 1.05099,0.56942 4.32325,1.01946 4.01779,1.44719 -0.30197,0.42577 -0.86337,1.98579 -3.19899,1.03387 -2.33341,-0.94794 -4.81135,-2.2836 -6.43847,-4.40387 0,0 -0.68181,1.09229 -1.88452,0.73672 0,0 1.69359,5.06778 3.74364,7.22807 2.05298,2.15899 8.5813,6.84823 5.86197,11.47385 0,0 -1.16091,0.94995 -1.16091,0.94995 0,0 -0.57944,0.17121 -0.57944,0.17121 0,0 -1.45734,0.77675 -1.45734,0.77675 0,0 -0.54556,-0.50843 -1.02651,-0.65013 -0.48093,-0.1424 -1.23583,-0.53529 -1.23583,-0.53529 0,0 -0.6739,0.48741 -0.6739,0.48741 0,0 -1.01103,-0.12391 -1.01103,-0.12391 0,0 -1.12242,-0.33327 -1.12242,-0.33327 0,0 0.16018,0.0479 -0.63983,-0.18828 -0.80353,-0.23747 -0.96133,-0.28603 -1.44557,-0.42773 -0.48075,-0.14242 -0.48075,-0.14242 -1.44335,-0.42707 -0.96131,-0.28407 -0.15835,-0.0466 -0.96131,-0.28407 -0.80021,-0.23746 -0.80021,-0.23746 -0.80021,-0.23746 0,0 -0.96261,-0.28539 -0.96261,-0.28539 0,0 -0.80223,-0.23617 -0.80223,-0.23617 0,0 -1.01047,-0.12597 -1.01047,-0.12597 0,0 -1.37965,-0.0656 -1.37965,-0.0656 0,0 -0.68844,-0.03 -1.21799,-0.0134 -0.52824,0.015 -0.68972,-0.0329 -1.49011,-0.26897 -0.80353,-0.23814 -3.53023,-1.04503 -3.53023,-1.04503 0,0 -2.0215,-0.25127 -2.0215,-0.25127 0,0 -1.37577,-0.0645 -1.37577,-0.0645 0,0 -0.48223,-0.14296 -1.01233,-0.12596 -0.52953,0.0134 0.20751,-0.11223 -1.16883,-0.17572 -1.38166,-0.0618 -1.38166,-0.0618 -1.38166,-0.0618 0,0 -1.02576,1.07261 -1.02576,1.07261 0,0 -1.32975,-0.21978 -1.32975,-0.21978 0,0 -0.64259,-0.18958 -1.60317,-0.47496 -0.962418,-0.2847 -0.962418,-0.2847 -0.962418,-0.2847 0,0 -2.134002,-0.45793 -2.776606,-0.64751 -0.641307,-0.18959 -0.960581,-0.28537 -1.76225,-0.52155 -0.802787,-0.23812 -0.979173,-0.80625 -2.582166,-1.28055 -1.603916,-0.4743 -0.481677,-0.14166 -1.603916,-0.4743 -1.123524,-0.33327 -1.604457,-0.47562 -1.604457,-0.47562 0,0 -0.01836,-0.52156 -0.817514,-0.75903 -0.800938,-0.23617 -1.154096,0.34638 -1.154096,0.34638 0,0 -1.105663,0.19026 -1.105663,0.19026 0,0 -0.318721,-0.0959 -0.961865,-0.28539 -0.641307,-0.18959 0.481664,0.1424 -0.641307,-0.18959 -1.122792,-0.3326 0.319273,0.095 -1.122792,-0.3326 -1.443542,-0.42577 -0.642604,-0.18959 -1.443542,-0.42577 -0.800937,-0.23747 -0.800937,-0.23747 -0.800937,-0.23747 0,0 -0.673164,0.49005 -1.204739,0.50579 -0.528801,0.015 -0.528801,0.015 -1.263829,0.14298 -0.739806,0.12532 -0.04789,0.15682 -0.739806,0.12532 -0.688996,-0.0315 -0.672419,0.49072 -1.153365,0.34836 -0.482216,-0.14372 -1.875308,-0.72752 -1.875308,-0.72752 0,0 -0.641115,-0.18961 -0.466937,0.3785 0.178608,0.56945 -0.737057,0.12861 0.178608,0.56945 0.913432,0.44346 0.769081,0.91711 0.769081,0.91711 0,0 -16.207208,-4.75813 -16.207208,-4.75813 0,0 0,0 0,0" style="stroke-width:0.99999994" />
 
<path style="fill:#808080;stroke-width:0.99999994" d="m -7.3801054,308.31212 c 0,0 37.9169604,-2.62409 48.5602874,0 10.643326,2.62409 30.599675,6.56025 45.234271,13.12048 14.634597,6.56024 140.673617,47.23374 232.647237,47.23374 91.97372,0 338.10142,-30.17712 382.0052,-22.30483 43.90374,7.8723 47.89497,1.31205 73.1729,-1.31204 25.27791,-2.62412 25.94312,-15.5983 47.895,-7.14346 21.95185,8.45485 61.19916,9.76755 65.19043,15.01575 3.99123,5.24819 11.30852,156.75825 11.30852,163.31849 0,6.56025 -975.860601,-88.53176 -975.860601,-88.53176 0,0 69.8467556,-119.39637 69.8467556,-119.39637 0,0 0,0 0,0" />

<path style="fill:#808080;stroke-width:0.99999994" d="m 89.423789,331.8155 c -0.125192,-0.84956 -1.231972,0.36343 -3.93806,1.27399 -2.706819,0.91055 -13.536291,0.6685 -18.02783,-0.18172 -4.492824,-0.84887 -11.50668,-1.76008 -11.50668,-1.76008 3.077273,-1.03063 10.152442,-0.1207 15.741363,-0.30375 5.587816,-0.1817 13.423977,-5.39907 15.945755,-7.46424 2.524525,-2.06254 1.600411,-4.30679 -0.737058,-1.94054 -2.339484,2.36694 -11.444264,6.43365 -14.705115,7.28256 -3.260838,0.84953 -15.875043,-1.51674 -15.875043,-1.51674 2.523614,-0.061 7.814807,-1.1533 8.183246,-1.45834 0.368605,-0.30177 2.400065,-1.81916 5.723512,-3.63896 3.321419,-1.82114 5.198024,-4.97793 5.198024,-4.97793 8.030961,-3.4579 7.844071,-6.64289 7.93724,-8.10057 0.09386,-1.45638 -1.753609,-1.54626 -1.753609,-1.54626 0.3712,-1.36519 -3.967875,-2.2764 -3.967875,-2.2764 2.030895,-3.27685 4.615076,-4.36716 6.183823,-5.00611 1.568555,-0.63767 4.060312,0.72883 3.876003,-0.63767 -0.184116,-1.36385 -4.891822,-1.36385 -7.475644,-0.0918 -2.584182,1.27597 -4.707693,4.55214 -5.538472,5.28099 -0.830213,0.7282 -2.993311,-0.1817 -2.993311,-0.1817 2.819133,-1.81916 2.624141,-5.18916 3.731845,-6.00722 1.107499,-0.82004 6.644687,-1.3652 8.030961,-2.09403 1.383693,-0.72687 -3.692618,-0.54517 -3.692618,-0.54517 -3.970649,-3.27749 -7.291335,0.72689 -7.291335,0.72689 -1.109541,-4.64203 -2.954097,-5.37023 -4.891823,-6.4625 -1.939202,-1.09228 -3.322908,-0.36343 -1.292013,0.82003 2.02961,1.18214 5.074847,5.27838 3.784503,7.7365 -1.291822,2.45747 -7.660686,6.0984 -7.660686,6.0984 1.844736,-4.09556 3.505728,-7.82768 1.383693,-8.91997 -2.122586,-1.09227 -1.291076,0.36345 -1.291076,0.36345 3.691141,1.5469 -4.615268,11.37808 -4.615268,11.37808 -6.46039,3.64028 -12.550492,10.28645 -14.489514,11.64965 -1.938457,1.3665 -4.892002,6.82728 -4.430959,3.73345 0.460863,-3.09446 7.844815,-11.014 11.075658,-14.74611 3.23083,-3.7321 6.644686,-8.19177 7.936687,-10.9228 1.292373,-2.72972 2.768503,-4.73322 2.215755,-4.54952 -0.552927,0.1817 -7.937239,10.46619 -8.305125,10.55738 -0.370455,0.0912 -0.370455,-1.45767 -0.370455,-1.45767 6.183644,-5.91538 6.737855,-8.55455 7.938536,-11.19374 1.199936,-2.63919 1.752864,-6.37262 2.676066,-10.37765 0.921354,-4.00437 -0.647201,-3.27684 -1.386274,-2.4555 -0.736325,0.81804 -1.015639,4.00307 -2.95208,11.64836 -1.939189,7.64727 -8.213421,10.92413 -8.213421,10.92413 0,0 -1.384258,0.45461 3.322703,-3.91516 4.705676,-4.36914 4.522112,-10.92018 4.614536,-12.56024 0.09206,-1.63939 0.552196,-4.73386 1.291269,-6.18958 0.737044,-1.45638 0.36917,-1.911 -0.276746,-1.5469 -0.646636,0.36408 -3.046701,2.82156 -3.599449,10.01223 -0.554764,7.19066 -5.168748,10.46687 -6.091399,10.55739 -0.923935,0.0918 1.107512,-3.54777 2.307641,-5.64182 1.200681,-2.09401 -1.107512,-2.2764 -2.215204,-0.36408 -1.108244,1.9123 -4.615089,10.55804 -4.615089,10.55804 -1.844736,1.91166 -4.060504,4.82442 -5.076311,5.82551 -1.015087,1.00176 -4.522099,3.36867 -4.522099,3.36867 0.36935,-1.64005 2.309104,-3.00524 3.415871,-3.6429 1.106228,-0.63698 1.384259,-2.18324 1.752877,-3.00327 0.369158,-0.81804 1.200668,-1.81915 0.369158,-1.45572 -0.830766,0.36541 -1.56781,2.91341 -2.030894,3.54975 -0.460863,0.63635 -1.382217,0.36408 -1.382217,0.36408 -0.09207,-2.45811 8.950298,-14.382 9.781808,-15.65469 0.830945,-1.27596 2.215204,-2.91339 0.647381,-3.1863 -1.569299,-0.27226 -6.923641,7.82965 -9.321677,11.46861 -2.401362,3.64225 -5.078161,8.37349 -5.078161,8.37349 -4.613984,2.09206 -3.598164,5.82681 -3.598164,5.82681 -1.108796,1.63742 -2.769788,4.91427 -3.322716,5.46008 -0.554764,0.5458 -1.200681,0.45398 -1.200681,0.45398 2.768684,-9.82987 10.336765,-21.48022 12.460084,-24.12005 2.123331,-2.63984 4.704945,-6.55303 5.815217,-8.91994 1.105483,-2.3663 -0.925963,-2.27509 -1.384438,-1.00111 -0.462147,1.274 -3.785607,6.09904 -6.184375,8.82878 -2.400617,2.73037 -5.723333,7.46422 -7.383772,10.46817 -1.662456,3.00262 -4.706961,9.73803 -4.706961,9.73803 -0.554764,-3.63962 5.997498,-13.92609 7.289858,-15.83644 1.29385,-1.91231 0.46234,-3.82461 0.46234,-3.82461 0.83151,-0.54515 2.307641,-3.36671 3.59891,-5.36956 1.29236,-2.00154 3.78431,-3.27553 5.076863,-4.00437 1.291821,-0.72818 1.846585,-2.63919 -1.385722,-1.54625 -3.230831,1.09098 -8.306962,8.28099 -8.306962,8.28099 -0.184309,-1.09031 -1.476875,-2.27575 -1.844749,-3.00195 -0.369171,-0.72755 -0.184309,-6.19026 -0.184309,-7.64531 0,-1.45637 0.09206,-2.45815 -1.107512,-2.45815 -1.200129,0 -1.107512,1.36521 -1.107512,3.09448 0,1.7306 0.09206,9.82921 0.09206,9.82921 -2.121483,0.8207 -2.676067,1.45834 -3.784311,3.18697 -1.106959,1.72862 -3.598896,7.829 -3.969364,8.8281 -0.369158,1.00178 -1.660427,2.63921 -1.660427,2.09404 0,-0.54712 3.321971,-12.288 3.321971,-12.288 2.30782,-3.18562 3.04543,-6.09838 3.229739,-9.46641 0.185593,-3.36673 -1.661737,-4.46097 -1.661737,-4.46097 0,-2.27378 -1.568002,-3.54776 -3.967874,-5.64246 -2.398781,-2.09336 -2.768684,-0.0912 -2.214472,0.18115 0.554032,0.27289 2.030162,1.91297 2.675335,2.73102 0.64738,0.81938 -0.460863,5.46205 -0.73761,6.73671 -0.277478,1.27334 -1.754148,3.64027 -2.399513,4.91426 -0.645904,1.27468 -2.030894,4.46098 -2.030894,4.46098 0,0 -1.106767,-0.27423 -1.936993,-0.54713 -0.8314984,-0.2742 -1.6617244,0.4566 -1.6617244,0.4566 -2.215203,-1.09426 -3.41514,6.09644 -3.876927,8.46272 -0.460863,2.36627 -0.369171,4.82438 -0.460863,6.46247 -0.09206,1.63811 -0.554212,1.3652 -0.645904,0.72886 -0.09207,-0.63635 0,-6.28013 0.553287,-8.46534 0.55348,-2.18456 3.506473,-12.46969 4.060505,-14.83401 0.554211,-2.36824 0.185593,-5.55324 0.554211,-6.55434 0.369903,-1.00175 0.9226514,-3.09447 0.277299,-5.27902 -0.645917,-2.18522 -2.030894,-0.91124 -1.56912,0.0912 0.461608,0.99912 0.276747,2.91144 -0.184309,3.82265 -0.461043,0.91056 -0.55348,4.36781 -0.55348,5.46009 0,1.09294 -1.661724,5.91667 -2.307628,8.19241 -0.646456,2.27575 -1.936993,6.09841 -2.399333,7.73584 -0.461043,1.63942 -0.55348,2.82156 -0.55348,2.82156 -0.185041,-0.72687 -2.39951298,-3.18434 -2.95354498,-4.18608 -0.55401902,-1.00175 -1.84528802,-3.5504 -2.49120502,-4.18675 -0.647188,-0.63765 -1.662455,-1.27596 -1.662455,-1.27596 0,-0.99913 -2.58345,-7.91757 -3.044506,-8.82682 -0.461042,-0.91251 -0.369902,-1.00238 0.369171,-2.09401 0.737789,-1.0923 -1.476682,-0.54714 -2.4000646,0.45462 -0.923382,0.9998 -0.460311,2.00351 0.2774776,2.82156 0.738162,0.81938 3.04579,6.7367 3.414408,10.19396 0.369903,3.45856 3.046714,15.01836 3.230279,16.02142 0.184861,0.99978 1.937738,4.18609 1.107511,4.54952 -0.830213,0.36474 -3.137854,-8.55522 -3.507576,-9.46511 -0.368619,-0.91056 -1.476118,-9.73935 -2.398037,-13.29039 -0.924114,-3.5491 -2.6762456,-4.91362 -3.8761946,-5.37088 -1.201413,-0.45395 -2.86166,-2.54866 -3.599449,-3.54777 -0.738521,-1.0011 -2.030894,-2.45747 -3.045969,-2.91407 -1.015267,-0.4533 -1.476862,-0.54516 -1.661724,-0.18112 -0.184309,0.3654 1.47667,1.00176 2.399321,1.81981 0.92265,0.81938 1.75416,3.6429 3.691886,4.91428 1.93847,1.27595 3.415884,3.18695 4.2460976,4.55149 0.830213,1.36715 1.568554,8.55584 1.661723,10.55804 0.09207,2.00352 0.830226,6.46382 0.830226,6.46382 -0.923395,-2.3663 -6.7380466,-12.92435 -7.4763886,-13.65318 -0.737044,-0.72885 -0.645172,-1.36585 -0.184309,-2.18522 0.461788,-0.82003 -0.276554,-2.91143 -0.646456,-3.54976 -0.368619,-0.63699 -0.645917,-1.91097 -0.460311,-2.54863 0.184117,-0.63636 -0.09207,-1.72929 -0.739086,-0.9086 -0.645352,0.81742 -0.460311,2.82024 0.184861,4.00241 0.646649,1.18542 0.646649,2.82352 0.09206,4.09687 -0.553467,1.27398 0.554032,2.82155 1.384811,4.09555 0.830213,1.27399 5.6297906,10.9228 6.3673996,12.74458 0.739073,1.81915 1.754148,5.9147 1.754148,5.9147 -2.030162,-2.36626 -8.6750276,-10.37502 -9.9674016,-11.83137 -1.292553,-1.45572 -2.584374,-4.27728 -4.061236,-7.91952 -1.477415,-3.63964 -4.613792,-10.19397 -6.275516,-11.65034 -1.661544,-1.45573 -3.969364,-3.64094 -4.800127,-5.27903 -0.83023,-1.63745 -0.36973,-5.18915 -1.10751,-5.37152 -0.73779,-0.18246 -1.01582,6.64553 2.399316,9.74 3.415884,3.09576 4.799578,5.91732 5.81392,7.55475 1.01582,1.63942 6.184389,14.83599 6.184389,14.83599 -1.014343,-0.45398 -6.643955,-12.19679 -8.028945,-14.83599 -1.38499,-2.63919 -3.692618,-5.27901 -5.6309,-7.10014 -1.93791,-1.81915 -2.39822,-3.0938 -3.78377,-4.91296 -1.38497,-1.8198 -3.69261,-7.28253 -2.9528,-3.0046 0.7376,4.27861 6.18365,9.46709 6.18365,9.46709 0,2.09338 -0.73909,1.27335 -0.73909,1.27335 0,0.82003 0.64739,6.46249 1.66174,7.73648 1.015072,1.274 2.676796,3.73148 2.676796,3.73148 0.92265,1.18411 10.429189,14.01856 11.445009,15.20007 1.014342,1.18412 5.906344,8.22262 6.152518,9.19418 0.245994,0.97221 -0.369902,1.57708 -0.983963,1.94247 -0.615896,0.36542 -2.707371,-0.36539 -4.80013,-1.21561 -2.091474,-0.84955 -13.290117,-12.49921 -15.01315,-14.07761 -1.72286,-1.57644 -13.29085,-15.89743 -14.64454,-17.35315 -1.35295,-1.45637 -3.93732,-5.82548 -3.69114,-4.36978 0.24618,1.45834 3.32272,8.13141 3.81432,10.19396 0.49217,2.06385 0.49217,6.91777 0.49217,9.34375 0,2.42992 0.12339,2.42992 0.98377,3.15679 0.86226,0.72687 0.49236,1.94051 0.86226,3.76163 0.36843,1.82113 2.46065,4.18806 2.46065,4.18806 0,0 -0.92266,4.67222 -0.79893,7.40195 0.1216,2.73034 1.66025,4.61313 3.93732,5.09793 2.27633,0.4835 4.73753,1.21301 5.96877,1.39602 1.23014,0.18172 3.753202,1.09032 3.753202,1.09032 -5.845032,0.24339 -8.368292,1.51738 -8.368292,1.51738 0,0 -4.12235,1.45835 0.0607,0.42576 4.18423,-1.03257 14.276108,-0.72818 16.368134,-0.60814 2.091475,0.12275 3.075245,0.91122 3.075245,0.91122 -2.584374,2.60967 -2.646238,4.67222 -4.367618,8.07042 -1.723036,3.39753 -5.106884,3.15547 -7.383952,3.15547 -2.277619,0 -1.353685,0.60615 -1.353685,0.60615 5.080189,1.25302 7.433117,-0.4087 8.098359,-1.02733 0.07357,-0.088 0.141769,-0.16075 0.207511,-0.21517 0,0 -0.06626,0.0859 -0.207511,0.21517 -0.87423,1.05489 -2.098101,4.28582 -2.652865,5.8839 -0.599332,1.72862 -1.47613,2.72972 -1.615152,2.86615 -0.138084,0.13642 -1.153531,0.63701 -0.322586,1.00111 0.830034,0.3654 2.308193,-1.54626 2.308193,-1.54626 2.122035,0.0907 3.691334,-1.00173 3.691334,-1.00173 0,0 -1.245981,2.36496 0.969042,2.50271 2.21392,0.13643 2.861121,-4.86966 2.861121,-6.09838 0,-1.22875 1.061659,-1.95758 1.061659,-1.95758 0,0 0.276002,0.54712 1.153544,0.86529 0.876054,0.31816 2.53779,-2.32102 2.53779,-2.32102 0,0 0.507448,2.18456 1.569107,3.36804 1.061107,1.18214 2.5836286,5.3702 2.5836286,6.09707 0,0.73017 0.276926,1.32125 0.599513,2.00285 0.32333,0.68359 0.923202,1.13951 1.245788,0.82002 0.322779,-0.31947 -0.09206,-0.77409 -0.599319,-1.22873 -0.506716,-0.45462 -0.138097,-2.04809 -0.138097,-2.50272 0,-0.45465 1.522715,-0.27291 1.522715,-0.27291 -0.415756,4.36845 2.952247,4.45899 3.46044,4.3245 0.507447,-0.13772 -1.015088,-0.95778 -1.845853,-1.45768 -0.830227,-0.50055 -0.554212,-2.68512 -0.554212,-2.68512 4.015936,0.68163 4.522651,-4.18803 4.66184002,-4.14277 0.138097,0.0458 0.353159,-0.0905 0.353159,-0.0905 -0.121469,0.72882 2.33893198,5.82547 2.33893198,5.82547 0,0 0,3.76363 0,4.24778 0,0.4861 -0.36917,1.45702 -0.98451498,2.0645 -0.615344,0.60681 -0.98377,3.76099 -1.10696,5.21736 -0.123395,1.45637 -2.58437402,10.9228 -2.58437402,10.9228 0,0 31.9951564,0 31.9951564,0 0,0 0,-0.30439 -0.368425,-0.60683 -0.370468,-0.30438 -0.430483,-0.48611 -0.615345,-0.60681 -0.184309,-0.12275 -0.246173,-0.42642 -0.492167,-0.66783 -0.246919,-0.2434 -0.431228,-0.54516 -0.924128,-1.03063 -0.492167,-0.48676 -0.123395,-0.60878 -0.798729,-1.51737 -0.677208,-0.91057 -0.186338,-0.79051 -0.370647,-1.27598 -0.184309,-0.48218 -0.123395,-0.36343 -0.246905,-0.78592 -0.121598,-0.4264 0,-0.18376 0,-0.66783 0,-0.48612 0,-0.42706 0.246905,-1.03191 0.245442,-0.60814 0.308051,-0.85087 0.308051,-1.15395 0,-0.30375 0,-0.36346 0,-0.97092 0,-0.60682 0,-0.24142 0,-0.78854 0,-0.54713 0,-0.30176 0,-0.60682 0,-0.30374 -0.06253,-0.24208 -0.06253,-0.60618 0,-0.36541 0,0 -0.06266,-0.24272 -0.06073,-0.24339 -0.184129,-0.48546 -0.184129,-0.48546 0,0 -0.06074,-0.18172 -0.06074,-0.36476 0,-0.1817 0,-0.24205 0,-0.24205 0,0 0.369171,-1.15198 0.369171,-1.33568 0,-0.18169 -0.125193,-0.48413 -0.125193,-0.48413 0,0 -0.121597,-0.30442 0,-0.78986 0.125193,-0.48546 0.06266,-0.1817 0.186326,-0.36344 0.121597,-0.18169 0.121597,-0.18169 0.306574,-0.66849 0.184309,-0.48546 0.184309,-0.42445 0.184309,-0.66784 0,-0.24339 0,-0.1817 -0.123395,-0.78855 -0.125192,-0.60679 -0.125192,-0.36539 -0.125192,-0.36539 0,0 0,-0.18172 -0.06074,-0.42378 -0.06266,-0.24208 -0.06266,-0.30375 -0.06266,-0.30375 0,0 0,-0.18172 0,-0.42446 0,-0.24271 0.121469,-0.24271 0.121469,-0.42444 0,-0.18113 0,-0.36343 0,-0.36343 0,0 0.125192,-0.42445 0.125192,-0.42445 0,0 0.123395,-0.60683 0.123395,-0.60683 0,0 0,0 0,-0.30438 0,-0.30373 0,-0.36344 0,-0.36344 0,0 0,0 0,-0.2434 0,-0.24206 0,-0.18096 0,-0.48544 0,-0.30244 0,0 0.121469,-0.36343 0.123395,-0.36609 0.185593,-0.24339 0.185593,-0.24339 0,0 0.861518,-0.78987 0.861518,-0.78987 0.739086,0.97158 1.84457,0.66783 1.84457,0.66783 2.033654,3.03413 5.476786,1.03325 5.476786,1.03325 2.031446,5.70283 6.829548,3.88169 8.245829,3.15481 1.416295,-0.72818 2.459362,-2.00283 3.014126,-2.24622 0.554764,-0.24273 2.461929,0.54713 2.461929,0.54713 3.876747,2.73103 8.24529,0.9099 10.152455,0.42445 1.907153,-0.48548 2.029418,-1.63743 0,-1.03257 -2.030894,0.60812 -5.538663,0.24467 -5.538663,0.24467 4.000669,0.12147 4.799578,-2.24622 4.799578,-2.24622 0.184129,0.42445 1.416101,0.72818 2.215755,0.72818 0.799653,0 2.399513,0.60682 5.476607,1.39538 3.075437,0.79051 4.491539,0.60812 5.782616,0.12275 1.292001,-0.48544 3.814331,-1.27596 4.30741,-2.12551 0.49272,-0.84888 0.306574,-1.88082 -0.246174,-1.93986 -0.552735,-0.061 -0.737044,0.97025 -1.168079,1.57642 -0.430483,0.60814 -2.339677,0.60683 -4.000656,1.27596 -1.66044,0.66588 -1.722857,0.18171 -1.722857,0.18171 3.569621,-2.0035 3.569621,-3.33916 3.691874,-4.55215 0.121597,-1.21299 -1.107499,-0.36344 -1.291077,0.42444 -0.184309,0.78855 -0.861518,0.97027 -0.861518,0.97027 -2.031446,-1.15395 -5.293029,0.91056 -6.461121,1.27399 -1.16808,0.36541 -0.738342,-0.54514 -0.738342,-0.54514 4.061609,-0.0618 6.029355,-3.51826 6.890128,-4.61318 0.864099,-1.0903 -0.06073,-1.6991 -1.045634,-1.4557 -0.983231,0.24273 -2.829816,3.1548 -5.352326,4.24972 -2.521765,1.09031 -5.845225,-4.79684 -5.845225,-4.79684 2.952261,3.58123 8.246035,-3.3372 9.168672,-4.24776 0.923203,-0.90926 0.615345,-1.94053 -0.492899,-1.81916 -1.107692,0.1207 -4.244801,4.1861 -6.029522,4.91493 -1.78472,0.72819 -5.47477,-3.70062 -7.383772,-5.76513 -1.907165,-2.06255 -3.201002,-3.21518 -4.921277,-4.0654 -1.725438,-0.84888 0,-0.84888 0,-0.84888 4.244621,2.97309 6.274231,-1.03194 6.274231,-1.03194 2.830548,-0.66782 13.968057,2.12421 18.705771,2.85372 4.73752,0.7262 12.305602,-0.36607 14.830128,-1.39735 2.521778,-1.03059 2.584194,-3.70192 2.584194,-4.42947 0,-0.72555 -0.927992,0.18246 -0.927992,0.18246 0,0 0,0 0,0 m -70.328411,-46.419 c 0.308038,-0.60682 1.107692,-2.55063 1.230689,-2.12355 0.125192,0.42444 -0.983963,7.10014 -0.983963,7.10014 0,0 -0.184862,-3.2775 -0.184862,-4.06602 -5.52e-4,-0.79053 -0.369722,-0.30441 -0.06253,-0.91057 0,0 0,0 0,0 m -48.608168,8.55651 c -1.230689,-1.69975 -1.784721,-5.21997 -2.092029,-6.00787 0,0 5.291747,6.79576 6.214398,10.55936 0,-6.5e-4 -2.892412,-2.85239 -4.122369,-4.55149 0,0 0,0 0,0 m -13.537039,8.91932 c 0.0607,0.60616 8.49146,10.37501 11.690441,13.10737 3.200271,2.7297 7.014601,6.43034 7.014601,6.43034 -2.9528,-1.09229 -10.398442,-5.09731 -15.198762,-8.31119 -4.79865,-3.21649 -3.50628,-11.22652 -3.50628,-11.22652 0,0 0,0 0,0 m 11.2607,24.21056 c -2.15389,-0.18172 -4.49209,-1.51739 -4.49209,-1.51739 1.29182,1.57905 7.383773,2.61033 7.383773,2.61033 0,0 -2.646251,-0.1207 -4.983713,-0.1207 -2.33948,0 -3.44571,-0.48613 -3.44571,-0.48613 1.72285,1.88081 6.397964,1.39537 8.183237,1.27399 1.785465,-0.12069 3.938059,1.51674 3.938059,1.51674 -2.460632,-0.36345 -8.060236,0.48481 -12.490646,0.0618 -4.43023,-0.42446 -4.24592,-6.61404 -4.24592,-7.70698 0,-1.09227 0.3086,-3.39951 0.3086,-3.39951 0.1234,0.66782 3.01467,3.76296 6.39796,5.82745 3.38458,2.06319 8.737453,2.18523 11.260695,2.36627 2.523062,0.18172 3.198987,2.66937 3.198987,2.66937 -4.369095,-2.00284 -8.85989,-2.91341 -11.013232,-3.09511 0,0 0,0 0,0 m 11.198093,21.72291 c -0.06253,1.88082 -0.922651,4.61317 -4.061057,4.42947 0,0 3.323448,-9.28273 5.476055,-8.85828 0,0 -1.354418,2.54865 -1.414998,4.42881 0,0 0,0 0,0 m 4.552852,-2.66871 c -0.184309,0.54714 -0.677209,0.60682 -0.677209,0.60682 0,0 -0.06253,-0.60682 -0.06253,-1.03125 0,-0.42446 0.800938,-1.21301 0.800938,-1.21301 -0.18413,0.24077 0.123395,1.09032 -0.06073,1.63744 0,0 0,0 0,0 m 2.092579,-7.766 c -0.862815,0.1207 -3.999192,0.66784 -5.476607,3.03409 0,0 2.707371,-4.85522 3.938612,-4.91687 1.230689,-0.061 3.014125,0.0618 3.014125,0.60681 0,0.54648 -0.615896,1.15328 -1.47613,1.27597 0,0 0,0 0,0 m 3.630022,-10.92345 c -0.368991,0.24272 -1.59968,-0.60683 -1.59968,-0.60683 0.552748,0.2414 1.291821,-0.60813 1.291821,-0.60813 0.554032,0.54582 0.6770286,0.97222 0.307859,1.21496 0,0 0,0 0,0 M -11.6144,314.15892 c 2.0308946,2.24425 6.3985126,9.70718 6.3985126,9.70718 -2.521765,-2.54734 -6.3985126,-9.70718 -6.3985126,-9.70718 0,0 0,0 0,0 m 6.7365716,38.24424 c 0.507447,0.13641 1.199936,-0.3654 1.199936,-0.3654 -0.737057,2.45812 -1.7061,0.22961 -1.199936,0.3654 0,0 0,0 0,0 m 6.185107,-39.76162 c -0.86280198,-0.48547 -1.78545298,-4.67221 -1.60059098,-5.70282 0.185041,-1.03391 -1.16937702,-0.42511 -1.16937702,-0.42511 0,0 -0.677208,-2.18456 -1.291269,-4.4918 -0.616628,-2.30396 -1.353685,-6.91513 -1.353685,-6.91513 0.123395,0.60483 2.768683,4.73189 3.75375002,6.36933 0.983963,1.63939 1.353686,3.82463 1.72303598,5.40105 0.369171,1.57642 -0.06266,5.76448 -0.06266,5.76448 0,0 0,0 0,0 m 8.306602,-10.92216 c -0.430483,2.60967 -1.96903,8.01071 -2.030894,9.28276 -0.06253,1.27595 -1.045827,4.97856 -1.045827,4.97856 0,0 0.308038,-6.19155 0.308038,-7.76799 0,-1.57707 0.36917,-5.1583 0.860786,-6.67568 0.492899,-1.51739 1.293105,-6.79577 1.046379,-7.5843 0,0 1.045648,0.30177 1.4148184,-0.36409 0,0 1.045827,0.97026 1.784901,0.60483 -7.32e-4,6.5e-4 -1.907898,4.91561 -2.3382014,7.52591 0,0 0,0 0,0 m 2.4604534,1.75945 c 0.245621,-5.9462 4.799578,-14.31902 4.799578,-14.31902 0,0 0.06266,1.93986 -0.06074,3.57994 -0.123395,1.63612 -0.677209,2.7894 -1.476682,4.18673 -0.800386,1.39406 -3.261583,6.55235 -3.261583,6.55235 0,0 0,0 0,0 m 15.9371,-10.25495 c 0.251515,-0.29782 0.214317,-0.63176 0.192964,-0.74525 0,-0.0282 0,-0.0431 0,-0.0431 0,0 0,0.0168 0,0.0431 0.04417,0.20797 0.237519,1.13624 0.237519,1.35206 0,0.24208 -0.246918,0.24208 -0.55348,0.12276 -0.308038,-0.12276 -0.185593,-0.36409 0.123395,-0.72952 0,0 0,0 0,0 m 0.430483,4.12641 c -0.125193,1.9405 -3.569621,6.18761 -3.569621,6.18761 0.246174,-1.57577 3.569621,-6.18761 3.569621,-6.18761 0,0 0,0 0,0 m -3.261031,-3.15615 c 1.784901,1.45835 -2.8311,6.61404 -2.8311,6.61404 0.06074,-2.97113 2.8311,-6.61404 2.8311,-6.61404 0,0 0,0 0,0 m 8.656436,20.62147 c 0.256857,-0.32078 0.476888,-0.54187 0.634682,-0.59567 0,0 -0.25226,0.2329 -0.634682,0.59567 -1.154097,1.44392 -3.041372,4.95955 -3.242246,5.10714 -0.245441,0.18246 -0.616641,0.2434 -0.800205,-0.48546 -0.141783,-0.56285 2.73056,-3.37458 4.042451,-4.62168 0,0 0,0 0,0 m -1.949693,25.13162 c 0,0 2.15334,1.39537 2.275592,9.34506 0,0 -1.598383,2.18457 -1.967553,2.24428 -0.368619,0.0628 -0.739074,-1.88082 -0.677209,-3.51828 0.06266,-1.63743 0.799653,-7.82963 0.36917,-8.07106 0,0 0,0 0,0 m -1.909194,3.21649 c 0,0 -0.368618,9.52612 1.846585,9.70849 0,0 -1.107512,1.33436 -1.537802,1.27534 -0.431228,-0.0605 -1.96903,-4.00636 -0.308783,-10.98383 0,0 0,0 0,0 m 0.800951,11.77235 c 0.739073,0 3.507564,-1.94182 3.507564,-1.94182 0,0 0.244157,2.48764 0.244157,2.48764 -3.196957,0.97155 -3.751721,-0.54582 -3.751721,-0.54582 0,0 0,0 0,0 m 14.643982,-0.84889 c -5.721496,3.69999 -4.429123,-7.22086 -4.553404,-8.79925 -0.123395,-1.57839 -0.861518,-3.70063 -0.861518,-3.70063 2.708103,-1.69977 5.414922,12.49988 5.414922,12.49988 0,0 0,0 0,0 m -6.522434,-9.70982 c 0.494196,0.36343 0.307858,3.64093 0.307858,4.97661 0,1.33303 0.739253,3.15481 0.739253,3.15481 -0.861518,0 -1.478146,-2.9731 -1.7849,-4.06537 -0.30859,-1.09097 -0.799474,-2.36694 -0.799474,-2.36694 0.613329,0.061 1.537263,-1.69911 1.537263,-1.69911 0,0 0,0 0,0 m -2.890936,4.0654 c 0,0 0.245981,-0.18172 0.245981,-0.18172 0.123395,1.76012 2.584375,5.70479 2.584375,5.70479 -1.047664,0.84957 -2.952248,1.03125 -2.952248,1.03125 -0.431587,-0.36277 0.121597,-6.55431 0.121597,-6.55431 0,0 0,0 0,0 m 3.507577,10.9838 c -2.892977,-0.4264 -3.383296,-3.33915 -3.383296,-3.33915 0,0 2.459901,-0.54516 3.44516,-1.213 0,0 2.092014,2.54865 4.061044,2.3663 0,6.5e-4 -1.231972,2.61096 -4.122908,2.18585 0,0 0,0 0,0 m 4.262662,-3.45003 c -0.03133,0 -0.05714,-0.004 -0.07923,-0.009 0,0 0.02953,0.004 0.07923,0.009 0.543349,0.001 2.258475,-0.9788 2.258475,-0.9788 0,0.66654 0.863354,1.15395 0.863354,1.15395 -0.443734,0.10761 -2.672933,-0.12647 -3.121829,-0.17515 0,0 0,0 0,0 m 5.765307,-1.16114 c 0.677222,1.69975 3.445892,1.69975 3.445892,1.69975 -3.508488,0.72622 -3.445892,-1.69975 -3.445892,-1.69975 0,0 0,0 0,0 m 9.845701,-0.91256 c 0.616076,0.54911 0.369171,0.73081 0.18431,0.6685 -0.18431,-0.0597 -0.552748,-0.18245 -0.677209,-0.42378 -0.121598,-0.24472 0.492899,-0.24472 0.492899,-0.24472 0,0 0,0 0,0 m -1.353685,-1.9405 c 1.169376,1.21363 -0.06266,1.51737 -0.370455,1.51737 -0.306754,0 -0.675745,-0.5471 -0.983783,-1.1533 -0.306754,-0.6068 -2.768683,-5.40103 -2.768683,-5.40103 0.430303,0.061 2.953545,3.82463 4.122921,5.03696 0,0 0,0 0,0 m -6.706551,-4.97594 c 0,0 1.291822,1.88278 1.844557,2.66936 0.554764,0.7905 2.524538,4.79685 3.692618,5.03826 0,0 -3.99918,2.67001 -7.385236,-2.06319 0,0 1.540755,-0.91253 2.217964,-1.51673 0.675732,-0.60814 0.737609,-1.09294 0.244145,-1.39666 -0.490319,-0.3031 -2.706074,1.27398 -3.014112,1.33499 0,0 -2.255163,-8.61556 -3.800335,-10.17821 -0.156511,-0.12275 -0.260722,-0.19812 -0.260722,-0.19812 0.08282,0.0406 0.169389,0.10683 0.260722,0.19812 0.409129,0.32145 1.177478,0.97287 1.40027,1.499 0.30859,0.73149 2.030894,4.73388 4.800129,4.61318 0,0 0,0 0,0 m 22.642407,-31.49258 c -0.615344,0.36412 -7.320059,2.85372 -8.982334,2.91276 0,0 9.352789,-4.67287 9.720675,-4.6112 0.369171,0.0591 -0.123395,1.3337 -0.738341,1.69844 0,0 0,0 0,0 m 7.261508,-4.97593 c -0.186338,0.66652 -4.00067,3.51824 -4.738998,3.64159 -0.737789,0.12198 -0.123395,-1.39537 -0.123395,-1.39537 0.737044,-0.24471 4.245353,-3.3982 4.245353,-3.3982 0.616821,0.0597 0.800938,0.48415 0.616821,1.15198 0,0 0,0 0,0 m -4.923859,-3.88235 c 0.307859,-0.30375 0.677029,0.11941 1.90827,0.78656 1.230689,0.66849 -0.245994,2.06255 -2.768504,3.57994 -2.523793,1.51671 -12.121472,5.76447 -12.121472,5.76447 10.767787,-7.09818 12.674952,-9.82789 12.981706,-10.13097 0,0 0,0 0,0 m -3.321431,0.0596 c 0,0 -4.369275,4.48916 -5.968402,5.09732 0,0 0.983963,-3.33851 3.814331,-5.64248 7.32e-4,-6.6e-4 2.030162,-0.42708 2.154071,0.54516 0,0 0,0 0,0 m -5.845957,-2.79139 c 0.227581,-0.27947 3.339472,-2.78415 3.812302,-3.1653 0.02953,-0.0315 0.04969,-0.0511 0.06446,-0.0511 0,0 -0.02401,0.0197 -0.06446,0.0511 -0.459027,0.53137 -2.748614,5.29541 -3.504264,5.41153 -0.798357,0.12018 -0.55348,-1.9438 -0.308038,-2.24623 0,0 0,0 0,0 m -19.62751,16.44397 c 0,0 7.013125,-8.25149 18.151379,-15.22959 0,0 -0.125192,0.78591 0.06073,1.15197 0.18431,0.36542 1.047677,2.30593 0.125193,3.09578 -0.923935,0.78789 -15.32101,12.37853 -18.33642,10.98184 0,0 0,0 0,0 m 24.550264,-1.6991 c 0,0 -6.707475,5.15831 -8.614641,5.5224 -1.909001,0.36345 -6.460389,0.60619 -7.629945,1.09229 7.31e-4,0 10.585506,-5.03629 16.244586,-6.61469 0,0 0,0 0,0" />

<path style="fill:#808080;stroke-width:0.99999994" d="M 30.169906,358.02772 V 311.5379 l 3.716552,2.04695 c 2.043966,1.12581 4.236892,2.0469 4.872858,2.0469 2.095339,0 3.129572,-6.83784 1.271379,-8.40557 -1.446662,-1.22064 -1.25425,-1.47061 1.133103,-1.47061 1.581998,0 3.150745,-0.55555 3.486403,-1.23452 0.335478,-0.679 0.709617,1.56025 0.830958,4.97607 0.141769,3.97896 -0.57319,7.28569 -1.98874,9.20244 -1.215396,1.64551 -1.97952,3.47536 -1.698177,4.06634 0.281343,0.59101 1.912867,-1.28656 3.625784,-4.17236 1.712726,-2.8858 3.416244,-5.03548 3.785235,-4.77705 0.368991,0.25841 -0.846238,4.66131 -2.700553,9.78424 -1.854507,5.1229 -3.142091,9.48037 -2.86148,9.68329 1.210247,0.8751 4.863458,-0.94273 4.863458,-2.42006 0,-2.10991 6.01351,-11.28171 7.397024,-11.28171 1.866102,0 1.14747,3.93293 -1.171393,6.41082 -2.790961,2.98261 -1.482203,4.64855 3.029213,3.85573 4.579739,-0.80483 4.363753,0.18321 -0.439137,2.0076 l -3.878956,1.47343 4.43336,0.0394 c 2.846559,0.0254 4.751144,-0.54046 5.32138,-1.58102 1.089651,-1.98806 -0.268451,-5.29273 -2.175065,-5.29273 -0.769273,0 -0.904789,-0.55553 -0.301219,-1.23451 1.40303,-1.57792 0.658795,-5.78609 -1.322202,-7.47583 -0.840164,-0.71675 -2.637956,-1.09989 -3.994954,-0.85139 -1.734451,0.31759 -2.408899,-0.0922 -2.270263,-1.37947 0.152825,-1.41546 0.958013,-1.69751 3.54882,-1.24219 2.903095,0.51015 3.28829,0.27421 2.877132,-1.76165 -0.429379,-2.12596 -1.062584,-2.31956 -6.622228,-2.02518 -4.138561,0.21916 -5.839691,-0.0229 -5.206306,-0.7407 0.517758,-0.58642 1.923922,-1.06623 3.124602,-1.06623 1.516809,0 1.88083,-0.52766 1.192014,-1.72834 -0.545378,-0.95057 -1.315755,-2.28386 -1.712353,-2.96286 -1.283167,-2.19782 3.097895,-1.30562 4.536096,0.92373 2.799243,4.33905 4.515281,2.98022 5.484888,-4.34322 2.889652,-21.82429 2.841231,-23.23786 -1.037545,-30.23192 -2.011377,-3.62672 -4.299308,-8.59402 -5.084606,-11.03835 -1.505945,-4.68779 -1.998306,-12.83907 -0.775347,-12.83907 0.39661,0 7.809286,1.99484 16.472167,4.433 8.663062,2.43813 15.997848,4.26004 16.299813,4.04869 0.494556,-0.34622 7.411751,-17.34316 7.411751,-18.21198 0,-0.19896 -6.935416,-0.0446 -15.411972,0.34315 -8.476544,0.38773 -16.209956,0.35965 -17.185265,-0.0625 -2.710504,-1.17296 2.41442,-2.25117 11.086881,-2.33245 4.072831,-0.0383 7.405126,-0.51385 7.405126,-1.05705 0,-0.54319 3.015036,-0.99441 6.700104,-1.00273 3.684889,-0.008 7.371985,-0.34164 8.193364,-0.74069 1.937726,-0.94151 9.77187,-21.80808 8.51723,-22.6865 -0.52586,-0.36825 -3.703476,0.38128 -7.061348,1.66561 -3.729816,1.42662 -7.085673,2.0717 -8.625504,1.658 -1.64774,-0.4427 -3.663162,0.0747 -5.821663,1.4945 -1.815833,1.19442 -3.476273,1.98473 -3.689485,1.75625 -2.458617,-2.63246 -6.82698,-9.03345 -6.378996,-9.34719 0.319826,-0.22394 5.620405,-0.91793 11.77919,-1.5422 6.158785,-0.62425 12.199734,-1.7451 13.424529,-2.49075 1.224616,-0.74566 3.884837,-1.35574 5.911507,-1.35574 2.02648,0 4.0859,-0.45457 4.57623,-1.01017 0.93701,-1.06158 7.69034,-17.69386 7.72052,-19.01448 0,-0.42134 -1.78637,-0.11299 -3.99089,0.6853 -3.57552,1.29454 -4.25328,1.27998 -6.27368,-0.13455 -2.07969,-1.45619 -2.4078,-1.36641 -4.01097,1.09715 l -1.746057,2.68313 -1.804238,-2.27628 c -2.950591,-3.72269 -2.276695,-4.37258 5.853875,-5.64662 4.2669,-0.66858 7.75772,-1.58 7.75772,-2.02532 0,-0.44535 1.57169,-1.08588 3.49248,-1.42342 3.73203,-0.65587 3.59411,-0.40668 11.19551,-20.22506 1.95485,-5.09686 3.75284,-9.40588 3.99515,-9.57559 0.24229,-0.16972 1.21448,0.0262 2.16014,0.43542 1.30379,0.56422 0.59159,3.96196 -2.94637,14.05795 l -4.66571,13.31391 7.84224,-0.10246 c 4.31331,-0.0562 10.11654,-0.4423 12.8959,-0.85769 4.52008,-0.67554 5.31936,-0.47096 7.57453,1.93892 2.51072,2.68302 2.50759,2.69166 -0.74848,2.09546 -1.79834,-0.32927 -4.07744,-0.12913 -5.06489,0.44455 -0.98728,0.57377 -4.03547,1.08768 -6.7734,1.14202 -2.73793,0.0543 -4.97817,0.44989 -4.97817,0.87901 0,0.42915 -2.45126,1.0547 -5.44751,1.39015 -2.99609,0.33546 -6.06507,0.89624 -6.81981,1.24622 -1.16476,0.5401 -7.49571,16.32022 -7.47195,18.62456 0.0184,1.36543 11.59708,1.21884 24.48692,-0.3099 6.87798,-0.81574 12.68287,-1.34944 12.89977,-1.18604 0.2169,0.16337 1.03239,1.93337 1.81216,3.93316 l 1.41776,3.63601 -12.90714,0.55902 c -7.09875,0.30742 -15.7944,0.67113 -19.32333,0.80827 -10.13477,0.39374 -11.78987,1.82315 -15.97686,13.79899 -2.03587,5.82274 -3.70147,10.87436 -3.70147,11.22577 0,0.35138 4.06143,0.33438 9.02525,-0.0379 5.5821,-0.41856 9.35886,-0.29885 9.89964,0.31373 0.48075,0.54477 2.92538,0.81532 5.43259,0.60121 2.50705,-0.2141 9.47746,-0.62359 15.48986,-0.90999 9.06833,-0.43198 10.93148,-0.27038 10.93148,0.94808 0,0.86569 -1.30323,1.46768 -3.17356,1.46599 -5.18846,-0.005 -48.26995,2.22639 -48.78162,2.52622 -0.75675,0.44364 -7.227454,18.55216 -7.258386,20.31353 -0.02029,1.17617 9.601736,4.33242 36.131696,11.85145 24.42101,6.92137 36.801,10.93117 38.13517,12.35169 1.08633,1.15684 2.60445,4.93449 3.37353,8.39477 1.29016,5.80455 9.21452,19.36437 10.70629,18.31993 0.35703,-0.24991 3.77879,-12.16937 7.60399,-26.48763 3.82537,-14.31832 7.22781,-26.82929 7.56053,-27.80218 0.46159,-1.34881 -0.0185,-1.63085 -2.01047,-1.18759 -2.59136,0.57586 -6.77486,-0.64735 -11.68105,-3.41533 -2.28738,-1.2906 -2.85466,-1.15844 -5.68134,1.32363 l -3.14007,2.75733 -3.40906,-1.93286 c -3.33874,-1.89295 -3.49819,-1.89485 -7.7187,-0.0928 -5.39908,2.30531 -9.11454,2.3439 -11.47207,0.11928 -1.72912,-1.63178 -1.94803,-1.61806 -3.91909,0.24535 -1.1482,1.08553 -2.53337,1.66159 -3.0782,1.28017 -1.22018,-0.85431 -3.702,-9.84139 -2.87713,-10.41886 0.32811,-0.22977 10.9278,-1.05036 23.55489,-1.82351 12.6269,-0.77314 23.37516,-1.87838 23.88519,-2.4561 0.50985,-0.57773 3.48825,-1.29093 6.61855,-1.58491 5.25621,-0.49362 5.75648,-0.80893 6.54048,-4.1225 0.46693,-1.97339 2.35845,-9.06045 4.20338,-15.74901 l 3.35475,-12.16108 -4.16012,2.77869 -4.16011,2.77865 -2.84086,-2.44414 -2.84066,-2.44413 -3.93475,3.37557 -3.93476,3.37556 -3.64842,-2.90665 -3.64824,-2.90669 -0.0442,2.71596 c -0.0276,1.64812 -0.81715,2.71595 -2.00935,2.71595 -2.28462,5e-5 -3.67734,-2.10578 -3.67734,-5.56032 0,-1.33978 -1.26513,-4.26939 -2.8114,-6.51018 -1.5461,-2.2408 -2.61955,-4.20842 -2.38534,-4.37248 0.2344,-0.16411 7.5296,-1.05251 16.21145,-1.9743 10.53468,-1.11851 15.78518,-2.09189 15.78518,-2.92643 0,-0.72101 2.6328,-1.52689 6.21808,-1.90333 l 6.21807,-0.65292 3.65561,-13.51628 c 2.01065,-7.43402 3.65562,-14.2188 3.65562,-15.07734 0,-1.63244 0.57391,-1.67838 -20.80517,1.66619 -1.74551,0.27307 -3.17376,0.0295 -3.17376,-0.54094 0,-1.25666 0.6601,-1.41606 14.38383,-3.47344 l 10.85763,-1.62769 1.56782,-5.59119 c 2.14912,-7.66444 2.65877,-8.5624 4.23358,-7.45974 0.81199,0.56854 0.84937,3.03511 0.0957,6.33776 -0.67831,2.97383 -1.08579,5.51804 -0.90534,5.65384 0.18044,0.13586 3.93971,-0.26103 8.35448,-0.88178 7.25284,-1.0199 11.09296,-0.73626 9.08342,0.67091 -0.41631,0.29141 -4.66462,1.03868 -9.44101,1.66062 -9.97052,1.29828 -8.77003,-0.36483 -12.84176,17.79251 -3.35567,14.96382 -3.27317,13.59609 -0.82194,13.59609 1.09886,0 2.20968,0.43902 2.46837,0.97556 0.2924,0.60676 6.60291,0.23583 16.69128,-0.98104 8.92139,-1.07617 17.33165,-1.95961 18.68938,-1.96319 4.18128,-0.0103 2.72762,1.68546 -2.01303,2.34933 l -4.48141,0.62756 3.77622,2.75969 c 2.82005,2.06097 3.76313,3.74625 3.72539,6.65613 l -0.0516,3.89646 -3.17597,-2.71595 c -1.7468,-1.49376 -3.91577,-2.71596 -4.82019,-2.71596 -0.90424,0 -2.90753,1.99992 -4.45195,4.44427 -3.16677,5.01283 -4.82574,5.33181 -12.83994,2.46907 -3.04137,-1.0864 -6.10041,-1.97526 -6.79824,-1.97526 -0.69785,0 -3.42068,1.55077 -6.05089,3.44618 -2.63041,1.89536 -5.45894,3.45086 -6.28603,3.45665 -0.83555,0.005 -2.59947,5.14365 -3.9701,11.5642 -1.35661,6.35454 -2.79721,12.71114 -3.20136,14.12578 l -0.73467,2.57207 9.45057,-0.42134 c 5.23762,-0.2335 9.85031,0.004 10.34689,0.53182 0.5717,0.60777 8.30808,0.49246 21.34906,-0.31814 11.24892,-0.69925 20.89999,-1.29539 21.44667,-1.32475 0.54665,-0.0294 1.42253,1.54607 1.94618,3.50097 0.52384,1.95489 1.34596,3.13431 1.82708,2.62093 0.48112,-0.51341 3.99826,-1.22591 7.81594,-1.5834 3.81763,-0.35745 7.05762,-0.75912 7.19995,-0.89258 0.14288,-0.13341 1.80486,-7.35351 3.69459,-16.04455 l 3.43565,-15.80191 -10.98829,-0.28686 c -11.55941,-0.30174 -15.55861,-2.18219 -4.6409,-2.18219 3.49104,0 6.34737,-0.41761 6.34737,-0.928 0,-0.51039 2.36613,-1.06595 5.25804,-1.23453 5.73852,-0.33455 5.15312,0.55784 7.89367,-12.03263 l 0.83248,-3.82517 -6.99199,0.47044 c -9.15542,0.61594 -9.08597,-0.95237 0.0796,-1.80372 5.67789,-0.52736 7.19146,-1.06948 7.67789,-2.74996 2.41135,-8.33114 3.14557,-9.93654 4.34502,-9.50025 1.49448,0.54357 1.49267,0.47798 0.2019,7.16023 l -0.90604,4.6912 h 6.32034 c 3.47629,0 6.32036,0.44441 6.32036,0.98762 0,0.54319 -2.78838,0.98761 -6.19637,0.98761 -7.13296,0 -7.25016,0.12455 -8.63467,9.17694 l -1.00308,6.55832 7.2118,-0.59806 c 4.9551,-0.4109 7.21179,-0.24597 7.21179,0.52715 0,0.69179 2.71649,1.12519 7.05262,1.12519 3.87906,0 7.05261,0.44441 7.05261,0.98762 0,0.56712 -4.65405,1.01885 -10.9315,1.06099 -10.67259,0.0717 -17.23756,0.55605 -18.38028,1.35621 -0.31206,0.2185 -1.98393,7.58926 -3.71507,16.37944 l -3.14753,15.98215 8.21353,-0.41599 c 4.51743,-0.22879 8.21353,-0.015 8.21353,0.47641 0,0.51631 5.05291,0.59769 11.98954,0.19311 8.11361,-0.4732 11.98935,-0.36179 11.98935,0.34464 0,1.21019 -6.45906,1.85316 -25.95317,2.58353 -7.68001,0.28774 -14.3106,0.766 -14.73445,1.06282 -0.71285,0.4991 -8.43965,36.5058 -8.60646,40.10576 -0.0614,1.32069 2.20983,1.71192 12.97314,2.23486 35.85365,1.74197 36.32094,1.78445 36.32094,3.30142 0,1.02483 -0.96352,1.31072 -3.17355,0.9416 -1.74558,-0.29151 -13.0546,-0.83991 -25.13138,-1.21868 l -21.95757,-0.68865 -2.97597,14.65574 c -1.63684,8.06066 -2.66756,15.00514 -2.29066,15.43213 0.37691,0.42699 1.87836,0.77635 3.3366,0.77635 2.08629,0 2.85856,-0.99985 3.62339,-4.69115 1.34436,-6.48881 2.88279,-8.26566 6.66252,-7.69526 1.71447,0.25877 8.93589,1.43492 16.04749,2.61367 l 12.93033,2.14317 0.9706,9.06532 c 0.53396,4.98593 0.74535,14.89574 0.46969,22.02183 -0.47751,12.35338 -0.67177,13.08592 -4.17303,15.73638 -4.23172,3.20346 -6.11318,6.23655 -3.86882,6.23655 1.07215,0 1.04717,0.41496 -0.0828,1.36772 -1.29722,1.09438 -0.83848,1.52143 2.29568,2.13722 2.15436,0.42326 4.39299,0.69665 4.97481,0.60755 0.58196,-0.089 1.05801,8.28215 1.05801,18.60276 v 18.76477 H 178.27334 30.168264 v -46.48978 l 5.52e-4,-4e-5 M 258.58042,330.69286 c 1.97344,-1.12208 3.8053,-4.08166 5.22213,-8.43752 1.99703,-6.13964 2.53044,-6.75799 6.28474,-7.28369 2.25627,-0.31598 4.13894,-0.63005 4.18331,-0.69797 0.0443,-0.0679 1.50484,-6.34546 3.24538,-13.9501 l 3.16455,-13.82668 -12.06127,-0.63849 c -6.63364,-0.35118 -17.03135,-0.86836 -23.10599,-1.14928 -10.82007,-0.5004 -13.59705,-1.04005 -11.80588,-2.29422 0.49124,-0.34393 11.38941,-0.23282 24.21828,0.2469 l 23.32527,0.87222 0.75529,-2.96284 c 2.84479,-11.16101 8.76918,-38.57652 8.39439,-38.84555 -0.25172,-0.18058 -4.01742,-0.0168 -8.36842,0.3637 -6.91793,0.60521 -7.68538,0.88367 -6.1135,2.21832 1.58898,1.34935 1.10272,1.44893 -4.19731,0.85914 -3.84231,-0.42754 -5.99473,-0.29579 -5.99473,0.36696 0,0.69964 -0.94805,0.67884 -2.93145,-0.0643 -3.67328,-1.3765 -6.92842,-0.56654 -6.98716,1.73866 -0.0405,1.59706 -0.24397,1.57714 -2.20305,-0.21592 -2.13253,-1.95182 -2.18207,-1.95253 -4.18663,-0.0582 -1.11579,1.05442 -2.02849,2.2766 -2.02849,2.71597 0,1.7936 -8.4946,0.65291 -12.43763,-1.6702 -5.07227,-2.98843 -5.01427,-2.98629 -10.06978,-0.36928 -3.3472,1.73279 -5.17813,1.98199 -10.47503,1.42584 -5.92108,-0.6217 -6.47419,-0.49734 -7.13336,1.60381 -1.37671,4.38815 -12.0736,53.17836 -12.0736,55.06988 0,1.05084 1.57684,3.15758 3.50444,4.68164 l 3.50445,2.77104 0.89171,-2.22214 c 0.49032,-1.22219 1.49492,-2.22216 2.23252,-2.22216 1.47814,0 0.15466,3.89642 -1.82855,5.38254 -2.03844,1.52755 -1.43065,4.23434 1.10365,4.91526 3.38034,0.90825 4.65062,-1.12057 4.67528,-7.46669 0.0202,-5.1451 0.28687,-5.59921 3.5479,-6.03567 3.51753,-0.47083 4.79037,0.56578 2.11578,1.72315 -1.64682,0.71266 -1.92189,4.44429 -0.32738,4.44429 0.59564,0 3.39122,-1.09815 6.21219,-2.44036 4.19399,-1.99546 5.27389,-2.17613 5.92328,-0.99117 0.53121,0.96911 -0.97382,2.08074 -4.54345,3.35577 -6.78444,2.42345 -9.01033,4.31948 -8.4307,7.18164 0.43712,2.15887 0.80702,2.05313 7.1608,-2.04666 3.68505,-2.37776 6.7001,-3.75333 6.7001,-3.05685 0,0.69646 -2.51257,2.93976 -5.58322,4.98508 l -5.5832,3.71878 6.14184,1.46529 c 6.55852,1.5647 9.25613,0.86862 9.25613,-2.38837 0,-1.16426 1.07236,-1.62992 3.52525,-1.53084 4.26342,0.17236 4.26231,0.16524 0.57429,3.44335 l -2.95299,2.62482 7.41231,2.35982 c 7.1258,2.26859 7.48539,2.28993 9.30032,0.55193 1.80571,-1.7289 1.888,-1.72053 1.888,0.19154 0,3.65946 2.36582,4.19929 6.95919,1.5879 v -10e-5 m -62.05848,-17.60526 c -1.29145,-1.08957 -2.18041,-1.1955 -3.30705,-0.39411 -1.11784,0.79515 -0.77093,1.49368 1.26399,2.54509 3.2929,1.70134 4.76829,0.1482 2.04306,-2.15098 v 0" />

<path style="fill:#808080;stroke:#808080;stroke-width:40" d="m 182.2901,32.17771 c -2.17124,-0.39262 -4.99719,-1.62855 -6.27989,-2.74652 -7.15191,-6.23338 -7.95631,-6.31249 -20.12521,-1.97935 -10.32126,3.67522 -15.3516,3.4697 -24.40507,-0.99698 0,0 -7.41645,-3.65912 -7.41645,-3.65912 0,0 -4.20538,2.11574 -4.20538,2.11574 -5.50512,2.76978 -15.14393,5.20929 -20.45031,5.17584 -2.3256,-0.0147 -7.525295,-1.20062 -11.554867,-2.63548 -11.330028,-4.03441 -11.527482,-4.0434 -18.61068,-0.84484 -8.776853,3.96333 -19.35806,4.14739 -28.364491,0.49343 -5.414355,-2.19657 -6.549336,-2.3413 -9.419841,-1.20129 -7.512672,2.98344 -13.971525,5.01996 -17.655374,5.5668 0,0 -3.924898,0.58266 -3.924898,0.58266 0,0 0,-54.125446 0,-54.125446 0,0 0,-54.125434 0,-54.125434 0,0 263.231891,0 263.231891,0 0,0 263.23182,0 263.23182,0 0,0 0,51.09374 0,51.09374 0,42.49439 -0.24059,51.09374 -1.42933,51.09374 -0.78617,0 -4.82303,-1.67434 -8.97086,-3.72075 0,0 -7.54146,-3.720766 -7.54146,-3.720766 0,0 -6.00217,2.65645 -6.00217,2.65645 -12.96332,5.737246 -22.78644,5.778996 -35.5031,0.150907 0,0 -6.02104,-2.664758 -6.02104,-2.664758 0,0 -5.73031,3.114657 -5.73031,3.114657 -5.26798,2.8634 -6.53242,3.11107 -15.67346,3.07001 -8.01559,-0.036 -10.95762,-0.49675 -15.17637,-2.37681 0,0 -5.23327,-2.332135 -5.23327,-2.332135 0,0 -6.51855,2.911595 -6.51855,2.911595 -5.87246,2.62302 -7.63601,2.90935 -17.793,2.88893 -8.96277,-0.0181 -12.21005,-0.44136 -15.83775,-2.06472 0,0 -4.56325,-2.042035 -4.56325,-2.042035 0,0 -7.47317,3.570925 -7.47317,3.570925 -10.2612,4.90314 -18.33193,5.33433 -23.35424,1.2477 -1.62722,-1.32407 -4.45905,-3.26454 -6.29294,-4.31216 -3.33365,-1.904366 -3.33587,-1.904095 -10.46648,1.33375 -14.01991,6.36613 -23.62006,6.56247 -36.74959,0.75164 0,0 -6.02105,-2.664774 -6.02105,-2.664774 0,0 -5.7303,3.114664 -5.7303,3.114664 -5.26802,2.86341 -6.53246,3.11107 -15.67346,3.07003 -8.01561,-0.036 -10.95764,-0.49675 -15.1764,-2.3768 0,0 -5.23323,-2.33215 -5.23323,-2.33215 0,0 -6.51856,2.91159 -6.51856,2.91159 -5.8725,2.62302 -7.63602,2.90934 -17.793,2.88894 -8.9628,-0.0181 -12.21008,-0.44136 -15.83774,-2.06472 0,0 -4.56327,-2.04204 -4.56327,-2.04204 0,0 -7.47316,3.52801 -7.47316,3.52801 -8.42738,3.9785 -12.00881,4.72657 -17.70074,3.69733 0,0 0,0 0,0" />
</svg>
