<svg xmlns="http://www.w3.org/2000/svg" viewBox="0 0 512 384">
<rect width="512" height="384" fill="none"/>

<path style="fill:#808080;stroke:#808080;stroke-width:40" d="m 182.2901,110.17771 c -2.17124,-0.39262 -4.99719,-1.62855 -6.27989,-2.74652 -7.15191,-6.23338 -7.95631,-6.31249 -20.12521,-1.97935 -10.32126,3.67522 -15.3516,3.4697 -24.40507,-0.99698 0,0 -7.41645,-3.65912 -7.41645,-3.65912 0,0 -4.20538,2.11574 -4.20538,2.11574 -5.50512,2.76978 -15.14393,5.20929 -20.45031,5.17584 -2.3256,-0.0147 -7.525295,-1.20062 -11.554867,-2.63548 -11.330028,-4.03441 -11.527482,-4.0434 -18.61068,-0.84484 -8.776853,3.96333 -19.35806,4.14739 -28.364491,0.49343 -5.414355,-2.19657 -6.549336,-2.3413 -9.419841,-1.20129 -7.512672,2.98344 -13.971525,5.01996 -17.655374,5.5668 0,0 -3.924898,0.58266 -3.924898,0.58266 0,0 0,-54.125446 0,-54.125446 0,0 0,-54.1254309 0,-54.1254309 0,0 263.231891,0 263.231891,0 0,0 263.23182,0 263.23182,0 0,0 0,51.0937369 0,51.0937369 0,42.49439 -0.24059,51.09374 -1.42933,51.09374 -0.78617,0 -4.82303,-1.67434 -8.97086,-3.72075 0,0 -7.54146,-3.720766 -7.54146,-3.720766 0,0 -6.00217,2.65645 -6.00217,2.65645 -12.96332,5.737246 -22.78644,5.778996 -35.5031,0.150907 0,0 -6.02104,-2.664758 -6.02104,-2.664758 0,0 -5.73031,3.114657 -5.73031,3.114657 -5.26798,2.8634 -6.53242,3.11107 -15.67346,3.07001 -8.01559,-0.036 -10.95762,-0.49675 -15.17637,-2.37681 0,0 -5.23327,-2.332135 -5.23327,-2.332135 0,0 -6.51855,2.911595 -6.51855,2.911595 -5.87246,2.62302 -7.63601,2.90935 -17.793,2.88893 -8.96277,-0.0181 -12.21005,-0.44136 -15.83775,-2.06472 0,0 -4.56325,-2.042035 -4.56325,-2.042035 0,0 -7.47317,3.570925 -7.47317,3.570925 -10.2612,4.90314 -18.33193,5.33433 -23.35424,1.2477 -1.62722,-1.32407 -4.45905,-3.26454 -6.29294,-4.31216 -3.33365,-1.904366 -3.33587,-1.904095 -10.46648,1.33375 -14.01991,6.36613 -23.62006,6.56247 -36.74959,0.75164 0,0 -6.02105,-2.664774 -6.02105,-2.664774 0,0 -5.7303,3.114664 -5.7303,3.114664 -5.26802,2.86341 -6.53246,3.11107 -15.67346,3.07003 -8.01561,-0.036 -10.95764,-0.49675 -15.1764,-2.3768 0,0 -5.23323,-2.33215 -5.23323,-2.33215 0,0 -6.51856,2.91159 -6.51856,2.91159 -5.8725,2.62302 -7.63602,2.90934 -17.793,2.88894 -8.9628,-0.0181 -12.21008,-0.44136 -15.83774,-2.06472 0,0 -4.56327,-2.04204 -4.56327,-2.04204 0,0 -7.47316,3.52801 -7.47316,3.52801 -8.42738,3.9785 -12.00881,4.72657 -17.70074,3.69733 0,0 0,0 0,0" />
</svg>

