<svg xmlns="http://www.w3.org/2000/svg" viewBox="0 0 512 384">
<rect width="512" height="384" id="P015WIImgRct4" fill="#000"/>

<path style="fill:#808080;stroke-width:1" d="m -76.984914,232.08796 c 0,0 29.529728,-2.04364 37.818748,0 8.289019,2.04364 23.831019,5.10912 35.2284385,10.21823 11.3974195,5.10911 109.5565775,36.78562 181.1856075,36.78562 71.62911,0 263.31331,-23.50193 297.50556,-17.37099 34.19222,6.13094 37.30059,1.02182 56.98704,-1.02182 19.68643,-2.04366 20.20449,-12.14795 37.30061,-5.56332 17.0961,6.58463 47.66189,7.60696 50.77029,11.69426 3.10837,4.08729 8.80708,122.08329 8.80708,127.1924 0,5.10912 -760.00001,-68.94851 -760.00001,-68.94851 0,0 54.396636,-92.98587 54.396636,-92.98587 0,0 0,0 0,0" />

<path style="fill:#808080;stroke-width:1" d="m 227.95092,319.78293 c -5.48685,-0.90606 -11.35492,-3.46476 -28.04452,-12.22943 -4.95105,-2.60019 -14.7665,-7.45751 -21.81226,-10.79384 -13.34735,-6.32073 -22.68457,-11.08234 -27.2788,-13.91106 0,0 -2.69649,-1.66038 -2.69649,-1.66038 0,0 0.46611,-8.29461 0.46611,-8.29461 0.25643,-4.56216 0.98679,-13.82632 1.62232,-20.58694 0.6356,-6.76069 1.14818,-18.28452 1.13839,-25.60855 -0.007,-11.54553 -0.21991,-14.04294 -1.53334,-18.77956 -1.91857,-6.91448 -5.08781,-13.51261 -11.11215,-23.13432 -11.55145,-18.44948 -14.30273,-27.5513 -14.16429,-46.86243 0.0833,-11.74973 1.0109,-17.19136 4.40538,-25.87281 5.58081,-14.2716 15.31875,-22.99513 33.57266,-30.07516 7.92384,-3.07339 29.7792,-9.32852 54.70394,-15.6567 7.77348,-1.97366 27.58002,-5.90497 37.04632,-7.35304 11.24161,-1.71978 40.57794,-1.78802 49.51056,-0.11471 15.62661,2.92626 29.82136,9.40487 39.93532,18.22725 0,0 3.23536,2.82214 3.23536,2.82214 0,0 -7.74506,11.42725 -7.74506,11.42725 -4.25985,6.28501 -10.00957,15.31743 -12.77765,20.0721 -4.63296,7.95847 -16.83389,32.08629 -16.4415,32.51375 0.0942,0.10667 1.71737,-0.14173 3.60884,-0.54135 5.69441,-1.20436 11.80576,0.63122 15.76198,4.73545 2.2325,2.31586 3.1596,2.64104 3.1596,1.10807 0,-1.67741 4.43,-5.48788 7.4006,-6.36567 5.98387,-1.76799 11.72182,-0.56765 15.60798,3.26451 1.88277,1.85691 2.61232,3.15968 2.61232,4.66518 0,1.85815 0.46465,2.33339 4.20732,4.30061 4.84673,2.5476 8.485,6.39686 9.84256,10.41351 0.73854,2.18347 1.39168,2.90923 2.96943,3.29746 1.11274,0.27396 5.27367,1.27142 9.24662,2.21715 3.97288,0.94551 7.45306,1.95539 7.73368,2.24404 0.28054,0.29004 0.85594,15.42884 1.27865,33.64505 0.64875,27.94721 1.3325,46.58716 2.27823,62.05063 0,0 0.18265,2.98017 0.18265,2.98017 0,0 -10.73306,2.66463 -10.73306,2.66463 -18.77043,4.66035 -37.82147,10.27199 -63.35967,18.66355 -14.28067,4.69235 -23.10925,7.71241 -57.47385,19.6599 -18.79074,6.53297 -21.74088,7.27304 -28.73696,7.20926 -3.23712,-0.0292 -6.66484,-0.18191 -7.617,-0.33971 0,0 2.9e-4,-1.5e-4 2.9e-4,-1.5e-4 m -1.5627,-85.06074 c -0.20749,-3.84992 -0.73854,-8.38264 -1.18018,-10.07276 -0.79516,-3.04124 -0.85901,-3.0929 -6.12793,-4.99115 -2.92852,-1.05518 -6.41513,-2.35334 -7.74807,-2.88556 -2.23439,-0.89226 -40.68131,-15.12339 -48.97394,-18.12811 -1.99002,-0.72108 -4.74993,-1.31095 -6.13313,-1.31095 -2.12335,0 -2.43735,0.1863 -2.01668,1.19508 0.27396,0.65679 0.93448,4.39442 1.46692,8.30491 0.91878,6.74462 1.69239,8.93817 3.15157,8.93817 0.35433,0 5.37968,2.0324 11.16753,4.51621 22.48205,9.64852 26.67783,11.42141 33.37444,14.10168 11.5657,4.62923 19.28344,7.26215 21.3924,7.29803 0,0 2.00375,0.0292 2.00375,0.0292 0,0 -0.37551,-6.99966 -0.37551,-6.99966 0,0 -8e-5,-0.003 -8e-5,-0.003 m 16.78246,-0.25789 c 10.12404,-3.50487 24.20066,-7.53393 40.17678,-11.49972 0,0 11.42542,-2.83625 11.42542,-2.83625 0,0 0.22209,-6.78772 0.22209,-6.78772 0.21626,-6.60025 -0.79304,-13.95812 -1.91433,-13.95812 -0.63341,0 -13.00544,3.83042 -30.16042,9.33853 -11.55605,3.71024 -29.2922,10.0084 -31.67979,11.24936 -1.48337,0.7709 -1.53093,3.37198 -0.17242,9.45944 0.54428,2.44144 1.00155,5.47049 1.01404,6.73132 0.0219,1.91389 0.22429,2.21014 1.23606,1.79371 0.66629,-0.2747 5.10053,-1.84507 9.85323,-3.49055 0,0 -5.2e-4,0 -5.2e-4,0 m 81.89493,-2.30285 c 6.56124,-1.50243 12.16733,-2.73163 12.45773,-2.73163 0.85689,0 0.62537,-25.46982 -0.25497,-27.95934 -0.89262,-2.5267 0.1673,-2.5755 -11.94034,0.54867 -4.5219,1.16644 -9.93351,2.89389 -12.02588,3.8386 -3.33684,1.50652 -3.74823,1.90644 -3.34729,3.2553 1.11764,3.76014 1.85633,10.92776 1.74221,16.90286 -0.1578,8.261 -0.10739,8.8776 0.73935,8.8776 0.38428,0 6.06729,-1.22927 12.62846,-2.73162 0,0 4.4e-4,0 4.4e-4,0 m -1.55021,-4.77002 c -0.36748,-0.6787 -0.8748,-3.03167 -1.12575,-5.23078 -0.52528,-4.60103 -1.76478,-7.4017 -3.7342,-8.44116 -2.79994,-1.47782 -0.97948,-7.33902 2.75245,-8.86373 2.12518,-0.86778 8.58604,-0.67286 9.56121,0.29004 0.27762,0.2725 0.47488,1.82659 0.43908,3.4511 -0.0438,2.18691 -0.60711,3.63433 -2.15236,5.57664 -1.96737,2.47213 -2.03633,2.7607 -1.1996,5.01322 1.15745,3.11613 1.22203,7.16813 0.12785,8.01246 -1.77918,1.3729 -3.9788,1.46356 -4.66846,0.19214 0,0 7e-5,0 7e-5,0 m -85.55285,-15.31867 c 3.89602,-1.28567 11.57263,-4.32838 17.05919,-6.76156 5.48656,-2.43326 12.31271,-5.19689 15.16905,-6.14153 6.74805,-2.23169 25.80216,-7.19677 39.81616,-10.37544 30.23436,-6.85741 54.9576,-14.12315 57.30071,-16.83965 0.78471,-0.90928 1.21181,-2.55008 1.21181,-4.65159 0,-5.38837 -3.92335,-8.89419 -9.9531,-8.89419 -3.89295,0 -7.02318,2.38241 -8.04438,6.12282 -0.7731,2.83223 -0.48657,4.14033 1.53801,7.02245 1.29005,1.83624 1.17272,4.60995 -0.1958,4.60995 -0.34921,0 -1.61457,-0.86347 -2.81228,-1.91843 -1.76347,-1.55408 -2.24207,-2.58427 -2.51859,-5.42322 -0.28346,-2.91076 0.007,-4.25524 1.75989,-7.93319 2.31125,-4.87112 2.16762,-5.21194 -2.19729,-5.21194 -3.21432,0 -7.54825,3.07077 -10.22735,7.24653 -2.51815,3.92495 -3.35751,4.48099 -3.35751,2.22409 0,-1.46239 -5.42636,-7.42193 -6.75799,-7.42193 -0.38939,0 -2.21657,1.22912 -4.06003,2.73163 -3.517,2.86605 -6.36676,3.50326 -7.83983,1.75287 -1.06562,-1.26646 0.22283,-3.27934 4.14179,-6.47306 3.36562,-2.74251 4.51913,-4.39274 5.14648,-7.36261 0.44054,-2.08141 0.3368,-2.2135 -2.24309,-2.89864 -4.92782,-1.30868 -9.70433,1.13802 -15.22004,7.79592 -1.77246,2.13949 -2.2496,2.42946 -2.24682,1.36574 0,-0.74314 0.75607,-2.57748 1.67667,-4.07691 1.98666,-3.23675 1.40702,-4.44411 -2.1335,-4.44411 -3.18196,0 -6.40592,1.44852 -8.78899,3.94907 0,0 -1.97154,2.0687 -1.97154,2.0687 0,0 1.79832,3.02641 1.79832,3.02641 0.98898,1.66463 1.79846,3.21915 1.79846,3.45461 0,1.05517 -3.52072,2.08638 -8.97105,2.62635 -8.30491,0.82307 -9.31924,1.67354 -9.58334,8.03964 -0.21772,5.25241 -1.06212,6.03201 -2.77627,2.56403 -1.01309,-2.04912 -1.86969,-2.32849 -2.46321,-0.80283 -0.63122,1.62269 -1.82696,1.19092 -1.82696,-0.66044 0,-2.58047 -2.01946,-6.18251 -4.1678,-7.43399 -2.71453,-1.58133 -5.3807,-1.40365 -9.52913,0.63414 -8.24091,4.04996 -10.71253,11.70546 -5.3753,16.6503 0,0 1.5901,1.47313 1.5901,1.47313 0,0 6.4906,-3.24398 6.4906,-3.24398 7.13277,-3.56485 12.66295,-4.56209 16.53281,-2.98119 2.83245,1.15694 2.60751,2.04583 -0.52017,2.05803 -3.78811,0.007 -11.06298,1.84625 -14.16677,3.56661 -2.64169,1.46422 -5.96253,5.65182 -5.13164,6.47123 0.23086,0.22794 2.52641,0.0584 5.09928,-0.36967 7.6517,-1.28465 11.8211,-1.67784 13.01224,-1.22715 2.60107,0.98387 -6.03647,6.0361 -12.16492,7.11473 -5.26892,0.92746 -9.93555,0.21186 -10.21529,-1.56644 -0.11836,-0.75147 -0.71232,-2.51267 -1.32037,-3.91428 -0.92616,-2.1338 -1.73717,-2.78379 -4.98766,-3.99451 -8.63849,-3.2176 -19.55367,0.5399 -21.28061,7.32484 0,0 -0.40328,1.58426 -0.40328,1.58426 0,0 -1.15782,-1.41016 -1.15782,-1.41016 -0.83805,-1.02113 -2.36977,-1.55123 -5.5491,-1.92083 -3.48127,-0.40474 -4.65334,-0.85288 -5.65569,-2.16295 -1.53604,-2.00733 -2.72724,-6.42031 -2.72724,-10.10257 0,0 0,-2.72381 0,-2.72381 0,0 -5.36661,1.76924 -5.36661,1.76924 -6.85938,2.26121 -10.55983,5.55984 -10.55983,9.41268 0,0 0,2.55863 0,2.55863 0,0 4.67401,-0.43323 4.67401,-0.43323 5.13004,-0.47634 7.21949,0.17315 5.83885,1.81417 -0.49022,0.58227 -0.64729,1.84777 -0.38867,3.12519 0.54355,2.68107 0.0584,2.70964 -6.6633,0.39305 -9.47142,-3.26349 -14.04922,-2.92618 -16.6153,1.22437 -2.25171,3.64237 -1.90746,4.19213 3.48471,5.56189 2.6818,0.68163 9.60862,3.62388 15.40721,6.54495 9.06764,4.56808 15.13968,7.03173 20.92147,8.48828 3.33677,0.84009 11.83593,-0.34045 18.66712,-2.59537 0,0 5.9e-4,7e-5 5.9e-4,7e-5 m 45.98596,-27.71401 c -1.97358,-2.58814 -4.06332,-6.38495 -4.06332,-7.38234 0,-0.34117 1.63598,-0.79216 3.63535,-1.00184 1.99951,-0.20967 4.18073,-0.59322 4.84723,-0.85178 1.79664,-0.6977 1.56139,1.58251 -0.46684,4.5263 -0.92301,1.34009 -1.78027,3.4858 -1.90417,4.76818 0,0 -0.22502,2.33149 -0.22502,2.33149 0,0 -1.82257,-2.39008 -1.82257,-2.39008 0,0 -1.5e-4,0 -1.5e-4,0 m 17.0855,0.21333 c -0.25643,-1.01046 -2.54979,-3.75349 -5.09534,-6.09674 0,0 -4.62799,-4.26058 -4.62799,-4.26058 0,0 0,-4.02592 0,-4.02592 0,-3.22908 0.36968,-4.57648 1.86656,-6.80774 2.2764,-3.39236 6.77749,-5.38209 10.58255,-4.6781 2.52846,0.46757 6.77121,3.62819 8.06083,6.00461 1.12618,2.07506 0.122,2.28364 -1.813,0.37552 -2.55447,-2.51925 -9.12119,-3.47624 -12.30862,-1.79394 -2.01567,1.06365 -3.9137,3.3988 -3.94183,4.84877 -0.0292,1.71861 4.64289,6.56716 7.44831,7.72308 3.08369,1.27084 5.24335,1.24636 7.86144,-0.0855 1.15914,-0.59104 2.2732,-0.91132 2.47586,-0.71085 0.71304,0.70282 0.35798,3.84269 -0.55597,4.92884 -0.89474,1.06262 -8.55104,6.41775 -9.17627,6.41775 -0.16949,0 -0.51944,-0.82628 -0.77638,-1.83608 0,0 0,-1.5e-4 0,-1.5e-4 m 57.09855,20.55326 c 13.19868,-3.17385 22.52545,-5.05932 25.02628,-5.05932 1.11267,0 2.1395,-0.38429 2.28174,-0.8539 0.14247,-0.46903 0.65314,-4.95142 1.13561,-9.96011 0.75001,-7.79321 0.73555,-9.1984 -0.10739,-9.74517 -1.0722,-0.69551 -9.11929,-0.24839 -15.1795,0.84331 -2.09478,0.37698 -10.19637,2.21628 -18.0039,4.08656 -7.80746,1.86998 -14.94089,3.5563 -15.85236,3.74727 0,0 -1.65702,0.34703 -1.65702,0.34703 0,0 2.10355,2.18187 2.10355,2.18187 2.8963,3.00427 5.41906,8.23557 6.44026,13.35524 0.77529,3.88294 0.99848,4.25904 2.31483,3.88477 0.80144,-0.22794 5.97554,-1.50061 11.49797,-2.8285 0,0 -2.9e-4,7e-5 -2.9e-4,7e-5 m -183.3694,-12.77783 c 0.78048,-1.96649 4.08269,-4.00802 7.83194,-4.84168 3.62264,-0.80495 5.88582,-1.91579 5.88582,-2.88783 0,-1.17016 0.26301,-1.19201 -4.30602,0.35726 -2.10677,0.7145 -5.6611,1.65643 -7.89849,2.09237 -5.06707,0.98701 -14.66349,4.03052 -15.14808,4.80376 -0.19945,0.31707 2.05723,1.48344 5.01307,2.59187 7.67062,2.87629 7.42603,2.83713 7.65704,1.22752 0.11324,-0.78683 0.54647,-2.29153 0.9648,-3.34422 0,0 0,-1.4e-4 0,-1.4e-4 m 53.84558,-12.76633 c 6.39357,-2.56126 7.69327,-2.85794 11.15913,-2.54803 0,0 3.92276,0.3514 3.92276,0.3514 0,0 -0.33753,-2.95321 -0.33753,-2.95321 -0.51432,-4.49904 1.79876,-8.53957 7.53306,-13.15967 4.46624,-3.59823 4.66831,-3.88199 3.59619,-5.05026 -3.219,-3.50779 -10.33073,-3.02641 -13.70438,0.9274 -2.01757,2.36458 -1.96139,3.66874 0.41642,9.65151 1.58097,3.97909 1.63394,5.85718 0.22137,7.84669 -2.52488,3.55499 -5.34914,0.15415 -3.49903,-4.21309 0,0 1.07899,-2.54643 1.07899,-2.54643 0,0 -2.92508,-1.30956 -2.92508,-1.30956 -9.41473,-4.21477 -21.42549,3.05681 -23.6002,14.28826 0,0 -0.44712,2.31111 -0.44712,2.31111 0,0 4.67541,-0.34848 4.67541,-0.34848 3.29979,-0.24548 6.80415,-1.20129 11.91155,-3.24742 0,0 -8e-5,7e-5 -8e-5,7e-5 m -75.61795,-0.85601 c 1.96949,-5.02323 17.80701,-43.43494 18.93517,-45.92467 0.5114,-1.12677 3.36964,-6.01002 6.35368,-10.85156 6.21188,-10.07933 8.12395,-13.60992 8.12395,-15.00123 0,-1.11939 -11.39562,-8.63352 -13.09304,-8.63352 -0.61295,0 -1.54985,0.68528 -2.08061,1.5242 -1.15782,1.82856 -18.06425,35.20929 -18.06425,35.66714 0,0.17534 -1.49045,3.32661 -3.31215,7.00207 -4.80449,9.69338 -7.66346,16.40709 -8.80513,20.67746 -0.94186,3.52284 -0.91666,3.91567 0.41424,6.43499 1.72533,3.26466 8.84714,12.69028 9.58838,12.69028 0.29369,0 1.16578,-1.61334 1.93895,-3.58516 0,0 0,0 0,0 m 122.0853,-18.97054 c 3.85299,-2.03363 4.51014,-8.53949 1.30371,-12.90491 -3.43364,-4.67438 -8.6314,-6.06299 -12.95788,-3.46155 -4.37623,2.63139 -4.58408,7.40118 -0.52528,12.07644 3.77102,4.34496 8.75224,6.09937 12.18032,4.29002 0,0 0,0 0,0 m 58.86115,-4.35767 c -0.79619,-2.16404 -3.94673,-3.46506 -6.0757,-2.50836 -2.14213,0.96246 -1.40359,2.05752 2.75705,4.08757 3.13038,1.52742 4.26285,0.98811 3.31865,-1.57921 0,0 0,0 0,0 m -46.95456,0.97108 c 2.48637,-0.005 2.42449,-1.07292 -0.13881,-2.38015 -3.30608,-1.68602 -5.1505,-1.35514 -6.08695,1.09185 0,0 -0.81723,2.13365 -0.81723,2.13365 0,0 2.56908,-0.42008 2.56908,-0.42008 1.41308,-0.2294 3.42604,-0.42154 4.47347,-0.42593 0,0 2.2e-4,0 2.2e-4,0 m -28.51867,-3.64653 c -0.69039,-1.79174 -2.35377,-2.42975 -3.12504,-1.19916 -0.21625,0.3441 0.46611,1.63108 1.5158,2.86072 2.08974,2.44918 2.8795,1.63364 1.60924,-1.66156 0,0 0,0 0,0 m 96.20621,-1.65994 c 0,-1.57995 -3.06485,-4.28725 -5.62194,-4.96646 -5.12836,-1.36165 -10.97963,2.05679 -10.01417,5.85082 0.34629,1.35669 0.75454,1.69209 1.64278,1.34551 4.03271,-1.57396 9.24216,-0.8146 10.13398,1.47774 0.30465,0.78361 0.78997,0.55304 2.12715,-1.0147 0.9523,-1.11654 1.7322,-2.32835 1.7322,-2.69291 0,0 0,0 0,0 M 198.87132,104.21422 c 2.09456,-0.49606 7.26939,-2.1655 11.49936,-3.7106 4.23011,-1.54488 11.46736,-3.74932 16.08285,-4.89852 11.11639,-2.76772 19.50473,-5.41102 19.50473,-6.14642 0,-0.67286 -6.02448,-5.12748 -7.61707,-5.63246 -0.57131,-0.18118 -3.21987,0.40255 -5.88582,1.29846 -2.66595,0.89546 -10.30026,2.979 -16.9651,4.6301 -15.71742,3.89376 -18.64265,4.79098 -25.1274,7.7073 0,0 -5.39246,2.425 -5.39246,2.425 0,0 1.90417,1.96 1.90417,1.96 3.04731,3.1368 6.15387,3.74976 11.99674,2.36714 0,0 0,0 0,0 m 93.64757,-4.007 c 2.7808,-0.94332 7.45094,-3.91275 7.45094,-4.73691 0,-1.23066 -6.02412,-7.01391 -10.64188,-10.21647 -11.95969,-8.29453 -27.57702,-10.43038 -39.07645,-5.34424 0,0 -3.2545,1.4396 -3.2545,1.4396 0,0 4.15464,3.77591 4.15464,3.77591 9.01503,8.1927 20.53068,14.51592 29.42948,16.15935 2.43421,0.4493 9.25093,-0.16584 11.93777,-1.07724 0,0 0,0 0,0 m -9.56077,-4.27738 c -4.72084,-1.4708 -12.93319,-5.20302 -16.22619,-7.37445 -3.72017,-2.4532 -7.61707,-5.96779 -7.61707,-6.87005 0,-0.38575 1.97227,-0.48511 4.86747,-0.24548 6.81497,0.56255 14.06566,4.08685 19.83619,9.63939 5.95362,5.72896 5.74453,6.90797 -0.8601,4.85052 0,0 0,0 0,0 m -94.0052,-5.10089 c 34.4869,-10.10381 81.75809,-20.30778 108.09189,-23.33259 0,0 7.11568,-0.81774 7.11568,-0.81774 0,0 -1.50229,-1.5771 -1.50229,-1.5771 -4.2456,-4.45666 -14.46937,-4.85263 -40.77351,-1.57921 -21.07832,2.62299 -51.46076,9.92759 -72.4341,17.41455 -12.77962,4.56209 -21.51236,8.47973 -18.95095,8.50173 0.56035,0.005 2.57769,0.7484 4.48202,1.65344 4.5333,2.15337 5.80348,2.12941 13.97126,-0.26374 0,0 0,4.4e-4 0,4.4e-4 m 126.2509,-10.55852 c 5.52229,-0.90292 12.15797,-1.86151 14.74604,-2.12883 4.57714,-0.47342 4.6727,-0.52163 3.50772,-1.79123 -5.85681,-6.38232 -18.88885,-7.77115 -37.67674,-4.01518 -5.54092,1.1077 -10.80896,2.28181 -11.70677,2.60948 -1.61961,0.59103 -1.61231,0.61003 0.95647,2.54284 6.30569,4.74306 13.90654,5.44419 30.17292,2.78292 0,0 0,0 0,0" />

<rect y="337.6637" x="-26.759583" style="fill:#808080;fill-opacity:1;stroke-width:1" width="585.80078" height="106.94437" />

</svg>
