<svg xmlns="http://www.w3.org/2000/svg" viewBox="0 0 512 384">

<rect width="512" height="384" fill="none"/>

<path style="fill:#808080;stroke-width:1"  d="m 439.50541,169.87366 c -15.96446,2.42785 -32.58861,3.9839 -40.85069,3.82369 -9.32962,-0.18069 -22.85644,-2.66657 -37.70165,-6.92813 0,0 -6.88343,-1.97595 -6.88343,-1.97595 0,0 -4.48333,0.89835 -4.48333,0.89835 -2.46581,0.49408 -5.62545,0.82923 -7.02158,0.74479 -1.8533,-0.11229 -3.11931,0.1313 -4.69167,0.90201 -4.90492,2.40449 -19.07206,11.10382 -27.15212,16.67268 -4.33798,2.98981 -4.46127,3.11014 -7.38959,7.20955 -3.11652,4.36282 -4.54615,6.08776 -5.72323,6.90531 -0.38726,0.26896 -6.23952,4.66036 -13.00504,9.75885 0,0 -12.30098,9.26984 -12.30098,9.26984 0,0 -7.33791,3.34782 -7.33791,3.34782 -4.03578,1.84136 -9.92545,4.3189 -13.08819,5.50578 0,0 -5.75042,2.15795 -5.75042,2.15795 0,0 -7.30091,5.59395 -7.30091,5.59395 -7.18269,5.50335 -7.37791,5.625 -12.05364,7.51027 -2.6141,1.05391 -6.44287,2.49254 -8.50875,3.19687 -2.06568,0.70432 -3.65118,1.4135 -3.52317,1.57593 0.12737,0.16253 2.80234,0.63862 5.94313,1.05821 6.43862,0.86014 10.06671,2.23814 14.49137,5.50436 2.30814,1.70363 2.84211,2.26943 3.1347,3.32091 0.38974,1.40041 -0.14495,3.43954 -1.01357,3.86409 -0.30716,0.1502 -0.56111,0.7583 -0.56416,1.3514 0,1.05093 -0.0773,1.06577 -2.86661,0.58525 -1.57359,-0.27116 -4.18198,-1.13391 -5.79645,-1.91718 -3.06458,-1.4869 -3.23542,-1.43301 -2.19617,0.6933 0.61413,1.25674 0.37235,2.47569 -0.47067,2.37134 -0.22758,-0.0279 -1.39013,-1.10161 -2.584,-2.38546 -1.8957,-2.03884 -2.52966,-2.44801 -5.00897,-3.2328 -4.05503,-1.28354 -12.12557,-3.16926 -18.47142,-4.31587 -4.54804,-0.82178 -5.97225,-0.87118 -8.54493,-0.29624 -1.69801,0.37964 -3.98606,0.68522 -5.08463,0.67946 -1.76846,-0.007 -2.36357,0.23775 -5.19313,2.15412 -5.80248,3.93001 -11.55259,5.14198 -17.62934,3.71575 -2.8018,-0.65757 -3.70129,-0.62862 -7.04736,0.22705 -2.10958,0.53927 -6.54319,1.15371 -9.85252,1.36551 -9.55057,0.61104 -8.54697,0.36713 -10.40857,2.53108 -1.14562,1.33179 -1.88143,1.92045 -2.48264,1.98618 -0.99554,0.10903 -5.21379,-2.5322 -6.85651,-4.29286 0,0 -1.13206,-1.21329 -1.13206,-1.21329 0,0 1.83303,-3.3045 1.83303,-3.3045 1.72369,-3.10739 1.78897,-3.38411 1.09436,-4.63915 -0.83985,-1.51736 -1.21081,-1.56449 -3.32138,-0.42213 -2.33012,1.26118 -3.41511,0.67322 -5.58559,-3.02715 -2.81453,-4.79834 -2.87652,-5.84659 -0.45556,-7.70152 1.09555,-0.8394 1.11686,-0.98548 0.34592,-2.37083 -1.13024,-2.03088 -1.06514,-5.60607 0.1487,-8.18256 0.88694,-1.88232 1.43162,-2.46879 4.41659,-4.75585 3.21334,-2.46211 3.60364,-2.65161 6.9398,-3.37 5.67781,-1.2226 9.11838,-0.44929 12.53546,2.81754 1.7057,1.63069 4.10095,2.62722 4.88009,2.03026 0.65445,-0.50145 -1.14847,-2.46915 -2.72368,-2.97267 -1.39127,-0.44474 -1.64578,-0.65916 -1.50863,-1.27093 0.12831,-0.57356 0.46221,-0.6631 1.5123,-0.40549 1.70445,0.41808 1.86857,0.27617 2.34934,-2.02659 0.29798,-1.42788 0.74193,-2.16302 1.80993,-2.99781 1.0296,-0.80477 1.48484,-1.52517 1.67147,-2.64509 0.14254,-0.85684 0.66561,-1.85255 1.17946,-2.24624 0.69994,-0.53635 0.89394,-1.22593 0.80286,-2.8545 -0.066,-1.18106 0.26865,-3.22859 0.74406,-4.55015 1.77515,-4.93566 4.71787,-7.74218 15.21624,-14.51191 4.3694,-2.81759 14.36116,-9.41976 22.20393,-14.67159 16.3312,-10.93599 28.10792,-18.61257 28.64021,-18.66894 1.2993,-0.13747 10.43743,12.15447 12.82898,17.25676 0,0 1.01855,2.17319 1.01855,2.17319 0,0 -4.63619,3.41977 -4.63619,3.41977 -4.64862,3.42883 -20.7952,14.44412 -24.24857,16.54244 0,0 -1.84135,1.1189 -1.84135,1.1189 0,0 3.63854,4.61861 3.63854,4.61861 2.00116,2.54023 3.92307,5.21196 4.27081,5.93722 0.59309,1.23682 0.67155,1.26931 1.26339,0.52394 2.30414,-2.90151 9.64131,-10.51339 12.51339,-12.98178 4.03561,-3.46864 7.48622,-5.48504 15.50754,-9.06195 7.45771,-3.32551 10.15217,-4.79455 24.43709,-13.32307 0,0 11.9672,-7.14485 11.9672,-7.14485 0,0 3.52682,-3.94745 3.52682,-3.94745 1.93974,-2.17105 5.15868,-5.76414 7.15319,-7.9846 1.99447,-2.22041 5.5354,-5.65764 7.86864,-7.63824 5.21566,-4.42741 10.81884,-7.47423 18.68054,-10.15799 6.52488,-2.22733 8.66211,-3.54529 10.616,-6.54638 2.60279,-3.99817 3.79916,-4.49517 9.27265,-3.85224 4.79874,0.56366 12.90263,-0.85922 26.06065,-4.57562 21.93131,-6.19444 24.48818,-7.12096 48.06227,-17.41667 8.1334,-3.55222 15.41043,-6.679446 16.1712,-6.949376 1.35013,-0.47905 1.41966,-0.44431 2.91634,1.45559 2.51645,3.194116 6.89789,12.261166 8.37663,17.334216 0,0 0.52141,1.78918 0.52141,1.78918 0,0 -2.73362,1.7746 -2.73362,1.7746 -5.79419,3.76167 -21.78878,11.3363 -31.76164,15.04169 -14.12389,5.24766 -22.70857,6.85867 -35.34383,6.63266 -5.04678,-0.0903 -17.24356,-1.44455 -22.40354,-2.4876 -2.5477,-0.51509 -3.49217,-0.36015 -8.69296,1.42768 -2.22228,0.76383 -6.2549,1.84379 -8.9615,2.39993 -4.81623,0.9896 -4.98206,1.05934 -7.77154,3.26863 -4.662,3.69251 -19.24435,20.84425 -22.88603,26.91853 -1.04406,1.74135 -1.80525,3.17757 -1.69148,3.19169 0.11369,0.0169 3.64217,-2.35724 7.84132,-5.26956 8.14076,-5.64599 12.57266,-8.17785 16.87766,-9.64184 4.13442,-1.40599 11.48214,-2.91182 16.517,-3.38493 5.05605,-0.47509 4.3092,-0.0615 10.17584,-5.63523 0,0 1.81871,-1.72784 1.81871,-1.72784 0,0 2.9522,0.52585 2.9522,0.52585 8.75538,1.55931 11.85679,1.53747 31.44774,-0.22196 6.82789,-0.61314 13.29639,-1.11173 14.37466,-1.10786 1.07818,0.002 6.68453,-0.52854 12.45854,-1.18301 28.69345,-3.25235 36.10223,-3.78267 37.27353,-2.66803 1.31447,1.25112 2.83139,11.94001 2.75437,19.40965 -0.0187,1.86074 -0.1442,3.46686 -0.27757,3.56918 -0.13317,0.10251 -3.84228,0.73336 -8.24178,1.4024 0,0 0,0 0,0 m -266.17125,82.67639 c -3.33033,-0.4186 -6.07205,-0.52843 -6.17471,-0.24738 -0.10158,0.27787 -1.0262,1.40316 -2.05472,2.50027 0,0 -1.87009,1.9948 -1.87009,1.9948 0,0 1.39167,0.3414 1.39167,0.3414 2.70388,0.66321 8.66554,-0.29309 11.6405,-1.86758 3.52677,-1.86638 3.47296,-1.91634 -2.93265,-2.72149 0,0 0,0 0,0 m -8.12852,0.26609 c 0,0 0.99588,-1.32082 0.99588,-1.32082 0,0 -5.84162,-1.14417 -5.84162,-1.14417 -5.06627,-0.99223 -7.17135,-1.1897 -7.77257,-0.72902 -0.0828,0.0634 0.48914,0.77306 1.27089,1.57711 1.79034,1.84161 5.61051,4.40058 6.91828,4.63439 1.13339,0.20271 2.91769,-1.01299 4.42914,-3.01749 0,0 0,0 0,0 m -8.02078,4.1583 c -1.80611,-1.02081 -4.41924,-3.20743 -5.89432,-4.93223 -1.61369,-1.88696 -1.63004,-1.89358 -3.40607,-1.39015 -0.98154,0.27841 -2.68385,0.65983 -3.78291,0.84791 -1.32766,0.22731 -2.02369,0.54106 -2.07385,0.93501 -0.0416,0.3262 -0.94421,1.39263 -2.00595,2.36988 -1.06176,0.97732 -1.80297,1.93873 -1.6472,2.13648 0.15561,0.19763 0.13186,0.97729 -0.0531,1.73237 0,0 -0.33633,1.37284 -0.33633,1.37284 0,0 6.24339,-0.37687 6.24339,-0.37687 5.51593,-0.33325 12.51212,-1.41476 13.3619,-2.06584 0.16534,-0.12681 -0.0169,-0.40985 -0.40532,-0.62927 0,0 -3e-5,0 -3e-5,0" />

<path style="fill:#808080;stroke:#808080;stroke-width:40" d="M 182.2901,10.17771 C 180.11886,9.78509 177.29291,8.54916 176.01021,7.43119 168.8583,1.19781 168.0539,1.1187 155.885,5.45184 c -10.32126,3.67522 -15.3516,3.4697 -24.40507,-0.99698 0,0 -7.41645,-3.65912 -7.41645,-3.65912 0,0 -4.20538,2.11574 -4.20538,2.11574 C 114.35298,5.68126 104.71417,8.12077 99.40779,8.08732 97.08219,8.07262 91.882495,6.8867 87.852923,5.45184 76.522895,1.41743 76.325441,1.40844 69.242243,4.607 60.46539,8.57033 49.884183,8.75439 40.877752,5.10043 35.463397,2.90386 34.328416,2.75913 31.457911,3.89914 23.945239,6.88258 17.486386,8.9191 13.802537,9.46594 c 0,0 -3.924898,0.58266 -3.924898,0.58266 0,0 0,-54.12545 0,-54.12545 0,0 0,-54.12543 0,-54.12543 0,0 263.231891,0 263.231891,0 0,0 263.23182,0 263.23182,0 0,0 0,51.09374 0,51.09374 0,42.49439 -0.24059,51.09374 -1.42933,51.09374 -0.78617,0 -4.82303,-1.67434 -8.97086,-3.72075 0,0 -7.54146,-3.720766 -7.54146,-3.720766 0,0 -6.00217,2.65645 -6.00217,2.65645 -12.96332,5.737246 -22.78644,5.778996 -35.5031,0.150907 0,0 -6.02104,-2.664758 -6.02104,-2.664758 0,0 -5.73031,3.114657 -5.73031,3.114657 -5.26798,2.8634 -6.53242,3.11107 -15.67346,3.07001 -8.01559,-0.036 -10.95762,-0.49675 -15.17637,-2.37681 0,0 -5.23327,-2.332135 -5.23327,-2.332135 0,0 -6.51855,2.911595 -6.51855,2.911595 -5.87246,2.62302 -7.63601,2.90935 -17.793,2.88893 -8.96277,-0.0181 -12.21005,-0.44136 -15.83775,-2.06472 0,0 -4.56325,-2.042035 -4.56325,-2.042035 0,0 -7.47317,3.570925 -7.47317,3.570925 -10.2612,4.90314 -18.33193,5.33433 -23.35424,1.2477 -1.62722,-1.32407 -4.45905,-3.26454 -6.29294,-4.31216 -3.33365,-1.904366 -3.33587,-1.904095 -10.46648,1.33375 -14.01991,6.36613 -23.62006,6.56247 -36.74959,0.75164 0,0 -6.02105,-2.664774 -6.02105,-2.664774 0,0 -5.7303,3.114664 -5.7303,3.114664 -5.26802,2.86341 -6.53246,3.11107 -15.67346,3.07003 -8.01561,-0.036 -10.95764,-0.49675 -15.1764,-2.3768 0,0 -5.23323,-2.33215 -5.23323,-2.33215 0,0 -6.51856,2.91159 -6.51856,2.91159 -5.8725,2.62302 -7.63602,2.90934 -17.793,2.88894 -8.9628,-0.0181 -12.21008,-0.44136 -15.83774,-2.06472 0,0 -4.56327,-2.04204 -4.56327,-2.04204 0,0 -7.47316,3.52801 -7.47316,3.52801 -8.42738,3.9785 -12.00881,4.72657 -17.70074,3.69733 0,0 0,0 0,0" />



</svg>
