<svg xmlns="http://www.w3.org/2000/svg" viewBox="0 0 512 384">

<rect width="512" height="384" fill="none"/>


<ellipse style="fill:#808080;" cx="99.11557" cy="157.5271" rx="8.3970776"  ry="8.2811422" />
<ellipse style="fill:#808080;" cx="76.317101" cy="76.001953" rx="9.8960505" ry="9.7594175" />
<ellipse style="fill:#808080;" cx="122.8288" cy="102.35242" rx="8.9064474"ry="8.7834778" />
<ellipse style="fill:#808080;" cx="112.93278" cy="36.964344" rx="4.9480252" ry="5.8556519" />

<path style="fill:#808080;stroke:#808080;stroke-width:40" d="M 182.2901,10.17771 C 180.11886,9.78509 177.29291,8.54916 176.01021,7.43119 168.8583,1.19781 168.0539,1.1187 155.885,5.45184 c -10.32126,3.67522 -15.3516,3.4697 -24.40507,-0.99698 0,0 -7.41645,-3.65912 -7.41645,-3.65912 0,0 -4.20538,2.11574 -4.20538,2.11574 C 114.35298,5.68126 104.71417,8.12077 99.40779,8.08732 97.08219,8.07262 91.882495,6.8867 87.852923,5.45184 76.522895,1.41743 76.325441,1.40844 69.242243,4.607 60.46539,8.57033 49.884183,8.75439 40.877752,5.10043 35.463397,2.90386 34.328416,2.75913 31.457911,3.89914 23.945239,6.88258 17.486386,8.9191 13.802537,9.46594 c 0,0 -3.924898,0.58266 -3.924898,0.58266 0,0 0,-54.12545 0,-54.12545 0,0 0,-54.12543 0,-54.12543 0,0 263.231891,0 263.231891,0 0,0 263.23182,0 263.23182,0 0,0 0,51.09374 0,51.09374 0,42.49439 -0.24059,51.09374 -1.42933,51.09374 -0.78617,0 -4.82303,-1.67434 -8.97086,-3.72075 0,0 -7.54146,-3.720766 -7.54146,-3.720766 0,0 -6.00217,2.65645 -6.00217,2.65645 -12.96332,5.737246 -22.78644,5.778996 -35.5031,0.150907 0,0 -6.02104,-2.664758 -6.02104,-2.664758 0,0 -5.73031,3.114657 -5.73031,3.114657 -5.26798,2.8634 -6.53242,3.11107 -15.67346,3.07001 -8.01559,-0.036 -10.95762,-0.49675 -15.17637,-2.37681 0,0 -5.23327,-2.332135 -5.23327,-2.332135 0,0 -6.51855,2.911595 -6.51855,2.911595 -5.87246,2.62302 -7.63601,2.90935 -17.793,2.88893 -8.96277,-0.0181 -12.21005,-0.44136 -15.83775,-2.06472 0,0 -4.56325,-2.042035 -4.56325,-2.042035 0,0 -7.47317,3.570925 -7.47317,3.570925 -10.2612,4.90314 -18.33193,5.33433 -23.35424,1.2477 -1.62722,-1.32407 -4.45905,-3.26454 -6.29294,-4.31216 -3.33365,-1.904366 -3.33587,-1.904095 -10.46648,1.33375 -14.01991,6.36613 -23.62006,6.56247 -36.74959,0.75164 0,0 -6.02105,-2.664774 -6.02105,-2.664774 0,0 -5.7303,3.114664 -5.7303,3.114664 -5.26802,2.86341 -6.53246,3.11107 -15.67346,3.07003 -8.01561,-0.036 -10.95764,-0.49675 -15.1764,-2.3768 0,0 -5.23323,-2.33215 -5.23323,-2.33215 0,0 -6.51856,2.91159 -6.51856,2.91159 -5.8725,2.62302 -7.63602,2.90934 -17.793,2.88894 -8.9628,-0.0181 -12.21008,-0.44136 -15.83774,-2.06472 0,0 -4.56327,-2.04204 -4.56327,-2.04204 0,0 -7.47316,3.52801 -7.47316,3.52801 -8.42738,3.9785 -12.00881,4.72657 -17.70074,3.69733 0,0 0,0 0,0" />

</svg>
