<svg xmlns="http://www.w3.org/2000/svg" viewBox="0 0 512 384">
<rect y="0" x="0" height="384" width="512" style="fill:none;)" />
<path style="fill:#000000;" d="m 230.19877,336.44211 c -2.14214,-6.61338 -7.53987,-23.13472 -11.99495,-36.71408 -4.45508,-13.57936 -8.10014,-24.92692 -8.10014,-25.21681 0,-0.28988 21.78123,-0.52706 48.40273,-0.52706 26.66704,0 48.40273,0.26215 48.40273,0.58379 0,0.50491 -7.93892,24.8474 -20.45254,62.7121 l -3.57959,10.83137 -24.3917,0.17751 -24.39172,0.17752 z m -19.41814,-79.55122 v -11.3391 h 47.72578 47.72577 v 11.3391 11.33911 h -47.72577 -47.72578 z" />
<path style="fill:#808080;" d="m 229.00978,241.7581 c -2.57883,-0.39437 -3.17149,-1.25139 -4.3192,-6.24597 -0.73163,-3.18387 -1.58283,-14.44571 -1.89157,-25.0263 -0.51493,-17.64702 -0.35898,-19.86679 1.88643,-26.84998 6.21811,-19.33835 21.87927,-29.18511 44.21017,-27.79661 11.16816,0.69442 17.38966,3.33378 23.4616,9.9532 6.74399,7.35207 7.46414,10.59797 6.85152,30.88164 -0.54696,18.10926 -2.27055,26.16177 -8.72105,40.74418 l -2.26974,5.13116 -28.10959,-0.16711 c -15.46027,-0.0918 -29.45463,-0.37279 -31.09857,-0.62421 z m 19.4114,-3.39112 c 1.78511,-2.03594 5.32627,-8.56065 5.32627,-9.81381 0,-0.39778 -1.7795,0.32672 -3.95445,1.60997 -3.67711,2.16955 -4.14398,2.20904 -6.65618,0.56297 -4.61907,-3.02653 -5.21217,-1.21383 -1.4044,4.29232 2.00758,2.90304 3.94879,5.28322 4.31378,5.28929 0.365,0.005 1.43374,-0.86726 2.37498,-1.94074 z m 40.0111,-29.55592 c 2.34629,-4.5306 1.10989,-5.63211 -2.57681,-2.29571 -1.95984,1.77363 -2.28735,1.76713 -5.4628,-0.10869 -1.85788,-1.09748 -3.65873,-1.71465 -4.00189,-1.3715 -0.34316,0.34316 1.03598,3.21066 3.06476,6.37224 4.12143,6.42269 4.3385,6.35992 8.97674,-2.59637 z M 239.24133,200 c 4.99306,-6.89272 4.43694,-9.70875 -1.08011,-5.46945 -2.58387,1.98543 -2.95553,2.0054 -5.82111,0.31266 -1.68356,-0.9945 -3.38422,-1.48499 -3.77924,-1.08995 -0.79742,0.7974 5.18365,10.7701 6.49801,10.83463 0.45623,0.0224 2.33833,-2.04216 4.18245,-4.58789 z m 37.22364,-22.69669 c 4.31399,-6.49733 3.51994,-8.03063 -2.21342,-4.27399 -2.66091,1.74351 -3.04829,1.73668 -6.17223,-0.10869 -1.83321,-1.0829 -3.60407,-1.69798 -3.93522,-1.36681 -0.71875,0.71874 6.8172,11.88371 8.02105,11.88371 0.12473,0 2.05971,-2.7604 4.29982,-6.13425 z" />
<path style="fill:#808080;" d="m 219.0216,168.9613 c -12.77374,-8.57894 -23.21919,-22.91018 -24.95612,-34.23999 -1.49882,-9.77659 4.28499,-24.22556 13.08029,-32.67688 15.19284,-14.598634 43.40667,-14.312705 59.9213,0.60726 7.08613,6.4019 9.40417,11.71434 9.45726,21.67403 0.0416,7.80467 -3.89007,24.87684 -6.03424,26.20202 -0.41379,0.25573 -4.22469,0.77607 -8.46866,1.15629 -4.24397,0.38021 -11.19941,1.701 -15.45653,2.93505 -6.85008,1.9857 -8.61388,3.1174 -15.33721,9.84073 l -7.597,7.59701 z m -0.87394,-25.05804 c 3.01186,-5.67742 2.46892,-7.19127 -1.61861,-4.51303 -2.59914,1.70302 -3.04904,1.71049 -5.36387,0.0891 -5.11062,-3.57961 -5.6453,-1.58308 -1.32456,4.94601 1.61506,2.44055 3.5529,4.43736 4.30628,4.43736 0.75337,0 2.55373,-2.23176 4.00076,-4.95946 z m 36.50042,-2.32273 c 5.14475,-7.29892 4.55041,-9.5135 -1.315,-4.89976 l -2.94583,2.3172 -3.89649,-2.40817 c -2.28838,-1.4143 -3.89648,-1.87818 -3.89648,-1.124 0,1.64131 6.52224,11.16627 7.6461,11.16627 0.46588,0 2.44934,-2.27319 4.4077,-5.05154 z m -36.09371,-32.5143 c 3.56566,-6.37965 3.25004,-8.00313 -0.91841,-4.72422 -3.01276,2.36984 -3.29828,2.39882 -6.27965,0.63769 -3.65432,-2.15866 -4.4522,-2.27547 -4.4522,-0.65183 0,2.00859 6.76767,11.16013 7.78712,10.53006 0.52607,-0.32513 2.26448,-2.9314 3.86314,-5.7917 z m 40.4118,-1.15292 c 3.40317,-5.80706 2.83176,-7.01324 -1.77006,-3.73645 -3.20239,2.2803 -3.54681,2.31029 -6.85976,0.59709 -1.91846,-0.99207 -3.74707,-1.5448 -4.06357,-1.22828 -0.31651,0.31651 1.06573,3.10827 3.07163,6.20392 4.15366,6.41017 4.86904,6.27365 9.62176,-1.83628 z" />
<path style="fill:#808080;" d="m 267.62299,97.451378 c -1.10295,-1.78461 -16.19983,-8.815846 -18.92865,-8.815846 -4.23099,0 -6.10527,-2.463576 -6.78818,-8.922533 l -0.6486,-6.134251 2.70211,3.231632 2.70212,3.231619 3.60726,-5.862561 c 1.984,-3.224391 3.31188,-6.15792 2.95087,-6.518945 -0.36103,-0.361012 -2.17967,0.243428 -4.04146,1.343203 -3.25832,1.924734 -3.46876,1.923851 -5.62065,-0.02364 -2.7139,-2.456021 -2.14243,-7.090531 1.84443,-14.958222 5.34444,-10.54676 15.80286,-16.751229 29.61568,-17.569545 9.25057,-0.548012 13.30634,0.77928 19.26196,6.30367 8.93879,8.29157 10.62227,23.985716 3.98135,37.115985 -5.01248,9.910539 -27.42878,22.772406 -30.63824,17.579382 z m 20.23015,-11.65451 c 1.63396,-2.788133 2.69365,-5.346492 2.35488,-5.685262 -0.33878,-0.338769 -2.11585,0.270073 -3.94906,1.352972 -3.12393,1.845345 -3.51132,1.852165 -6.17223,0.108698 -3.40798,-2.232988 -4.03291,-2.301385 -4.03291,-0.44138 0,1.72022 6.4557,9.734327 7.8414,9.734327 0.54292,0 2.32398,-2.281195 3.95792,-5.069314 z m -5.4474,-34.253272 c 4.75179,-7.02038 4.14883,-9.910743 -1.21977,-5.847099 -1.85531,1.404318 -2.50687,1.372673 -5.26346,-0.25567 -1.7303,-1.022124 -3.46078,-1.543641 -3.8455,-1.15892 -0.76823,0.76822 5.83642,10.898749 7.09752,10.886466 0.4306,-0.0041 1.88463,-1.63534 3.23121,-3.624777 z" />
</svg>
