<?xml version="1.0" encoding="UTF-8" standalone="no"?>
<!-- Created with Inkscape (http://www.inkscape.org/) -->

<svg
   xmlns:dc="http://purl.org/dc/elements/1.1/"
   xmlns:cc="http://creativecommons.org/ns#"
   xmlns:rdf="http://www.w3.org/1999/02/22-rdf-syntax-ns#"
   xmlns:svg="http://www.w3.org/2000/svg"
   xmlns="http://www.w3.org/2000/svg"
   xmlns:sodipodi="http://sodipodi.sourceforge.net/DTD/sodipodi-0.dtd"
   xmlns:inkscape="http://www.inkscape.org/namespaces/inkscape"
   width="600"
   height="600"
   viewBox="0 0 158.75 158.75"
   version="1.1"
   id="svg8"
   inkscape:version="0.92.3 (2405546, 2018-03-11)"
   sodipodi:docname="mp-eng.svg">
  <defs
     id="defs2" />
  <sodipodi:namedview
     id="base"
     pagecolor="#ffffff"
     bordercolor="#666666"
     borderopacity="1.0"
     inkscape:pageopacity="0.0"
     inkscape:pageshadow="2"
     inkscape:zoom="0.54"
     inkscape:cx="364.97823"
     inkscape:cy="340.69069"
     inkscape:document-units="mm"
     inkscape:current-layer="layer1"
     showgrid="true"
     units="px"
     inkscape:window-width="1366"
     inkscape:window-height="705"
     inkscape:window-x="-8"
     inkscape:window-y="-8"
     inkscape:window-maximized="1">
    <inkscape:grid
       type="xygrid"
       id="grid828"
       spacingx="79.375"
       spacingy="79.375" />
  </sodipodi:namedview>
  <metadata
     id="metadata5">
    <rdf:RDF>
      <cc:Work
         rdf:about="">
        <dc:format>image/svg+xml</dc:format>
        <dc:type
           rdf:resource="http://purl.org/dc/dcmitype/StillImage" />
        <dc:title></dc:title>
      </cc:Work>
    </rdf:RDF>
  </metadata>
  <g
     inkscape:label="Layer 1"
     inkscape:groupmode="layer"
     id="layer1"
     transform="translate(0,-138.24998)">
    <path
       style="opacity:1;fill:#000000;fill-opacity:1;stroke:none;stroke-width:20;stroke-linecap:round;stroke-linejoin:round;stroke-miterlimit:4;stroke-dasharray:none;stroke-opacity:1"
       d=""
       id="path879"
       inkscape:connector-curvature="0"
       transform="matrix(0.26458333,0,0,0.26458333,0,138.24998)" />
    <path
       style="opacity:1;fill:#000000;fill-opacity:1;stroke:#000000;stroke-width:0.79375005;stroke-linecap:round;stroke-linejoin:round;stroke-miterlimit:4;stroke-dasharray:none;stroke-opacity:1"
       d="m 55.954749,294.17657 c -1.518959,-1.68334 -7.08493,0.63785 -2.571665,-2.06849 4.635267,-3.48278 9.881235,-7.64578 11.838191,-13.22895 3.205599,-1.27489 4.174667,-5.3266 8.986086,-3.77559 6.64146,2.3358 9.120685,-4.1943 11.908446,-8.63436 -4.982493,2.40668 -10.522101,7.56352 -14.845517,1.11329 -3.284844,2.6791 -2.933308,-5.13264 -7.557923,-2.29363 -3.440261,5.05763 -9.448157,-3.93902 -2.448573,-4.03294 4.991769,-1.70515 9.866918,-5.11623 8.876202,-10.89725 1.691833,-1.88768 -2.161575,-1.39996 -0.284957,-3.96496 -3.187893,-0.73237 -7.247101,1.1014 -2.679123,-2.6844 3.858673,-5.5341 13.790015,0.0167 12.550389,-8.0838 0.135043,-3.61988 0.88551,-6.50837 1.947582,-9.81386 -5.450475,1.32083 -10.601291,-7.01757 -5.521087,-11.86214 6.386031,-2.71918 -2.050463,-4.28507 -3.425544,-0.83201 -3.36381,2.31293 -7.308287,-0.69071 -7.261686,2.35179 -2.239446,-1.96582 -7.485324,-1.44527 -6.006502,-2.76969 1.462874,-4.62122 6.417569,-9.68344 2.096868,-14.33574 1.055301,-1.8967 3.513844,-3.91834 -0.639887,-2.86394 -0.97605,2.88115 -4.495861,1.1821 -3.818056,-1.28793 -2.927723,1.46479 0.54239,5.28909 -2.103205,7.99348 0.778005,3.36794 -4.006744,5.40284 -1.415002,1.15607 0.855901,-6.33006 0.772234,-12.63838 3.83518,-18.54917 0.791858,-2.08068 -7.256761,4.6136 -5.092144,-0.84548 -5.658271,-0.48122 3.148092,-1.2812 0.12315,-4.37745 3.224295,-2.39039 1.895131,-6.18523 0.349517,-8.83299 4.773737,0.88294 -3.262214,-7.04114 3.09257,-5.77625 5.751628,-0.0267 -1.008449,-5.56976 3.413847,-7.0863 -0.52746,-7.18741 7.524964,-2.53751 12.355073,-4.05921 3.298997,-1.66059 6.85405,-1.69723 4.792596,2.57062 -1.920462,2.63028 -8.758272,7.19818 -7.865332,9.38522 4.135565,-0.95189 -3.87972,5.70372 -0.06616,4.93765 5.463429,-4.01301 12.637082,-2.6134 19.02296,-2.45616 3.167364,4.52584 -2.919042,11.80697 -4.748591,16.86383 -1.741623,1.66054 -10.004594,5.39475 -2.86784,3.05471 4.825592,3.09677 -2.759543,4.54461 -5.361585,5.74845 -8.900581,-2.11344 4.444563,4.98971 6.868297,0.52846 3.696814,-0.0659 7.144306,3.73378 9.986804,6.3956 2.599311,2.01816 1.728533,5.95097 3.038618,8.7312 0.621061,7.93558 9.922434,8.20285 13.133424,14.28838 0.79995,2.43428 7.00004,11.49153 0.63383,7.34921 -6.32163,0.49169 5.46503,2.14964 5.35007,5.8514 4.13064,3.62007 -4.70092,10.4037 3.21708,9.34824 2.53246,-6.17636 14.44802,-2.47554 13.93595,4.11399 1.13634,5.86591 -4.95951,11.00364 -7.07624,13.5534 0.37658,3.7545 -7.88936,3.51797 -1.1879,5.09083 3.12539,0.64155 10.08295,0.6791 4.83105,4.79853 -4.07849,3.67565 -9.68127,7.82443 -15.47458,5.49151 -6.26879,2.40374 -11.66794,-1.28246 -16.825316,2.74638 -5.755685,4.86008 -13.704718,-3.08856 -18.97743,3.251 -0.47885,4.32702 -2.620816,7.2047 -6.945518,3.85025 -5.66637,-3.30381 -10.202365,5.22253 -13.116393,4.84911 z"
       id="path919"
       inkscape:connector-curvature="0" />
    <path
       style="opacity:1;fill:#000000;fill-opacity:1;stroke:#000000;stroke-width:0.79375005;stroke-linecap:round;stroke-linejoin:round;stroke-miterlimit:4;stroke-dasharray:none;stroke-opacity:1"
       d="m 42.53253,226.8964 c -2.345622,-5.81363 -5.261687,-5.253 -7.41684,0.0421 -4.47349,-0.58457 -10.614822,-6.32109 -3.470876,-8.3056 -3.870004,-2.532 3.855556,-1.18752 3.128198,-5.42955 2.830018,-3.29152 8.841793,-5.76707 13.025747,-4.62513 1.057116,3.86282 4.718923,7.64334 2.058519,10.07121 5.562666,-3.51303 4.936628,6.89797 0.283737,7.04688 0.570024,2.89068 -7.599011,2.68266 -7.608485,1.20007 z"
       id="path921"
       inkscape:connector-curvature="0" />
    <path
       style="opacity:1;fill:#000000;fill-opacity:1;stroke:#000000;stroke-width:3.00000024;stroke-linecap:round;stroke-linejoin:round;stroke-miterlimit:4;stroke-dasharray:none;stroke-opacity:1"
       d=""
       id="path923"
       inkscape:connector-curvature="0"
       transform="matrix(0.26458333,0,0,0.26458333,0,138.24998)" />
    <path
       style="opacity:1;fill:#000000;fill-opacity:1;stroke:#000000;stroke-width:0.79375005;stroke-linecap:round;stroke-linejoin:round;stroke-miterlimit:4;stroke-dasharray:none;stroke-opacity:1"
       d="m 62.670914,225.70762 c 2.900095,-7.69195 3.737626,1.03747 0,0 z"
       id="path925"
       inkscape:connector-curvature="0" />
    <path
       style="opacity:1;fill:#000000;fill-opacity:1;stroke:#000000;stroke-width:0.79375005;stroke-linecap:round;stroke-linejoin:round;stroke-miterlimit:4;stroke-dasharray:none;stroke-opacity:1"
       d="m 65.781991,241.81929 c -4.572865,-6.33272 7.491388,0.18564 0,0 z"
       id="path927"
       inkscape:connector-curvature="0" />
    <path
       style="opacity:1;fill:#000000;fill-opacity:1;stroke:#000000;stroke-width:0.79375005;stroke-linecap:round;stroke-linejoin:round;stroke-miterlimit:4;stroke-dasharray:none;stroke-opacity:1"
       d="m 44.768447,162.57318 c -3.083267,-0.96243 -3.844452,-3.45955 -0.04172,-3.13029 0.01288,-3.65972 7.309673,-5.27821 3.22635,-0.11352 -0.512149,1.19993 -0.962498,5.6485 -3.184625,3.24381 z"
       id="path929"
       inkscape:connector-curvature="0" />
    <path
       style="opacity:1;fill:#000000;fill-opacity:1;stroke:#000000;stroke-width:0.79375005;stroke-linecap:round;stroke-linejoin:round;stroke-miterlimit:4;stroke-dasharray:none;stroke-opacity:1"
       d="m 38.464839,170.01792 c -0.473803,-5.05669 4.940847,0.93207 0.361085,0.96225 z"
       id="path931"
       inkscape:connector-curvature="0" />
    <path
       style="opacity:1;fill:#000000;fill-opacity:1;stroke:#000000;stroke-width:0.79374999;stroke-linecap:round;stroke-linejoin:round;stroke-miterlimit:4;stroke-dasharray:none;stroke-opacity:1"
       d="m 57.844234,203.84067 c -3.412611,-5.76717 3.459361,-2.26852 0,0 z"
       id="path933"
       inkscape:connector-curvature="0" />
    <path
       style="opacity:1;fill:#000000;fill-opacity:1;stroke:#000000;stroke-width:0.79374999;stroke-linecap:round;stroke-linejoin:round;stroke-miterlimit:4;stroke-dasharray:none;stroke-opacity:1"
       d="m 47.749949,190.06579 c 4.021566,0.31518 -1.245203,-7.10171 2.743319,-3.98008 3.112317,0.76366 4.392533,4.0599 -0.239332,3.78602 -0.733012,-0.35691 -1.951958,1.22826 -2.503987,0.19406 z"
       id="path935"
       inkscape:connector-curvature="0" />
    <path
       style="opacity:1;fill:#000000;fill-opacity:1;stroke:#000000;stroke-width:0.79374999;stroke-linecap:round;stroke-linejoin:round;stroke-miterlimit:4;stroke-dasharray:none;stroke-opacity:1"
       d="m 38.391681,176.36809 c -1.643202,-6.42045 3.270036,-2.31197 0,0 z"
       id="path937"
       inkscape:connector-curvature="0" />
    <path
       style="opacity:1;fill:#000000;fill-opacity:1;stroke:#000000;stroke-width:0.79374999;stroke-linecap:round;stroke-linejoin:round;stroke-miterlimit:4;stroke-dasharray:none;stroke-opacity:1"
       d="m 79.264139,148.09015 c -2.879831,0.93026 -5.023448,-4.44109 -1.286899,-2.47635 -2.031611,1.40968 4.499133,3.18732 1.286899,2.47635 z"
       id="path939"
       inkscape:connector-curvature="0" />
    <path
       style="opacity:1;fill:#000000;fill-opacity:1;stroke:#000000;stroke-width:0.79374999;stroke-linecap:round;stroke-linejoin:round;stroke-miterlimit:4;stroke-dasharray:none;stroke-opacity:1"
       d="m 75.739677,149.51082 c -2.050172,-3.25877 2.928937,2.28182 0,0 z"
       id="path941"
       inkscape:connector-curvature="0" />
    <path
       style="opacity:1;fill:#000000;fill-opacity:1;stroke:#000000;stroke-width:0.79374999;stroke-linecap:round;stroke-linejoin:round;stroke-miterlimit:4;stroke-dasharray:none;stroke-opacity:1"
       d="m 48.004388,200.29006 c 2.535333,-3.42571 -4.916083,-0.16139 0.0981,-3.20022 2.396871,-1.73044 1.801108,5.99603 -0.0981,3.20022 z"
       id="path943"
       inkscape:connector-curvature="0" />
    <path
       style="opacity:1;fill:#000000;fill-opacity:1;stroke:#000000;stroke-width:3;stroke-linecap:round;stroke-linejoin:round;stroke-miterlimit:4;stroke-dasharray:none;stroke-opacity:1"
       d=""
       id="path945"
       inkscape:connector-curvature="0"
       transform="matrix(0.26458333,0,0,0.26458333,0,138.24998)" />
    <path
       style="opacity:1;fill:#000000;fill-opacity:1;stroke:#000000;stroke-width:0.79374999;stroke-linecap:round;stroke-linejoin:round;stroke-miterlimit:4;stroke-dasharray:none;stroke-opacity:1"
       d="m 50.126537,197.72554 c 1.430279,-1.40577 1.62815,-4.41155 2.868282,-3.52388 -0.626245,0.59587 -1.673834,4.56693 -2.868282,3.52388 z"
       id="path947"
       inkscape:connector-curvature="0" />
    <path
       style="opacity:1;fill:#000000;fill-opacity:1;stroke:#000000;stroke-width:0.79374999;stroke-linecap:round;stroke-linejoin:round;stroke-miterlimit:4;stroke-dasharray:none;stroke-opacity:1"
       d="m 41.702352,165.87351 c 2.303359,-1.44057 2.237925,-2.07766 0.315222,-3.64963 3.722886,-0.003 2.788303,4.26386 -0.315222,3.64963 z"
       id="path949"
       inkscape:connector-curvature="0" />
    <path
       style="opacity:1;fill:#000000;fill-opacity:1;stroke:#000000;stroke-width:0.79374999;stroke-linecap:round;stroke-linejoin:round;stroke-miterlimit:4;stroke-dasharray:none;stroke-opacity:1"
       d="m 51.193459,177.68514 c 1.034031,-3.17589 -4.984107,-0.8803 -4.572458,-5.24042 -3.729638,1.03774 -1.077598,-3.8453 1.317241,-1.7605 0.911664,-6.90287 1.046171,7.59725 6.23987,4.26116 -1.025798,0.65944 -1.993149,2.94177 -2.984653,2.73976 z"
       id="path951"
       inkscape:connector-curvature="0" />
  </g>
</svg>
