<?xml version="1.0" encoding="UTF-8" standalone="no"?>
<!-- Created with Inkscape (http://www.inkscape.org/) -->

<svg
   xmlns:dc="http://purl.org/dc/elements/1.1/"
   xmlns:cc="http://creativecommons.org/ns#"
   xmlns:rdf="http://www.w3.org/1999/02/22-rdf-syntax-ns#"
   xmlns:svg="http://www.w3.org/2000/svg"
   xmlns="http://www.w3.org/2000/svg"
   xmlns:sodipodi="http://sodipodi.sourceforge.net/DTD/sodipodi-0.dtd"
   xmlns:inkscape="http://www.inkscape.org/namespaces/inkscape"
   width="600"
   height="600"
   viewBox="0 0 158.75 158.75"
   version="1.1"
   id="svg8"
   inkscape:version="0.92.3 (2405546, 2018-03-11)"
   sodipodi:docname="mp-ita.svg">
  <defs
     id="defs2" />
  <sodipodi:namedview
     id="base"
     pagecolor="#ffffff"
     bordercolor="#666666"
     borderopacity="1.0"
     inkscape:pageopacity="0.0"
     inkscape:pageshadow="2"
     inkscape:zoom="0.71"
     inkscape:cx="312.07289"
     inkscape:cy="350.86418"
     inkscape:document-units="mm"
     inkscape:current-layer="layer1"
     showgrid="true"
     units="px"
     inkscape:window-width="1366"
     inkscape:window-height="705"
     inkscape:window-x="-8"
     inkscape:window-y="-8"
     inkscape:window-maximized="1">
    <inkscape:grid
       type="xygrid"
       id="grid828"
       spacingx="79.375"
       spacingy="79.375" />
  </sodipodi:namedview>
  <metadata
     id="metadata5">
    <rdf:RDF>
      <cc:Work
         rdf:about="">
        <dc:format>image/svg+xml</dc:format>
        <dc:type
           rdf:resource="http://purl.org/dc/dcmitype/StillImage" />
        <dc:title></dc:title>
      </cc:Work>
    </rdf:RDF>
  </metadata>
  <g
     inkscape:label="Layer 1"
     inkscape:groupmode="layer"
     id="layer1"
     transform="translate(0,-138.24998)">
    <path
       style="opacity:1;fill:#000000;fill-opacity:1;stroke:none;stroke-width:5.29166651;stroke-linecap:round;stroke-linejoin:round;stroke-miterlimit:4;stroke-dasharray:none;stroke-opacity:1"
       d="m 113.76565,275.58591 c -2.84904,-4.02637 4.21861,-5.35752 1.95789,-9.31211 6.84898,-1.06142 1.05093,-9.13972 -0.0862,-13.24112 -0.40779,-4.65393 -2.88502,-6.79522 -6.58652,-6.61491 -5.09559,-1.25436 -1.67573,-10.78611 -8.9065,-7.64188 1.30909,-3.57084 -5.833817,-2.10682 -5.677089,-6.5558 -2.699699,-5.35619 -9.321305,-0.0553 -12.149513,-5.02933 -5.225883,-3.7545 -8.900517,-9.1049 -13.58315,-13.18595 -2.314654,-1.92841 -4.563311,0.87353 -3.522054,-2.70671 -4.863419,-4.35525 -7.036593,-8.99778 -9.126288,-15.16798 0.727554,-7.55371 -8.139512,-8.54706 -12.94035,-11.75895 -3.430807,-2.12869 -6.504408,0.13316 -8.393716,3.15826 -1.60006,2.66453 -5.321503,6.99054 -8.388636,4.71481 3.637754,-3.10506 1.258938,-5.93826 -2.660707,-4.74973 -6.556753,-1.28666 -2.26925,-7.14355 -3.233833,-10.45797 -3.956825,-0.75627 -4.660948,-5.37773 0.404171,-4.70274 5.406504,-3.09864 -7.493368,-11.20592 2.422057,-10.60074 4.754859,-0.74354 9.886059,-0.2733 10.832997,-6.7451 2.690098,-5.01819 0.546341,5.41443 5.561148,3.68671 -0.317302,2.8834 4.660376,5.69501 2.896877,1.0173 2.617642,-1.60689 1.639409,-7.06162 3.736404,-6.94576 0.68834,5.55271 5.846627,-0.42957 7.241365,3.87541 2.721811,-0.68879 -2.227117,-8.20901 2.975859,-4.92783 2.770211,-0.17685 0.164258,-8.15358 4.940694,-3.75426 3.626265,0.33081 5.276014,-5.58657 10.160116,-3.04033 5.596329,-4.29098 4.398793,6.97118 11.13517,5.51157 3.308844,1.23408 13.270526,0.40073 6.168763,4.63194 -0.898086,2.84516 4.863324,1.24188 1.127942,4.08272 1.793103,2.65637 0.393634,7.09799 -3.982998,3.79991 -1.528,6.22838 -8.606427,1.2494 -10.346277,6.98059 -1.573815,2.76928 5.901026,5.42876 2.432278,7.55539 -3.967089,2.18226 -0.549892,11.75916 4.113612,13.45314 5.229926,3.32404 10.407914,6.76518 11.247509,13.41188 0.733059,6.19204 5.824648,10.04362 9.885819,14.0443 3.47237,5.38728 13.37729,-0.72505 14.79873,4.27606 -7.37442,4.72027 4.82451,7.81134 8.55788,9.74861 5.45551,3.43017 11.40224,6.09999 15.43605,11.31009 2.92759,3.28565 -1.64025,9.87756 -3.60021,3.40916 0.58386,-5.55038 -9.55041,-2.86269 -8.2457,-6.60995 -4.56104,-1.59719 -6.27753,4.62968 -7.6621,7.71291 -4.48314,5.84353 6.38824,4.70011 5.8134,9.15495 0.31713,3.33965 0.84968,5.89983 -3.5182,5.45583 -4.70971,1.69643 -0.24727,7.80829 -5.75064,9.16584 -1.26222,2.57002 -1.82637,5.40781 -5.48609,3.59177 z M 79.542078,191.35919 c 0.05019,-3.40945 -2.629511,2.04635 0,0 z"
       id="path836"
       inkscape:connector-curvature="0" />
    <path
       style="opacity:1;fill:#000000;fill-opacity:1;stroke:none;stroke-width:20;stroke-linecap:round;stroke-linejoin:round;stroke-miterlimit:4;stroke-dasharray:none;stroke-opacity:1"
       d="m 402.39547,583.17652 c -1.10887,-0.61529 -4.05185,-1.12406 -6.53995,-1.1306 -6.73377,-0.0177 -13.5579,-3.75734 -17.74255,-9.72297 -5.22619,-7.45045 -10.29354,-10.45021 -17.65299,-10.45021 -5.48052,0 -8.20892,-1.10336 -13.66774,-5.5272 -1.9729,-1.59885 -5.37548,-3.73556 -7.56128,-4.74826 -2.18581,-1.01269 -5.65226,-3.24471 -7.70323,-4.96003 -5.96801,-4.99133 -13.80122,-8.15161 -20.20493,-8.15161 -5.25337,0 -5.43664,-0.0723 -8.75383,-3.45224 -3.66657,-3.73597 -3.99504,-5.12693 -2.66299,-11.27703 1.13669,-5.2481 2.04031,-6.70942 5.8597,-9.47618 l 3.28638,-2.38064 2.9217,2.27062 c 4.50091,3.4979 4.68186,3.53643 8.55757,1.82202 3.14296,-1.39028 3.63833,-1.93758 3.63833,-4.01976 0,-2.55001 0.40328,-2.81084 5.83355,-3.773 2.66265,-0.47177 3.0951,-0.31348 3.7381,1.36829 1.05467,2.7585 2.99386,4.24559 9.76044,7.48492 6.77485,3.24328 8.46856,3.45077 12.75026,1.56197 2.2586,-0.99635 5.08732,-1.28155 11.46604,-1.15605 10.11845,0.19908 14.72206,-0.72773 21.97677,-4.42443 6.22089,-3.1699 6.52104,-3.2104 11.43278,-1.54283 l 3.62719,1.23147 8.88756,-4.45728 c 4.88814,-2.4515 9.71012,-4.44623 10.71549,-4.43275 1.60714,0.0216 1.66068,0.12202 0.44326,0.83165 -0.76158,0.44391 -2.0855,2.3914 -2.94204,4.32774 -0.85654,1.93635 -3.95176,7.02753 -6.87827,11.31373 -2.92651,4.2862 -5.5203,8.76921 -5.76398,9.96224 -1.09703,5.37086 -2.28571,8.79093 -3.79137,10.90855 -3.14985,4.43009 -0.27637,17.10866 4.94737,21.82914 2.49876,2.25802 2.1104,4.5879 -1.20581,7.23391 -3.7217,2.96955 -5.43326,6.9757 -4.73811,11.09024 0.29024,1.71789 0.40508,3.08786 0.25521,3.04437 -0.14988,-0.0435 -1.17976,-0.58249 -2.28863,-1.19779 z"
       id="path838"
       inkscape:connector-curvature="0"
       transform="matrix(0.26458333,0,0,0.26458333,0,138.24998)" />
    <path
       style="opacity:1;fill:#000000;fill-opacity:1;stroke:none;stroke-width:20;stroke-linecap:round;stroke-linejoin:round;stroke-miterlimit:4;stroke-dasharray:none;stroke-opacity:1"
       d="m 147.93867,470.16203 c -2.90591,-0.26838 -3.44732,-0.67728 -5.15239,-3.89137 -2.1593,-4.07033 -4.97246,-4.86987 -6.57815,-1.86962 -0.73626,1.37571 -1.06373,1.49729 -1.62893,0.60484 -1.2633,-1.99474 -0.82848,-3.93959 0.88078,-3.93959 1.936,0 2.16792,-2.82847 0.42104,-5.13503 -0.98765,-1.30408 -0.97528,-1.75825 0.0923,-3.38754 1.04039,-1.58784 1.0735,-2.32219 0.2121,-4.70434 -0.80343,-2.22184 -0.81761,-3.70276 -0.0666,-6.95624 0.52476,-2.2734 0.95412,-5.83423 0.95412,-7.91295 0,-3.13003 0.30818,-3.9163 1.79341,-4.57557 2.23982,-0.99423 3.46639,-5.63189 2.30054,-8.69832 -0.64795,-1.70423 -1.35919,-2.1784 -3.26754,-2.1784 -2.81764,0 -2.83206,-0.0619 -1.23837,-5.31538 1.70457,-5.61894 1.53851,-13.66301 -0.39825,-19.29232 -2.492,-7.2431 -5.37999,-11.67066 -7.94743,-12.18415 -2.15977,-0.43196 -2.20113,-0.55191 -2.1444,-6.21946 0.0755,-7.546 0.64638,-8.42507 3.76631,-5.79983 3.3451,2.81472 9.72079,2.87346 13.44761,0.12391 1.42613,-1.05217 4.12769,-2.51566 6.00345,-3.2522 2.19092,-0.8603 4.19022,-2.46842 5.59102,-4.49711 1.19931,-1.73687 4.0015,-4.53749 6.22709,-6.2236 2.22559,-1.68612 4.27764,-3.8822 4.5601,-4.88018 0.28246,-0.99799 0.87244,-1.81452 1.31106,-1.81452 0.43863,0 3.60167,1.45889 7.02899,3.24198 4.92192,2.56066 6.52274,3.85274 7.6174,6.14828 1.31366,2.75477 1.3123,2.98765 -0.026,4.46652 -1.14841,1.26897 -1.22796,1.81484 -0.42619,2.9243 3.02679,4.18829 4.13814,6.37836 5.32957,10.50259 0.7263,2.51414 1.71941,5.65988 2.20691,6.99052 1.91528,5.22779 1.77197,7.28144 -0.70957,10.1688 -5.64918,6.573 -6.41325,10.02851 -3.32305,15.02855 1.68507,2.7265 1.70746,3.11121 0.78014,13.40164 -1.33838,14.85203 -5.09352,36.90965 -6.36739,37.40196 -0.56638,0.21888 -2.43633,-0.57676 -4.15543,-1.7681 -3.75486,-2.60211 -9.61785,-4.47478 -14.00979,-4.47478 h -3.21287 l 0.45226,6.59845 0.45227,6.59845 -2.67574,2.67574 c -1.47166,1.47166 -3.16566,2.61234 -3.76445,2.53485 -0.59879,-0.0775 -2.54991,-0.27584 -4.33583,-0.44078 z"
       id="path840"
       inkscape:connector-curvature="0"
       transform="matrix(0.26458333,0,0,0.26458333,0,138.24998)" />
  </g>
</svg>
