<?xml version="1.0" encoding="UTF-8" standalone="no"?>
<!-- Created with Inkscape (http://www.inkscape.org/) -->

<svg
   xmlns:dc="http://purl.org/dc/elements/1.1/"
   xmlns:cc="http://creativecommons.org/ns#"
   xmlns:rdf="http://www.w3.org/1999/02/22-rdf-syntax-ns#"
   xmlns:svg="http://www.w3.org/2000/svg"
   xmlns="http://www.w3.org/2000/svg"
   xmlns:sodipodi="http://sodipodi.sourceforge.net/DTD/sodipodi-0.dtd"
   xmlns:inkscape="http://www.inkscape.org/namespaces/inkscape"
   width="600"
   height="600"
   viewBox="0 0 158.75 158.75"
   version="1.1"
   id="svg8"
   inkscape:version="0.92.3 (2405546, 2018-03-11)"
   sodipodi:docname="mp-jpn.svg">
  <defs
     id="defs2" />
  <sodipodi:namedview
     id="base"
     pagecolor="#ffffff"
     bordercolor="#666666"
     borderopacity="1.0"
     inkscape:pageopacity="0.0"
     inkscape:pageshadow="2"
     inkscape:zoom="0.5"
     inkscape:cx="183.09859"
     inkscape:cy="294.34842"
     inkscape:document-units="mm"
     inkscape:current-layer="layer1"
     showgrid="true"
     units="px"
     inkscape:window-width="1366"
     inkscape:window-height="705"
     inkscape:window-x="-8"
     inkscape:window-y="-8"
     inkscape:window-maximized="1">
    <inkscape:grid
       type="xygrid"
       id="grid828"
       spacingx="79.375"
       spacingy="79.375" />
  </sodipodi:namedview>
  <metadata
     id="metadata5">
    <rdf:RDF>
      <cc:Work
         rdf:about="">
        <dc:format>image/svg+xml</dc:format>
        <dc:type
           rdf:resource="http://purl.org/dc/dcmitype/StillImage" />
        <dc:title />
      </cc:Work>
    </rdf:RDF>
  </metadata>
  <g
     inkscape:label="Layer 1"
     inkscape:groupmode="layer"
     id="layer1"
     transform="translate(0,-138.24998)">
    <path
       style="opacity:1;fill:#000000;fill-opacity:1;stroke:none;stroke-width:0.79374999;stroke-linecap:round;stroke-linejoin:round;stroke-miterlimit:4;stroke-dasharray:none;stroke-opacity:1"
       d="m 101.63695,184.58874 c 0.011,-3.08711 0.83828,-5.8872 -2.29816,-7.97149 -0.545801,-4.51599 6.26664,-6.07412 4.09725,-9.96819 4.62344,2.90776 8.90237,-0.34819 6.5707,-5.07331 2.95098,-2.78588 1.42566,-7.85775 1.60023,-11.46941 -3.65233,-2.95387 0.14074,-8.14686 2.45737,-3.47481 3.83725,4.04521 7.5367,9.24301 13.30353,10.21177 3.12037,1.23051 6.545,2.80735 8.69707,-1.24251 -3.75245,4.70861 7.27234,8.54944 0.58925,9.8314 -4.06151,1.70581 -9.75188,2.11497 -11.76833,8.24899 1.27168,9.69134 -8.99935,-3.73902 -13.53024,-0.866 -2.47269,3.12858 -4.16546,2.36235 -6.43774,0.2041 -7.132837,3.26038 2.0689,6.30288 3.95519,8.14359 -4.75147,-2.02914 -4.57002,3.76408 -7.23612,3.42587 z"
       id="path877"
       inkscape:connector-curvature="0" />
    <path
       style="opacity:1;fill:#000000;fill-opacity:1;stroke:none;stroke-width:20;stroke-linecap:round;stroke-linejoin:round;stroke-miterlimit:4;stroke-dasharray:none;stroke-opacity:1"
       d=""
       id="path879"
       inkscape:connector-curvature="0"
       transform="matrix(0.26458333,0,0,0.26458333,0,138.24998)" />
    <path
       style="opacity:1;fill:#000000;fill-opacity:1;stroke:none;stroke-width:0.79374999;stroke-linecap:round;stroke-linejoin:round;stroke-miterlimit:4;stroke-dasharray:none;stroke-opacity:1"
       d="m 27.892772,290.64388 c 2.366271,-5.24559 -3.765909,-6.088 -2.03649,-1.57894 -5.466602,-0.26123 0.950758,-3.41825 -2.586317,-6.74546 -0.0046,-1.38936 7.236572,-7.94305 2.094514,-6.55963 -0.138132,1.85646 -2.767851,2.73048 -3.296257,3.56357 -1.324883,-4.84591 3.753293,-0.91303 5.163135,-5.49079 -0.772469,-2.95111 -5.288236,-6.77599 -3.951687,-1.06269 2.726363,0.60374 -0.404473,3.5071 0.378564,0.51596 -4.259525,2.75456 -4.48444,-3.36433 -4.849302,-5.67434 2.50949,1.61728 1.673735,-2.70542 4.209469,-0.8396 2.433397,-1.15926 3.856062,-5.46821 7.032981,-3.9471 0.456396,4.10274 4.187108,2.72605 6.172478,2.94292 0.682257,1.94952 -4.754534,3.66127 0.704541,3.73991 3.205602,3.65608 -1.477457,6.17863 -2.371102,10.72632 -1.70902,2.31514 0.01539,5.68882 -2.065546,7.54568 -4.033453,-3.68976 -0.648111,2.7877 -4.598981,2.86419 z"
       id="path893"
       inkscape:connector-curvature="0" />
    <path
       style="opacity:1;fill:#000000;fill-opacity:1;stroke:none;stroke-width:0.79374999;stroke-linecap:round;stroke-linejoin:round;stroke-miterlimit:4;stroke-dasharray:none;stroke-opacity:1"
       d="m 44.416842,274.21539 c 0.271179,-1.92149 -3.602956,-2.64211 -1.342802,-5.04838 -4.03255,-2.41224 3.023498,-3.37052 2.698463,-7.47851 2.774342,3.00877 6.939965,0.41703 8.687636,-2.94786 6.05967,-0.73471 8.469899,5.50423 2.875968,8.48467 -0.552086,4.72409 -4.034738,-3.83706 -7.422583,0.51388 -2.513065,1.57822 -2.440211,7.38237 -5.496682,6.4762 z"
       id="path895"
       inkscape:connector-curvature="0" />
    <path
       style="opacity:1;fill:#000000;fill-opacity:1;stroke:none;stroke-width:5.29166651;stroke-linecap:round;stroke-linejoin:round;stroke-miterlimit:4;stroke-dasharray:none;stroke-opacity:1"
       d="m 90.154703,221.79789 c -0.811003,-2.40624 1.725988,-5.46856 0.959784,-1.57305 1.437934,0.26601 -1.536194,3.12553 -0.959784,1.57305 z"
       id="path897"
       inkscape:connector-curvature="0" />
    <path
       style="opacity:1;fill:#000000;fill-opacity:1;stroke:#000000;stroke-width:0.79374999;stroke-linecap:round;stroke-linejoin:round;stroke-miterlimit:4;stroke-dasharray:none;stroke-opacity:1"
       d="m 68.547299,266.57018 c -5.088794,-3.0695 -3.186194,-7.46836 -1.019828,-11.32558 -2.0359,-2.70809 -3.852487,3.16537 -5.508498,-1.16611 -6.064782,-0.13338 -8.471448,3.80994 -14.593247,3.98625 -3.165097,1.10766 -3.432114,1.58073 -5.41509,-0.31626 -2.232456,2.35787 -2.402874,5.99578 -6.154822,3.24004 -3.480829,1.5813 -7.582815,0.50695 -5.776891,-2.87906 5.062876,0.0979 8.001063,-4.6599 12.162314,-7.18805 2.684163,-5.87102 7.852907,-3.9306 13.058939,-3.70943 2.414587,-0.0779 4.177485,-2.32753 6.922992,-1.34782 4.149648,-2.8084 2.142569,1.88988 6.717874,1.47021 3.98236,-0.93121 3.676499,-4.15854 3.459927,-6.57327 4.082216,-3.31469 6.159031,-7.48715 5.567259,-12.70003 4.061256,-2.58169 4.454078,-0.93136 0.953966,1.90097 1.292698,1.27355 2.093473,7.06502 4.5902,2.60216 5.591495,-2.16067 10.10012,-5.59797 12.430779,-11.22241 5.064367,-3.20451 5.598757,-11.10989 7.128137,-16.86948 2.19127,-4.06032 -5.091698,-3.74276 -1.12185,-4.65325 1.34609,-3.18976 -2.261317,-6.78702 1.94349,-8.28222 -0.71611,-4.74785 2.22627,-4.60607 2.93829,-0.35908 1.08789,-2.58002 4.52077,1.3879 4.43301,-3.28336 -0.24179,-3.88311 -6.08441,2.54015 -3.19258,-3.42486 6.26675,0.31093 1.78986,7.88732 6.96742,11.16515 4.67851,5.71148 2.28751,12.54235 -0.71058,17.86309 1.42804,3.08379 -6.26603,1.59724 -3.81496,6.79015 3.96312,6.23313 -1.0039,11.02893 -1.52999,17.15033 1.63144,3.66472 2.96771,5.26873 -0.76419,7.68347 0.94291,2.44246 -3.67133,6.31859 -4.4045,5.31275 -0.87023,-4.32318 -8.302629,-3.7674 -6.077044,1.58746 -1.768841,4.58186 -2.897045,0.88881 -1.930945,-1.80966 -3.596535,-1.44597 -7.080025,7.73119 -10.814058,3.62654 -2.743388,3.59453 -1.279372,-2.385 -5.234459,-0.27877 -0.55522,-7.08075 -6.163992,3.18102 -0.525319,4.18873 -5.140434,0.86576 -5.820929,6.38837 -9.570231,9.06744 z"
       id="path899"
       inkscape:connector-curvature="0" />
  </g>
</svg>
