<svg xmlns="http://www.w3.org/2000/svg" viewBox="0 0 512 384">
<rect width="512" height="384" fill="transparent"/>
<path d="M438.4 102.9C385.3 76.1 305.6 45.4 279.7 41.8 267.4 40.1 262.7 37.9 255.3 30.2 250.2 24.8 233.5 2.6 233.5 1.1c0-0.3 62.5-0.6 138.8-0.6l138.8 0 0 36.6 0 36.6-4.1 0.8c-6.6 1.2-13.9 6.7-31 23.2-8.8 8.5-16.5 15.5-17.1 15.4-0.6 0-9.9-4.5-20.6-10z" style="stroke-width:3;stroke:#000"/>
<path d="m1.1 86.1 0-85.7 114.9 0 114.9 0 1.5 2.8c2.3 4.4 14.4 20.1 21 27.4 7.6 8.4 12.1 10.6 25.8 13.2 32.6 6.1 99.6 32 158.4 61.1 10.3 5.1 19.8 9.3 21.1 9.3 1.3 0 9.9-7 19.1-15.5 17.9-16.5 26-22.4 30.5-22.4l2.8 0 0 28.1 0 28.1-19.9 0c-11 0-35.6 0.6-54.7 1.2-142.3 5.1-250.8 14-358.9 29.5-23.5 3.4-46.9 6.4-52 6.7-5 0.3-12.6 0.8-16.8 1.2l-7.6 0.7 0-85.7z" style="fill:#808080;stroke-width:2;stroke:#808080"/>
<path d="m0.2 344.8c0-21.4 0.2-38.9 0.5-38.9 0.8 0 37 16.6 45.4 20.8 28.9 14.5 51 32.7 60.6 50l2.1 3.7-2 1.6c-1.9 1.6-4.2 1.7-54.3 1.7l-52.3 0 0-38.9z" />
<path d="M413.2 380.9C398.8 373.5 332.7 344.9 293.9 329.4 194 289.4 97.6 259 8.7 239.3l-8.4-1.9 0-8.6c0-4.7 0.2-8.6 0.5-8.6 2.4 0 71.4 8 104.3 12.2 60.3 7.5 102.8 14.9 156.4 27.2 60.7 13.9 107.7 26.8 230.3 63.2l19.7 5.8 0 27.5 0 27.5-46.5 0-46.5 0-5.2-2.7z" />
<path d="M501 256.9C484.1 253.8 426.9 244.8 394.2 240.2 293 225.7 204.3 216.2 113.1 209.9 63.4 206.4 8.3 202.9 4.3 202.9l-4.1 0 0-8.1 0-8.1 6.7 0.3c3.7 0.2 19.2 0.7 34.4 1.2 130.8 4.2 264.9 14.6 385.3 29.9 20.7 2.6 47 5.9 58.4 7.3 11.4 1.4 22 2.8 23.6 3l2.8 0.5 0 14.7c0 16.9 1.2 15.4-10.4 13.3z" />
<path d="m39.2 171.1-5.6-0.6 5.2-0.7c2.9-0.4 12.2-1.6 20.8-2.8 64.2-8.8 95.2-12.6 133.6-16.4 85.7-8.4 198-14.9 286.5-16.6l31.8-0.6 0 6.9 0 6.9-16.2 1.1c-16.4 1.1-73.3 5.4-92.3 7.1-15.8 1.4-39.7 4.1-68.3 7.8-60 7.7-47.7 7-124.5 7.3-38.1 0.1-90.8 0.5-117.2 0.7-26.4 0.2-50.5 0.2-53.6-0.1z" style="stroke-width:2;stroke:#000"/>
<path d="m504.5 180.8c-2.8-0.4-60.6-3.7-77.8-4.5l-13.4-0.6 6.5-1.5c18.6-4.4 60.6-12 87.6-15.8l4.1-0.6 0 11.8 0 11.8-2.4-0.1c-1.3-0.1-3.4-0.3-4.5-0.4z" />
<path d="m231 151.3c-2.8-0.2-6.7-1.7-9.1-3.7-3.5-2.6-6.1-7.2-6.7-11.3-0.7-6.3 2.4-13 7.6-16.3 6.3-4.1 13.7-3.9 19.6 0.4 7.8 5.6 9.3 16.5 3.5 24.1-3.7 4.8-8.9 7-14.8 6.7zm4.6-7.4c3-1.1 5.4-3.5 6.5-6.7 2.2-7.2-4.3-14.6-11.7-13-8.7 1.7-11.3 12.6-4.3 18 1.5 1.3 3.7 2.2 5.6 2.2 1.7 0.2 2.2 0.2 3.9-0.4zm40.6 1.5c-6.7-0.9-11.1-8.3-8-14.6 0.2-0.7 0.7-1.3 0.7-1.3 0-0.2-3.3 0.2-7 0.7-7.8 1.1-7.4 1.1-7.8-1.5-0.2-2.2-3.3-6.5-6.7-9.6-3.7-3.3-9.3-5.9-13.9-6.5-2.8-0.4-6.5 0-9.3 0.7-4.6 1.5-5.2 2-9.8 6.3-0.4 0.2-0.4 0.4-0.9 0-0.4-0.4-0.2-0.7 0.7-1.7 0.4-0.7 1.5-1.7 2.2-2.2 1.1-1.1 1.1-1.3 1.3-2.8 0-1.1 0.2-2.4 0.2-2.8 0.2-0.4-0.4-6.1-1.3-12.4l-1.5-11.7 0.9-1.1 0.7-1.1 11.3-1.5c12.4-1.7 13-1.7 14.1-0.2 0.4 0.4 2.6 5.9 4.8 11.7 2.4 6.1 4.3 11.1 4.3 11.1 0.2 0 4.1 0 8.9 0 4.8-0.2 8.9-0.2 9.3-0.2 0.7 0 0.7 0 0-6.1-0.9-7-0.7-8.5 0.9-10.9 1.1-1.7 3.5-3.3 5.6-3.7l1.7-0.4 0.2 1.5c0 1.3 0 1.7-0.9 2.6-1.5 2-1.7 3-0.9 10.2l0.7 6.5 1.1 0c0.4 0 3.5 0 6.5 0 3 0 5.9 0 6.1 0.2 0.2 0.2 0.4 0.4 0.4 0.9 0.2 0.4-4.3 18.7-4.8 20.2-0.2 0.2-0.7 0.9-1.1 1.1l-0.9 0.7 1.1 1.1c0.7 0.7 1.3 2.2 1.7 3.3 1.3 3.3 0.9 6.7-1.3 9.8-0.7 0.9-2 2-2.8 2.4-1.5 1.1-4.6 1.7-6.5 1.5zm4.6-6.3c1.5-1.3 1.7-2.4 1.5-4.6-0.2-1.5-0.4-2-1.1-2.8-2.2-2-5.4-2.2-7.4 0-1.3 1.3-1.7 2.8-1.3 4.8 0.4 1.5 1.3 2.6 2.8 3.5 1.1 0.4 1.5 0.4 3 0.2 1.1-0.2 2-0.7 2.4-1.1zm-31.3-34.5c-0.2 0-2-5-4.3-10.9-3.3-8.3-4.3-10.6-4.8-11.1-0.7-0.4-1.7-0.4-11.7 0.9-7 0.9-11.3 1.5-11.5 2-0.7 0.2-0.4 0.7 0.9 11.5l1.3 11.1 12.4-1.5c6.7-0.9 13-1.5 14.1-1.5 2.4 0 3.7-0.2 3.7-0.4z"/></svg>
