<svg xmlns="http://www.w3.org/2000/svg" viewBox="0 0 512 384">
<rect width="512" height="384" fill="none"/>
<path d="m791.6 315.7c0.7-1.2 13.5-21.4 28.3-44.9 15-23.8 26.8-43.1 26.7-43.5-0.2-0.4-1.3-2.3-2.6-4.1-8.6-12.7-19.8-31.8-26.6-45.6-8.5-17-12.7-29.6-12.4-36.7l0.2-3.6 28.1 40.4 28.1 40.4 15.2 0.4c42.7 1 75 6.7 84.8 14.9l1.5 1.2-8.2 0.1c-4.5 0-26.9 0.3-49.8 0.5l-41.6 0.4-1 1.4c-0.6 0.8-3.8 5.5-7.3 10.4-18.6 26.9-28.9 40.2-40.3 51.9-8.6 8.8-15 14.2-20.2 16.7-2 1-3.8 1.8-4.1 1.8-0.2 0 0.2-1 0.9-2.2zm68.4-82.4c3.3-1.5 4.2-6.2 1.7-9.1-2.8-3.3-7.9-2.8-9.9 1.1-1.4 2.7-1.1 4.6 1.1 6.8 2.1 2.1 4.3 2.5 7.1 1.3z" />
<path d="m853.6 261.1c0-1.1 0.6-2.1 5-8.6 2.7-4 5-7.2 5.1-7.2 3.9 100.5 4.4 178.7 5.7 264.2h-10.1-10.1c1.4-86.3 2.7-163.7 4.4-248.4z" />
<path d="m1108.7 247.7c0.1-0.1 8 3.9 8.8 4.5 4.6 67.5 4.4 169.5 6.2 260.7h-10.1-10.1c2.5-92.4-0.2-186 5.2-265.2z" />
<path d="m1203 291.3c-1.3-0.6-22.3-11.9-46.8-25-24.8-13.3-44.9-23.6-45.4-23.4-0.4 0.2-2.2 1.5-3.9 2.9-12 9.5-30.3 22-43.5 29.9-16.3 9.7-28.6 14.8-35.7 15l-3.6 0.1 38.3-31 38.3-31-0.7-15.2c-2.1-42.6 1.2-75.3 8.7-85.7l1.1-1.5 0.7 8.1c0.4 4.5 2.2 26.8 4.1 49.6l3.5 41.5 1.5 0.9c0.8 0.5 5.7 3.4 10.9 6.5 28.2 16.6 42.1 25.9 54.7 36.4 9.4 7.9 15.3 14 18.2 18.9 1.1 1.9 2.1 3.7 2.1 3.9 0 0.2-1-0.1-2.2-0.8zm-87.1-62.2c-1.7-3.2-6.5-3.7-9.2-1-3.1 3-2.2 8 1.8 9.7 2.8 1.2 4.6 0.8 6.7-1.6 2-2.3 2.2-4.5 0.8-7.1z" />
<path d="m1431.4 185c-1.1 0.8-20.5 14.8-43.1 31-22.9 16.4-41.1 29.8-41.1 30.3 0 0.5 0.4 2.6 0.8 4.8 3.2 15 6.4 36.9 7.5 52.2 1.5 18.9 0.7 32.2-2.4 38.7l-1.5 3.3-10.9-48.1-10.9-48.1-14-6.1c-39.2-17-67-34.4-73-45.7l-0.9-1.7 7.6 3c4.2 1.7 25 9.9 46.3 18.2l38.7 15.2 1.5-0.9c0.8-0.5 5.6-3.6 10.7-6.9 27.4-18 41.9-26.3 56.8-33 11.3-5 19.3-7.5 25-7.9 2.2-0.2 4.2-0.2 4.4-0.1 0.2 0.1-0.5 0.8-1.7 1.7zm-94.3 50.6c-3.6 0.2-6.2 4.2-5 7.8 1.3 4.1 6.2 5.5 9.5 2.7 2.3-2 2.7-3.8 1.5-6.7-1.2-2.8-3-4-6.1-3.8z" />
<path d="m1330.2 302.2c0.2-6.8 0.5-14.4 0.7-17l0.4-4.7 1.1 4.7c0.6 2.6 3.4 14.9 6.2 27.4l5.1 22.7c0.5 27.2 2.4 154.3 2.7 181.5 0 1.4-0.1 1.4-9.9 1.4h-9.8c1.3-38.7 2.5-177.4 3.6-216.1z"/>
<path d="m323.9 223.1c-0.9-0.5-17.8-9.5-37.3-19.9-19.7-10.4-35.6-18.7-36.1-18.5-0.2 0.2-1.7 1.2-3.1 2.4-9.5 7.6-24 17.6-34.4 23.7-12.8 7.6-22.5 11.9-28.2 11.9h-2.8l30.4-24.7 30.4-24.7-0.5-12.1c-1.7-33.9 0.9-59.8 6.9-67.9l0.9-1.2 0.5 6.4c0.2 3.6 1.7 21.4 3.3 39.4l2.8 33 1.2 0.7c0.7 0.5 4.5 2.6 8.8 5.2 22.3 13.3 33.5 20.6 43.4 28.9 7.6 6.2 12.1 11.2 14.5 14.9 0.9 1.4 1.7 2.8 1.7 3.1 0 0.2-0.7 0-1.9-0.7zm-69.1-49.4c-1.4-2.6-5.2-2.8-7.4-0.7-2.4 2.4-1.7 6.4 1.4 7.8 2.1 0.9 3.8 0.7 5.2-1.2 1.7-1.9 1.7-3.6 0.7-5.7z" style="fill: #fff"/>
<path d="m252.7 291.2-6.2-2.1 0.2-24.4c0.5-25.9 0.9-44.4 1.9-63.8l0.7-12.1 3.3 1.7L256 192l0.2 4.5c1.2 18 3.6 97.1 2.8 96.8 0 0-3.1-0.9-6.4-2.1z" style="fill: #fff"/>
<path d="m1.4 201.7c0 0 42 11.7 68.4 20.6 51.2 17.3 104.3 37.5 159 60.6 42.9 18.1 64.1 28 124.4 58.2l56.1 28 34.2-33.8c18.8-18.6 38.1-36.9 42.8-40.7 10.3-8.3 21.4-15.7 23.5-15.7 1.2 0 1.6 10.8 1.6 52.6l0 52.6-255.6 0-255.6 0z" style="fill:#808080;"/>
<path d="m721.4 241.7-4.8-2v-14.9c0-8.2 0.3-38.4 0.7-67.1 0.6-45.4 0.5-52.3-0.4-52.6-2.4-0.9-14.9 3.7-41.6 15.4-36.4 15.8-42.1 18-40.6 15.7 0.9-1.4 13.7-8.6 34.8-19.6 45.7-23.9 44.9-23.4 46.2-27.5 0.8-2.7 0.9-2.8 1.9-1.4 1.5 2.1 2.4 1.1 2.4-2.7 0-1.8 0.5-6.1 1.1-9.4 2-11.1 2.5-18 3.7-42.8 1.1-25.3 1.5-30 2.6-30 0.9 0 2.5 18.3 4.8 57.5 1.2 20.5 1.5 22.5 4.1 26 0.9 1.2 1.7 3.7 1.9 5.5 0.2 1.8 0.5 4 0.6 4.8 0.2 0.9 3.9 4.4 8.6 8.2 9 7.3 67.9 64.1 67.9 65.5 0 1.2-1.5 0-28.2-23.9-26.4-23.6-42.6-37.5-49-42.2-4.7-3.4-6.4-3.6-10.8-1.1l-2 1.1 0.3 22.5c0.2 12.4 0.7 40.8 1 63.2 0.8 48.8 0.9 53.9 0.2 53.8-0.3 0-2.7-1-5.3-2.1z" style="fill:#f55;"/>
<path d="m756.1 320.1c0.2-16.4 0.6-30.7 0.9-31 0.3-0.3 10.6 4.6 10.6 4.6 0.4 6.6 0.3 23.3 0.3 31.1v25.1h-6.1-6.1z"/>
<path d="m245.3 391.8c0.2-8.8 0.9-66 0.9-86.8 0-8.5 0-15.4 0.2-15.4 0.5 0 12.3 4.3 12.6 4.5 0.2 0.2 0.5 19.9 0.9 43.9 0.2 24 0.7 47.7 0.7 52.2l0.2 8.5h-8.1-8.1z"/>
</svg>