<svg xmlns="http://www.w3.org/2000/svg" viewBox="0 0 512 384">
<rect width="512" height="384" fill="none"/>
<path d="m1.6 312.3 0-71.7 18.2-14.1c10.8-8.3 22.1-19 27.7-26 5.2-6.5 11-12.7 12.8-13.6 5.3-2.8 17.6-2.1 29.2 1.9 5.9 2 11.9 3.2 13.2 2.7 1.4-0.5 5.8-6 9.9-12.2 4.1-6.2 7.9-11.3 8.5-11.3 0.6 0 4 4.4 7.6 9.8 6.8 10.3 35.7 41.1 41.3 44.1 2.6 1.4 4.1 0.9 7.3-2.3 4.5-4.6 23.6-39.4 28.7-52.3 4.2-10.7 10.8-20.3 26.9-38.9 7.1-8.2 20.4-24.7 29.6-36.5 21.4-27.7 27.7-34.6 31.3-34.6 1.6 0 16.9 12.3 34.1 27.2 17.2 15 34.9 30.2 39.3 33.8 5.2 4.2 11.4 12.2 17.4 22.5 11.6 19.6 14.5 22.4 28.7 27.2 21.3 7.1 61 28.3 97.2 52l6.4 4.2 0.1 80 0.1 80-257.7 0-257.7 0 0-71.7z"/>
</svg>