<svg xmlns="http://www.w3.org/2000/svg" viewBox="0 0 512 384">
<rect width="512" height="384" fill="transparent"/>
<path d="m-0.6 366.5c0-17.9 0-18.2 1.9-19.4 2.3-1.5 7.3-2.3 56-9.5 67.2-10 109.8-15.7 189-25.6 77.8-9.7 134.8-16.1 213-23.9 44.1-4.4 50.5-4.9 51.2-3.8 0.5 0.7 0.8 11.4 0.8 24.2 0 12.6 0.3 34.9 0.6 49.5l0.6 26.6-256.6 0-256.6 0 0-18.1z" style="fill:#808080;"/>
<path d="m154.4 317.2c-49.9-16-69.6-75.1-39.3-117.9 6.1-8.6 17.9-18.9 26.7-23.3 3.3-1.6 6.1-3.1 6.3-3.2 0.2-0.1-0.8-20.2-2.2-44.8-1.4-24.5-2.4-44.7-2.2-44.8 0.2-0.1 19.5-1.3 42.8-2.5 23.3-1.2 43.5-2.4 44.9-2.6 2.3-0.4 4 4 17.2 42.3 8.1 23.5 15 43.2 15.5 43.7 0.9 1.1 30.9 0.2 33.2-1.1 1.1-0.6 1-8.7-0.1-30.7-0.9-16.5-1.6-31.6-1.7-33.6-0.1-3.6 0.1-3.7 6.4-4 3.5-0.2 6.4-0.2 6.4-0.1-0.2 3.5 4 66.2 4.5 66.7 0.4 0.4 11.3 1.5 24.4 2.5l23.7 1.7-1.2 22-1.2 22 10.7-0.3c5.9-0.2 12.1-0.3 13.8-0.3l3.1 0 1.2 21.9c1.3 24.8 1.6 24.1-7.9 23.7-8.7-0.3-9.2 0.1-9.9 10-1.2 15.9-10.3 28.4-25.4 34.9-7.3 3.1-9.5 3.5-18.1 3-12.5-0.7-21.5-5.2-29.5-14.6-9.5-11.3-12.3-28.7-6.8-41.8 1.2-2.9 2.1-5.4 1.9-5.6-0.2-0.2-8.5 0.2-18.5 0.7l-18.2 1-1 8.9c-2.3 20.6-10.2 35.7-25.9 49.7-7.7 6.9-12.8 10.3-19.9 13.3-17 7.3-36.5 8.3-53.5 2.9zm29-21.7c8.2-1.1 18.6-5.1 24.5-9.5 19.2-14.2 26.3-40.3 16.8-62.4-4.7-11-12.6-19.6-23.8-25.7-7.1-3.9-8.7-4.3-20.6-4.9-12-0.7-13.4-0.5-21.9 3-33.7 13.6-43.7 55.6-19.6 82.4 11.8 13.2 27.8 19.3 44.5 17zm153.3-14.8c19.2-7.5 18.1-33.9-1.6-39.4-15.6-4.4-31.4 8.5-28.8 23.5 1.1 6.7 4.1 10.8 10.3 14.4 6.3 3.7 13.3 4.2 20.2 1.5zm-111.7-111.1c9.5-1.2 17.8-2.7 18.4-3.1 0.9-0.8-20.3-67.7-22.2-70.1-0.6-0.7-57.8 1.6-58.6 2.4-0.1 0.1 0.7 15.7 1.8 34.6 1.7 28.4 2.3 34.4 3.8 34.1 3.6-0.6 25.1 1.2 29.2 2.5 6.6 2.1 9.1 2.1 27.5-0.4z"/>
</svg>