<svg xmlns="http://www.w3.org/2000/svg" viewBox="0 0 1024 768"> 


<style>
.line { stroke-linecap: round; stroke-width: 11px; stroke: blue; } 
.box { stroke-width:0; stroke:green; height: 100%; width: 100%; fill: none; } 
.circle { stroke: blue; stroke-width: 11px; } 
.button { width: 9%; height: 12%; } 
.btnCoff { fill: white; } 
.btnCon { fill: blue; } 
.btnToff { fill: black; } 
.btnTon { fill: white; } 
</style> 

<rect width="1024" height="768" fill="#fff"/>

<path d="m 336.99673,265.39417 c -13.63493,-4.28363 -21.58302,-25.01799 -14.69559,-38.33678 4.01934,-7.77258 15.1936,-14.95641 23.26428,-14.95641 5.36662,0 6.28395,-0.97548 8.41697,-8.9506 2.83949,-10.61651 11.76197,-20.8254 21.90545,-25.06362 17.05082,-7.12427 36.50192,-0.29459 46.80913,16.43568 3.28016,5.32422 4.80073,6.03035 11.88447,5.51887 14.65786,-1.05831 29.207,9.89282 33.35151,25.1037 3.96798,14.56315 -1.69303,28.33199 -15.26747,37.13383 0,0 -8.37102,5.42785 -8.37102,5.42785 0,0 -50.55966,-0.18574 -50.55966,-0.18574 -27.80782,-0.10211 -53.33994,-1.05921 -56.73807,-2.12678 0,0 0,0 0,0"
style="fill:#808080;" />

<path style="fill:#808080;" d="m 625.30277,324.01467 c -6.78062,-6.78064 -6.98821,-19.22525 -0.42125,-25.25439 4.69691,-4.31225 28.70089,-17.05838 32.12496,-17.05838 1.77505,0 1.48124,8.66699 -0.96877,28.57629 -2.15329,17.49801 -19.30688,25.16453 -30.73494,13.73648 0,0 0,0 0,0 m -39.19992,-61.01392 c -24.67643,-11.98223 -17.50471,-48.21134 10.44137,-52.74636 3.97524,-0.64511 7.22772,-2.29941 7.22772,-3.67624 0,-8.62114 14.02914,-26.23853 23.87543,-29.98209 5.77239,-2.19465 19.9655,-2.31928 26.96276,-0.23676 6.86717,2.04381 21.2433,16.20644 21.2433,20.92784 0,1.11975 4.26206,2.03592 9.47124,2.03592 18.7796,0 33.31238,12.96755 35.15561,31.36924 0.70207,7.00902 -0.34311,10.88165 -5.15743,19.10953 -9.45043,16.15121 -15.2732,17.52989 -73.45069,17.39131 -42.87733,-0.10215 -48.16431,-0.4996 -55.76931,-4.19239 0,0 0,0 0,0" />

<path style="fill:#808080;" d="m 625.30277,324.01467 c -5.41496,-5.41496 -6.6725,-14.84769 -2.91537,-21.86796 1.6743,-3.12845 20.73329,-14.54739 33.69357,-20.18708 2.08555,-0.90754 0.43358,31.59897 -1.90084,37.40378 -1.87021,4.65051 -11.49485,9.70632 -18.47772,9.70632 -2.93952,0 -7.61935,-2.27478 -10.39964,-5.05506 0,0 0,0 0,0" />

<path style="fill:#808080;" d="m 626.26771,323.04973 c -11.63753,-11.63751 -7.12387,-21.69587 14.87094,-33.13883 0,0 16.17954,-8.41752 16.17954,-8.41752 0,0 -0.12275,8.85701 -0.12275,8.85701 -0.24699,17.81802 -3.20305,28.98214 -8.9926,33.96211 -7.49058,6.44311 -14.64086,6.0315 -21.93511,-1.26277 0,0 -2e-5,0 -2e-5,0" />

<path style="fill:#808080;" d="m 631.22209,326.06751 c -8.19394,-3.56431 -11.65277,-9.81543 -9.88482,-17.86484 1.00219,-4.56299  4.28836,-8.08001 12.395,-13.26576 6.06717,-3.88113 11.48041,-7.0566 12.02942,-7.0566 0.54899,0 1.37195,3.01197 1.82879,6.69328 0,0 0.83064,6.69328 0.83064,6.69328 0,0 0.32959,-7.50267 0.32959,-7.50267 0.29926,-6.81208 5.05425,-12.14308 8.10761,-9.08973 1.9994,1.9994 -3.25674,33.98977 -6.04234,36.77538 -2.67437,2.67436 -10.97685,7.71723 -12.4125,7.53926 -0.35766,-0.0443 -3.58928,-1.35905 -7.18139,-2.9216 0,0 0,0 0,0 m 18.41694,-9.61204 c 1.16072,-0.76993 1.02455,-1.85326 -0.33886,-2.69588 -1.25364,-0.77479 -2.34447,-3.43924 -2.42409,-5.92098 -0.13955,-4.35036 -0.20826,-4.36448 -1.91472,-0.39333 -2.52402,5.8737 -2.41839,7.67306 0.34998,5.96211 1.69254,-1.04605 1.94015,-0.31624 0.83217,2.45279 -3.13604,7.83749 -3.50251,10.03953 -0.99879,6.0014 1.40461,-2.26542 3.42704,-4.69816 4.49431,-5.40611 0,0 0,0 0,0 M 627.7991,305.47641 c 0,-1.64924 -0.78741,-2.51196 -1.74981,-1.91717 -0.9624,0.5948 -1.21664,1.94418 -0.56495,2.99861 1.66533,2.69458 2.31476,2.39116 2.31476,-1.08144 0,0 0,0 0,0 m 22.52547,-2.62203 c -0.68435,-0.68434 -1.1711,0.53203 -1.08168,2.70306 0.0989,2.39915 0.58683,2.88716 1.24426,1.24425 0.59493,-1.48667 0.52176,-3.26296 -0.16261,-3.94731 0,0 3e-5,0 3e-5,0" />

<path d="m 860.91192,316.68415 c -1.44504,-5.75756 -4.4785,-6.75244 -6.27936,-2.05947 -1.47328,3.83935 -5.67141,3.98979 -8.7232,0.31261 -1.75813,-2.11842 -1.32971,-3.65864 1.8073,-6.49761 5.43781,-4.92113 5.18639,-6.8949 -1.18685,-9.31801 -8.0062,-3.04394 -5.83336,-9.37349 2.9745,-8.66482 6.55029,0.52703 6.73687,0.33204 5.42003,-5.66354 -1.24179,-5.65382 -0.88852,-6.20937 3.9485,-6.20937 4.29349,0 5.31232,0.98744 5.31232,5.14868 0,5.82382 2.39243,6.62131 6.17841,2.05947 1.41009,-1.69907 3.86956,-3.08921 5.46549,-3.08921 5.06867,0 5.55805,6.1697 0.88402,11.14497 0,0 -4.46895,4.75698 -4.46895,4.75698 0,0 6.26786,2.59623 6.26786,2.59623 6.68041,2.76713 7.18165,3.64548 4.49638,7.87951 -1.11049,1.75098 -3.62223,2.21343 -7.17661,1.32134 -5.03951,-1.26485 -5.46819,-0.87058 -5.46819,5.02924 0,5.00817 -0.88806,6.40168 -4.0797,6.40168 -2.63411,0 -4.5376,-1.82438 -5.37195,-5.14868 0,0 0,0 0,0 m -51.90345,-53.98119 c -6.76266,-1.29498 -18.13249,-13.42651 -19.63788,-20.95351 -3.14741,-15.73706 4.45706,-27.53039 21.27711,-32.99734 8.90528,-2.89446 11.46805,-4.69615 12.0207,-8.45088 3.00475,-20.4144 30.33981,-34.39559 50.65353,-25.90797 7.57255,3.16401 19.69582,14.72392 19.69582,18.78055 0,1.62288 4.37746,2.85288 12.15547,3.41548 27.5379,1.99192 42.09603,28.7797 27.87959,51.3 -9.45424,14.9765 -15.00288,16.22448 -70.92712,15.95266 -26.61867,-0.12933 -50.52141,-0.64193 -53.11722,-1.13899 0,0 0,0 0,0" />

<path d="m 861.05858,315.48425 c 0,0 -1.39439,-6.34855 -1.39439,-6.34855 0,0 -4.43279,4.02695 -4.43279,4.02695 -4.49642,4.08476 -9.58148,4.0203 -9.58148,-0.12142 0,-1.2485 2.00933,-4.40884 4.4652,-7.02296 0,0 4.46518,-4.75298 4.46518,-4.75298 0,0 -6.52466,-2.27452 -6.52466,-2.27452 -6.89206,-2.40257 -7.48502,-3.34767 -4.77765,-7.61491 1.26896,-2.0001 3.06994,-2.12721 7.30823,-0.51581 5.46899,2.07931 5.60644,1.95355 4.97781,-4.554 -0.53467,-5.53485 0.0659,-6.69234 3.47245,-6.69234 2.70352,0 4.34509,1.59235 4.77705,4.63381 0.76663,5.39802 3.77837,5.91672 8.66693,1.49265 3.04839,-2.75877 3.77674,-2.77271 5.98289,-0.1145 2.03262,2.44915 1.69597,3.7254 -1.76417,6.68807 -5.56634,4.76604 -5.39267,6.54233 0.87254,8.92436 3.27958,1.24689 5.14867,3.5585 5.14867,6.36764 0,4.44907 -1.73809,4.59384 -10.71228,0.89218 -3.02954,-1.24962 -3.34169,-0.44452 -2.30486,5.94475 1.04971,6.4686 0.67243,7.39014 -3.02552,7.39014 -3.04482,0 -4.61421,-1.77312 -5.61915,-6.34857 0,0 0,10e-6 0,10e-6" />

<path d="m 863.35677,320.31795 c -0.6771,-0.67709 -1.23108,-4.96081 -1.23108,-9.51934 0,-7.86097 -0.16715,-8.08217 -3.24194,-4.29057 -1.78306,2.19874 -2.56663,2.69605 -1.74126,1.10516 0.96248,-1.85519 0.68022,-2.38549 -0.78706,-1.47865 -1.25826,0.77764 -1.81156,2.65476 -1.22959,4.17139 1.1706,3.05053 -4.55886,6.08483 -7.75719,4.10816 -1.17928,-0.72884 -0.33837,-3.10265 2.00863,-5.67023 2.22041,-2.42911 4.66772,-6.73345 5.43847,-9.56522 1.01657,-3.73499 0.83931,-4.33262 -0.64555,-2.17657 -2.88982,4.19605 -13.11262,-0.37182 -11.31515,-5.05598 1.43595,-3.74201 6.18237,-2.7996 5.28498,1.04936 -0.37484,1.60774 0.65185,2.08954 2.74279,1.28717 1.83802,-0.70531 4.13038,-1.2824 5.09411,-1.2824 0.96373,0 2.34053,-1.85352 3.05955,-4.11894 0.71902,-2.26541 2.1716,-4.11894 3.228,-4.11894 1.05637,0 1.92068,1.85353 1.92068,4.11894 0,5.39461 2.874,5.23729 6.59096,-0.36078 2.16989,-3.26802 4.04828,-4.05752 6.94449,-2.91883 3.63493,1.42912 3.38872,2.05087 -2.91679,7.36562 0,0 -6.88684,5.80476 -6.88684,5.80476 0,0 7.40171,2.67649 7.40171,2.67649 7.79897,2.82014 8.28706,3.44632 5.77121,7.40388 -1.03375,1.62611 -2.60075,1.81215 -4.60227,0.5464 -6.01155,-3.80167 -8.76756,-2.32817 -7.49997,4.00982 1.13968,5.69846 -2.44419,10.09599 -5.63089,6.9093 0,0 0,0 0,0 m -7.1706,-34.82038 c -0.13131,-2.42741 1.15125,-4.94692 2.85031,-5.59891 1.69906,-0.652 3.08921,-0.28777 3.08921,0.80938 0,1.09716 -0.8588,1.99484 -1.90847,1.99484 -1.04964,0 -2.33228,1.62183 -2.8503,3.60407 -0.74292,2.84285 -0.9923,2.6719 -1.18075,-0.80938 0,0 0,0 0,0" />

<path d="m 143.6348,684.26774 c -0.0301,-1.76964 1.30052,-7.68511 2.95693,-13.1453 1.6564,-5.46019 3.02149,-10.61008 3.03353,-11.44426 0.0113,-0.83434 -4.52841,-1.51677 -10.08988,-1.51677 -12.08784,0 -12.20816,-0.5292 -4.4353,-19.50843 10.98526,-26.82308 10.22318,-25.91906 22.43653,-26.61588 5.98909,-0.34171 11.74077,0.23021 12.78149,1.27093 1.17472,1.17473 -0.0849,5.79413 -3.32231,12.1826 -2.86799,5.65969 -5.21452,11.23076 -5.21452,12.37994 0,1.15921 4.50194,2.08966 10.11177,2.08966 10.84048,0 12.15537,1.27683 6.57265,6.38239 -1.94652,1.78015 -7.63439,8.48143 -12.63971,14.89164 -14.98419,19.18971 -22.1304,26.60722 -22.19118,23.03348 0,0 0,0 0,0 M 93.945872,593.72302 c -8.57336,-5.22819 -13.05876,-12.89466 -13.05876,-22.32009 0,-16.27663 8.93651,-27.48515 23.676138,-29.69549 7.25112,-1.08738 8.68152,-2.04707 8.68152,-5.8247 0,-5.9835 10.60224,-20.40447 18.76793,-25.52782 9.90888,-6.21705 30.62513,-4.75955 40.61123,2.85722 4.04953,3.08873 8.75028,8.29901 10.44611,11.57839 2.76779,5.3523 4.08228,5.96252 12.84412,5.96252 11.41504,0 20.84909,5.43141 28.18535,16.22696 3.99473,5.87839 4.64379,8.93962 3.96182,18.68583 -0.9052,12.93651 -4.94506,19.95442 -15.70065,27.27459 -6.51253,4.43239 -8.05364,4.55011 -59.47348,4.54274 -47.85085,-0.006 -53.363238,-0.35852 -58.941328,-3.76015 0,0 0,0 0,0" />

<path d="m 143.6348,683.25171 c -0.0301,-1.21616 1.69011,-7.28274 3.82267,-13.48101 2.13256,-6.19844 3.34598,-11.80133 2.69648,-12.45075 -0.64952,-0.64958 -5.64087,-1.18089 -11.09192,-1.18089 -11.4412,0 -11.41552,0.43942 -1.27227,-21.79101 3.18467,-6.97969 5.79032,-13.51262 5.79032,-14.51762 0,-6.51763 12.10768,-10.03177 23.78381,-6.90302 0,0 4.57144,1.22494 4.57144,1.22494 0,0 -6.08821,11.24069 -6.08821,11.24069 -3.34851,6.18238 -6.0882,11.98909 -6.0882,12.90384 0,0.91475 4.55029,1.66335 10.11177,1.66335 5.56147,0 10.11065,0.68242 10.10929,1.51676 -0.001,0.83419 -2.21624,4.09082 -4.92199,7.23696 -2.70573,3.14613 -7.93746,9.49099 -11.62606,14.09969 -11.08944,13.85571 -19.73905,22.78546 -19.79713,20.43807 0,0 0,0 0,0 m -47.975738,-89.7167 c -13.37323,-8.15417 -17.54573,-21.39509 -11.00183,-34.91295 4.74307,-9.79789 13.07675,-15.73489 22.086838,-15.73489 5.44241,0 6.23929,-0.8687 8.29854,-9.0468 3.91009,-15.52837 19.40331,-27.35557 35.83484,-27.35557 10.82941,0 24.68215,7.64223 29.72013,16.3959 3.95556,6.87292 5.05716,7.45817 15.88704,8.44019 12.2847,1.11393 23.94492,7.36383 23.94492,12.83452 0,1.65835 0.79642,2.52296 1.7698,1.92137 0.9734,-0.60159 2.9064,2.96569 4.29556,7.9273 3.3036,11.79931 -0.0349,26.06329 -7.70614,32.92546 -11.11136,9.93944 -15.0949,10.56171 -67.55989,10.55363 -45.10744,-0.006 -49.63342,-0.32851 -55.569808,-3.94816 0,0 0,0 0,0" />

<path d="m 148.16563,670.57317 c 2.25292,-6.87148 3.71209,-12.87771 3.2426,-13.34722 -0.4695,-0.4695 -5.18456,-1.07783 -10.47792,-1.35174 -5.73295,-0.29688 -9.31722,-1.36614 -8.86485,-2.64475 0.41771,-1.18041 2.4322,-6.87714 4.47665,-12.65929 2.04447,-5.7822 4.605,-9.96438 5.69007,-9.29377 1.08631,0.67139 1.33063,0.18015 0.54369,-1.09314 -0.78604,-1.27183 0.0704,-5.47234 1.90302,-9.33445 3.21164,-6.76806 3.72749,-7.01731 14.26198,-6.89149 6.0114,0.0718 10.92982,0.52172 10.92982,0.9998 0,0.47809 -2.33717,5.48142 -5.1937,11.11852 -2.85653,5.63709 -4.72623,11.46747 -4.15487,12.95641 0.57475,1.49784 4.78609,2.98742 9.4271,3.33446 0,0 8.38825,0.62725 8.38825,0.62725 0,0 -4.46268,5.05588 -4.46268,5.05588 -2.45448,2.78066 -6.86218,8.19814 -9.79486,12.03867 -2.93271,3.84053 -8.63482,10.58177 -12.67136,14.98047 0,0 -7.33917,7.99784 -7.33917,7.99784 0,0 4.09623,-12.49345 4.09623,-12.49345 0,0 0,0 0,0" />

<path d="m 380.46546,642.41313 c -4.29771,-2.29655 -10.15821,-7.50381 -13.02334,-11.57181 -4.62692,-6.56918 -5.20934,-8.801 -5.20934,-19.9626 0,-10.95711 0.64437,-13.5401 5.03151,-20.16957 4.97289,-7.51451 5.02834,-7.87716 4.76051,-31.12918 -0.3171,-27.52874 1.16296,-35.2825 8.04928,-42.16881 5.3434,-5.34342 15.57712,-7.89487 23.59468,-5.88258 7.10508,1.78325 14.79424,9.50405 16.76908,16.83806 1.07337,3.9862 2.89043,6.81902 4.37391,6.81902 1.39575,0 2.53774,1.5628 2.53774,3.47289 0,1.91009 -1.08096,3.47289 -2.40215,3.47289 -3.99431,0 -4.68476,6.82822 -0.92769,9.17455 3.85985,2.41053 4.44098,6.45346 0.9276,6.45346 -1.32123,0 -2.79415,2.05016 -3.27316,4.55591 -0.65807,3.44248 -0.071,4.7651 2.40224,5.41186 4.34032,1.13502 4.19836,6.74969 -0.19974,7.89983 -4.86402,1.27196 -4.33679,5.11547 1.91915,13.99077 7.56356,10.73054 8.71822,26.30285 2.78796,37.59947 -6.06173,11.54708 -16.09605,17.91803 -29.48718,18.72208 -8.90038,0.53426 -12.20162,-0.0903 -18.63106,-3.52624 0,0 0,0 0,0 m 28.53427,-13.36618 c 11.05855,-7.28988 13.17636,-22.02272 4.57406,-31.82016 0,0 -5.09345,-5.80112 -5.09345,-5.80112 0,0 -0.55,-30.65339 -0.55,-30.65339 -0.50718,-28.26813 -0.82021,-30.85724 -4.02287,-33.27408 -4.83054,-3.64529 -9.95962,-3.35766 -14.43236,0.80932 -3.62291,3.37526 -3.80032,4.92495 -3.80032,33.19735 0,0 0,29.65686 0,29.65686 0,0 -5.20933,5.93309 -5.20933,5.93309 -8.65857,9.86148 -6.18879,26.65277 4.79705,32.61364 6.71789,3.64501 17.66708,3.33995 23.73722,-0.66151 0,0 0,0 0,0 m -23.4585,-6.9055 c -7.47435,-7.47422 -6.50523,-19.70366 2.04232,-25.77219 1.79011,-1.27094 3.32053,-4.92997 3.63144,-8.68222 0.49126,-5.92915 0.9843,-6.48557 5.7467,-6.48557 4.68785,0 5.26612,0.60841 5.77661,6.07757 0.36499,3.91034 2.37738,7.85387 5.64345,11.0588 10.70345,10.50341 3.43683,28.87945 -11.42006,28.87945 -4.69731,0 -7.66263,-1.31789 -11.42046,-5.07584 0,0 0,0 0,0 m 34.86247,-50.49043 c 0,-1.92939 -1.15762,-3.47289 -2.60466,-3.47289 -1.44705,0 -2.60467,1.5435 -2.60467,3.47289 0,1.92938 1.15762,3.47289 2.60467,3.47289 1.44704,0 2.60466,-1.54351 2.60466,-3.47289 0,0 0,0 0,0 m 0,-16.49623 c 0,-1.43257 -1.1721,-2.60467 -2.60466,-2.60467 -1.43257,0 -2.60467,1.1721 -2.60467,2.60467 0,1.43256 1.1721,2.60466 2.60467,2.60466 1.43256,0 2.60466,-1.1721 2.60466,-2.60466 0,0 0,0 0,0 m 0,-17.36446 c 0,-1.43257 -1.1721,-2.60467 -2.60466,-2.60467 -1.43257,0 -2.60467,1.1721 -2.60467,2.60467 0,1.43257 1.1721,2.60467 2.60467,2.60467 1.43256,0 2.60466,-1.1721 2.60466,-2.60467 0,0 0,0 0,0" />

<path d="m 381.68261,642.68332 c -8.46623,-4.4678 -12.37871,-8.44746 -16.77312,-17.0612 -5.91254,-11.58959 -4.05403,-26.7853 4.54656,-37.17396 3.89001,-4.69883 4.0639,-6.10835 4.07011,-32.9925 0.006,-25.10504 0.37823,-28.6937 3.51091,-33.83194 8.48883,-13.92335 31.3604,-13.92335 39.84923,0 4.5206,7.41465 4.53513,12.89076 0.0374,14.06694 -3.92072,1.0253 -3.02848,6.44078 1.06118,6.44078 3.29437,0 3.13275,8.51728 -0.18579,9.79074 -1.43256,0.54973 -2.60467,2.088 -2.60467,3.41839 0,1.33038 1.17211,2.41888 2.60467,2.41888 4.19394,0 3.41474,9.80179 -0.86822,10.92182 -1.91009,0.49949 -3.47289,1.83588 -3.47289,2.96975 0,1.13387 1.5628,2.47025 3.47289,2.96975 2.29944,0.60132 3.47289,2.36854 3.47289,5.23022 0,2.37712 1.92347,6.60789 4.27438,9.4019 11.05634,13.13962 9.97191,32.00575 -2.62527,45.67199 -10.57662,11.4743 -27.25515,14.67964 -40.3702,7.75844 0,0 -3e-5,0 -3e-5,0 m 21.75767,-10.33893 c 15.01909,-4.17108 20.73062,-24.9148 10.01764,-36.38312 0,0 -5.20933,-5.57663 -5.20933,-5.57663 0,0 0,-28.94956 0,-28.94956 0,-33.14045 -1.08585,-36.66809 -11.2869,-36.66809 -10.24981,0 -11.2869,3.44877 -11.2869,37.53417 0,25.3367 -0.40457,29.97093 -2.69324,30.84915 -4.18837,1.60725 -9.24207,14.95469 -8.19377,21.64083 1.04238,6.64851 10.41791,16.98036 16.45809,18.13697 2.18865,0.41911 4.37007,0.86405 4.8476,0.9888 0.47752,0.12503 3.78359,-0.58289 7.34681,-1.57252 0,0 0,0 0,0 m -13.67268,-6.84896 c -10.24526,-4.13441 -12.40345,-18.01778 -4.09281,-26.32841 2.86514,-2.86513 5.20934,-7.03885 5.20934,-9.27484 0,-6.63086 1.86171,-9.55893 6.07756,-9.55893 4.21585,0 6.07756,2.92807 6.07756,9.55893 0,2.23599 2.3442,6.40971 5.20934,9.27484 8.36004,8.36009 6.76576,20.15097 -3.43814,25.42768 -5.63057,2.91167 -9.48756,3.14255 -15.04285,0.90073 0,0 0,0 0,0 m 30.6361,-53.84441 c 0,-2.31527 1.15763,-3.47289 3.47289,-3.47289 2.31527,0 3.4729,1.15762 3.4729,3.47289 0,2.31526 -1.15763,3.47289 -3.4729,3.47289 -2.31526,0 -3.47289,-1.15763 -3.47289,-3.47289 0,0 0,0 0,0 m 1.15763,-15.04919 c -2.20144,-2.20145 -1.14415,-4.05171 2.31526,-4.05171 1.92939,0 3.4729,1.15762 3.4729,2.60467 0,2.64357 -3.6733,3.5619 -5.78816,1.44704 0,0 0,0 0,0 m -0.72432,-18.37739 c 1.09399,-3.28569 6.51248,-3.7528 6.51248,-0.56143 0,1.61079 -1.48465,2.73199 -3.6176,2.73199 -2.12188,0 -3.31878,-0.89742 -2.89488,-2.17056 0,0 0,0 0,0" />

<path d="m 386.77859,644.18278 c -3.80773,-1.00797 -9.91984,-4.87358 -14.13051,-8.93686 -5.89144,-5.68513 -7.86342,-9.16496 -9.57099,-16.88923 -2.45009,-11.0831 -0.96431,-17.8958 6.20795,-28.46465 4.0535,-5.97323 4.23464,-7.43236 4.23464,-34.11234 0,-31.97302 1.17614,-35.69625 13.09953,-41.46827 8.91668,-4.31648 11.80065,-4.30082 20.91971,0.11364 10.68884,5.17438 17.12898,20.76059 8.57817,20.76059 -1.50154,0 -2.65917,1.51188 -2.65917,3.47289 0,2.31527 1.15763,3.47289 3.47289,3.47289 2.50147,0 3.47289,1.15763 3.47289,4.13859 0,2.67824 -1.22545,4.45906 -3.47289,5.04678 -5.98644,1.56548 -4.00846,7.62391 2.17056,6.64828 0.71629,-0.11308 1.30233,2.13857 1.30233,5.0037 0,4.05171 -0.77174,5.20934 -3.47289,5.20934 -2.31526,0 -3.47289,1.15762 -3.47289,3.47289 0,2.31526 1.15763,3.47289 3.47289,3.47289 2.56604,0 3.47289,1.15762 3.47289,4.43324 0,2.43828 1.97048,7.32209 4.37886,10.85277 2.40837,3.53082 5.19868,9.44376 6.20068,13.13989 4.12064,15.20029 -6.37063,33.9796 -22.33568,39.98104 -8.29563,3.11837 -12.12169,3.23242 -21.86897,0.65193 0,0 0,0 0,0 m 19.6195,-12.78135 c 5.27336,-2.10999 7.78318,-4.58186 10.63635,-10.47577 4.65715,-9.62033 3.53785,-17.46447 -3.66216,-25.66494 0,0 -5.12369,-5.83543 -5.12369,-5.83543 0,0 0,-29.45538 0,-29.45538 0,-27.08465 -0.27489,-29.7041 -3.41536,-32.54619 -4.44173,-4.0197 -11.72427,-3.9432 -15.70558,0.16499 -2.74421,2.83167 -3.23484,7.11917 -3.76594,32.91005 -0.60265,29.26534 -0.67201,29.7271 -5.28902,35.21413 -9.48477,11.27203 -7.14728,26.14656 5.42478,34.52026 6.97697,4.647 11.56527,4.90358 20.90062,1.16828 0,0 0,0 0,0 m -15.1879,-6.01463 c -6.38852,-2.56244 -9.28406,-6.44402 -10.26552,-13.76126 -0.79297,-5.91212 -0.20972,-7.51867 4.40462,-12.13304 3.16494,-3.16491 5.53816,-7.52256 5.86083,-10.76151 1.14485,-11.49181 11.82913,-10.25866 11.82913,1.36526 0,3.22576 0.79289,5.86502 1.76196,5.86502 2.62791,0 8.64278,10.68567 8.65022,15.36754 0.008,4.92748 -10.46547,15.93418 -15.01376,15.77846 -1.76683,-0.0611 -5.01919,-0.83475 -7.22748,-1.72047 0,0 0,0 0,0 m 30.92996,-53.73578 c 0,-0.95505 1.1721,-1.73645 2.60467,-1.73645 1.43256,0 2.60467,0.7814 2.60467,1.73645 0,0.95504 -1.17211,1.73644 -2.60467,1.73644 -1.43257,0 -2.60467,-0.7814 -2.60467,-1.73644 0,0 0,0 0,0 m 0,-16.49623 c 0,-1.43257 1.1721,-2.60467 2.60467,-2.60467 1.43256,0 2.60467,1.1721 2.60467,2.60467 0,1.43256 -1.17211,2.60466 -2.60467,2.60466 -1.43257,0 -2.60467,-1.1721 -2.60467,-2.60466 0,0 0,0 0,0 m 0,-17.50917 c 0,-3.06642 3.73815,-2.5324 4.8114,0.68734 0.37804,1.13412 -0.54987,2.06204 -2.06202,2.06204 -1.51216,0 -2.74938,-1.23723 -2.74938,-2.74938 0,0 0,0 0,0" />

<path d="m 393.05469,643.38471 c 1.67133,-0.43675 4.40623,-0.43675 6.07756,0 1.67133,0.43675 0.30387,0.79418 -3.03878,0.79418 -3.34266,0 -4.7101,-0.35743 -3.03878,-0.79418 0,0 0,0 0,0 m 11.721,-0.50788 c 0,-0.84558 -1.75814,-1.87633 -3.907,-2.29086 -2.14884,-0.41438 -0.7814,-0.45522 3.03878,-0.0903 5.35334,0.51093 6.34861,0.22685 4.34112,-1.23871 -2.02738,-1.48001 -1.51406,-1.66255 2.31605,-0.82322 3.26709,0.71584 4.53668,0.4569 3.77792,-0.77084 -0.62852,-1.017 -0.10793,-1.63434 1.15685,-1.37193 1.41301,0.29325 2.11559,-0.86183 1.82228,-2.99572 -0.46027,-3.3487 -0.40576,-3.3555 1.52363,-0.19281 1.63857,2.68593 1.41052,3.62792 -1.2591,5.20128 -6.47782,3.81782 -12.81053,6.07867 -12.81053,4.57352 0,0 0,-4.2e-4 0,-4.2e-4 m -24.31023,-1.76798 c -3.17417,-2.05137 -0.43253,-2.05137 4.34111,0 2.28993,0.98394 2.58567,1.52488 0.86822,1.58781 -1.43256,0.0528 -3.77677,-0.66207 -5.20933,-1.58781 0,0 0,0 0,0 M 372.87423,636.26 c -0.46773,-0.75681 0.67515,-1.49098 2.53971,-1.63142 1.86457,-0.14045 2.93643,0.4787 2.38191,1.37596 -1.23039,1.9908 -3.7677,2.12249 -4.92162,0.25546 0,0 0,0 0,0 m 8.06151,0.32687 c 0.57702,-0.57706 2.07469,-0.63873 3.3282,-0.13753 1.38521,0.55428 0.97376,0.96574 -1.04911,1.04909 -1.8305,0.075 -2.85609,-0.33506 -2.27909,-0.91198 0,0 0,4.2e-4 0,4.2e-4 m 14.72362,-1.83744 c 1.19381,-0.48162 3.14731,-0.48162 4.34111,0 1.19381,0.48176 0.21705,0.87587 -2.17056,0.87587 -2.38761,0 -3.36435,-0.39411 -2.17055,-0.87587 0,0 0,0 0,0 m -17.95428,-3.09018 c -1.55676,-1.13827 -3.12759,-4.7523 -3.49074,-8.03099 -0.44095,-3.98132 -0.14256,-5.14863 0.89832,-3.51428 0.85724,1.34595 1.11569,3.69015 0.57436,5.20933 -0.54132,1.51918 -0.34558,2.18292 0.435,1.47487 1.95599,-1.77409 6.30989,2.11499 4.90768,4.38376 -0.68239,1.10424 -0.0935,1.43555 1.47893,0.83224 1.43708,-0.55149 3.60219,-0.39132 4.81136,0.35604 1.40841,0.87045 0.58439,1.35874 -2.29299,1.35874 -2.47029,0 -5.76516,-0.93143 -7.32192,-2.06971 0,0 0,0 0,0 m 1.89215,-2.70552 c -0.59025,-0.95504 -1.41775,-1.73644 -1.83892,-1.73644 -0.42116,0 -0.76574,0.7814 -0.76574,1.73644 0,0.95505 0.82752,1.73645 1.83892,1.73645 1.0114,0 1.356,-0.7814 0.76574,-1.73645 0,0 0,0 0,0 m -9.55045,1.73645 c 0,-0.95505 0.7814,-1.73645 1.73645,-1.73645 0.95504,0 1.73645,0.7814 1.73645,1.73645 0,0.95504 -0.78141,1.73644 -1.73645,1.73644 -0.95505,0 -1.73645,-0.7814 -1.73645,-1.73644 0,0 0,0 0,0 m 54.63811,-3.03878 c 1.51458,-3.10393 3.12442,-5.64345 3.57741,-5.64345 1.72685,0 0.6148,2.76609 -2.79238,6.94578 0,0 -3.53881,4.34112 -3.53881,4.34112 0,0 2.75378,-5.64345 2.75378,-5.64345 0,0 0,0 0,0 m -11.05264,0.0792 c 1.26438,-2.1054 2.67264,-3.45414 3.12947,-2.99738 0.45683,0.45689 -0.57766,2.17945 -2.29888,3.8281 -2.99005,2.86388 -3.02706,2.82679 -0.83059,-0.83072 0,0 0,0 0,0 m 6.01488,-1.022 c 0.65208,-1.71255 1.62303,-2.67621 2.15766,-2.14166 0.53463,0.53468 10e-4,1.93579 -1.18561,3.11365 -1.71495,1.70227 -1.9144,1.50279 -0.97205,-0.97199 0,0 0,0 0,0 m -49.46326,-1.95093 c -0.0754,-1.83063 0.33501,-2.85611 0.91202,-2.27919 0.577,0.57705 0.63869,2.0747 0.13711,3.32828 -0.55433,1.38513 -0.96578,0.97366 -1.04911,-1.04909 0,0 -2e-5,0 -2e-5,0 m 23.30493,1.0891 c -4.82931,-0.99047 -10.79104,-6.8359 -12.03761,-11.80255 -1.39842,-5.57177 3.03628,-15.7354 7.48137,-17.14622 2.77378,-0.88031 3.52391,-2.4884 3.34767,-7.17666 -0.25659,-6.82521 2.26772,-10.35243 6.30119,-8.80464 1.69456,0.65026 2.72138,3.163 2.72138,6.6595 0,3.95299 1.62791,7.29488 5.49874,11.28856 6.22809,6.42583 7.15812,13.39133 2.69705,20.19987 -3.08269,4.70479 -10.60375,7.89082 -16.00979,6.78214 0,0 0,0 0,0 m 30.72632,-8.17963 c -0.0354,-2.86514 0.32482,-4.24749 0.80047,-3.07185 0.47566,1.17565 0.50461,3.51985 0.0643,5.20934 -0.44025,1.68949 -0.82942,0.72764 -0.86481,-2.13749 0,0 2e-5,0 2e-5,0 m 5.20933,-1.73645 c -0.0354,-2.86514 0.32483,-4.24748 0.80048,-3.07184 0.47566,1.17564 0.50461,3.51984 0.0643,5.20933 -0.44026,1.6895 -0.82943,0.72764 -0.86481,-2.13749 0,0 1e-5,0 1e-5,0 m -65.98492,-5.20934 c -0.0354,-2.86513 0.32482,-4.24748 0.80047,-3.07184 0.47566,1.17564 0.50461,3.51985 0.0643,5.20934 -0.44025,1.68949 -0.82943,0.72764 -0.86481,-2.1375 0,0 2e-5,0 2e-5,0 m 57.3027,0 c -0.0354,-2.86513 0.32482,-4.24748 0.80047,-3.07184 0.47566,1.17564 0.50461,3.51985 0.0643,5.20934 -0.44025,1.68949 -0.82942,0.72764 -0.86481,-2.1375 0,0 2e-5,0 2e-5,0 m -48.68482,-0.86822 c 0,-2.38768 0.39413,-3.3644 0.87583,-2.17056 0.48172,1.19384 0.48172,3.14728 0,4.34112 -0.4817,1.19384 -0.87583,0.21698 -0.87583,-2.17056 0,0 0,0 0,0 m 52.23333,-6.71838 c 0,0 -0.3091,-4.56852 -0.3091,-4.56852 0,0 2.49062,4.34112 2.49062,4.34112 1.36983,2.38754 2.51829,3.41524 2.55215,2.28363 0.12252,-4.09495 -3.64942,-11.67391 -6.96592,-13.99686 -1.86517,-1.30636 -3.39123,-3.24854 -3.39123,-4.31597 0,-1.06729 1.93081,-0.12641 4.29071,2.09026 4.45618,4.18637 9.02419,15.09444 7.11899,16.99967 -2.72263,2.7226 -5.50241,1.36137 -5.78622,-2.83333 0,0 0,0 0,0 M 365.07612,599.496 c 1.6663,-4.77995 4.97058,-5.83891 4.97058,-1.59309 0,0.95505 -0.7814,1.25358 -1.73644,0.66332 -0.95505,-0.59025 -1.73645,0.0986 -1.73645,1.53141 0,1.43264 -0.75007,3.06837 -1.66685,3.63487 -0.98814,0.61081 -0.91927,-1.11424 0.16916,-4.23651 0,0 0,0 0,0 m 53.73175,1.93773 c -2.8365,-5.30005 -2.24914,-6.77603 0.90465,-2.27335 1.52997,2.18431 2.37469,4.37862 1.87712,4.87621 -0.49755,0.4976 -1.74935,-0.67374 -2.78177,-2.60286 0,0 0,0 0,0 m -44.01714,-7.20861 c -1.63548,-1.91009 -2.22733,-3.47289 -1.31523,-3.47289 0.9121,0 2.49473,1.5628 3.51699,3.47289 1.02225,1.91009 1.6141,3.47289 1.31522,3.47289 -0.29888,0 -1.88151,-1.5628 -3.51698,-3.47289 0,0 0,0 0,0 m 35.3313,-4.19636 c -0.0754,-1.83063 0.33501,-2.85611 0.91203,-2.27919 0.577,0.57705 0.63869,2.0747 0.13711,3.32828 -0.55433,1.38513 -0.96579,0.97366 -1.04911,-1.04909 0,0 -3e-5,0 -3e-5,0 m -27.4823,-5.35409 c -0.0193,-3.82019 0.32056,-5.58745 0.75517,-3.92726 0.43462,1.66019 0.45039,4.78576 0.035,6.94576 -0.41535,2.16 -0.77096,0.80168 -0.79023,-3.0185 0,0 5e-5,0 5e-5,0 m -8.42565,-26.0467 c 0.003,-14.32567 0.27138,-19.95512 0.59765,-12.50986 0.32629,7.44525 0.3243,19.16626 -0.004,26.04668 -0.3288,6.88042 -0.59577,0.78886 -0.59333,-13.53682 0,0 -1.6e-4,0 -1.6e-4,0 m 44.52549,25.17848 c -0.18175,-0.47759 -0.68545,-2.80503 -1.11934,-5.17222 -0.58327,-3.18221 -0.2809,-3.79601 1.16011,-2.355 1.07193,1.07193 1.57564,3.39942 1.11934,5.1722 -0.45631,1.77282 -0.97836,2.83247 -1.16011,2.35502 0,0 0,0 0,0 m -8.75469,-12.15515 c 0,-1.91009 0.61395,-3.4729 1.36435,-3.4729 0.75039,0 1.36436,1.56281 1.36436,3.4729 0,1.91009 -0.61397,3.47289 -1.36436,3.47289 -0.7504,0 -1.36435,-1.5628 -1.36435,-3.47289 0,0 0,0 0,0 m 6.35178,-5.98913 c -0.6441,-1.67846 -0.13114,-2.19602 1.54068,-1.55449 1.37845,0.52896 2.07395,1.66126 1.54554,2.51623 -1.33085,2.15337 -1.96691,1.95517 -3.08622,-0.96174 0,0 0,0 0,0 m -4.47825,-3.41662 c -0.0754,-1.8305 0.33501,-2.85609 0.91202,-2.27909 0.577,0.57702 0.63869,2.07469 0.13711,3.32818 -0.55433,1.38523 -0.96578,0.97376 -1.0491,-1.04909 0,0 -3e-5,0 -3e-5,0 m -1.87353,-9.59268 c 0,-1.0114 0.7814,-1.83892 1.73645,-1.83892 0.95504,0 1.73644,0.34458 1.73644,0.76574 0,0.42117 -0.7814,1.24868 -1.73644,1.83893 -0.95505,0.59025 -1.73645,0.24566 -1.73645,-0.76575 0,0 0,0 0,0 m 0.86822,-10.52115 c -0.65929,-3.00171 -0.83674,-5.81962 -0.39435,-6.26202 0.44239,-0.44239 1.30357,1.69179 1.91374,4.74263 1.44759,7.23795 0.0447,8.64081 -1.51939,1.51939 0,0 0,0 0,0 m 11.50395,-3.25583 c 0.35814,-1.07443 1.23723,-1.9535 1.95351,-1.9535 2.03353,0 1.52761,2.52957 -0.65117,3.25583 -1.07443,0.35814 -1.66047,-0.2279 -1.30234,-1.30233 0,0 0,0 0,0 m -40.1553,-6.89372 c 0,-0.80702 1.68377,-2.95587 3.7417,-4.77522 0,0 3.74169,-3.30791 3.74169,-3.30791 0,0 -3.07318,4.77523 -3.07318,4.77523 -3.1688,4.92379 -4.41021,5.85493 -4.41021,3.3079 0,0 0,0 0,0 m 35.48468,-0.0871 c 0.52841,-0.85497 -0.25641,-2.02154 -1.74403,-2.5924 -1.4876,-0.57085 -2.21841,-1.82483 -1.62399,-2.78662 0.59442,-0.96178 0.4486,-1.75938 -0.32405,-1.77243 -0.77265,-0.0125 -3.35831,-0.47152 -5.74592,-1.01885 -3.30982,-0.75872 -3.73428,-0.56927 -1.78674,0.79752 3.72061,2.61111 1.5688,3.47522 -2.87279,1.15362 -3.563,-1.86235 -3.30159,-2.15761 4.34112,-4.90309 7.29858,-2.62187 7.77633,-2.63363 4.65952,-0.11461 -3.42955,2.77173 -3.4241,2.79523 0.43651,1.88346 2.15017,-0.5078 3.52622,-0.30331 3.0579,0.45446 -0.46833,0.75778 0.31199,2.34337 1.73404,3.52357 2.98034,2.47345 3.46047,6.92992 0.74663,6.92992 -1.0114,0 -1.4066,-0.69952 -0.8782,-1.55449 0,0 0,-6e-5 0,-6e-5 m -20.72489,-10.52646 c 0,0 6.94578,-3.45598 6.94578,-3.45598 0,0 -6.07756,-0.30571 -6.07756,-0.30571 -5.74005,-0.28874 -5.79556,-0.34752 -0.99962,-1.0583 3.75426,-0.55643 4.43894,-1.14753 2.62656,-2.26764 -1.8046,-1.11529 -1.41504,-1.43697 1.47648,-1.21915 2.4146,0.18188 3.59789,1.15575 3.07138,2.52779 -0.47105,1.22756 -0.16471,2.23193 0.68077,2.23193 0.84548,0 1.8954,-0.97675 2.33312,-2.17055 0.59333,-1.61819 1.32793,-1.67164 2.88667,-0.21 1.58965,1.49063 0.28904,2.59115 -5.4264,4.59154 -13.19698,4.61893 -14.62519,4.87277 -7.51718,1.33607 0,0 0,0 0,0 m -18.23268,0.35456 c 0,-3.27048 8.92151,-9.11787 13.69162,-8.97387 4.51774,0.13642 4.5143,0.14644 -0.66828,1.95746 -2.86513,1.00121 -6.96748,3.41994 -9.11634,5.37494 -2.14884,1.95501 -3.907,2.69367 -3.907,1.64147 0,0 0,0 0,0" />

<path d="m 392.62058,623.7444 c 1.43256,-0.92588 3.77676,-1.68324 5.20933,-1.68324 2.31527,0 2.31527,0.18698 0,1.68324 -1.43257,0.92573 -3.77677,1.68324 -5.20933,1.68324 -2.31527,0 -2.31527,-0.18698 0,-1.68324 0,0 0,0 0,0 m 11.88294,-1.61379 c 4.89758,-4.26846 6.81796,-15.21695 3.44322,-19.63058 -2.41347,-3.15644 -10.11683,-2.53799 -10.11683,0.8121 0,0.95504 1.47968,1.34943 3.28818,0.87656 2.79584,-0.73112 3.19317,-0.0472 2.6537,4.57268 -0.34897,2.98794 -0.20072,4.45586 0.32941,3.26202 1.56425,-3.52248 3.90252,-2.47742 2.91408,1.30233 -0.4995,1.91009 -1.5458,3.47289 -2.32509,3.47289 -1.89463,0 -3.87408,-6.49 -2.6055,-8.54261 0.55334,-0.89531 -0.70247,-1.87898 -2.79068,-2.18598 -4.95009,-0.72792 -6.2695,-4.87608 -1.91324,-6.01532 2.51651,-0.65805 3.2325,-2.08221 2.77962,-5.52871 -0.3355,-2.55327 -0.0868,-3.47025 0.55277,-2.03761 0.63953,1.4325 3.37803,4.67631 6.08555,7.20833 7.64885,7.15304 6.33629,19.82479 -2.49693,24.10589 -3.7784,1.83133 -3.77376,1.79285 0.20174,-1.67199 0,0 0,0 0,0 m -19.05021,-1.42499 c -2.15992,-2.75414 -2.0985,-2.81555 0.65559,-0.65568 1.67134,1.3108 3.03878,2.67829 3.03878,3.03877 0,1.42917 -1.42594,0.50941 -3.69437,-2.38309 0,0 0,0 0,0 m -2.93439,-10.60066 c -0.0971,-7.03885 2.46892,-10.70136 9.18051,-13.10335 4.25804,-1.52391 2.33652,0.53955 -2.9551,3.17325 -2.9637,1.47514 -4.00283,3.58805 -4.20078,8.54192 -0.35547,8.89519 -1.90636,9.95845 -2.02463,1.38818 0,0 0,0 0,0 m 4.89232,4.95721 c 0,-0.95505 0.34458,-1.73645 0.76574,-1.73645 0.42117,0 1.24867,0.7814 1.83893,1.73645 0.59025,0.95504 0.24566,1.73644 -0.76575,1.73644 -1.0114,0 -1.83892,-0.7814 -1.83892,-1.73644 0,0 0,0 0,0 m 5.20934,-25.83414 c 0,-5.43146 3.35284,-9.41465 6.30727,-7.49313 2.17514,1.41473 2.49217,7.558 0.32078,6.21594 -0.81145,-0.50149 -1.02581,-1.63921 -0.47634,-2.52827 0.54946,-0.88906 -0.30788,-1.61642 -1.9052,-1.61642 -2.23921,0 -2.72917,1.19287 -2.13968,5.20934 0.42053,2.86513 0.1185,5.20933 -0.67113,5.20933 -0.78964,0 -1.4357,-2.24849 -1.4357,-4.99679 0,0 0,0 0,0" />

<path d="m 620.93671,645.66264 c -10.00058,-1.75672 -15.91746,-5.55233 -22.12153,-14.19048 -4.68037,-6.51664 -5.20933,-8.57554 -5.20933,-20.27647 0,-11.26895 0.64328,-14.01286 4.77522,-20.36873 4.67978,-7.19857 4.77528,-7.87535 4.77792,-33.86069 0.003,-29.25486 1.52844,-35.0916 10.98204,-42.01987 6.38063,-4.67618 20.78723,-4.78284 27.73993,-0.20536 5.40295,3.55716 9.89581,11.04477 9.89581,16.49191 0,2.40151 1.12958,3.55913 3.47289,3.55913 2.31527,0 3.47289,1.15763 3.47289,3.47289 0,2.31527 -1.15762,3.4729 -3.47289,3.4729 -1.92938,0 -3.47289,-1.15763 -3.47289,-2.60467 0,-1.44704 -1.5435,-2.60467 -3.47289,-2.60467 -1.91009,0 -3.47289,0.85455 -3.47289,1.89902 0,1.04445 1.5628,2.30768 3.47289,2.80718 2.41724,0.63212 3.47289,2.36854 3.47289,5.71247 0,3.34394 -1.05565,5.08036 -3.47289,5.71248 -1.91009,0.4995 -3.47289,1.76273 -3.47289,2.80718 0,1.04446 1.5628,1.89902 3.47289,1.89902 1.92939,0 3.47289,-1.15763 3.47289,-2.60467 0,-1.44705 1.54351,-2.60467 3.47289,-2.60467 2.02006,0 3.47289,1.15762 3.47289,2.76724 0,1.52197 -1.5628,3.1759 -3.47289,3.6754 -2.29374,0.59984 -3.47289,2.36854 -3.47289,5.20934 0,2.8408 1.17915,4.60951 3.47289,5.20934 1.91009,0.49949 3.47289,1.89801 3.47289,3.1078 0,1.20979 -1.5628,2.60831 -3.47289,3.10781 -4.79688,1.25441 -4.43525,7.40227 0.80149,13.62579 7.27624,8.6473 9.63331,21.79304 5.90449,32.93009 -5.91143,17.65593 -22.2571,27.16921 -41.01893,23.87329 0,0 0,0 0,0 m 16.45696,-14.79297 c 7.48714,-3.55287 12.63368,-11.56741 12.63368,-19.67398 0,-6.26579 -5.52473,-17.36446 -8.64373,-17.36446 -1.12368,0 -1.76197,-10.86838 -1.76197,-30.00143 0,-33.90585 -1.09353,-37.71994 -10.81451,-37.71994 -10.98195,0 -11.75928,2.35088 -11.75928,35.56357 0,29.56338 -0.0368,29.85055 -4.34375,33.89673 -11.38767,10.69815 -7.78093,29.26224 6.94842,35.76393 6.96762,3.07558 10.47463,2.98377 17.74114,-0.46442 0,0 0,0 0,0 m -21.29695,-8.64065 c -6.34003,-6.84101 -5.93895,-17.45556 0.90744,-24.01481 0,0 5.16563,-4.94899 5.16563,-4.94899 0,0 0.47782,-26.19778 0.47782,-26.19778 0.47669,-26.13588 0.48761,-26.19919 4.62255,-26.78384 2.27961,-0.32231 4.80719,0.45909 5.61686,1.73645 0.80966,1.27737 1.48408,13.21933 1.49871,26.5377 0.026,23.64756 0.13155,24.32485 4.50695,28.89172 2.63195,2.74717 4.8561,7.47786 5.39112,11.46675 0.75292,5.61347 0.10016,7.75359 -3.76649,12.34886 -3.97451,4.72344 -5.84058,5.55862 -12.41982,5.55862 -6.1422,0 -8.62273,-0.94972 -12.00077,-4.59468 0,0 0,0 0,0 m 35.68005,-50.10336 c 0,-1.43257 -1.12598,-2.60467 -2.50219,-2.60467 -2.90097,0 -4.85928,2.4784 -3.23875,4.09892 2.07532,2.07533 5.74094,1.12124 5.74094,-1.49425 0,0 0,0 0,0" />

<path d="m 611.79557,642.01764 c -18.39093,-9.30193 -24.66248,-33.41136 -13.11688,-50.42473 3.82625,-5.63829 4.15964,-8.0397 4.78568,-34.46944 0.53806,-22.71554 1.27651,-29.53405 3.68471,-34.023 9.41461,-17.54909 40.03175,-13.45862 43.8964,5.86459 0.88702,4.43506 0.45316,5.49471 -2.57383,6.28628 -4.53897,1.18698 -4.84152,6.48653 -0.37029,6.48653 1.86456,0 3.68132,-1.5715 4.22639,-3.65585 1.08417,-4.14588 5.23705,-3.62681 6.08801,0.76096 0.37856,1.95191 -0.61128,2.89489 -3.03878,2.89489 -2.8426,0 -3.60021,1.09622 -3.60021,5.20933 0,4.05171 0.77175,5.20934 3.47289,5.20934 3.26901,0 4.72165,3.38178 2.4349,5.66851 -1.68981,1.68981 -5.90779,-0.63032 -5.90779,-3.24963 0,-1.33038 -1.5628,-2.41888 -3.47289,-2.41888 -2.02005,0 -3.47289,1.15762 -3.47289,2.76724 0,1.52197 1.5628,3.1759 3.47289,3.6754 2.45995,0.64329 3.47289,2.36854 3.47289,5.915 0,3.84919 0.80298,5.00681 3.47289,5.00681 1.92939,0 3.47289,1.15763 3.47289,2.60467 0,1.44704 -1.5435,2.60467 -3.47289,2.60467 -5.26088,0 -4.41036,6.94339 2.14162,17.48333 19.09835,30.7228 -13.3171,66.13004 -45.59571,49.80398 0,0 0,0 0,0 m 26.03898,-10.82663 c 2.7424,-1.41816 6.70452,-4.99164 8.80471,-7.94107 5.28792,-7.42621 4.12216,-20.58599 -2.4294,-27.42435 0,0 -4.58821,-4.78906 -4.58821,-4.78906 0,0 0,-29.31265 0,-29.31265 0,-27.70608 -0.20692,-29.53289 -3.77557,-33.33156 -4.46789,-4.75583 -9.52618,-5.07681 -14.83786,-0.94152 -3.70231,2.88234 -3.86167,4.18555 -4.05789,33.18366 -0.19704,29.12107 -0.34601,30.32529 -4.23234,34.21162 -6.13103,6.13103 -8.52849,15.03485 -6.06125,22.51065 4.55187,13.79231 18.92547,20.17019 31.17781,13.83428 0,0 0,0 0,0 m -19.20072,-6.59309 c -8.32056,-6.38833 -9.09801,-18.54006 -1.63235,-25.51402 0,0 5.16295,-4.82292 5.16295,-4.82292 0,0 0.4805,-26.67378 0.4805,-26.67378 0.43372,-24.07731 0.78441,-26.7321 3.60269,-27.27315 7.17224,-1.37693 8.1647,2.20576 8.1647,29.47406 0,21.68707 0.43314,26.05477 2.66889,26.91272 1.46789,0.56327 3.88124,3.36857 5.36302,6.234 3.57034,6.90428 1.83332,15.76047 -3.98954,20.34074 -5.05,3.97232 -15.46441,4.66712 -19.82086,1.32235 0,0 0,0 0,0 m 33.14294,-52.28647 c 0,-2.61931 -4.21798,-4.93944 -5.90779,-3.24963 -2.28674,2.28673 -0.8341,5.66851 2.4349,5.66851 1.91009,0 3.47289,-1.0885 3.47289,-2.41888 0,0 0,0 0,0" />

<path d="m 614.76237,643.40888 c -8.9312,-3.18533 -12.52335,-6.75071 -17.92518,-17.79165 -5.92369,-12.10761 -4.97853,-23.8146 2.81539,-34.87193 0,0 5.24016,-7.43428 5.24016,-7.43428 0,0 0,-28.80486 0,-28.80486 0,0 0,-28.80488 0,-28.80488 0,0 6.7415,-6.74149 6.7415,-6.74149 5.98761,-5.98762 7.6867,-6.74078 15.19389,-6.73501 10.60349,0.008 19.06862,4.91 22.44847,12.9991 3.32298,7.95303 3.15879,9.5682 -0.97272,9.5682 -2.31526,0 -3.47289,1.15763 -3.47289,3.47289 0,2.31527 1.15763,3.4729 3.47289,3.4729 2.58022,0 3.47289,1.15762 3.47289,4.50368 0,3.04331 -1.12612,4.79816 -3.47289,5.41185 -1.92209,0.50264 -3.47289,2.36854 -3.47289,4.17855 0,2.11275 1.22932,3.27037 3.47289,3.27037 2.54678,0 3.47289,1.15763 3.47289,4.34111 0,3.23211 -0.91805,4.34112 -3.59366,4.34112 -2.73354,0 -3.46085,0.93511 -3.03878,3.907 0.30518,2.14885 1.72698,3.907 3.15955,3.907 1.60908,0 2.82375,1.99119 3.17784,5.20934 0.31522,2.86513 1.97574,6.77214 3.69,8.68223 5.37214,5.9858 7.15218,11.00471 7.23934,20.41168 0.0999,10.78651 -1.6893,16.01596 -8.07724,23.60759 -9.60789,11.41839 -24.71547,15.19773 -39.57145,9.89949 0,0 0,0 0,0 m 25.92745,-13.48655 c 6.32354,-4.85638 7.23646,-6.15403 9.20431,-13.0832 2.07583,-7.30945 -0.40552,-16.31165 -5.94399,-21.56433 -4.21783,-4.00019 -4.26885,-4.41288 -4.29848,-34.77168 -0.029,-29.76361 -0.15057,-30.80789 -3.88926,-33.42658 -5.92087,-4.14713 -12.71062,-3.39283 -16.85205,1.87215 -3.30813,4.20559 -3.59893,6.87273 -3.59893,33.00751 0,0 0,28.43222 0,28.43222 0,0 -5.36581,7.36484 -5.36581,7.36484 -4.4857,6.15684 -5.23566,8.54934 -4.5723,14.58616 0.88998,8.09896 6.74377,17.46582 12.32327,19.71889 7.14612,2.88569 17.73536,1.902 22.99324,-2.13598 0,0 0,0 0,0 m -23.77552,-8.1744 c -3.03345,-3.03344 -5.07577,-6.91093 -5.07577,-9.63668 0,-5.68782 4.20544,-14.05034 7.74978,-15.41042 2.23575,-0.85795 2.66889,-5.22565 2.66889,-26.91272 0,-20.79515 0.5081,-26.31024 2.58255,-28.03189 1.42041,-1.17883 3.76462,-1.68973 5.20934,-1.13535 2.18422,0.83818 2.62678,5.42437 2.62678,27.22129 0,0 0,26.21328 0,26.21328 0,0 5.08168,4.27595 5.08168,4.27595 6.51943,5.48575 8.15626,12.67927 4.49574,19.75793 -5.08283,9.82911 -17.39133,11.60629 -25.33899,3.65861 0,0 0,0 0,0 m 35.72311,-48.76631 c -0.59442,-0.96178 0.17458,-2.23042 1.70886,-2.81918 3.32468,-1.2758 5.17759,0.13016 3.57946,2.71592 -1.44191,2.33305 -3.8808,2.38067 -5.28832,0.10322 0,0 0,4e-5 0,4e-5 m -0.86064,-17.1664 c 0,-1.95184 4.51671,-3.77249 5.90779,-2.38141 2.09028,2.09027 0.94976,3.93207 -2.4349,3.93207 -1.91009,0 -3.47289,-0.69781 -3.47289,-1.55066 0,0 0,0 0,0 m 1.1938,-15.19881 c -2.26449,-2.26449 -1.18336,-4.08788 2.4238,-4.08788 2.02078,0 3.3142,0.91019 2.93025,2.06202 -0.84585,2.53755 -3.74527,3.63463 -5.35405,2.02586 0,0 0,0 0,0" />

<path d="m 619.65253,644.14277 c -2.31896,-1.02673 -0.87654,-1.1944 4.34111,-0.50454 4.29771,0.5683 8.13959,1.31511 8.53752,1.65976 1.50834,1.30622 -9.56225,0.31325 -12.87863,-1.15522 0,0 0,0 0,0 m 18.23268,-0.63707 c 0,-0.37535 1.21269,-1.14772 2.69485,-1.71658 1.54531,-0.59296 2.24232,-0.30186 1.63397,0.68249 -1.01974,1.6499 -4.32882,2.44047 -4.32882,1.03409 0,0 0,0 0,0 m -28.79682,-5.80501 c 0.74012,-2.3319 0.22061,-3.86399 -1.53923,-4.5393 -1.46103,-0.56065 -2.64446,-2.02064 -2.62983,-3.24442 0.0189,-1.58026 0.49472,-1.48483 1.64203,0.32933 0.8885,1.40491 2.11107,2.05876 2.71683,1.45299 0.60577,-0.60576 -0.23899,-3.14707 -1.87724,-5.64735 -1.63826,-2.50028 -2.6135,-4.9111 -2.16722,-5.35738 0.44628,-0.44628 1.78545,1.00861 2.97596,3.23308 1.19049,2.22447 4.5016,5.42503 7.35803,7.11235 2.85641,1.68733 4.73566,3.52568 4.17609,4.08525 -0.55956,0.55956 -1.94204,0.0927 -3.07217,-1.03741 -2.86851,-2.86851 -7.57485,-2.76414 -5.21987,0.11572 1.24796,1.52615 0.99478,2.88998 -0.85283,4.59381 -2.29136,2.11305 -2.48473,1.97266 -1.51055,-1.09671 0,0 0,4e-5 0,4e-5 m 22.32132,0.22902 c 0.57702,-0.577 2.07469,-0.63869 3.32818,-0.13711 1.38523,0.55433 0.97376,0.96578 -1.04909,1.0491 -1.8305,0.0754 -2.85609,-0.335 -2.27909,-0.912 0,0 0,10e-6 0,10e-6 m 19.87672,-5.00681 c 1.70226,-2.33949 3.68768,-4.27817 4.41206,-4.30819 1.98049,-0.0821 -2.63679,6.69292 -5.24293,7.69299 -1.42714,0.54764 -1.11998,-0.70366 0.83087,-3.3848 0,0 0,0 0,0 m -17.74234,1.34483 c 1.91009,-0.45944 4.21523,-1.5409 5.12252,-2.40324 0.90728,-0.86235 2.47009,-1.54305 3.47289,-1.51268 1.0028,0.0304 0.30648,1.20248 -1.5474,2.60466 -1.85387,1.4022 -4.97947,2.45881 -6.94578,2.34803 -3.48795,-0.19653 -3.49043,-0.22181 -0.10224,-1.03677 0,0 10e-6,0 10e-6,0 m -34.66795,-4.99003 c -1.61871,-2.47047 -2.64426,-4.79064 -2.27898,-5.15591 0.36528,-0.36527 2.03468,1.65602 3.70981,4.49178 3.74239,6.33536 2.62495,6.85403 -1.43083,0.66413 0,0 0,0 0,0 m 46.93472,-2.96301 c 0.65208,-1.71252 1.62303,-2.67625 2.15767,-2.14162 0.53463,0.53463 10e-4,1.93579 -1.18562,3.11367 -1.71494,1.70219 -1.9144,1.50274 -0.97205,-0.97205 0,0 0,0 0,0 m -27.90308,-3.68257 c -2.30538,-2.30536 -4.70257,-6.22753 -5.32712,-8.71592 -1.43625,-5.72252 2.0879,-14.43756 6.39039,-15.80313 3.03539,-0.96339 3.28615,-3.07163 3.28615,-27.62825 0,-27.72108 1.09131,-31.95464 7.59391,-29.45936 2.43491,0.93437 2.82476,4.67684 2.82476,27.11641 0,0 0,26.03245 0,26.03245 0,0 5.20934,4.86625 5.20934,4.86625 7.44424,6.95396 7.387,16.95979 -0.13322,23.28765 -6.82034,5.73894 -14.29471,5.8534 -19.84421,0.3039 0,0 0,0 0,0 m 35.87962,0.71868 c 0,-2.38761 0.39413,-3.36437 0.87583,-2.17055 0.48172,1.1938 0.48172,3.1473 0,4.34111 -0.4817,1.1938 -0.87583,0.21706 -0.87583,-2.17056 0,0 0,0 0,0 m 3.4176,-3.60719 c -1.2841,-2.90096 -1.85865,-5.75054 -1.2768,-6.33239 0.58185,-0.58184 1.05791,0.19832 1.05791,1.73368 0,1.5354 0.91419,3.35661 2.03153,4.04717 1.30039,0.80369 1.68781,0.35979 1.07646,-1.23335 -0.5253,-1.3689 -0.35038,-5.59944 0.38871,-9.40119 0,0 1.34379,-6.91229 1.34379,-6.91229 0,0 -0.0754,8.68222 -0.0754,8.68222 -0.0415,4.77523 -0.55601,10.03412 -1.14345,11.68642 -0.86944,2.44562 -1.50212,2.02351 -3.40274,-2.27027 0,0 2e-5,0 2e-5,0 m -7.02759,-0.58921 c -0.0754,-1.83051 0.33501,-2.85609 0.91202,-2.27909 0.577,0.57701 0.63869,2.07469 0.13711,3.32818 -0.55433,1.38523 -0.96578,0.97376 -1.0491,-1.04909 0,0 -3e-5,0 -3e-5,0 m -53.31696,-3.56031 c -0.53765,-1.40106 -0.64243,-3.54992 -0.23285,-4.77523 0.40958,-1.22532 1.15632,-0.079 1.65944,2.54738 0.98237,5.12812 0.17198,6.39366 -1.42659,2.22785 0,0 0,0 0,0 m -3.84865,-4.3984 c 0,-2.38762 0.39413,-3.36437 0.87584,-2.17056 0.48172,1.1938 0.48172,3.1473 0,4.34111 -0.48171,1.1938 -0.87584,0.21706 -0.87584,-2.17055 0,0 0,0 0,0 m 7.97559,1.34207 c 0.98736,-1.21566 2.17934,-3.7731 2.64885,-5.68319 0.67342,-2.73966 0.89617,-2.50394 1.05508,1.11655 0.12252,2.79129 -0.91533,5.01799 -2.64886,5.68321 -2.148,0.82427 -2.40796,0.54916 -1.05507,-1.11657 0,0 0,0 0,0 m 50.41898,-4.81497 c -0.42051,-2.86513 -0.1185,-5.20933 0.67114,-5.20933 0.78964,0 1.43571,2.3442 1.43571,5.20933 0,2.86514 -0.30202,5.20934 -0.67114,5.20934 -0.36913,0 -1.01519,-2.3442 -1.43571,-5.20934 0,0 0,0 0,0 m -56.9323,-4.23863 c 0,-1.37621 0.70853,-2.94008 1.57451,-3.47528 0.86598,-0.53522 1.16555,0.59078 0.6657,2.50219 -1.0603,4.05457 -2.24021,4.5671 -2.24021,0.97309 0,0 0,0 0,0 m 10.21837,-3.08083 c -0.11016,-1.22704 -0.38184,-3.01239 -0.60373,-3.96743 -0.22189,-0.95505 -0.53442,-2.51785 -0.69452,-3.47289 -0.1601,-0.95505 -1.01801,-0.58698 -1.9065,0.81793 -0.88851,1.40491 -2.14167,2.02817 -2.7848,1.38502 -0.64316,-0.64314 0.0899,-2.42852 1.62877,-3.96749 2.57323,-2.57323 2.95418,-2.45568 4.73931,1.46227 1.93742,4.25218 1.94786,4.25374 5.39403,0.80757 3.21902,-3.21902 3.41184,-5.37723 2.8473,-31.87055 -0.33305,-15.62973 -0.0745,-27.07824 0.57473,-25.44114 0.64917,1.63713 1.23521,14.59443 1.30234,28.79402 0,0 0.1221,25.81745 0.1221,25.81745 0,0 -5.20933,5.93311 -5.20933,5.93311 -2.86514,3.2632 -5.29947,4.92916 -5.40964,3.70213 0,0 -6e-5,0 -6e-5,0 m 51.24019,-1.29872 c 0.5642,-2.61759 -0.16759,-5.48097 -1.8861,-7.3799 -1.54441,-1.70655 -2.03755,-3.10282 -1.09586,-3.10282 0.94168,0 2.71206,1.86836 3.93418,4.15192 1.72321,3.21984 1.76226,4.87656 0.17395,7.37989 -1.8391,2.8986 -1.95401,2.79155 -1.12617,-1.04909 0,0 0,0 0,0 m -11.10164,-4.40516 c -2.24304,-2.38761 -3.16065,-4.34111 -2.03913,-4.34111 1.12152,0 2.03913,0.77219 2.03913,1.71597 0,0.94379 1.67202,1.52984 3.71559,1.30233 2.04358,-0.2275 3.86684,0.36777 4.05171,1.32281 0.18486,0.95505 0.0111,1.15039 -0.38741,0.43411 -1.36613,-2.45905 -4.27856,-1.30233 -3.27906,1.30234 1.38482,3.60879 0.61422,3.28249 -4.10083,-1.73645 0,0 0,0 0,0 m -39.17581,-10.06817 c -0.47576,-1.23981 -0.64323,-13.15616 -0.37219,-26.4808 0,0 0.49281,-24.22662 0.49281,-24.22662 0,0 0.86081,26.48339 0.86081,26.48339 0.47344,14.56586 0.64093,26.48223 0.37219,26.4808 -0.26873,-10e-4 -0.87786,-1.01698 -1.35362,-2.25677 0,0 0,0 0,0 m 40.91226,-2.95517 c 0,0 -4.34112,-1.39027 -4.34112,-1.39027 0,0 4.77523,-0.17308 4.77523,-0.17308 2.62636,-0.0952 4.77522,0.60831 4.77522,1.56335 0,0.95505 -0.19535,1.65856 -0.43411,1.56336 -0.23877,-0.0952 -2.38761,-0.79871 -4.77522,-1.56336 0,0 0,0 0,0 m 8.05428,-9.55045 c -0.54973,-1.43257 -0.24263,-2.60467 0.68244,-2.60467 0.92507,0 1.68195,1.1721 1.68195,2.60467 0,1.43257 -0.3071,2.60467 -0.68244,2.60467 -0.37535,0 -1.13223,-1.1721 -1.68195,-2.60467 0,0 0,0 0,0 m -13.14157,-0.43411 c 0.0671,-0.71629 0.7936,-2.86513 1.6144,-4.77522 1.3224,-3.07742 1.50624,-2.92912 1.61439,1.30233 0.0671,2.62637 -0.65935,4.77522 -1.61439,4.77522 -0.95505,0 -1.68154,-0.58605 -1.6144,-1.30233 0,0 0,0 0,0 m 5.08729,-5.64345 c 0,-0.95504 0.34458,-1.73644 0.76574,-1.73644 0.42115,0 1.24867,0.7814 1.83892,1.73644 0.59026,0.95505 0.24568,1.73645 -0.76574,1.73645 -1.0114,0 -1.83892,-0.7814 -1.83892,-1.73645 0,0 0,0 0,0 m -3.27147,-7.37989 c 0.14272,-2.76819 0.4269,-3.05238 0.97498,-0.97501 0.42546,1.6126 2.48368,3.26434 4.5738,3.67053 3.12848,0.60799 2.95612,0.78034 -0.97498,0.97501 -3.91795,0.19402 -4.73907,-0.46493 -4.5738,-3.67053 0,0 0,0 0,0 m 10.21725,-2.9363 c 0,-1.01141 0.7814,-1.83893 1.73644,-1.83893 0.95505,0 1.73645,0.34458 1.73645,0.76575 0,0.42116 -0.7814,1.24867 -1.73645,1.83892 -0.95504,0.59026 -1.73644,0.24566 -1.73644,-0.76574 0,0 0,0 0,0 m -6.94578,-8.64 c 0,-1.8305 -0.97676,-3.72231 -2.17056,-4.20403 -1.63237,-0.65867 -1.59206,-0.90983 0.16257,-1.01293 1.28321,-0.0754 2.7395,1.41692 3.23619,3.31628 0.4967,1.89935 1.59565,3.02533 2.4421,2.50219 0.84647,-0.52315 1.53903,-0.12364 1.53903,0.88775 0,1.0114 -1.1721,1.83892 -2.60467,1.83892 -1.43256,0 -2.60466,-1.49769 -2.60466,-3.32818 0,0 0,0 0,0 m -38.06472,-6.07756 c -0.0754,-1.8305 0.33501,-2.85609 0.91202,-2.27909 0.577,0.57701 0.63869,2.07469 0.13711,3.32818 -0.55433,1.38523 -0.96578,0.97376 -1.04911,-1.04909 0,0 -2e-5,0 -2e-5,0 m 32.85538,-2.74938 c 0,-0.95504 0.7814,-1.73644 1.73645,-1.73644 0.95504,0 1.73644,0.7814 1.73644,1.73644 0,0.95505 -0.7814,1.73645 -1.73644,1.73645 -0.95505,0 -1.73645,-0.7814 -1.73645,-1.73645 0,0 0,0 0,0 m 3.47289,-6.29018 c 0,-2.41156 0.43761,-2.48232 3.03878,-0.49134 1.67132,1.27926 3.36436,2.54703 3.76229,2.81728 0.39794,0.27024 -0.9695,0.49135 -3.03878,0.49135 -2.31282,0 -3.76229,-1.08539 -3.76229,-2.81729 0,0 0,0 0,0 m -5.20934,-2.39204 c 0,-0.95505 0.34458,-1.73645 0.76575,-1.73645 0.42115,0 1.24867,0.7814 1.83892,1.73645 0.59025,0.95504 0.24567,1.73644 -0.76574,1.73644 -1.01141,0 -1.83893,-0.7814 -1.83893,-1.73644 0,0 0,0 0,0 m 7.92566,-2.96389 c -0.94235,-2.47478 -0.7429,-2.67424 0.97204,-0.97205 1.18672,1.17788 1.72025,2.57904 1.18562,3.11367 -0.53463,0.53463 -1.50558,-0.4291 -2.15766,-2.14162 0,0 0,0 0,0 m -30.90462,-4.34848 c 3.00583,-3.00583 4.2961,-3.38284 5.9425,-1.73644 1.64642,1.64641 1.62826,2.57431 -0.0836,4.27358 -1.75323,1.74035 -1.95733,1.56826 -1.02974,-0.86822 0.68221,-1.79198 0.34584,-3.03878 -0.81984,-3.03878 -1.0872,0 -2.4265,1.1721 -2.97623,2.60467 -0.54973,1.43257 -1.87096,2.60467 -2.93605,2.60467 -1.06509,0 -0.20878,-1.72777 1.90294,-3.83948 0,0 4e-5,0 4e-5,0 m 9.52151,-4.30329 c 1.67132,-0.43676 4.40623,-0.43676 6.07756,0 1.67132,0.43677 0.30388,0.79413 -3.03878,0.79413 -3.34266,0 -4.71011,-0.35736 -3.03878,-0.79413 0,0 0,0 0,0 m 9.98456,-2.27591 c -1.43256,-0.92579 -1.82326,-1.68327 -0.86822,-1.68327 0.95505,0 2.90855,0.75748 4.34111,1.68327 1.43257,0.92579 1.82327,1.68327 0.86823,1.68327 -0.95505,0 -2.90855,-0.75748 -4.34112,-1.68327 0,0 0,0 0,0 m -11.721,-2.93342 c 1.67132,-0.43677 4.40622,-0.43677 6.07756,0 1.67132,0.43676 0.30387,0.79412 -3.03878,0.79412 -3.34266,0 -4.71012,-0.35736 -3.03878,-0.79412 0,0 0,0 0,0" />

<path d="m 621.38898,623.8822 c -5.89387,-3.13699 -7.81022,-5.44493 -7.65034,-9.21362 0.0968,-2.28183 0.23571,-2.28568 1.12072,-0.031 2.29647,5.85063 13.17099,12.01542 15.25285,8.64689 0.56769,-0.91854 2.52138,-1.67009 4.34149,-1.67009 4.58659,0 8.19818,-6.86729 4.9537,-9.41927 -1.31473,-1.0341 -2.62985,-2.98638 -2.9225,-4.33839 -0.43982,-2.03194 -0.0635,-2.06926 2.17055,-0.21522 2.25704,1.87318 2.70265,1.77848 2.70265,-0.57428 0,-1.54951 -0.7814,-2.81729 -1.73645,-2.81729 -0.95504,0 -1.73644,-1.34597 -1.73644,-2.99104 0,-2.51147 0.41623,-2.39678 2.596,0.71526 2.20146,3.14304 2.47764,7.41372 1.071,16.56142 -0.25669,1.66925 -7.11164,5.94108 -11.48101,7.15469 -1.91009,0.53054 -5.81709,-0.28308 -8.68222,-1.80804 0,0 0,-4e-5 0,-4e-5 m 2.60466,-4.00429 c -1.56505,-1.0114 -1.77921,-1.69388 -0.53658,-1.70985 1.13744,-0.0146 2.551,0.75481 3.14125,1.70985 1.33238,2.15585 0.73125,2.15585 -2.60467,0 0,0 0,0 0,0 m 11.6898,-3.47289 c 1.63548,-1.91009 3.21812,-3.47289 3.51699,-3.47289 0.29888,0 -0.29297,1.5628 -1.31522,3.47289 -1.02225,1.91009 -2.60489,3.47289 -3.517,3.47289 -0.91209,0 -0.32024,-1.5628 1.31523,-3.47289 0,0 0,0 0,0 m -8.65102,-1.15001 c 1.1938,-0.48172 3.1473,-0.48172 4.34112,0 1.1938,0.4817 0.21705,0.87583 -2.17056,0.87583 -2.38761,0 -3.36437,-0.39413 -2.17056,-0.87583 0,0 0,0 0,0 m -8.08525,-1.80706 c 0.6627,-0.37528 0.82909,-2.11947 0.36974,-3.87599 -0.45932,-1.75652 -0.15788,-3.61225 0.66994,-4.12385 0.82778,-0.51162 1.41553,1.11536 1.30608,3.61548 -0.10947,2.50014 -0.95311,4.66293 -1.87482,4.80619 -0.9217,0.14328 -1.13363,-0.0465 -0.47094,-0.42183 0,0 0,0 0,0 m -3.66875,-10.02653 c 2.50071,-3.01314 3.50589,-3.32673 3.50589,-1.09375 0,0.85288 -1.28262,2.04287 -2.85029,2.64443 -2.38322,0.91452 -2.49064,0.66043 -0.6556,-1.55068 0,0 0,0 0,0 m 14.72138,-6.23282 c -1.84052,-2.97803 -0.1923,-3.27024 3.4448,-0.61073 2.81666,2.05959 2.90405,2.4627 0.53386,2.4627 -1.55873,0 -3.34913,-0.83339 -3.97866,-1.85197 0,0 0,0 0,0 m -5.86907,-5.81733 c -0.0754,-1.8305 0.33501,-2.85609 0.91202,-2.27909 0.577,0.57701 0.63869,2.07469 0.13711,3.32818 -0.55433,1.38523 -0.96578,0.97376 -1.04911,-1.04909 0,0 -2e-5,0 -2e-5,0 m 5.07225,-0.0422 c 0,-0.42116 0.7814,-1.24867 1.73645,-1.83892 0.95504,-0.59026 1.73644,-0.24566 1.73644,0.76574 0,1.0114 -0.7814,1.83893 -1.73644,1.83893 -0.95505,0 -1.73645,-0.34458 -1.73645,-0.76575 0,0 0,0 0,0 m 1.39963,-26.01248 c 0.52509,-21.31833 0.48373,-21.58535 -3.47289,-22.42728 -3.70132,-0.78759 -3.67583,-0.83055 0.33682,-0.56764 0,0 4.34111,0.28445 4.34111,0.28445 0,0 0.486,22.13968 0.486,22.13968 0.26728,12.17682 -0.12336,22.1411 -0.86823,22.14285 -0.74482,10e-4 -1.11509,-9.70569 -0.82281,-21.57206 0,0 0,0 0,0 m -6.47188,-10.41064 c -0.0754,-1.83051 0.33501,-2.8561 0.91202,-2.2791 0.577,0.57702 0.63869,2.0747 0.13711,3.32819 -0.55433,1.38522 -0.96578,0.97375 -1.04911,-1.04909 0,0 -2e-5,0 -2e-5,0" />

<path d="m 810.66597,645.51565 c -1.5394,-1.53939 -2.08374,-17.58731 -2.08374,-61.43119 0,-63.95522 0.0377,-64.21822 9.02077,-62.94477 0,0 4.00258,0.5674 4.00258,0.5674 0,0 0.45667,61.52739 0.45667,61.52739 0.47469,63.95351 0.44226,64.26854 -6.62106,64.33832 -1.48031,0.0146 -3.62917,-0.91109 -4.77522,-2.05715 0,0 0,0 0,0 m 21.25901,-59.19263 c -0.47218,-1.23046 -0.643,-15.10033 -0.37962,-30.82191 0,0 0.47889,-28.58468 0.47889,-28.58468 0,0 5.49513,-0.53306 5.49513,-0.53306 4.71538,-0.45744 70.44024,8.19016 84.38379,11.10259 8.36193,1.74659 9.96669,4.90411 9.96669,19.6104 0,8.11276 -0.87271,14.62917 -2.20284,16.44823 -1.72841,2.36373 -10.98453,4.30146 -42.97702,8.99708 -44.67708,6.55734 -53.46688,7.16426 -54.76502,3.78135 0,0 0,0 0,0 m 35.26229,-7.45167 c 3.78744,-0.7716 3.907,-1.42639 3.907,-21.39769 0,-22.93171 0.15957,-22.66231 -13.45745,-22.71952 0,0 -5.64345,-0.0237 -5.64345,-0.0237 0,0 0,22.28439 0,22.28439 0,12.2564 0.40907,22.69344 0.90904,23.19341 0.86491,0.86492 5.69662,0.41273 14.28486,-1.33688 0,0 0,4e-5 0,4e-5 m 38.41886,-5.28795 c 0,0 5.42639,-1.08528 5.42639,-1.08528 0,0 0,-14.44025 0,-14.44025 0,-7.94214 -0.7166,-14.88313 -1.59245,-15.42443 -0.87583,-0.54131 -5.17354,-1.47504 -9.55045,-2.07496 0,0 -7.958,-1.09076 -7.958,-1.09076 0,0 0,17.60048 0,17.60048 0,19.61366 -0.25826,19.30175 13.67451,16.5152 0,0 0,0 0,0" />

<path d="m 809.45908,642.06152 c -0.53831,-2.20691 -0.76046,-29.7988 -0.49368,-61.31528 0,0 0.48506,-57.3027 0.48506,-57.3027 0,0 6.07756,0 6.07756,0 0,0 6.07756,0 6.07756,0 0,0 0,60.77559 0,60.77559 0,0 0,60.77559 0,60.77559 0,0 -5.58387,0.53969 -5.58387,0.53969 -4.6166,0.44619 -5.75342,-0.15539 -6.56263,-3.47289 0,0 0,0 0,0 m 22.75095,-56.24796 c -0.5797,-1.51068 -1.054,-14.69882 -1.054,-29.30696 0,-22.10554 0.46086,-26.94275 2.74776,-28.84072 3.87037,-3.21212 89.79514,8.89043 94.71214,13.34026 4.37572,3.95997 4.76906,28.42646 0.52523,32.67028 -1.50078,1.50079 -2.87387,2.7287 -3.05131,2.7287 -0.17745,0 -19.00931,2.7349 -41.84859,6.07756 -47.28441,6.92033 -50.57303,7.13088 -52.03123,3.33088 0,0 0,0 0,0 m 33.24079,-5.91183 c 0,0 5.64345,-0.0238 5.64345,-0.0238 0,0 0,-21.76006 0,-21.76006 0,-15.89365 -0.58517,-21.94042 -2.17055,-22.42903 -1.19382,-0.36792 -5.49152,-1.13402 -9.55046,-1.70247 0,0 -7.37989,-1.0335 -7.37989,-1.0335 0,0 0,24.53328 0,24.53328 0,0 0,24.53328 0,24.53328 0,0 3.907,-1.04704 3.907,-1.04704 2.14885,-0.57587 6.44655,-1.0577 9.55045,-1.07074 0,0 0,4e-5 0,4e-5 m 41.6747,-6.32751 c 3.67461,-0.98476 3.907,-1.95163 3.907,-16.25547 0,0 0,-15.20843 0,-15.20843 0,0 -5.42639,-1.08527 -5.42639,-1.08527 -13.9131,-2.78262 -13.67451,-3.06665 -13.67451,16.27917 0,0 0,17.36446 0,17.36446 0,0 5.64345,-0.0238 5.64345,-0.0238 3.10389,-0.0125 7.40159,-0.49487 9.55045,-1.07074 0,0 0,4e-5 0,4e-5" />

<path d="m 810.37977,642.50421 c -1.94675,-3.63753 -2.56309,-109.07957 -0.67874,-116.115 0.87282,-3.25872 2.07529,-3.90239 6.48796,-3.47289 0,0 5.41659,0.52722 5.41659,0.52722 0,0 0.48505,57.3027 0.48505,57.3027 0.26678,31.51648 0.0565,59.06086 -0.46719,61.2097 -1.21614,4.98973 -8.6721,5.3533 -11.24367,0.54827 0,0 0,0 0,0 m 22.85999,-56.0277 c -3.2917,-3.29171 -2.88674,-55.86375 0.45167,-58.63438 2.00869,-1.66707 11.83896,-0.79141 47.31814,4.21495 52.71575,7.43857 50.86029,6.48866 50.86029,26.03861 0,9.77 -0.67536,13.16626 -3.03878,15.28142 -2.07027,1.8528 -16.61628,4.70577 -45.63913,8.95136 -48.22751,7.05493 -47.13594,6.96429 -49.95219,4.14804 0,0 0,0 0,0 m 33.94751,-6.57938 c 3.85037,-0.0189 3.907,-0.34635 3.907,-22.59291 0,0 0,-22.57379 0,-22.57379 0,0 -4.99228,0 -4.99228,0 -2.74575,0 -7.35921,-0.47338 -10.25211,-1.05197 0,0 -5.25983,-1.05196 -5.25983,-1.05196 0,0 -0.23379,24.73208 -0.23379,24.73208 0,0 -0.23378,24.7321 -0.23378,24.7321 0,0 6.5789,-1.08723 6.5789,-1.08723 3.61839,-0.59796 8.33703,-1.09582 10.48589,-1.10632 0,0 0,0 0,0 m 41.24058,-6.13329 c 3.16676,-0.61993 3.47289,-2.06412 3.47289,-16.38374 0,-9.24263 -0.71446,-15.74648 -1.73644,-15.80739 -0.95505,-0.057 -5.44811,-0.71446 -9.98457,-1.46117 0,0 -8.24811,-1.35764 -8.24811,-1.35764 0,0 0,18.71644 0,18.71644 0,0 0,18.71644 0,18.71644 0,0 6.51167,-0.87153 
6.51167,-0.87153 3.58141,-0.47936 8.07447,-1.17748 9.98456,-1.55141 0,0 0,0 0,0" />

<path d="m 811.41911,642.76579 c -0.46253,-0.74839 1.24951,-1.33445 3.80453,-1.30233 0,0 4.64549,0.0583 4.64549,0.0583 0,0 0.93368,-28.65135 0.93368,-28.65135 0,0 0.93369,-28.65135 0.93369,-28.65135 0,0 0.36864,27.207 0.36864,27.207 0.20276,14.96384 -0.10571,28.44301 -0.68535,29.95369 -1.07858,2.81076 -8.48568,3.83729 -10.00068,1.38597 0,0 0,3e-5 0,3e-5 m 5.98243,-42.77394 c -0.0754,-1.83051 0.33501,-2.8561 0.91203,-2.2791 0.577,0.57702 0.63869,2.0747 0.13711,3.3282 -0.55433,1.38521 -0.96579,0.97374 -1.04911,-1.0491 0,0 -3e-5,0 -3e-5,0 m -0.14155,-41.05065 c -0.83555,-29.49205 -0.75109,-30.49569 2.58725,-30.74504 2.18318,-0.16307 2.67765,0.22018 1.34595,1.04321 -1.48284,0.91644 -2.24759,10.00415 -2.58725,30.74505 0,0 -0.4822,29.44404 -0.4822,29.44404 0,0 -0.86375,-30.48726 -0.86375,-30.48726 0,0 0,0 0,0 m 16.06659,27.63301 c -1.55241,-1.56019 -2.17055,-9.97745 -2.17055,-29.55618 0,-24.88684 0.29282,-27.53146 3.22194,-29.09908 4.51977,-2.41891 88.48983,9.70352 92.71667,13.38515 2.3826,2.07527 3.03878,5.42553 3.03878,15.51518 0,17.21568 -1.11373,18.90663 -13.40818,20.35731 -5.5186,0.65118 -22.14554,3.0173 -36.94874,5.25807 -42.38527,6.41586 -44.03837,6.56318 -46.44992,4.13955 0,0 0,0 0,0 m 37.55053,-7.63665 c 1.23063,-1.23064 1.46754,-40.44753 0.25618,-42.40755 -0.57202,-0.92554 -5.50321,-2.20737 -10.95819,-2.84849 0,0 -9.91817,-1.16568 -9.91817,-1.16568 0,0 0,24.78838 0,24.78838 0,0 0,24.78839 0,24.78839 0,0 9.89558,-1.16303 9.89558,-1.16303 5.44258,-0.63967 10.26865,-1.53608 10.7246,-1.99202 0,0 0,0 0,0 m 39.7213,-5.21223 c 1.52528,-0.48073 2.17055,-5.33647 2.17055,-16.33352 0,-17.49274 0.53754,-16.84234 -14.75978,-17.85876 0,0 -6.94578,-0.46151 -6.94578,-0.46151 0,0 -0.17525,17.36446 -0.17525,17.36446 -0.0964,9.55045 0.16824,17.98799 0.58807,18.7501 0.68703,1.24711 13.67954,0.2546 19.12219,-1.46077 0,0 0,0 0,0 M 810.58545,526.81356 c 0.76582,-3.9765 6.24309,-5.43712 9.03402,-2.40908 1.53548,1.66595 1.30804,1.91662 -1.00243,1.10484 -1.68713,-0.59275 -4.2262,0.18768 -5.83072,1.79219 -2.63196,2.63197 -2.79476,2.59588 -2.20087,-0.48795 0,0 0,0 0,0" />

<path d="m 835.49714,586.8238 c -1.35822,-2.19765 0.94051,-2.19765 4.34111,0 2.24469,1.45062 2.19884,1.68693 -0.33163,1.70985 -1.61496,0.0146 -3.41923,-0.75481 -4.00948,-1.70985 0,0 0,0 0,0 m 8.83726,-1.48561 c -0.50499,-0.81707 1.01169,-1.11669 3.37041,-0.66579 2.3587,0.4509 4.28856,1.11942 4.28856,1.4856 0,1.34358 -6.76977,0.61895 -7.65897,-0.81981 0,0 0,0 0,0 m 9.39542,-1.88481 c 0,-1.0114 0.7814,-1.83892 1.73644,-1.83892 0.95505,0 1.73645,0.34458 1.73645,0.76574 0,0.42117 -0.7814,1.24868 -1.73645,1.83893 -0.95504,0.59025 -1.73644,0.24566 -1.73644,-0.76575 0,0 0,0 0,0 m 5.20933,0.0857 c 0,-1.05857 1.36745,-2.03596 3.03878,-2.17197 1.67132,-0.136 5.65738,-0.46182 8.85792,-0.72407 3.2005,-0.26223 7.64568,-0.93522 9.87814,-1.49554 2.23245,-0.56031 4.54372,-0.23447 5.13612,0.72407 0.62946,1.01848 -1.31097,1.83493 -4.6688,1.96444 -7.59295,0.29284 -11.69867,0.84984 -17.46693,2.36962 -3.09394,0.81517 -4.77523,0.58049 -4.77523,-0.66655 0,0 0,0 0,0 m -16.71452,-4.47201 c -0.53765,-1.40108 -0.57481,-3.54992 -0.0825,-4.77523 0.56204,-1.39917 0.94592,-1.09753 1.03202,0.81094 0.0754,1.67133 1.30918,3.03878 2.74175,3.03878 1.43257,0 2.66636,-1.36745 2.74175,-3.03878 0.0861,-1.91022 0.46961,-2.21097 1.0324,-0.80984 0.96592,2.40476 -2.33104,7.32151 -4.90949,7.32151 -0.86807,0 -2.01821,-1.14632 -2.55584,-2.54738 0,0 -7e-5,0 -7e-5,0 m 45.73339,-0.3284 c -0.49894,-0.80593 1.94915,-1.37472 5.44021,-1.26398 3.49106,0.11072 6.80019,-0.50115 7.35359,-1.35976 0.55341,-0.85862 4.8228,-1.63774 9.48753,-1.73137 4.66475,-0.0936 10.67358,-0.79896 13.35299,-1.5674 2.6794,-0.76846 4.46178,-0.73399 3.96082,0.0765 -0.50096,0.81056 -3.83699,1.95641 -7.4134,2.54632 -15.83648,2.61219 -19.02007,3.11124 -24.96614,3.91365 -3.46964,0.46823 -6.71667,0.19191 -7.2156,-0.61402 0,0 0,2e-5 0,2e-5 m -13.39086,-2.33356 c 3.43097,-2.21726 9.18435,-2.21726 7.81401,0 -0.59025,0.95505 -3.17592,1.72449 -5.74593,1.70986 -3.65481,-0.0208 -4.10533,-0.39328 -2.06808,-1.70986 0,0 0,0 0,0 m 14.36451,-10.41867 c 0,-4.2977 0.33863,-6.05585 0.75253,-3.907 0.41388,2.14886 0.41388,5.66516 0,7.814 -0.4139,2.14886 -0.75253,0.3907 -0.75253,-3.907 0,0 0,0 0,0 m 23.83729,-8.59595 c 0,-12.96784 -0.50086,-15.82202 -3.02431,-17.2342 -1.69129,-0.94651 -2.35187,-2.32394 -1.49872,-3.12508 0.83907,-0.78791 1.8598,-0.49972 2.26828,0.64044 0.40848,1.14015 2.05965,1.65249 3.66928,1.13853 2.5284,-0.80732 2.5722,-0.66159 0.32192,1.07114 -2.06607,1.59087 -1.34793,1.80519 3.47289,1.03643 3.97542,-0.63394 4.92025,-0.4751 2.73162,0.45921 -3.16436,1.35089 -3.17597,1.49361 -0.21401,2.63022 1.72255,0.66102 4.06685,0.4259 5.20957,-0.52248 1.56023,-1.29487 1.87795,-0.36359 1.27575,3.73945 -0.70329,4.79179 -1.0628,5.10694 -2.92329,2.56256 -1.16676,-1.59564 -3.01199,-2.90117 -4.10051,-2.90117 -1.08853,0 -1.97913,-0.7814 -1.97913,-1.73645 0,-0.95504 -0.7814,-1.73644 -1.73645,-1.73644 -2.52237,0 -2.20742,24.88112 0.34729,27.43584 1.62069,1.62068 1.42775,2.08373 -0.86822,2.08373 -2.55844,0 -2.95196,-2.07184 -2.95196,-15.54173 0,0 0,0 0,0 m -63.6225,-1.82272 c 0,-9.07293 0.29267,-12.78458 0.65038,-8.24812 0.35771,4.53647 0.35771,11.95978 0,16.49623 -0.35771,4.53647 -0.65038,0.82481 -0.65038,-8.24811 0,0 0,0 0,0 m 79.83432,1.73644 c 0,-7.16284 0.3065,-10.09308 0.68113,-6.51167 0.37464,3.58143 0.37464,9.44193 0,13.02334 -0.37463,3.58143 -0.68113,0.65117 -0.68113,-6.51167 0,0 0,0 0,0 m -84.89492,8.53092 c -0.64168,-1.03825 -0.2971,-2.75733 0.76573,-3.82018 1.41896,-1.41894 1.93244,-0.91733 1.93244,1.88776 0,4.19266 -0.902,4.83868 -2.69817,1.93242 0,0 0,0 0,0 M 873.1049,564.25 c 0,-2.38761 0.39411,-3.36435 0.87583,-2.17055 0.48172,1.19381 0.48172,3.14731 0,4.34111 -0.48172,1.19381 -0.87583,0.21706 -0.87583,-2.17056 0,0 0,0 0,0 m 8.46085,-0.7814 c -0.0385,-3.73566 0.46603,-4.60367 1.86358,-3.20613 1.37343,1.37343 1.38839,2.82476 0.0528,5.12252 -1.63371,2.81065 -1.8701,2.57426 -1.91639,-1.91639 0,0 2e-5,0 2e-5,0 m -3.38861,0.0579 c -0.0754,-1.83049 0.335,-2.85609 0.91202,-2.27908 0.577,0.577 0.63869,2.0747 0.13711,3.32819 -0.55433,1.38522 -0.96578,0.97375 -1.04911,-1.04911 0,0 -2e-5,0 -2e-5,0 m -5.0079,-12.29981 c -0.0354,-2.86514 0.32483,-4.24746 0.80047,-3.07183 0.47565,1.17563 0.50462,3.51983 0.0643,5.20934 -0.44025,1.6895 -0.82942,0.72762 -0.8648,-2.13751 0,0 10e-6,0 10e-6,0 m 8.39651,-0.0868 c 0.0463,-4.49065 0.28268,-4.72704 1.91638,-1.91639 1.33559,2.29778 1.32063,3.74909 -0.0528,5.12252 -1.39755,1.39754 -1.90209,0.52953 -1.86358,-3.20613 0,0 -10e-6,0 -10e-6,0 m 7.36592,-2.51785 c 0,-4.2977 0.33864,-6.05585 0.75253,-3.907 0.41388,2.14886 0.41388,5.66516 0,7.814 -0.41389,2.14886 -0.75253,0.3907 -0.75253,-3.907 0,0 0,0 0,0 m -43.6099,1.73645 c 0,-2.38762 0.39411,-3.36436 0.87583,-2.17056 0.48172,1.19381 0.48172,3.14731 0,4.34111 -0.48172,1.19382 -0.87583,0.21706 -0.87583,-2.17055 0,0 0,0 0,0 m 32.85537,1.01293 c -0.0754,-1.83051 0.335,-2.85609 0.91202,-2.27909 0.577,0.57701 0.63869,2.07469 0.13711,3.32819 -0.55433,1.38521 -0.96578,0.97375 -1.04911,-1.0491 0,0 -2e-5,0 -2e-5,0 m -3.60574,-7.95872 c -1.63523,-5.25933 -1.08218,-6.96559 2.31996,-7.15753 2.06436,-0.11641 -0.8564,-0.88433 -6.49055,-1.7064 -10.23641,-1.49355 -12.84958,-2.48208 -11.12366,-4.20799 0.50424,-0.50425 3.02954,-0.11349 5.61177,0.86823 2.58225,0.98176 8.35577,1.87747 12.83006,1.99046 4.47429,0.11294 10.47928,0.72903 13.34442,1.36898 0,0 5.20933,1.16352 5.20933,1.16352 0,0 -4.34111,1.19139 -4.34111,1.19139 -2.38761,0.65526 -4.58695,0.47382 -4.88742,-0.40321 -0.30046,-0.87701 -1.66343,-1.1659 -3.0288,-0.64195 -1.36538,0.52395 -2.05019,1.65215 -1.52178,2.50712 0.52841,0.85497 -0.58307,1.55449 -2.46993,1.55449 -1.88688,0 -3.8248,0.97676 -4.30651,2.17056 -0.48172,1.19381 -0.99732,1.77986 -1.14578,1.30233 0,0 0,0 0,0 m -32.9967,-5.97508 c 0,-1.37621 0.73411,-2.95589 1.63135,-3.51042 0.89725,-0.55453 1.51236,0.57147 1.36692,2.50219 -0.29868,3.96525 -2.99827,4.87303 -2.99827,1.00823 0,0 0,0 0,0 m 57.3027,0.76575 c -2.02243,-1.307 -1.51433,-1.68922 2.27303,-1.70986 2.81494,-0.0153 4.42386,0.70775 3.80453,1.70986 -1.33249,2.15602 -2.74135,2.15602 -6.07756,0 0,0 0,0 0,0 m -51.31865,-1.88775 c -0.64168,-1.03826 -0.46268,-2.59175 0.39777,-3.45221 0.92834,-0.92833 1.67022,-0.16074 1.82452,1.88774 0.29035,3.8545 -0.47428,4.3928 -2.22229,1.56447 0,0 0,0 0,0 m 5.30284,-5.05803 c -0.59025,-0.95505 -0.29177,-1.73645 0.66327,-1.73645 0.95505,0 2.21937,0.7814 2.80963,1.73645 0.59025,0.95504 0.29177,1.73644 -0.66327,1.73644 -0.95505,0 -2.21937,-0.7814 -2.80963,-1.73644 0,0 0,0 0,0 m -9.55045,-1.89902 c 0,-0.86563 1.5628,-1.57388 3.47289,-1.57388 1.91009,0 3.4729,0.29958 3.4729,0.6657 0,0.36614 -1.56281,1.07439 -3.4729,1.57389 -1.91009,0.4995 -3.47289,0.19993 -3.47289,-0.66571 0,0 0,0 0,0" />

<path d="m 626.29786,322.88684 c -6.37089,-6.37089 -7.78371,-15.09929 -3.38012,-20.88235 2.66534,-3.50029 29.44843,-19.67916 32.57759,-19.67916 1.03983,0 1.35686,7.61702 0.73315,17.61448 -1.03194,16.54066 -1.48231,17.95702 -7.38772,23.23351 -8.12817,7.26252 -15.08228,7.17414 -22.5429,-0.28648 0,0 0,0 0,0"
style="fill:#000000;" />

<path d="m 798.92353,253.29674 c -7.83704,-7.83704 -8.82554,-9.85624 -8.82554,-18.02774 0,-11.97399 6.3154,-19.62808 21.16961,-25.65696 9.73429,-3.95086 11.37245,-5.44323 13.12686,-11.95862 4.94108,-18.34976 30.40396,-29.58799 49.106,-21.6733 3.57561,1.51319 10.31181,6.96801 14.96935,12.12183 6.79026,7.51379 9.79268,9.37936 15.15229,9.41494 9.79083,0.065 22.54948,6.58911 28.09712,14.36742 3.74782,5.25481 4.85089,9.40035 4.85089,18.23064 0,9.7578 -0.9144,12.56459 -6.25266,19.1929 -3.43896,4.27002 -9.34836,8.84878 -13.13198,10.17502 -4.5962,1.61107 -23.89776,2.4492 -58.15786,2.52538 0,0 -51.27854,0.11403 -51.27854,0.11403 0,0 -8.82554,-8.82554 -8.82554,-8.82554"
style="fill:#000000;" />

<path d="m 861.06261,315.41091 c -2.30632,-5.06181 -2.58781,-5.14378 -6.2579,-1.82239 -4.02193,3.63979 -8.13818,2.70882 -8.13818,-1.84062 0,-1.46512 1.36371,-3.79562 3.03046,-5.17891 4.24047,-3.51927 3.81008,-5.05711 -2.179,-7.78592 -6.64656,-3.02838 -5.29252,-7.32972 2.3573,-7.48835 5.10652,-0.1059 5.83243,-0.83888 5.50226,-5.55584 -0.2834,-4.04882 0.55771,-5.43385 3.29991,-5.43385 2.02414,0 4.15574,1.81827 4.73689,4.04061 1.10733,4.23443 6.3657,5.48337 8.50599,2.0203 1.85772,-3.00584 7.07107,-2.44346 7.07107,0.76278 0,1.5307 -1.3637,3.91486 -3.03046,5.29814 -4.46391,3.70472 -3.70371,7.12589 2.179,9.80623 6.66043,3.03469 5.27024,7.36636 -2.36412,7.36636 -4.90811,0 -5.98107,0.91499 -6.51506,5.55584 -0.80924,7.03301 -5.04993,7.16523 -8.19816,0.25562 0,0 0,0 0,0"
style="fill:#808080;" />

<path d="m 146.82853,672.93328 c 4.08339,-13.56806 3.7672,-14.82679 -3.73326,-14.86213 -11.72755,-0.0553 -13.06067,-2.24556 -8.83209,-14.5111 7.09251,-20.57274 11.92353,-28.51173 18.42854,-30.28433 6.86257,-1.87003 17.1726,-0.28445 17.1726,2.64097 0,1.06714 -1.81828,5.50438 -4.04061,9.86051 -6.05419,11.86719 -5.42338,14.14214 3.92137,14.14214 4.3791,0 8.38991,0.69238 8.91292,1.53863 1.09748,1.77576 -30.45132,40.88778 -32.98118,40.88778 -0.92456,0 -0.40629,-4.23561 1.15171,-9.41247 0,0 0,0 0,0"
style="fill:#808080;" />

<path d="m 386.4517,622.68455 c -2.77349,-2.38565 -4.49972,-5.81768 -5.05705,-10.05424 -0.70811,-5.38277 -0.0483,-7.52797 4.04394,-13.14853 2.68956,-3.69398 5.5138,-9.12327 6.2761,-12.06508 1.08622,-4.19187 2.22259,-5.34875 5.2539,-5.34875 3.03176,0 4.22678,1.21713 5.52811,5.63038 0.91312,3.0967 3.65095,8.51305 6.08408,12.03634 4.74577,6.8721 5.49229,11.8248 2.6269,17.42778 -4.82083,9.42665 -17.04631,12.15368 -24.75598,5.5221 0,0 0,0 0,0"
style="fill:#808080;stroke:#808080;stroke-width:5;stroke-linejoin:round;" />

<path d="m 617.18295,621.6043 c -6.87133,-6.87133 -5.72713,-19.00417 2.43069,-25.77456 2.03264,-1.68694 2.55584,-6.16859 2.70942,-23.20866 0.23482,-26.05464 1.0778,-30.60384 5.79569,-31.27667 4.63046,-0.66036 5.06159,1.54648 5.62621,28.79918 0.42708,20.61419 0.6954,22.21598 4.71578,28.15186 5.52529,8.1578 6.62976,12.17605 4.72431,17.18778 -4.37732,11.51322 -17.51682,14.60635 -26.0021,6.12107 0,0 0,0 0,0"
style="fill:#808080;stroke:#808080;stroke-width:5;stroke-linejoin:round;" />

<path d="m 832.27474,584.0788 c -1.6192,-6.04203 -1.12691,-48.96024 0.61413,-53.53951 1.87379,-4.92844 0.79141,-4.95361 45.82793,1.06554 35.07049,4.68718 47.9442,7.3877 50.27117,10.54541 1.22117,1.65712 2.01085,7.87989 2.01085,15.84569 0,10.45265 -0.57182,13.63269 -2.81519,15.65599 -2.96528,2.6744 -74.1035,14.04641 -87.86806,14.04641 -5.97286,0 -7.22146,-0.56205 -8.04083,-3.61953 0,0 0,0 0,0 m 37.97187,-6.62941 c 1.81514,-2.78927 1.44996,-36.20536 -0.43414,-39.72583 -1.30312,-2.43491 -3.40217,-3.11159 -9.65206,-3.11159 0,0 -7.98679,0 -7.98679,0 0,0 0,23.47678 0,23.47678 0,0 0,23.47678 0,23.47678 0,0 8.44556,-1.15 8.44556,-1.15 4.64505,-0.63249 8.9774,-1.96726 9.62743,-2.96614 0,0 0,0 0,0 m 37.32166,-4.18935 c 3.94475,-1.49979 4.12642,-2.12365 4.12642,-14.17063 0,-7.61638 -0.79551,-13.63474 -2.01085,-15.21286 -1.10596,-1.4361 -5.44939,-3.10446 -9.65206,-3.70747 0,0 -7.64122,-1.09639 -7.64122,-1.09639 0,0 0,17.87811 0,17.87811 0,0 0,17.8781 0,17.8781 0,0 5.52564,0 5.52564,0 3.03911,0 7.38254,-0.70598 9.65207,-1.56886 0,0 0,0 0,0"
style="fill:#808080;fill-opacity:1;stroke:#808080;stroke-width:4;stroke-linejoin:round;" />

<path d="m 152.01126,173.2748 c -0.47162,-1.24053 -0.85748,-4.81441 -0.85748,-7.94196 0,-8.95301 3.01272,-14.30229 7.43052,-13.19339 2.92274,0.73362 4.32021,6.0215 3.79137,14.34614 -0.48038,7.56184 -1.47652,9.04471 -6.07593,9.04471 -2.87396,0 -3.57023,-0.3662 -4.28848,-2.2555 0,0 0,0 0,0"
style="opacity:1;fill:#000000;fill-opacity:1;stroke:#000000;stroke-width:5;stroke-linejoin:round;" />

<path d="m 179.26594,181.21786 c -0.86494,-1.04228 -0.89546,-2.08621 -0.13496,-4.61633 1.37625,-4.57866 6.30973,-12.47246 9.06221,-14.49997 2.20533,-1.62448 2.41471,-1.63278 4.62627,-0.1836 1.27402,0.83484 2.54617,2.43344 2.82699,3.55243 0.65029,2.59117 -4.22067,11.94677 -7.77911,14.94125 -2.89421,2.43552 -6.935,2.81427 -8.6014,0.80622 0,0 0,0 0,0"
style="opacity:1;fill:#000000;fill-opacity:1;stroke:#000000;stroke-width:5;stroke-linejoin:round;" />

<path d="m 199.12159,200.8344 c -3.04507,-4.3478 -1.3684,-6.83585 8.38007,-12.43544 6.44023,-3.69933 12.23194,-2.58248 12.23194,2.35875 0,2.6403 -3.43307,5.70704 -10.68099,9.54129 -5.66921,2.99908 -8.11326,3.13083 -9.93102,0.5354 0,0 0,0 0,0"
style="opacity:1;fill:#000000;fill-opacity:1;stroke:#000000;stroke-width:7;stroke-linejoin:round;" />

<path d="m 214.01862,230.23131 c -6.45818,-0.62524 -8.9309,-3.1048 -8.20574,-8.22839 0.28061,-1.98251 0.63748,-2.07916 8.64535,-2.34151 10.35691,-0.33929 14.94689,0.80575 14.94689,3.72874 0,3.66036 -2.62734,5.81255 -7.91463,6.48327 -2.6588,0.33729 -6.02115,0.49834 -7.47187,0.35789 0,0 0,0 0,0"
style="opacity:1;fill:#000000;fill-opacity:1;stroke:#000000;stroke-width:7;stroke-linejoin:round;" />

<path d="m 210.94132,261.21854 c -4.63459,-1.45273 -12.60581,-7.25248 -13.03563,-9.48454 -0.54257,-2.81753 2.24615,-5.86035 5.36265,-5.85128 3.2083,0.009 10.28996,3.77917 14.51653,7.7277 3.258,3.04368 3.76238,6.65018 1.1273,8.06055 -2.13017,1.14014 -3.05817,1.08746 -7.97085,-0.45243 0,0 0,0 0,0"
style="opacity:1;fill:#000000;fill-opacity:1;stroke:#000000;stroke-width:7;stroke-linejoin:round;" />

<path d="m 186.90809,285.40046 c -1.25932,-0.99066 -3.7485,-4.75319 -5.53151,-8.36118 -2.77638,-5.61806 -3.10015,-6.87101 -2.25496,-8.72617 1.38541,-3.04087 4.99303,-3.76724 7.93726,-1.59809 3.39914,2.5043 8.05633,10.63951 8.05633,14.07281 0,2.99621 -2.51357,6.41384 -4.71718,6.41384 -0.66016,0 -2.23063,-0.81055 -3.48994,-1.80121 0,0 0,0 0,0"
style="opacity:1;fill:#000000;fill-opacity:1;stroke:#000000;stroke-width:7;stroke-linejoin:round;" />

<path d="m 153.44908,294.85557 c -2.27178,-1.66131 -3.03057,-13.88547 -1.14176,-18.39406 1.38095,-3.29634 4.41546,-4.95828 7.14242,-3.91176 3.98739,1.53023 4.16956,20.24351 0.22152,22.75411 -1.60674,1.02173 -4.49669,0.81352 -6.22218,-0.44829 0,0 0,0 0,0"
style="opacity:1;fill:#000000;fill-opacity:1;stroke:#000000;stroke-width:7;stroke-linejoin:round;" />

<path d="m 120.57643,285.83285 c -2.5276,-1.77056 -2.45518,-4.11242 0.311,-10.05572 3.29261,-7.07438 6.20536,-10.55802 8.82781,-10.55802 6.10381,0 7.19952,4.14898 3.19456,12.09637 -2.40747,4.77736 -7.20649,9.88619 -9.28666,9.88619 -0.60094,0 -1.97196,-0.61597 -3.04671,-1.36882 0,0 0,0 0,0"
style="opacity:1;fill:#000000;fill-opacity:1;stroke:#000000;stroke-width:7;stroke-linejoin:round;" />

<path d="m 95.958032,261.21239 c -1.07475,-0.75284 -1.95409,-1.93876 -1.95409,-2.63537 0,-2.20691 6.098358,-8.12071 10.780228,-10.45398 5.77257,-2.87683 8.96712,-2.91154 10.79783,-0.11732 1.24911,1.90656 1.2577,2.39936 0.0815,4.67418 -1.52417,2.94763 -6.91403,6.91638 -11.72247,8.63165 -4.377748,1.56165 -5.634298,1.54605 -7.982948,-0.0992 0,0 -5e-5,4e-5 -5e-5,4e-5"
style="opacity:1;fill:#000000;fill-opacity:1;stroke:#000000;stroke-width:7;stroke-linejoin:round;" />

<path d="m 92.245492,229.93919 c -4.41417,-0.83753 -6.1546,-2.57585 -6.1546,-6.14714 0,-1.99404 0.5596,-2.58785 3.2971,-3.49864 4.60682,-1.53273 16.280518,-1.54838 18.116778,-0.0242 1.92132,1.59467 1.83969,5.63187 -0.15028,7.43292 -1.42148,1.28653 -3.15618,1.7896 -9.394018,2.72433 -0.96714,0.14492 -3.53889,-0.0743 -5.71498,-0.48719 0,0 0,-8e-5 0,-8e-5"
style="opacity:1;fill:#000000;fill-opacity:1;stroke:#000000;stroke-width:7;stroke-linejoin:round;" />

<path d="m 105.4403,200.52338 c -7.719658,-3.59355 -10.557128,-6.13995 -10.557128,-9.47419 0,-5.71221 3.8251,-6.43046 12.133538,-2.27833 5.37544,2.68636 9.84717,6.8865 9.84717,9.2491 0,1.75047 -3.20741,4.77043 -5.05556,4.76011 -0.84625,-0.005 -3.71186,-1.02023 -6.36802,-2.25669 0,0 0,0 0,0"
style="opacity:1;fill:#000000;fill-opacity:1;stroke:#000000;stroke-width:7;stroke-linejoin:round;" />

<path d="m 127.51959,182.07846 c -2.78479,-2.34344 -8.89725,-13.53392 -8.89725,-16.28877 0,-1.96488 3.22436,-4.32822 5.90511,-4.32822 3.38657,0 10.73792,11.54196 10.78092,16.92656 0.0185,2.31645 -2.60899,5.93529 -4.30937,5.93529 -0.44648,0 -2.01221,-1.01019 -3.47941,-2.24486 0,0 0,0 0,0"
style="opacity:1;fill:#000000;fill-opacity:1;stroke:#000000;stroke-width:7;stroke-linejoin:round;" />

<ellipse ry="38.469471" rx="38.466244" cy="224.18988" cx="157.08856" style="fill:#808080;stroke:none;stroke-width:7;stroke-linejoin:round;" />



<!--1-->
<svg x="6%" y="6%">

<svg width="18%" height="24%">
<rect class="box"/>
</svg> 

<svg width="18%" height="24%">
<g transform="scale(1, 1)">
<svg>
<line class="line" x1="50%" y1="25%" x2="50%" y2="88%"/>
</svg>
</g>
</svg> 

<svg class="button" x="4.5%" y="0%" width="9%" height="12%">
<g transform="scale(1, 1)">
<svg class="btnCoff">
<circle class="circle" cx="50%" cy="50%" r="40%"/>
</svg>
<svg x="13%" y="14%" viewBox="0 0 400 400">
<g transform='scale(0.65 0.65)' class="btnToff">
<path d="m 212.51385,236.61457 c 0,-68.08913 -0.49101,-123.79842 -1.09113,-123.79842 -0.60011,0 -4.60949,2.85695 -8.90973,6.34877 -15.76274,12.79946 -51.27108,33.48609 -64.55957,37.61144 -4.16868,1.29415 -4.22034,1.09606 -4.21593,-16.16673 l 0.004,-17.47694 10.15495,-5.30595 c 29.94812,-15.64787 65.50005,-45.926729 76.91039,-65.503008 L 226,43.413996 h 12.01405 12.01403 V 201.91351 360.413 h -18.75714 -18.75733 z">
</path>
</g>
</svg>
</g>
</svg>

</svg> 

<!--2-->
<svg x="29%" y="23%">

<svg width="18%" height="24%">
<rect class="box"/>
</svg>

<svg width="18%" height="24%">
<g transform="scale(1, 1)">
<svg>
<line class="line" x1="50%" y1="75%" x2="50%" y2="35%"/>
</svg>
</g>
</svg>

<svg class="button" x="4.5%" y="12%" width="9%" height="12%">
<g transform="scale(1, 1)">
<svg class="btnCoff">
<circle class="circle" cx="50%" cy="50%" r="40%"/>
</svg>
<svg x="17%" y="14%" viewBox="0 0 400 400">
<g transform='scale(0.65 0.65)' class="btnToff">
<path d="m 89.58885,354.9505 c 0,-9.08544 6.69,-27.66163 14.99891,-41.64758 10.46314,-17.61208 34.70133,-42.26454 77.8164,-79.14641 56.76554,-48.55888 74.07604,-71.84823 75.69209,-101.83532 0.68123,-12.64079 0.13245,-16.68621 -3.36721,-24.82137 -8.17409,-19.001199 -28.08368,-32.149009 -51.18595,-33.801968 -35.32602,-2.527564 -61.4689,17.237938 -67.12098,50.747268 l -2.17961,12.92219 -6.8452,-0.99309 c -3.76485,-0.5462 -12.12302,-1.53321 -18.57371,-2.19334 -13.38172,-1.36943 -13.19184,-0.9572 -8.8754,-19.26663 7.64833,-32.442768 27.80077,-55.331672 58.28661,-66.201255 15.8151,-5.638798 53.26342,-7.118703 70.21955,-2.774978 19.81582,5.076306 31.22816,11.324708 43.8938,24.032434 24.5068,24.58821 31.59249,58.249839 19.35698,91.958319 -9.63325,26.53929 -30.89598,50.38432 -93.27576,104.60387 -34.31549,29.82651 -56.29682,52.07913 -56.29682,56.99163 0,0.67875 35.04478,1.23408 77.87727,1.23408 h 77.87727 V 342.58568 360.413 H 193.73797 89.58885 Z"> </path>
</g>
</svg>
</g>
</svg>

</svg> 

<!--3-->
<svg x="51%" y="15%">

<svg width="18%" height="24%">
<rect class="box"/>
</svg>

<svg width="18%" height="24%">
<g transform="scale(1, 1)">
<svg>
<line class="line" x1="25%" y1="25%" x2="55%" y2="55%"/>
</svg>
</g>
</svg>

<svg class="button" x="0%" y="0%" width="9%" height="12%">
<g transform="scale(1, 1)">
<svg class="btnCoff">
<circle class="circle" cx="50%" cy="50%" r="40%"/>
</svg>
<svg x="18%" y="14%" viewBox="0 0 400 400">
<g transform='scale(0.65 0.65)' class="btnToff">
<path d="m 173.83716,359.45692 c -18.66018,-2.9667 -40.72659,-15.27459 -54.14712,-30.20144 -12.54222,-13.94997 -23.357256,-37.46217 -23.357256,-50.77931 0,-4.35004 1.69981,-4.85216 24.912116,-7.35898 l 11.07205,-1.19575 4.20831,13.47979 c 9.9409,31.84202 28.45628,46.88499 57.61067,46.80621 18.87657,-0.0509 30.75866,-4.4471 43.50372,-16.09538 12.13935,-11.09468 18.27787,-22.34007 21.12761,-38.70447 5.15035,-29.57556 -10.10458,-57.9459 -36.54341,-67.96155 -9.19277,-3.48242 -13.13951,-3.88251 -30.53819,-3.09563 l -19.981,0.90367 1.1639,-9.47298 c 2.47018,-20.10455 1.22861,-18.63983 17.85405,-21.06302 24.52854,-3.57506 42.00178,-13.6186 50.067,-28.77829 5.8138,-10.92782 5.80462,-35.68077 -0.0173,-46.625834 -9.49327,-17.847159 -29.24664,-27.706407 -52.21785,-26.062824 -25.94334,1.856235 -45.58888,20.568374 -50.80921,48.395168 -0.67414,3.59344 -2.17129,6.53523 -3.327,6.53729 -5.47229,0.009 -34.39481,-6.07992 -34.39481,-7.24191 0,-4.29405 6.71947,-22.935104 11.56967,-32.096404 11.06272,-20.895821 33.65768,-38.236081 56.75931,-43.559326 12.11645,-2.791958 38.2133,-2.39756 50.33891,0.760762 39.4862,10.284847 64.13386,39.653402 64.21488,76.514248 0.0551,25.09015 -12.34555,46.7623 -33.75292,58.98855 l -9.00459,5.14273 11.10661,4.04967 c 28.16696,10.2702 45.00697,33.86408 47.4156,66.43221 3.46337,46.82958 -29.08593,89.37712 -77.01763,100.67534 -10.80422,2.54672 -36.47932,3.40987 -47.81614,1.60746 z"> </path>
</g>
</svg>
</g>
</svg>

</svg>


<!--4-->
<svg x="78%" y="14%">

<svg width="18%" height="24%">
<rect class="box"/>
</svg>

<svg width="18%" height="24%">
<g transform="scale(1, 1)">
<svg>
<line class="line" x1="75%" y1="25%" x2="45%" y2="55%"/>
</svg>
</g>
</svg>

<svg class="button" x="9%" y="0%" width="9%" height="12%">
<g transform="scale(1, 1)">
<svg class="btnCoff">
<circle class="circle" cx="50%" cy="50%" r="40%"/>
</svg>
<svg x="17%" y="14%" viewBox="0 0 400 400">
<g transform='scale(0.65 0.65)' class="btnToff">
<path d="M 225.63619,322.89833 V 285.38365 H 157.1719 88.707623 l 0.0428,-18.2884 0.0428,-18.28841 L 161.153,146.11042 233.51278,43.414 h 14.81901 14.81901 v 103.16535 103.16536 h 21.57094 21.57094 v 17.81947 17.81947 H 284.72174 263.1508 v 37.51468 37.51467 h -18.75734 -18.75733 z m 0,-145.74451 c 0,-40.17103 -0.71425,-71.79506 -1.59928,-70.80895 -0.8796,0.98006 -20.84734,29.63659 -44.37274,63.68115 -23.52541,34.04458 -45.6678,65.9086 -49.20529,70.80896 l -6.43183,8.90973 h 50.80457 50.80457 z"> </path>
</g>
</svg>
</g>
</svg>

</svg>


<!--5-->
<svg x="2%" y="59%">

<svg width="18%" height="24%">
<rect class="box"/>
</svg>

<svg width="18%" height="24%">
<g transform="scale(1, 1)">
<svg>
<line class="line" x1="25%" y1="25%" x2="55%" y2="55%"/>
</svg>
</g>
</svg>

<svg class="button" x="0%" y="0%" width="9%" height="12%">
<g transform="scale(1, 1)">
<svg class="btnCoff">
<circle class="circle" cx="50%" cy="50%" r="40%"/>
</svg>
<svg x="17%" y="16%" viewBox="0 0 400 400">
<g transform='scale(0.65 0.65)' class="btnToff">
<path d="m 168.94319,357.50038 c -36.2159,-7.8427 -64.36078,-35.59431 -71.68144,-70.67989 -1.42482,-6.82864 -1.59203,-11.38468 -0.45645,-12.43693 0.98565,-0.91329 9.8143,-2.21966 19.61924,-2.90303 l 17.82716,-1.24248 2.32857,9.80273 c 4.89951,20.62576 18.05941,37.54708 34.99137,44.99271 12.37523,5.44186 33.42823,5.8781 47.57322,0.98575 20.31323,-7.02576 38.98274,-30.76157 43.58285,-55.40981 7.21847,-38.67801 -7.21922,-72.1779 -37.13926,-86.17451 -9.34397,-4.37112 -13.05416,-5.00017 -29.54284,-5.00896 -17.75081,-0.009 -19.59598,0.36511 -31.45832,6.38612 -6.93081,3.51789 -16.04953,10.13686 -20.26382,14.70884 l -7.66235,8.31267 -13.1038,-1.31597 c -7.20709,-0.72378 -14.97323,-1.85579 -17.25809,-2.51556 l -4.15428,-1.1996 15.07987,-80.19424 15.07988,-80.194223 h 78.34767 78.34768 v 17.82094 17.820939 h -63.50637 -63.50637 l -8.54021,42.676464 c -4.69711,23.47205 -8.29803,42.92708 -8.00205,43.23343 0.29599,0.30632 5.9152,-2.37331 12.48713,-5.95476 19.0005,-10.35454 30.96785,-13.01726 54.01241,-12.01769 27.57288,1.19598 44.85965,8.85699 64.09288,28.40418 30.29589,30.79042 36.80496,83.52891 15.62201,126.57444 -22.03333,44.77354 -70.69674,66.79346 -122.71629,55.52844 z"> </path>
</g>
</svg>
</g>
</svg>

</svg>


<!--6-->
<svg x="30%" y="54%">

<svg width="18%" height="24%">
<rect class="box"/>
</svg>

<svg width="18%" height="24%">
<g transform="scale(1, 1)">
<svg>
<line class="line" x1="50%" y1="25%" x2="50%" y2="65%"/>
</svg>
</g>
</svg>

<svg class="button" x="4.5%" y="0%" width="9%" height="12%">
<g transform="scale(1, 1)">
<svg class="btnCoff">
<circle class="circle" cx="50%" cy="50%" r="40%"/>
</svg>
<svg x="17%" y="16%" viewBox="0 0 400 400">
<g transform='scale(0.65 0.65)' class="btnToff">
<path d="M 175.74827,357.67012 C 142.20336,349.55065 114.73048,321.82093 103.73678,284.98535 94.986776,255.66754 92.383876,195.43915 98.168426,156.13951 108.93161,83.015553 146.47661,43.413998 205.03996,43.413998 c 28.92539,0 48.94394,7.634731 65.26368,24.890453 10.66124,11.272692 17.65882,24.334472 21.224,39.616999 2.36744,10.14833 2.3268,11.11238 -0.47419,11.24645 -1.68497,0.0806 -9.90685,0.71581 -18.27085,1.41148 l -15.20727,1.26484 -3.75124,-11.2725 c -8.23361,-24.741997 -25.69318,-37.615031 -51.05373,-37.642165 -29.2521,-0.03132 -54.43881,24.307968 -64.93809,62.753175 -3.79722,13.90426 -8.51143,56.71617 -6.47006,58.75755 0.60746,0.60746 2.28845,-0.55389 3.73553,-2.58077 6.76774,-9.47946 21.10372,-22.05107 30.70913,-26.92968 26.85579,-13.64012 54.21117,-14.30462 80.69121,-1.9601 14.61323,6.81243 35.33077,27.93071 42.5636,43.3869 24.0215,51.33277 3.65329,120.67674 -42.28341,143.95462 -19.53429,9.89877 -48.24689,12.87347 -71.03,7.35887 z m 49.00532,-32.22828 c 16.55359,-8.27804 28.82455,-23.88085 33.99036,-43.21955 3.35354,-12.55426 3.1571,-38.56899 -0.3839,-50.8385 -3.88745,-13.46998 -14.09248,-28.06589 -24.39327,-34.88884 -23.64225,-15.65998 -57.87381,-12.14364 -77.46254,7.95711 -12.72781,13.0605 -17.5936,25.10471 -18.46538,45.70711 -1.7053,40.29993 17.66026,70.86044 50.26078,79.31587 9.11219,2.3634 27.79648,0.2962 36.45395,-4.0332 z"> </path>
</g>
</svg>
</g>
</svg>

</svg>


<!--7-->
<svg x="52%" y="54%">

<svg width="18%" height="24%">
<rect class="box"/>
</svg>

<svg width="18%" height="24%">
<g transform="scale(1, 1)">
<svg>
<line class="line" x1="50%" y1="25%" x2="50%" y2="65%"/>
</svg>
</g>
</svg>

<svg class="button" x="4.5%" y="0%" width="9%" height="12%">
<g transform="scale(1, 1)">
<svg class="btnCoff">
<circle class="circle" cx="50%" cy="50%" r="40%"/>
</svg>
<svg x="18%" y="19%" viewBox="0 0 400 400">
<g transform='scale(0.63 0.63)' class="btnToff">
<path d="m 140.98091,351.34224 c 0.0168,-13.58986 4.97377,-43.867 11.57509,-70.70154 15.97709,-64.94729 46.39458,-128.96012 86.18299,-181.369964 L 253.59895,79.69701 H 174.36871 95.138484 V 61.555505 43.413996 H 199.21345 303.28843 v 14.364911 c 0,13.999171 -0.18734,14.570462 -7.36051,22.438187 -21.44234,23.518736 -48.59975,66.365736 -68.98288,108.836196 -27.15358,56.57743 -38.83097,96.98804 -46.89641,162.28895 l -1.12034,9.07076 h -18.97931 -18.97932 l 0.0112,-9.07076 z"> </path>
</g>
</svg>
</g>
</svg>

</svg>


<!--8-->
<svg x="78%" y="57%">

<svg width="18%" height="24%">
<rect class="box"/>
</svg>

<svg width="18%" height="24%">
<g transform="scale(1, 1)">
<svg>
<line class="line" x1="75%" y1="25%" x2="45%" y2="55%"/>
</svg>
</g>
</svg>

<svg class="button" x="9%" y="0%" width="9%" height="12%">
<g transform="scale(1, 1)">
<svg class="btnCoff">
<circle class="circle" cx="50%" cy="50%" r="40%"/>
</svg>
<svg x="17%" y="17%" viewBox="0 0 400 400">
<g transform='scale(0.65 0.65)' class="btnToff">
<path d="m 173.4216,357.85439 c -27.63349,-5.99601 -54.31184,-25.96967 -65.53331,-49.06377 -16.39434,-33.73997 -11.85335,-74.95142 10.94425,-99.32391 7.88321,-8.42778 27.42723,-20.39198 33.31117,-20.39198 5.9722,0 3.5309,-3.69646 -5.29228,-8.01324 -12.81432,-6.26945 -24.7581,-18.24441 -30.66046,-30.74043 -6.58446,-13.94015 -6.75386,-39.73309 -0.36777,-55.996616 8.07932,-20.57572 25.26277,-37.015714 47.69133,-45.627939 13.08974,-5.026254 44.20637,-6.92879 59.93125,-3.66432 25.11933,5.21475 47.56127,22.510469 58.74514,45.274139 5.9894,12.190856 6.32754,13.916606 6.32754,32.294726 0,17.49562 -0.50732,20.44867 -5.12985,29.86168 -5.90103,12.01641 -15.6452,21.53503 -28.94404,28.27407 -5.11134,2.59011 -9.29333,4.99651 -9.29333,5.34757 0,0.35106 5.26669,3.23107 11.70374,6.40001 29.55607,14.55042 45.50407,40.72397 45.50407,74.6804 0,44.39145 -30.60028,81.3791 -75.13257,90.81538 -15.53004,3.29077 -38.30456,3.23755 -53.80488,-0.12586 z m 55.88163,-32.86153 c 12.53903,-5.78235 24.37317,-17.69279 30.24784,-30.44282 4.02209,-8.72933 4.82246,-13.15937 4.89285,-27.08193 0.0766,-15.14942 -0.45648,-17.74381 -5.93131,-28.86667 -7.02578,-14.27385 -17.07083,-24.04705 -31.59403,-30.73898 -8.66934,-3.99461 -13.09671,-4.78931 -26.97996,-4.84284 -14.14303,-0.0545 -18.14843,0.65493 -26.97997,4.77881 -14.04218,6.55699 -24.47622,16.42104 -30.63424,28.96079 -4.57113,9.3083 -5.12985,12.45597 -5.12985,28.90016 0,16.01305 0.63228,19.79674 4.77992,28.60391 8.847,18.78589 20.27127,28.40134 40.47745,34.06862 13.76846,3.86167 34.42967,2.38917 46.8513,-3.33905 z M 215.95183,170.5606 c 11.65129,-3.23609 23.78493,-12.90241 29.86709,-23.79377 4.62031,-8.2736 5.59929,-12.12077 5.6352,-22.14495 0.0562,-15.67283 -3.16532,-24.653049 -12.46166,-34.738376 -11.99014,-13.00777 -19.53135,-16.12063 -39.05384,-16.12063 -19.01967,0 -26.5436,2.96248 -38.20223,15.04182 -8.89597,9.216987 -12.72887,18.768996 -12.79158,31.877916 -0.0774,16.18537 2.99158,24.66731 12.75305,35.24632 13.17907,14.28285 34.65599,20.07493 54.25397,14.63167 z"> </path>
</g>
</svg>
</g>
</svg>

</svg>


</svg> 
