<svg xmlns="http://www.w3.org/2000/svg" viewBox="0 0 512 384">
<rect width="512" height="384" id="P014WIImgRct7" fill="#fff"/>

  <!-- peach -->
  <path
     
     style="fill:#d40000;stroke-width:1.6060164"
     d="m 143.93224,169.16112 c 1.03275,6.7128 25.81857,99.65975 34.08055,115.66727 15.41111,25.23151 27.57434,45.24013 66.09558,45.9571 6.57931,0.28468 21.6966,-5.7337 25.30226,-14.45838 2.47119,-5.97961 0,-11.87659 7.2292,-5.68011 7.22921,6.19647 12.39291,10.3274 22.72037,10.84383 10.32744,0.51656 25.30221,-1.54911 37.17878,-16.00752 15.49792,-16.37669 23.76167,-35.85465 21.68766,-58.86644 1.03267,-4.13092 10.32733,-11.36015 11.8765,-23.75312 1.54916,-12.39294 -4.15236,-91.23788 -7.7455,-104.30711 -4.67335,-16.99796 -33.08832,-29.49655 -38.72796,-26.33499 -6.28862,-12.23823 -46.89167,-32.734567 -65.57925,-14.45839 -5.16371,5.6801 -7.1112,13.40264 -12.39292,9.8111 -6.45464,-4.38922 -18.07302,-7.22923 -24.78585,-6.19649 -6.71286,1.03269 -26.33497,9.29467 -30.98232,12.90934 -15.85927,8.36905 -20.43644,15.719 -24.78587,34.08047 -11.93246,7.68691 -22.72283,27.63347 -21.17123,40.79344 0,0 0,0 0,0"
     id="path142" />
  <path
     
     style="fill:#d40000;stroke-width:1.6060164"
     d="m 168.71808,136.11322 c 2.0655,1.0328 18.58939,3.61467 22.20401,9.29477 3.6146,5.68005 10.84381,11.36016 10.84381,11.36016 0,0 23.75311,-10.84377 35.11328,-11.87653 11.36019,-1.03274 33.56418,5.16367 38.7279,7.22923 5.16372,2.06544 6.19645,-13.94209 16.00755,-19.62219 9.81105,-5.6801 24.78584,-6.19642 24.78584,-6.19642 0,0 -5.68008,-6.71285 -2.06548,-17.55664 3.6146,-10.84384 10.32742,-13.94209 10.32742,-13.94209 0,0 19.62215,3.61457 23.75308,6.1965 4.13099,2.58186 14.45848,24.26949 14.45848,24.26949 0,0 -3.09832,6.71285 -12.39298,8.77829 -9.29467,2.06543 -16.52388,7.74559 -17.04024,14.45839 -0.51635,6.71285 -6.19647,10.32746 -10.32745,11.36021 -4.13097,1.03276 -13.94204,2.58186 -17.04027,10.32741 -3.09823,7.74566 -13.94204,15.4912 -22.72038,11.87659 -8.7783,-3.61461 -16.52388,11.36022 -13.42565,24.26949 3.09823,12.90926 1.54911,87.78323 1.54911,90.88146 0,3.09818 -3.61459,21.17126 -5.16374,23.2367 -1.5491,2.06548 -17.04025,8.77834 -17.04025,8.77834 0,0 6.19646,-32.53147 7.22919,-50.0881 1.03275,-17.55664 1.03275,-43.89156 -5.16371,-64.54651 -6.19646,-20.65479 -18.073,-43.89154 -23.75311,-37.69513 -5.6801,6.1965 -5.16371,16.52397 -17.04028,7.22925 -11.87654,-9.29468 -8.77831,-16.00752 -25.30222,-12.39297 -16.52391,3.61461 -16.52391,-5.68011 -24.26948,-5.68011 -7.74558,0 -5.16371,20.65494 -5.16371,20.65494 0,0 -9.81108,-16.52395 -7.74558,-24.78588 2.06548,-8.2619 14.45842,-26.85133 14.45842,-26.85133 0,0 8.26194,-1.54907 11.36017,-7.22918 3.09823,-5.68011 10.32745,-15.49119 18.5894,-21.68763 8.26194,-6.19653 25.30222,-17.04027 33.0478,-14.97483 7.74559,2.0655 9.81106,2.58187 13.94204,7.22918 4.13096,4.64741 9.81107,7.74565 9.81107,7.74565 0,0 8.77831,-9.29472 14.97478,-12.39296 6.19646,-3.09823 1.54912,-11.87653 13.94204,-12.90928 12.39294,-1.03279 29.94957,-1.03279 33.04781,7.22918 3.09824,8.26197 -8.77834,22.20406 -8.77834,22.20406 0,0 -9.81105,-10.84385 -11.87653,-12.39297 -2.0655,-1.54912 -16.52392,-1.54912 -20.65488,5.16373 -4.13098,6.71279 -20.65488,11.36022 -20.65488,11.36022 0,0 -4.64734,-9.81109 -16.52392,-3.61468 -11.87654,6.19649 -29.94957,24.26951 -35.62965,25.30219 -5.68011,1.0328 -28.40047,0 -28.40047,0 0,0 0,0 0,0"
     id="path144" />
  <path
     
     style="fill:#aa0000;stroke-width:1.6060164"
     d="m 187.80954,142.05858 c 0,0 37.16992,-5.05222 37.16992,-5.05222 0,0 -6.13483,-5.41309 -6.13483,-5.41309 0,0 17.68279,-3.96959 17.68279,-3.96959 0,0 9.02183,-11.90882 9.02183,-11.90882 0,0 28.50897,-3.96959 28.50897,-3.96959 0,0 16.96102,9.02182 16.96102,9.02182 0,0 6.49573,9.74353 5.05223,9.74353 -1.44349,0 -19.84802,22.01328 -19.84802,22.01328 0,0 -23.45675,-4.69137 -23.45675,-4.69137 0,0 -16.96103,6.49573 -16.96103,6.49573 0,0 -7.93921,-8.66096 -7.93921,-8.66096 0,0 -16.60017,6.13487 -16.60017,6.13487 0,0 4.69135,-9.02187 4.69135,-9.02187 0,0 -28.1481,-0.72172 -28.1481,-0.72172"
     id="path146" />
  <path
     
     style="fill:#5f6e06;stroke-width:1.6060164"
     d="m 229.1336,143.85888 c 0,0 -6.71282,-1.54913 -6.71282,-1.54913 0,0 7.74558,-2.06555 7.74558,-2.06555 0,0 -2.0655,-5.68005 -2.0655,-5.68005 0,0 7.22921,0 7.22921,0 0,0 0,-4.64735 0,-4.64735 0,0 5.68011,1.03274 5.68011,1.03274 0,0 4.64733,-7.22916 4.64733,-7.22916 0,0 6.71284,3.61462 8.77832,3.09818 2.06548,-0.51656 9.81107,-6.71286 9.81107,-6.71286 0,0 13.94204,1.0328 16.00753,2.58187 2.06549,1.54912 7.74557,1.54912 7.74557,1.54912 0,0 0,6.71285 0,6.71285 0,0 -2.58183,3.09825 -4.13096,7.74561 -1.54912,4.64734 -7.22921,13.4257 -7.22921,13.4257 0,0 -15.49117,-8.26197 -26.85135,-7.74567 -11.36018,0.51656 -20.65488,-0.51654 -20.65488,-0.51654 0,0 0,2.4e-4 0,2.4e-4"
     id="path148" />
  <path
     
     style="fill:#8fa309;stroke-width:1.6060164"
     d="m 244.10837,131.98235 c 0,0 3.09825,-32.01515 7.22923,-41.82613 6.25249,-9.96886 16.23402,-29.675976 26.33497,-36.66245 22.49753,-6.071814 29.27175,8.375777 34.59694,23.75311 0,0 -2.58187,4.13093 -10.32746,6.19648 -7.74558,2.06543 -20.65488,3.61456 -25.81859,13.94204 -5.16371,10.32745 -7.22923,38.72782 -7.22923,38.72782 0,0 1.54913,3.0983 -5.68007,4.13098 -7.22921,1.03281 -7.74558,2.58187 -13.94204,0.51656 -6.19646,-2.06556 -5.16375,-8.77834 -5.16375,-8.77834 0,0 0,-7e-5 0,-7e-5"
     id="path150" />
  <path
     
     style="fill:#aa0000;stroke-width:1.6060164"
     d="m 346.23283,168.04144 c 15.14209,11.76472 13.1858,53.82557 23.45675,58.82231 -3.3397,8.77494 -7.27043,13.74195 -11.5479,18.76541 0,-19.98949 -6.14382,-58.56021 -11.90885,-77.58772 0,0 0,0 0,0"
     id="path152" />
  <path
     
     style="fill:#aa0000;stroke-width:1.6060164"
     d="m 272.61472,244.90738 c 15.7902,13.2152 -3.6967,87.51289 57.37883,67.12241 -13.21437,15.29242 -49.64497,10.36529 -57.37883,-4.33045 0,0 0,-62.79196 0,-62.79196"
     id="path154" />
  <path
     
     style="fill:#aa0000;stroke-width:1.6060164"
     d="m 159.30057,224.33761 c 4.84351,3.59616 39.59676,94.6184 89.13565,106.09668 -28.53972,11.11839 -69.985,-34.79556 -68.56588,-42.94385 -8.56386,-20.36801 -16.73721,-40.89226 -20.56977,-63.15283 0,0 0,0 0,0"
     id="path156" />
</svg>
