<svg xmlns="http://www.w3.org/2000/svg" viewBox="0 0 512 384">
<rect width="512" height="384" id="P014WIImgRct6" fill="#fff"/>

  <!-- pear -->
  <path
     
     style="fill:#8fa309;stroke-width:0.92469871"
     d="m 315.33889,145.57345 c -9.50755,53.73948 28.3729,101.79093 97.3453,146.1137 17.9446,11.34485 -20.79348,66.83497 -40.71117,56.83309 -56.25138,-52.75982 -110.88953,-87.91892 -160.39412,-66.93133 -16.11563,-29.86422 -32.23055,-59.72702 -48.34479,-89.58984 44.27848,-20.07033 88.5575,-40.14134 132.83792,-60.21235 6.42099,4.59605 12.84463,9.19207 19.26686,13.78673"
     id="path116" />
  <path
     
     style="fill:#5f6e06;stroke-width:0.92469871"
     d="m 301.92056,143.13905 c -3.79452,33.55615 3.90482,67.65794 27.69963,102.52101 -26.57574,-32.01559 -45.62696,-63.25396 -57.56583,-93.75533 -7.93166,5.03008 -15.86543,10.06083 -23.79779,15.09088 12.63652,26.37541 32.70202,51.1527 61.21852,74.11209 -29.32145,-18.20249 -55.42363,-38.0059 -76.69542,-60.21373 -7.17667,6.06034 -14.35248,12.12068 -21.52848,18.18032 26.82403,9.68641 50.99458,24.54711 74.33739,41.02046 -27.71488,-12.58034 -56.19035,-21.89238 -85.33069,-28.35344 -1.93023,11.57988 -3.86046,23.16045 -5.79139,34.74103 28.93449,-6.73425 60.12358,1.83038 91.92843,14.57851 -39.18386,-10.15442 -77.2286,-11.288 -105.96882,2.64782 4.96768,-31.60101 9.76966,-71.79364 14.73717,-103.39253 26.67849,-9.43822 53.35822,-18.87642 80.03514,-28.31463 8.9079,3.71343 17.81565,7.4248 26.72214,11.13754"
     id="path118" />
  <path
     
     style="fill:#5f6e06;stroke-width:0.92469871"
     d="m 182.98033,65.113153 c -0.79179,1.541962 -1.35689,3.13937 -1.71124,4.75689 -8.85915,-1.65289 -18.1158,2.592337 -22.43861,11.021068 -1.55589,3.032586 -2.29772,6.266257 -2.30948,9.456919 -4.40117,0.34806 -8.52515,2.90019 -10.68822,7.11767 -1.34164,2.61522 -1.72369,5.471 -1.27378,8.16387 -3.77788,1.15925 -7.10305,3.78347 -9.04854,7.57735 -0.56912,1.11 -0.98729,2.25675 -1.26397,3.41807 -5.32535,-0.17341 -10.52727,2.66722 -13.12043,7.72363 -1.99667,3.89161 -2.02297,8.27342 -0.4499,12.01181 -3.53312,1.00185 -6.65876,3.41046 -8.46818,6.9367 -3.45702,6.7398 -0.7946,15.00697 5.94516,18.46321 3.37372,1.73122 7.13022,1.92744 10.47467,0.84862 1.02974,5.04669 4.25916,9.59905 9.19984,12.13315 8.63527,4.42896 19.22655,1.01988 23.65613,-7.61546 2.59859,-5.0675 2.49743,-10.80753 0.22671,-15.58036 0.59419,-0.64755 1.14614,-1.34574 1.64461,-2.09453 8.79412,1.98153 18.14842,-2.12711 22.45316,-10.5184 1.27028,-2.47725 1.9809,-5.09453 2.1778,-7.70629 8.43434,-0.12624 16.52539,-4.786 20.64445,-12.81676 4.39487,-8.56741 3.03464,-18.57137 -2.6575,-25.60305 4.9426,-1.46985 9.29943,-4.877528 11.83841,-9.82855 4.93367,-9.619178 1.13562,-21.41468 -8.48273,-26.349067 -9.61853,-4.93299 -21.41468,-1.13565 -26.34836,8.48351"
     id="path120" />
  <path
     
     style="fill:#8fa309;stroke-width:0.92469871"
     d="m 190.19296,81.416654 c -1.03025,2.00925 -1.46507,4.168958 -1.36794,6.273877 -0.59489,-0.611512 -1.29867,-1.137749 -2.10011,-1.548889 -3.96654,-2.034901 -8.83147,-0.468665 -10.86585,3.498508 -1.51207,2.94456 -1.03638,6.38551 0.93329,8.79481 -0.55949,0.56922 -1.05182,1.21955 -1.45806,1.94546 -0.12445,-0.0707 -0.253,-0.1401 -0.38275,-0.20729 -4.06068,-2.08275 -8.86828,-1.16271 -11.89398,1.94269 -0.12799,-0.0742 -0.25862,-0.14763 -0.39169,-0.21562 -3.65094,-1.87337 -8.12857,-0.43125 -10.00112,3.21909 -1.34918,2.63185 -0.97694,5.6915 0.70292,7.89626 -1.03429,0.88538 -1.91551,1.98083 -2.57493,3.26625 -0.69677,1.36029 -1.07742,2.79826 -1.16965,4.23064 -3.23713,-0.74599 -6.68925,0.76128 -8.27408,3.85073 -1.63285,3.18304 -0.74674,6.99217 1.92392,9.15811 -1.74087,0.97481 -3.224,2.45575 -4.20358,4.36515 -2.64646,5.16041 -0.60945,11.48975 4.55091,14.13548 5.16038,2.64781 11.48915,0.61012 14.13561,-4.54958 0.33278,-0.64966 0.5914,-1.31593 0.77917,-1.99123 2.81847,-0.0298 5.54172,-1.35406 7.2882,-3.69055 0.4264,0.28842 0.87508,0.55327 1.34445,0.79455 6.38961,3.27664 14.22485,0.75295 17.50145,-5.63535 1.52609,-2.97643 1.79434,-6.26555 0.99991,-9.26209 1.08496,-0.83893 2.00773,-1.9233 2.67469,-3.22395 1.91287,-3.73078 1.1607,-8.12575 -1.55782,-11.01275 1.99686,-0.79663 3.72458,-2.29005 4.78322,-4.35338 0.28211,-0.55259 0.50548,-1.11972 0.66908,-1.6945 3.70931,1.03098 7.75755,-0.64547 9.5824,-4.20637 0.60175,-1.17171 0.89647,-2.4197 0.91453,-3.65313 4.0102,-0.46244 7.72285,-2.8551 9.70375,-6.71622 3.15106,-6.14353 0.72587,-13.678576 -5.41829,-16.829034 -6.14223,-3.151142 -13.67728,-0.725222 -16.82765,5.418328"
     id="path122" />
  <path
     
     style="fill:#5f6e06;stroke-width:0.92469871"
     d="m 227.0707,67.116854 c -5.56943,10.858136 -1.28115,24.174796 9.57627,29.744276 8.77256,4.49965 19.14957,2.5639 25.74994,-4.07122 1.82274,2.20618 4.11486,4.08576 6.82304,5.47519 3.88131,1.99053 8.0835,2.6998 12.12209,2.28312 -2.04875,7.35892 0.44657,15.2843 6.31756,20.14657 -1.88236,1.55792 -3.48665,3.51515 -4.67295,5.82599 -4.68136,9.1276 -1.07741,20.32201 8.0495,25.00263 9.12619,4.682 20.3206,1.07811 25.00249,-8.04949 2.19516,-4.27849 2.56669,-9.01319 1.40476,-13.31596 7.84154,0.79802 15.73007,-3.18373 19.54407,-10.62033 4.917,-9.58795 1.2217,-21.32175 -8.24358,-26.38163 3.37514,-2.26856 6.23988,-5.399603 8.22621,-9.273887 6.2669,-12.214974 1.44282,-27.198375 -10.77291,-33.464633 -5.11039,-2.620771 -10.70348,-3.300212 -15.94152,-2.311534 -1.88096,-4.230672 -5.16529,-7.872006 -9.60591,-10.149557 -7.40549,-3.798718 -16.01306,-2.776066 -22.2433,1.914246 -1.00658,-0.828511 -2.11661,-1.563425 -3.32447,-2.18326 -9.05624,-4.64526 -20.16457,-1.069099 -24.81051,7.98776 -1.55729,3.036776 -2.18954,6.303006 -2.00088,9.479817 -8.55287,-0.593481 -17.03929,3.850723 -21.1999,11.961902"
     id="path124" />
  <path
     
     style="fill:#5f6e06;stroke-width:0.92469871"
     d="m 116.66668,194.39436 c -3.56503,6.94988 -1.79154,15.22746 3.81048,20.16531 -2.16307,1.77281 -4.00668,4.0081 -5.36498,6.6559 -2.52916,4.9316 -2.91752,10.39706 -1.50996,15.33839 -6.20675,-0.64757 -12.45556,2.49804 -15.474314,8.38436 -3.924921,7.65219 -0.903431,17.03841 6.748714,20.96401 1.64184,0.84169 3.36483,1.36308 5.09606,1.58979 -0.66363,8.12575 3.19278,16.23069 10.41506,20.72897 -0.42851,0.65243 -0.82722,1.33396 -1.19243,2.04462 -5.47385,10.67231 -1.25993,23.76018 9.41182,29.23465 8.59231,4.40677 18.75156,2.53134 25.24112,-3.93598 1.06971,0.87704 2.24705,1.65703 3.52891,2.31362 9.68795,4.97111 21.57072,1.14467 26.5405,-8.54453 0.71956,-1.40259 1.25486,-2.85303 1.61411,-4.32078 9.66412,1.20499 19.48306,-3.62539 24.1844,-12.79389 5.70196,-11.11536 1.8366,-24.61437 -8.57021,-31.11288 l 0.0667,-0.12484 c 8.62913,-16.8228 1.98633,-37.45678 -14.83781,-46.08588 -11.98061,-6.14492 -25.89425,-4.54265 -36.02789,2.96603 -1.59115,-2.03698 -3.57958,-3.80565 -5.92639,-5.17912 0.75778,-0.91727 1.42895,-1.92813 1.99316,-3.03051 4.21481,-8.2138 0.97064,-18.28848 -7.24454,-22.50181 -8.21376,-4.21333 -18.28834,-0.96994 -22.50174,7.24454"
     id="path126" />
  <path
     
     style="fill:#8fa309;stroke-width:0.92469871"
     d="m 123.2851,215.61142 c -2.59157,5.05642 -0.59613,11.25613 4.45887,13.84914 1.37828,0.7072 2.84195,1.07119 4.2944,1.12665 -3.57835,1.27988 -6.69681,3.87014 -8.56882,7.51841 -2.82671,5.51122 -2.0335,11.92445 1.50522,16.52881 -1.54818,0.99492 -2.86212,2.39683 -3.76262,4.15163 -2.71852,5.29976 -0.62611,11.80104 4.67505,14.52027 0.95118,0.48879 1.94128,0.81949 2.93962,1.00741 0.45288,3.73215 2.68941,7.17866 6.28635,9.02289 3.08952,1.58424 6.55337,1.66466 9.5561,0.50889 1.06708,1.20569 2.3712,2.23736 3.89026,3.01596 1.48227,0.76127 3.04166,1.21472 4.6051,1.38805 -0.33699,0.42778 -0.63785,0.89506 -0.89577,1.39912 -2.1785,4.24659 -0.50127,9.45553 3.74527,11.63464 4.24794,2.17843 9.45757,0.50128 11.63607,-3.74532 0.77163,-1.50312 1.05935,-3.12689 0.92066,-4.69381 7.18633,2.22351 15.1457,-0.96025 18.69687,-7.88377 3.98039,-7.75827 0.91663,-17.27345 -6.84162,-21.25172 -2.08067,-1.06843 -4.28897,-1.62796 -6.48254,-1.72847 0.32085,-6.5526 -3.13389,-12.99981 -9.35309,-16.18979 -0.36469,-0.18721 -0.73271,-0.35914 -1.10582,-0.51862 2.94803,-8.0155 -0.4818,-17.15419 -8.27407,-21.15189 -4.13154,-2.1195 -8.72137,-2.39821 -12.83763,-1.13913 1.23836,-4.58634 -0.843,-9.57063 -5.23945,-11.82672 -5.05499,-2.59233 -11.25472,-0.59625 -13.84841,4.45737"
     id="path128" />
  <path
     
     style="fill:#8fa309;stroke-width:0.92469871"
     d="m 245.06605,78.049179 c -4.25845,8.304617 -0.98045,18.489541 7.32415,22.748641 6.88686,3.53178 15.0645,1.88098 20.08706,-3.51933 1.64865,2.65197 4.01562,4.90458 6.99627,6.43405 4.7222,2.42178 10.01987,2.53133 14.6041,0.74948 -2.56529,5.27758 -1.22015,11.48074 2.95644,15.25589 -1.56835,0.92835 -2.90226,2.29558 -3.79453,4.03722 -2.52163,4.91426 -0.58036,10.93994 4.33385,13.46087 4.91508,2.52022 10.9414,0.58031 13.46163,-4.33327 1.8082,-3.52554 1.32007,-7.62379 -0.91383,-10.58913 2.97362,-1.07326 5.56397,-3.23227 7.1197,-6.26625 2.56055,-4.994 1.56485,-10.87409 -2.0591,-14.75115 2.29492,-1.21192 4.25355,-3.1151 5.52786,-5.59929 3.3022,-6.43818 0.7599,-14.334445 -5.67759,-17.636756 -1.91637,-0.982437 -3.9604,-1.44696 -5.97514,-1.445573 0.55406,-5.457127 -2.21724,-10.945492 -7.39216,-13.600228 -4.90807,-2.516752 -10.62529,-1.790836 -14.70684,1.391506 -0.57053,-3.700266 -2.8474,-7.085079 -6.43398,-8.923759 -5.94182,-3.048547 -13.23071,-0.701643 -16.27921,5.240138 -1.39302,2.715729 -1.65777,5.712974 -0.97064,8.456444 -7.18141,-1.374158 -14.70122,2.055022 -18.20804,8.890497"
     id="path130" />
  <path
     
     style="fill:#5f6e06;stroke-width:0.92469871"
     d="m 157.85002,229.59854 c -4.25828,15.34808 2.67838,32.09046 17.4073,39.64561 16.85061,8.64226 37.51647,1.98914 46.15804,-14.86069 4.42819,-8.63119 4.84004,-18.26144 1.92532,-26.76713 4.99748,-3.13729 9.24402,-7.61962 12.13314,-13.25149 2.89052,-5.63672 4.05245,-11.70329 3.68443,-17.59724 10.89197,2.19299 22.28608,-2.17288 28.86645,-11.38505 11.17566,1.84562 22.73616,-3.58657 28.18355,-14.2069 5.85644,-11.41903 2.71852,-25.07888 -6.81111,-32.90371 3.01027,-2.16665 5.5652,-5.05711 7.37481,-8.58475 6.09576,-11.88632 1.40195,-26.46413 -10.4838,-32.56123 -4.61333,-2.36561 -9.63027,-3.10539 -14.40088,-2.43216 -1.90043,-4.21473 -5.18754,-7.837347 -9.62064,-10.112134 -6.77447,-3.475618 -14.55218,-2.938997 -20.62007,0.73631 -1.9241,-4.052455 -5.14581,-7.528795 -9.44584,-9.73495 -10.39086,-5.330269 -23.13556,-1.227177 -28.46513,9.163671 -1.58148,3.084573 -2.33173,6.375093 -2.33435,9.618453 -7.26401,9.3e-4 -14.2687,3.97067 -17.81162,10.87823 -2.53617,4.94271 -2.81337,10.44841 -1.21399,15.34187 -5.29065,2.64294 -9.86242,6.83616 -12.95669,12.33907 -9.33712,-3.10261 -19.79794,0.97758 -24.42723,10.00326 -3.8687,7.54198 -2.55634,16.37562 2.6277,22.44357 -6.08122,3.16849 -11.27279,8.18608 -14.64021,14.74907 -8.64158,16.84984 -1.98843,37.51572 14.8613,46.15939 3.23364,1.65772 6.60739,2.7504 10.00952,3.31893"
     id="path132" />
  <path
     
     style="fill:#8fa309;stroke-width:0.92469871"
     d="m 193.91194,121.68555 c -0.88613,1.11903 -1.67723,2.3157 -2.36226,3.57963 -5.59922,0.71689 -10.75484,4.09477 -13.51563,9.47773 -0.82494,1.60712 -1.39003,3.30993 -1.6923,5.05226 -3.34393,2.02795 -6.12907,4.9302 -8.02669,8.46477 -6.04299,1.08783 -11.44813,4.91149 -14.39405,10.65499 -4.23549,8.25679 -2.22478,18.07632 4.2944,24.06248 -2.78778,9.36818 0.43342,19.55795 8.06965,25.62592 -1.20154,8.62008 3.06235,17.43777 11.24228,21.63305 10.33739,5.30185 23.02389,1.21749 28.32627,-9.11997 1.53924,-3.00209 2.31719,-6.27942 2.3214,-9.56855 2.30736,-1.9087 4.22374,-4.28058 5.61937,-7.00048 2.21515,-4.3194 2.92717,-9.15604 2.16026,-13.79575 4.82006,-1.09405 9.25245,-3.50474 12.78766,-6.95818 11.66799,4.36656 25.01864,-0.60943 30.84333,-11.9626 3.54977,-6.92422 3.60728,-14.96815 0.445,-21.81056 1.40125,-3.58448 1.91988,-7.41717 1.558,-11.18677 1.82748,-1.60989 3.36041,-3.56507 4.50024,-5.78647 4.95873,-9.66701 1.13913,-21.53117 -8.52849,-26.48842 -3.66075,-1.8789 -7.75352,-2.53686 -11.71655,-1.97943 -0.61349,-0.39797 -1.24995,-0.76613 -1.90516,-1.10238 -4.92472,-2.52716 -10.50256,-3.00695 -15.61646,-1.58286 -1.1863,-0.98522 -2.4848,-1.84493 -3.87641,-2.55768 -10.39911,-5.33443 -23.15906,-1.2258 -28.49354,9.17266 -2.1145,4.1232 -2.78778,8.74421 -2.04032,13.17661"
     id="path134" />
  <path
     
     style="fill:#5f6e06;stroke-width:0.92469871"
     d="m 234.78529,137.40042 c 2.22778,-0.58586 4.20779,-2.07997 5.34219,-4.29097 2.11661,-4.12735 0.48743,-9.18931 -3.64076,-11.30604 -2.47709,-1.27015 -5.28924,-1.19182 -7.60151,-0.0333 -0.81056,-0.94917 -1.81522,-1.75965 -2.99449,-2.36424 -3.64832,-1.87128 -7.91783,-1.2459 -10.86236,1.24798 -0.86525,-1.86157 -2.33366,-3.46036 -4.30263,-4.46915 -4.69591,-2.40931 -10.45679,-0.55467 -12.86533,4.14191 -1.51556,2.95425 -1.34374,6.32866 0.16131,9.02568 -1.55028,1.10931 -2.86685,2.59443 -3.79734,4.40746 -0.6489,1.26462 -1.05724,2.58957 -1.24451,3.92143 -3.33692,-1.60019 -7.36095,-0.25861 -9.06026,3.05409 -0.88543,1.72706 -0.9673,3.65382 -0.38345,5.35522 -3.04377,0.5609 -5.80384,2.47794 -7.32642,5.44607 -0.57684,1.12526 -0.92769,2.30875 -1.06901,3.49573 -3.88342,-0.99006 -8.07385,0.79038 -9.98041,4.50729 -2.21374,4.31733 -0.50951,9.61154 3.80839,11.82602 0.90629,0.46521 1.85816,0.75641 2.81425,0.88814 -0.77655,0.80842 -1.45122,1.74232 -1.98844,2.78993 -2.96889,5.78787 -0.68362,12.88681 5.10356,15.85423 0.73832,0.37995 1.49891,0.67251 2.26843,0.88398 -0.27035,0.37787 -0.51652,0.77999 -0.73551,1.2057 -2.38363,4.64872 -0.54913,10.35061 4.10101,12.73496 4.64875,2.38572 10.35055,0.54911 12.73488,-4.09963 1.29729,-2.52855 1.34585,-5.3691 0.37171,-7.81651 2.42518,-0.85626 4.53987,-2.60482 5.80647,-5.07375 1.68213,-3.27942 1.45805,-7.03306 -0.26476,-10.00118 0.66205,-0.77654 1.24661,-1.6425 1.73194,-2.59095 0.24125,-0.468 0.4513,-0.94569 0.63154,-1.42826 5.43775,0.44235 10.85882,-2.35729 13.50317,-7.51285 0.10702,-0.20729 0.20743,-0.41806 0.30228,-0.62746 0.85562,0.8223 1.84361,1.53571 2.95434,2.10634 6.11925,3.13935 13.62522,0.72311 16.76383,-5.39824 2.33367,-4.54818 1.59675,-9.86182 -1.4484,-13.57943 0.37028,-0.50611 0.70517,-1.0476 1.00044,-1.62237 1.78049,-3.47215 1.71596,-7.40398 0.16481,-10.67785"
     id="path136" />
  <path
     
     style="fill:#5f6e06;stroke-width:0.92469871"
     d="m 131.37754,242.72454 c -1.56273,3.04646 -1.24923,6.5623 0.51653,9.22812 -0.43676,0.50683 -0.82161,1.07119 -1.13983,1.69171 -2.00773,3.9145 -0.71272,8.65268 2.86141,11.03772 -1.95161,4.30898 -0.1934,9.4382 4.06296,11.62146 1.8836,0.96651 3.95182,1.19809 5.8752,0.80011 0.66697,2.34412 2.26512,4.41439 4.60369,5.61454 3.61622,1.85324 7.89344,1.05731 10.61337,-1.67786 0.46726,1.89973 1.72631,3.59488 3.60377,4.55791 3.43966,1.7659 7.65919,0.4063 9.42374,-3.03468 1.76453,-3.43957 0.40624,-7.65775 -3.03395,-9.42364 -2.45588,-1.25907 -5.30887,-0.92628 -7.38323,0.61914 -0.28297,-2.97019 -2.01894,-5.73933 -4.85598,-7.21889 0.1648,-0.25861 0.31962,-0.52693 0.46165,-0.80495 2.4315,-4.73955 0.56018,-10.55099 -4.17869,-12.98178 -1.77699,-0.91172 -3.70512,-1.21885 -5.54925,-0.9956 0.13852,-0.22187 0.26895,-0.45068 0.39098,-0.6878 2.30458,-4.49271 0.52969,-10.00325 -3.96372,-12.30785 -4.49271,-2.30462 -10.0039,-0.53109 -12.30865,3.96234"
     id="path138" />
  <path
     
     style="fill:#5f6e06;stroke-width:0.92469871"
     d="m 270,72.013115 c -1.72842,3.370925 -0.398,7.503126 2.97223,9.232285 1.03725,0.530398 2.14448,0.772345 3.23293,0.755035 -0.0982,3.266942 1.64743,6.455525 4.74799,8.046005 2.17149,1.11278 4.58896,1.22996 6.73555,0.51999 0.85843,1.64873 2.21726,3.05757 3.99705,3.96997 1.74438,0.89508 3.63918,1.18421 5.44668,0.94499 -0.7911,3.61569 0.90418,7.45046 4.35279,9.21982 4.10785,2.10631 9.14426,0.48395 11.25123,-3.62331 1.08161,-2.10908 1.17928,-4.46429 0.46303,-6.5415 1.50523,-3.11649 0.25512,-6.880536 -2.84053,-8.468253 -1.66672,-0.85555 -3.53453,-0.906852 -5.16177,-0.298113 -0.0964,-1.743705 -0.68223,-3.433351 -1.69161,-4.862288 0.61769,-0.611503 1.14947,-1.329097 1.56816,-2.143748 2.12433,-4.142603 0.48953,-9.223277 -3.65374,-11.348318 -4.14046,-2.124338 -9.22122,-0.488796 -11.34624,3.653817 -0.58246,1.136353 -0.88122,2.34204 -0.92418,3.538027 -0.0718,-0.03884 -0.14552,-0.07777 -0.21777,-0.115227 -1.96072,-1.005998 -4.1238,-1.198058 -6.10751,-0.70303 -0.39851,-1.975267 -1.65968,-3.757799 -3.59131,-4.748558 -3.37164,-1.727754 -7.50456,-0.397972 -9.23298,2.972277"
     id="path140" />
</svg>
