<?xml version="1.0" encoding="UTF-8" standalone="no"?>
<svg
   xmlns:dc="http://purl.org/dc/elements/1.1/"
   xmlns:cc="http://creativecommons.org/ns#"
   xmlns:rdf="http://www.w3.org/1999/02/22-rdf-syntax-ns#"
   xmlns:svg="http://www.w3.org/2000/svg"
   xmlns="http://www.w3.org/2000/svg"
   xmlns:sodipodi="http://sodipodi.sourceforge.net/DTD/sodipodi-0.dtd"
   xmlns:inkscape="http://www.inkscape.org/namespaces/inkscape"
   viewBox="0 0 512 384"
   version="1.1"
   id="svg16"
   sodipodi:docname="monopI05-wi4.svg"
   inkscape:version="0.92.3 (2405546, 2018-03-11)">
  <sodipodi:namedview
     pagecolor="#ffffff"
     bordercolor="#666666"
     borderopacity="1"
     objecttolerance="10"
     gridtolerance="10"
     guidetolerance="10"
     inkscape:pageopacity="0"
     inkscape:pageshadow="2"
     inkscape:window-width="1366"
     inkscape:window-height="705"
     id="namedview18"
     showgrid="true"
     inkscape:zoom="0.56054688"
     inkscape:cx="-48.167245"
     inkscape:cy="192"
     inkscape:window-x="-8"
     inkscape:window-y="-8"
     inkscape:window-maximized="1"
     inkscape:current-layer="svg16">
    <inkscape:grid
       spacingy="191.8"
       spacingx="256"
       id="grid829"
       type="xygrid" />
  </sodipodi:namedview>
  <metadata
     id="metadata22">
    <rdf:RDF>
      <cc:Work
         rdf:about="">
        <dc:format>image/svg+xml</dc:format>
        <dc:type
           rdf:resource="http://purl.org/dc/dcmitype/StillImage" />
        <dc:title />
      </cc:Work>
    </rdf:RDF>
  </metadata>
  <defs
     id="defs20" />
  <rect
     id="rect2"
     fill="none"
     height="384"
     width="512" />
  <!-- banana -->
  <path
     inkscape:connector-curvature="0"
     style="fill:#a0892c;stroke-width:1.85148692"
     d="m 380.5185,78.604683 c 37.15438,7.893385 57.27323,28.721407 60.21784,62.638267 2.59001,29.26099 -6.44421,57.68947 -27.16432,85.33171 -18.73136,24.32762 -43.05899,43.12064 -72.98291,56.2403 -32.57558,14.15258 -76.2975,23.5568 -131.22738,28.12015 -54.25155,4.94877 -93.76469,-6.4442 -118.400647,-34.02477 -23.063477,-25.34513 -28.59809,-57.87448 -16.788862,-97.68053 8.247965,-27.93514 30.401849,-47.51441 66.600379,-58.70698 14.4455,-4.64044 45.71068,-9.69712 93.76468,-15.29341 10.83799,-0.97126 33.54686,-8.07837 68.04954,-21.198024 24.99055,-9.219225 50.95237,-11.02298 77.93168,-5.426713 0,0 0,0 0,0"
     id="path62" />
  <path
     inkscape:connector-curvature="0"
     style="fill:#a0892c;stroke-width:1.85148692"
     d="m 395.44191,169.11737 c 9.58923,-7.23047 16.14136,-14.33759 19.76429,-21.19805 2.94459,-4.93335 4.45544,-4.93335 4.45544,0 0,7.52339 0.66293,11.80924 1.92708,12.76508 2.34335,1.69584 4.64045,0.37 6.92214,-3.91586 2.65168,-4.62502 3.97751,-10.65298 3.97751,-18.23801 0,-5.2417 -2.46668,-13.01174 -7.41545,-23.18679 -5.28796,-9.88215 -11.19257,-18.73137 -17.76011,-26.68641 23.66473,13.19675 34.99603,34.57978 34.02478,64.1491 -0.95584,26.00804 -10.17505,50.64402 -27.64224,74.00039 -18.73135,24.32764 -43.05898,43.12066 -72.9829,56.25573 -32.59102,14.15258 -76.31292,23.54139 -131.22739,28.12015 -51.96987,4.64045 -90.45008,-5.71961 -115.44064,-31.08018 25.65348,12.16383 57.21157,16.74261 94.72053,13.79801 25.29889,-1.92711 46.18858,-6.86046 62.63825,-14.75383 8.9109,-4.27044 18.42302,-9.69715 28.59809,-16.32634 8.5563,-3.25293 19.08593,-8.54089 31.61974,-15.77134 2.59002,-1.63418 8.5563,-2.96001 17.76011,-3.91586 8.55629,-1.03292 13.613,-2.34335 15.24718,-3.97751 0,0 9.38879,-10.83799 9.38879,-10.83799 -2.9446,-1.0175 -5.59629,-2.17375 -7.89338,-3.49959 -5.2417,-2.28168 -6.92212,-3.73085 -4.93337,-4.39378 0.95585,-0.35458 2.9446,-1.49543 5.90464,-3.48419 2.34333,-1.9271 5.59626,-3.43793 9.8667,-4.39378 5.61171,-1.69583 9.03422,-3.31459 10.36006,-4.94877 1.69584,-1.32584 2.46669,-3.97753 2.46669,-7.89338 0,-3.29919 -3.42254,-5.76587 -10.34464,-7.40003 0,0 -10.36006,-1.98877 -10.36006,-1.98877 0,0 22.21553,-7.89337 22.21553,-7.89337 7.23046,-2.28167 15.29343,-6.7371 24.14263,-13.30463 0,0 0,0 0,0"
     id="path64" />
  <path
     inkscape:connector-curvature="0"
     style="fill:#a0892c;stroke-width:1.85148692"
     d="m 438.26966,144.54306 c 0,0 -1.51086,-23.1868 -1.51086,-23.1868 6.25921,15.47843 6.92214,33.42352 1.98878,53.78904 -4.57879,18.73135 -12.82675,36.01352 -24.68223,51.78486 -18.73134,24.32762 -43.05898,43.12067 -72.99831,56.25572 -32.57561,14.15259 -76.2975,23.54138 -131.22738,28.12016 -42.75067,3.60752 -76.6521,-2.96003 -101.64266,-19.70262 13.48966,7.23047 29.92391,11.62424 49.37986,13.32008 18.42302,1.61876 41.91815,0.47793 70.51622,-3.4996 22.70887,-2.94459 43.12065,-6.73712 61.18908,-11.3159 12.82674,-2.96001 25.83849,-8.07837 38.95814,-15.29342 6.92212,-3.9775 15.60174,-9.21921 26.13139,-15.78675 9.58922,-5.30336 15.30884,-8.72587 17.29759,-10.36005 0.6475,-1.98876 1.49543,-4.27044 2.46668,-6.92212 1.98878,-5.24169 4.08545,-9.21922 6.38254,-11.80922 1.68043,-1.97335 6.73712,-6.61379 15.29341,-13.84425 8.55632,-7.58505 13.67467,-12.34881 15.29343,-14.27592 1.68043,-1.98875 6.75254,-8.06297 15.29342,-18.29969 8.24796,-11.80921 12.16382,-24.82095 11.8709,-38.97352 0,0 0,0 0,0"
     id="path66" />
  <path
     inkscape:connector-curvature="0"
     style="fill:#786721;stroke-width:1.85148692"
     d="m 213.27759,201.93867 c 13.19673,2.2971 16.61924,6.69088 10.36005,13.30468 -6.56754,6.93751 -12.47216,8.67962 -17.7601,5.42669 -3.91585,-2.34335 -5.0721,-6.08962 -3.43793,-11.37758 1.98876,-5.55001 5.59627,-8.01669 10.83798,-7.35379 0,0 0,0 0,0"
     id="path68" />
  <path
     inkscape:connector-curvature="0"
     style="fill:#786721;stroke-width:1.85148692"
     d="m 165.94815,144.66546 c 5.2417,-0.2929 6.56755,1.03292 3.91586,3.97753 -2.59002,3.31461 -5.24171,4.45543 -7.89339,3.43793 -2.28167,-0.66292 -2.775,-1.98875 -1.44916,-3.91585 0.97125,-1.98876 2.77502,-3.1296 5.42669,-3.49961 0,0 0,0 0,0"
     id="path70" />
  <path
     inkscape:connector-curvature="0"
     style="fill:#786721;stroke-width:1.85148692"
     d="m 256.21324,168.39184 c 8.5563,-1.32583 11.3313,1.15627 8.3713,7.41547 -3.25294,6.56752 -7.89337,9.15752 -13.78259,7.87794 -5.30336,-1.31042 -7.04544,-4.08544 -5.42668,-8.41753 1.63417,-3.91585 5.24168,-6.27461 10.83797,-6.87588 0,0 0,0 0,0"
     id="path72" />
  <path
     inkscape:connector-curvature="0"
     style="fill:#786721;stroke-width:1.85148692"
     d="m 138.78384,267.04362 c 7.23044,1.61875 8.72588,3.79253 4.45544,6.38253 -4.64044,2.65169 -8.72587,2.65169 -12.34883,0 -3.25293,-2.29709 -3.60751,-4.10085 -0.95583,-5.36503 2.28169,-1.3875 5.24169,-1.68043 8.84922,-1.0175 0,0 0,0 0,0"
     id="path74" />
  <path
     inkscape:connector-curvature="0"
     style="fill:#786721;stroke-width:1.85148692"
     d="m 272,238.92347 c 8.91087,-0.97127 11.37755,1.31041 7.40004,6.92212 -3.91586,5.24169 -8.55631,7.40004 -13.78259,6.38254 -3.97753,-0.97127 -4.64044,-3.43795 -1.98876,-7.41546 2.28167,-3.60751 5.0567,-5.53461 8.37131,-5.8892 0,0 0,0 0,0"
     id="path76" />
  <path
     inkscape:connector-curvature="0"
     style="fill:#786721;stroke-width:1.85148692"
     d="m 310.48021,133.82748 c 4.93334,-0.2929 6.56752,1.14085 4.93334,4.45546 -1.98875,3.31459 -4.76377,4.45544 -8.3713,3.43794 -3.31459,-0.66293 -4.45543,-2.11211 -3.48417,-4.45546 1.0175,-1.92709 3.29917,-3.06794 6.92213,-3.43794 0,0 0,0 0,0"
     id="path78" />
  <path
     inkscape:connector-curvature="0"
     style="fill:#786721;stroke-width:1.85148692"
     d="m 349.91626,159.00304 c 8.55628,-3.60751 12.1638,-2.65168 10.83797,2.94461 -1.61876,5.90461 -5.05669,8.74129 -10.34465,8.37129 -4.28585,-0.29292 -6.08962,-2.09668 -5.36501,-5.41128 0.60125,-2.59001 2.28167,-4.57877 4.87169,-5.90462 0,0 0,0 0,0"
     id="path80" />
  <path
     inkscape:connector-curvature="0"
     style="fill:#786721;stroke-width:1.85148692"
     d="m 312.94687,195.49448 c 8.9109,-0.95583 11.8555,1.14083 8.9109,6.44419 -3.31462,5.24171 -8.24797,7.52339 -14.81552,6.92214 -5.96626,-1.01751 -7.40003,-3.48419 -4.45543,-7.46172 2.65168,-3.60751 6.08961,-5.59628 10.36005,-5.90461 0,0 0,0 0,0"
     id="path82" />
  <path
     inkscape:connector-curvature="0"
     style="fill:#786721;stroke-width:1.85148692"
     d="m 350.40958,201.39909 c 4.93336,0 6.6138,1.32586 4.93336,3.97753 -1.63418,2.65168 -4.27043,3.60752 -7.89337,2.94459 -2.9446,-0.66291 -3.91586,-1.98875 -2.9446,-3.97751 1.32585,-1.92711 3.3146,-2.94461 5.90461,-2.94461 0,0 0,0 0,0"
     id="path84" />
  <path
     inkscape:connector-curvature="0"
     style="fill:#786721;stroke-width:1.85148692"
     d="m 373.10306,98.84688 c 5.61168,-1.03292 7.77003,0.66292 6.44419,4.87171 -1.32584,4.27043 -3.60751,5.96627 -6.92212,4.93334 -2.65168,-0.95584 -3.79253,-2.75959 -3.43794,-5.41127 0.30834,-2.59003 1.63418,-4.10085 3.91587,-4.39378 0,0 0,0 0,0"
     id="path86" />
  <path
     inkscape:connector-curvature="0"
     style="fill:#786721;stroke-width:1.85148692"
     d="m 398.27859,120.04492 c 4.93337,1.32584 5.30337,4.74837 0.97127,10.34463 -4.28586,5.90462 -7.89339,7.41546 -10.85339,4.47086 -2.59001,-2.65168 -2.28169,-6.08961 1.03292,-10.42173 3.25294,-3.91585 6.19752,-5.42669 8.8492,-4.39376 0,0 0,0 0,0"
     id="path88" />
  <path
     inkscape:connector-curvature="0"
     style="fill:#786721;stroke-width:1.85148692"
     d="m 390.38522,143.70963 c 4.28586,-0.30833 6.08962,1.14083 5.42669,4.45544 -0.97125,2.9446 -3.12958,4.74835 -6.44419,5.41128 -2.94461,0.66293 -3.91586,-0.8325 -2.94461,-4.45543 0.70918,-3.60753 1.97336,-5.41129 3.96211,-5.41129 0,0 0,0 0,0"
     id="path90" />
  <path
     inkscape:connector-curvature="0"
     style="fill:#786721;stroke-width:1.85148692"
     d="m 393.34525,89.44266 c 3.31459,-0.35458 5.78127,0.30834 7.40002,1.98877 1.63418,1.63416 2.17378,3.60751 1.51085,5.90462 -0.66292,1.61876 -2.83668,0.84791 -6.44421,-2.46668 -3.31458,-2.96003 -4.10084,-4.76378 -2.46666,-5.42671 0,0 0,0 0,0"
     id="path92" />
  <path
     inkscape:connector-curvature="0"
     style="fill:#786721;stroke-width:1.85148692"
     d="m 321.31818,95.34727 c 1.98877,-1.61875 4.14709,-2.46668 6.4442,-2.46668 1.98876,0.3546 3.3146,1.01753 3.91585,1.98878 0.66293,0.95582 0.53959,2.09667 -0.49333,3.42251 -1.31042,1.32584 -3.1296,1.98875 -5.41128,1.98875 -1.98876,0 -3.60753,-0.66291 -4.93336,-1.98875 -0.97125,-1.26418 -0.84793,-2.28169 0.47792,-2.94461 0,0 0,0 0,0"
     id="path94" />
  <path
     inkscape:connector-curvature="0"
     style="fill:#786721;stroke-width:1.85148692"
     d="m 97.359021,250.71728 c 5.596299,2.34335 6.737119,4.64044 3.484189,6.92212 -3.00626,2.35878 -5.781287,2.65169 -8.432969,1.03293 -1.988754,-1.69583 -2.466683,-3.62294 -1.449158,-5.96629 1.325836,-2.59001 3.437934,-3.25294 6.397938,-1.98876 0,0 0,0 0,0"
     id="path96" />
  <path
     inkscape:connector-curvature="0"
     style="fill:#786721;stroke-width:1.85148692"
     d="m 188.64161,275.89284 c 7.23046,-0.97125 10.54507,0.18496 9.88215,3.49961 -0.3546,2.94458 -2.46669,4.87169 -6.44422,5.88919 -2.94459,0.30834 -4.93335,-1.0175 -5.90461,-3.96212 -1.01751,-3.25293 -0.1696,-5.07211 2.46668,-5.42668 0,0 0,0 0,0"
     id="path98" />
</svg>
