<svg xmlns="http://www.w3.org/2000/svg" viewBox="0 0 512 384">
<rect width="512" height="384" id="P014WIImgRct1" fill="#fff"/>

  <!-- strawberry -->
  <path
     
     style="opacity:1;fill:#8fa309;stroke-width:1.120139"
     d="m 405.82448,104.54249 c -3.08699,5.44175 -7.92567,7.46136 -14.54474,6.04002 -5.68579,-1.19654 -10.99349,-3.44118 -15.96615,-6.74839 0,0 -5.31248,-4.95348 -5.31248,-4.95348 0,0 1.78039,7.79168 1.78039,7.79168 0.46424,5.68572 -1.55546,9.57204 -6.03995,11.70658 -4.4893,2.12972 -8.39468,1.53156 -11.70183,-1.77565 0,0 -3.91018,-5.31248 -3.91018,-5.31248 -4.72859,15.61205 -13.47743,30.97991 -26.24654,46.1038 -8.04051,9.46193 -17.14352,16.78932 -27.31384,21.98698 0,0 -12.41493,4.61845 -12.41493,4.61845 0,0 3.9054,-18.10066 3.9054,-18.10066 0,0 15.25783,-5.66197 15.25783,-5.66197 11.59175,-6.15001 20.56554,-15.48267 26.95967,-28.02688 6.85836,-12.98925 9.92621,-21.04898 9.21308,-24.11682 -2.8381,-1.64157 -5.32684,-3.3071 -7.43747,-4.95348 -2.84289,-2.12983 -4.14948,-5.68101 -3.91018,-10.65375 0,-4.714221 1.42145,-6.958868 4.2452,-6.733832 0,0 5.32684,0.358893 5.32684,0.358893 -0.46424,-2.842913 -0.57911,-5.91075 -0.35416,-9.217848 0.46903,-6.863204 2.59881,-11.835837 6.37498,-14.903679 5.9251,-4.728667 7.81558,-1.641676 5.68579,9.217853 0,0 9.2131,-7.437499 9.2131,-7.437499 7.33218,-4.733376 13.48222,-6.394095 18.45488,-4.972638 4.95354,1.41664 5.08276,4.259552 0.35417,8.523927 0,0 -8.50475,6.020747 -8.50475,6.020747 0,0 12.41493,-2.488725 12.41493,-2.488725 8.74884,-1.177378 14.54471,-0.354075 17.36368,2.488725 4.50844,4.953591 -1.17736,9.438067 -17.00952,13.477513 0,0 20.56554,7.442203 20.56554,7.442203 5.21199,1.42146 6.37498,4.83866 3.55124,10.28041 0,0 0,0 0,0"
     id="path6" />
  <path
     
     style="fill:#ff6600;stroke-width:1.120139"
     d="m 324.59134,142.84979 c 19.38817,17.74177 19.51739,37.0151 0.35416,57.82471 -6.37498,6.61913 -20.56554,16.66016 -42.54774,30.13756 -8.2846,5.19767 -27.20375,16.32032 -56.7622,33.35382 -12.76912,7.57147 -29.66857,16.65535 -50.71748,27.31381 -21.27864,10.63449 -33.33463,16.78943 -36.17753,18.43099 -4.4845,2.84291 -11.81669,7.93047 -21.98699,15.25786 -7.57149,5.19756 -10.87862,5.42248 -9.94535,0.70827 0.71312,-3.3071 6.15004,-10.17031 16.32033,-20.58469 12.54417,-12.28086 21.40789,-21.02971 26.6055,-26.22738 26.00724,-25.53816 44.70143,-46.23295 56.04909,-62.06993 16.07626,-23.42277 25.409,-36.77091 28.00302,-40.08294 11.35244,-15.38701 20.2305,-24.82508 26.60548,-28.37625 28.6252,-16.78943 50.00915,-18.67989 64.19971,-5.68583 0,0 0,0 0,0"
     id="path8" />
  <path
     
     style="fill:#6f8007;stroke-width:1.120139"
     d="m 397.31491,72.629284 c 0,0 1.40231,0.71308 1.40231,0.71308 4.50844,4.953591 -1.17736,9.438067 -17.00952,13.477513 9.45718,-3.551289 14.65479,-8.279844 15.60721,-14.190593 0,0 0,0 0,0"
     id="path10" />
</svg>
