<svg xmlns="http://www.w3.org/2000/svg" viewBox="0 0 512 384">
<rect width="512" height="384" fill="none"/>
  <!-- orange -->
  <path
     
     style="fill:#1e7908;stroke-width:1.27706945"
     d="m 154.50697,320.29999 c 26.00397,4.3319 47.85389,-1.8691 70.01237,-11.5502 39.80393,-17.3923 75.46057,-48.17934 107.76174,-81.29719 19.16621,-19.6482 40.25639,-40.29906 49.84989,-68.41503 7.67239,-22.48335 14.78356,-52.59756 3.66541,-72.85677 -9.03124,-16.455272 -29.97203,-21.666124 -46.18438,-19.546444 -19.95941,2.609142 -35.31243,23.516674 -51.31643,38.205084 -17.23256,15.81581 -30.42331,37.48467 -47.65091,53.30923 -20.80903,19.11431 -46.37754,29.90362 -66.71386,49.75529 -17.56348,17.14724 -37.24565,34.51274 -46.91796,59.08296 -4.02038,10.2133 -4.06153,25.21678 -3.66541,27.98741 2.03578,14.23988 19.58418,23.39415 31.15627,25.32182 0,0 0.004,0.004 0.004,0.004"
     id="path50" />
  <path
     
     style="fill:#8fa309;stroke-width:1.27706945"
     d="m 136.9129,308.32037 c 0,0 5.06201,-10.60057 8.43056,-15.10413 26.34038,-35.21621 60.00196,-61.2382 90.53626,-91.07233 18.36215,-17.94097 37.51149,-34.6878 55.7133,-52.86506 5.6151,-5.60745 16.49465,-17.32557 16.49465,-17.32557 0,0 -41.42091,39.09727 -62.6768,57.75371 -19.71003,17.29549 -40.35703,32.98166 -60.11135,50.19947 -6.94378,6.05161 -14.23883,11.63115 -20.52675,18.65808 -10.43532,11.66289 -21.82313,23.29351 -28.22371,38.64927 -1.57763,3.78484 -2.19929,12.43856 -2.19929,12.43856 0,0 2.56313,-1.332 2.56313,-1.332"
     id="path52" />
  <path
     
     style="fill:#8fa309;stroke-width:1.27706945"
     d="m 133.23304,305.52513 c 0,0 -0.84076,-17.04877 1.63765,-24.76712 7.82842,-24.37714 24.5736,-43.36563 39.81881,-61.88369 10.30577,-12.51622 22.61135,-22.38764 34.45699,-32.71033 7.88085,-6.86721 24.32021,-19.40696 24.32021,-19.40696 0,0 -36.14718,25.34753 -52.46406,40.99759 -11.04096,10.58964 -21.41668,22.39419 -30.43482,35.49956 -6.76549,9.83203 -13.70429,20.06666 -17.5175,32.00632 -2.34095,7.3289 -3.25926,15.45096 -2.96472,23.30171 0.10344,2.74863 1.64461,8.00992 1.64461,8.00992 0,0 1.50283,-1.047 1.50283,-1.047"
     id="path54" />
  <path
     
     style="fill:#8fa309;stroke-width:1.27706945"
     d="m 136.9129,309.63321 c 0,0 33.61612,-16.61226 50.21636,-25.32181 7.39453,-3.87942 14.79729,-7.75775 21.99275,-11.99438 8.1029,-4.7711 15.96508,-9.94252 23.82515,-15.10414 15.19055,-9.97536 30.96648,-19.21057 45.08483,-30.65246 10.13235,-8.21178 28.22371,-27.09853 28.22371,-27.09853 0,0 6.23106,-7.55207 6.23106,-7.55207 0,0 -14.27763,13.96581 -22.10594,20.13503 -21.62564,17.04167 -44.88029,31.98499 -68.36026,46.36872 -6.36071,3.89709 -13.39414,6.66044 -19.60389,10.79422 -5.54833,3.69372 -10.00819,8.90046 -15.65716,12.43856 -12.75096,7.98749 -28.23521,11.09946 -40.68637,19.54644 -3.4366,2.33153 -9.16361,8.44042 -9.16361,8.44042 0,0 0.004,0 0.004,0"
     id="path56" />
  <path
     
     style="fill:#8fa309;stroke-width:1.27706945"
     d="m 138.01233,312.7512 c 0,0 27.33865,1.9623 40.68637,-0.44424 18.91578,-3.41041 36.93488,-11.19902 54.24846,-19.54644 C 247.42987,285.77789 274,267.43869 274,267.43869 c 0,0 -26.92511,16.78951 -41.41932,23.1004 -17.65927,7.68938 -36.00772,14.46033 -54.98036,17.76975 -8.91202,1.55428 -18.09305,0.36344 -27.12428,0.88846 -3.54958,0.20633 -10.62953,0.88852 -10.62953,0.88852 0,0 -1.83418,2.66538 -1.83418,2.66538"
     id="path58" />
  <path
     
     style="fill:#8fa309;stroke-width:1.27706945"
     d="m 285.72907,169.2804 c 0,0 12.1256,-10.25595 17.59418,-15.99249 4.50364,-4.72472 12.46255,-15.10415 12.46255,-15.10415 0,0 -10.18752,9.85392 -15.39458,14.65998 -5.05947,4.66986 -9.89489,9.08097 -15.39458,13.77161 -0.7012,0.59793 0.73306,2.66543 0.73306,2.66543 0,0 -6.3e-4,-3.8e-4 -6.3e-4,-3.8e-4"
     id="path60" />
</svg>
