<svg xmlns="http://www.w3.org/2000/svg" viewBox="0 0 512 384">
<rect width="512" height="384" fill="none"/>
<path d="m172 202.9v-5l1.6-0.4c1.4-0.4 1.7-0.4 3.1 0l1.6 0.4v5 5h-3.1-3.1z" style="fill:#ff0;stroke-width:0.3"/>
<path d="m152 201.1 10.5-17.1-4.5 0.9 11.5-18.1-5 1.6c0-0.3 10.3-15.3 10.6-15.4 0.2-0.1 10.7 15.2 10.7 15.2l-5.4-1.6 12 18.3-4.2-0.9 10.4 17.1-23.1-6z" style="fill:#fff"/>
<path d="m250.9 145.1v-5l1.6-0.4c1.4-0.4 1.7-0.4 3.1 0l1.6 0.4v5 5h-3.1-3.1z" style="fill:#fff"/>
<path d="m230.8 143.3 10.6-17.2-4.5 0.9 11.6-18.2-5.1 1.6c0-0.3 10.4-15.4 10.7-15.5 0.2-0.1 10.8 15.3 10.8 15.3l-5.4-1.6 12 18.4-4.3-0.9 10.4 17.2-23.2-6z" style="fill:#fff"/>
<path d="m-53.1 421.4c0-33.5 0.2-60.9 0.5-60.9 0.3 0 6.9 4.2 14.7 9.4 17.5 11.6 34.2 19.9 38 19 6.2-1.6 32.5-32.3 57.8-67.4 16.8-23.4 28.6-42.2 35.5-56.7 9.4-19.8 26-37.3 64.5-68.3 38.7-31.2 64.4-54.4 115-103.9 35.4-34.7 55.9-52.8 64.7-57.1 5.1-2.5 7.1-2.9 12.1-2.3 12.3 1.4 24.2 8.6 106.6 64.9 59.5 40.6 101.8 66.4 117.6 71.5 9.7 3.2 22.8 16.9 42.1 44.2l10.5 14.9 0 114.6c0 63-0.3 120.1-0.7 126.8l-0.7 12.3-339 0-339 0 0-60.9z" style="fill:#808080"/>
<path d="m380.1 284v-8.6l2.7-0.7c2.5-0.6 3-0.6 5.4 0l2.7 0.7v8.6 8.6h-5.4-5.4z" />
<path d="m345.5 281 18.1-29.5-7.8 1.5 19.9-31.3-8.7 2.7c0-0.6 17.9-26.4 18.4-26.6 0.4-0.1 18.5 26.3 18.5 26.3l-9.3-2.8 20.7 31.6-7.3-1.6 17.9 29.5-39.9-10.4z" stroke-width="0.7"/>
<path d="M300 241.1V234l2.2-0.6c2-0.5 2.4-0.5 4.4 0l2.2 0.6v7.1 7.1H304.4 300Z" />
<path d="m271.6 238.6 14.9-24.3-6.4 1.2 16.3-25.7-7.2 2.2c0-0.5 14.7-21.7 15.1-21.9 0.3-0.1 15.2 21.7 15.2 21.7l-7.6-2.3 17 26-6-1.3 14.7 24.3-32.8-8.5z" />
<path d="m237.3 214.4v-5.4l1.7-0.4c1.5-0.4 1.8-0.4 3.4 0L244.1 209v5.4 5.4h-3.4-3.4z" />
<path d="m215.8 212.5 11.3-18.4-4.8 0.9 12.4-19.5-5.4 1.7c0-0.3 11.2-16.5 11.5-16.6 0.3-0.1 11.6 16.4 11.6 16.4l-5.8-1.7 12.9 19.7-4.6-1 11.2 18.4-24.9-6.5z" />
<path d="m205.2 185.9v-5.4l1.7-0.4c1.5-0.4 1.8-0.4 3.4 0l1.7 0.4v5.4 5.4h-3.4-3.4z" style="fill:#fff"/>
<path d="m183.6 184 11.3-18.4-4.8 0.9 12.4-19.5-5.4 1.7c0-0.3 11.2-16.5 11.5-16.6 0.3-0.1 11.6 16.4 11.6 16.4l-5.8-1.7 12.9 19.7-4.6-1L233.8 184 208.9 177.5Z" style="fill:#fff"/>
<path d="m242.8 158.7v-4.3l1.3-0.3c1.2-0.3 1.5-0.3 2.7 0l1.3 0.3v4.3 4.3h-2.7-2.7z" style="fill:#fff"/>
<path d="m225.7 157.2 9-14.6-3.8 0.7 9.8-15.5-4.3 1.3c0-0.3 8.8-13.1 9.1-13.2 0.2-0.1 9.2 13 9.2 13L250 127.7l10.2 15.6-3.6-0.8 8.9 14.6-19.8-5.1z" style="fill:#fff"/>
<path d="m271.3 192.4v-5.4l1.7-0.4c1.5-0.4 1.8-0.4 3.4 0l1.7 0.4v5.4 5.4h-3.4-3.4z" style="fill:#fff"/>
<path d="m249.7 190.5 11.3-18.4-4.8 0.9 12.4-19.5-5.4 1.7c0-0.3 11.2-16.5 11.5-16.6 0.3-0.1 11.6 16.4 11.6 16.4l-5.8-1.7 12.9 19.7-4.6-1 11.2 18.4L275 184Z" style="fill:#fff"/>
<path d="m265.3 143v-3.5l1.1-0.3c1-0.3 1.2-0.3 2.2 0l1.1 0.3v3.5 3.5h-2.2-2.2z" style="fill:#fff"/>
<path d="m251.3 141.7 7.4-12-3.1 0.6 8.1-12.7-3.5 1.1c0-0.2 7.2-10.7 7.5-10.8C267.7 108 275 118.7 275 118.7l-3.8-1.1 8.4 12.8-3-0.6 7.3 12-16.2-4.2z" style="fill:#fff"/>
<path d="m254.3 266.6v-6.8l2.1-0.5c1.9-0.5 2.3-0.5 4.3 0l2.1 0.5v6.8 6.8h-4.3-4.3z" />
<path d="m227.1 264.2 14.3-23.2-6.1 1.2 15.6-24.6-6.8 2.1c0-0.4 14.1-20.8 14.4-20.9 0.3-0.1 14.6 20.7 14.6 20.7l-7.3-2.2 16.3 24.9-5.8-1.2 14.1 23.2-31.4-8.2z" />
<path d="M300 315.8V309l2.1-0.5c1.9-0.5 2.3-0.5 4.3 0l2.1 0.5v6.8 6.8H304.3 300Z" />
<path d="m272.8 313.4 14.3-23.2-6.1 1.2 15.6-24.6-6.8 2.1c0-0.4 14.1-20.8 14.4-20.9 0.3-0.1 14.6 20.7 14.6 20.7l-7.3-2.2 16.3 24.9-5.8-1.2 14.1 23.2-31.4-8.2z" />
<path d="m230 309.7v-6.8l2.1-0.5c1.9-0.5 2.3-0.5 4.3 0l2.1 0.5v6.8 6.8h-4.3-4.3z" />
<path d="m202.8 307.3 14.3-23.2-6.1 1.2 15.6-24.6-6.8 2.1c0-0.4 14.1-20.8 14.4-20.9 0.3-0.1 14.6 20.7 14.6 20.7l-7.3-2.2 16.3 24.9-5.8-1.2 14.1 23.2-31.4-8.2z" />
<path d="m344.9 196.6v-5.2l1.6-0.4c1.5-0.4 1.8-0.4 3.2 0l1.6 0.4v5.2 5.2h-3.2-3.2z" />
<path d="m324.1 194.8 10.9-17.7-4.7 0.9 11.9-18.8-5.2 1.6c0-0.3 10.7-15.9 11-16 0.2-0.1 11.1 15.8 11.1 15.8L353.6 159l12.4 19-4.4-0.9 10.8 17.7-24-6.2z" />
<path d="m189.9 261.1v-5.9l1.9-0.5c1.7-0.4 2-0.4 3.7 0l1.9 0.5v5.9 5.9h-3.7-3.7z" />
<path d="m166.1 259 12.5-20.4-5.3 1 13.7-21.6-6 1.9c0-0.4 12.3-18.2 12.7-18.3 0.3-0.1 12.8 18.2 12.8 18.2L200 217.9l14.3 21.8-5.1-1.1 12.4 20.4-27.5-7.2z" />
<rect width="307.3" height="99.2" x="318.6" y="383.8" style="fill:#808080"/>
</svg>
