<svg xmlns="http://www.w3.org/2000/svg" viewBox="0 0 512 384">
<rect width="512" height="384" id="P004WIImgRct1" fill="#fff"/>

<path d="m 273.43569,275.76957 v -28.75495 l -10.26963,-9.24267 c -5.64829,-5.13481 -11.29658,-9.75614 -11.81007,-10.7831 l -1.54044,-1.02697 -9.24266,1.02697 c -24.13362,2.05392 -61.10428,2.5674 -86.26486,0.51348 l -4.62133,-0.51348 -2.05393,8.72918 c -1.02696,4.62133 -2.05392,9.24266 -2.56741,9.75614 -0.51348,1.54045 -2.5674,2.56741 -5.64829,3.08089 -4.10785,1.02696 -4.10785,0.51348 -14.89096,-13.35051 l -9.75614,-12.83704 -3.08089,-0.51348 c -4.10785,-0.51348 -8.2157,-1.54044 -9.24266,-2.5674 -1.54045,-1.54045 -1.02697,-5.13482 1.02696,-7.18874 l 1.54044,-1.54045 -18.485322,-16.94488 c -23.10666,-21.56621 -22.59318,-21.05273 -22.59318,-22.07969 0,-1.02697 3.08089,-3.08089 6.16177,-3.59437 4.62134,-1.02697 6.67526,-0.51349 28.24148,9.75614 10.783102,5.13481 20.539252,9.75615 20.539252,9.75615 0.51348,0 0.51348,-1.02697 0,-2.05393 -0.51348,-3.59437 -2.05393,-24.6471 -2.05393,-26.70103 0,-2.05392 0,-2.05392 6.16178,-3.08089 4.10785,-0.51348 4.10785,-0.51348 6.67526,0.51349 4.62133,2.05392 7.18873,4.10785 21.05273,19.51229 7.70222,8.2157 14.37748,14.89095 14.37748,14.89095 1.02696,0 46.72679,-8.2157 47.24028,-8.72918 0,0 -4.62134,-5.13481 -10.78311,-11.81007 L 190.25172,158.69583 137.87663,125.83304 C 109.12167,107.86119 86.015008,92.970232 86.015008,92.456751 c 0,-0.513481 8.21571,-7.188738 10.26963,-7.70222 1.02696,-0.513481 3.08089,-0.513481 5.134812,-1.026962 3.59437,0 3.59437,0 106.80411,40.565021 l 103.72323,40.56502 32.8628,-6.16178 c 28.24147,-5.13481 33.37629,-6.67525 37.48414,-8.21569 9.24266,-3.59437 18.48536,-5.64829 26.18756,-5.13481 6.1618,0.51348 8.2157,1.02696 13.864,3.59437 2.5674,1.54044 8.2157,3.59436 12.3235,4.62132 9.2427,2.56741 11.2966,3.59437 13.3505,5.64829 3.5944,3.08089 4.6214,7.70222 2.5674,12.32356 -5.6482,11.81007 -34.9167,24.13362 -82.15696,33.37628 -9.75614,2.05393 -27.21451,5.13481 -32.34932,5.64829 l -3.08089,0.51349 -19.51229,42.61894 c -13.35051,28.75496 -20.02577,43.13243 -21.05273,44.67288 -2.56741,3.08088 -4.62133,3.59437 -12.32355,4.62133 -3.59437,0.51348 -7.18874,0.51348 -7.18874,0.51348 0,0 -0.51348,-12.32355 -0.51348,-28.75495 z"/>
</svg>
