<svg xmlns="http://www.w3.org/2000/svg" viewBox="0 0 1024 768">
<rect width="1024" height="768" fill="none"/>
<path d="m0.1 517 1.2-82.1 6.4-9.2C18.5 410 27.5 401.2 47.6 387c20-14.3 28.2-22.1 36.5-34.8 2.7-4.1 7-8.4 9.6-9.6 7.3-3.3 19.3-2.5 29.5 2 5.2 2.3 11 3.7 12.9 3 1.9-0.6 6.5-6.1 10.1-12.2 3.6-6.1 7.4-11.5 8.4-12.2 1-0.6 5 4.1 8.9 10.5 7.1 11.7 30 36.4 39.3 42.5 4.8 3.1 5.2 3 9.7-2.6 5.2-6.6 25.8-45.7 28.2-53.5 2.2-7.3 11.6-20.5 26.6-37 7.2-8 20.7-24.6 30.1-37 24.4-32.3 28-35.8 33.2-33 2.3 1.2 16.7 13.6 31.9 27.5 15.2 13.9 31.9 28 37 31.4 7 4.6 11.6 10.1 18.1 21.6 14.2 25.2 14.5 25.5 28.6 29.4 17 4.7 60.2 27.1 87 45.1l21.7 14.6 12-15.8c16-21.1 20.4-22.5 28.3-9.1 2.2 3.8 5.6 6.9 7.6 6.9 1.9 0 8.6-5.3 14.9-11.7 9.3-9.5 14.9-18.7 30.2-49 27.4-54.4 41.4-74.6 51.7-74.6 6.3 0 8.1 2.9 17.8 29.8 6.1 16.7 12.2 29.2 19.9 40.5 6.9 10.1 11.7 19.5 12.6 24.7 1.3 7.8 2.6 9.1 17.9 19.1 11.3 7.4 22.8 17.5 36.7 32.6 23.5 25.4 34.4 33.3 46.5 33.3 4.6 0 9.8-1.1 11.6-2.5 5.5-4.3 28.6-39.9 39.8-61.4 5.9-11.3 15.8-27.2 22-35.4 6.3-8.2 17.7-24.4 25.6-36 7.8-11.7 15.4-21.2 16.9-21.2 1.5 0 6.6 6.8 11.3 15.2 9.1 16.1 24.5 34.6 32.4 38.9 23.8 73.9 22.2 16 17.8 129.2l-1.4 57.7 2.2 58.5-484.5 0.1-478.3 0.5v23.2 23.2H32.8-0.7l1.3-82.1z"/>
<path d="m521 457.6c0.2-0.3 3.4-5.3 7-11.2 3.7-5.9 6.7-10.7 6.6-10.8 0-0.1-0.3-0.6-0.6-1-2.1-3.2-4.9-7.9-6.6-11.3-2.1-4.2-3.2-7.4-3.1-9.1l0-0.9 7 10.1 7 10.1 3.8 0.1c10.6 0.3 18.7 1.7 21.1 3.7l0.4 0.3-2 0c-1.1 0-6.7 0.1-12.4 0.1l-10.4 0.1-0.3 0.3c-0.1 0.2-1 1.4-1.8 2.6-4.6 6.7-7.2 10-10 12.9-2.1 2.2-3.7 3.5-5 4.2-0.5 0.2-1 0.4-1 0.4-0.1 0 0-0.2 0.2-0.5zM538 437.1c0.8-0.4 1-1.5 0.4-2.3-0.7-0.8-2-0.7-2.5 0.3-0.3 0.7-0.3 1.1 0.3 1.7 0.5 0.5 1.1 0.6 1.8 0.3z" style="fill:#fff"/>
<path d="m536.4 444c0-0.3 0.1-0.5 1.2-2.1 0.7-1 1.2-1.8 1.3-1.8 1 25 1.1 44.5 1.4 65.7h-2.5-2.5c0.3-21.5 0.7-40.7 1.1-61.8z" style="fill:#fff"/>
<path d="m818.9 134.3c2-2.6 4.3-5.1 6.8-7.3 3-2.7 6.4-4.9 10-6.8 4-1.8 8.3-3.1 12.6-3.9 3.1-0.6 6.3-0.9 9.5-1 3-0.1 5.9-0.1 8.9 0.2 3.4 0.3 6.8 0.9 10.1 1.7 4.8 1.2 9.4 3.1 13.8 5.5 5.9 3.4 11.2 7.9 15.4 13.3l4.5 11.9-4.6 28.9-10 16.8c-4.3 5.6-8.6 11.2-12.8 16.9-3 4.1-6 8.2-9 12.3-3.1 1.9-6.7 2.9-10.3 2.8-3.6-0.1-7.2-1.2-10.2-3.1-4-2.6-6.9-6.7-10.1-10.3-1.8-2.1-3.8-4.1-5.7-6.1-6.2-6.5-11.8-13.5-16.8-21l-7.3-27.6 2.1-13.5 1.7-6.2z" style="fill:#808080;"/>
<path d="m861.3 259.1c-1.1 0-1.6-0.1-2-0.2-0.5-0.1-0.8-0.4-1.1-0.7-0.4-0.4-0.6-0.9-0.7-1.7 0-0.2 0-1 0-3.5v-3.2l-0.3 0c-0.4 0-0.4 0-0.6-0.2-0.2-0.2-0.1-0.6 0.1-0.8l0.1-0.1 0.4 0c0.2 0 0.4 0 0.4 0 0 0 0.3-1.7 0.7-3.8 0.4-2.1 0.7-3.8 0.7-3.8 0 0 0-0.2 0.1-0.3l0.1-0.2-0.8-3.5-0.8-3.5-0.1 0c-0.1 0-0.1-0.2-0.5-0.9-1.3-2.6-2.4-5.2-3.3-8-0.3-0.9-0.7-2.1-0.7-2.2 0 0 0 0 0 0 0.1 0 0-0.1-1.5-1.6l-1.3-1.4-1.9-3.3c-3.1-5.4-5.7-9.7-7.8-13.5-2.7-4.7-3-5.2-4.1-7.3-3.7-7.4-6.4-15.5-8.3-25.1-1.2-6-1.8-11.1-2-16.4 0-1.1 0-4.3 0-5.2 0.3-5.1 0.9-9.3 2.1-13.6 1.2-4.4 3.1-8.6 5.3-11.9 0.6-0.9 1.9-2.8 2.1-3 0.1-0.1 1.6-0.8 2.9-1.2 2.4-0.9 4.8-1.7 7.5-2.2 0.7-0.2 2.3-0.5 2.3-0.5 0 0-0.1 0.2-0.3 0.5-5 7.1-8 17.7-8.8 31.2-0.4 6.3-0.2 13.4 0.4 19.8 0.2 1.6 0.2 2.3 0.5 3.8 1.7 10.9 6.1 26.3 12.6 44.3 0.8 2.3 2.7 7.2 2.7 7.2 0 0 1.4 0.3 2 0.4 1 0.2 2.9 0.4 2.9 0.4 0 0-0.1-1-0.3-2.3-3.5-27.9-5.7-49.8-6-59.2 0-0.4 0-1.2-0.1-1.8-0.3-7.8-0.3-16 0-22.8 0.5-10.7 1.7-18.2 3.6-22.2l0.2-0.3 0.3 0c0.1 0 1.2 0 2.4 0 2.6 0 3.8 0 5.7 0.2 0.3 0 0.5 0 0.5 0 0.1 0 0.1 0.1 0.4 0.8 1.7 4.3 2.8 12.1 3.2 22.7 0.2 6.4 0.2 14.3-0.1 21.1 0 0.5 0 1.1-0.1 1.4-0.3 9-2.6 32.2-6.1 61.1-0.1 0.8-0.2 1.4-0.2 1.5v0.1l0.7 0c1 0 2.1 0 3.2-0.1 0.6-0.1 0.6 0 0.6-0.2 0.2-0.4 1.6-4.1 2.3-6.1 7.1-19 11.9-35.4 13.6-46.9 0.4-2.9 0.8-7 0.9-12.1 0-1.3 0-6.3 0-7.5 0-1.2-0.1-2.5-0.2-3.4-0.7-12.9-3.5-23.1-8.1-30.3-0.2-0.3-0.3-0.4-0.2-0.4 0 0 0.2 0.1 0.5 0.1 2.9 0.8 5.9 1.8 8.7 3.1 1.7 0.8 4.4 2.1 4.6 2.3 0.1 0.1 0.8 1.3 1.4 2.3 1.3 2.4 2.5 5.1 3.4 7.9 2.3 6.8 3.2 14.5 2.7 23.2-0.3 5-1.1 10.5-2.4 16.5-2.2 9.9-5.4 18.5-9.6 26-0.2 0.4-1.1 1.9-2 3.4-1.7 3-4.2 7.3-6.7 11.5-0.9 1.5-2.5 4.3-3.7 6.3-1.2 2-2.1 3.6-2.1 3.6 0 0 1.8-0.5 2.4-0.6 0.2-0.1 0.3-0.1 0.3-0.1 0 0-0.2 0.6-0.4 1.3-1.5 4.7-2.8 8.6-3.2 9.5-0.1 0.2-0.1 0.2-0.2 0.2l-0.1 0-0.2 0.7c-0.1 0.4-0.4 2-0.8 3.5-0.5 2.3-0.6 2.8-0.6 2.8 0 0 0.3 1.6 0.8 4 0.4 2.2 0.7 4 0.8 4 0 0 0 0 0.2 0 0.4 0 0.6 0.1 0.7 0.3 0.1 0.1 0.1 0.3 0 0.5 0 0.1-0.1 0.1-0.1 0.2-0.1 0.1-0.1 0.1-0.4 0.1l-0.3 0 0 0.9c0 0.5 0 2 0 3.3 0 2.2 0 2.4-0.1 2.7-0.1 0.4-0.2 0.7-0.3 1.1-0.3 0.6-0.8 1-1.5 1.1-0.4 0.1-1.1 0.1-2.1 0.2-0.6 0-4.3 0.1-5 0zm8-10.3c0 0-0.8-4-1.3-6.9l0-0.2h-0.7-0.7l0 0.1c0 0.3-0.2 0.6-0.5 0.7-0.2 0.1-0.2 0.1-0.4 0.1-0.4 0-0.7-0.1-0.9-0.3-0.1-0.1-0.3-0.4-0.3-0.5l0-0.1-0.5 0-0.5 0 0 0.1c-0.1 0.6-0.7 0.9-1.4 0.8-0.4-0.1-0.7-0.4-0.8-0.8l0-0.1h-0.7-0.7l0 0.1c0 0-0.3 1.6-0.7 3.5-0.4 1.9-0.7 3.4-0.7 3.5l0 0.1 5.4 0c3 0 5.4 0 5.4 0zm-8.1-8.7 0-0.7 0.1-0.2c0.2-0.4 0.5-0.6 1-0.6 0.4 0 0.8 0.2 0.9 0.5 0.1 0.2 0.1 0.4 0.1 1v0.6h0.5 0.5l0-0.7 0-0.7 0.1-0.2c0.2-0.4 0.5-0.6 1-0.6 0.5 0 0.8 0.2 1 0.6l0.1 0.2 0 0.7 0 0.7h0.7 0.7l0-0.2c-0.3-1.2-1.3-6.1-1.3-6.1 0 0-0.2 0-0.5 0-1.4 0.1-2.9 0.1-4.2 0-0.2 0-0.4 0-0.4 0 0 0-1.3 5.9-1.3 6.2l0 0.1h0.6 0.6l0-0.7zm-0.8-2.7c0.4-1.9 0.6-3 0.6-3 0 0-0.3-0.1-0.6-0.1-0.3 0-0.6-0.1-0.6-0.1l-0.1 0 0 3.1c0 1.7 0 3.1 0 3.1 0 0 0.3-1.4 0.6-3zm7.7-3.1c0 0-0.1 0-0.2 0-0.1 0-0.4 0.1-0.6 0.1-0.3 0-0.5 0.1-0.5 0.1 0 0 1.2 5.9 1.3 5.9 0 0 0-1.3 0-3 0-1.7 0-3.1 0-3.1zm-8.7-0.1c0 0-0.2-0.1-0.4-0.1-0.2 0-0.5-0.1-0.7-0.2-0.2 0-0.3-0.1-0.3-0.1 0 0 1.4 6.4 1.4 6.5 0 0.1 0-0.4 0-3 0-1.7 0-3.1 0-3.2zm9.7 2.9c0.4-1.8 0.7-3.2 0.7-3.2 0 0-0.2 0-0.4 0.1-0.2 0.1-0.5 0.1-0.7 0.2l-0.4 0.1v3.1c0 1.9 0 3.1 0 3 0-0.1 0.3-1.5 0.7-3.3zm13.8-26.4c0 0 0.6-0.8 1.3-1.8 7.2-10.2 11.7-16.7 12.7-18.3 2-3.2 3.9-7.2 5.5-11.2 3-7.6 4.8-15.2 5.4-22.7 0.2-2.7 0.2-5.6 0.1-8.2-0.2-2.8-1.1-8.2-2.1-12.1-0.1-0.3-0.1-0.4-0.1-0.4 0.2 0.3 1 1.4 1.4 2 2.8 4.4 4.5 9 5.3 13.9 0.2 1.6 0.3 3 0.4 4.7 0.1 5.9-1.3 11.9-4.1 18-2.5 5.5-5.9 10.9-10.6 17.1-1.7 2.2-3.2 4.1-6.5 8.2-3.4 4.2-5.8 7.2-8.5 10.7-0.1 0.1-0.1 0.2-0.1 0.2 0 0 0 0 0 0zm-45.7-5.2c-2.3-2.4-5.5-5.9-7.9-8.4-0.6-0.6-1.4-1.5-1.8-1.9-4.8-4.9-9.1-11.2-11.8-17.6-2.1-4.9-3.4-10-3.8-15-0.1-1.2-0.1-1.6-0.1-3.3 0-1.8 0-2.2 0.1-3.5 0.3-3.4 1-6.8 2.1-10.1 0.1-0.2 0.2-0.7 0.3-1 0.6-2.5 1.9-5.4 3.4-8 0.4-0.7 1.3-2.2 1.3-2.2 0 0-0.1 0.3-0.2 0.6-1 3.4-1.8 7.4-2.3 11.3-0.3 2.1-0.4 3.3-0.4 6.1 0 1.7 0 2.4 0.1 3.8 0.5 8.8 2.8 18 6.8 26.7 1.2 2.7 2.6 5.4 4 7.7 0.6 1 0.9 1.5 2 3 2.5 3.5 9.1 12.8 9.1 12.9 0 0 0 0 0 0 0 0-0.4-0.5-1-1z"/>
<path d="m625.7 461.8c-0.4-0.2-7.5-4-15.7-8.4-8.3-4.4-15-7.9-15.2-7.8-0.1 0.1-0.7 0.5-1.3 1-4 3.2-10.1 7.4-14.5 10-5.4 3.2-9.5 5-11.9 5l-1.2 0 12.8-10.4 12.8-10.4-0.2-5.1c-0.7-14.3 0.4-25.2 2.9-28.6l0.4-0.5 0.2 2.7c0.1 1.5 0.7 9 1.4 16.6l1.2 13.9 0.5 0.3c0.3 0.2 1.9 1.1 3.7 2.2 9.4 5.6 14.1 8.7 18.3 12.2 3.2 2.6 5.1 4.7 6.1 6.3 0.4 0.6 0.7 1.2 0.7 1.3 0 0.1-0.3 0-0.8-0.3zm-29.1-20.8c-0.6-1.1-2.2-1.2-3.1-0.3-1 1-0.7 2.7 0.6 3.3 0.9 0.4 1.6 0.3 2.2-0.5 0.7-0.8 0.7-1.5 0.3-2.4z" style="fill:#fff"/>
<path d="m595.7 490.5-2.6-0.9 0.1-10.3c0.2-10.9 0.4-18.7 0.8-26.9l0.3-5.1 1.4 0.7 1.4 0.7 0.1 1.9c0.5 7.6 1.5 40.9 1.2 40.8 0 0-1.3-0.4-2.7-0.9z" style="fill:#fff"/>
<path d="m693 436.6c-0.5 0.3-8.5 6.1-17.8 12.7-9.4 6.8-16.9 12.3-16.9 12.5 0 0.2 0.1 1.1 0.3 2 1.3 6.2 2.6 15.2 3.1 21.5 0.6 7.8 0.3 13.2-1 15.9l-0.6 1.3-4.5-19.8-4.5-19.8-5.8-2.5c-16.1-7-27.6-14.2-30.1-18.8l-0.4-0.7 3.1 1.2c1.7 0.7 10.3 4.1 19.1 7.5l15.9 6.3 0.6-0.4c0.3-0.2 2.3-1.5 4.4-2.9 11.3-7.4 17.2-10.8 23.4-13.6 4.6-2 7.9-3.1 10.3-3.3 0.9-0.1 1.7-0.1 1.8-0.1 0.1 0-0.2 0.3-0.7 0.7zm-38.8 20.8c-1.5 0.1-2.5 1.7-2.1 3.2 0.6 1.7 2.6 2.3 3.9 1.1 1-0.8 1.1-1.6 0.6-2.8-0.5-1.2-1.2-1.6-2.5-1.6z" style="fill:#fff"/>
<path d="m654 513.7c-1.7-0.7-3.1-1.3-3.1-1.3 0 0 0-0.7 0-1.5 0-0.9 0.1-4 0.1-7.1 0.2-16.7 0.5-25.6 0.8-27.3 0.1-0.3 0.1 0.1 3.7 15.9l1.4 6.1 0.1 8.2c0.1 4.5 0.1 8.2 0.1 8.2 0 0-1.4-0.6-3.1-1.3z" style="fill:#fff"/>
<path d="m701.6 501.4c0.2-0.3 3.4-5.3 7-11.2 3.7-5.9 6.7-10.7 6.6-10.8 0-0.1-0.3-0.6-0.6-1-2.1-3.2-4.9-7.9-6.6-11.3-2.1-4.2-3.2-7.4-3.1-9.1l0-0.9 7 10.1 7 10.1 3.8 0.1c10.6 0.3 18.7 1.7 21.1 3.7l0.4 0.3-2 0c-1.1 0-6.7 0.1-12.4 0.1l-10.4 0.1-0.3 0.3c-0.1 0.2-1 1.4-1.8 2.6-4.6 6.7-7.2 10-10 12.9-2.1 2.2-3.7 3.5-5 4.2-0.5 0.2-1 0.4-1 0.4-0.1 0 0-0.2 0.2-0.5zm17-20.5c0.8-0.4 1-1.5 0.4-2.3-0.7-0.8-2-0.7-2.5 0.3-0.3 0.7-0.3 1.1 0.3 1.7 0.5 0.5 1.1 0.6 1.8 0.3z" style="fill:#fff"/>
<path d="m717.1 487.8c0-0.3 0.1-0.5 1.2-2.1 0.7-1 1.2-1.8 1.3-1.8 1 25 1.1 44.5 1.4 65.7h-2.5-2.5c0.3-21.5 0.7-40.7 1.1-61.8z" style="fill:#fff"/>
<path d="m303.3 446.9 4.8-7.9-2.1 0.4 5.3-8.3-2.3 0.7c0-0.1 4.8-7.1 4.9-7.1 0.1 0 4.9 7 4.9 7l-2.5-0.7 5.5 8.4-2-0.4 4.8 7.9-10.7-2.8z" style="fill:#fff"/>
<path d="M-47 603.4C-62.8 604-26.4 563.3 11.6 544.7 39.5 531.1 51.4 523 58.2 513.1c11.2-16.4 32-21 56.2-12.4 20.5 7.3 20.7 7.3 32.1-7.8 5.5-7.3 11.8-13.3 14-13.3 2.2 0 8 5.8 12.9 12.9 8 11.7 50.9 43.4 58.7 43.4 5.1 0 39.6-45.9 44.4-59.1 2.6-7.1 14.1-19.3 28.5-30.3 13.3-10.1 36.5-30.9 51.6-46.2 15.1-15.3 30.8-29.4 35-31.3 6.1-2.8 12.8 0.2 36 16.3 43.8 30.3 69.2 46.2 75.6 47.2 3.2 0.5 11.2 8.7 17.7 18.2 16 23.3 20.8 27.3 33.4 28 15.2 0.8 85.3 26.8 122.1 45.3l30.9 15.6 7.6-7.7c21.9-22 27.1-25.9 35-25.9 5.1 0 10.3 3.4 12.8 8.3 5.5 10.8 9.7 10.5 29-2.2 10.8-7.1 24-23 40.6-48.9 42.1-65.6 69.2-89.3 84.5-73.9 3.2 3.2 9.9 16.2 15.1 28.9 5.9 14.7 14.7 27.7 24.1 35.5 8.1 6.8 15.9 16.5 17.4 21.5 1.5 5.1 3.4 10.9 4.2 13 0.8 2.1 12.1 8.1 25 13.3 15.3 6.2 19.6 15.6 34.7 29.7 26.7 24.7 22.1 29.6-283.1 23.2 0 0-306.3 25.3-410.6 32.1-104.3 6.8-149.8 8.7-215 11.4C63.5 600.6 18.6 600.5-47.2 603Z" fill="#808080"/>
<path d="m0 768c-15.4-0.1-30.8-2.1-46.1-2.2-2.9-54.8-0.8-110-3.2-164.9C-16.4 617.7 12.8 641.4 43 661.4c22.5 19.5 57.3 49.2 51.8 72.8-6.6 33.4-30.9 40.4-58.7 38.4zm246.5-7.1C198.1 682.7 106.9 651.7 24.5 623.2 11.3 618-47.5 601.8-2.5 611.4c108.2 18.5 216.9 39.7 317.4 85.4 34.8 17.1 87.5 39.5 107.6 75.2l-169.4 0.7c0 0-5.5-9.9-6.7-11.7zm415.9 0.3c-122.7-55.9-251-102.4-384-126.3-103.6-16.9-208.4-24.9-312.9-33.3 156.4 7.4 312.9 19.7 468.2 39.9 124.1 16.8 243.4 56.8 363.3 91.5 35.5 10.8 78 30.7 113.3 42.1L674.2 774.6 662.5 761.2ZM385.7 618.3C261.4 609.5 136.9 605 12.4 600.8c233.4-6 467.8-1.8 699.4 29.9 112.8 13.6 209.3 27.1 321.5 44.7l-1.9 41.2C854.1 696.9 567.6 629.8 385.7 618.3ZM1027.4 632c-22.8-4.4-52.4-7.6-52.4-7.6 21.1-35.7 86.9-75.1 58.2-66.2-39.4 13.1-68.6 29.5-104 56.5-28.7-3.2-78.4-8.9-78.4-8.9 49.5-26.3 120-38.3 174.2-50-86 8.7-145.7 25-229.9 43.4 0 0-77.4-5.7-129.7-7.9 109.4-26.4 241.6-27.9 353.3-38-113 5.4-226.2 10.2-339 19.4-53.8 4.1-50.3 5.1-129.5 14.7-58.7-2.1-148.8 1.9-207.5 0 143.4-23.4 289.3-31.3 434.8-33.1 90.7-2 181.4-2.8 272.1-2.5-6.1 25.2-13.3 58.4-22.2 80.1z"/>
<path d="m448.6 504.8 10.7 26.3 10.3-1.1-2.3-20.9 4.4-0.5 2.3 20.7 14.9 0.2 0.3 13.7 8.2-0.9 1.6 14.3-5.7 0.6 0.1 1c0.8 7.2-4.5 13.6-11.5 14.4-7 0.8-13.6-4.2-14.4-11.5-0.3-2.5 0.2-4.9 1.3-7.1l-14.1 1.5c0.2 11.4-8.5 20.9-19.5 22.1-11.7 1.3-22.8-7.2-24.1-19.4-1.1-9.7 4.4-18.4 12.6-22.2l-3.1-28.1 28.1-3.1zm-3.8 5.9-17.7 1.9 2.4 21.7 1-0.1c2.6-0.3 5.2 0 7.6 0.6l15-2.9-8.3-21.1zm-12.9 36.5c-5.6 0.6-8.4 5.1-7.9 9.7 0.5 4.6 4.3 8.3 9.8 7.7 5.6-0.6 8.4-5.1 7.9-9.7-0.5-4.6-4.3-8.3-9.8-7.7zm47.9 6.2c-3.8 0.4-6.4 3.7-6 7 0.4 3.4 3.5 6 7.4 5.5 3.8-0.4 6.4-3.7 6-7-0.4-3.4-3.5-6-7.4-5.5z"/>
<rect width="62.4" height="37.9" x="56.3" y="562.9" />
<path d="m48.2 566.5c-0.2-0.1-0.3-0.3-0.3-0.4 0-0.2 37.1-28.8 37.9-29.3 0.2-0.1 0.7-0.2 1.2-0.2 0.7 0 1 0.1 1.5 0.4 1 0.7 37 28.3 37.4 28.7l0.4 0.4-0.4 0.3c-0.4 0.3-1 0.3-38.9 0.3-27.8 0-38.6-0.1-38.9-0.2z"/>
<rect width="8.7" height="21.2" x="105" y="542.1" stroke-width="2"/>
<rect width="11.5" height="21.2" x="81.2" y="580.7" style="fill:#808080;"/>
<circle cx="371" cy="600.6" r="19.8" transform="rotate(-6.2209434)" style="fill:#808080;stroke-width:8;stroke:#000"/>
<path d="m592.6 532.9c0.1-3.7 0.4-27.8 0.4-36.6 0-3.6 0-6.5 0.1-6.5 0.2 0 5.2 1.8 5.3 1.9 0.1 0.1 0.2 8.4 0.4 18.5 0.1 10.1 0.3 20.1 0.3 22l0.1 3.6h-3.4-3.4z" style="stroke-linejoin:round;stroke-width:2"/>
<path d="m650.5 543.3c0.1-5.5 0.2-14.8 0.3-20.5l0.1-10.4 3.1 1.3 3.1 1.3 0.1 11.1c0.1 6.1 0.2 14.7 0.3 19.2l0.1 8.1h-3.6-3.6z" />
<path d="m349 421v-2.3l0.7-0.2c0.7-0.2 0.8-0.2 1.5 0l0.7 0.2v2.3 2.3h-1.5-1.5z" style="fill:#fff"/>
<path d="m339.7 420.2 4.9-7.9-2.1 0.4 5.3-8.4-2.3 0.7c0-0.1 4.8-7.1 4.9-7.1 0.1 0 5 7.1 5 7.1l-2.5-0.7 5.6 8.5-2-0.4 4.8 7.9-10.7-2.8z" style="fill:#fff"/>
<path d="m408.6 485.1v-4l1.2-0.3c1.1-0.3 1.4-0.3 2.5 0l1.2 0.3v4 4h-2.5-2.5z" />
<path d="m392.6 483.7 8.4-13.6-3.6 0.7 9.2-14.4-4 1.2c0-0.3 8.2-12.2 8.5-12.3 0.2-0.1 8.5 12.1 8.5 12.1l-4.3-1.3 9.5 14.6-3.4-0.7 8.3 13.6-18.4-4.8z" />
<path d="m371.6 465.3v-3.3l1-0.3c0.9-0.2 1.1-0.2 2.1 0l1 0.3v3.3 3.3h-2.1-2.1z" />
<path d="m358.5 464.2 6.9-11.2-2.9 0.6 7.5-11.9-3.3 1c0-0.2 6.8-10 7-10.1 0.2-0.1 7 10 7 10l-3.5-1.1 7.8 12-2.8-0.6 6.8 11.2-15.1-3.9z" />
<path d="m342.7 453v-2.5l0.8-0.2c0.7-0.2 0.8-0.2 1.6 0l0.8 0.2v2.5 2.5h-1.6-1.6z" />
<path d="m332.8 452.1 5.2-8.5-2.2 0.4 5.7-9-2.5 0.8c0-0.2 5.1-7.6 5.3-7.7 0.1 0 5.3 7.6 5.3 7.6l-2.7-0.8 6 9.1-2.1-0.5 5.2 8.5-11.5-3z" />
<path d="m327.9 439.9v-2.5l0.8-0.2c0.7-0.2 0.8-0.2 1.6 0l0.8 0.2v2.5 2.5h-1.6-1.6z" style="fill:#fff"/>
<path d="m317.9 439 5.2-8.5-2.2 0.4 5.7-9-2.5 0.8c0-0.2 5.1-7.6 5.3-7.7 0.1 0 5.3 7.6 5.3 7.6l-2.7-0.8 6 9.1-2.1-0.5 5.2 8.5-11.5-3z" style="fill:#fff"/>
<path d="m345.2 427.3v-2l0.6-0.2c0.6-0.1 0.7-0.1 1.2 0l0.6 0.2v2 2h-1.2-1.2z" style="fill:#fff"/>
<path d="m337.3 426.6 4.1-6.7-1.8 0.3 4.5-7.1-2 0.6c0-0.1 4.1-6 4.2-6.1 0.1 0 4.2 6 4.2 6l-2.1-0.6 4.7 7.2-1.7-0.4 4.1 6.7-9.1-2.4z" style="fill:#fff"/>
<path d="m358.4 442.9v-2.5l0.8-0.2c0.7-0.2 0.8-0.2 1.6 0l0.8 0.2v2.5 2.5h-1.6-1.6z" style="fill:#fff"/>
<path d="m348.4 442 5.2-8.5-2.2 0.4 5.7-9-2.5 0.8c0-0.2 5.1-7.6 5.3-7.7 0.1 0 5.3 7.6 5.3 7.6l-2.7-0.8 6 9.1-2.1-0.5 5.2 8.5-11.5-3z" style="fill:#fff"/>
<path d="m349.1 419.5 3.4-5.5-1.5 0.3 3.7-5.8-1.6 0.5c0-0.1 3.3-4.9 3.4-5 0.1 0 3.5 4.9 3.5 4.9l-1.7-0.5 3.9 5.9-1.4-0.3 3.3 5.5-7.5-1.9z" style="fill:#fff"/>
<path d="m350.5 477.1v-3.1l1-0.2c0.9-0.2 1.1-0.2 2 0l1 0.2v3.1 3.1h-2-2z" />
<path d="m338 476 6.6-10.7-2.8 0.5 7.2-11.3-3.2 1c0-0.2 6.5-9.6 6.7-9.6 0.1-0.1 6.7 9.6 6.7 9.6l-3.4-1 7.5 11.5-2.7-0.6 6.5 10.7-14.5-3.8z" />
<path d="m371.6 499.8v-3.1l1-0.2c0.9-0.2 1.1-0.2 2 0l1 0.2v3.1 3.1h-2-2z" />
<path d="m359.1 498.7 6.6-10.7-2.8 0.5 7.2-11.3-3.2 1c0-0.2 6.5-9.6 6.7-9.6 0.1-0.1 6.7 9.6 6.7 9.6l-3.4-1 7.5 11.5-2.7-0.6 6.5 10.7-14.5-3.8z" />
<path d="m339.3 497v-3.1l1-0.2c0.9-0.2 1.1-0.2 2 0l1 0.2v3.1 3.1h-2-2z" />
<path d="m326.8 495.9 6.6-10.7-2.8 0.5 7.2-11.3-3.2 1c0-0.2 6.5-9.6 6.7-9.6 0.1-0.1 6.7 9.6 6.7 9.6l-3.4-1 7.5 11.5-2.7-0.6 6.5 10.7-14.5-3.8z" />
<path d="m392.3 444.8v-2.4l0.7-0.2c0.7-0.2 0.8-0.2 1.5 0l0.7 0.2v2.4 2.4h-1.5-1.5z" />
<path d="m382.7 444 5-8.2-2.1 0.4 5.5-8.7-2.4 0.8c0-0.2 5-7.3 5.1-7.4 0.1 0 5.1 7.3 5.1 7.3l-2.6-0.8 5.7 8.8-2-0.4 5 8.2-11.1-2.9z" />
<path d="m320.8 474.6v-2.7l0.9-0.2c0.8-0.2 0.9-0.2 1.7 0l0.9 0.2v2.7 2.7h-1.7-1.7z" />
<path d="m309.8 473.6 5.8-9.4-2.5 0.5 6.3-9.9-2.8 0.9c0-0.2 5.7-8.4 5.8-8.5 0.1 0 5.9 8.4 5.9 8.4l-3-0.9 6.6 10.1-2.3-0.5 5.7 9.4-12.7-3.3z" />
<path d="m89 152.3 0-5.6-2-1.8c-1.1-1-2.2-1.9-2.3-2.1l-0.3-0.2-1.8 0.2c-4.7 0.4-11.9 0.5-16.8 0.1l-0.9-0.1-0.4 1.7c-0.2 0.9-0.4 1.8-0.5 1.9-0.1 0.3-0.5 0.5-1.1 0.6-0.8 0.2-0.8 0.1-2.9-2.6l-1.9-2.5-0.6-0.1c-0.8-0.1-1.6-0.3-1.8-0.5-0.3-0.3-0.2-1 0.2-1.4l0.3-0.3-3.6-3.3c-4.5-4.2-4.4-4.1-4.4-4.3 0-0.2 0.6-0.6 1.2-0.7 0.9-0.2 1.3-0.1 5.5 1.9 2.1 1 4 1.9 4 1.9 0.1 0 0.1-0.2 0-0.4-0.1-0.7-0.4-4.8-0.4-5.2 0-0.4 0-0.4 1.2-0.6 0.8-0.1 0.8-0.1 1.3 0.1 0.9 0.4 1.4 0.8 4.1 3.8 1.5 1.6 2.8 2.9 2.8 2.9 0.2 0 9.1-1.6 9.2-1.7 0 0-0.9-1-2.1-2.3l-2.2-2.2-10.2-6.4c-5.6-3.5-10.1-6.4-10.1-6.5 0-0.1 1.6-1.4 2-1.5 0.2-0.1 0.6-0.1 1-0.2 0.7 0 0.7 0 20.8 7.9l20.2 7.9 6.4-1.2c5.5-1 6.5-1.3 7.3-1.6 1.8-0.7 3.6-1.1 5.1-1 1.2 0.1 1.6 0.2 2.7 0.7 0.5 0.3 1.6 0.7 2.4 0.9 1.8 0.5 2.2 0.7 2.6 1.1 0.7 0.6 0.9 1.5 0.5 2.4-1.1 2.3-6.8 4.7-16 6.5-1.9 0.4-5.3 1-6.3 1.1l-0.6 0.1-3.8 8.3c-2.6 5.6-3.9 8.4-4.1 8.7-0.5 0.6-0.9 0.7-2.4 0.9-0.7 0.1-1.4 0.1-1.4 0.1 0 0-0.1-2.4-0.1-5.6z" />
</svg>
