<svg xmlns="http://www.w3.org/2000/svg" viewBox="0 0 512 384">
<path d="m160.1 75.5c4.4-5.8 9.4-11.1 14.9-15.9 6.7-5.8 14.1-10.9 22-14.9 8.9-3.9 18.2-6.8 27.7-8.6 6.9-1.3 13.8-2 20.8-2.3 6.5-0.3 13-0.1 19.5 0.4 7.5 0.7 14.9 1.9 22.1 3.8 10.5 2.7 20.8 6.7 30.2 12.1 13 7.4 24.6 17.4 33.8 29.3l10 26.2-10 63.4-21.9 37c-9.5 12.3-18.8 24.6-28.1 37.1-6.7 9-13.3 18-19.9 27-6.8 4.1-14.7 6.3-22.6 6.2-7.9-0.1-15.8-2.5-22.4-6.9-8.9-5.8-15.2-14.7-22.2-22.6-4-4.6-8.4-8.9-12.6-13.4-13.6-14.3-26-29.8-37-46.1l-16-60.7 4.6-29.7 3.7-13.7 3.4-7.7z" style="fill:#808080"/>
<path d="m160.1 75.5c0 0 9.4-11.2 14.9-15.9 6.4-5.5 22-14.9 22-14.9 0 0 18-6.5 27.7-8.6 6.9-1.5 14-2 20.8-2.3 6.8-0.3 19.5 0.4 19.5 0.4 0 0 14.9 1.8 22.1 3.8 10.9 3 21 6.4 30.2 12.1 12.7 7.8 33.8 29.3 33.8 29.3l10 26.2-10 63.4-21.9 37-28.1 37.1-19.9 27c0 0-31 5.4-45-0.7-7.7-3.4-14.9-15.4-22.2-22.6-7.3-7.2-5.9-6.3-12.6-13.4-13.3-14.1-37-46.1-37-46.1l-16-60.7 4.6-29.7 3.7-13.7z" style="fill:#808080"/>
<path d="m253.4 349.8c-2.4-0.1-3.4-0.2-4.4-0.5-1-0.3-1.8-0.8-2.4-1.5-0.8-0.9-1.2-2-1.4-3.7-0.1-0.5-0.1-2.2-0.1-7.6l0-7-0.7 0c-0.8 0-1 0-1.3-0.4-0.4-0.5-0.3-1.3 0.2-1.7l0.2-0.2 0.9 0c0.5 0 0.9 0 0.9 0 0 0 0.7-3.7 1.5-8.3 0.8-4.5 1.5-8.3 1.5-8.4 0-0.1 0.1-0.3 0.1-0.6l0.1-0.5-1.7-7.8-1.7-7.8-0.2-0.1c-0.1-0.1-0.3-0.3-1.2-2-2.9-5.7-5.3-11.5-7.3-17.5-0.7-2-1.5-4.7-1.5-4.8 0 0 0-0.1 0.1 0 0.1 0.1-0.1-0.2-3.2-3.6l-2.9-3.2-4.2-7.3c-6.9-11.9-12.4-21.4-17.2-29.6-6-10.3-6.6-11.4-8.9-16-8.2-16.2-14.1-34.1-18.3-55.1-2.6-13.2-4-24.4-4.4-36.1-0.1-2.3 0-9.4 0.1-11.3 0.6-11.3 2-20.5 4.6-29.8 2.7-9.6 6.8-18.8 11.6-26.2 1.2-1.9 4.2-6.2 4.7-6.6 0.2-0.2 3.6-1.7 6.3-2.7 5.3-2 10.6-3.6 16.5-4.9 1.6-0.4 5-1 5.1-1 0 0-0.3 0.5-0.7 1-11 15.6-17.6 38.9-19.4 68.5-0.8 13.8-0.5 29.4 0.8 43.5 0.3 3.5 0.5 5.1 1 8.4 3.8 24 13.3 57.8 27.7 97.4 1.8 5 5.8 15.8 5.9 15.9 0 0 3.1 0.6 4.5 0.9 2.2 0.4 6.4 0.9 6.4 0.9 0 0-0.3-2.3-0.6-5-7.6-61.4-12.6-109.5-13.3-130.1 0-0.9-0.1-2.7-0.1-3.9-0.7-17.2-0.6-35.2 0.1-50.1 1.1-23.6 3.8-40 8-48.9l0.3-0.7 0.6 0c0.3 0 2.7-0.1 5.3-0.1 5.6 0 8.5 0 12.4 0.4 0.6 0 1.1 0.1 1.2 0.1 0.1 0 0.3 0.3 0.9 1.8 3.8 9.6 6.2 26.6 7.1 49.8 0.5 14 0.4 31.4-0.3 46.4 0 1-0.1 2.4-0.1 3-0.6 19.8-5.6 70.7-13.4 134.4-0.2 1.7-0.4 3.2-0.4 3.2l0 0.1 1.5 0c2.2 0 4.6-0.1 6.9-0.3 1.3-0.1 1.2-0.1 1.3-0.4 0.4-1 3.5-9 5.1-13.4 15.7-41.8 26.1-77.8 30-103.1 1-6.4 1.7-15.4 2.1-26.5 0.1-2.8 0.1-13.8 0-16.5-0.1-2.7-0.2-5.5-0.3-7.4-1.6-28.3-7.7-50.9-17.7-66.5-0.4-0.6-0.6-1-0.5-0.9 0.1 0 0.5 0.1 1 0.3 6.5 1.7 13 4 19 6.7 3.8 1.7 9.7 4.7 10.2 5.1 0.3 0.3 1.8 2.8 3.1 5 2.9 5.3 5.6 11.3 7.6 17.3 5 15 6.9 32 5.8 50.9-0.6 11.1-2.4 23.1-5.3 36.2-4.8 21.7-11.8 40.7-21.2 57.2-0.4 0.8-2.4 4.2-4.4 7.5-3.8 6.6-9.3 16-14.7 25.3-1.9 3.2-5.5 9.5-8 13.8-2.5 4.4-4.6 7.9-4.6 7.9 0.1 0.1 4-1 5.2-1.4 0.3-0.1 0.6-0.2 0.6-0.2 0 0-0.4 1.3-0.9 2.8-3.3 10.4-6.2 18.9-7.1 20.9-0.2 0.4-0.2 0.4-0.4 0.5l-0.2 0.1-0.3 1.5c-0.2 0.8-1 4.3-1.7 7.7-1.1 4.9-1.3 6.2-1.3 6.3 0 0 0.7 3.6 1.7 8.7 0.9 4.8 1.6 8.7 1.6 8.8 0 0.1 0.1 0.1 0.5 0.1 0.8 0 1.3 0.2 1.5 0.7 0.1 0.3 0.2 0.7 0 1-0.1 0.1-0.2 0.3-0.3 0.4-0.2 0.1-0.3 0.2-0.9 0.2l-0.6 0 0 2c0 1.1-0.1 4.3-0.1 7.2 0 4.7-0.1 5.2-0.2 5.9-0.2 1-0.4 1.6-0.7 2.3-0.6 1.3-1.8 2.1-3.3 2.4-0.9 0.2-2.4 0.3-4.5 0.4-1.4 0.1-9.5 0.1-11 0.1zm17.5-22.6c0 0-1.7-8.8-2.9-15.1l-0.1-0.4-1.6 0-1.6 0 0 0.3c-0.1 0.7-0.5 1.3-1.2 1.6-0.4 0.2-0.5 0.2-1 0.2-0.9 0-1.5-0.1-2-0.6-0.3-0.3-0.6-0.8-0.6-1.2l0-0.3-1 0-1 0-0.1 0.3c-0.3 1.3-1.5 2-3 1.7-0.9-0.2-1.6-0.9-1.7-1.8l0-0.2-1.5 0-1.5 0 0 0.1c0 0.1-0.7 3.5-1.4 7.6-0.8 4.1-1.4 7.6-1.5 7.7l-0.1 0.3 11.8 0c6.5 0 11.8 0 11.8-0.1zm-17.7-19.1 0-1.5 0.2-0.4c0.4-0.8 1.1-1.3 2.2-1.3 1 0 1.7 0.4 2.1 1.1 0.3 0.5 0.3 0.9 0.3 2.2l0 1.2 1 0 1 0 0-1.5 0-1.5 0.2-0.3c0.4-0.8 1.2-1.2 2.2-1.2 1 0 1.8 0.4 2.2 1.2l0.2 0.3 0 1.5 0 1.5 1.4 0 1.4 0-0.1-0.4c-0.6-2.7-2.9-13.3-2.9-13.3 0 0-0.5 0-1 0.1-3.1 0.3-6.3 0.3-9.3-0.1-0.5 0-0.8-0.1-0.9-0.1 0 0-2.8 12.9-2.9 13.6l0 0.2 1.3 0 1.3 0 0-1.5zm-1.8-5.9c0.9-4.3 1.4-6.5 1.3-6.5 0 0-0.6-0.1-1.2-0.2-0.6-0.1-1.3-0.2-1.4-0.2l-0.2 0 0 6.9c0 3.8 0 6.8 0 6.8 0-0.1 0.7-3 1.4-6.6zm16.8-6.9c0 0-0.1 0-0.4 0-0.2 0-0.8 0.1-1.4 0.2-0.6 0.1-1 0.2-1 0.2 0 0 2.7 12.9 2.8 13.1 0 0.1 0-2.9 0.1-6.7 0-3.7 0-6.8 0-6.8zm-19-0.3c0 0-0.4-0.1-0.9-0.2-0.5-0.1-1.1-0.3-1.5-0.4-0.4-0.1-0.7-0.2-0.7-0.2 0 0.1 3 14 3.1 14.3 0.1 0.2 0.1-0.9 0.1-6.6 0-3.8 0-6.9 0-6.9zm21.4 6.3c0.8-3.9 1.5-7 1.5-7 0 0-0.4 0.1-0.8 0.2-0.4 0.1-1.1 0.3-1.5 0.4l-0.8 0.2 0 6.9c0 4.3 0 6.8 0 6.6 0-0.1 0.7-3.4 1.6-7.3zm30.3-58c0 0 1.3-1.8 2.8-4 15.8-22.4 25.8-36.7 28-40.3 4.4-7.1 8.7-15.8 12.2-24.5 6.7-16.6 10.6-33.4 11.8-50 0.4-5.9 0.5-12.2 0.1-18-0.3-6.1-2.4-18-4.7-26.6-0.2-0.7-0.2-1-0.2-0.9 0.5 0.7 2.1 3 3 4.4 6.1 9.6 9.9 19.8 11.6 30.6 0.5 3.4 0.8 6.6 0.8 10.3 0.2 12.9-2.8 26.2-9 39.6-5.6 12.1-12.9 24-23.3 37.7-3.7 4.8-7 9-14.3 18-7.5 9.3-12.8 15.9-18.6 23.4-0.1 0.2-0.3 0.3-0.3 0.3 0 0 0 0 0-0.1zM200.5 232c-5-5.3-12.1-12.9-17.4-18.5-1.3-1.4-3.1-3.3-4.1-4.2-10.5-10.7-19.9-24.7-26-38.8-4.7-10.9-7.6-22.1-8.4-33-0.2-2.7-0.2-3.4-0.2-7.2 0-3.9 0-4.8 0.3-7.6 0.6-7.5 2.2-14.9 4.6-22.2 0.2-0.5 0.5-1.5 0.6-2.2 1.4-5.4 4.1-11.9 7.4-17.7 0.9-1.6 2.9-4.8 3-4.8 0 0-0.1 0.6-0.3 1.2-2.2 7.6-4 16.3-5.1 24.8-0.6 4.6-0.8 7.3-0.8 13.4 0 3.7 0 5.3 0.2 8.4 1.1 19.4 6.2 39.5 14.9 58.7 2.7 5.9 5.8 12 8.8 16.9 1.3 2.1 2 3.2 4.4 6.6 5.5 7.7 19.9 28 20.1 28.3 0 0 0 0.1 0 0.1 0 0-1-1-2.1-2.2z"/>
</svg>
