<svg xmlns="http://www.w3.org/2000/svg" viewBox="0 0 512 384">
<rect width="512" height="384" fill="transparent"/>
<rect width="548" height="136" x="-12.2" y="318.7" transform="matrix(0.99976973 -0.02145906 0.02145906 0.99976973 0 0)" style="fill:#808080;"/>
<path d="m138.6 175.4h248.2v150.8h-248.2z" class="a"/>
<path d="m106.4 189.7c-1-0.3-1.3-1.3-1.3-1.6 0-1 147.7-114.6 150.8-116.5 0.6-0.6 2.9-1 4.8-1 2.9 0 3.8 0.3 6 1.6 3.8 2.9 147 112.7 148.6 114.2l1.6 1.6-1.6 1c-1.6 1.3-3.8 1.3-154.7 1.3-110.7 0-153.7-0.3-154.7-0.6z"/>
<path d="m332.4 92.7h34.4v84.3h-34.4z"/>
<path d="m237.5 246h45.8v84.3h-45.8z" style="fill:#808080;"/>
</svg>
