<svg xmlns="http://www.w3.org/2000/svg" viewBox="0 0 512 384">
<rect width="512" height="384" id="P001WIImgRct7" fill="#fff"/>
<path d="m-1900.4-988.8c-2.5-2.5-3.7-5.3-4.3-9.8l-0.9-6.3-13.2-0.9c-17.7-1.2-41.5-1.2-64 0-12.6 0.7-22.1 0.5-29.4-0.4l-10.8-1.4-4 4.6c-4.9 5.6-10.2 7.9-17.9 7.9-10.2 0-16.7-5.6-18.3-15.8-0.5-2.9-1.3-5.3-1.8-5.3-0.5 0-9.5-1.1-19.8-2.5-44.8-6-71.9-12.9-134.5-34.5-57.9-19.9-62.6-22.2-62.6-30.5 0-5.8 3-8.9 11.2-11.9 5.6-2 7.3-3.2 6.8-4.7-9.8-32.3-14.6-50.1-14.8-54.2-0.4-11.6 14-18.5 28-13.5 6.9 2.5 15.1 9.3 40.6 33.6 33.2 31.8 34.5 32.8 43.8 34.7 9.3 2 54.5 7 132.1 14.8 74.8 7.5 142.7 15.1 153.9 17.2 23.1 4.4 44.6 17.8 50.8 31.5 2.3 5.1 2.3 5.7 0.4 10.8-2.3 6-5.8 8.7-19.9 14.9-22.7 10.1-28.8 13.5-30.9 17.3-4.6 8.3-14.5 10.4-20.5 4.5zm12.6-11.8c2-4.2 6.2-6.6 33.2-18.9 17.9-8.2 18.9-9.6 12.1-17.3-8.6-9.8-24.7-17.9-41.8-20.9-12.6-2.2-62.8-7.8-144.4-16-117.3-11.8-143.7-15.1-149.8-18.2-4-2.1-16.3-13.1-39.5-35.5-27.6-26.5-33.8-31.2-41.7-31.2-10.3 0-10.3 0.2-1.3 30.8 4.3 14.8 8.1 28.5 8.4 30.6 0.7 4.7-2 7.3-10.6 10.2-3.5 1.2-6.5 2.7-6.6 3.4-0.3 1.8 14.8 7.4 64.6 24.2 61 20.5 75.9 24.1 130 31.6 19.9 2.8 22.4 4.3 22.4 14.3 0 3.8 0.7 5.3 3.1 6.9 5.1 3.3 10.8 1.4 16.3-5.3l4.7-5.7 13.7 1.1c15.6 1.2 30.5 1.2 57-0.1 20.6-1 56.8 0.9 59.5 3.1 0.9 0.8 2.3 4.6 3.1 8.4 0.8 3.9 1.6 7.7 1.9 8.6 0.8 2.5 3.8 0.5 5.8-3.8l0 0z"/><circle cx="389" cy="347.2" r="13.5"/>
<path d="m325.4 301.1c1.5 2.9 5.2 8.9 8.1 13.3 2.9 4.4 4.8 9.3 4.3 10.8-0.6 1.5 1 5 3.4 7.6 4.3 4.7 4.3 5 0.5 9.2-2.2 2.4-5.6 4.3-7.7 4.3-2.1 0-8 2.4-13.2 5.4-9.2 5.3-25 7.6-22.4 3.3 0.7-1.2 4-2.2 7.4-2.2 3.3 0 7.5-1.7 9.4-3.8 3.1-3.5 2.2-6.5-10.5-35.7-7.6-17.6-18.2-37.8-23.5-45-5.3-7.2-13.7-20.7-18.7-30.2-5-9.4-9.9-17.2-10.7-17.2-0.9 0-5 4.6-9.1 10.3-4.2 5.7-9.5 12.1-11.9 14.2-2.4 2.1-6.5 9.9-9.2 17.2-4.7 12.6-22.3 42.8-37.7 64.1-3.8 5.3-7.6 13.3-8.4 17.6-0.8 4.3-2.8 8.4-4.5 9.1-2.8 1.1-13.1 0.3-24.2-2-5.1-1-18-11-18-13.9 0-1 6.3-1.6 13.9-1.4 18 0.4 21.7-2.6 13.4-11.2l-5.9-6.2 11.7-8.1c6.4-4.4 13.6-10.7 16-13.9 6.6-8.9 13.5-23.4 13.5-28.3 0-6.5 6.6-22.3 10.8-26.1 2-1.8 5.9-9.6 8.7-17.3 2.8-7.7 8.3-19.2 12.3-25.5 7.1-11.3 7.6-15.5 1.7-15.5-4.7 0-12.4-12.3-10.8-17.3 1.8-5.8 0.2-5.5-12.4 2.3-8.4 5.2-11.3 6-13.7 4.1-2.3-1.9-4.2-1.8-8.1 0.8-2.8 1.8-8.9 4-13.5 4.9l-8.4 1.6 6.5-5.4c3.6-3 8.9-6.3 11.9-7.4 3-1.1 13.4-6.2 23.2-11.4 16.7-8.8 17.8-9.9 17.8-16.4 0-7.5 15.5-40.9 24.6-53 3.1-4.1 5.6-8.5 5.6-9.9 0-4.8-8.4-11.5-12.9-10.4-3.3 0.9-4.4 0.1-4.4-3.2 0-2.4-1.4-5.5-3.2-7-2.3-1.9-2.6-3.7-1.1-6.6 1.2-2.2 2.1-7.3 2.1-11.3 0-10.6 5.7-14.9 18.6-14.1 8.9 0.6 11.1 1.6 15 7.5 2.5 3.7 6.2 12.5 8.3 19.4 2.1 7 6.1 20 9 28.9 5.2 16.1 6.5 26.7 4 33.3-2.1 5.4-5.2 4-5.4-2.5-0.3-8.1-6.1 17.8-6.1 27.6 0 4.2 2.4 15.3 5.4 24.8 3.5 10.9 4.7 17.5 3.2 18-1.3 0.4-1.7 3.1-1 6 0.7 2.9 0.2 6.7-1.3 8.4-3.7 4.5-0.7 15.4 5.5 20.3 3.4 2.6 6 8 7.5 15 2 9.3 13.6 32.1 19.3 37.9 9.1 7.4 9.7 21.4 15.2 31.8z"/>
<rect width="56.9" height="26" x="-66.1" y="224.3" transform="matrix(0.71188194 -0.70229916 0.70229916 0.71188194 0 0)" style="fill:#808080;"/>
<circle cx="-53" cy="237.2" transform="matrix(0.71188194 -0.70229916 0.70229916 0.71188194 0 0)" r="10.4"/>
<rect width="25.6" height="1.9" x="-38.5" y="227.1" transform="matrix(0.71188194 -0.70229916 0.70229916 0.71188194 0 0)"/>
<rect width="25.6" height="1.9" x="-38.5" y="230.7" transform="matrix(0.71188194 -0.70229916 0.70229916 0.71188194 0 0)"/>
<rect width="25.6" height="1.9" x="-38.5" y="234.3" transform="matrix(0.71188194 -0.70229916 0.70229916 0.71188194 0 0)"/>
<rect width="15.2" height="1.9" x="-38.5" y="238.2" transform="matrix(0.71188194 -0.70229916 0.70229916 0.71188194 0 0)"/>

<path d="m 127.5387,213.93282 c -0.69782,0.19177 -1.411,0.40358 -1.58484,0.47065 -0.26779,0.10332 -0.31608,0.0145 -0.31608,-0.58129 v 3e-5 c 0,-0.63358 0.0894,-0.77003 0.90309,-1.37746 l 0.9031,-0.67422 v -2.43486 c 0,-1.72559 -0.061,-2.82203 -0.20935,-2.82203 -0.17842,0 -5.99451,2.2015 -6.76977,2.499 -0.44632,-0.4293 -0.20089,-1.02261 -0.15533,-1.80804 l 3.52207,-2.2008 3.52207,-2.2008 0.0903,-2.84428 c 0.0863,-2.71833 0.10919,-2.85955 0.51671,-3.18903 0.54247,-0.43861 1.13338,-0.43861 1.67586,0 0.40752,0.32948 0.4304,0.4707 0.51671,3.18903 l 0.0903,2.84428 3.52206,2.2008 3.52207,2.2008 c 0.0285,0.31768 0.27929,1.54104 -0.12522,1.81989 -0.74394,-0.28452 -6.63967,-2.51085 -6.80781,-2.51085 -0.13817,0 -0.20141,1.15165 -0.20141,2.82203 v 2.43486 l 0.90309,0.67422 c 0.81364,0.60743 0.9031,0.74388 0.9031,1.37746 0,0.5956 -0.0484,0.68467 -0.31609,0.58185 -0.17384,-0.0668 -0.88304,-0.27857 -1.57599,-0.47066 l -1.24764,-0.34011" style="fill:#808080;"/>

<path d="m353.7 319.2-21.6-20.1-1.5-3.4c-0.8-1.9-2.5-6.2-3.6-9.6-3.8-11.5-5.9-15.5-10.8-20.8-2.6-2.8-5.3-6.5-7.6-10.7l-1-1.8 1.9-2.1c8.1-9 14.2-15 15.9-15.8 2.3-1 5.8-1.1 7.9-0.2 2.2 0.9 6.9 5.2 53.4 48.4 18 16.7 26.7 25.1 27.4 26.4 1.3 2.3 1.5 7.1 0.3 9.3-0.7 1.4-5.4 6.7-11.5 13.1-3.3 3.5-3.5 3.6-4.3 2.9-1.5-1.4-5.8-3-8.4-3.3-5-0.5-10.4 1.9-13.6 5.9l-1.4 1.7-21.6-20.1z" style="fill:#808080;"/>
</svg>