<svg xmlns="http://www.w3.org/2000/svg" viewBox="0 0 512 384">
<rect width="512" height="384" id="P001WIImgRct1" fill="#fff"/>
<path d="m250 294.6c-12.8-1-21.4-4.7-20.6-8.9 0.2-0.9 10.5-130.8 10.5-131.9 0-0.5 0.9-0.6 19.6-0.8 10.8-0.1 19.6-0.2 19.7-0.1 0.1 0.1 2.7 29.3 5.8 65.1 3.1 35.7 5.8 65.4 5.9 65.8 0.6 2.9-4.5 6.3-12.3 8.3-7.9 2.1-19.9 3.1-28.6 2.4z"/>
<path d="m236.9 142.8c-6.5-12.5-10.2-18.4-14.6-23.7-4-4.7-4.3-6.1-4.4-15.8 0-8.8 0.3-10 2.8-11.3 2.6-1.3 3.3-2.4 3.9-5.7 0.6-3.7 0.9-3.8 7.2-3.8l4.5 0 0-11 0-11 1.9 0 1.9 0 0 11 0 11 1.5 0 1.5 0 0-5.2 0-5.2 1.3 0 1.3 0 0 5.2 0 5.2 4.9 0c7.4 0 12-0.6 13-1.8 0.4-0.5 0.8-1.3 0.8-1.7 0-0.4 1.1-2 2.4-3.5 1.3-1.5 2.4-3.1 2.4-3.5 0-1.2-1.7-2-6.1-2.7-2.3-0.4-4.3-0.9-4.5-1.1-0.2-0.2 0.7-0.7 1.9-1.2 2-0.7 3.6-0.8 10.5-0.8 8.1 0 11.2 0.5 11.5 1.7 0.1 0.2-1.8 0.8-4.2 1.3-2.4 0.5-4.7 1-5.1 1.2-1.4 0.5-0.9 2.3 1.4 4.9 1.2 1.4 2.3 3 2.4 3.7 0.5 2.4 1.2 2.7 9.9 3.2 4.4 0.3 8.2 0.7 8.4 0.9 0.3 0.3 0.6 1.7 0.8 3.1 0.4 3.2 0.8 3.7 3.5 5 1.6 0.8 2.2 1.4 2.6 2.6 0.7 2.1 0.7 17 0 19.5-0.4 1.3-1.4 2.8-3.4 5-3.5 3.8-5.4 6.8-12.8 20.1l-5.7 10.2-20.1 0.1-20.1 0.1-3.3-6.4 0 0zm61.6-38.4 0-7.1-38.1 0-38.1 0 0 7.1 0 7.1 38.1 0 38.1 0 0-7.1z" />
<path d="m-1 359.7 0-26.3 2.6-0.3C3.1 332.8 117 326.6 254.8 319.2 392.6 311.8 507 305.5 509.2 305.3l3.8-0.4 0 40.5 0 40.5-257 0L-1 386-1 359.7Z" style="fill:#808080;"/>
<path d="m293.1 289.8 2-1.6-0.2-5.6-0.2-5.6 105.2-5c57.9-2.8 107-5 109.1-5.1l3.8 0 0 7c0 6.8 0 7-1.4 7.3-1.5 0.3-213.9 10.2-217.9 10.2l-2.4 0 2-1.6z" style="fill:#808080;"/>
<path d="m-1 298.3 0-7.4 2.7 0c2.7 0 202.9-9.4 215.6-10.1l6.6-0.4-0.4 4.8-0.4 4.8 2.6 2.2 2.6 2.2-2.1 0.3c-1.1 0.2-50 2.5-108.7 5.3-58.6 2.7-109.3 5.1-112.6 5.3L-1 305.8l0-7.4z" style="fill:#808080;"/>
<path d="m-1 278c0-1.6 0.2-1.9 1.4-1.9 0.8 0 51.6-2.3 112.9-5.2 61.3-2.9 111.6-5.1 111.7-4.9 0.2 0.2 0.1 1-0.1 1.8-0.3 1.2-0.8 1.6-2.1 1.6-0.9 0-40 1.8-86.8 4-46.8 2.2-94.1 4.4-105.1 4.9-11 0.5-22.7 1.1-26 1.3L-1 280l0-1.9z" style="fill:#808080;"/>
<path d="m293 264.4c-0.1-1-0.2-1.9-0.1-1.9 0.1-0.1 43.6-2.1 96.8-4.6 53.2-2.5 102.2-4.8 109-5.1 6.8-0.3 12.7-0.6 13.3-0.6l1 0 0 1.8 0 1.8-2.2 0.2c-1.2 0.1-49.8 2.4-108 5.1-58.2 2.7-106.6 5-107.7 5l-1.9 0.1-0.2-1.8z" style="fill:#808080;"/>
</svg>