<svg xmlns="http://www.w3.org/2000/svg" viewBox="0 0 512 384">
<rect width="512" height="384" id="P001WIImgRct2" fill="#fff"/>
<path d="m0 328.9 0-55.1 14.2-0.7c12.2-0.6 30.7-1.6 92.5-4.9 14.3-0.8 43.2-2.3 58.7-3 61.9-3.1 70.1-3.3 74.2-2.1 4.1 1.2 9.2 0.9 14.2-0.8 11-3.8 44.4-4.8 81.7-2.6 10.8 0.6 30.4 1.7 43.7 2.2l24.2 1.1 3.5 3.2c4.8 4.4 7.9 5.8 12.8 5.8 5.4 0 9.7-2.2 13.1-6.6 3-4 4.3-4.7 11.9-6.5 7.1-1.7 14.6-4.6 18.2-7 3.6-2.4 4.8-2.6 43.2-5.2L512 246l0 69 0 69-256 0-256 0 0-55.1z" style="fill:#808080;stroke-width:2"/>
<path d="m415.1 264.4c-1.8-0.9-3.7-2.8-4.5-4.6l-1.5-3.1-30.5-1.5c-16.8-0.8-37.7-1.9-46.5-2.3-13.3-0.7-33.1-2.6-65.7-6.5l-4.8-0.6-1.8 3.7c-2.3 5-6.4 7.7-11.5 7.7-7.2 0-13.1-5.6-13.1-12.3 0-1.9-0.5-3.4-1.1-3.6-0.6-0.2-7.5-1.5-15.4-3.1-14.6-2.8-51.4-10.8-71.4-15.6-6.2-1.5-25.3-5.8-42.4-9.6-30.4-6.7-47.8-11-52.5-12.8-3.6-1.4-4.1-3.2-3.2-11.3 0.4-4 1.1-7.6 1.3-8.1 0.5-0.9 11.8-0.4 20.7 0.8l4 0.5-0.6-5.1c-0.7-6.4-2.3-60.2-1.8-60.7 0.2-0.2 3.5-0.1 7.3 0.3l7 0.6 8.4 10.1c4.6 5.5 14.1 16.7 21 24.8 9.4 10.9 29.9 35.9 30.6 37.3 0.1 0.2 30.2 3.4 107.7 11.6 35.9 3.8 77.9 8.3 93.4 9.9 15.5 1.7 37.1 4 48 5.2 10.9 1.2 26 2.9 33.4 3.7l13.6 1.6 6.1 5.4c6.7 6 13.1 13.7 13.1 15.9 0 3.3-11.2 8.1-24.9 10.6-6.8 1.3-8 1.7-8 3.2 0 2.8-2.7 6.6-5.7 8-3.6 1.7-5.3 1.7-9-0.2z" stroke-width="2"/>
</svg>