<svg xmlns="http://www.w3.org/2000/svg" viewBox="0 0 512 384">
  <rect width="512" height="384" id="P001WIImgRct8" fill="#fff"/>
<circle r="35" cy="327.6" cx="329.9"/>
<path d="m238.3 255-56.1-52.1-4-8.8c-2.2-4.8-6.4-16.1-9.3-25-9.9-29.9-15.3-40.3-28.1-53.9-6.8-7.3-13.7-17-19.6-27.7l-2.6-4.7 4.8-5.4C144.4 54.1 160.3 38.3 164.8 36.4c5.9-2.6 15.1-2.9 20.4-0.6 5.7 2.5 17.9 13.5 138.6 125.6 46.8 43.4 69.4 65.1 71.2 68.5 3.4 6.1 3.9 18.5 0.9 24.1-1.9 3.6-13.9 17.4-29.7 34.1-8.6 9.2-9.1 9.5-11.1 7.6-3.9-3.5-15.1-7.8-21.8-8.5-13-1.2-27.1 4.9-35.3 15.3l-3.5 4.5-56.1-52.1z" style="fill:#808080;"/>
<path d="m95.5 352c-1.6-1.6-1.2-3 1.2-5 3-2.3 7.1-3.4 16.9-4.3 9-0.9 16.1-3.2 21.4-7 11.6-8.4 10-16.7-14.1-73.1C106.2 227.9 99.2 212.7 84.9 184.4 70.5 155.8 62.5 141.3 53.9 128.6 50.8 123.8 44.2 114.1 39.5 107 28 90 16.2 70.6 6.4 53l-7.9-14.2 0-20.2 0-20.2 32.9 0 32.9 0 2.9 5.9c2.8 5.6 4.9 11.8 9.1 27.4 2.8 10.2 8.8 24.8 17.4 42.4 13 26.6 22.6 42.1 32.7 52.7 12.2 12.8 16.4 21 26.4 50.9 7.7 23.2 11.6 31.4 26.1 54.5 15.3 24.4 17.7 29.7 17.7 38.9 0 6.8 2.6 12.2 10.4 21.4 3.3 4 6.3 8.2 6.6 9.3 0.7 3-1 5.9-7.5 12.5-6.5 6.6-12.3 9.9-19.6 11-7.2 1.2-15.2 4.3-30.9 12.3-14.3 7.2-26.6 11.8-38 14.1-8 1.6-20.6 1.8-22.1 0.3z"/>
</svg>