
<svg xmlns="http://www.w3.org/2000/svg" viewBox="0 0 1024 768" width="100%">
<rect width="1024" height="768" id="P001WIImgRct0" style="fill: #fff;"/>
<path d="M0 671.6 1024 680.2Z" style="stroke-width:2px;stroke:#000"/>
<path d="M0.5 92.9 1024.5 66.9l0-87.7-1024 0z"/>
<rect width="257.8" height="147.8" x="284" y="130.3" style="fill:#808080;stroke-width:10;stroke:#020202"/>
<rect width="267.9" height="20.7" x="278.8" y="106.7"/>
<rect width="45" height="12" x="302.5" y="161.7"/>
<rect width="77.9" height="12" x="302.5" y="182.9"/>
<rect width="45" height="12" x="302.5" y="226.2"/>
<rect width="77.9" height="12" x="302.5" y="204.3"/>
<rect width="45" height="12" x="432" y="161.7"/>
<rect width="77.9" height="12" x="432" y="182.9"/>
<rect width="45" height="12" x="432" y="226.2"/>
<rect width="77.9" height="12" x="432" y="204.3"/>
<rect width="20.7" height="60.7" x="479.3" y="52.5"/>
<rect width="20.7" height="60.7" x="317" y="52.5"/>
<circle cx="1028.2" cy="655.6" r="18.1"/>
<path d="m942.8 593.6c2.1 3.9 7 11.9 10.9 17.9 3.9 5.9 6.5 12.5 5.7 14.5-0.8 2.1 1.3 6.7 4.5 10.3 5.7 6.3 5.8 6.7 0.6 12.4-2.9 3.2-7.6 5.8-10.4 5.8-2.8 0-10.8 3.3-17.7 7.2-12.4 7.1-33.7 10.2-30.1 4.4 1-1.6 5.4-2.9 9.9-2.9 4.5 0 10.1-2.3 12.6-5.1 4.1-4.7 2.9-8.7-14.2-48.1-10.3-23.6-24.5-50.8-31.5-60.5-7.1-9.6-18.4-27.9-25.2-40.6-6.8-12.7-13.2-23.1-14.4-23.1-1.2 0-6.7 6.2-12.3 13.9-5.6 7.6-12.8 16.2-16 19.1-3.2 2.9-8.8 13.3-12.4 23.2-6.3 17-30 57.5-50.6 86.3-5.2 7.2-10.2 17.9-11.3 23.7-1.1 5.8-3.8 11.3-6 12.2-3.8 1.5-17.6 0.3-32.6-2.7-6.8-1.4-24.2-14.8-24.2-18.7 0-1.3 8.4-2.2 18.7-1.9 24.2 0.6 29.1-3.5 18-15.1l-8-8.3 15.7-10.8c8.6-6 18.3-14.4 21.5-18.7 8.9-12 18.2-31.5 18.2-38 0-8.7 8.8-30 14.5-35.1 2.7-2.4 8-12.9 11.7-23.3 3.7-10.4 11.2-25.8 16.5-34.3 9.6-15.2 10.2-20.9 2.3-20.9-6.3 0-16.7-16.6-14.6-23.2 2.5-7.8 0.3-7.4-16.7 3-11.3 7-15.3 8.1-18.5 5.5-3.1-2.6-5.6-2.4-10.9 1.1-3.8 2.5-12 5.4-18.2 6.6l-11.3 2.1 8.7-7.3c4.8-4 12-8.5 16-9.9 4-1.4 18.1-8.3 31.2-15.3 22.4-11.9 24-13.3 24-22 0-10.1 20.9-55.1 33.1-71.2 4.2-5.5 7.6-11.5 7.6-13.3 0-6.4-11.3-15.5-17.3-13.9-4.5 1.2-5.9 0.2-5.9-4.2 0-3.2-1.9-7.4-4.3-9.4-3.1-2.6-3.5-5-1.5-8.9 1.6-2.9 2.8-9.8 2.8-15.2 0-14.3 7.6-20.1 25-19 12 0.8 14.9 2.2 20.2 10 3.4 5 8.4 16.8 11.2 26.2 2.8 9.4 8.2 26.8 12.1 38.9 7 21.7 8.7 35.9 5.3 44.8-2.8 7.3-6.9 5.4-7.3-3.4-0.4-10.8-8.1 23.9-8.3 37.1 0 5.6 3.2 20.6 7.3 33.4 4.7 14.7 6.3 23.6 4.3 24.2-1.7 0.6-2.3 4.1-1.3 8.1 1 3.9 0.2 9-1.7 11.3-5 6-1 20.7 7.4 27.3 4.5 3.5 8.1 10.7 10.1 20.1 2.7 12.6 18.3 43.2 25.9 51 12.2 10 13.1 28.8 20.5 42.7z"/>
<rect width="76.5" height="35" x="138.2" y="790.7" transform="matrix(0.71188194 -0.70229915 0.70229915 0.71188194 0 0)" style="fill: #808080"/>
<circle cx="155.8" cy="807.9" transform="matrix(0.71188194 -0.70229915 0.70229915 0.71188194 0 0)" r="14"/>
<rect width="34.4" height="2.6" x="175.3" y="794.5" transform="matrix(0.71188194 -0.70229915 0.70229915 0.71188194 0 0)"/>
<rect width="34.4" height="2.6" x="175.3" y="799.3" transform="matrix(0.71188194 -0.70229915 0.70229915 0.71188194 0 0)"/>
<rect width="34.4" height="2.6" x="175.3" y="804.1" transform="matrix(0.71188194 -0.70229915 0.70229915 0.71188194 0 0)"/>
<rect width="20.4" height="2.6" x="175.3" y="809.4" transform="matrix(0.71188194 -0.70229915 0.70229915 0.71188194 0 0)"/>
<path d="m 673.67465,476.1618 c 0,-0.84478 0.11927,-1.02671 1.20412,-1.83662 l 1.20413,-0.89896 v -3.24647 c 0,-2.3008 -0.0813,-3.24647 -0.27913,-3.24647 -0.23789,0 -7.99268,2.41909 -9.02637,2.81575 -0.29023,0.11138 -0.34138,-0.0957 -0.28096,-1.13728 l 0.0739,-1.27344 4.69609,-2.9344 4.69609,-2.93439 0.12041,-3.79238 c 0.11508,-3.62443 0.14559,-3.81273 0.68895,-4.25204 0.7233,-0.58481 1.51117,-0.58481 2.23448,0 0.54336,0.43931 0.57386,0.62761 0.68895,4.25204 l 0.12041,3.79238 4.69609,2.93439 4.69608,2.9344 0.0739,1.27344 c 0.0563,0.97064 -10e-4,1.24483 -0.24082,1.15309 -0.99193,-0.37936 -8.8529,-2.83156 -9.07709,-2.83156 -0.18423,0 -0.26854,1.01928 -0.26854,3.24647 v 3.24647 l 1.20412,0.89896 c 1.08485,0.80991 1.20413,0.99184 1.20413,1.83662 0,0.79413 -0.0645,0.91288 -0.42145,0.77579 -0.23179,-0.089 -1.17739,-0.37143 -2.10132,-0.62754 -1.66008,-0.46017 -1.69983,-0.46018 -3.37155,-7.7e-4 -0.93042,0.25571 -1.88133,0.5381 -2.11312,0.62754 -0.35705,0.13776 -0.42144,0.0193 -0.42144,-0.77506 z" style="fill: #808080"/>
<path d="m67.6 335.5c-8.9-0.7-14.8-3.2-14.3-6.1 0.1-0.6 7.3-90.4 7.3-91.1 0-0.4 0.6-0.4 13.5-0.5 7.4-0.1 13.6-0.1 13.6-0.1 0 0 1.8 20.3 4 45 2.2 24.7 4 45.2 4.1 45.5 0.4 2-3.1 4.4-8.5 5.8-5.5 1.4-13.7 2.1-19.7 1.6z" class="b"/>
<path  d="m58.5 230.5c-4.5-8.6-7-12.7-10.1-16.4-2.7-3.3-3-4.2-3-10.9 0-6.1 0.2-6.9 2-7.8 1.8-0.9 2.3-1.6 2.7-3.9 0.4-2.6 0.6-2.6 4.9-2.6l3.1 0 0-7.6 0-7.6 1.3 0 1.3 0 0 7.6 0 7.6 1 0 1 0 0-3.6 0-3.6 0.9 0 0.9 0 0 3.6 0 3.6 3.4 0c5.1 0 8.3-0.4 9-1.2 0.3-0.4 0.5-0.9 0.5-1.2 0-0.3 0.7-1.4 1.6-2.4 0.9-1 1.6-2.1 1.6-2.4 0-0.8-1.2-1.4-4.2-1.9-1.6-0.3-3-0.6-3.1-0.7-0.1-0.1 0.5-0.5 1.3-0.8 1.3-0.5 2.5-0.6 7.3-0.5 5.6 0 7.7 0.3 8 1.2 0 0.2-1.3 0.6-2.9 0.9-1.6 0.3-3.2 0.7-3.5 0.8-1 0.4-0.6 1.6 1 3.4 0.8 1 1.6 2.1 1.7 2.5 0.3 1.7 0.9 1.8 6.8 2.2 3 0.2 5.7 0.5 5.8 0.6 0.2 0.2 0.4 1.2 0.6 2.2 0.3 2.2 0.5 2.5 2.4 3.5 1.1 0.6 1.5 1 1.8 1.8 0.5 1.5 0.5 11.7 0 13.5-0.2 0.9-0.9 1.9-2.4 3.5-2.4 2.6-3.7 4.7-8.9 13.9l-3.9 7-13.9 0.1-13.9 0.1-2.3-4.4 0 0zm42.6-26.5 0-4.9-26.3 0-26.3 0 0 4.9 0 4.9 26.3 0 26.3 0 0-4.9z"/>
<path  d="m4.7 386c0-15.8 0.3-28.7 0.6-28.7 0.4 0 3-0.4 5.8-0.8 6.8-1.1 29.7-2.4 70.7-3.9 44.9-1.7 50.8-1.7 60.6 0.5 25.6 5.7 69.6 13.8 75.6 13.8 0.6 0 1.5 1.5 2 3.4 1.9 7.2 10.4 10.2 17.1 6.1 3.5-2.1 6.2-2.1 25.5-0.3l14.8 1.4 1.5-2 1.5-2 14.1 1.1c21.7 1.7 24.1 2 25.6 3.5 5.2 5.3 10 5.8 14.7 1.5 1.9-1.7 4.6-3.2 6.7-3.5 4.6-0.8 10.7-3.6 13.2-5.9 3.4-3.2 2.6-5.5-4.4-12.6l-6.4-6.5-22.4-2.3-22.4-2.3 14.7-0.6c8.1-0.3 52.6-1.6 99-2.7 46.4-1.2 89.9-2.3 96.6-2.5l12.3-0.4 0 27 0 27-193.5 8.1c-106.4 4.4-210.1 8.8-230.3 9.7-20.2 0.9-49.5 1.9-65.1 2.2l-28.3 0.6 0-28.7z" style="fill:none;stroke-width:2"/>
<path d="m534.7 367.1c-0.3-14.7-0.4-26.8-0.2-26.9 0.2-0.3 21.7-0.9 112.4-3.2 28.5-0.7 65.3-1.7 81.7-2.1 62.1-1.7 77-2 77-1.4 0 0.3-2.2 5.5-4.8 11.5-5.7 12.9-9.9 25-9.9 28.7 0 3.8-1.3 6.6-3.7 8.2-1.7 1.1-6.4 1.6-23.6 2.3-41 1.7-85 3.5-148.2 6.1-35 1.4-67.3 2.8-71.9 3.1l-8.3 0.5-0.5-26.7z" style="fill: #808080"/>
<path d="m879.4 374c0-5.2 1-13.7 2.2-18.9 0.3-1.2 1.3-2 2.9-2.3 6-1.2 11.4-9.9 11.4-18.3l0-3.8 10.6-0.5c5.8-0.3 18.2-0.7 27.5-1 34.2-0.9 72.4-2.2 79.8-2.6l7.6-0.5 0 23.7 0 23.7-11.5 0.6c-36.6 1.8-48.4 2.3-78.9 3.5-18.6 0.7-37.7 1.5-42.6 1.8l-8.9 0.5 0-5.9z" style="fill: #808080"/>
<path d="m526.9 480.1c0-6.4-0.1-11.7-0.1-11.7 0 0 0.9 0.1 2 0.1l1.9 0.2 0 11.5 0 11.5-1.9 0-1.9 0-0.1-11.7z" />
<path d="m525.6 88.6 0-13.3 0.9 0c0.5 0 1.3-0.1 1.8-0.2l1-0.2 0 13.6 0 13.6-1.8 0-1.8 0 0-13.3z" />
<path d="m892.7 307.1-1.3-5.2 4.3-0.3c2.4-0.2 22.4-0.8 44.4-1.3 22-0.5 48.2-1.2 58.1-1.5 9.9-0.3 19.2-0.6 20.6-0.6l2.6 0 0 4.9c0 4.1-0.2 4.9-1.1 5.2-1.6 0.5-28.2 1.5-68 2.5-19.3 0.5-40.4 1.1-46.8 1.3l-11.6 0.4-1.3-5.2z" style="fill: #808080"/>
<path d="m882.8 275.1c-0.4-1.2-0.6-2.2-0.6-2.3 0.1-0.1 19.1-0.7 84.2-2.4 9.4-0.3 21.7-0.6 27.2-0.8 5.5-0.2 14-0.4 18.9-0.5l8.8-0.2 0 2.2 0 2.2-2.5 0.2c-1.4 0.1-7.3 0.3-13.2 0.5-5.9 0.2-15.6 0.5-21.6 0.6-6 0.2-26 0.7-44.5 1.2-18.5 0.5-38.4 1-44.3 1.2-5.9 0.2-10.9 0.3-11.2 0.3-0.4 0-0.7-0.5-1.2-2.2z" style="fill: #808080"/>
<path d="m3.9 330.6 0-5.7 9.9-0.4c5.5-0.2 16.3-0.6 24-0.8l14.1-0.4-0.3 3.7c-0.3 4.4 0.3 5.8 3.5 7.3l2.4 1.2-14.7 0.4c-8.1 0.2-20.2 0.4-26.9 0.4l-12.1 0 0-5.7z" style="fill: #808080"/>
<path d="m798.6 569.6c0.6-1 1.9-3.4 2.9-5.4l1.9-3.6 26.1 0 26.1 0 0-21.5 0-21.5 1.7 3 1.7 3 0 6.6c0 3.6 0.1 12 0.3 18.6l0.3 12 11.7 0 11.7 0 2.8 5c1.5 2.8 2.9 5.2 3 5.4 0.1 0.2-20.4 0.4-45.6 0.4l-45.7 0 1.1-1.8z" class="b"/>
<path d="m536.2 570.9c-0.4-1.4-1.1-6.5-1.1-8.5l0-2.3 74.3 0.3c40.8 0.2 89.6 0.3 108.4 0.3l34.1 0-2.8 5.3-2.8 5.3-105 0.1c-83.8 0.1-105 0-105.1-0.4z" class="b"/>
<path d="m106.6 568.7c-0.3-1.3-0.8-3.7-1-5.5l-0.4-3.2 154 0c84.7 0 174.9 0.2 200.4 0.4l46.3 0.4 0 2.8c0 1.5-0.2 3.8-0.4 5.1l-0.4 2.3-199 0-199 0-0.6-2.3z" class="b"/>
<rect width="7.3" height="477" y="84.9" class="b"/>
<path d="m0 565.4 0-5.5 40.1 0 40.1 0 0 1.6c0 0.9-0.3 3.4-0.7 5.5l-0.7 3.9-39.4 0-39.4 0 0-5.5z" class="b"/>
<path d="m979.9 616.4c-32.9-30.7-29.5-26.4-35.5-44.2-5.2-15.5-7.5-19.6-15-27.8-3.3-3.6-10-13.8-10-15.1 0-1.5 20.5-22.5 23.4-24 3-1.6 8.7-1.6 11.2-0.1 3.1 1.9 19.5 16.9 76.7 70.1 32.4 30.1 32.5 30.2 32.5 36.2 0 4.5-1.6 7-11.6 18-8.4 9.2-8.9 9.7-10.1 8.8-8.7-6.4-20.8-5.5-28.6 2.3-1.6 1.6-3.1 2.9-3.4 2.9-0.2 0-13.5-12.2-29.5-27.1z" style="fill: #808080"/>
<path d="m856.2 217.5-1.8-1.2 0-30.5c0-16.8-0.1-48.4-0.3-70.4l-0.3-39.9 1.8 0c1 0 1.8 0 1.9 0.1 0.1 0.1 0.6 142.7 0.6 142.9 0 0-0.8-0.4-1.8-1.1z" class="b"/>
<path  d="m82.5 593.2c-5.2-0.5-5.1 1.1-0.6-16.8 4.4-17.5 3.2-29-3.8-35.3l-2.5-2.3 4-2c3.3-1.6 4-2.8 4.3-6.7 0.7-8.2-1.9-9.9-23.4-15.6-18.8-5-30.2-11.1-30.2-16.2 0-1 16.4-1.4 61.8-1.4 56.5 0 61.8 0.2 61.8 2 0 3.1-7.6 9.1-15.5 12-3.9 1.5-12.7 4-19.5 5.5-14.6 3.3-17.1 4.5-18.1 8.4-1 3.9 0.1 6.6 3.4 8.3 3 1.6 47 3.2 93.4 3.3 33.2 0.1 31 0.8 28.4-8.8-1.7-6.1-5.4-8.3-21.7-12.5-15.5-4-24.8-7.9-29-12.1-6.4-6.4-7.9-6.2 58.7-6.2 50.2 0 61.8 0.3 61.8 1.6 0 7.3-10.9 12.8-37.1 18.6-7.3 1.6-13 3.6-14.4 5-3.4 3.4-3 8 1 10.5 3.1 2 7.8 2.2 60.8 2.2 44.6 0 58.2-0.4 60.3-1.6 3.4-2 3.8-8.7 0.6-11.6-1.2-1-8.7-3.6-16.8-5.7-16.6-4.3-31.5-11-34.5-15.6-2.8-4.3-0.5-5.5 8.2-4.4 3.7 0.5 31.4 0.9 61.5 0.9 48.8 0 54.7 0.2 54.7 1.9 0 1.1-1.5 3.4-3.4 5.1-5.4 5.2-16.4 9.2-37.3 13.7-6.8 1.5-10 2.8-11.3 4.7-2.5 3.6-2.3 7.4 0.6 10.1 2.2 2 6.1 2.4 36.4 3.3 18.7 0.6 45.4 0.7 59.4 0.2 22.7-0.7 25.8-1.1 27.8-3.1 3.1-3.1 2.9-6.2-0.5-9.3-4.2-3.8-6.6-4.8-20.5-8.2-20.3-5-37.6-14.9-33.4-19.2 0.8-0.8 8-0.7 20.1 0.2 12 0.9 34.8 1.2 62.6 0.7 48.2-0.7 47.8-0.8 40 6.5-4.5 4.2-15.9 8.6-33.6 12.9-7.4 1.8-14.4 4.1-15.6 5.1-3.2 2.7-2.7 9.2 0.9 13.5l3.1 3.7-2.7 4.5c-4.3 7.4-4.5 19.5-0.4 35.3 1.8 7.2 3 13.5 2.6 13.9-1.1 1.1-27.2 1.1-28.2 0.1-0.5-0.5 0-3.8 1.1-7.3 3.3-11.6 4.6-23.2 3.8-33.8l-0.8-10.1-201.4 0.3c-214.2 0.4-205 0.1-208.2 6.1-2.4 4.4-1.5 17.8 1.7 28.5 4.7 15.3 4.7 15.3 1.3 16.6-3 1.1-12.2 1.2-21.5 0.3z"/>
<path d="m464.8 480.8c-1.8-4.7 2.8-42.1 5.5-44.7 3.3-3.3 84.7-4.3 98.1-1.3 4.1 0.9 4.4 1.4 5.8 8.3 0.8 4 1.7 14.2 1.8 22.5 0.4 18.5 0.2 18.7-12.9 9.8-5-3.4-12.3-7.3-16.1-8.6-14.1-4.9-38.1-5.2-52.1-0.5-3.2 1.1-9.8 4.7-14.8 8.1-11.2 7.7-14.3 9-15.3 6.4z" class="b"/>
<path d="m320.6 479.7c-1-3.8 1.5-25.6 4-35.8 1.3-5.3 2.7-8.1 4.5-9.1 1.8-1 15.9-1.4 47.2-1.5 50.2-0.1 50.8 0 53.4 8.1 1.9 5.9 3.5 36.7 2 39.4-1 1.8-2.4 1.3-11.2-4.6-12-8-20.4-11.3-33-13.1-19.1-2.7-34.8 1-52.7 12.4-6.4 4-12 7.3-12.5 7.3-0.5 0-1.3-1.4-1.7-3z" class="b"/>
<path d="m178.9 478.1c-1-4.6 1.3-28.5 3.6-37.3 1-3.9 1.8-7.3 1.8-7.6 0-1.6 99.2 0.4 100.8 2 1.7 1.7 4.6 16.7 5.2 27.5 0.8 13.2 0.1 18.8-2.4 18.8-0.8 0-5.6-2.5-10.6-5.7-12-7.4-17.6-9.8-29.6-12.2-19.3-3.9-36.7-0.4-54.7 11-5.9 3.8-11.3 6.8-12 6.8-0.7 0-1.6-1.5-2-3.4z" class="b"/>
<path d="m36.5 478.4c-2-4.3-1.8-8.8 1-25 2.8-16.4 4.2-18.4 13.7-19.8 15.5-2.2 86.2-0.7 89.6 1.8 3.3 2.5 9.4 32.9 8.2 41-0.8 5.6-3.2 5.9-10.4 1-15.6-10.6-29.1-14.6-49.8-14.6-16.9-0.1-26.2 2.5-35.8 9.8-13.5 10.2-14.4 10.5-16.6 5.7z" class="b"/>
<path d="m179.3 481.3c-2-3.3 0.8-35.6 3.9-43.8l1.5-4 46.2 0c25.4 0 48.1 0.3 50.3 0.7 3.8 0.6 4.2 1 5.4 4.3 3.3 8.9 5.8 34.3 4 39.9-1 3-1.3 3.2-3.7 2.7-1.5-0.3-5.8-2.5-9.6-5-16.2-10.4-25.3-13.1-43.4-13.2-18.6-0.1-25.7 2.1-43.7 13.7-4.9 3.2-9.2 5.7-9.6 5.7-0.4 0-1-0.5-1.3-1z" class="b"/>
<path d="m320.4 479.2c-0.6-3.8 0.7-18.9 2.6-28.7 1.8-9.4 3.7-14.6 5.9-15.9 1.4-0.8 12.7-1.1 47.3-1.1 50.2 0 50.3 0 53.1 5.5 2.4 4.7 4.3 39.3 2.3 42.4-1.1 1.7-3.4 0.7-10.6-4.6-8.7-6.4-12.9-8.6-21.9-11.3-7-2.1-9.2-2.4-21.6-2.4-19.5-0.1-26.3 1.9-42.9 12.9-4.7 3.1-9.7 5.9-11 6.1-2.4 0.5-2.6 0.3-3.1-2.9z" class="b"/>
<path d="m464.9 481c-1.7-4.5 1.1-33 4.3-43.8 0.7-2.2 7-3.2 27.8-4.3 29.7-1.5 72.4 0.2 75.3 3 1.8 1.8 3.7 15.3 4.2 30.1 0.7 19 0.6 19.1-14.4 8.9-11.5-7.8-19.1-10.5-34-11.8-12.3-1.1-22.4-0.2-31.9 2.8-5.6 1.8-9.8 4.1-22.3 12.6-5.8 3.9-8.1 4.5-9 2.3z" class="b"/>
<path  d="m81.9 593.3c-3-0.3-3.2-0.6-3.2-3 0-1.4 1.2-7.3 2.7-13.1 2.1-8.1 2.8-12.4 2.8-18.7 0.1-9.3-0.8-11.7-6.1-16.7l-3.2-3 3-1.3c5.5-2.3 7.6-6.5 6-11.4-1.7-5.1-4.4-6.3-28.5-13-15.7-4.3-25.1-10.2-25.1-15.7 0-2.1 0.1-2.2 4.1-1.7 8.9 1.1 88.9 1.6 103.9 0.6 12.1-0.8 15.2-0.8 15.8 0.1 1.2 1.9 0.8 3.1-2 6.3-5.1 5.8-18.5 11.2-36.8 14.6-10.8 2.1-15 5-15 10.4 0 2.9 3.9 5.7 9.2 6.5 4.2 0.7 117.2 2.9 117.7 2.3 0.1-0.1-0.2-2.5-0.7-5.3-1.5-9.2-4-11.2-18.4-14.8-10.4-2.6-22.5-6.5-27.5-9.1-4.8-2.5-8.5-6.6-8.5-9.5l0-2.5 9.7 0.6c11 0.7 88.4 0.9 103.6 0.2l9.9-0.4 0.3 2.6c0.4 3.9-2.4 6.8-10.5 10.7-6.9 3.4-11.3 4.7-29.5 8.7-6.8 1.5-9.1 2.4-11 4.3-4.6 4.6-2.5 10.4 4.2 11.8 1.8 0.4 28 0.7 58.2 0.7 49.6 0 55.2-0.1 58.1-1.5 5.5-2.5 5.5-8.8 0-12.5-1.6-1.1-6.6-2.7-11.2-3.8-22.5-4.9-40.9-14.1-39.8-19.8 0.3-1.7 5.4-1.7 26.2-0.3 17.7 1.3 41.6 1.3 70.5 0.1 12.6-0.5 24.3-1 25.9-1.1 2.7-0.1 3.1 0.2 3.3 2.1 0.4 3.4-3.4 7.3-10.5 10.7-6.7 3.2-18.5 6.8-26.9 8.3-8 1.4-13.3 3.4-14.8 5.4-1.8 2.6-1.7 7.8 0.2 9.5 2.9 2.6 12.5 3.2 57.7 3.7 49.8 0.5 64.8-0.1 66.8-2.8 2.2-3 2.3-5.5 0.5-8-2.7-3.7-7.8-6-18.4-8.5-22.3-5.2-37.2-12.7-37.2-18.9l0-2.3 13.2 0.7c16.4 0.9 90.2 1 103.3 0.1 9.3-0.6 9.7-0.6 10.2 1.1 0.8 2.4-1.3 5.3-6 8.5-5.6 3.8-11.2 5.8-29.5 10.5-17.7 4.5-19.5 5.5-19.5 10.5 0 3.4 2.3 8.1 4.9 10.2l2.1 1.7-2.6 3.6c-5.3 7.4-5.7 20.9-1 37.2 1.4 5 2.6 10.1 2.6 11.4 0 2.2-0.2 2.3-6.6 2.9-6.5 0.6-21.6 0.1-22.5-0.8-0.2-0.2 0.9-5.4 2.4-11.5 2.7-10.4 2.9-11.8 2.8-24.7-0.1-7.5-0.3-13.8-0.4-14-0.2-0.2-77.9-0.6-172.8-0.9-168.9-0.5-227.4 0-232.8 2.1-4.1 1.6-5.5 5.5-5.4 15.3 0.1 7.4 0.5 10.1 3.1 18.2 4.6 14.5 4.7 15 2 16-2.2 0.8-16.2 1-23.1 0.2z" class="b"/>
<path d="m526.8 399.5c-0.2-14.8-0.3-46.1-0.3-69.6l0-42.7 1.5 0 1.5 0 0.3 26.1c0.1 14.3 0.3 45.7 0.4 69.6l0.2 43.6-1.6 0-1.6 0-0.3-26.9z" class="b"/>
<path d="m7.4 299.1 0-2.4 3.1-0.2c1.7-0.1 10.4-0.4 19.2-0.6 8.8-0.2 18-0.5 20.3-0.6l4.2-0.2-0.2 2.5c-0.1 1.4-0.3 2.6-0.3 2.6-0.1 0.1-8.4 0.3-18.6 0.5-10.2 0.2-20.6 0.5-23.1 0.6l-4.7 0.1 0-2.4z" style="fill: #808080"/>
<path  d="m334.7 371.7c-1.1-0.5-2.2-1.7-2.7-2.8l-0.9-1.9-18.4-1.1c-10.1-0.6-22.7-1.3-28-1.7-8-0.5-20-1.8-39.6-4.3l-2.9-0.4-1.1 2.2c-1.4 3-3.9 4.6-7 4.6-4.3 0-7.8-3.4-7.8-7.5 0-1.1-0.3-2.1-0.6-2.2-0.4-0.1-4.5-1-9.2-1.9-8.8-1.8-30.9-6.8-42.9-9.8-3.7-0.9-15.2-3.6-25.5-6-18.3-4.2-28.8-6.9-31.6-8-2.2-0.9-2.5-1.9-1.9-6.8 0.3-2.4 0.7-4.6 0.9-4.9 0.3-0.5 7.1-0.2 12.5 0.6l2.4 0.4-0.3-3.1c-0.4-3.9-1.1-36.3-0.8-36.6 0.1-0.1 2.1 0 4.4 0.2l4.2 0.4 5 6.1c2.8 3.4 8.4 10.1 12.5 15.1 5.6 6.7 17.8 21.8 18.3 22.7 0.1 0.1 18.2 2.2 64.9 7.6 21.6 2.5 47 5.4 56.3 6.5 9.3 1.1 22.3 2.6 28.9 3.4 6.6 0.8 15.7 1.9 20.2 2.4l8.2 1 3.6 3.3c4 3.7 7.8 8.3 7.8 9.6 0 2-6.8 4.8-15.1 6.2-4.1 0.7-4.8 1-4.8 1.9 0 1.7-1.7 4-3.5 4.8-2.2 1-3.2 1-5.4-0.2z" />
<path d="m7.5 386 0-28.1 3.7-0.5c2-0.3 42-1.8 88.8-3.3l85.1-2.9 12.2 2.8c6.7 1.5 15.2 3.4 18.9 4.2 5.4 1.2 6.7 1.8 6.7 3 0 2.4 4 6.7 7.4 7.8 4.3 1.4 8.5 0.4 11.8-3l2.8-2.8 16.4 2c9 1.1 27.7 2.6 41.5 3.4l25.1 1.5 2.9 2.7c2.3 2.2 3.6 2.7 6.7 2.7 3.4 0 4.3-0.4 7.4-3.7 1.9-2 4.3-3.7 5.2-3.7 0.9 0 4.1-0.8 7.1-1.8 5.7-1.9 10.1-5.3 10.1-7.8 0-1.7-3.5-7.1-7-10.8l-2.5-2.7 18-0.6c24.2-0.8 136.3-4 141.4-4l4.1 0 0 26.4c0 20.4-0.2 26.5-1.1 26.7-0.6 0.2-46.2 2.1-101.4 4.4-55.2 2.2-108.7 4.4-118.9 4.9-159 6.9-267.5 11.2-283.9 11.2l-8.4 0 0-28.1z" style="fill: #808080"/>
<path d="m216.2 324.8c-20.6-2.5-37.3-4.5-37.2-4.6 0.1-0.1 17.5-0.6 38.7-1.1 21.2-0.5 52.9-1.3 70.5-1.8 31.5-0.8 50.9-1.3 152.2-3.9 28.1-0.7 57.7-1.5 65.9-1.8l14.9-0.6 0 5.7 0 5.7-6.8 0c-3.7 0-26 0.6-49.5 1.3-66.7 2-165.9 4.7-189.7 5.2l-21.6 0.4-37.4-4.5z" style="fill: #808080"/>
<path d="m155.6 295.1c-1.2-1.4-1.6-2.3-1.3-2.4 0.3 0 8.4-0.3 17.9-0.5 17.1-0.5 26.4-0.7 73.7-2 43.7-1.2 57.9-1.6 71.8-2 15.7-0.5 166.9-1.1 166.4-0.6-0.2 0.2-9.8 0.6-21.4 0.9-26.4 0.7-46.8 1.3-75.4 2.1-33.2 1-80.2 2.3-106.8 3-13 0.4-30.6 0.8-39.1 1.1-18.3 0.5-40.8 1.1-63.1 1.7-8.8 0.2-17.1 0.5-18.4 0.7l-2.4 0.2-1.9-2.3z" style="fill: #808080"/>
<path d="m94.9 297.8c-0.1-0.6-0.1-1.7-0.1-2.4l0-1.2 1.4-0.1c0.7-0.1 6.7-0.2 13.1-0.3 6.5-0.1 12.5-0.3 13.4-0.3l1.7-0.1 0.2 2.4c0.1 1.3 0.1 2.5 0.1 2.5-0.2 0.2-11.5 0.6-20.4 0.7l-9.1 0.1-0.1-1.2z" style="fill: #808080"/>
<path d="m92.2 334.3c0-0.1 0.6-0.5 1.3-0.9 1.9-1.2 3-2.2 3.5-3.3 0.4-0.8 0.4-1.4 0.4-4.3 0-3.1 0-3.3 0.4-3.5 0.4-0.2 7.2-0.6 10.5-0.7l1.7 0-0.1 0.9c-0.1 0.5-0.2 2-0.3 3.4-0.2 3.3 0.3 5 1.9 6.7l1.1 1.2-2.9 0.1c-4.2 0.2-17.5 0.4-17.5 0.3z" style="fill: #808080"/>
<path  d="m775.8 278.4c-0.8 0-1.7-0.4-2.3-0.9l-1-0.9-11 4.2c-6.1 2.3-13.7 5.2-16.8 6.4-4.8 1.8-12.2 4.2-24.3 8l-1.8 0.5 0 1.6c-0.1 2.1-1.1 3.7-2.9 4.5-2.5 1.1-5.5 0.1-6.6-2.3-0.3-0.7-0.7-1.1-0.9-1.1-0.2 0-2.9 0.6-5.9 1.3-5.6 1.3-19.9 4.2-27.7 5.6-2.4 0.4-9.9 1.9-16.5 3.2-11.8 2.4-18.6 3.6-20.6 3.7-1.5 0.1-2-0.5-2.9-3.5-0.5-1.5-0.8-2.9-0.8-3.1 0.1-0.4 4.1-2 7.5-2.9l1.5-0.4-1-1.7c-1.3-2.2-10.2-21-10.1-21.2 0-0.1 1.2-0.6 2.6-1.1l2.6-0.9 4.6 2.3c2.5 1.2 7.6 3.7 11.3 5.5 5 2.4 16.2 8.1 16.7 8.4 0.1 0 11.3-3.5 40-12.7 13.3-4.3 28.9-9.2 34.7-11.1 5.7-1.8 13.8-4.4 17.8-5.7 4.1-1.3 9.7-3 12.4-3.9l5.1-1.5 3 1c3.3 1.1 6.8 2.8 7.1 3.6 0.5 1.2-2.7 4.6-7.2 7.6-2.2 1.5-2.6 1.8-2.3 2.4 0.4 1 0.1 2.8-0.8 3.7-1 1.2-1.6 1.4-3.2 1.3z" />
<path d="m551.6 284 0-2.2 3.4 0c3 0 30.1-0.7 59.8-1.6l10.2-0.3 0.8 1.8c0.6 1.4 0.7 1.9 0.3 2.2-0.3 0.2-5.4 0.5-11.2 0.6-5.9 0.2-16.8 0.5-24.3 0.7-7.5 0.2-19.3 0.5-26.3 0.7l-12.6 0.3 0-2.2z" style="fill: #808080"/>
<path style="fill: #808080" d="m657.6 281.3-4.1-2.1 1.4-0.2c0.8-0.1 7.4-0.3 14.8-0.5 7.4-0.2 15.4-0.4 17.7-0.5 2.4-0.1 4.2-0.1 4.1 0-0.1 0.1-3.5 1.2-7.6 2.5-8.2 2.6-6.5 2.3-18.4 2.7l-3.8 0.1-4.1-2.1z" />
<path d="m780.5 279.6c1.2-0.6 2.6-1.8 3.5-3.2 0.5-0.8 1.3-0.9 13.2-1.2 14.1-0.4 13.1-0.5 13.3 2.5l0.1 1.4-11.6 0.3c-6.4 0.2-13.4 0.4-15.6 0.5-3.4 0.2-3.8 0.1-2.8-0.3z" style="fill: #808080"/>
<path style="fill: #808080" d="m534.8 318.5 0.1-5.5 33.5-0.3c18.4-0.2 39.3-0.5 46.3-0.7 11.6-0.4 12.8-0.3 13.2 0.3 1 1.7 3.4 3.5 4.8 3.8 1.9 0.4 4.6-0.1 21.6-3.3l13.4-2.6 18.6-0.7c10.2-0.4 23.3-0.9 29-1.1 11.5-0.4 45.6-1.5 70.7-2.2 18.6-0.5 35.9-0.6 35.9-0.2 0 0.2-4.9 8.5-5.4 9.2-0.3 0.4-11.9 1-33.3 1.6-13.3 0.4-34.5 1-47.1 1.3-12.6 0.3-26.4 0.7-30.7 0.9-14.7 0.4-52.8 1.5-106.8 3-29.7 0.8-56.2 1.6-58.9 1.7l-4.9 0.2 0.1-5.5z"/>
</svg>