<svg xmlns="http://www.w3.org/2000/svg" viewBox="0 0 1024 768">

<style>
.line { stroke-linecap: round; stroke-width: 11px; stroke: blue; } 
.box { stroke-width:0; stroke:green; height: 100%; width: 100%; fill: none; } 
.circle { stroke: blue; stroke-width: 10%; } 
.button { width: 9%; height: 12%; } 
.btnCoff { fill: white; } 
.btnCon { fill: blue; } 
.btnToff { fill: blue; } 
.btnTon { fill: white; } 
</style> 

<!--1-->
<svg x="0%" y="12%">

<svg width="18%" height="24%">
<rect class="box"/>
</svg> 

<svg width="18%" height="24%">
<g transform="scale(1, 1)">
<svg>
<line class="line" x1="75%" y1="25%" x2="46%" y2="53%"/>
</svg>
</g>
</svg> 

<svg class="button" x="9%" y="0%" width="9%" height="12%">
	<g transform="scale(1, 1)">
	
			<circle class="btnToff" cx="50%" cy="50%" r="45%"/>
			<circle class="btnCoff" cx="50%" cy="50%" r="35%"/>
			<circle class="btnToff" cx="50%" cy="50%" r="20%"/>
		
	</g>
</svg>

</svg> 

<!--2-->
<svg x="15%" y="31%">

<svg width="18%" height="24%">
<rect class="box"/>
</svg>

<svg width="18%" height="24%">
<g transform="scale(1, 1)">
<svg>
<line class="line" x1="50%" y1="25%" x2="50%" y2="57%"/>
</svg>
</g>
</svg>

<svg class="button" x="4.5%" y="0%" width="9%" height="12%">
<g transform="scale(1, 1)">
<circle class="btnToff" cx="50%" cy="50%" r="45%"/>
			<circle class="btnCoff" cx="50%" cy="50%" r="35%"/>
			<circle class="btnToff" cx="50%" cy="50%" r="20%"/>
</g>
</svg>

</svg> 

<!--3-->
<svg x="62%" y="23%">

<svg width="18%" height="24%">
<rect class="box"/>
</svg>

<svg width="18%" height="24%">
<g transform="scale(1, 1)">
<svg>
<line class="line" x1="50%" y1="25%" x2="50%" y2="55%"/>
</svg>
</g>
</svg>

<svg class="button" x="4.5%" y="0%" width="9%" height="12%">
<g transform="scale(1, 1)">
	<circle class="btnToff" cx="50%" cy="50%" r="45%"/>
	<circle class="btnCoff" cx="50%" cy="50%" r="35%"/>
	<circle class="btnToff" cx="50%" cy="50%" r="20%"/>
</g>
</svg>

</svg>


<!--4-->
<svg x="46%" y="4%">

<svg width="18%" height="24%">
<rect class="box"/>
</svg>

<svg width="18%" height="24%">
<g transform="scale(1, 1)">
<svg>
<line class="line" x1="75%" y1="50%" x2="35%" y2="50%"/>
</svg>
</g>
</svg>

<svg class="button" x="9%" y="6%" width="9%" height="12%">
<g transform="scale(1, 1)">
<circle class="btnToff" cx="50%" cy="50%" r="45%"/>
			<circle class="btnCoff" cx="50%" cy="50%" r="35%"/>
			<circle class="btnToff" cx="50%" cy="50%" r="20%"/>
</g>
</svg>

</svg>


<!--5-->
<svg x="40%" y="56%">

<svg width="18%" height="24%">
<rect class="box"/>
</svg>

<svg width="18%" height="24%">
<g transform="scale(1, 1)">
<svg>
<line class="line" x1="25%" y1="75%" x2="55%" y2="45%"/>
</svg>
</g>
</svg>

<svg class="button" x="0%" y="12%" width="9%" height="12%">
<g transform="scale(1, 1)">
	<circle class="btnToff" cx="50%" cy="50%" r="45%"/>
	<circle class="btnCoff" cx="50%" cy="50%" r="35%"/>
	<circle class="btnToff" cx="50%" cy="50%" r="20%"/>
</g>
</svg>

</svg>


<!--6-->
<svg x="57%" y="45%">

<svg width="18%" height="24%">
<rect class="box"/>
</svg>

<svg width="18%" height="24%">
<g transform="scale(1, 1)">
<svg>
<line class="line" x1="25%" y1="25%" x2="55%" y2="55%"/>
</svg>
</g>
</svg>

<svg class="button" x="0%" y="0%" width="9%" height="12%">
<g transform="scale(1, 1)">
	<circle class="btnToff" cx="50%" cy="50%" r="45%"/>
	<circle class="btnCoff" cx="50%" cy="50%" r="35%"/>
	<circle class="btnToff" cx="50%" cy="50%" r="20%"/>
</g>
</svg>

</svg>


<!--7-->
<svg x="77%" y="27%">

<svg width="18%" height="24%">
<rect class="box"/>
</svg>

<svg width="18%" height="24%">
<g transform="scale(1, 1)">
<svg>
<line class="line" x1="75%" y1="25%" x2="45%" y2="55%"/>
</svg>
</g>
</svg>

<svg class="button" x="9%" y="0%" width="9%" height="12%">
<g transform="scale(1, 1)">
	<circle class="btnToff" cx="50%" cy="50%" r="45%"/>
	<circle class="btnCoff" cx="50%" cy="50%" r="35%"/>
	<circle class="btnToff" cx="50%" cy="50%" r="20%"/>
</g>
</svg>

</svg>


<!--8-->
<svg x="82%" y="54%">

<svg width="18%" height="24%">
<rect class="box"/>
</svg>

<svg width="18%" height="24%">
<g transform="scale(1, 1)">
<svg>
<line class="line" x1="50%" y1="25%" x2="58%" y2="62%"/>
</svg>
</g>
</svg>

<svg class="button" x="4.5%" y="0%" width="9%" height="12%">
<g transform="scale(1, 1)">
<circle class="btnToff" cx="50%" cy="50%" r="45%"/>
			<circle class="btnCoff" cx="50%" cy="50%" r="35%"/>
			<circle class="btnToff" cx="50%" cy="50%" r="20%"/>
</g>
</svg>

</svg>

</svg>