<svg xmlns="http://www.w3.org/2000/svg" viewBox="0 0 512 384">
<rect width="512" height="384" id="P001WIImgRct3" fill="#fff"/>
<rect width="539.7" height="162.6" x="-16.2" y="332.9" transform="matrix(0.99964106 -0.02679095 0.02679095 0.99964106 0 0)" style="fill:#808080;"/>
<path d="m427.6 193.9c-2-0.2-4.4-1.3-5.9-2.6l-2.5-2.3-29 9.6c-15.9 5.3-35.8 11.9-44.2 14.7-12.6 4.2-31.8 9.6-63.6 17.8l-4.6 1.2-0.3 4.1c-0.4 5.5-3.2 9.5-8 11.3-6.7 2.6-14.2-0.5-16.6-6.8-0.7-1.7-1.7-3-2.3-2.9-0.6 0.1-7.6 1.3-15.4 2.7-14.7 2.7-51.8 8.5-72.2 11.3-6.3 0.9-25.6 3.8-43 6.4-30.7 4.7-48.5 7.1-53.6 7.1-3.9 0-5-1.5-7.1-9.3-1-3.9-1.8-7.5-1.7-8 0.2-1 10.9-4.7 19.6-6.8l3.9-0.9-2.4-4.6c-3-5.7-24-55.3-23.7-55.9 0.1-0.3 3.2-1.3 6.9-2.4l6.7-1.9 11.5 6.3c6.3 3.5 19.2 10.4 28.6 15.5 12.7 6.8 40.9 22.6 42.1 23.7 0.1 0.1 29.4-7.8 104.6-28.3 34.8-9.5 75.6-20.6 90.7-24.6 15-4 36-9.7 46.6-12.6 10.6-2.9 25.3-6.8 32.5-8.6l13.2-3.4 7.6 2.8c8.5 3.1 17.1 8 17.9 10.1 1.2 3.1-7.5 11.6-19.4 18.9-5.9 3.6-6.8 4.5-6.3 5.8 1 2.6-0.2 7.1-2.4 9.5-2.7 2.9-4.3 3.5-8.5 3.1z"/>
<circle cx="264.2" cy="238.6" r="13.6"/>
<circle cx="430.3" cy="186.6" r="10.8"/>
<path d="m394.8 202.6 10-3.4 7.5-0.1 7.5-0.1 2.1 1.2c5.7 3.4 12.1 3.2 17.4-0.3l2.2-1.5 32.4-0.7c17.8-0.4 34.8-0.8 37.7-0.9l5.3-0.3 0 3.5 0 3.5-5.9 0c-3.3 0-30.8 0.6-61.1 1.3-30.3 0.7-57.4 1.3-60.1 1.3l-5 0 10-3.4z" style="fill:#808080;"/>
<path d="m139.6 208.7c-3.8-2.2-4.7-2.9-4.1-3.2 0.4-0.2 12.8-0.5 27.4-0.8 14.6-0.3 27.9-0.6 29.4-0.7 2.3-0.2 0.2 0.5-10.4 3.4l-13.2 3.6-12.1 0.2-12.1 0.2-4.9-2.9z" style="fill:#808080;"/>
<path d="m-3.1 211.9 0-3.3 1.2 0c0.7 0 12.1-0.3 25.4-0.6 13.3-0.3 27.1-0.6 30.7-0.6l6.5 0 1.3 3.2 1.3 3.2-24.7 0.5c-13.6 0.3-28.5 0.6-33.2 0.8l-8.5 0.3 0-3.3z" style="fill:#808080;"/>
<path d="M-0.9 285C-1.1 283.3-1.4 274.5-1.6 265.5l-0.4-16.3 14.6-0.4c8-0.2 20.2-0.6 27.1-0.8l12.5-0.4 0.8 4.2c1.8 9.5 4.1 15.1 7.1 17.1 4.5 3 8.5 2.6 72.2-7 13.1-2 28-4.2 33-4.9 20.8-3 69.3-10.7 78.9-12.6 1.7-0.3 1.9-0.2 3.6 3.1 5.5 10.7 19.8 13 29.3 4.7 2.2-2 5.4-7.4 5.4-9.3 0-0.9 1.3-1.1 10.2-1.4 19.2-0.7 230.1-6.1 230.4-5.8 0.1 0.1 0.4 8.9 0.7 19.6l0.4 19.3-12.5 0.4C493.2 275.6 8 288.2 3.4 288.2l-4 0-0.3-3.2z" style="fill:#808080;"/></svg>