<?xml version="1.0" encoding="UTF-8" standalone="no"?>
<!-- Created with Inkscape (http://www.inkscape.org/) -->

<svg
   xmlns:dc="http://purl.org/dc/elements/1.1/"
   xmlns:cc="http://creativecommons.org/ns#"
   xmlns:rdf="http://www.w3.org/1999/02/22-rdf-syntax-ns#"
   xmlns:svg="http://www.w3.org/2000/svg"
   xmlns="http://www.w3.org/2000/svg"
   xmlns:sodipodi="http://sodipodi.sourceforge.net/DTD/sodipodi-0.dtd"
   xmlns:inkscape="http://www.inkscape.org/namespaces/inkscape"
   width="1024"
   height="768"
   viewBox="0 0 1024 768.00001"
   id="svg2"
   version="1.1"
   inkscape:version="0.92.3 (2405546, 2018-03-11)"
   sodipodi:docname="Annotations-Weather-BW.svg"
   inkscape:export-filename="C:\Users\Gareth Perilli\Documents\Annotated Images\Annotated Images - PNGs\Annotations-Weather-BW-A.png"
   inkscape:export-xdpi="90"
   inkscape:export-ydpi="90">
  <defs
     id="defs4" />
  <sodipodi:namedview
     id="base"
     pagecolor="#ffffff"
     bordercolor="#666666"
     borderopacity="1.0"
     inkscape:pageopacity="0.0"
     inkscape:pageshadow="2"
     inkscape:zoom="0.41053452"
     inkscape:cx="598.00253"
     inkscape:cy="321.22183"
     inkscape:document-units="px"
     inkscape:current-layer="layer6"
     showgrid="false"
     units="px"
     showguides="false"
     inkscape:window-width="1366"
     inkscape:window-height="705"
     inkscape:window-x="-8"
     inkscape:window-y="-8"
     inkscape:window-maximized="1" />
  <metadata
     id="metadata7">
    <rdf:RDF>
      <cc:Work
         rdf:about="">
        <dc:format>image/svg+xml</dc:format>
        <dc:type
           rdf:resource="http://purl.org/dc/dcmitype/StillImage" />
        <dc:title />
      </cc:Work>
    </rdf:RDF>
  </metadata>
  <g
     inkscape:groupmode="layer"
     id="layer6"
     inkscape:label="Livello 6">
    <rect
       style="fill:#ffffff;stroke:none;stroke-width:5.057199;stroke-linecap:butt;stroke-linejoin:round;stroke-miterlimit:4;stroke-dasharray:none;stroke-opacity:1"
       id="rect4287"
       width="1024"
       height="768"
       x="0"
       y="0" />
    <text
       xml:space="preserve"
       style="font-style:normal;font-weight:normal;line-height:0%;font-family:sans-serif;letter-spacing:0px;word-spacing:0px;display:inline;fill:#ff0000;fill-opacity:1;stroke:none;stroke-width:1px;stroke-linecap:butt;stroke-linejoin:miter;stroke-opacity:1"
       x="317.84897"
       y="309.92117"
       id="text4876-67-7"><tspan
         sodipodi:role="line"
         id="tspan4878-43-8"
         x="317.84897"
         y="309.92117"
         style="font-size:40px;line-height:1.25"> </tspan></text>
    <path
       style="fill:#000000"
       d=""
       id="path4262"
       inkscape:connector-curvature="0" />
    <path
       style="fill-opacity:1;fill:#808080"
       d="m 336.9967,265.39417 c -13.63493,-4.28363 -21.58302,-25.01799 -14.69559,-38.33678 4.01934,-7.77258 15.1936,-14.95641 23.26428,-14.95641 5.36662,0 6.28395,-0.97548 8.41697,-8.9506 2.83949,-10.61651 11.76197,-20.8254 21.90545,-25.06362 17.05082,-7.12427 36.50192,-0.29459 46.80913,16.43568 3.28016,5.32422 4.80073,6.03035 11.88447,5.51887 14.65786,-1.05831 29.207,9.89282 33.35151,25.1037 3.96798,14.56315 -1.69303,28.33199 -15.26747,37.13383 l -8.37102,5.42785 -50.55966,-0.18574 c -27.80782,-0.10211 -53.33994,-1.05921 -56.73807,-2.12678 z"
       id="path4285"
       inkscape:connector-curvature="0" />
    <path
       style="fill:#000000"
       d=""
       id="path4283"
       inkscape:connector-curvature="0" />
    <g
       id="g4298"
       transform="matrix(1.6475767,0,0,1.6475767,-257.64226,-1273.6816)"
       style="fill:#808080">
      <path
         style="fill-opacity:1;fill:#808080"
         d="m 535.90525,969.72497 c -4.11551,-4.11552 -4.24151,-11.6688 -0.25568,-15.3282 2.8508,-2.61733 17.42006,-10.35362 19.49831,-10.35362 1.07737,0 0.89904,5.26045 -0.588,17.34444 -1.30694,10.62045 -11.71835,15.27366 -18.65463,8.33738 z m -23.79247,-37.03252 c -14.97741,-7.27264 -10.62452,-29.26197 6.33741,-32.01451 2.41278,-0.39155 4.38688,-1.39563 4.38688,-2.2313 0,-5.23262 8.51501,-15.92553 14.49124,-18.19769 3.50356,-1.33205 12.1181,-1.40769 16.3651,-0.1437 4.16804,1.24049 12.89366,9.83653 12.89366,12.70219 0,0.67964 2.58687,1.23571 5.74859,1.23571 11.39832,0 20.21902,7.87068 21.33777,19.03962 0.42612,4.25414 -0.20825,6.60464 -3.13031,11.59857 -5.73596,9.80301 -9.2701,10.6398 -44.58105,10.55569 -26.02448,-0.062 -29.23342,-0.30323 -33.84929,-2.54458 z"
         id="path4306"
         inkscape:connector-curvature="0" />
      <path
         style="fill-opacity:1;fill:#808080"
         d="m 535.90525,969.72497 c -3.28662,-3.28662 -4.04989,-9.01183 -1.76949,-13.2728 1.01622,-1.89882 12.58411,-8.82957 20.45038,-12.25259 1.26583,-0.55083 0.26316,19.17906 -1.15372,22.7023 -1.13513,2.82264 -6.97682,5.89127 -11.21509,5.89127 -1.78415,0 -4.62458,-1.38068 -6.31208,-3.06818 z"
         id="path4304"
         inkscape:connector-curvature="0" />
      <path
         style="fill-opacity:1;fill:#808080"
         d="m 536.49092,969.1393 c -7.06342,-7.06341 -4.32385,-13.16835 9.02595,-20.11368 l 9.8202,-5.10903 -0.0745,5.37578 c -0.14991,10.81468 -1.9441,17.59077 -5.45808,20.61337 -4.54642,3.91066 -8.8863,3.66083 -13.31356,-0.76644 z"
         id="path4302"
         inkscape:connector-curvature="0" />
      <path
         style="fill-opacity:1;fill:#808080"
         d="m 539.49799,970.97095 c -4.97333,-2.16337 -7.07267,-5.9575 -5.99961,-10.8431 0.60828,-2.76952 2.60283,-4.90418 7.52317,-8.05168 3.68248,-2.35566 6.96806,-4.28302 7.30128,-4.28302 0.33321,0 0.83271,1.82812 1.10999,4.0625 l 0.50416,4.0625 0.20004,-4.55376 c 0.18164,-4.13461 3.06769,-7.37027 4.92093,-5.51703 1.21354,1.21354 -1.97668,20.63016 -3.66741,22.32089 -1.62321,1.62321 -6.66242,4.68399 -7.53379,4.57597 -0.21708,-0.0269 -2.17852,-0.82488 -4.35876,-1.77327 z m 11.1782,-5.83405 c 0.7045,-0.46731 0.62185,-1.12484 -0.20567,-1.63627 -0.7609,-0.47026 -1.42298,-2.08745 -1.47131,-3.59375 -0.0847,-2.64046 -0.1264,-2.64903 -1.16214,-0.23873 -1.53196,3.56505 -1.46785,4.65718 0.21242,3.61871 1.02729,-0.6349 1.17758,-0.19194 0.50509,1.48873 -1.90343,4.75698 -2.12586,6.09351 -0.60622,3.64256 0.85253,-1.375 2.08005,-2.85156 2.72783,-3.28125 z m -13.25579,-6.66376 c 0,-1.00101 -0.47792,-1.52464 -1.06205,-1.16363 -0.58413,0.36101 -0.73844,1.18002 -0.3429,1.82001 1.01078,1.63548 1.40495,1.45132 1.40495,-0.65638 z m 13.67188,-1.59145 c -0.41537,-0.41536 -0.7108,0.32292 -0.65653,1.64063 0.06,1.45617 0.35618,1.75237 0.75521,0.7552 0.36109,-0.90234 0.31668,-1.98046 -0.0987,-2.39583 z"
         id="path4300"
         inkscape:connector-curvature="0" />
    </g>
    <g
       id="g4319"
       transform="matrix(1.6475767,0,0,1.6475767,-457.03271,-1156.6582)">
      <path
         style="fill-opacity:1"
         d="m 799.92913,894.24811 c -0.87707,-3.49456 -2.71823,-4.09841 -3.81127,-1.25 -0.89421,2.3303 -3.44227,2.42161 -5.29456,0.18974 -1.0671,-1.28578 -0.80707,-2.22062 1.09694,-3.94374 3.30049,-2.98689 3.14789,-4.18487 -0.72036,-5.65558 -4.85938,-1.84753 -3.54057,-5.68926 1.80538,-5.25913 3.97571,0.31988 4.08896,0.20153 3.2897,-3.4375 -0.75371,-3.4316 -0.53929,-3.76879 2.39655,-3.76879 2.60594,0 3.22432,0.59933 3.22432,3.125 0,3.53478 1.45209,4.01882 3.75,1.25 0.85586,-1.03125 2.34864,-1.875 3.31729,-1.875 3.07644,0 3.37347,3.74471 0.53656,6.76446 l -2.71244,2.88726 3.80429,1.57579 c 4.05469,1.67951 4.35892,2.21263 2.72909,4.78248 -0.67402,1.06276 -2.19852,1.34345 -4.35586,0.80199 -3.05874,-0.7677 -3.31893,-0.5284 -3.31893,3.05251 0,3.03972 -0.53901,3.88551 -2.47618,3.88551 -1.59878,0 -2.75411,-1.10731 -3.26052,-3.125 z m -31.5029,-32.76399 c -4.10461,-0.78599 -11.00555,-8.14925 -11.91925,-12.71778 -1.91033,-9.55164 2.70522,-16.70962 12.91418,-20.0278 5.40508,-1.7568 6.96056,-2.85034 7.29599,-5.12928 1.82374,-12.39056 18.41481,-20.87647 30.74426,-15.72489 4.59618,1.9204 11.95442,8.93671 11.95442,11.39889 0,0.98501 2.65691,1.73156 7.37779,2.07303 16.71418,1.209 25.55027,17.4679 16.92157,31.13664 -5.73827,9.09002 -9.10603,9.84748 -43.04936,9.6825 -16.15625,-0.0785 -30.66407,-0.38962 -32.2396,-0.69131 z"
         id="path4325"
         inkscape:connector-curvature="0" />
      <path
         style="fill-opacity:1"
         d="m 800.01815,893.51983 -0.84633,-3.85327 -2.69049,2.44417 c -2.72911,2.47925 -5.8155,2.44013 -5.8155,-0.0737 0,-0.75778 1.21957,-2.67595 2.71016,-4.2626 l 2.71015,-2.88483 -3.96015,-1.38052 c -4.18315,-1.45825 -4.54305,-2.03188 -2.89981,-4.62189 0.7702,-1.21396 1.86331,-1.29111 4.43575,-0.31307 3.31941,1.26204 3.40284,1.18571 3.02129,-2.76406 -0.32452,-3.35939 0.04,-4.06193 2.10761,-4.06193 1.64091,0 2.63726,0.96648 2.89944,2.8125 0.46531,3.27634 2.29329,3.59117 5.26041,0.90597 1.85023,-1.67444 2.2923,-1.6829 3.63133,-0.0695 1.2337,1.48652 1.02937,2.26114 -1.07077,4.05934 -3.3785,2.89276 -3.27309,3.97088 0.52959,5.41666 1.99055,0.7568 3.125,2.15984 3.125,3.86485 0,2.70037 -1.05494,2.78824 -6.50184,0.54151 -1.83879,-0.75846 -2.02825,-0.2698 -1.39894,3.60818 0.63712,3.92613 0.40813,4.48546 -1.83635,4.48546 -1.84806,0 -2.8006,-1.0762 -3.41055,-3.85328 z"
         id="path4323"
         inkscape:connector-curvature="0" />
      <path
         style="fill-opacity:1"
         d="m 801.41304,896.45365 c -0.41097,-0.41096 -0.74721,-3.01097 -0.74721,-5.77778 0,-4.77123 -0.10145,-4.90549 -1.9677,-2.60417 -1.08223,1.33453 -1.55782,1.63637 -1.05686,0.67078 0.58418,-1.12601 0.41286,-1.44788 -0.47771,-0.89747 -0.7637,0.47199 -1.09953,1.61131 -0.7463,2.53183 0.7105,1.85153 -2.76701,3.6932 -4.70824,2.49346 -0.71577,-0.44237 -0.20538,-1.88316 1.21914,-3.44156 1.34768,-1.47435 2.83308,-4.08688 3.30089,-5.80563 0.61701,-2.26696 0.50942,-2.62969 -0.39182,-1.32107 -1.75398,2.5468 -7.95873,-0.22568 -6.86775,-3.06874 0.87155,-2.27122 3.7524,-1.69922 3.20773,0.63691 -0.22751,0.97582 0.39564,1.26825 1.66474,0.78125 1.11559,-0.42809 2.50694,-0.77835 3.09188,-0.77835 0.58494,0 1.42059,-1.125 1.857,-2.5 0.43641,-1.375 1.31806,-2.5 1.95924,-2.5 0.64117,0 1.16576,1.125 1.16576,2.5 0,3.27427 1.74438,3.17878 4.0004,-0.21898 1.31702,-1.98353 2.45711,-2.46272 4.21497,-1.77159 2.20623,0.86741 2.05679,1.24478 -1.77035,4.47058 l -4.17998,3.52321 4.49248,1.6245 c 4.7336,1.71169 5.02985,2.09175 3.50285,4.4938 -0.62744,0.98697 -1.57853,1.09989 -2.79336,0.33164 -3.64872,-2.30743 -5.32149,-1.41309 -4.55212,2.43377 0.69173,3.45869 -1.48351,6.12778 -3.41768,4.19361 z m -4.35221,-21.1343 c -0.0797,-1.47332 0.69875,-3.00254 1.73,-3.39827 1.03125,-0.39573 1.875,-0.17466 1.875,0.49126 0,0.66592 -0.52125,1.21077 -1.15835,1.21077 -0.63708,0 -1.41558,0.98437 -1.72999,2.1875 -0.45092,1.72547 -0.60228,1.62171 -0.71666,-0.49126 z"
         id="path4321"
         inkscape:connector-curvature="0" />
    </g>
    <g
       id="g4338"
       transform="matrix(1.6178832,0,0,1.6178832,-1017.7196,-982.9575)">
      <path
         style="fill-opacity:1"
         d="m 717.82337,1030.4979 c -0.0186,-1.0938 0.80384,-4.7501 1.82765,-8.125 1.02381,-3.3749 1.86756,-6.558 1.875,-7.0736 0.007,-0.5157 -2.79897,-0.9375 -6.23647,-0.9375 -7.47139,0 -7.54576,-0.3271 -2.74142,-12.058 6.7899,-16.57912 6.31886,-16.02035 13.86783,-16.45105 3.70181,-0.21121 7.25687,0.14229 7.90013,0.78555 0.72609,0.72609 -0.0525,3.5813 -2.05349,7.52996 -1.77268,3.49821 -3.22305,6.94164 -3.22305,7.65194 0,0.7165 2.78261,1.2916 6.25,1.2916 6.70041,0 7.51313,0.7892 4.0625,3.9449 -1.20313,1.1003 -4.71875,5.2423 -7.8125,9.2044 -9.2616,11.861 -13.67861,16.4457 -13.71618,14.2368 z m -30.71231,-55.96493 c -5.29912,-3.2315 -8.07151,-7.97008 -8.07151,-13.79586 0,-10.06045 5.52358,-16.98834 14.63402,-18.35453 4.48186,-0.6721 5.36598,-1.26528 5.36598,-3.6002 0,-3.69835 6.55315,-12.61183 11.6003,-15.77853 6.12459,-3.84271 18.92913,-2.94184 25.10146,1.76602 2.50298,1.90912 5.40847,5.12955 6.45665,7.15651 1.71075,3.30821 2.52322,3.68538 7.93884,3.68538 7.05554,0 12.88665,3.35711 17.42113,10.02975 2.46911,3.63338 2.87029,5.5255 2.44877,11.54955 -0.5595,7.99595 -3.0565,12.33366 -9.70444,16.8582 -4.02534,2.73962 -4.97789,2.81238 -36.76006,2.80783 -29.57621,-0.004 -32.98337,-0.2216 -36.43114,-2.32412 z"
         id="path4344"
         inkscape:connector-curvature="0" />
      <path
         style="fill-opacity:1"
         d="m 717.82337,1029.8699 c -0.0186,-0.7517 1.04464,-4.5014 2.36276,-8.3325 1.31812,-3.8312 2.06812,-7.2943 1.66667,-7.6957 -0.40146,-0.4015 -3.48657,-0.7299 -6.85582,-0.7299 -7.07171,0 -7.05584,0.2716 -0.78638,-13.46884 1.96842,-4.31409 3.57895,-8.35204 3.57895,-8.97322 0,-4.02849 7.48365,-6.20055 14.70057,-4.2667 l 2.82557,0.75713 -3.76307,6.94777 c -2.06969,3.82128 -3.76307,7.41036 -3.76307,7.97576 0,0.5654 2.8125,1.0281 6.25,1.0281 3.4375,0 6.24931,0.4218 6.24847,0.9375 -8.4e-4,0.5156 -1.36984,2.5285 -3.04224,4.4731 -1.67239,1.9446 -4.90608,5.8663 -7.18597,8.7149 -6.85429,8.5641 -12.20054,14.0835 -12.23644,12.6326 z m -29.6534,-55.45314 c -8.26588,-5.04002 -10.84487,-13.22412 -6.80014,-21.5794 2.93165,-6.05599 8.08263,-9.7256 13.65169,-9.7256 3.36391,0 3.85645,-0.53694 5.12926,-5.59175 2.41679,-9.59796 11.99302,-16.90825 22.14921,-16.90825 6.69357,0 15.25583,4.7236 18.36976,10.13417 2.4449,4.24809 3.12579,4.60983 9.81965,5.21681 7.59307,0.68851 14.80015,4.55152 14.80015,7.93291 0,1.02501 0.49226,1.55942 1.0939,1.18758 0.60165,-0.37184 1.79642,1.83307 2.65505,4.8998 2.04193,7.29305 -0.0216,16.1095 -4.7631,20.35095 -6.86784,6.14348 -9.33003,6.5281 -41.7582,6.52311 -27.88053,-0.004 -30.678,-0.20305 -34.34723,-2.44033 z"
         id="path4342"
         inkscape:connector-curvature="0" />
      <path
         style="fill-opacity:1"
         d="m 720.62384,1022.0334 c 1.39251,-4.2472 2.29441,-7.9596 2.00422,-8.2498 -0.29019,-0.2902 -3.20453,-0.6662 -6.47631,-0.8355 -3.54349,-0.1835 -5.7589,-0.8444 -5.47929,-1.6347 0.25818,-0.7296 1.50332,-4.2507 2.76698,-7.8246 1.26367,-3.57393 2.84631,-6.1589 3.51698,-5.7444 0.67144,0.41498 0.82245,0.11135 0.33605,-0.67566 -0.48584,-0.78611 0.0435,-3.38241 1.17624,-5.76955 1.98509,-4.18328 2.30393,-4.33734 8.81521,-4.25957 3.7156,0.0444 6.75563,0.32247 6.75563,0.61797 0,0.2955 -1.44458,3.38802 -3.21018,6.87226 -1.7656,3.48424 -2.92124,7.08795 -2.56809,8.00825 0.35525,0.9258 2.95824,1.8465 5.82681,2.061 l 5.18471,0.3877 -2.75835,3.125 c -1.51709,1.7187 -4.24145,5.0672 -6.05412,7.441 -1.81268,2.3738 -5.33711,6.5405 -7.83206,9.2593 l -4.53628,4.9434 2.53185,-7.7221 z"
         id="path4340"
         inkscape:connector-curvature="0" />
    </g>
    <g
       id="g4357"
       transform="matrix(1.3891564,0,0,1.3891564,-926.18107,-806.28029)">
      <path
         style="fill-opacity:1"
         d="m 940.60431,1042.8584 c -3.09375,-1.6532 -7.3125,-5.4017 -9.375,-8.3301 -3.33074,-4.7289 -3.75,-6.3355 -3.75,-14.3703 0,-7.8876 0.46386,-9.747 3.62199,-14.5193 3.57979,-5.4094 3.61971,-5.67046 3.42691,-22.40869 -0.22827,-19.81688 0.83717,-25.39851 5.79436,-30.3557 3.84651,-3.84652 11.21337,-5.68321 16.9849,-4.23464 5.11467,1.28369 10.6498,6.8416 12.07141,12.12107 0.77268,2.86951 2.08071,4.90875 3.14861,4.90875 1.00475,0 1.82682,1.125 1.82682,2.5 0,1.375 -0.77814,2.5 -1.72921,2.5 -2.87535,0 -3.37238,4.91537 -0.66781,6.6044 2.77856,1.73525 3.19689,4.6456 0.66774,4.6456 -0.9511,0 -2.0114,1.47583 -2.35622,3.27962 -0.47372,2.47811 -0.0511,3.43021 1.72928,3.89579 3.12443,0.81706 3.02224,4.85884 -0.14378,5.68678 -3.50142,0.91564 -3.12189,3.68243 1.38152,10.07142 5.44471,7.7245 6.27591,18.9344 2.00694,27.0664 -4.3636,8.3123 -11.58692,12.8985 -21.22668,13.4773 -6.40704,0.3846 -8.78347,-0.065 -13.41178,-2.5384 z m 20.54072,-9.6218 c 7.96062,-5.2477 9.48515,-15.8533 3.29269,-22.9061 l -3.66658,-4.176 -0.39592,-22.06619 c -0.3651,-20.34914 -0.59044,-22.21294 -2.89591,-23.95273 -3.47732,-2.6241 -7.16955,-2.41705 -10.3893,0.5826 -2.60799,2.42972 -2.7357,3.54528 -2.7357,23.89749 l 0,21.34883 -3.75,4.271 c -6.23297,7.0989 -4.45507,19.1863 3.45321,23.4773 4.83595,2.6239 12.71785,2.4043 17.08751,-0.4762 z m -16.88687,-4.971 c -5.38049,-5.3804 -4.68286,-14.1839 1.47019,-18.5524 1.28863,-0.9149 2.39032,-3.5489 2.61413,-6.25 0.35364,-4.26816 0.70856,-4.66871 4.13683,-4.66871 3.3746,0 3.79088,0.43797 4.15836,4.37501 0.26274,2.8149 1.71138,5.6537 4.0625,7.9608 7.705,7.561 2.47404,20.7892 -8.22086,20.7892 -3.38141,0 -5.51603,-0.9487 -8.22115,-3.6539 z m 25.09615,-36.34611 c 0,-1.38889 -0.83333,-2.5 -1.875,-2.5 -1.04167,0 -1.875,1.11111 -1.875,2.5 0,1.38889 0.83333,2.5 1.875,2.5 1.04167,0 1.875,-1.11111 1.875,-2.5 z m 0,-11.875 c 0,-1.03125 -0.84375,-1.875 -1.875,-1.875 -1.03125,0 -1.875,0.84375 -1.875,1.875 0,1.03125 0.84375,1.875 1.875,1.875 1.03125,0 1.875,-0.84375 1.875,-1.875 z m 0,-12.5 c 0,-1.03125 -0.84375,-1.875 -1.875,-1.875 -1.03125,0 -1.875,0.84375 -1.875,1.875 0,1.03125 0.84375,1.875 1.875,1.875 1.03125,0 1.875,-0.84375 1.875,-1.875 z"
         id="path4367"
         inkscape:connector-curvature="0" />
      <path
         style="fill-opacity:1"
         d="m 941.48049,1043.0529 c -6.09451,-3.2162 -8.91095,-6.081 -12.07432,-12.2817 -4.25621,-8.3429 -2.91834,-19.2817 3.27289,-26.7601 2.80027,-3.3825 2.92545,-4.39716 2.92992,-23.75002 0.004,-18.07215 0.27227,-20.65549 2.52737,-24.35431 6.11078,-10.02288 22.57514,-10.02288 28.68592,0 3.2542,5.33752 3.26466,9.27956 0.0269,10.12625 -2.82238,0.73807 -2.18009,4.63647 0.7639,4.63647 2.37149,0 2.25515,6.13126 -0.13374,7.04797 -1.03125,0.39573 -1.875,1.50307 -1.875,2.46077 0,0.95769 0.84375,1.74126 1.875,1.74126 3.01905,0 2.45814,7.05593 -0.625,7.86219 -1.375,0.35957 -2.5,1.32158 -2.5,2.13781 0,0.81623 1.125,1.77824 2.5,2.13781 1.65528,0.43287 2.5,1.70502 2.5,3.76503 0,1.7112 1.38463,4.75677 3.07696,6.76807 7.95903,9.4587 7.17839,23.0397 -1.88983,32.8775 -7.6137,8.2599 -19.61993,10.5673 -29.06095,5.585 z m 15.66251,-7.4426 c 10.81166,-3.0026 14.92317,-17.9352 7.21131,-26.1908 l -3.75,-4.0144 0,-20.83967 c 0,-23.85653 -0.78166,-26.39594 -8.125,-26.39594 -7.37844,0 -8.125,2.48264 -8.125,27.0194 0,18.23891 -0.29124,21.57491 -1.93876,22.20711 -3.01505,1.157 -6.65301,10.7653 -5.89838,15.5784 0.75037,4.786 7.49945,12.2235 11.84754,13.0561 1.57553,0.3017 3.14585,0.622 3.4896,0.7118 0.34375,0.09 2.72366,-0.4196 5.28869,-1.132 z m -9.84244,-4.9303 c -7.37516,-2.9762 -8.92876,-12.9703 -2.94625,-18.9528 2.0625,-2.0625 3.75,-5.067 3.75,-6.6766 0,-4.7733 1.34017,-6.88111 4.375,-6.88111 3.03483,0 4.375,2.10781 4.375,6.88111 0,1.6096 1.6875,4.6141 3.75,6.6766 6.01807,6.0181 4.87041,14.5059 -2.47498,18.3044 -4.05323,2.096 -6.82973,2.2622 -10.82877,0.6484 z m 22.05375,-38.76051 c 0,-1.66667 0.83333,-2.5 2.5,-2.5 1.66667,0 2.5,0.83333 2.5,2.5 0,1.66667 -0.83333,2.5 -2.5,2.5 -1.66667,0 -2.5,-0.83333 -2.5,-2.5 z m 0.83333,-10.83333 c -1.58473,-1.58474 -0.82363,-2.91667 1.66667,-2.91667 1.38889,0 2.5,0.83333 2.5,1.875 0,1.90301 -2.64426,2.56408 -4.16667,1.04167 z m -0.52141,-13.22917 c 0.78752,-2.36524 4.68808,-2.7015 4.68808,-0.40415 0,1.15954 -1.06874,1.96665 -2.60417,1.96665 -1.52746,0 -2.38906,-0.64602 -2.08391,-1.5625 z"
         id="path4365"
         inkscape:connector-curvature="0" />
      <path
         style="fill-opacity:1"
         d="m 945.14889,1044.1323 c -2.74104,-0.7256 -7.14091,-3.5083 -10.17201,-6.4333 -4.24102,-4.0925 -5.66057,-6.5975 -6.88978,-12.1579 -1.76373,-7.9783 -0.69417,-12.8825 4.46886,-20.4906 2.91796,-4.2999 3.04835,-5.35027 3.04835,-24.55616 0,-23.01614 0.84666,-25.69635 9.42985,-29.8514 6.41877,-3.10727 8.49483,-3.096 15.05929,0.0818 7.69448,3.72484 12.33049,14.94475 6.17509,14.94475 -1.0809,0 -1.91423,1.08834 -1.91423,2.5 0,1.66667 0.83333,2.5 2.5,2.5 1.80071,0 2.5,0.83333 2.5,2.97921 0,1.92796 -0.88216,3.2099 -2.5,3.63298 -4.30941,1.12693 -2.88554,5.48816 1.5625,4.78584 0.51563,-0.0814 0.9375,1.53947 0.9375,3.60197 0,2.91667 -0.55555,3.75 -2.5,3.75 -1.66667,0 -2.5,0.83333 -2.5,2.5 0,1.66667 0.83333,2.5 2.5,2.5 1.84719,0 2.5,0.83333 2.5,3.19132 0,1.75522 1.41847,5.27089 3.15217,7.81249 1.73369,2.5417 3.74233,6.7982 4.46363,9.4589 2.96629,10.9421 -4.58597,24.4606 -16.07859,28.7808 -5.97171,2.2448 -8.72594,2.3269 -15.74263,0.4693 z m 14.12332,-9.2008 c 3.79609,-1.5189 5.60281,-3.2983 7.6567,-7.5411 3.3525,-6.9253 2.54676,-12.572 -2.63625,-18.4752 l -3.68835,-4.2007 0,-21.20379 c 0,-19.49719 -0.19788,-21.38283 -2.45858,-23.42874 -3.19743,-2.89363 -8.43985,-2.83856 -11.30584,0.11877 -1.97545,2.03841 -2.32864,5.12481 -2.71096,23.69067 -0.43382,21.06699 -0.48375,21.39939 -3.80736,25.34929 -6.82772,8.1143 -5.14505,18.8219 3.90509,24.8498 5.02245,3.3452 8.32539,3.5299 15.04555,0.841 z m -10.93318,-4.3297 c -4.59885,-1.8446 -6.68324,-4.6388 -7.38975,-9.9062 -0.57083,-4.2559 -0.15097,-5.4124 3.17071,-8.7341 2.27832,-2.2783 3.98671,-5.4152 4.21899,-7.7468 0.82413,-8.27251 8.51533,-7.38481 8.51533,0.9828 0,2.3221 0.57077,4.222 1.26837,4.222 1.89173,0 6.2216,7.6922 6.22696,11.0625 0.006,3.5471 -7.53369,11.4704 -10.80783,11.3583 -1.27187,-0.044 -3.61312,-0.6009 -5.20278,-1.2385 z m 22.26528,-38.68231 c 0,-0.6875 0.84375,-1.25 1.875,-1.25 1.03125,0 1.875,0.5625 1.875,1.25 0,0.6875 -0.84375,1.25 -1.875,1.25 -1.03125,0 -1.875,-0.5625 -1.875,-1.25 z m 0,-11.875 c 0,-1.03125 0.84375,-1.875 1.875,-1.875 1.03125,0 1.875,0.84375 1.875,1.875 0,1.03125 -0.84375,1.875 -1.875,1.875 -1.03125,0 -1.875,-0.84375 -1.875,-1.875 z m 0,-12.60417 c 0,-2.2074 2.69095,-1.82298 3.46354,0.49479 0.27214,0.81641 -0.39583,1.48438 -1.48437,1.48438 -1.08854,0 -1.97917,-0.89063 -1.97917,-1.97917 z"
         id="path4363"
         inkscape:connector-curvature="0" />
      <path
         style="fill-opacity:1"
         d="m 949.66681,1043.5578 c 1.20313,-0.3144 3.17188,-0.3144 4.375,0 1.20313,0.3144 0.21875,0.5717 -2.1875,0.5717 -2.40625,0 -3.39062,-0.2573 -2.1875,-0.5717 z m 8.4375,-0.3656 c 0,-0.6087 -1.26562,-1.3507 -2.8125,-1.6491 -1.54687,-0.2983 -0.5625,-0.3277 2.1875,-0.065 3.85366,0.3678 4.57012,0.1633 3.125,-0.8917 -1.45943,-1.0654 -1.08991,-1.1968 1.66724,-0.5926 2.35185,0.5153 3.26578,0.3289 2.71958,-0.5549 -0.45245,-0.7321 -0.0777,-1.1765 0.83277,-0.9876 1.01717,0.2111 1.52293,-0.6204 1.31179,-2.1565 -0.33133,-2.4106 -0.29209,-2.4155 1.0968,-0.1388 1.17954,1.9335 1.01538,2.6116 -0.90638,3.7442 -4.66313,2.7483 -9.2218,4.3758 -9.2218,3.2923 z m -17.5,-1.2727 c -2.28496,-1.4767 -0.31136,-1.4767 3.125,0 1.64843,0.7083 1.86132,1.0977 0.625,1.143 -1.03125,0.038 -2.71875,-0.4766 -3.75,-1.143 z m -5.46463,-3.4905 c -0.3367,-0.5448 0.48601,-1.0733 1.82824,-1.1744 1.34223,-0.1011 2.11382,0.3446 1.71464,0.9905 -0.88571,1.4331 -2.71222,1.5279 -3.54288,0.1839 z m 5.80317,0.2353 c 0.41537,-0.4154 1.49349,-0.4598 2.39584,-0.099 0.99716,0.399 0.70097,0.6952 -0.75521,0.7552 -1.31771,0.054 -2.05599,-0.2412 -1.64063,-0.6565 z m 10.59896,-1.3227 c 0.85938,-0.3467 2.26563,-0.3467 3.125,0 0.85938,0.3468 0.15625,0.6305 -1.5625,0.6305 -1.71875,0 -2.42187,-0.2837 -1.5625,-0.6305 z m -12.92459,-2.2245 c -1.12065,-0.8194 -2.25143,-3.421 -2.51285,-5.7812 -0.31742,-2.866 -0.10262,-3.7063 0.64667,-2.5298 0.61709,0.9689 0.80314,2.6564 0.41346,3.75 -0.38968,1.0936 -0.24877,1.5714 0.31314,1.0617 1.40804,-1.2771 4.54224,1.5225 3.53285,3.1557 -0.49123,0.7949 -0.0673,1.0334 1.06462,0.5991 1.0345,-0.397 2.59308,-0.2817 3.46351,0.2563 1.01386,0.6266 0.42068,0.9781 -1.65063,0.9781 -1.77827,0 -4.15012,-0.6705 -5.27077,-1.4899 z m 1.36209,-1.9476 c -0.4249,-0.6875 -1.02059,-1.25 -1.32377,-1.25 -0.30318,0 -0.55123,0.5625 -0.55123,1.25 0,0.6875 0.5957,1.25 1.32377,1.25 0.72807,0 0.97613,-0.5625 0.55123,-1.25 z m -6.875,1.25 c 0,-0.6875 0.5625,-1.25 1.25,-1.25 0.6875,0 1.25,0.5625 1.25,1.25 0,0.6875 -0.5625,1.25 -1.25,1.25 -0.6875,0 -1.25,-0.5625 -1.25,-1.25 z m 39.33186,-2.1875 c 1.09029,-2.2344 2.24915,-4.0625 2.57524,-4.0625 1.24309,0 0.44257,1.9912 -2.01013,5 l -2.54745,3.125 1.98234,-4.0625 z m -7.95637,0.057 c 0.91018,-1.5156 1.92393,-2.4865 2.25279,-2.1577 0.32885,0.3289 -0.41584,1.5689 -1.65488,2.7557 -2.15242,2.0616 -2.17906,2.0349 -0.59791,-0.598 z m 4.32988,-0.7357 c 0.46941,-1.2328 1.16836,-1.9265 1.55322,-1.5417 0.38486,0.3849 7.9e-4,1.3935 -0.85348,2.2414 -1.23452,1.2254 -1.3781,1.0818 -0.69974,-0.6997 z m -35.60669,-1.4044 c -0.0543,-1.3178 0.24116,-2.056 0.65653,-1.6407 0.41536,0.4154 0.45977,1.4935 0.0987,2.3959 -0.39904,0.9971 -0.69523,0.7009 -0.75521,-0.7552 z m 16.77632,0.784 c -3.47643,-0.713 -7.76805,-4.9209 -8.66541,-8.4962 -1.00667,-4.0109 2.1857,-11.3273 5.38555,-12.3429 1.99674,-0.6337 2.53673,-1.7913 2.40986,-5.1662 -0.18471,-4.9132 1.63244,-7.45231 4.53598,-6.33812 1.21985,0.4681 1.95902,2.27692 1.95902,4.79392 0,2.8456 1.17187,5.2513 3.95833,8.1262 4.48336,4.6257 5.15285,9.6399 1.9415,14.5411 -2.21911,3.3868 -7.63323,5.6803 -11.52483,4.8822 z m 22.11869,-5.8882 c -0.0255,-2.0625 0.23383,-3.0576 0.57623,-2.2113 0.34241,0.8463 0.36325,2.5338 0.0463,3.75 -0.31692,1.2162 -0.59707,0.5238 -0.62254,-1.5387 z m 3.75,-1.25 c -0.0255,-2.0625 0.23383,-3.0576 0.57623,-2.2113 0.34241,0.8463 0.36325,2.5338 0.0463,3.75 -0.31692,1.2162 -0.59707,0.5238 -0.62254,-1.5387 z m -47.5,-3.75 c -0.0255,-2.0625 0.23383,-3.0576 0.57623,-2.2113 0.34241,0.8463 0.36325,2.5338 0.0463,3.75 -0.31692,1.2162 -0.59707,0.5238 -0.62254,-1.5387 z m 41.25,0 c -0.0255,-2.0625 0.23383,-3.0576 0.57623,-2.2113 0.34241,0.8463 0.36325,2.5338 0.0463,3.75 -0.31692,1.2162 -0.59707,0.5238 -0.62254,-1.5387 z m -35.04632,-0.625 c 0,-1.7188 0.28372,-2.4219 0.63048,-1.5625 0.34677,0.8594 0.34677,2.2656 0,3.125 -0.34676,0.8594 -0.63048,0.1562 -0.63048,-1.5625 z m 37.60076,-4.8363 -0.22251,-3.2887 1.7929,3.125 c 0.98609,1.7187 1.81282,2.4585 1.83719,1.6439 0.0882,-2.9478 -2.62707,-8.4036 -5.01449,-10.0758 -1.34267,-0.9404 -2.44122,-2.3385 -2.44122,-3.1069 0,-0.7683 1.38992,-0.091 3.08872,1.5047 3.20783,3.0136 6.49616,10.8659 5.12468,12.2374 -1.95991,1.9599 -3.96097,0.98 -4.16527,-2.0396 z m -42.62626,-2.6194 c 1.1995,-3.4409 3.57813,-4.2032 3.57813,-1.1468 0,0.6875 -0.5625,0.9024 -1.25,0.4775 -0.6875,-0.4249 -1.25,0.071 -1.25,1.1024 0,1.0313 -0.53995,2.2088 -1.1999,2.6166 -0.71133,0.4397 -0.66175,-0.8021 0.12177,-3.0497 z m 38.67941,1.3949 c -2.04189,-3.8153 -1.61907,-4.8778 0.65122,-1.6365 1.10137,1.5724 1.70945,3.152 1.35127,3.5102 -0.35817,0.3582 -1.25929,-0.485 -2.00249,-1.8737 z m -31.68624,-5.1892 c -1.17732,-1.375 -1.60337,-2.5 -0.94678,-2.5 0.65658,0 1.79586,1.125 2.53174,2.5 0.73588,1.375 1.16193,2.5 0.94678,2.5 -0.21515,0 -1.35443,-1.125 -2.53174,-2.5 z m 25.43364,-3.0208 c -0.0543,-1.3178 0.24116,-2.056 0.65653,-1.6407 0.41536,0.4154 0.45977,1.4935 0.0987,2.3959 -0.39904,0.9971 -0.69523,0.7009 -0.75521,-0.7552 z m -19.78345,-3.8542 c -0.0139,-2.75001 0.23076,-4.02219 0.54362,-2.82708 0.31287,1.1951 0.32422,3.44508 0.0252,4.99998 -0.29899,1.5549 -0.55498,0.5771 -0.56885,-2.1729 z m -6.0653,-18.75001 c 0.002,-10.3125 0.19536,-14.36492 0.43023,-9.00537 0.23488,5.35955 0.23345,13.79705 -0.003,18.75 -0.23669,4.95295 -0.42887,0.56787 -0.42711,-9.74463 z m 32.05218,18.12501 c -0.13083,-0.3438 -0.49343,-2.01923 -0.80577,-3.72328 -0.41987,-2.29075 -0.20221,-2.7326 0.83512,-1.69527 0.77164,0.77164 1.13424,2.44711 0.80577,3.72326 -0.32848,1.27619 -0.70428,2.03899 -0.83512,1.69529 z m -6.30211,-8.75001 c 0,-1.375 0.44196,-2.5 0.98214,-2.5 0.54018,0 0.98215,1.125 0.98215,2.5 0,1.375 -0.44197,2.5 -0.98215,2.5 -0.54018,0 -0.98214,-1.125 -0.98214,-2.5 z m 4.5724,-4.31134 c -0.46366,-1.20826 -0.0944,-1.58083 1.10908,-1.11902 0.99229,0.38078 1.49295,1.19588 1.11257,1.81134 -0.95803,1.55013 -1.4159,1.40745 -2.22165,-0.69232 z m -3.22372,-2.45949 c -0.0543,-1.31771 0.24116,-2.05599 0.65653,-1.64063 0.41536,0.41537 0.45977,1.49349 0.0987,2.39583 -0.39904,0.99717 -0.69523,0.70097 -0.75521,-0.7552 z m -1.34868,-6.9054 c 0,-0.72807 0.5625,-1.32377 1.25,-1.32377 0.6875,0 1.25,0.24805 1.25,0.55123 0,0.30318 -0.5625,0.89887 -1.25,1.32377 -0.6875,0.4249 -1.25,0.17684 -1.25,-0.55123 z m 0.625,-7.57377 c -0.4746,-2.16082 -0.60234,-4.18932 -0.28388,-4.50779 0.31846,-0.31846 0.93839,1.21786 1.37763,3.41404 1.04206,5.21032 0.0322,6.22018 -1.09375,1.09375 z m 8.28125,-2.34375 c 0.25781,-0.77344 0.89063,-1.40625 1.40625,-1.40625 1.46386,0 1.09967,1.82094 -0.46875,2.34375 -0.77344,0.25781 -1.19531,-0.16406 -0.9375,-0.9375 z m -28.90625,-4.96252 c 0,-0.58094 1.21208,-2.12782 2.6935,-3.4375 l 2.6935,-2.38123 -2.21226,3.4375 c -2.2811,3.54445 -3.17474,4.21474 -3.17474,2.38123 z m 25.54405,-0.0627 c 0.38038,-0.61546 -0.18458,-1.45523 -1.25546,-1.86617 -1.07087,-0.41093 -1.59695,-1.31362 -1.16905,-2.00598 0.4279,-0.69235 0.32293,-1.26651 -0.23327,-1.2759 -0.5562,-0.009 -2.41752,-0.33943 -4.13627,-0.73343 -2.38261,-0.54618 -2.68816,-0.4098 -1.2862,0.5741 2.67832,1.87964 1.12932,2.50168 -2.06801,0.83045 -2.56487,-1.34064 -2.37669,-1.55318 3.125,-3.52955 5.25397,-1.88738 5.59788,-1.89585 3.35421,-0.0825 -2.4688,1.99526 -2.46488,2.01218 0.31423,1.35583 1.54782,-0.36555 2.53839,-0.21834 2.20126,0.32715 -0.33713,0.54549 0.22459,1.6869 1.24827,2.53648 2.14543,1.78054 2.49106,4.98858 0.53747,4.98858 -0.72807,0 -1.01256,-0.50356 -0.63218,-1.11902 z m -14.91905,-7.57759 5,-2.48783 -4.375,-0.22007 c -4.13204,-0.20785 -4.172,-0.25016 -0.71959,-0.76183 2.70255,-0.40055 3.19542,-0.82606 1.89076,-1.63238 -1.29906,-0.80286 -1.01863,-1.03442 1.06286,-0.87762 1.73818,0.13093 2.58998,0.83198 2.21097,1.81966 -0.33909,0.88367 -0.11857,1.60668 0.49006,1.60668 0.60863,0 1.36442,-0.70313 1.67952,-1.5625 0.42712,-1.16487 0.95593,-1.20335 2.078,-0.15117 1.14433,1.07305 0.20807,1.86527 -3.90625,3.30527 -9.5,3.32499 -10.52811,3.50772 -5.41133,0.96179 z m -13.125,0.25523 c 0,-2.35429 6.42225,-6.5636 9.85607,-6.45994 3.25214,0.0982 3.24967,0.10542 -0.48107,1.4091 -2.0625,0.72073 -5.01562,2.46188 -6.5625,3.86921 -1.54687,1.40734 -2.8125,1.93907 -2.8125,1.18163 z"
         id="path4361"
         inkscape:connector-curvature="0" />
      <path
         style="fill-opacity:1"
         d="m 949.35431,1029.4195 c 1.03125,-0.6665 2.71875,-1.2117 3.75,-1.2117 1.66667,0 1.66667,0.1346 0,1.2117 -1.03125,0.6664 -2.71875,1.2117 -3.75,1.2117 -1.66667,0 -1.66667,-0.1346 0,-1.2117 z m 8.55407,-1.1617 c 3.52558,-3.0727 4.90799,-10.9541 2.47864,-14.1313 -1.73736,-2.2722 -7.28271,-1.827 -7.28271,0.5846 0,0.6875 1.06516,0.9714 2.36703,0.631 2.01262,-0.5263 2.29864,-0.034 1.9103,3.2917 -0.25121,2.1509 -0.14449,3.2076 0.23713,2.3482 1.12604,-2.5357 2.80927,-1.7834 2.09773,0.9375 -0.35957,1.375 -1.11276,2.5 -1.67374,2.5 -1.36387,0 -2.7888,-4.6719 -1.8756,-6.1495 0.39833,-0.6445 -0.50568,-1.3526 -2.0089,-1.5736 -3.56338,-0.524 -4.51317,-3.5101 -1.37727,-4.3302 1.81154,-0.4737 2.32695,-1.4989 2.00094,-3.9799 -0.24151,-1.838 -0.0625,-2.4981 0.39792,-1.4668 0.46037,1.0312 2.43171,3.3663 4.38075,5.189 5.50611,5.1492 4.56125,14.2711 -1.79744,17.3529 -2.71993,1.3183 -2.71659,1.2906 0.14522,-1.2036 z m -13.71351,-1.0258 c -1.55484,-1.9826 -1.51063,-2.0268 0.47194,-0.472 1.20313,0.9436 2.1875,1.928 2.1875,2.1875 0,1.0288 -1.02648,0.3667 -2.65944,-1.7155 z m -2.11235,-7.631 c -0.0699,-5.067 1.77728,-7.7035 6.60869,-9.4326 3.0652,-1.097 1.68197,0.3884 -2.12726,2.2843 -2.13345,1.0619 -2.88148,2.5829 -3.02398,6.149 -0.25589,6.4033 -1.37231,7.1687 -1.45745,0.9993 z m 3.52179,3.5685 c 0,-0.6875 0.24805,-1.25 0.55123,-1.25 0.30318,0 0.89887,0.5625 1.32377,1.25 0.4249,0.6875 0.17684,1.25 -0.55123,1.25 -0.72807,0 -1.32377,-0.5625 -1.32377,-1.25 z m 3.75,-18.597 c 0,-3.9099 2.41358,-6.77724 4.54036,-5.39401 1.5658,1.01841 1.79402,5.44071 0.23092,4.47461 -0.58413,-0.361 -0.73844,-1.18 -0.3429,-1.82 0.39554,-0.64 -0.22163,-1.1636 -1.37148,-1.1636 -1.61192,0 -1.96462,0.8587 -1.54027,3.75 0.30272,2.0625 0.0853,3.75 -0.48312,3.75 -0.56843,0 -1.03351,-1.6186 -1.03351,-3.597 z"
         id="path4359"
         inkscape:connector-curvature="0" />
    </g>
    <g
       id="g4380"
       transform="matrix(1.3891564,0,0,1.3891564,124.23125,-747.93878)">
      <path
         style="fill-opacity:1"
         d="m 357.55904,1003.1998 c -7.19903,-1.2646 -11.45836,-3.99691 -15.92443,-10.21518 -3.36922,-4.69108 -3.75,-6.1732 -3.75,-14.59625 0,-8.11208 0.46307,-10.08731 3.4375,-14.66266 3.36879,-5.18197 3.43754,-5.66916 3.43944,-24.375 0.002,-21.05944 1.10026,-25.26109 7.90554,-30.24848 4.59317,-3.3662 14.96393,-3.44298 19.96891,-0.14783 3.88937,2.56066 7.12361,7.9507 7.12361,11.87189 0,1.72875 0.81314,2.56208 2.5,2.56208 1.66667,0 2.5,0.83333 2.5,2.5 0,1.66667 -0.83333,2.5 -2.5,2.5 -1.38889,0 -2.5,-0.83333 -2.5,-1.875 0,-1.04167 -1.11111,-1.875 -2.5,-1.875 -1.375,0 -2.5,0.61516 -2.5,1.36703 0,0.75186 1.125,1.66121 2.5,2.02078 1.74008,0.45504 2.5,1.70502 2.5,4.11219 0,2.40717 -0.75992,3.65715 -2.5,4.11219 -1.375,0.35957 -2.5,1.26892 -2.5,2.02078 0,0.75187 1.125,1.36703 2.5,1.36703 1.38889,0 2.5,-0.83333 2.5,-1.875 0,-1.04167 1.11111,-1.875 2.5,-1.875 1.45416,0 2.5,0.83333 2.5,1.99203 0,1.09561 -1.125,2.28621 -2.5,2.64578 -1.65118,0.4318 -2.5,1.70502 -2.5,3.75 0,2.04498 0.84882,3.31821 2.5,3.75 1.375,0.35957 2.5,1.36631 2.5,2.23719 0,0.87088 -1.125,1.87762 -2.5,2.23719 -3.45309,0.903 -3.19277,5.32861 0.57696,9.80868 5.23788,6.22486 6.93465,15.68797 4.25041,23.7051 -4.25541,12.70982 -16.02202,19.55806 -29.52794,17.18546 z m 11.84673,-10.64889 c 5.3897,-2.55757 9.0945,-8.32693 9.0945,-14.16254 0,-4.5105 -3.97704,-12.5 -6.22229,-12.5 -0.80889,0 -1.26837,-7.82373 -1.26837,-21.59687 0,-24.40751 -0.78719,-27.15313 -7.78495,-27.15313 -7.90548,0 -8.46505,1.69231 -8.46505,25.60084 0,21.28154 -0.0265,21.48826 -3.1269,24.40095 -8.19754,7.70118 -5.60119,21.06475 5.0019,25.74507 5.01572,2.21399 7.54028,2.1479 12.77116,-0.33432 z m -15.33085,-6.22007 c -4.56394,-4.92458 -4.27522,-12.56558 0.65323,-17.28733 l 3.71854,-3.56259 0.34396,-18.85877 c 0.34315,-18.81421 0.35101,-18.85978 3.3276,-19.28065 1.641,-0.23202 3.46051,0.33048 4.04336,1.25 0.58284,0.91953 1.06833,9.51609 1.07886,19.10347 0.0187,17.02296 0.0947,17.51052 3.24438,20.79803 1.89464,1.97758 3.49572,5.38302 3.88086,8.25447 0.542,4.04092 0.0721,5.58151 -2.71135,8.88947 -2.8611,3.40022 -4.20441,4.00143 -8.94055,4.00143 -4.42153,0 -6.20717,-0.68366 -8.63889,-3.30753 z m 25.68469,-36.06747 c 0,-1.03125 -0.81055,-1.875 -1.80123,-1.875 -2.0883,0 -3.49801,1.7841 -2.33145,2.95065 1.49394,1.49395 4.13268,0.80714 4.13268,-1.07565 z"
         id="path4390"
         inkscape:connector-curvature="0" />
      <path
         style="fill-opacity:1"
         d="m 350.97869,1000.5759 c -13.23892,-6.6961 -17.75357,-24.05154 -9.44234,-36.29881 2.75437,-4.05879 2.99437,-5.78747 3.44503,-24.81322 0.38733,-16.35204 0.91891,-21.26042 2.65248,-24.49184 6.77721,-12.63291 28.81731,-9.68834 31.59932,4.22169 0.63853,3.19263 0.32621,3.95543 -1.8528,4.52525 -3.26743,0.85446 -3.48522,4.6694 -0.26656,4.6694 1.34223,0 2.65004,-1.13126 3.04242,-2.6317 0.78045,-2.98446 3.76995,-2.6108 4.38252,0.54778 0.27251,1.40511 -0.44004,2.08392 -2.1875,2.08392 -2.04628,0 -2.59165,0.78913 -2.59165,3.75 0,2.91667 0.55555,3.75 2.5,3.75 2.35323,0 3.39893,2.43441 1.75279,4.08054 -1.21643,1.21643 -4.25279,-0.45374 -4.25279,-2.33928 0,-0.95769 -1.125,-1.74126 -2.5,-1.74126 -1.45416,0 -2.5,0.83333 -2.5,1.99203 0,1.09561 1.125,2.28621 2.5,2.64578 1.77082,0.46308 2.5,1.70502 2.5,4.25798 0,2.77088 0.57803,3.60421 2.5,3.60421 1.38889,0 2.5,0.83333 2.5,1.875 0,1.04167 -1.11111,1.875 -2.5,1.875 -3.78711,0 -3.17485,4.99828 1.54167,12.58557 13.74816,22.11616 -9.58647,47.60446 -32.82259,35.85196 z m 18.74445,-7.79367 c 1.97415,-1.02088 4.82633,-3.59329 6.33817,-5.71647 3.80657,-5.34584 2.96739,-14.81906 -1.74883,-19.74173 l -3.30287,-3.44746 0,-21.10104 c 0,-19.94454 -0.14896,-21.25959 -2.71789,-23.9941 -3.21626,-3.42354 -6.85753,-3.6546 -10.6812,-0.67777 -2.66515,2.07489 -2.77987,3.01302 -2.92112,23.88764 -0.14184,20.96313 -0.24908,21.83 -3.0467,24.62762 -4.41349,4.41349 -6.13933,10.82301 -4.36326,16.20455 3.27672,9.92855 13.62372,14.51974 22.4437,9.95876 z m -13.82185,-4.74611 c -5.98965,-4.59871 -6.54931,-13.34627 -1.17507,-18.36656 l 3.71661,-3.47183 0.34589,-19.20142 c 0.31222,-17.33233 0.56467,-19.24341 2.59344,-19.63289 5.16302,-0.9912 5.87745,1.58784 5.87745,21.21724 0,15.61168 0.3118,18.75582 1.92123,19.37342 1.05668,0.40548 2.79396,2.42491 3.86063,4.48762 2.57015,4.97012 1.31974,11.34535 -2.87191,14.64251 -3.6353,2.85952 -11.13223,3.35968 -14.26827,0.95191 z m 23.85832,-37.63901 c 0,-1.88554 -3.03636,-3.55571 -4.25279,-2.33928 -1.64614,1.64613 -0.60044,4.08054 1.75279,4.08054 1.375,0 2.5,-0.78357 2.5,-1.74126 z"
         id="path4388"
         inkscape:connector-curvature="0" />
      <path
         style="fill-opacity:1"
         d="m 353.11437,1001.5774 c -6.42922,-2.29299 -9.01507,-4.85957 -12.90364,-12.80752 -4.26424,-8.7158 -3.58385,-17.14321 2.02669,-25.10295 l 3.77219,-5.35165 0,-20.73551 0,-20.73552 4.85294,-4.85294 c 4.31025,-4.31025 5.53336,-4.85242 10.9375,-4.84827 7.63304,0.006 13.72676,3.53452 16.15978,9.35755 2.39209,5.72508 2.27389,6.88778 -0.70022,6.88778 -1.66667,0 -2.5,0.83333 -2.5,2.5 0,1.66667 0.83333,2.5 2.5,2.5 1.8574,0 2.5,0.83333 2.5,3.24203 0,2.19076 -0.81065,3.45401 -2.5,3.89578 -1.38364,0.36183 -2.5,1.70502 -2.5,3.00798 0,1.52088 0.88494,2.35421 2.5,2.35421 1.83333,0 2.5,0.83333 2.5,3.125 0,2.32667 -0.66087,3.125 -2.58694,3.125 -1.96777,0 -2.49133,0.67315 -2.1875,2.8125 0.21969,1.54687 1.24319,2.8125 2.27444,2.8125 1.15831,0 2.03271,1.43338 2.2876,3.75 0.22692,2.0625 1.42226,4.875 2.65629,6.25 3.8672,4.30895 5.14858,7.92187 5.21132,14.69358 0.0719,7.76479 -1.21606,11.52927 -5.81449,16.99419 -6.91635,8.21966 -17.79171,10.94026 -28.48596,7.12626 z m 18.66417,-9.70844 c 4.55207,-3.49592 5.20925,-4.43005 6.62583,-9.41809 1.49431,-5.26179 -0.29192,-11.74213 -4.27885,-15.52333 -3.03625,-2.87958 -3.07298,-3.17666 -3.09431,-25.03079 -0.0209,-21.42567 -0.10839,-22.17741 -2.79973,-24.0625 -4.2622,-2.98536 -9.14988,-2.44237 -12.13114,1.34769 -2.38139,3.02744 -2.59073,4.94741 -2.59073,23.76083 l 0,20.46725 -3.86264,5.30167 c -3.22908,4.43207 -3.76895,6.15434 -3.29142,10.50001 0.64066,5.83013 4.85458,12.57297 8.87105,14.19487 5.14421,2.07729 12.767,1.36917 16.55194,-1.53761 z m -17.11508,-5.88444 c -2.18366,-2.18365 -3.65385,-4.97491 -3.65385,-6.93707 0,-4.09444 3.02734,-10.1143 5.57877,-11.09337 1.60943,-0.6176 1.92123,-3.76174 1.92123,-19.37342 0,-14.96963 0.36576,-18.93973 1.85908,-20.17908 1.0225,-0.84859 2.71,-1.21637 3.75,-0.81729 1.57234,0.60337 1.89092,3.90479 1.89092,19.59555 l 0,18.86993 3.6581,3.07809 c 4.69309,3.94898 5.87138,9.12732 3.23631,14.22297 -3.65893,7.0756 -12.51934,8.35492 -18.24056,2.63369 z m 25.71569,-35.10498 c -0.4279,-0.69235 0.12567,-1.60559 1.23014,-2.02942 2.39331,-0.9184 3.72715,0.0937 2.57672,1.95509 -1.03798,1.67947 -2.79364,1.71375 -3.80686,0.0743 z m -0.61954,-12.35743 c 0,-1.40505 3.2514,-2.71567 4.25279,-1.71428 1.50471,1.5047 0.68369,2.83054 -1.75279,2.83054 -1.375,0 -2.5,-0.50232 -2.5,-1.11626 z m 0.85937,-10.94103 c -1.63012,-1.63012 -0.85186,-2.94271 1.7448,-2.94271 1.45468,0 2.38576,0.65521 2.10937,1.48437 -0.60889,1.82668 -2.69607,2.61643 -3.85417,1.45834 z"
         id="path4386"
         inkscape:connector-curvature="0" />
      <path
         style="fill-opacity:1"
         d="m 356.63461,1002.1057 c -1.66933,-0.7391 -0.63099,-0.8598 3.125,-0.3632 3.09375,0.4091 5.85937,0.9467 6.14583,1.1948 1.08579,0.9403 -6.8835,0.2255 -9.27083,-0.8316 z m 13.125,-0.4586 c 0,-0.2702 0.87297,-0.8262 1.93992,-1.2357 1.11241,-0.42685 1.61416,-0.2173 1.17623,0.4913 -0.73407,1.1877 -3.11615,1.7568 -3.11615,0.7444 z m -20.72972,-4.1788 c 0.53279,-1.67865 0.15881,-2.78154 -1.10803,-3.26767 -1.05174,-0.40359 -1.90364,-1.45458 -1.89311,-2.33553 0.0136,-1.13757 0.35613,-1.06887 1.18203,0.23707 0.6396,1.01134 1.51968,1.48202 1.95574,1.04595 0.43607,-0.43606 -0.17204,-2.26545 -1.35135,-4.06531 -1.17932,-1.79985 -1.88136,-3.53531 -1.5601,-3.85657 0.32126,-0.32126 1.28528,0.72606 2.14228,2.32737 0.85699,1.60131 3.24053,3.90527 5.29676,5.11991 2.05622,1.21464 3.40902,2.538 3.00621,2.94081 -0.40281,0.40281 -1.398,0.0667 -2.21154,-0.74679 -2.06493,-2.06493 -5.45284,-1.9898 -3.75758,0.0833 0.89836,1.09862 0.7161,2.08039 -0.61392,3.30691 -1.64946,1.5211 -1.78866,1.42004 -1.08739,-0.78948 z m 16.06826,0.16486 c 0.41537,-0.41536 1.49349,-0.45977 2.39583,-0.0987 0.99717,0.39904 0.70097,0.69523 -0.7552,0.75521 -1.31771,0.0543 -2.05599,-0.24116 -1.64063,-0.65652 z m 14.30848,-3.60421 c 1.22539,-1.68411 2.65462,-3.07969 3.17607,-3.1013 1.42568,-0.0591 -1.89812,4.81798 -3.77418,5.53789 -1.02734,0.39422 -0.80623,-0.50654 0.59811,-2.43659 z m -12.77202,0.96809 c 1.375,-0.33073 3.03438,-1.10923 3.6875,-1.73 0.65312,-0.62077 1.77812,-1.11078 2.5,-1.08892 0.72188,0.0219 0.22062,0.86562 -1.11391,1.875 -1.33453,1.00939 -3.58453,1.77 -5,1.69025 -2.51084,-0.14147 -2.51263,-0.15967 -0.0736,-0.74633 z m -24.95612,-3.59213 c -1.16525,-1.77839 -1.9035,-3.44859 -1.64055,-3.71154 0.26295,-0.26294 1.46469,1.19211 2.67055,3.23346 2.694,4.56058 1.8896,4.93395 -1.03,0.47808 z m 33.78649,-2.13295 c 0.46941,-1.23278 1.16836,-1.92653 1.55322,-1.54167 0.38486,0.38486 7.9e-4,1.3935 -0.85348,2.24141 -1.23452,1.22534 -1.3781,1.08176 -0.69974,-0.69974 z m -20.08635,-2.65094 c -1.65955,-1.65954 -3.3852,-4.48296 -3.83479,-6.27426 -1.0339,-4.11942 1.503,-10.39304 4.6002,-11.37606 2.18506,-0.69351 2.36557,-2.21115 2.36557,-19.88851 0,-19.95533 0.78559,-23.00291 5.46656,-21.20665 1.7528,0.67261 2.03344,3.36667 2.03344,19.52005 l 0,18.73976 3.75,3.50302 c 5.35882,5.00589 5.31762,12.2087 -0.0959,16.76388 -4.9097,4.13124 -10.29021,4.21364 -14.28508,0.21877 z m 25.82835,0.51735 c 0,-1.71875 0.28372,-2.42188 0.63048,-1.5625 0.34677,0.85937 0.34677,2.26562 0,3.125 -0.34676,0.85937 -0.63048,0.15625 -0.63048,-1.5625 z m 2.4602,-2.59668 c -0.92437,-2.08829 -1.33797,-4.13959 -0.91912,-4.55844 0.41885,-0.41885 0.76155,0.14276 0.76155,1.24801 0,1.10527 0.65809,2.41629 1.46242,2.9134 0.9361,0.57854 1.21499,0.259 0.7749,-0.88784 -0.37814,-0.98542 -0.25222,-4.03082 0.27982,-6.76756 l 0.96734,-4.97589 -0.0543,6.25 c -0.0299,3.4375 -0.40025,7.22317 -0.82312,8.4126 -0.62588,1.76051 -1.08132,1.45665 -2.4495,-1.63428 z m -5.05889,-0.42415 c -0.0543,-1.31771 0.24116,-2.05599 0.65653,-1.64063 0.41536,0.41537 0.45977,1.49349 0.0987,2.39583 -0.39904,0.99717 -0.69523,0.70097 -0.75521,-0.7552 z m -38.38082,-2.56293 c -0.38703,-1.00857 -0.46246,-2.55545 -0.16762,-3.4375 0.29484,-0.88206 0.83239,-0.0569 1.19457,1.83376 0.70717,3.69153 0.1238,4.60255 -1.02695,1.60374 z m -2.77049,-3.16624 c 0,-1.71875 0.28372,-2.42188 0.63048,-1.5625 0.34677,0.85937 0.34677,2.26562 0,3.125 -0.34676,0.85937 -0.63048,0.15625 -0.63048,-1.5625 z m 5.74132,0.96611 c 0.71076,-0.87511 1.56882,-2.71611 1.9068,-4.09111 0.48477,-1.97218 0.64512,-1.80249 0.75951,0.80376 0.0882,2.00934 -0.65891,3.61226 -1.90681,4.09112 -1.54626,0.59336 -1.7334,0.39532 -0.7595,-0.80377 z m 36.29467,-3.46611 c -0.30271,-2.0625 -0.0853,-3.75 0.48313,-3.75 0.56843,0 1.03351,1.6875 1.03351,3.75 0,2.0625 -0.21741,3.75 -0.48313,3.75 -0.26572,0 -0.73079,-1.6875 -1.03351,-3.75 z m -40.98336,-3.05123 c 0,-0.99068 0.51004,-2.11645 1.13343,-2.50172 0.62338,-0.38528 0.83903,0.42528 0.47921,1.80123 -0.76327,2.91873 -1.61264,3.28768 -1.61264,0.70049 z m 7.35581,-2.21777 c -0.0793,-0.8833 -0.27487,-2.1685 -0.4346,-2.856 -0.15973,-0.6875 -0.38471,-1.8125 -0.49996,-2.5 -0.11525,-0.6875 -0.73283,-0.42254 -1.37242,0.5888 -0.6396,1.01134 -1.5417,1.46 -2.00467,0.99702 -0.46298,-0.46297 0.0647,-1.7482 1.17249,-2.85604 1.85237,-1.85237 2.1266,-1.76775 3.41165,1.05263 1.39467,3.06098 1.40219,3.0621 3.88295,0.58134 2.31725,-2.31725 2.45605,-3.87086 2.04966,-22.94238 -0.23975,-11.25124 -0.0536,-19.49258 0.41373,-18.31409 0.46731,1.1785 0.88918,10.50596 0.9375,20.7277 l 0.0879,18.58498 -3.75,4.27102 c -2.0625,2.34905 -3.81488,3.54831 -3.89419,2.66502 z m 36.88583,-0.9349 c 0.40615,-1.8843 -0.12064,-3.94554 -1.35773,-5.3125 -1.11176,-1.22848 -1.46675,-2.2336 -0.78887,-2.2336 0.67788,0 1.95231,1.34496 2.83207,2.9888 1.24047,2.31784 1.26858,3.51045 0.12522,5.3125 -1.3239,2.08659 -1.40662,2.00953 -0.81069,-0.7552 z m -7.99164,-3.1711 c -1.61468,-1.71875 -2.27523,-3.125 -1.46789,-3.125 0.80734,0 1.46789,0.55587 1.46789,1.23526 0,0.6794 1.20362,1.10127 2.67471,0.9375 1.47109,-0.16377 2.78359,0.26474 2.91667,0.95224 0.13307,0.6875 0.008,0.82812 -0.27888,0.3125 -0.98343,-1.77018 -3.07997,-0.9375 -2.36047,0.9375 0.99688,2.59783 0.44215,2.36294 -2.95203,-1.25 z m -28.20115,-7.24769 c -0.34248,-0.89249 -0.46304,-9.47061 -0.26793,-19.0625 l 0.35476,-17.43981 0.61966,19.06437 c 0.34081,10.4854 0.46138,19.06353 0.26793,19.0625 -0.19345,-10e-4 -0.63194,-0.73208 -0.97442,-1.62456 z m 29.45115,-2.12731 -3.125,-1.0008 3.4375,-0.1246 c 1.89062,-0.0685 3.4375,0.4379 3.4375,1.1254 0,0.6875 -0.14063,1.19393 -0.3125,1.1254 -0.17188,-0.0685 -1.71875,-0.57496 -3.4375,-1.1254 z m 5.79797,-6.875 c -0.39573,-1.03125 -0.17466,-1.875 0.49126,-1.875 0.66592,0 1.21077,0.84375 1.21077,1.875 0,1.03125 -0.22107,1.875 -0.49126,1.875 -0.2702,0 -0.81505,-0.84375 -1.21077,-1.875 z m -9.46011,-0.3125 c 0.0483,-0.51563 0.57128,-2.0625 1.16214,-3.4375 0.95195,-2.21531 1.08429,-2.10856 1.16214,0.9375 0.0483,1.89062 -0.47464,3.4375 -1.16214,3.4375 -0.6875,0 -1.21047,-0.42188 -1.16214,-0.9375 z m 3.66214,-4.0625 c 0,-0.6875 0.24805,-1.25 0.55123,-1.25 0.30317,0 0.89887,0.5625 1.32377,1.25 0.4249,0.6875 0.17685,1.25 -0.55123,1.25 -0.72807,0 -1.32377,-0.5625 -1.32377,-1.25 z m -2.355,-5.3125 c 0.10274,-1.99271 0.30731,-2.19729 0.70185,-0.70187 0.30627,1.16085 1.7879,2.34987 3.2925,2.64227 2.25207,0.43767 2.128,0.56174 -0.70185,0.70187 -2.82038,0.13967 -3.41147,-0.33468 -3.2925,-2.64227 z m 7.355,-2.11373 c 0,-0.72807 0.5625,-1.32377 1.25,-1.32377 0.6875,0 1.25,0.24805 1.25,0.55123 0,0.30318 -0.5625,0.89887 -1.25,1.32377 -0.6875,0.4249 -1.25,0.17684 -1.25,-0.55123 z m -5,-6.2196 c 0,-1.31771 -0.70313,-2.67955 -1.5625,-3.02632 -1.17508,-0.47415 -1.14606,-0.65495 0.11703,-0.72917 0.92373,-0.0543 1.97206,1.01999 2.32961,2.38726 0.35755,1.36727 1.14864,2.17782 1.75797,1.80123 0.60934,-0.37659 1.10789,-0.089 1.10789,0.63906 0,0.72807 -0.84375,1.32377 -1.875,1.32377 -1.03125,0 -1.875,-1.07813 -1.875,-2.39583 z m -27.40132,-4.375 c -0.0543,-1.31771 0.24116,-2.05599 0.65653,-1.64063 0.41536,0.41537 0.45977,1.49349 0.0987,2.39583 -0.39904,0.99717 -0.69523,0.70097 -0.75521,-0.7552 z m 23.65132,-1.97917 c 0,-0.6875 0.5625,-1.25 1.25,-1.25 0.6875,0 1.25,0.5625 1.25,1.25 0,0.6875 -0.5625,1.25 -1.25,1.25 -0.6875,0 -1.25,-0.5625 -1.25,-1.25 z m 2.5,-4.52806 c 0,-1.73599 0.31502,-1.78693 2.1875,-0.3537 1.20312,0.92089 2.42187,1.83351 2.70833,2.02805 0.28646,0.19454 -0.69791,0.35371 -2.1875,0.35371 -1.66491,0 -2.70833,-0.78133 -2.70833,-2.02806 z m -3.75,-1.72194 c 0,-0.6875 0.24805,-1.25 0.55123,-1.25 0.30317,0 0.89887,0.5625 1.32377,1.25 0.4249,0.6875 0.17685,1.25 -0.55123,1.25 -0.72807,0 -1.32377,-0.5625 -1.32377,-1.25 z m 5.70537,-2.13359 c -0.67836,-1.7815 -0.53478,-1.92508 0.69974,-0.69974 0.85427,0.84791 1.23834,1.85655 0.85348,2.24141 -0.38486,0.38486 -1.08381,-0.30889 -1.55322,-1.54167 z m -22.24704,-3.1303 c 2.16378,-2.16378 3.0926,-2.43518 4.27778,-1.25 1.18519,1.18519 1.17212,1.85315 -0.0602,3.07639 -1.26208,1.25281 -1.409,1.12893 -0.74127,-0.625 0.4911,-1.28998 0.24896,-2.1875 -0.59017,-2.1875 -0.78263,0 -1.74674,0.84375 -2.14247,1.875 -0.39573,1.03125 -1.34683,1.875 -2.11355,1.875 -0.76672,0 -0.15029,-1.24375 1.36985,-2.76389 z m 6.85417,-3.09777 c 1.20312,-0.31441 3.17187,-0.31441 4.375,0 1.20312,0.31441 0.21875,0.57166 -2.1875,0.57166 -2.40625,0 -3.39063,-0.25725 -2.1875,-0.57166 z m 7.1875,-1.63834 c -1.03125,-0.66644 -1.3125,-1.21172 -0.625,-1.21172 0.6875,0 2.09375,0.54528 3.125,1.21172 1.03125,0.66644 1.3125,1.21172 0.625,1.21172 -0.6875,0 -2.09375,-0.54528 -3.125,-1.21172 z m -8.4375,-2.11166 c 1.20312,-0.31441 3.17187,-0.31441 4.375,0 1.20312,0.31441 0.21875,0.57166 -2.1875,0.57166 -2.40625,0 -3.39063,-0.25725 -2.1875,-0.57166 z"
         id="path4384"
         inkscape:connector-curvature="0" />
      <path
         style="fill-opacity:1"
         d="m 357.88461,987.5209 c -4.24277,-2.2582 -5.62227,-3.91959 -5.50718,-6.63253 0.0697,-1.6426 0.16968,-1.64537 0.80676,-0.0223 1.65314,4.21164 9.48129,8.64944 10.97994,6.22456 0.40866,-0.66122 1.81504,-1.20223 3.12527,-1.20223 3.30171,0 5.90155,-4.9435 3.56598,-6.78057 -0.94643,-0.74441 -1.89313,-2.14978 -2.1038,-3.12304 -0.31661,-1.46271 -0.0457,-1.48958 1.5625,-0.15493 1.62475,1.34843 1.94553,1.28026 1.94553,-0.4134 0,-1.11543 -0.5625,-2.02806 -1.25,-2.02806 -0.6875,0 -1.25,-0.96891 -1.25,-2.15313 0,-1.80791 0.29963,-1.72535 1.86876,0.51489 1.58475,2.26255 1.78356,5.33685 0.77097,11.92192 -0.18478,1.20163 -5.11939,4.27676 -8.26473,5.15039 -1.375,0.38191 -4.1875,-0.20378 -6.25,-1.30154 z m 1.875,-2.88253 c -1.12662,-0.72807 -1.28079,-1.21936 -0.38627,-1.23086 0.8188,-0.0105 1.83637,0.54336 2.26127,1.23086 0.95913,1.55191 0.5264,1.55191 -1.875,0 z m 8.41503,-2.5 c 1.17732,-1.375 2.3166,-2.5 2.53175,-2.5 0.21515,0 -0.2109,1.125 -0.94678,2.5 -0.73588,1.375 -1.87516,2.5 -2.53175,2.5 -0.65658,0 -0.23053,-1.125 0.94678,-2.5 z m -6.22753,-0.82785 c 0.85937,-0.34677 2.26562,-0.34677 3.125,0 0.85937,0.34676 0.15625,0.63048 -1.5625,0.63048 -1.71875,0 -2.42188,-0.28372 -1.5625,-0.63048 z m -5.82026,-1.30083 c 0.47705,-0.27015 0.59683,-1.52573 0.26616,-2.79018 -0.33065,-1.26445 -0.11365,-2.60032 0.48226,-2.9686 0.59589,-0.36829 1.01899,0.80291 0.9402,2.60265 -0.0788,1.79975 -0.68611,3.35666 -1.34961,3.45979 -0.6635,0.10314 -0.81606,-0.0335 -0.33901,-0.30366 z m -2.64099,-7.21771 c 1.80016,-2.16905 2.52375,-2.39479 2.52375,-0.78735 0,0.61395 -0.92331,1.47058 -2.05181,1.90362 -1.71559,0.65833 -1.79292,0.47542 -0.47194,-1.11627 z m 10.59735,-4.48677 c -1.32492,-2.14377 -0.13843,-2.35412 2.47978,-0.43964 2.0276,1.48262 2.09051,1.7728 0.3843,1.7728 -1.12207,0 -2.41091,-0.59992 -2.86408,-1.33316 z m -4.22492,-4.18767 c -0.0543,-1.31771 0.24116,-2.05599 0.65653,-1.64063 0.41536,0.41537 0.45977,1.49349 0.0987,2.39583 -0.39904,0.99717 -0.69523,0.70097 -0.75521,-0.7552 z m 3.65132,-0.0304 c 0,-0.30318 0.5625,-0.89887 1.25,-1.32377 0.6875,-0.4249 1.25,-0.17684 1.25,0.55123 0,0.72807 -0.5625,1.32377 -1.25,1.32377 -0.6875,0 -1.25,-0.24805 -1.25,-0.55123 z m 1.00754,-18.72538 c 0.37799,-15.34624 0.34822,-15.53846 -2.5,-16.14453 -2.66444,-0.56696 -2.64609,-0.59788 0.24246,-0.40862 l 3.125,0.20476 0.34985,15.9375 c 0.19241,8.76562 -0.0888,15.93852 -0.625,15.93978 -0.53617,10e-4 -0.80271,-6.98675 -0.59231,-15.52889 z m -4.65886,-7.49422 c -0.0543,-1.31771 0.24116,-2.05599 0.65653,-1.64063 0.41536,0.41537 0.45977,1.49349 0.0987,2.39583 -0.39904,0.99717 -0.69523,0.70097 -0.75521,-0.7552 z"
         id="path4382"
         inkscape:connector-curvature="0" />
    </g>
    <g
       id="g4403"
       transform="matrix(1.3891564,0,0,1.3891564,-25.255619,-612.41931)">
      <path
         style="fill-opacity:1"
         d="m 601.74762,905.53876 c -1.10815,-1.10815 -1.5,-12.66043 -1.5,-44.22194 0,-46.03889 0.0271,-46.22822 6.4937,-45.31151 l 2.8813,0.40845 0.32874,44.29119 c 0.34171,46.03766 0.31837,46.26444 -4.76624,46.31467 -1.06562,0.0105 -2.6125,-0.65586 -3.4375,-1.48086 z m 15.30354,-42.61049 c -0.3399,-0.88576 -0.46287,-10.87014 -0.27327,-22.1875 l 0.34473,-20.57701 3.95573,-0.38373 c 3.39442,-0.32929 50.70721,5.89578 60.74463,7.99233 6.01943,1.2573 7.17464,3.53028 7.17464,14.11677 0,5.84006 -0.62823,10.53097 -1.58574,11.84044 -1.24422,1.70156 -7.90734,3.09646 -30.9375,6.47665 -32.1613,4.72038 -38.48874,5.15728 -39.42322,2.72205 z m 25.38396,-5.36417 c 2.72643,-0.55544 2.8125,-1.0268 2.8125,-15.40337 0,-16.50765 0.11487,-16.31372 -9.6875,-16.3549 l -4.0625,-0.0171 0,16.04167 c 0,8.82291 0.29447,16.33613 0.65438,16.69604 0.62262,0.62262 4.10078,0.29711 10.28312,-0.96237 z m 27.65625,-3.80659 3.90625,-0.78125 0,-10.39498 c 0,-5.71724 -0.51585,-10.71379 -1.14634,-11.10345 -0.63048,-0.38967 -3.72423,-1.06182 -6.875,-1.49368 l -5.72866,-0.7852 0,12.66991 c 0,14.11911 -0.18591,13.89458 9.84375,11.88865 z"
         id="path4413"
         inkscape:connector-curvature="0" />
      <path
         style="fill-opacity:1"
         d="m 600.87883,903.05226 c -0.38751,-1.58867 -0.54743,-21.451 -0.35538,-44.1385 l 0.34917,-41.25 4.375,0 4.375,0 0,43.75 0,43.75 -4.01961,0.3885 c -3.32331,0.3212 -4.14166,-0.11186 -4.72418,-2.5 z m 16.37753,-40.49073 c -0.41731,-1.08748 -0.75874,-10.58111 -0.75874,-21.09695 0,-15.91292 0.33176,-19.39504 1.97801,-20.76132 2.78613,-2.31228 64.64005,6.39988 68.17961,9.60314 3.14991,2.85063 3.43306,20.46311 0.37809,23.51807 -1.08035,1.08036 -2.06879,1.96429 -2.19652,1.96429 -0.12774,0 -13.68407,1.96875 -30.12518,4.375 -34.03822,4.98168 -36.40557,5.13324 -37.45527,2.39777 z m 23.92876,-4.2557 4.0625,-0.0171 0,-15.66423 c 0,-11.44122 -0.42124,-15.79406 -1.5625,-16.14579 -0.85938,-0.26485 -3.95313,-0.81634 -6.875,-1.22554 l -5.3125,-0.74398 0,17.66056 0,17.66056 2.8125,-0.75372 c 1.54687,-0.41455 4.64062,-0.7614 6.875,-0.77079 z m 30,-4.55493 c 2.64521,-0.70889 2.8125,-1.4049 2.8125,-11.70168 l 0,-10.94796 -3.90625,-0.78125 c -10.0155,-2.0031 -9.84375,-2.20756 -9.84375,11.71875 l 0,12.5 4.0625,-0.0171 c 2.23437,-0.009 5.32812,-0.35624 6.875,-0.77079 z"
         id="path4411"
         inkscape:connector-curvature="0" />
      <path
         style="fill-opacity:1"
         d="m 601.5416,903.37094 c -1.40139,-2.61852 -1.84507,-78.52217 -0.4886,-83.5867 0.62831,-2.34583 1.49392,-2.80918 4.67043,-2.5 l 3.89919,0.37952 0.34917,41.25 c 0.19205,22.6875 0.0407,42.51563 -0.33631,44.0625 -0.87545,3.59191 -6.24271,3.85363 -8.09388,0.39468 z m 16.45602,-40.33218 c -2.36957,-2.36957 -2.07805,-40.21415 0.32514,-42.20862 1.44598,-1.20006 8.52241,-0.56971 34.0625,3.03418 37.94803,5.35474 36.61236,4.67093 36.61236,18.74419 0,7.03304 -0.48617,9.47788 -2.1875,11.0005 -1.49031,1.33376 -11.96142,3.3875 -32.85385,6.44374 -34.71712,5.07857 -33.93134,5.01332 -35.95865,2.98601 z m 24.4375,-4.73624 c 2.77173,-0.0136 2.8125,-0.24932 2.8125,-16.26376 l 0,-16.25 -3.59375,0 c -1.97656,0 -5.29761,-0.34077 -7.3801,-0.75727 l -3.78635,-0.75727 -0.16829,17.80367 -0.16829,17.80368 4.73589,-0.78265 c 2.60474,-0.43045 6.00151,-0.78884 7.54839,-0.7964 z m 29.6875,-4.41512 c 2.27963,-0.44626 2.5,-1.48588 2.5,-11.79402 0,-6.65341 -0.51431,-11.33528 -1.25,-11.37913 -0.6875,-0.041 -3.92188,-0.51431 -7.1875,-1.05184 l -5.9375,-0.97731 0,13.47324 0,13.47324 4.6875,-0.62738 c 2.57812,-0.34507 5.8125,-0.84762 7.1875,-1.1168 z"
         id="path4409"
         inkscape:connector-curvature="0" />
      <path
         style="fill-opacity:1"
         d="m 602.28978,903.55924 c -0.33296,-0.53874 0.89947,-0.96062 2.73873,-0.9375 l 3.34411,0.042 0.67212,-20.625 0.67213,-20.625 0.26537,19.58527 c 0.14596,10.77189 -0.0761,20.47502 -0.49336,21.5625 -0.77643,2.02336 -6.10851,2.76232 -7.1991,0.99771 z m 4.30652,-30.79131 c -0.0543,-1.31771 0.24116,-2.05599 0.65653,-1.64063 0.41536,0.41537 0.45977,1.49349 0.0987,2.39584 -0.39904,0.99716 -0.69523,0.70096 -0.75521,-0.75521 z m -0.1019,-29.55077 c -0.60148,-21.23019 -0.54068,-21.95267 1.86246,-22.13217 1.57159,-0.11739 1.92754,0.1585 0.9689,0.75097 -1.06744,0.65971 -1.61795,7.2016 -1.86246,22.13217 l -0.34712,21.19563 -0.62178,-21.9466 z m 11.56572,19.89193 c -1.11752,-1.12312 -1.5625,-7.18238 -1.5625,-21.27635 0,-17.91507 0.21079,-19.81883 2.31935,-20.9473 3.25361,-1.74128 63.70041,6.98519 66.74315,9.63545 1.71514,1.49391 2.1875,3.90563 2.1875,11.16878 0,12.3929 -0.80173,13.61015 -9.65203,14.65444 -3.97263,0.46876 -15.94172,2.17204 -26.59797,3.78508 -30.51152,4.61853 -31.70152,4.72458 -33.4375,2.9799 z m 27.03117,-5.49733 c 0.88589,-0.88589 1.05643,-29.11661 0.18442,-30.52755 -0.41178,-0.66626 -3.96155,-1.589 -7.88838,-2.05052 l -7.13971,-0.83913 0,17.8442 0,17.8442 7.12345,-0.83722 c 3.9179,-0.46047 7.392,-1.10576 7.72022,-1.43398 z m 28.59383,-3.75208 c 1.09799,-0.34606 1.5625,-3.84152 1.5625,-11.75787 0,-12.59235 0.38695,-12.12415 -10.625,-12.85583 l -5,-0.33222 -0.12615,12.5 c -0.0694,6.875 0.12111,12.94886 0.42333,13.49747 0.49456,0.89775 9.84737,0.18328 13.76532,-1.05155 z m -71.99546,-33.76997 c 0.55128,-2.86253 4.49416,-3.91397 6.50324,-1.7342 1.10533,1.19925 0.94161,1.3797 -0.72161,0.79533 -1.2145,-0.4267 -3.04228,0.1351 -4.19731,1.29013 -1.89465,1.89465 -2.01184,1.86867 -1.58432,-0.35126 z"
         id="path4407"
         inkscape:connector-curvature="0" />
      <path
         style="fill-opacity:1"
         d="m 619.62262,863.28876 c -0.97773,-1.582 0.67704,-1.582 3.125,0 1.61586,1.04425 1.58286,1.21436 -0.23873,1.23086 -1.16255,0.0105 -2.46137,-0.54336 -2.88627,-1.23086 z m 6.3616,-1.06943 c -0.36352,-0.58818 0.72828,-0.80386 2.42623,-0.47928 1.69794,0.32459 3.08717,0.80583 3.08717,1.06943 0,0.96719 -4.8733,0.44556 -5.5134,-0.59015 z m 6.7634,-1.3568 c 0,-0.72807 0.5625,-1.32377 1.25,-1.32377 0.6875,0 1.25,0.24805 1.25,0.55123 0,0.30318 -0.5625,0.89887 -1.25,1.32377 -0.6875,0.4249 -1.25,0.17684 -1.25,-0.55123 z m 3.75,0.0617 c 0,-0.76203 0.98437,-1.46561 2.1875,-1.56352 1.20312,-0.0979 4.07253,-0.33245 6.37647,-0.52123 2.30392,-0.18877 5.50383,-0.67323 7.11089,-1.07658 1.60706,-0.40335 3.27085,-0.16879 3.6973,0.52123 0.45312,0.73316 -0.94372,1.32089 -3.36089,1.41412 -5.46587,0.21081 -8.42142,0.61177 -12.57377,1.7058 -2.22721,0.58681 -3.4375,0.41787 -3.4375,-0.47982 z M 624.46548,857.705 c -0.38703,-1.00858 -0.41378,-2.55545 -0.0594,-3.4375 0.40459,-1.00721 0.68093,-0.79007 0.74291,0.58376 0.0543,1.20313 0.94243,2.1875 1.97368,2.1875 1.03125,0 1.91941,-0.98437 1.97368,-2.1875 0.062,-1.37509 0.33805,-1.59159 0.74318,-0.58297 0.69533,1.73109 -1.67802,5.27047 -3.53415,5.27047 -0.62489,0 -1.45283,-0.82519 -1.83985,-1.83376 z m 32.9217,-0.2364 c -0.35917,-0.58016 1.40312,-0.98961 3.9162,-0.90989 2.51308,0.0797 4.89519,-0.36076 5.29356,-0.97884 0.39838,-0.61809 3.47175,-1.17895 6.82971,-1.24635 3.35797,-0.0674 7.6835,-0.57514 9.6123,-1.12831 1.9288,-0.55318 3.21186,-0.52837 2.85124,0.0551 -0.36062,0.58349 -2.7621,1.40834 -5.33662,1.833 -11.40007,1.88041 -13.69181,2.23966 -17.97216,2.81728 -2.49766,0.33706 -4.83507,0.13815 -5.19423,-0.44201 z m -9.63956,-1.67984 c 2.46982,-1.59612 6.61146,-1.59612 5.625,0 -0.4249,0.6875 -2.28622,1.24139 -4.13627,1.23086 -2.63096,-0.015 -2.95527,-0.28311 -1.48873,-1.23086 z m 10.34045,-7.5 c 0,-3.09375 0.24377,-4.35937 0.54172,-2.8125 0.29794,1.54688 0.29794,4.07813 0,5.625 -0.29795,1.54688 -0.54172,0.28125 -0.54172,-2.8125 z m 17.15955,-6.18789 c 0,-9.33505 -0.36055,-11.38966 -2.17709,-12.40624 -1.21749,-0.68135 -1.69302,-1.67291 -1.07887,-2.24962 0.60402,-0.56719 1.3388,-0.35973 1.63285,0.46103 0.29405,0.82075 1.48266,1.18956 2.64137,0.81958 1.8201,-0.58116 1.85163,-0.47625 0.23174,0.77107 -1.48728,1.14521 -0.97032,1.29949 2.5,0.74609 2.86175,-0.45635 3.5419,-0.34201 1.96639,0.33057 -2.2779,0.97245 -2.28626,1.07519 -0.15406,1.89339 1.24,0.47584 2.92757,0.30659 3.75017,-0.37611 1.12315,-0.93213 1.35186,-0.26174 0.91836,2.69188 -0.50627,3.44943 -0.76507,3.67629 -2.10436,1.84469 -0.83991,-1.14864 -2.16822,-2.08844 -2.9518,-2.08844 -0.78359,0 -1.4247,-0.5625 -1.4247,-1.25 0,-0.6875 -0.5625,-1.25 -1.25,-1.25 -1.81576,0 -1.58904,17.91096 0.25,19.75 1.16667,1.16667 1.02778,1.5 -0.625,1.5 -1.84172,0 -2.125,-1.49144 -2.125,-11.18789 z m -45.79938,-1.31211 c 0,-6.53125 0.21068,-9.20312 0.46818,-5.9375 0.2575,3.26563 0.2575,8.60938 0,11.875 -0.2575,3.26563 -0.46818,0.59375 -0.46818,-5.9375 z m 57.46964,1.25 c 0,-5.15625 0.22064,-7.26562 0.49032,-4.6875 0.26969,2.57813 0.26969,6.79688 0,9.375 -0.26968,2.57813 -0.49032,0.46875 -0.49032,-4.6875 z m -61.11257,6.14108 c -0.46192,-0.7474 -0.21387,-1.9849 0.55122,-2.75 1.02145,-1.02144 1.39109,-0.66035 1.39109,1.35892 0,3.01814 -0.64932,3.48318 -1.94231,1.39108 z m 20.88968,-1.14108 c 0,-1.71875 0.28371,-2.42187 0.63048,-1.5625 0.34677,0.85938 0.34677,2.26563 0,3.125 -0.34677,0.85938 -0.63048,0.15625 -0.63048,-1.5625 z m 6.09064,-0.5625 c -0.0277,-2.68916 0.33548,-3.31401 1.34152,-2.30797 0.98868,0.98868 0.99945,2.03343 0.038,3.6875 -1.17604,2.02328 -1.34621,1.85311 -1.37953,-1.37953 z m -2.43933,0.0417 c -0.0543,-1.3177 0.24116,-2.05599 0.65653,-1.64062 0.41536,0.41536 0.45977,1.49349 0.0987,2.39583 -0.39904,0.99717 -0.69523,0.70097 -0.75521,-0.75521 z m -3.60499,-8.85416 c -0.0255,-2.0625 0.23383,-3.05758 0.57623,-2.21129 0.3424,0.84629 0.36325,2.53379 0.0463,3.75 -0.31692,1.21621 -0.59707,0.52379 -0.62254,-1.53871 z m 6.04432,-0.0625 c 0.0333,-3.23264 0.20349,-3.40281 1.37953,-1.37953 0.96144,1.65408 0.95067,2.69882 -0.038,3.6875 -1.00604,1.00604 -1.36924,0.38119 -1.34152,-2.30797 z m 5.30244,-1.8125 c 0,-3.09375 0.24378,-4.35937 0.54172,-2.8125 0.29794,1.54688 0.29794,4.07813 0,5.625 -0.29794,1.54688 -0.54172,0.28125 -0.54172,-2.8125 z m -31.39308,1.25 c 0,-1.71875 0.28371,-2.42187 0.63048,-1.5625 0.34677,0.85938 0.34677,2.26563 0,3.125 -0.34677,0.85938 -0.63048,0.15625 -0.63048,-1.5625 z m 23.65131,0.72917 c -0.0543,-1.31771 0.24116,-2.05599 0.65653,-1.64063 0.41536,0.41537 0.45977,1.49349 0.0987,2.39584 -0.39904,0.99716 -0.69523,0.70096 -0.75521,-0.75521 z m -2.59563,-5.72917 c -1.17714,-3.78599 -0.77902,-5.01426 1.67005,-5.15243 1.48605,-0.0838 -0.61649,-0.6366 -4.6723,-1.22837 -7.36879,-1.07515 -9.24991,-1.78676 -8.00749,-3.02917 0.36298,-0.36299 2.18085,-0.0817 4.0397,0.625 1.85886,0.70673 6.01499,1.35152 9.23586,1.43286 3.22087,0.0813 7.54363,0.5248 9.60613,0.98547 l 3.75,0.83758 -3.125,0.85763 c -1.71875,0.4717 -3.30197,0.34109 -3.51826,-0.29025 -0.21629,-0.63133 -1.19744,-0.83929 -2.18032,-0.46212 -0.98288,0.37717 -1.47585,1.18932 -1.09547,1.80478 0.38038,0.61546 -0.41973,1.11902 -1.77801,1.11902 -1.35829,0 -2.75332,0.70313 -3.10009,1.5625 -0.34677,0.85938 -0.71793,1.28125 -0.8248,0.9375 z m -23.75305,-4.30123 c 0,-0.99068 0.52846,-2.12783 1.17435,-2.52702 0.64589,-0.39918 1.08869,0.41138 0.98399,1.80123 -0.21501,2.85443 -2.15834,3.50791 -2.15834,0.72579 z m 41.25,0.55123 c -1.45587,-0.94086 -1.09011,-1.216 1.63627,-1.23086 2.02636,-0.011 3.18456,0.50948 2.73873,1.23086 -0.95921,1.55204 -1.97339,1.55204 -4.375,0 z m -36.94231,-1.35892 c -0.46192,-0.7474 -0.33307,-1.8657 0.28634,-2.48511 0.66827,-0.66827 1.20232,-0.11571 1.3134,1.35891 0.20901,2.77471 -0.34142,3.16221 -1.59974,1.1262 z m 3.81731,-3.64108 c -0.4249,-0.6875 -0.21004,-1.25 0.47746,-1.25 0.6875,0 1.59764,0.5625 2.02254,1.25 0.4249,0.6875 0.21004,1.25 -0.47746,1.25 -0.6875,0 -1.59764,-0.5625 -2.02254,-1.25 z m -6.875,-1.36703 c 0,-0.62313 1.125,-1.13297 2.5,-1.13297 1.375,0 2.5,0.21565 2.5,0.47921 0,0.26357 -1.125,0.77341 -2.5,1.13298 -1.375,0.35957 -2.5,0.14392 -2.5,-0.47922 z"
         id="path4405"
         inkscape:connector-curvature="0" />
    </g>
    <path
       style="opacity:1;fill:#000000;fill-opacity:1;stroke:#000000;stroke-width:2;stroke-linejoin:round;stroke-miterlimit:4;stroke-dasharray:none;stroke-opacity:1"
       d="m 626.29783,322.88684 c -6.37089,-6.37089 -7.78371,-15.09929 -3.38012,-20.88235 2.66534,-3.50029 29.44843,-19.67916 32.57759,-19.67916 1.03983,0 1.35686,7.61702 0.73315,17.61448 -1.03194,16.54066 -1.48231,17.95702 -7.38772,23.23351 -8.12817,7.26252 -15.08228,7.17414 -22.5429,-0.28648 z"
       id="path866"
       inkscape:connector-curvature="0" />
    <path
       style="opacity:1;fill:#000000;fill-opacity:1;stroke:#000000;stroke-width:2;stroke-linejoin:round;stroke-miterlimit:4;stroke-dasharray:none;stroke-opacity:1"
       d="m 798.9235,253.29674 c -7.83704,-7.83704 -8.82554,-9.85624 -8.82554,-18.02774 0,-11.97399 6.3154,-19.62808 21.16961,-25.65696 9.73429,-3.95086 11.37245,-5.44323 13.12686,-11.95862 4.94108,-18.34976 30.40396,-29.58799 49.106,-21.6733 3.57561,1.51319 10.31181,6.96801 14.96935,12.12183 6.79026,7.51379 9.79268,9.37936 15.15229,9.41494 9.79083,0.065 22.54948,6.58911 28.09712,14.36742 3.74782,5.25481 4.85089,9.40035 4.85089,18.23064 0,9.7578 -0.9144,12.56459 -6.25266,19.1929 -3.43896,4.27002 -9.34836,8.84878 -13.13198,10.17502 -4.5962,1.61107 -23.89776,2.4492 -58.15786,2.52538 l -51.27854,0.11403 z"
       id="path868"
       inkscape:connector-curvature="0" />
    <path
       style="opacity:1;fill:#808080;fill-opacity:1;stroke:#808080;stroke-width:3;stroke-linejoin:round;stroke-miterlimit:4;stroke-dasharray:none;stroke-opacity:1"
       d="m 861.06258,315.41091 c -2.30632,-5.06181 -2.58781,-5.14378 -6.2579,-1.82239 -4.02193,3.63979 -8.13818,2.70882 -8.13818,-1.84062 0,-1.46512 1.36371,-3.79562 3.03046,-5.17891 4.24047,-3.51927 3.81008,-5.05711 -2.179,-7.78592 -6.64656,-3.02838 -5.29252,-7.32972 2.3573,-7.48835 5.10652,-0.1059 5.83243,-0.83888 5.50226,-5.55584 -0.2834,-4.04882 0.55771,-5.43385 3.29991,-5.43385 2.02414,0 4.15574,1.81827 4.73689,4.04061 1.10733,4.23443 6.3657,5.48337 8.50599,2.0203 1.85772,-3.00584 7.07107,-2.44346 7.07107,0.76278 0,1.5307 -1.3637,3.91486 -3.03046,5.29814 -4.46391,3.70472 -3.70371,7.12589 2.179,9.80623 6.66043,3.03469 5.27024,7.36636 -2.36412,7.36636 -4.90811,0 -5.98107,0.91499 -6.51506,5.55584 -0.80924,7.03301 -5.04993,7.16523 -8.19816,0.25562 z"
       id="path872"
       inkscape:connector-curvature="0" />
    <path
       style="opacity:1;fill:#808080;fill-opacity:1;stroke:#808080;stroke-width:5;stroke-linejoin:round;stroke-miterlimit:4;stroke-dasharray:none;stroke-opacity:1"
       d="m 146.8285,672.93328 c 4.08339,-13.56806 3.7672,-14.82679 -3.73326,-14.86213 -11.72755,-0.0553 -13.06067,-2.24556 -8.83209,-14.5111 7.09251,-20.57274 11.92353,-28.51173 18.42854,-30.28433 6.86257,-1.87003 17.1726,-0.28445 17.1726,2.64097 0,1.06714 -1.81828,5.50438 -4.04061,9.86051 -6.05419,11.86719 -5.42338,14.14214 3.92137,14.14214 4.3791,0 8.38991,0.69238 8.91292,1.53863 1.09748,1.77576 -30.45132,40.88778 -32.98118,40.88778 -0.92456,0 -0.40629,-4.23561 1.15171,-9.41247 z"
       id="path876"
       inkscape:connector-curvature="0" />
    <path
       style="opacity:1;fill:#808080;fill-opacity:1;stroke:#808080;stroke-width:5;stroke-linejoin:round;stroke-miterlimit:4;stroke-dasharray:none;stroke-opacity:1"
       d="m 386.45167,622.68455 c -2.77349,-2.38565 -4.49972,-5.81768 -5.05705,-10.05424 -0.70811,-5.38277 -0.0483,-7.52797 4.04394,-13.14853 2.68956,-3.69398 5.5138,-9.12327 6.2761,-12.06508 1.08622,-4.19187 2.22259,-5.34875 5.2539,-5.34875 3.03176,0 4.22678,1.21713 5.52811,5.63038 0.91312,3.0967 3.65095,8.51305 6.08408,12.03634 4.74577,6.8721 5.49229,11.8248 2.6269,17.42778 -4.82083,9.42665 -17.04631,12.15368 -24.75598,5.5221 z"
       id="path878"
       inkscape:connector-curvature="0" />
    <path
       style="opacity:1;fill:#808080;fill-opacity:1;stroke:#808080;stroke-width:5;stroke-linejoin:round;stroke-miterlimit:4;stroke-dasharray:none;stroke-opacity:1"
       d="m 617.18292,621.6043 c -6.87133,-6.87133 -5.72713,-19.00417 2.43069,-25.77456 2.03264,-1.68694 2.55584,-6.16859 2.70942,-23.20866 0.23482,-26.05464 1.0778,-30.60384 5.79569,-31.27667 4.63046,-0.66036 5.06159,1.54648 5.62621,28.79918 0.42708,20.61419 0.6954,22.21598 4.71578,28.15186 5.52529,8.1578 6.62976,12.17605 4.72431,17.18778 -4.37732,11.51322 -17.51682,14.60635 -26.0021,6.12107 z"
       id="path880"
       inkscape:connector-curvature="0" />
    <path
       style="opacity:1;fill:#808080;fill-opacity:1;stroke:#808080;stroke-width:3;stroke-linejoin:round;stroke-miterlimit:4;stroke-dasharray:none;stroke-opacity:1"
       d="m 832.27471,584.0788 c -1.6192,-6.04203 -1.12691,-48.96024 0.61413,-53.53951 1.87379,-4.92844 0.79141,-4.95361 45.82793,1.06554 35.07049,4.68718 47.9442,7.3877 50.27117,10.54541 1.22117,1.65712 2.01085,7.87989 2.01085,15.84569 0,10.45265 -0.57182,13.63269 -2.81519,15.65599 -2.96528,2.6744 -74.1035,14.04641 -87.86806,14.04641 -5.97286,0 -7.22146,-0.56205 -8.04083,-3.61953 z m 37.97187,-6.62941 c 1.81514,-2.78927 1.44996,-36.20536 -0.43414,-39.72583 -1.30312,-2.43491 -3.40217,-3.11159 -9.65206,-3.11159 h -7.98679 v 23.47678 23.47678 l 8.44556,-1.15 c 4.64505,-0.63249 8.9774,-1.96726 9.62743,-2.96614 z m 37.32166,-4.18935 c 3.94475,-1.49979 4.12642,-2.12365 4.12642,-14.17063 0,-7.61638 -0.79551,-13.63474 -2.01085,-15.21286 -1.10596,-1.4361 -5.44939,-3.10446 -9.65206,-3.70747 l -7.64122,-1.09639 v 17.87811 17.8781 h 5.52564 c 3.03911,0 7.38254,-0.70598 9.65207,-1.56886 z"
       id="path882"
       inkscape:connector-curvature="0" />
    <path
       style="opacity:1;fill:#000000;fill-opacity:1;stroke:#000000;stroke-width:5;stroke-linejoin:round;stroke-miterlimit:4;stroke-dasharray:none;stroke-opacity:1"
       d="m 152.01123,173.2748 c -0.47162,-1.24053 -0.85748,-4.81441 -0.85748,-7.94196 0,-8.95301 3.01272,-14.30229 7.43052,-13.19339 2.92274,0.73362 4.32021,6.0215 3.79137,14.34614 -0.48038,7.56184 -1.47652,9.04471 -6.07593,9.04471 -2.87396,0 -3.57023,-0.3662 -4.28848,-2.2555 z"
       id="path859"
       inkscape:connector-curvature="0" />
    <path
       style="opacity:1;fill:#000000;fill-opacity:1;stroke:#000000;stroke-width:5;stroke-linejoin:round;stroke-miterlimit:4;stroke-dasharray:none;stroke-opacity:1"
       d="m 179.26591,181.21786 c -0.86494,-1.04228 -0.89546,-2.08621 -0.13496,-4.61633 1.37625,-4.57866 6.30973,-12.47246 9.06221,-14.49997 2.20533,-1.62448 2.41471,-1.63278 4.62627,-0.1836 1.27402,0.83484 2.54617,2.43344 2.82699,3.55243 0.65029,2.59117 -4.22067,11.94677 -7.77911,14.94125 -2.89421,2.43552 -6.935,2.81427 -8.6014,0.80622 z"
       id="path861"
       inkscape:connector-curvature="0" />
    <path
       style="opacity:1;fill:#000000;fill-opacity:1;stroke:#000000;stroke-width:5;stroke-linejoin:round;stroke-miterlimit:4;stroke-dasharray:none;stroke-opacity:1"
       d="m 199.12156,200.8344 c -3.04507,-4.3478 -1.3684,-6.83585 8.38007,-12.43544 6.44023,-3.69933 12.23194,-2.58248 12.23194,2.35875 0,2.6403 -3.43307,5.70704 -10.68099,9.54129 -5.66921,2.99908 -8.11326,3.13083 -9.93102,0.5354 z"
       id="path863"
       inkscape:connector-curvature="0" />
    <path
       style="opacity:1;fill:#000000;fill-opacity:1;stroke:#000000;stroke-width:5;stroke-linejoin:round;stroke-miterlimit:4;stroke-dasharray:none;stroke-opacity:1"
       d="m 214.01859,230.23131 c -6.45818,-0.62524 -8.9309,-3.1048 -8.20574,-8.22839 0.28061,-1.98251 0.63748,-2.07916 8.64535,-2.34151 10.35691,-0.33929 14.94689,0.80575 14.94689,3.72874 0,3.66036 -2.62734,5.81255 -7.91463,6.48327 -2.6588,0.33729 -6.02115,0.49834 -7.47187,0.35789 z"
       id="path865"
       inkscape:connector-curvature="0" />
    <path
       style="opacity:1;fill:#000000;fill-opacity:1;stroke:#000000;stroke-width:5;stroke-linejoin:round;stroke-miterlimit:4;stroke-dasharray:none;stroke-opacity:1"
       d="m 210.94129,261.21854 c -4.63459,-1.45273 -12.60581,-7.25248 -13.03563,-9.48454 -0.54257,-2.81753 2.24615,-5.86035 5.36265,-5.85128 3.2083,0.009 10.28996,3.77917 14.51653,7.7277 3.258,3.04368 3.76238,6.65018 1.1273,8.06055 -2.13017,1.14014 -3.05817,1.08746 -7.97085,-0.45243 z"
       id="path867"
       inkscape:connector-curvature="0" />
    <path
       style="opacity:1;fill:#000000;fill-opacity:1;stroke:#000000;stroke-width:5;stroke-linejoin:round;stroke-miterlimit:4;stroke-dasharray:none;stroke-opacity:1"
       d="m 186.90806,285.40046 c -1.25932,-0.99066 -3.7485,-4.75319 -5.53151,-8.36118 -2.77638,-5.61806 -3.10015,-6.87101 -2.25496,-8.72617 1.38541,-3.04087 4.99303,-3.76724 7.93726,-1.59809 3.39914,2.5043 8.05633,10.63951 8.05633,14.07281 0,2.99621 -2.51357,6.41384 -4.71718,6.41384 -0.66016,0 -2.23063,-0.81055 -3.48994,-1.80121 z"
       id="path869"
       inkscape:connector-curvature="0" />
    <path
       style="opacity:1;fill:#000000;fill-opacity:1;stroke:#000000;stroke-width:5;stroke-linejoin:round;stroke-miterlimit:4;stroke-dasharray:none;stroke-opacity:1"
       d="m 153.44905,294.85557 c -2.27178,-1.66131 -3.03057,-13.88547 -1.14176,-18.39406 1.38095,-3.29634 4.41546,-4.95828 7.14242,-3.91176 3.98739,1.53023 4.16956,20.24351 0.22152,22.75411 -1.60674,1.02173 -4.49669,0.81352 -6.22218,-0.44829 z"
       id="path871"
       inkscape:connector-curvature="0" />
    <path
       style="opacity:1;fill:#000000;fill-opacity:1;stroke:#000000;stroke-width:5;stroke-linejoin:round;stroke-miterlimit:4;stroke-dasharray:none;stroke-opacity:1"
       d="m 120.5764,285.83285 c -2.5276,-1.77056 -2.45518,-4.11242 0.311,-10.05572 3.29261,-7.07438 6.20536,-10.55802 8.82781,-10.55802 6.10381,0 7.19952,4.14898 3.19456,12.09637 -2.40747,4.77736 -7.20649,9.88619 -9.28666,9.88619 -0.60094,0 -1.97196,-0.61597 -3.04671,-1.36882 z"
       id="path873"
       inkscape:connector-curvature="0" />
    <path
       style="opacity:1;fill:#000000;fill-opacity:1;stroke:#000000;stroke-width:5;stroke-linejoin:round;stroke-miterlimit:4;stroke-dasharray:none;stroke-opacity:1"
       d="m 95.958001,261.21239 c -1.07475,-0.75284 -1.95409,-1.93876 -1.95409,-2.63537 0,-2.20691 6.098359,-8.12071 10.780229,-10.45398 5.77257,-2.87683 8.96712,-2.91154 10.79783,-0.11732 1.24911,1.90656 1.2577,2.39936 0.0815,4.67418 -1.52417,2.94763 -6.91403,6.91638 -11.72247,8.63165 -4.377749,1.56165 -5.634299,1.54605 -7.982949,-0.0992 z"
       id="path875"
       inkscape:connector-curvature="0" />
    <path
       style="opacity:1;fill:#000000;fill-opacity:1;stroke:#000000;stroke-width:5;stroke-linejoin:round;stroke-miterlimit:4;stroke-dasharray:none;stroke-opacity:1"
       d="m 92.245461,229.93919 c -4.41417,-0.83753 -6.1546,-2.57585 -6.1546,-6.14714 0,-1.99404 0.5596,-2.58785 3.2971,-3.49864 4.60682,-1.53273 16.280519,-1.54838 18.116779,-0.0242 1.92132,1.59467 1.83969,5.63187 -0.15028,7.43292 -1.42148,1.28653 -3.15618,1.7896 -9.394019,2.72433 -0.96714,0.14492 -3.53889,-0.0743 -5.71498,-0.48719 z"
       id="path877"
       inkscape:connector-curvature="0" />
    <path
       style="opacity:1;fill:#000000;fill-opacity:1;stroke:#000000;stroke-width:5;stroke-linejoin:round;stroke-miterlimit:4;stroke-dasharray:none;stroke-opacity:1"
       d="m 105.44027,200.52338 c -7.719659,-3.59355 -10.557129,-6.13995 -10.557129,-9.47419 0,-5.71221 3.8251,-6.43046 12.133539,-2.27833 5.37544,2.68636 9.84717,6.8865 9.84717,9.2491 0,1.75047 -3.20741,4.77043 -5.05556,4.76011 -0.84625,-0.005 -3.71186,-1.02023 -6.36802,-2.25669 z"
       id="path879"
       inkscape:connector-curvature="0" />
    <path
       style="opacity:1;fill:#000000;fill-opacity:1;stroke:#000000;stroke-width:5;stroke-linejoin:round;stroke-miterlimit:4;stroke-dasharray:none;stroke-opacity:1"
       d="m 127.51956,182.07846 c -2.78479,-2.34344 -8.89725,-13.53392 -8.89725,-16.28877 0,-1.96488 3.22436,-4.32822 5.90511,-4.32822 3.38657,0 10.73792,11.54196 10.78092,16.92656 0.0185,2.31645 -2.60899,5.93529 -4.30937,5.93529 -0.44648,0 -2.01221,-1.01019 -3.47941,-2.24486 z"
       id="path881"
       inkscape:connector-curvature="0" />
    <ellipse
       style="opacity:1;fill:#808080;fill-opacity:1;stroke:none;stroke-width:5;stroke-linejoin:round;stroke-miterlimit:4;stroke-dasharray:none;stroke-opacity:1"
       id="path883"
       cx="157.08855"
       cy="224.18988"
       rx="38.466244"
       ry="38.469471" />
  </g>
  <g
     inkscape:groupmode="layer"
     id="layer5"
     inkscape:label="Livello 5" />
  <g
     inkscape:groupmode="layer"
     id="layer4"
     inkscape:label="Livello 4" />
  <g
     inkscape:groupmode="layer"
     id="layer3"
     inkscape:label="Livello 3" />
  <g
     inkscape:groupmode="layer"
     id="layer2"
     inkscape:label="Livello 2">
    <path
       style="fill:#000000;stroke:none;stroke-width:7;stroke-linecap:butt;stroke-linejoin:round;stroke-miterlimit:4;stroke-dasharray:none;stroke-opacity:1"
       d=""
       id="path4571"
       inkscape:connector-curvature="0" />
    <path
       style="fill:#000000;stroke:none;stroke-width:7;stroke-linecap:butt;stroke-linejoin:round;stroke-miterlimit:4;stroke-dasharray:none;stroke-opacity:1"
       d=""
       id="path4573"
       inkscape:connector-curvature="0" />
    <path
       style="fill:#000000;stroke:none;stroke-width:7;stroke-linecap:butt;stroke-linejoin:round;stroke-miterlimit:4;stroke-dasharray:none;stroke-opacity:1"
       d=""
       id="path4575"
       inkscape:connector-curvature="0" />
    <path
       style="fill:#000000;stroke:none;stroke-width:7;stroke-linecap:butt;stroke-linejoin:round;stroke-miterlimit:4;stroke-dasharray:none;stroke-opacity:1"
       d=""
       id="path4577"
       inkscape:connector-curvature="0" />
    <path
       style="fill:#000000;stroke:none;stroke-width:7;stroke-linecap:butt;stroke-linejoin:round;stroke-miterlimit:4;stroke-dasharray:none;stroke-opacity:1"
       d=""
       id="path4579"
       inkscape:connector-curvature="0" />
  </g>
  <g
     inkscape:label="Livello 1"
     inkscape:groupmode="layer"
     id="layer1"
     transform="translate(0,-284.36216)"
     style="display:inline" />
</svg>
