<svg xmlns="http://www.w3.org/2000/svg" viewBox="0 0 512 384">
<rect width="512" height="384" id="P010WIImgRct4" fill="#fff" />
<path style="opacity:1;fill:#000000;fill-opacity:1;stroke:#000000;stroke-width:2;stroke-linejoin:round;stroke-miterlimit:4;stroke-dasharray:none;stroke-opacity:1" d="M 121.73086,206.42826 C 105.57036,190.26775 103.532,186.10402 103.532,169.25383 c 0,-24.69118 13.02279,-40.47443 43.65317,-52.90639 20.07277,-8.14694 23.45077,-11.22431 27.06848,-24.659484 10.18884,-37.838449 62.69503,-61.012441 101.2599,-44.691814 7.37315,3.120301 21.26365,14.368509 30.86781,24.996035 14.00198,15.493945 20.19317,19.340877 31.24505,19.414245 20.18936,0.134035 46.49856,13.587188 57.93817,29.626598 7.72826,10.83577 10.00286,19.38415 10.00286,37.59281 0,20.12125 -1.88555,25.90904 -12.8934,39.57707 -7.09137,8.80507 -19.27696,18.24678 -27.07904,20.98158 -9.47767,3.32213 -49.2788,5.05041 -119.92545,5.2075 l -105.73982,0.23514 z" />
<path style="opacity:1;fill:#000000;fill-opacity:1;stroke:#808080;stroke-width:9;stroke-linejoin:round;stroke-miterlimit:4;stroke-dasharray:none;stroke-opacity:1" d="m 251.86586,334.51191 c -4.75579,-10.4378 -5.33624,-10.60682 -12.90421,-3.75789 -8.2935,7.50549 -16.78148,5.58577 -16.78148,-3.79549 0,-3.02117 2.81206,-7.82682 6.24901,-10.67926 8.74414,-7.25697 7.85664,-10.4281 -4.49324,-16.0551 -13.70566,-6.24472 -10.91354,-15.11437 4.86091,-15.44148 10.52999,-0.21837 12.02686,-1.72983 11.34603,-11.45652 -0.58439,-8.34894 1.15004,-11.20497 6.80464,-11.20497 4.17391,0 8.56942,3.7494 9.76779,8.33202 2.28339,8.73168 13.1265,11.30708 17.53993,4.16599 3.83074,-6.19824 14.58102,-5.03858 14.58102,1.5729 0,3.15641 -2.81204,8.07271 -6.24901,10.92513 -9.20489,7.63938 -7.6373,14.69407 4.49324,20.22111 13.73426,6.25774 10.8676,15.18993 -4.87497,15.18993 -10.12086,0 -12.33337,1.88678 -13.4345,11.45652 -1.66871,14.50255 -10.4133,14.77519 -16.90516,0.52711 z" />
<path style="fill:#808080;fill-opacity:1;stroke-width:0.99999994" d="m 127.69928,232.18712 c -31.29515,-9.83187 -49.53776,-57.42176 -33.7296,-87.9913 9.22526,-17.83978 34.87866,-34.80027 53.39662,-34.32824 12.32106,0.31407 23.62741,-0.51312 19.31879,-20.543593 -5.30438,-24.65966 24.40756,-51.82576 50.2778,-57.5265 34.82082,-11.1743 97.29883,7.95295 107.4372,37.72349 7.52869,24.87627 11.88164,12.97806 27.27747,12.66702 33.64299,-2.42906 73.36447,31.335283 76.54902,57.618493 5.64868,62.47401 -19.6238,93.04396 -54.25552,97.68837 l -116.04549,-0.42631 c -63.82504,-0.23437 -108.62028,3.60925 -130.22629,-4.88143 z" />
<path d="m 251.86586,334.51191 c -4.75579,-10.4378 -5.33624,-10.60682 -12.90421,-3.75789 -8.2935,7.50549 -16.78148,5.58577 -16.78148,-3.79549 0,-3.02117 2.81206,-7.82682 6.24901,-10.67926 8.74414,-7.25697 7.85664,-10.4281 -4.49324,-16.0551 -13.70566,-6.24472 -10.91354,-15.11437 4.86091,-15.44148 10.52999,-0.21837 12.02686,-1.72983 11.34603,-11.45652 -0.58439,-8.34894 1.15004,-11.20497 6.80464,-11.20497 4.17391,0 8.56942,3.7494 9.76779,8.33202 2.28339,8.73168 13.1265,11.30708 17.53993,4.16599 3.83074,-6.19824 14.58102,-5.03858 14.58102,1.5729 0,3.15641 -2.81204,8.07271 -6.24901,10.92513 -9.20489,7.63938 -7.6373,14.69407 4.49324,20.22111 13.73426,6.25774 10.8676,15.18993 -4.87497,15.18993 -10.12086,0 -12.33337,1.88678 -13.4345,11.45652 -1.66871,14.50255 -10.4133,14.77519 -16.90516,0.52711 z" style="opacity:1;fill:#000000;fill-opacity:1;stroke:#000000;stroke-width:9;stroke-linejoin:round;stroke-miterlimit:4;stroke-dasharray:none;stroke-opacity:1" />
</svg>
