<?xml version="1.0" encoding="UTF-8" standalone="no"?>
<svg
   xmlns:dc="http://purl.org/dc/elements/1.1/"
   xmlns:cc="http://creativecommons.org/ns#"
   xmlns:rdf="http://www.w3.org/1999/02/22-rdf-syntax-ns#"
   xmlns:svg="http://www.w3.org/2000/svg"
   xmlns="http://www.w3.org/2000/svg"
   xmlns:sodipodi="http://sodipodi.sourceforge.net/DTD/sodipodi-0.dtd"
   xmlns:inkscape="http://www.inkscape.org/namespaces/inkscape"
   viewBox="0 0 512 384"
   version="1.1"
   id="svg30"
   sodipodi:docname="monop014-wi3.svg"
   inkscape:version="0.92.3 (2405546, 2018-03-11)">
  <metadata
     id="metadata36">
    <rdf:RDF>
      <cc:Work
         rdf:about="">
        <dc:format>image/svg+xml</dc:format>
        <dc:type
           rdf:resource="http://purl.org/dc/dcmitype/StillImage" />
        <dc:title></dc:title>
      </cc:Work>
    </rdf:RDF>
  </metadata>
  <defs
     id="defs34" />
  <sodipodi:namedview
     pagecolor="#ffffff"
     bordercolor="#666666"
     borderopacity="1"
     objecttolerance="10"
     gridtolerance="10"
     guidetolerance="10"
     inkscape:pageopacity="0"
     inkscape:pageshadow="2"
     inkscape:window-width="1366"
     inkscape:window-height="705"
     id="namedview32"
     showgrid="true"
     inkscape:zoom="0.5"
     inkscape:cx="256"
     inkscape:cy="177.37777"
     inkscape:window-x="-8"
     inkscape:window-y="-8"
     inkscape:window-maximized="1"
     inkscape:current-layer="svg30">
    <inkscape:grid
       type="xygrid"
       id="grid857"
       spacingx="256"
       spacingy="192" />
  </sodipodi:namedview>
  <rect
     y="0"
     x="0"
     height="384"
     width="512"
     style="fill:none;)"
     id="rect2" />
  <text
     xml:space="preserve"
     style="font-style:normal;font-weight:normal;font-size:27.54262733px;line-height:0%;font-family:sans-serif;letter-spacing:0px;word-spacing:0px;display:inline;fill:#ff0000;fill-opacity:1;stroke:none;stroke-width:0.99999994px;stroke-linecap:butt;stroke-linejoin:miter;stroke-opacity:1"
     x="81.554535"
     y="383.31696"
     id="text4876-67-7"><tspan
       sodipodi:role="line"
       id="tspan4878-43-8"
       x="81.554535"
       y="383.31696"
       style="font-size:91.8087616px;line-height:1.25;stroke-width:0.99999994px"> </tspan></text>
  <g
     id="g4298"
     transform="matrix(3.1700778,0,0,3.1700778,-1483.0054,-2741.188)"
     style="fill:#808080;stroke-width:0.51972753">
    <path
       style="fill:#808080;fill-opacity:1;stroke-width:0.51972753"
       d="m 535.90525,969.72497 c -4.11551,-4.11552 -4.24151,-11.6688 -0.25568,-15.3282 2.8508,-2.61733 17.42006,-10.35362 19.49831,-10.35362 1.07737,0 0.89904,5.26045 -0.588,17.34444 -1.30694,10.62045 -11.71835,15.27366 -18.65463,8.33738 z m -23.79247,-37.03252 c -14.97741,-7.27264 -10.62452,-29.26197 6.33741,-32.01451 2.41278,-0.39155 4.38688,-1.39563 4.38688,-2.2313 0,-5.23262 8.51501,-15.92553 14.49124,-18.19769 3.50356,-1.33205 12.1181,-1.40769 16.3651,-0.1437 4.16804,1.24049 12.89366,9.83653 12.89366,12.70219 0,0.67964 2.58687,1.23571 5.74859,1.23571 11.39832,0 20.21902,7.87068 21.33777,19.03962 0.42612,4.25414 -0.20825,6.60464 -3.13031,11.59857 -5.73596,9.80301 -9.2701,10.6398 -44.58105,10.55569 -26.02448,-0.062 -29.23342,-0.30323 -33.84929,-2.54458 z"
       id="path4306"
       inkscape:connector-curvature="0" />
    <path
       style="fill:#808080;fill-opacity:1;stroke-width:0.51972753"
       d="m 535.90525,969.72497 c -3.28662,-3.28662 -4.04989,-9.01183 -1.76949,-13.2728 1.01622,-1.89882 12.58411,-8.82957 20.45038,-12.25259 1.26583,-0.55083 0.26316,19.17906 -1.15372,22.7023 -1.13513,2.82264 -6.97682,5.89127 -11.21509,5.89127 -1.78415,0 -4.62458,-1.38068 -6.31208,-3.06818 z"
       id="path4304"
       inkscape:connector-curvature="0" />
    <path
       style="fill:#808080;fill-opacity:1;stroke-width:0.51972753"
       d="m 536.49092,969.1393 c -7.06342,-7.06341 -4.32385,-13.16835 9.02595,-20.11368 l 9.8202,-5.10903 -0.0745,5.37578 c -0.14991,10.81468 -1.9441,17.59077 -5.45808,20.61337 -4.54642,3.91066 -8.8863,3.66083 -13.31356,-0.76644 z"
       id="path4302"
       inkscape:connector-curvature="0" />
    <path
       style="fill:#808080;fill-opacity:1;stroke-width:0.51972753"
       d="m 539.49799,970.97095 c -4.97333,-2.16337 -7.07267,-5.9575 -5.99961,-10.8431 0.60828,-2.76952 2.60283,-4.90418 7.52317,-8.05168 3.68248,-2.35566 6.96806,-4.28302 7.30128,-4.28302 0.33321,0 0.83271,1.82812 1.10999,4.0625 l 0.50416,4.0625 0.20004,-4.55376 c 0.18164,-4.13461 3.06769,-7.37027 4.92093,-5.51703 1.21354,1.21354 -1.97668,20.63016 -3.66741,22.32089 -1.62321,1.62321 -6.66242,4.68399 -7.53379,4.57597 -0.21708,-0.0269 -2.17852,-0.82488 -4.35876,-1.77327 z m 11.1782,-5.83405 c 0.7045,-0.46731 0.62185,-1.12484 -0.20567,-1.63627 -0.7609,-0.47026 -1.42298,-2.08745 -1.47131,-3.59375 -0.0847,-2.64046 -0.1264,-2.64903 -1.16214,-0.23873 -1.53196,3.56505 -1.46785,4.65718 0.21242,3.61871 1.02729,-0.6349 1.17758,-0.19194 0.50509,1.48873 -1.90343,4.75698 -2.12586,6.09351 -0.60622,3.64256 0.85253,-1.375 2.08005,-2.85156 2.72783,-3.28125 z m -13.25579,-6.66376 c 0,-1.00101 -0.47792,-1.52464 -1.06205,-1.16363 -0.58413,0.36101 -0.73844,1.18002 -0.3429,1.82001 1.01078,1.63548 1.40495,1.45132 1.40495,-0.65638 z m 13.67188,-1.59145 c -0.41537,-0.41536 -0.7108,0.32292 -0.65653,1.64063 0.06,1.45617 0.35618,1.75237 0.75521,0.7552 0.36109,-0.90234 0.31668,-1.98046 -0.0987,-2.39583 z"
       id="path4300"
       inkscape:connector-curvature="0" />
  </g>
  <path
     style="opacity:1;fill:#000000;fill-opacity:1;stroke:#000000;stroke-width:2;stroke-linejoin:round;stroke-miterlimit:4;stroke-dasharray:none;stroke-opacity:1"
     d="m 217.7706,330.74556 c -12.25814,-12.25813 -14.97653,-29.05232 -6.50364,-40.17942 5.12834,-6.73486 56.66128,-37.86437 62.68206,-37.86437 2.00071,0 2.61071,14.65579 1.41064,33.89176 -1.98555,31.82563 -2.85209,34.55083 -14.21461,44.70324 -15.63929,13.97371 -29.01958,13.80366 -43.37445,-0.55121 z"
     id="path866"
     inkscape:connector-curvature="0" />
</svg>
