<?xml version="1.0" encoding="UTF-8" standalone="no"?>
<svg
   xmlns:dc="http://purl.org/dc/elements/1.1/"
   xmlns:cc="http://creativecommons.org/ns#"
   xmlns:rdf="http://www.w3.org/1999/02/22-rdf-syntax-ns#"
   xmlns:svg="http://www.w3.org/2000/svg"
   xmlns="http://www.w3.org/2000/svg"
   xmlns:sodipodi="http://sodipodi.sourceforge.net/DTD/sodipodi-0.dtd"
   xmlns:inkscape="http://www.inkscape.org/namespaces/inkscape"
   viewBox="0 0 512 384"
   version="1.1"
   id="svg30"
   sodipodi:docname="monop014-wi6.svg"
   inkscape:version="0.92.3 (2405546, 2018-03-11)">
  <metadata
     id="metadata36">
    <rdf:RDF>
      <cc:Work
         rdf:about="">
        <dc:format>image/svg+xml</dc:format>
        <dc:type
           rdf:resource="http://purl.org/dc/dcmitype/StillImage" />
        <dc:title></dc:title>
      </cc:Work>
    </rdf:RDF>
  </metadata>
  <defs
     id="defs34" />
  <sodipodi:namedview
     pagecolor="#ffffff"
     bordercolor="#666666"
     borderopacity="1"
     objecttolerance="10"
     gridtolerance="10"
     guidetolerance="10"
     inkscape:pageopacity="0"
     inkscape:pageshadow="2"
     inkscape:window-width="1366"
     inkscape:window-height="705"
     id="namedview32"
     showgrid="true"
     inkscape:zoom="0.5"
     inkscape:cx="-85"
     inkscape:cy="177.37777"
     inkscape:window-x="-8"
     inkscape:window-y="-8"
     inkscape:window-maximized="1"
     inkscape:current-layer="svg30">
    <inkscape:grid
       type="xygrid"
       id="grid857"
       spacingx="256"
       spacingy="192" />
  </sodipodi:namedview>
  <rect
     y="0"
     x="0"
     height="384"
     width="512"
     style="fill:none;)"
     id="rect2" />
  <g
     id="g4357"
     transform="matrix(3.2873339,0,0,3.2873339,-2872.4079,-3083.71)"
     style="stroke-width:0.42257842">
    <path
       style="fill-opacity:1;stroke-width:0.42257842"
       d="m 940.60431,1042.8584 c -3.09375,-1.6532 -7.3125,-5.4017 -9.375,-8.3301 -3.33074,-4.7289 -3.75,-6.3355 -3.75,-14.3703 0,-7.8876 0.46386,-9.747 3.62199,-14.5193 3.57979,-5.4094 3.61971,-5.67046 3.42691,-22.40869 -0.22827,-19.81688 0.83717,-25.39851 5.79436,-30.3557 3.84651,-3.84652 11.21337,-5.68321 16.9849,-4.23464 5.11467,1.28369 10.6498,6.8416 12.07141,12.12107 0.77268,2.86951 2.08071,4.90875 3.14861,4.90875 1.00475,0 1.82682,1.125 1.82682,2.5 0,1.375 -0.77814,2.5 -1.72921,2.5 -2.87535,0 -3.37238,4.91537 -0.66781,6.6044 2.77856,1.73525 3.19689,4.6456 0.66774,4.6456 -0.9511,0 -2.0114,1.47583 -2.35622,3.27962 -0.47372,2.47811 -0.0511,3.43021 1.72928,3.89579 3.12443,0.81706 3.02224,4.85884 -0.14378,5.68678 -3.50142,0.91564 -3.12189,3.68243 1.38152,10.07142 5.44471,7.7245 6.27591,18.9344 2.00694,27.0664 -4.3636,8.3123 -11.58692,12.8985 -21.22668,13.4773 -6.40704,0.3846 -8.78347,-0.065 -13.41178,-2.5384 z m 20.54072,-9.6218 c 7.96062,-5.2477 9.48515,-15.8533 3.29269,-22.9061 l -3.66658,-4.176 -0.39592,-22.06619 c -0.3651,-20.34914 -0.59044,-22.21294 -2.89591,-23.95273 -3.47732,-2.6241 -7.16955,-2.41705 -10.3893,0.5826 -2.60799,2.42972 -2.7357,3.54528 -2.7357,23.89749 v 21.34883 l -3.75,4.271 c -6.23297,7.0989 -4.45507,19.1863 3.45321,23.4773 4.83595,2.6239 12.71785,2.4043 17.08751,-0.4762 z m -16.88687,-4.971 c -5.38049,-5.3804 -4.68286,-14.1839 1.47019,-18.5524 1.28863,-0.9149 2.39032,-3.5489 2.61413,-6.25 0.35364,-4.26816 0.70856,-4.66871 4.13683,-4.66871 3.3746,0 3.79088,0.43797 4.15836,4.37501 0.26274,2.8149 1.71138,5.6537 4.0625,7.9608 7.705,7.561 2.47404,20.7892 -8.22086,20.7892 -3.38141,0 -5.51603,-0.9487 -8.22115,-3.6539 z m 25.09615,-36.34611 c 0,-1.38889 -0.83333,-2.5 -1.875,-2.5 -1.04167,0 -1.875,1.11111 -1.875,2.5 0,1.38889 0.83333,2.5 1.875,2.5 1.04167,0 1.875,-1.11111 1.875,-2.5 z m 0,-11.875 c 0,-1.03125 -0.84375,-1.875 -1.875,-1.875 -1.03125,0 -1.875,0.84375 -1.875,1.875 0,1.03125 0.84375,1.875 1.875,1.875 1.03125,0 1.875,-0.84375 1.875,-1.875 z m 0,-12.5 c 0,-1.03125 -0.84375,-1.875 -1.875,-1.875 -1.03125,0 -1.875,0.84375 -1.875,1.875 0,1.03125 0.84375,1.875 1.875,1.875 1.03125,0 1.875,-0.84375 1.875,-1.875 z"
       id="path4367"
       inkscape:connector-curvature="0" />
    <path
       style="fill-opacity:1;stroke-width:0.42257842"
       d="m 941.48049,1043.0529 c -6.09451,-3.2162 -8.91095,-6.081 -12.07432,-12.2817 -4.25621,-8.3429 -2.91834,-19.2817 3.27289,-26.7601 2.80027,-3.3825 2.92545,-4.39716 2.92992,-23.75002 0.004,-18.07215 0.27227,-20.65549 2.52737,-24.35431 6.11078,-10.02288 22.57514,-10.02288 28.68592,0 3.2542,5.33752 3.26466,9.27956 0.0269,10.12625 -2.82238,0.73807 -2.18009,4.63647 0.7639,4.63647 2.37149,0 2.25515,6.13126 -0.13374,7.04797 -1.03125,0.39573 -1.875,1.50307 -1.875,2.46077 0,0.95769 0.84375,1.74126 1.875,1.74126 3.01905,0 2.45814,7.05593 -0.625,7.86219 -1.375,0.35957 -2.5,1.32158 -2.5,2.13781 0,0.81623 1.125,1.77824 2.5,2.13781 1.65528,0.43287 2.5,1.70502 2.5,3.76503 0,1.7112 1.38463,4.75677 3.07696,6.76807 7.95903,9.4587 7.17839,23.0397 -1.88983,32.8775 -7.6137,8.2599 -19.61993,10.5673 -29.06095,5.585 z m 15.66251,-7.4426 c 10.81166,-3.0026 14.92317,-17.9352 7.21131,-26.1908 l -3.75,-4.0144 v -20.83967 c 0,-23.85653 -0.78166,-26.39594 -8.125,-26.39594 -7.37844,0 -8.125,2.48264 -8.125,27.0194 0,18.23891 -0.29124,21.57491 -1.93876,22.20711 -3.01505,1.157 -6.65301,10.7653 -5.89838,15.5784 0.75037,4.786 7.49945,12.2235 11.84754,13.0561 1.57553,0.3017 3.14585,0.622 3.4896,0.7118 0.34375,0.09 2.72366,-0.4196 5.28869,-1.132 z m -9.84244,-4.9303 c -7.37516,-2.9762 -8.92876,-12.9703 -2.94625,-18.9528 2.0625,-2.0625 3.75,-5.067 3.75,-6.6766 0,-4.7733 1.34017,-6.88111 4.375,-6.88111 3.03483,0 4.375,2.10781 4.375,6.88111 0,1.6096 1.6875,4.6141 3.75,6.6766 6.01807,6.0181 4.87041,14.5059 -2.47498,18.3044 -4.05323,2.096 -6.82973,2.2622 -10.82877,0.6484 z m 22.05375,-38.76051 c 0,-1.66667 0.83333,-2.5 2.5,-2.5 1.66667,0 2.5,0.83333 2.5,2.5 0,1.66667 -0.83333,2.5 -2.5,2.5 -1.66667,0 -2.5,-0.83333 -2.5,-2.5 z m 0.83333,-10.83333 c -1.58473,-1.58474 -0.82363,-2.91667 1.66667,-2.91667 1.38889,0 2.5,0.83333 2.5,1.875 0,1.90301 -2.64426,2.56408 -4.16667,1.04167 z m -0.52141,-13.22917 c 0.78752,-2.36524 4.68808,-2.7015 4.68808,-0.40415 0,1.15954 -1.06874,1.96665 -2.60417,1.96665 -1.52746,0 -2.38906,-0.64602 -2.08391,-1.5625 z"
       id="path4365"
       inkscape:connector-curvature="0" />
    <path
       style="fill-opacity:1;stroke-width:0.42257842"
       d="m 945.14889,1044.1323 c -2.74104,-0.7256 -7.14091,-3.5083 -10.17201,-6.4333 -4.24102,-4.0925 -5.66057,-6.5975 -6.88978,-12.1579 -1.76373,-7.9783 -0.69417,-12.8825 4.46886,-20.4906 2.91796,-4.2999 3.04835,-5.35027 3.04835,-24.55616 0,-23.01614 0.84666,-25.69635 9.42985,-29.8514 6.41877,-3.10727 8.49483,-3.096 15.05929,0.0818 7.69448,3.72484 12.33049,14.94475 6.17509,14.94475 -1.0809,0 -1.91423,1.08834 -1.91423,2.5 0,1.66667 0.83333,2.5 2.5,2.5 1.80071,0 2.5,0.83333 2.5,2.97921 0,1.92796 -0.88216,3.2099 -2.5,3.63298 -4.30941,1.12693 -2.88554,5.48816 1.5625,4.78584 0.51563,-0.0814 0.9375,1.53947 0.9375,3.60197 0,2.91667 -0.55555,3.75 -2.5,3.75 -1.66667,0 -2.5,0.83333 -2.5,2.5 0,1.66667 0.83333,2.5 2.5,2.5 1.84719,0 2.5,0.83333 2.5,3.19132 0,1.75522 1.41847,5.27089 3.15217,7.81249 1.73369,2.5417 3.74233,6.7982 4.46363,9.4589 2.96629,10.9421 -4.58597,24.4606 -16.07859,28.7808 -5.97171,2.2448 -8.72594,2.3269 -15.74263,0.4693 z m 14.12332,-9.2008 c 3.79609,-1.5189 5.60281,-3.2983 7.6567,-7.5411 3.3525,-6.9253 2.54676,-12.572 -2.63625,-18.4752 l -3.68835,-4.2007 v -21.20379 c 0,-19.49719 -0.19788,-21.38283 -2.45858,-23.42874 -3.19743,-2.89363 -8.43985,-2.83856 -11.30584,0.11877 -1.97545,2.03841 -2.32864,5.12481 -2.71096,23.69067 -0.43382,21.06699 -0.48375,21.39939 -3.80736,25.34929 -6.82772,8.1143 -5.14505,18.8219 3.90509,24.8498 5.02245,3.3452 8.32539,3.5299 15.04555,0.841 z m -10.93318,-4.3297 c -4.59885,-1.8446 -6.68324,-4.6388 -7.38975,-9.9062 -0.57083,-4.2559 -0.15097,-5.4124 3.17071,-8.7341 2.27832,-2.2783 3.98671,-5.4152 4.21899,-7.7468 0.82413,-8.27251 8.51533,-7.38481 8.51533,0.9828 0,2.3221 0.57077,4.222 1.26837,4.222 1.89173,0 6.2216,7.6922 6.22696,11.0625 0.006,3.5471 -7.53369,11.4704 -10.80783,11.3583 -1.27187,-0.044 -3.61312,-0.6009 -5.20278,-1.2385 z m 22.26528,-38.68231 c 0,-0.6875 0.84375,-1.25 1.875,-1.25 1.03125,0 1.875,0.5625 1.875,1.25 0,0.6875 -0.84375,1.25 -1.875,1.25 -1.03125,0 -1.875,-0.5625 -1.875,-1.25 z m 0,-11.875 c 0,-1.03125 0.84375,-1.875 1.875,-1.875 1.03125,0 1.875,0.84375 1.875,1.875 0,1.03125 -0.84375,1.875 -1.875,1.875 -1.03125,0 -1.875,-0.84375 -1.875,-1.875 z m 0,-12.60417 c 0,-2.2074 2.69095,-1.82298 3.46354,0.49479 0.27214,0.81641 -0.39583,1.48438 -1.48437,1.48438 -1.08854,0 -1.97917,-0.89063 -1.97917,-1.97917 z"
       id="path4363"
       inkscape:connector-curvature="0" />
    <path
       style="fill-opacity:1;stroke-width:0.42257842"
       d="m 949.66681,1043.5578 c 1.20313,-0.3144 3.17188,-0.3144 4.375,0 1.20313,0.3144 0.21875,0.5717 -2.1875,0.5717 -2.40625,0 -3.39062,-0.2573 -2.1875,-0.5717 z m 8.4375,-0.3656 c 0,-0.6087 -1.26562,-1.3507 -2.8125,-1.6491 -1.54687,-0.2983 -0.5625,-0.3277 2.1875,-0.065 3.85366,0.3678 4.57012,0.1633 3.125,-0.8917 -1.45943,-1.0654 -1.08991,-1.1968 1.66724,-0.5926 2.35185,0.5153 3.26578,0.3289 2.71958,-0.5549 -0.45245,-0.7321 -0.0777,-1.1765 0.83277,-0.9876 1.01717,0.2111 1.52293,-0.6204 1.31179,-2.1565 -0.33133,-2.4106 -0.29209,-2.4155 1.0968,-0.1388 1.17954,1.9335 1.01538,2.6116 -0.90638,3.7442 -4.66313,2.7483 -9.2218,4.3758 -9.2218,3.2923 z m -17.5,-1.2727 c -2.28496,-1.4767 -0.31136,-1.4767 3.125,0 1.64843,0.7083 1.86132,1.0977 0.625,1.143 -1.03125,0.038 -2.71875,-0.4766 -3.75,-1.143 z m -5.46463,-3.4905 c -0.3367,-0.5448 0.48601,-1.0733 1.82824,-1.1744 1.34223,-0.1011 2.11382,0.3446 1.71464,0.9905 -0.88571,1.4331 -2.71222,1.5279 -3.54288,0.1839 z m 5.80317,0.2353 c 0.41537,-0.4154 1.49349,-0.4598 2.39584,-0.099 0.99716,0.399 0.70097,0.6952 -0.75521,0.7552 -1.31771,0.054 -2.05599,-0.2412 -1.64063,-0.6565 z m 10.59896,-1.3227 c 0.85938,-0.3467 2.26563,-0.3467 3.125,0 0.85938,0.3468 0.15625,0.6305 -1.5625,0.6305 -1.71875,0 -2.42187,-0.2837 -1.5625,-0.6305 z m -12.92459,-2.2245 c -1.12065,-0.8194 -2.25143,-3.421 -2.51285,-5.7812 -0.31742,-2.866 -0.10262,-3.7063 0.64667,-2.5298 0.61709,0.9689 0.80314,2.6564 0.41346,3.75 -0.38968,1.0936 -0.24877,1.5714 0.31314,1.0617 1.40804,-1.2771 4.54224,1.5225 3.53285,3.1557 -0.49123,0.7949 -0.0673,1.0334 1.06462,0.5991 1.0345,-0.397 2.59308,-0.2817 3.46351,0.2563 1.01386,0.6266 0.42068,0.9781 -1.65063,0.9781 -1.77827,0 -4.15012,-0.6705 -5.27077,-1.4899 z m 1.36209,-1.9476 c -0.4249,-0.6875 -1.02059,-1.25 -1.32377,-1.25 -0.30318,0 -0.55123,0.5625 -0.55123,1.25 0,0.6875 0.5957,1.25 1.32377,1.25 0.72807,0 0.97613,-0.5625 0.55123,-1.25 z m -6.875,1.25 c 0,-0.6875 0.5625,-1.25 1.25,-1.25 0.6875,0 1.25,0.5625 1.25,1.25 0,0.6875 -0.5625,1.25 -1.25,1.25 -0.6875,0 -1.25,-0.5625 -1.25,-1.25 z m 39.33186,-2.1875 c 1.09029,-2.2344 2.24915,-4.0625 2.57524,-4.0625 1.24309,0 0.44257,1.9912 -2.01013,5 l -2.54745,3.125 z m -7.95637,0.057 c 0.91018,-1.5156 1.92393,-2.4865 2.25279,-2.1577 0.32885,0.3289 -0.41584,1.5689 -1.65488,2.7557 -2.15242,2.0616 -2.17906,2.0349 -0.59791,-0.598 z m 4.32988,-0.7357 c 0.46941,-1.2328 1.16836,-1.9265 1.55322,-1.5417 0.38486,0.3849 7.9e-4,1.3935 -0.85348,2.2414 -1.23452,1.2254 -1.3781,1.0818 -0.69974,-0.6997 z m -35.60669,-1.4044 c -0.0543,-1.3178 0.24116,-2.056 0.65653,-1.6407 0.41536,0.4154 0.45977,1.4935 0.0987,2.3959 -0.39904,0.9971 -0.69523,0.7009 -0.75521,-0.7552 z m 16.77632,0.784 c -3.47643,-0.713 -7.76805,-4.9209 -8.66541,-8.4962 -1.00667,-4.0109 2.1857,-11.3273 5.38555,-12.3429 1.99674,-0.6337 2.53673,-1.7913 2.40986,-5.1662 -0.18471,-4.9132 1.63244,-7.45231 4.53598,-6.33812 1.21985,0.4681 1.95902,2.27692 1.95902,4.79392 0,2.8456 1.17187,5.2513 3.95833,8.1262 4.48336,4.6257 5.15285,9.6399 1.9415,14.5411 -2.21911,3.3868 -7.63323,5.6803 -11.52483,4.8822 z m 22.11869,-5.8882 c -0.0255,-2.0625 0.23383,-3.0576 0.57623,-2.2113 0.34241,0.8463 0.36325,2.5338 0.0463,3.75 -0.31692,1.2162 -0.59707,0.5238 -0.62254,-1.5387 z m 3.75,-1.25 c -0.0255,-2.0625 0.23383,-3.0576 0.57623,-2.2113 0.34241,0.8463 0.36325,2.5338 0.0463,3.75 -0.31692,1.2162 -0.59707,0.5238 -0.62254,-1.5387 z m -47.5,-3.75 c -0.0255,-2.0625 0.23383,-3.0576 0.57623,-2.2113 0.34241,0.8463 0.36325,2.5338 0.0463,3.75 -0.31692,1.2162 -0.59707,0.5238 -0.62254,-1.5387 z m 41.25,0 c -0.0255,-2.0625 0.23383,-3.0576 0.57623,-2.2113 0.34241,0.8463 0.36325,2.5338 0.0463,3.75 -0.31692,1.2162 -0.59707,0.5238 -0.62254,-1.5387 z m -35.04632,-0.625 c 0,-1.7188 0.28372,-2.4219 0.63048,-1.5625 0.34677,0.8594 0.34677,2.2656 0,3.125 -0.34676,0.8594 -0.63048,0.1562 -0.63048,-1.5625 z m 37.60076,-4.8363 -0.22251,-3.2887 1.7929,3.125 c 0.98609,1.7187 1.81282,2.4585 1.83719,1.6439 0.0882,-2.9478 -2.62707,-8.4036 -5.01449,-10.0758 -1.34267,-0.9404 -2.44122,-2.3385 -2.44122,-3.1069 0,-0.7683 1.38992,-0.091 3.08872,1.5047 3.20783,3.0136 6.49616,10.8659 5.12468,12.2374 -1.95991,1.9599 -3.96097,0.98 -4.16527,-2.0396 z m -42.62626,-2.6194 c 1.1995,-3.4409 3.57813,-4.2032 3.57813,-1.1468 0,0.6875 -0.5625,0.9024 -1.25,0.4775 -0.6875,-0.4249 -1.25,0.071 -1.25,1.1024 0,1.0313 -0.53995,2.2088 -1.1999,2.6166 -0.71133,0.4397 -0.66175,-0.8021 0.12177,-3.0497 z m 38.67941,1.3949 c -2.04189,-3.8153 -1.61907,-4.8778 0.65122,-1.6365 1.10137,1.5724 1.70945,3.152 1.35127,3.5102 -0.35817,0.3582 -1.25929,-0.485 -2.00249,-1.8737 z m -31.68624,-5.1892 c -1.17732,-1.375 -1.60337,-2.5 -0.94678,-2.5 0.65658,0 1.79586,1.125 2.53174,2.5 0.73588,1.375 1.16193,2.5 0.94678,2.5 -0.21515,0 -1.35443,-1.125 -2.53174,-2.5 z m 25.43364,-3.0208 c -0.0543,-1.3178 0.24116,-2.056 0.65653,-1.6407 0.41536,0.4154 0.45977,1.4935 0.0987,2.3959 -0.39904,0.9971 -0.69523,0.7009 -0.75521,-0.7552 z m -19.78345,-3.8542 c -0.0139,-2.75001 0.23076,-4.02219 0.54362,-2.82708 0.31287,1.1951 0.32422,3.44508 0.0252,4.99998 -0.29899,1.5549 -0.55498,0.5771 -0.56885,-2.1729 z m -6.0653,-18.75001 c 0.002,-10.3125 0.19536,-14.36492 0.43023,-9.00537 0.23488,5.35955 0.23345,13.79705 -0.003,18.75 -0.23669,4.95295 -0.42887,0.56787 -0.42711,-9.74463 z m 32.05218,18.12501 c -0.13083,-0.3438 -0.49343,-2.01923 -0.80577,-3.72328 -0.41987,-2.29075 -0.20221,-2.7326 0.83512,-1.69527 0.77164,0.77164 1.13424,2.44711 0.80577,3.72326 -0.32848,1.27619 -0.70428,2.03899 -0.83512,1.69529 z m -6.30211,-8.75001 c 0,-1.375 0.44196,-2.5 0.98214,-2.5 0.54018,0 0.98215,1.125 0.98215,2.5 0,1.375 -0.44197,2.5 -0.98215,2.5 -0.54018,0 -0.98214,-1.125 -0.98214,-2.5 z m 4.5724,-4.31134 c -0.46366,-1.20826 -0.0944,-1.58083 1.10908,-1.11902 0.99229,0.38078 1.49295,1.19588 1.11257,1.81134 -0.95803,1.55013 -1.4159,1.40745 -2.22165,-0.69232 z m -3.22372,-2.45949 c -0.0543,-1.31771 0.24116,-2.05599 0.65653,-1.64063 0.41536,0.41537 0.45977,1.49349 0.0987,2.39583 -0.39904,0.99717 -0.69523,0.70097 -0.75521,-0.7552 z m -1.34868,-6.9054 c 0,-0.72807 0.5625,-1.32377 1.25,-1.32377 0.6875,0 1.25,0.24805 1.25,0.55123 0,0.30318 -0.5625,0.89887 -1.25,1.32377 -0.6875,0.4249 -1.25,0.17684 -1.25,-0.55123 z m 0.625,-7.57377 c -0.4746,-2.16082 -0.60234,-4.18932 -0.28388,-4.50779 0.31846,-0.31846 0.93839,1.21786 1.37763,3.41404 1.04206,5.21032 0.0322,6.22018 -1.09375,1.09375 z m 8.28125,-2.34375 c 0.25781,-0.77344 0.89063,-1.40625 1.40625,-1.40625 1.46386,0 1.09967,1.82094 -0.46875,2.34375 -0.77344,0.25781 -1.19531,-0.16406 -0.9375,-0.9375 z m -28.90625,-4.96252 c 0,-0.58094 1.21208,-2.12782 2.6935,-3.4375 l 2.6935,-2.38123 -2.21226,3.4375 c -2.2811,3.54445 -3.17474,4.21474 -3.17474,2.38123 z m 25.54405,-0.0627 c 0.38038,-0.61546 -0.18458,-1.45523 -1.25546,-1.86617 -1.07087,-0.41093 -1.59695,-1.31362 -1.16905,-2.00598 0.4279,-0.69235 0.32293,-1.26651 -0.23327,-1.2759 -0.5562,-0.009 -2.41752,-0.33943 -4.13627,-0.73343 -2.38261,-0.54618 -2.68816,-0.4098 -1.2862,0.5741 2.67832,1.87964 1.12932,2.50168 -2.06801,0.83045 -2.56487,-1.34064 -2.37669,-1.55318 3.125,-3.52955 5.25397,-1.88738 5.59788,-1.89585 3.35421,-0.0825 -2.4688,1.99526 -2.46488,2.01218 0.31423,1.35583 1.54782,-0.36555 2.53839,-0.21834 2.20126,0.32715 -0.33713,0.54549 0.22459,1.6869 1.24827,2.53648 2.14543,1.78054 2.49106,4.98858 0.53747,4.98858 -0.72807,0 -1.01256,-0.50356 -0.63218,-1.11902 z m -14.91905,-7.57759 5,-2.48783 -4.375,-0.22007 c -4.13204,-0.20785 -4.172,-0.25016 -0.71959,-0.76183 2.70255,-0.40055 3.19542,-0.82606 1.89076,-1.63238 -1.29906,-0.80286 -1.01863,-1.03442 1.06286,-0.87762 1.73818,0.13093 2.58998,0.83198 2.21097,1.81966 -0.33909,0.88367 -0.11857,1.60668 0.49006,1.60668 0.60863,0 1.36442,-0.70313 1.67952,-1.5625 0.42712,-1.16487 0.95593,-1.20335 2.078,-0.15117 1.14433,1.07305 0.20807,1.86527 -3.90625,3.30527 -9.5,3.32499 -10.52811,3.50772 -5.41133,0.96179 z m -13.125,0.25523 c 0,-2.35429 6.42225,-6.5636 9.85607,-6.45994 3.25214,0.0982 3.24967,0.10542 -0.48107,1.4091 -2.0625,0.72073 -5.01562,2.46188 -6.5625,3.86921 -1.54687,1.40734 -2.8125,1.93907 -2.8125,1.18163 z"
       id="path4361"
       inkscape:connector-curvature="0" />
    <path
       style="fill-opacity:1;stroke-width:0.42257842"
       d="m 949.35431,1029.4195 c 1.03125,-0.6665 2.71875,-1.2117 3.75,-1.2117 1.66667,0 1.66667,0.1346 0,1.2117 -1.03125,0.6664 -2.71875,1.2117 -3.75,1.2117 -1.66667,0 -1.66667,-0.1346 0,-1.2117 z m 8.55407,-1.1617 c 3.52558,-3.0727 4.90799,-10.9541 2.47864,-14.1313 -1.73736,-2.2722 -7.28271,-1.827 -7.28271,0.5846 0,0.6875 1.06516,0.9714 2.36703,0.631 2.01262,-0.5263 2.29864,-0.034 1.9103,3.2917 -0.25121,2.1509 -0.14449,3.2076 0.23713,2.3482 1.12604,-2.5357 2.80927,-1.7834 2.09773,0.9375 -0.35957,1.375 -1.11276,2.5 -1.67374,2.5 -1.36387,0 -2.7888,-4.6719 -1.8756,-6.1495 0.39833,-0.6445 -0.50568,-1.3526 -2.0089,-1.5736 -3.56338,-0.524 -4.51317,-3.5101 -1.37727,-4.3302 1.81154,-0.4737 2.32695,-1.4989 2.00094,-3.9799 -0.24151,-1.838 -0.0625,-2.4981 0.39792,-1.4668 0.46037,1.0312 2.43171,3.3663 4.38075,5.189 5.50611,5.1492 4.56125,14.2711 -1.79744,17.3529 -2.71993,1.3183 -2.71659,1.2906 0.14522,-1.2036 z m -13.71351,-1.0258 c -1.55484,-1.9826 -1.51063,-2.0268 0.47194,-0.472 1.20313,0.9436 2.1875,1.928 2.1875,2.1875 0,1.0288 -1.02648,0.3667 -2.65944,-1.7155 z m -2.11235,-7.631 c -0.0699,-5.067 1.77728,-7.7035 6.60869,-9.4326 3.0652,-1.097 1.68197,0.3884 -2.12726,2.2843 -2.13345,1.0619 -2.88148,2.5829 -3.02398,6.149 -0.25589,6.4033 -1.37231,7.1687 -1.45745,0.9993 z m 3.52179,3.5685 c 0,-0.6875 0.24805,-1.25 0.55123,-1.25 0.30318,0 0.89887,0.5625 1.32377,1.25 0.4249,0.6875 0.17684,1.25 -0.55123,1.25 -0.72807,0 -1.32377,-0.5625 -1.32377,-1.25 z m 3.75,-18.597 c 0,-3.9099 2.41358,-6.77724 4.54036,-5.39401 1.5658,1.01841 1.79402,5.44071 0.23092,4.47461 -0.58413,-0.361 -0.73844,-1.18 -0.3429,-1.82 0.39554,-0.64 -0.22163,-1.1636 -1.37148,-1.1636 -1.61192,0 -1.96462,0.8587 -1.54027,3.75 0.30272,2.0625 0.0853,3.75 -0.48312,3.75 -0.56843,0 -1.03351,-1.6186 -1.03351,-3.597 z"
       id="path4359"
       inkscape:connector-curvature="0" />
  </g>
  <path
     style="opacity:1;fill:#808080;fill-opacity:1;stroke:#808080;stroke-width:5;stroke-linejoin:round;stroke-miterlimit:4;stroke-dasharray:none;stroke-opacity:1"
     d="m 233.83841,297.82765 c -6.56325,-5.64546 -10.64824,-13.7671 -11.96712,-23.7926 -1.67569,-12.73792 -0.1143,-17.81438 9.56968,-31.11501 6.36464,-8.74152 13.04799,-21.58953 14.85191,-28.5511 2.57046,-9.91975 5.25959,-12.65741 12.43296,-12.65741 7.17443,0 10.00236,2.88024 13.08186,13.32387 2.16083,7.3281 8.63969,20.14549 14.39751,28.48309 11.23051,16.2623 12.99709,27.98249 6.21636,41.24152 -11.40813,22.30746 -40.3388,28.76077 -58.58316,13.06764 z"
     id="path878"
     inkscape:connector-curvature="0" />
</svg>
