<svg xmlns="http://www.w3.org/2000/svg" viewBox="0 0 512 384">
<rect width="512" height="384" id="P010WIImgRct7" fill="#fff"/>
  <g
     id="g4357"
     transform="matrix(3.2873339,0,0,3.2873339,-3963.6107,-3177.6642)"
     style="stroke-width:0.42257842">
    <path
       style="fill-opacity:1;stroke-width:0.42257842"
       d="m 940.60431,1042.8584 c -3.09375,-1.6532 -7.3125,-5.4017 -9.375,-8.3301 -3.33074,-4.7289 -3.75,-6.3355 -3.75,-14.3703 0,-7.8876 0.46386,-9.747 3.62199,-14.5193 3.57979,-5.4094 3.61971,-5.67046 3.42691,-22.40869 -0.22827,-19.81688 0.83717,-25.39851 5.79436,-30.3557 3.84651,-3.84652 11.21337,-5.68321 16.9849,-4.23464 5.11467,1.28369 10.6498,6.8416 12.07141,12.12107 0.77268,2.86951 2.08071,4.90875 3.14861,4.90875 1.00475,0 1.82682,1.125 1.82682,2.5 0,1.375 -0.77814,2.5 -1.72921,2.5 -2.87535,0 -3.37238,4.91537 -0.66781,6.6044 2.77856,1.73525 3.19689,4.6456 0.66774,4.6456 -0.9511,0 -2.0114,1.47583 -2.35622,3.27962 -0.47372,2.47811 -0.0511,3.43021 1.72928,3.89579 3.12443,0.81706 3.02224,4.85884 -0.14378,5.68678 -3.50142,0.91564 -3.12189,3.68243 1.38152,10.07142 5.44471,7.7245 6.27591,18.9344 2.00694,27.0664 -4.3636,8.3123 -11.58692,12.8985 -21.22668,13.4773 -6.40704,0.3846 -8.78347,-0.065 -13.41178,-2.5384 z m 20.54072,-9.6218 c 7.96062,-5.2477 9.48515,-15.8533 3.29269,-22.9061 l -3.66658,-4.176 -0.39592,-22.06619 c -0.3651,-20.34914 -0.59044,-22.21294 -2.89591,-23.95273 -3.47732,-2.6241 -7.16955,-2.41705 -10.3893,0.5826 -2.60799,2.42972 -2.7357,3.54528 -2.7357,23.89749 v 21.34883 l -3.75,4.271 c -6.23297,7.0989 -4.45507,19.1863 3.45321,23.4773 4.83595,2.6239 12.71785,2.4043 17.08751,-0.4762 z m -16.88687,-4.971 c -5.38049,-5.3804 -4.68286,-14.1839 1.47019,-18.5524 1.28863,-0.9149 2.39032,-3.5489 2.61413,-6.25 0.35364,-4.26816 0.70856,-4.66871 4.13683,-4.66871 3.3746,0 3.79088,0.43797 4.15836,4.37501 0.26274,2.8149 1.71138,5.6537 4.0625,7.9608 7.705,7.561 2.47404,20.7892 -8.22086,20.7892 -3.38141,0 -5.51603,-0.9487 -8.22115,-3.6539 z m 25.09615,-36.34611 c 0,-1.38889 -0.83333,-2.5 -1.875,-2.5 -1.04167,0 -1.875,1.11111 -1.875,2.5 0,1.38889 0.83333,2.5 1.875,2.5 1.04167,0 1.875,-1.11111 1.875,-2.5 z m 0,-11.875 c 0,-1.03125 -0.84375,-1.875 -1.875,-1.875 -1.03125,0 -1.875,0.84375 -1.875,1.875 0,1.03125 0.84375,1.875 1.875,1.875 1.03125,0 1.875,-0.84375 1.875,-1.875 z m 0,-12.5 c 0,-1.03125 -0.84375,-1.875 -1.875,-1.875 -1.03125,0 -1.875,0.84375 -1.875,1.875 0,1.03125 0.84375,1.875 1.875,1.875 1.03125,0 1.875,-0.84375 1.875,-1.875 z"
       id="path4367"
        />
    <path
       style="fill-opacity:1;stroke-width:0.42257842"
       d="m 941.48049,1043.0529 c -6.09451,-3.2162 -8.91095,-6.081 -12.07432,-12.2817 -4.25621,-8.3429 -2.91834,-19.2817 3.27289,-26.7601 2.80027,-3.3825 2.92545,-4.39716 2.92992,-23.75002 0.004,-18.07215 0.27227,-20.65549 2.52737,-24.35431 6.11078,-10.02288 22.57514,-10.02288 28.68592,0 3.2542,5.33752 3.26466,9.27956 0.0269,10.12625 -2.82238,0.73807 -2.18009,4.63647 0.7639,4.63647 2.37149,0 2.25515,6.13126 -0.13374,7.04797 -1.03125,0.39573 -1.875,1.50307 -1.875,2.46077 0,0.95769 0.84375,1.74126 1.875,1.74126 3.01905,0 2.45814,7.05593 -0.625,7.86219 -1.375,0.35957 -2.5,1.32158 -2.5,2.13781 0,0.81623 1.125,1.77824 2.5,2.13781 1.65528,0.43287 2.5,1.70502 2.5,3.76503 0,1.7112 1.38463,4.75677 3.07696,6.76807 7.95903,9.4587 7.17839,23.0397 -1.88983,32.8775 -7.6137,8.2599 -19.61993,10.5673 -29.06095,5.585 z m 15.66251,-7.4426 c 10.81166,-3.0026 14.92317,-17.9352 7.21131,-26.1908 l -3.75,-4.0144 v -20.83967 c 0,-23.85653 -0.78166,-26.39594 -8.125,-26.39594 -7.37844,0 -8.125,2.48264 -8.125,27.0194 0,18.23891 -0.29124,21.57491 -1.93876,22.20711 -3.01505,1.157 -6.65301,10.7653 -5.89838,15.5784 0.75037,4.786 7.49945,12.2235 11.84754,13.0561 1.57553,0.3017 3.14585,0.622 3.4896,0.7118 0.34375,0.09 2.72366,-0.4196 5.28869,-1.132 z m -9.84244,-4.9303 c -7.37516,-2.9762 -8.92876,-12.9703 -2.94625,-18.9528 2.0625,-2.0625 3.75,-5.067 3.75,-6.6766 0,-4.7733 1.34017,-6.88111 4.375,-6.88111 3.03483,0 4.375,2.10781 4.375,6.88111 0,1.6096 1.6875,4.6141 3.75,6.6766 6.01807,6.0181 4.87041,14.5059 -2.47498,18.3044 -4.05323,2.096 -6.82973,2.2622 -10.82877,0.6484 z m 22.05375,-38.76051 c 0,-1.66667 0.83333,-2.5 2.5,-2.5 1.66667,0 2.5,0.83333 2.5,2.5 0,1.66667 -0.83333,2.5 -2.5,2.5 -1.66667,0 -2.5,-0.83333 -2.5,-2.5 z m 0.83333,-10.83333 c -1.58473,-1.58474 -0.82363,-2.91667 1.66667,-2.91667 1.38889,0 2.5,0.83333 2.5,1.875 0,1.90301 -2.64426,2.56408 -4.16667,1.04167 z m -0.52141,-13.22917 c 0.78752,-2.36524 4.68808,-2.7015 4.68808,-0.40415 0,1.15954 -1.06874,1.96665 -2.60417,1.96665 -1.52746,0 -2.38906,-0.64602 -2.08391,-1.5625 z"
       id="path4365"
        />
    <path
       style="fill-opacity:1;stroke-width:0.42257842"
       d="m 945.14889,1044.1323 c -2.74104,-0.7256 -7.14091,-3.5083 -10.17201,-6.4333 -4.24102,-4.0925 -5.66057,-6.5975 -6.88978,-12.1579 -1.76373,-7.9783 -0.69417,-12.8825 4.46886,-20.4906 2.91796,-4.2999 3.04835,-5.35027 3.04835,-24.55616 0,-23.01614 0.84666,-25.69635 9.42985,-29.8514 6.41877,-3.10727 8.49483,-3.096 15.05929,0.0818 7.69448,3.72484 12.33049,14.94475 6.17509,14.94475 -1.0809,0 -1.91423,1.08834 -1.91423,2.5 0,1.66667 0.83333,2.5 2.5,2.5 1.80071,0 2.5,0.83333 2.5,2.97921 0,1.92796 -0.88216,3.2099 -2.5,3.63298 -4.30941,1.12693 -2.88554,5.48816 1.5625,4.78584 0.51563,-0.0814 0.9375,1.53947 0.9375,3.60197 0,2.91667 -0.55555,3.75 -2.5,3.75 -1.66667,0 -2.5,0.83333 -2.5,2.5 0,1.66667 0.83333,2.5 2.5,2.5 1.84719,0 2.5,0.83333 2.5,3.19132 0,1.75522 1.41847,5.27089 3.15217,7.81249 1.73369,2.5417 3.74233,6.7982 4.46363,9.4589 2.96629,10.9421 -4.58597,24.4606 -16.07859,28.7808 -5.97171,2.2448 -8.72594,2.3269 -15.74263,0.4693 z m 14.12332,-9.2008 c 3.79609,-1.5189 5.60281,-3.2983 7.6567,-7.5411 3.3525,-6.9253 2.54676,-12.572 -2.63625,-18.4752 l -3.68835,-4.2007 v -21.20379 c 0,-19.49719 -0.19788,-21.38283 -2.45858,-23.42874 -3.19743,-2.89363 -8.43985,-2.83856 -11.30584,0.11877 -1.97545,2.03841 -2.32864,5.12481 -2.71096,23.69067 -0.43382,21.06699 -0.48375,21.39939 -3.80736,25.34929 -6.82772,8.1143 -5.14505,18.8219 3.90509,24.8498 5.02245,3.3452 8.32539,3.5299 15.04555,0.841 z m -10.93318,-4.3297 c -4.59885,-1.8446 -6.68324,-4.6388 -7.38975,-9.9062 -0.57083,-4.2559 -0.15097,-5.4124 3.17071,-8.7341 2.27832,-2.2783 3.98671,-5.4152 4.21899,-7.7468 0.82413,-8.27251 8.51533,-7.38481 8.51533,0.9828 0,2.3221 0.57077,4.222 1.26837,4.222 1.89173,0 6.2216,7.6922 6.22696,11.0625 0.006,3.5471 -7.53369,11.4704 -10.80783,11.3583 -1.27187,-0.044 -3.61312,-0.6009 -5.20278,-1.2385 z m 22.26528,-38.68231 c 0,-0.6875 0.84375,-1.25 1.875,-1.25 1.03125,0 1.875,0.5625 1.875,1.25 0,0.6875 -0.84375,1.25 -1.875,1.25 -1.03125,0 -1.875,-0.5625 -1.875,-1.25 z m 0,-11.875 c 0,-1.03125 0.84375,-1.875 1.875,-1.875 1.03125,0 1.875,0.84375 1.875,1.875 0,1.03125 -0.84375,1.875 -1.875,1.875 -1.03125,0 -1.875,-0.84375 -1.875,-1.875 z m 0,-12.60417 c 0,-2.2074 2.69095,-1.82298 3.46354,0.49479 0.27214,0.81641 -0.39583,1.48438 -1.48437,1.48438 -1.08854,0 -1.97917,-0.89063 -1.97917,-1.97917 z"
       id="path4363"
        />
    <path
       style="fill-opacity:1;stroke-width:0.42257842"
       d="m 949.66681,1043.5578 c 1.20313,-0.3144 3.17188,-0.3144 4.375,0 1.20313,0.3144 0.21875,0.5717 -2.1875,0.5717 -2.40625,0 -3.39062,-0.2573 -2.1875,-0.5717 z m 8.4375,-0.3656 c 0,-0.6087 -1.26562,-1.3507 -2.8125,-1.6491 -1.54687,-0.2983 -0.5625,-0.3277 2.1875,-0.065 3.85366,0.3678 4.57012,0.1633 3.125,-0.8917 -1.45943,-1.0654 -1.08991,-1.1968 1.66724,-0.5926 2.35185,0.5153 3.26578,0.3289 2.71958,-0.5549 -0.45245,-0.7321 -0.0777,-1.1765 0.83277,-0.9876 1.01717,0.2111 1.52293,-0.6204 1.31179,-2.1565 -0.33133,-2.4106 -0.29209,-2.4155 1.0968,-0.1388 1.17954,1.9335 1.01538,2.6116 -0.90638,3.7442 -4.66313,2.7483 -9.2218,4.3758 -9.2218,3.2923 z m -17.5,-1.2727 c -2.28496,-1.4767 -0.31136,-1.4767 3.125,0 1.64843,0.7083 1.86132,1.0977 0.625,1.143 -1.03125,0.038 -2.71875,-0.4766 -3.75,-1.143 z m -5.46463,-3.4905 c -0.3367,-0.5448 0.48601,-1.0733 1.82824,-1.1744 1.34223,-0.1011 2.11382,0.3446 1.71464,0.9905 -0.88571,1.4331 -2.71222,1.5279 -3.54288,0.1839 z m 5.80317,0.2353 c 0.41537,-0.4154 1.49349,-0.4598 2.39584,-0.099 0.99716,0.399 0.70097,0.6952 -0.75521,0.7552 -1.31771,0.054 -2.05599,-0.2412 -1.64063,-0.6565 z m 10.59896,-1.3227 c 0.85938,-0.3467 2.26563,-0.3467 3.125,0 0.85938,0.3468 0.15625,0.6305 -1.5625,0.6305 -1.71875,0 -2.42187,-0.2837 -1.5625,-0.6305 z m -12.92459,-2.2245 c -1.12065,-0.8194 -2.25143,-3.421 -2.51285,-5.7812 -0.31742,-2.866 -0.10262,-3.7063 0.64667,-2.5298 0.61709,0.9689 0.80314,2.6564 0.41346,3.75 -0.38968,1.0936 -0.24877,1.5714 0.31314,1.0617 1.40804,-1.2771 4.54224,1.5225 3.53285,3.1557 -0.49123,0.7949 -0.0673,1.0334 1.06462,0.5991 1.0345,-0.397 2.59308,-0.2817 3.46351,0.2563 1.01386,0.6266 0.42068,0.9781 -1.65063,0.9781 -1.77827,0 -4.15012,-0.6705 -5.27077,-1.4899 z m 1.36209,-1.9476 c -0.4249,-0.6875 -1.02059,-1.25 -1.32377,-1.25 -0.30318,0 -0.55123,0.5625 -0.55123,1.25 0,0.6875 0.5957,1.25 1.32377,1.25 0.72807,0 0.97613,-0.5625 0.55123,-1.25 z m -6.875,1.25 c 0,-0.6875 0.5625,-1.25 1.25,-1.25 0.6875,0 1.25,0.5625 1.25,1.25 0,0.6875 -0.5625,1.25 -1.25,1.25 -0.6875,0 -1.25,-0.5625 -1.25,-1.25 z m 39.33186,-2.1875 c 1.09029,-2.2344 2.24915,-4.0625 2.57524,-4.0625 1.24309,0 0.44257,1.9912 -2.01013,5 l -2.54745,3.125 z m -7.95637,0.057 c 0.91018,-1.5156 1.92393,-2.4865 2.25279,-2.1577 0.32885,0.3289 -0.41584,1.5689 -1.65488,2.7557 -2.15242,2.0616 -2.17906,2.0349 -0.59791,-0.598 z m 4.32988,-0.7357 c 0.46941,-1.2328 1.16836,-1.9265 1.55322,-1.5417 0.38486,0.3849 7.9e-4,1.3935 -0.85348,2.2414 -1.23452,1.2254 -1.3781,1.0818 -0.69974,-0.6997 z m -35.60669,-1.4044 c -0.0543,-1.3178 0.24116,-2.056 0.65653,-1.6407 0.41536,0.4154 0.45977,1.4935 0.0987,2.3959 -0.39904,0.9971 -0.69523,0.7009 -0.75521,-0.7552 z m 16.77632,0.784 c -3.47643,-0.713 -7.76805,-4.9209 -8.66541,-8.4962 -1.00667,-4.0109 2.1857,-11.3273 5.38555,-12.3429 1.99674,-0.6337 2.53673,-1.7913 2.40986,-5.1662 -0.18471,-4.9132 1.63244,-7.45231 4.53598,-6.33812 1.21985,0.4681 1.95902,2.27692 1.95902,4.79392 0,2.8456 1.17187,5.2513 3.95833,8.1262 4.48336,4.6257 5.15285,9.6399 1.9415,14.5411 -2.21911,3.3868 -7.63323,5.6803 -11.52483,4.8822 z m 22.11869,-5.8882 c -0.0255,-2.0625 0.23383,-3.0576 0.57623,-2.2113 0.34241,0.8463 0.36325,2.5338 0.0463,3.75 -0.31692,1.2162 -0.59707,0.5238 -0.62254,-1.5387 z m 3.75,-1.25 c -0.0255,-2.0625 0.23383,-3.0576 0.57623,-2.2113 0.34241,0.8463 0.36325,2.5338 0.0463,3.75 -0.31692,1.2162 -0.59707,0.5238 -0.62254,-1.5387 z m -47.5,-3.75 c -0.0255,-2.0625 0.23383,-3.0576 0.57623,-2.2113 0.34241,0.8463 0.36325,2.5338 0.0463,3.75 -0.31692,1.2162 -0.59707,0.5238 -0.62254,-1.5387 z m 41.25,0 c -0.0255,-2.0625 0.23383,-3.0576 0.57623,-2.2113 0.34241,0.8463 0.36325,2.5338 0.0463,3.75 -0.31692,1.2162 -0.59707,0.5238 -0.62254,-1.5387 z m -35.04632,-0.625 c 0,-1.7188 0.28372,-2.4219 0.63048,-1.5625 0.34677,0.8594 0.34677,2.2656 0,3.125 -0.34676,0.8594 -0.63048,0.1562 -0.63048,-1.5625 z m 37.60076,-4.8363 -0.22251,-3.2887 1.7929,3.125 c 0.98609,1.7187 1.81282,2.4585 1.83719,1.6439 0.0882,-2.9478 -2.62707,-8.4036 -5.01449,-10.0758 -1.34267,-0.9404 -2.44122,-2.3385 -2.44122,-3.1069 0,-0.7683 1.38992,-0.091 3.08872,1.5047 3.20783,3.0136 6.49616,10.8659 5.12468,12.2374 -1.95991,1.9599 -3.96097,0.98 -4.16527,-2.0396 z m -42.62626,-2.6194 c 1.1995,-3.4409 3.57813,-4.2032 3.57813,-1.1468 0,0.6875 -0.5625,0.9024 -1.25,0.4775 -0.6875,-0.4249 -1.25,0.071 -1.25,1.1024 0,1.0313 -0.53995,2.2088 -1.1999,2.6166 -0.71133,0.4397 -0.66175,-0.8021 0.12177,-3.0497 z m 38.67941,1.3949 c -2.04189,-3.8153 -1.61907,-4.8778 0.65122,-1.6365 1.10137,1.5724 1.70945,3.152 1.35127,3.5102 -0.35817,0.3582 -1.25929,-0.485 -2.00249,-1.8737 z m -31.68624,-5.1892 c -1.17732,-1.375 -1.60337,-2.5 -0.94678,-2.5 0.65658,0 1.79586,1.125 2.53174,2.5 0.73588,1.375 1.16193,2.5 0.94678,2.5 -0.21515,0 -1.35443,-1.125 -2.53174,-2.5 z m 25.43364,-3.0208 c -0.0543,-1.3178 0.24116,-2.056 0.65653,-1.6407 0.41536,0.4154 0.45977,1.4935 0.0987,2.3959 -0.39904,0.9971 -0.69523,0.7009 -0.75521,-0.7552 z m -19.78345,-3.8542 c -0.0139,-2.75001 0.23076,-4.02219 0.54362,-2.82708 0.31287,1.1951 0.32422,3.44508 0.0252,4.99998 -0.29899,1.5549 -0.55498,0.5771 -0.56885,-2.1729 z m -6.0653,-18.75001 c 0.002,-10.3125 0.19536,-14.36492 0.43023,-9.00537 0.23488,5.35955 0.23345,13.79705 -0.003,18.75 -0.23669,4.95295 -0.42887,0.56787 -0.42711,-9.74463 z m 32.05218,18.12501 c -0.13083,-0.3438 -0.49343,-2.01923 -0.80577,-3.72328 -0.41987,-2.29075 -0.20221,-2.7326 0.83512,-1.69527 0.77164,0.77164 1.13424,2.44711 0.80577,3.72326 -0.32848,1.27619 -0.70428,2.03899 -0.83512,1.69529 z m -6.30211,-8.75001 c 0,-1.375 0.44196,-2.5 0.98214,-2.5 0.54018,0 0.98215,1.125 0.98215,2.5 0,1.375 -0.44197,2.5 -0.98215,2.5 -0.54018,0 -0.98214,-1.125 -0.98214,-2.5 z m 4.5724,-4.31134 c -0.46366,-1.20826 -0.0944,-1.58083 1.10908,-1.11902 0.99229,0.38078 1.49295,1.19588 1.11257,1.81134 -0.95803,1.55013 -1.4159,1.40745 -2.22165,-0.69232 z m -3.22372,-2.45949 c -0.0543,-1.31771 0.24116,-2.05599 0.65653,-1.64063 0.41536,0.41537 0.45977,1.49349 0.0987,2.39583 -0.39904,0.99717 -0.69523,0.70097 -0.75521,-0.7552 z m -1.34868,-6.9054 c 0,-0.72807 0.5625,-1.32377 1.25,-1.32377 0.6875,0 1.25,0.24805 1.25,0.55123 0,0.30318 -0.5625,0.89887 -1.25,1.32377 -0.6875,0.4249 -1.25,0.17684 -1.25,-0.55123 z m 0.625,-7.57377 c -0.4746,-2.16082 -0.60234,-4.18932 -0.28388,-4.50779 0.31846,-0.31846 0.93839,1.21786 1.37763,3.41404 1.04206,5.21032 0.0322,6.22018 -1.09375,1.09375 z m 8.28125,-2.34375 c 0.25781,-0.77344 0.89063,-1.40625 1.40625,-1.40625 1.46386,0 1.09967,1.82094 -0.46875,2.34375 -0.77344,0.25781 -1.19531,-0.16406 -0.9375,-0.9375 z m -28.90625,-4.96252 c 0,-0.58094 1.21208,-2.12782 2.6935,-3.4375 l 2.6935,-2.38123 -2.21226,3.4375 c -2.2811,3.54445 -3.17474,4.21474 -3.17474,2.38123 z m 25.54405,-0.0627 c 0.38038,-0.61546 -0.18458,-1.45523 -1.25546,-1.86617 -1.07087,-0.41093 -1.59695,-1.31362 -1.16905,-2.00598 0.4279,-0.69235 0.32293,-1.26651 -0.23327,-1.2759 -0.5562,-0.009 -2.41752,-0.33943 -4.13627,-0.73343 -2.38261,-0.54618 -2.68816,-0.4098 -1.2862,0.5741 2.67832,1.87964 1.12932,2.50168 -2.06801,0.83045 -2.56487,-1.34064 -2.37669,-1.55318 3.125,-3.52955 5.25397,-1.88738 5.59788,-1.89585 3.35421,-0.0825 -2.4688,1.99526 -2.46488,2.01218 0.31423,1.35583 1.54782,-0.36555 2.53839,-0.21834 2.20126,0.32715 -0.33713,0.54549 0.22459,1.6869 1.24827,2.53648 2.14543,1.78054 2.49106,4.98858 0.53747,4.98858 -0.72807,0 -1.01256,-0.50356 -0.63218,-1.11902 z m -14.91905,-7.57759 5,-2.48783 -4.375,-0.22007 c -4.13204,-0.20785 -4.172,-0.25016 -0.71959,-0.76183 2.70255,-0.40055 3.19542,-0.82606 1.89076,-1.63238 -1.29906,-0.80286 -1.01863,-1.03442 1.06286,-0.87762 1.73818,0.13093 2.58998,0.83198 2.21097,1.81966 -0.33909,0.88367 -0.11857,1.60668 0.49006,1.60668 0.60863,0 1.36442,-0.70313 1.67952,-1.5625 0.42712,-1.16487 0.95593,-1.20335 2.078,-0.15117 1.14433,1.07305 0.20807,1.86527 -3.90625,3.30527 -9.5,3.32499 -10.52811,3.50772 -5.41133,0.96179 z m -13.125,0.25523 c 0,-2.35429 6.42225,-6.5636 9.85607,-6.45994 3.25214,0.0982 3.24967,0.10542 -0.48107,1.4091 -2.0625,0.72073 -5.01562,2.46188 -6.5625,3.86921 -1.54687,1.40734 -2.8125,1.93907 -2.8125,1.18163 z"
       id="path4361"
        />
    <path
       style="fill-opacity:1;stroke-width:0.42257842"
       d="m 949.35431,1029.4195 c 1.03125,-0.6665 2.71875,-1.2117 3.75,-1.2117 1.66667,0 1.66667,0.1346 0,1.2117 -1.03125,0.6664 -2.71875,1.2117 -3.75,1.2117 -1.66667,0 -1.66667,-0.1346 0,-1.2117 z m 8.55407,-1.1617 c 3.52558,-3.0727 4.90799,-10.9541 2.47864,-14.1313 -1.73736,-2.2722 -7.28271,-1.827 -7.28271,0.5846 0,0.6875 1.06516,0.9714 2.36703,0.631 2.01262,-0.5263 2.29864,-0.034 1.9103,3.2917 -0.25121,2.1509 -0.14449,3.2076 0.23713,2.3482 1.12604,-2.5357 2.80927,-1.7834 2.09773,0.9375 -0.35957,1.375 -1.11276,2.5 -1.67374,2.5 -1.36387,0 -2.7888,-4.6719 -1.8756,-6.1495 0.39833,-0.6445 -0.50568,-1.3526 -2.0089,-1.5736 -3.56338,-0.524 -4.51317,-3.5101 -1.37727,-4.3302 1.81154,-0.4737 2.32695,-1.4989 2.00094,-3.9799 -0.24151,-1.838 -0.0625,-2.4981 0.39792,-1.4668 0.46037,1.0312 2.43171,3.3663 4.38075,5.189 5.50611,5.1492 4.56125,14.2711 -1.79744,17.3529 -2.71993,1.3183 -2.71659,1.2906 0.14522,-1.2036 z m -13.71351,-1.0258 c -1.55484,-1.9826 -1.51063,-2.0268 0.47194,-0.472 1.20313,0.9436 2.1875,1.928 2.1875,2.1875 0,1.0288 -1.02648,0.3667 -2.65944,-1.7155 z m -2.11235,-7.631 c -0.0699,-5.067 1.77728,-7.7035 6.60869,-9.4326 3.0652,-1.097 1.68197,0.3884 -2.12726,2.2843 -2.13345,1.0619 -2.88148,2.5829 -3.02398,6.149 -0.25589,6.4033 -1.37231,7.1687 -1.45745,0.9993 z m 3.52179,3.5685 c 0,-0.6875 0.24805,-1.25 0.55123,-1.25 0.30318,0 0.89887,0.5625 1.32377,1.25 0.4249,0.6875 0.17684,1.25 -0.55123,1.25 -0.72807,0 -1.32377,-0.5625 -1.32377,-1.25 z m 3.75,-18.597 c 0,-3.9099 2.41358,-6.77724 4.54036,-5.39401 1.5658,1.01841 1.79402,5.44071 0.23092,4.47461 -0.58413,-0.361 -0.73844,-1.18 -0.3429,-1.82 0.39554,-0.64 -0.22163,-1.1636 -1.37148,-1.1636 -1.61192,0 -1.96462,0.8587 -1.54027,3.75 0.30272,2.0625 0.0853,3.75 -0.48312,3.75 -0.56843,0 -1.03351,-1.6186 -1.03351,-3.597 z"
       id="path4359"
        />
  </g>
  <path
     style="opacity:1;fill:#808080;fill-opacity:1;stroke:#808080;stroke-width:5;stroke-linejoin:round;stroke-miterlimit:4;stroke-dasharray:none;stroke-opacity:1"
     d="m -857.36437,203.87346 c -6.56325,-5.64546 -10.64824,-13.7671 -11.96712,-23.7926 -1.67569,-12.73792 -0.1143,-17.81438 9.56968,-31.11501 6.36464,-8.74152 13.04799,-21.58953 14.85191,-28.5511 2.57046,-9.91975 5.25959,-12.65741 12.43296,-12.65741 7.17443,0 10.00236,2.88024 13.08186,13.32387 2.16083,7.3281 8.63969,20.14549 14.39751,28.48309 11.23051,16.2623 12.99709,27.98249 6.21636,41.24152 -11.40813,22.30746 -40.3388,28.76077 -58.58316,13.06764 z"
     id="path878"
      />
  <g
     id="g4380"
     transform="matrix(3.300246,0,0,3.300246,-938.58592,-2958.6087)"
     style="stroke-width:0.42092511">
    <path
       style="fill-opacity:1;stroke-width:0.42092511"
       d="m 357.55904,1003.1998 c -7.19903,-1.2646 -11.45836,-3.99691 -15.92443,-10.21518 -3.36922,-4.69108 -3.75,-6.1732 -3.75,-14.59625 0,-8.11208 0.46307,-10.08731 3.4375,-14.66266 3.36879,-5.18197 3.43754,-5.66916 3.43944,-24.375 0.002,-21.05944 1.10026,-25.26109 7.90554,-30.24848 4.59317,-3.3662 14.96393,-3.44298 19.96891,-0.14783 3.88937,2.56066 7.12361,7.9507 7.12361,11.87189 0,1.72875 0.81314,2.56208 2.5,2.56208 1.66667,0 2.5,0.83333 2.5,2.5 0,1.66667 -0.83333,2.5 -2.5,2.5 -1.38889,0 -2.5,-0.83333 -2.5,-1.875 0,-1.04167 -1.11111,-1.875 -2.5,-1.875 -1.375,0 -2.5,0.61516 -2.5,1.36703 0,0.75186 1.125,1.66121 2.5,2.02078 1.74008,0.45504 2.5,1.70502 2.5,4.11219 0,2.40717 -0.75992,3.65715 -2.5,4.11219 -1.375,0.35957 -2.5,1.26892 -2.5,2.02078 0,0.75187 1.125,1.36703 2.5,1.36703 1.38889,0 2.5,-0.83333 2.5,-1.875 0,-1.04167 1.11111,-1.875 2.5,-1.875 1.45416,0 2.5,0.83333 2.5,1.99203 0,1.09561 -1.125,2.28621 -2.5,2.64578 -1.65118,0.4318 -2.5,1.70502 -2.5,3.75 0,2.04498 0.84882,3.31821 2.5,3.75 1.375,0.35957 2.5,1.36631 2.5,2.23719 0,0.87088 -1.125,1.87762 -2.5,2.23719 -3.45309,0.903 -3.19277,5.32861 0.57696,9.80868 5.23788,6.22486 6.93465,15.68797 4.25041,23.7051 -4.25541,12.70982 -16.02202,19.55806 -29.52794,17.18546 z m 11.84673,-10.64889 c 5.3897,-2.55757 9.0945,-8.32693 9.0945,-14.16254 0,-4.5105 -3.97704,-12.5 -6.22229,-12.5 -0.80889,0 -1.26837,-7.82373 -1.26837,-21.59687 0,-24.40751 -0.78719,-27.15313 -7.78495,-27.15313 -7.90548,0 -8.46505,1.69231 -8.46505,25.60084 0,21.28154 -0.0265,21.48826 -3.1269,24.40095 -8.19754,7.70118 -5.60119,21.06475 5.0019,25.74507 5.01572,2.21399 7.54028,2.1479 12.77116,-0.33432 z m -15.33085,-6.22007 c -4.56394,-4.92458 -4.27522,-12.56558 0.65323,-17.28733 l 3.71854,-3.56259 0.34396,-18.85877 c 0.34315,-18.81421 0.35101,-18.85978 3.3276,-19.28065 1.641,-0.23202 3.46051,0.33048 4.04336,1.25 0.58284,0.91953 1.06833,9.51609 1.07886,19.10347 0.0187,17.02296 0.0947,17.51052 3.24438,20.79803 1.89464,1.97758 3.49572,5.38302 3.88086,8.25447 0.542,4.04092 0.0721,5.58151 -2.71135,8.88947 -2.8611,3.40022 -4.20441,4.00143 -8.94055,4.00143 -4.42153,0 -6.20717,-0.68366 -8.63889,-3.30753 z m 25.68469,-36.06747 c 0,-1.03125 -0.81055,-1.875 -1.80123,-1.875 -2.0883,0 -3.49801,1.7841 -2.33145,2.95065 1.49394,1.49395 4.13268,0.80714 4.13268,-1.07565 z"
       id="path4390"
        />
    <path
       style="fill-opacity:1;stroke-width:0.42092511"
       d="m 350.97869,1000.5759 c -13.23892,-6.6961 -17.75357,-24.05154 -9.44234,-36.29881 2.75437,-4.05879 2.99437,-5.78747 3.44503,-24.81322 0.38733,-16.35204 0.91891,-21.26042 2.65248,-24.49184 6.77721,-12.63291 28.81731,-9.68834 31.59932,4.22169 0.63853,3.19263 0.32621,3.95543 -1.8528,4.52525 -3.26743,0.85446 -3.48522,4.6694 -0.26656,4.6694 1.34223,0 2.65004,-1.13126 3.04242,-2.6317 0.78045,-2.98446 3.76995,-2.6108 4.38252,0.54778 0.27251,1.40511 -0.44004,2.08392 -2.1875,2.08392 -2.04628,0 -2.59165,0.78913 -2.59165,3.75 0,2.91667 0.55555,3.75 2.5,3.75 2.35323,0 3.39893,2.43441 1.75279,4.08054 -1.21643,1.21643 -4.25279,-0.45374 -4.25279,-2.33928 0,-0.95769 -1.125,-1.74126 -2.5,-1.74126 -1.45416,0 -2.5,0.83333 -2.5,1.99203 0,1.09561 1.125,2.28621 2.5,2.64578 1.77082,0.46308 2.5,1.70502 2.5,4.25798 0,2.77088 0.57803,3.60421 2.5,3.60421 1.38889,0 2.5,0.83333 2.5,1.875 0,1.04167 -1.11111,1.875 -2.5,1.875 -3.78711,0 -3.17485,4.99828 1.54167,12.58557 13.74816,22.11616 -9.58647,47.60446 -32.82259,35.85196 z m 18.74445,-7.79367 c 1.97415,-1.02088 4.82633,-3.59329 6.33817,-5.71647 3.80657,-5.34584 2.96739,-14.81906 -1.74883,-19.74173 l -3.30287,-3.44746 v -21.10104 c 0,-19.94454 -0.14896,-21.25959 -2.71789,-23.9941 -3.21626,-3.42354 -6.85753,-3.6546 -10.6812,-0.67777 -2.66515,2.07489 -2.77987,3.01302 -2.92112,23.88764 -0.14184,20.96313 -0.24908,21.83 -3.0467,24.62762 -4.41349,4.41349 -6.13933,10.82301 -4.36326,16.20455 3.27672,9.92855 13.62372,14.51974 22.4437,9.95876 z m -13.82185,-4.74611 c -5.98965,-4.59871 -6.54931,-13.34627 -1.17507,-18.36656 l 3.71661,-3.47183 0.34589,-19.20142 c 0.31222,-17.33233 0.56467,-19.24341 2.59344,-19.63289 5.16302,-0.9912 5.87745,1.58784 5.87745,21.21724 0,15.61168 0.3118,18.75582 1.92123,19.37342 1.05668,0.40548 2.79396,2.42491 3.86063,4.48762 2.57015,4.97012 1.31974,11.34535 -2.87191,14.64251 -3.6353,2.85952 -11.13223,3.35968 -14.26827,0.95191 z m 23.85832,-37.63901 c 0,-1.88554 -3.03636,-3.55571 -4.25279,-2.33928 -1.64614,1.64613 -0.60044,4.08054 1.75279,4.08054 1.375,0 2.5,-0.78357 2.5,-1.74126 z"
       id="path4388"
        />
    <path
       style="fill-opacity:1;stroke-width:0.42092511"
       d="m 353.11437,1001.5774 c -6.42922,-2.29299 -9.01507,-4.85957 -12.90364,-12.80752 -4.26424,-8.7158 -3.58385,-17.14321 2.02669,-25.10295 l 3.77219,-5.35165 v -20.73551 -20.73552 l 4.85294,-4.85294 c 4.31025,-4.31025 5.53336,-4.85242 10.9375,-4.84827 7.63304,0.006 13.72676,3.53452 16.15978,9.35755 2.39209,5.72508 2.27389,6.88778 -0.70022,6.88778 -1.66667,0 -2.5,0.83333 -2.5,2.5 0,1.66667 0.83333,2.5 2.5,2.5 1.8574,0 2.5,0.83333 2.5,3.24203 0,2.19076 -0.81065,3.45401 -2.5,3.89578 -1.38364,0.36183 -2.5,1.70502 -2.5,3.00798 0,1.52088 0.88494,2.35421 2.5,2.35421 1.83333,0 2.5,0.83333 2.5,3.125 0,2.32667 -0.66087,3.125 -2.58694,3.125 -1.96777,0 -2.49133,0.67315 -2.1875,2.8125 0.21969,1.54687 1.24319,2.8125 2.27444,2.8125 1.15831,0 2.03271,1.43338 2.2876,3.75 0.22692,2.0625 1.42226,4.875 2.65629,6.25 3.8672,4.30895 5.14858,7.92187 5.21132,14.69358 0.0719,7.76479 -1.21606,11.52927 -5.81449,16.99419 -6.91635,8.21966 -17.79171,10.94026 -28.48596,7.12626 z m 18.66417,-9.70844 c 4.55207,-3.49592 5.20925,-4.43005 6.62583,-9.41809 1.49431,-5.26179 -0.29192,-11.74213 -4.27885,-15.52333 -3.03625,-2.87958 -3.07298,-3.17666 -3.09431,-25.03079 -0.0209,-21.42567 -0.10839,-22.17741 -2.79973,-24.0625 -4.2622,-2.98536 -9.14988,-2.44237 -12.13114,1.34769 -2.38139,3.02744 -2.59073,4.94741 -2.59073,23.76083 v 20.46725 l -3.86264,5.30167 c -3.22908,4.43207 -3.76895,6.15434 -3.29142,10.50001 0.64066,5.83013 4.85458,12.57297 8.87105,14.19487 5.14421,2.07729 12.767,1.36917 16.55194,-1.53761 z m -17.11508,-5.88444 c -2.18366,-2.18365 -3.65385,-4.97491 -3.65385,-6.93707 0,-4.09444 3.02734,-10.1143 5.57877,-11.09337 1.60943,-0.6176 1.92123,-3.76174 1.92123,-19.37342 0,-14.96963 0.36576,-18.93973 1.85908,-20.17908 1.0225,-0.84859 2.71,-1.21637 3.75,-0.81729 1.57234,0.60337 1.89092,3.90479 1.89092,19.59555 v 18.86993 l 3.6581,3.07809 c 4.69309,3.94898 5.87138,9.12732 3.23631,14.22297 -3.65893,7.0756 -12.51934,8.35492 -18.24056,2.63369 z m 25.71569,-35.10498 c -0.4279,-0.69235 0.12567,-1.60559 1.23014,-2.02942 2.39331,-0.9184 3.72715,0.0937 2.57672,1.95509 -1.03798,1.67947 -2.79364,1.71375 -3.80686,0.0743 z m -0.61954,-12.35743 c 0,-1.40505 3.2514,-2.71567 4.25279,-1.71428 1.50471,1.5047 0.68369,2.83054 -1.75279,2.83054 -1.375,0 -2.5,-0.50232 -2.5,-1.11626 z m 0.85937,-10.94103 c -1.63012,-1.63012 -0.85186,-2.94271 1.7448,-2.94271 1.45468,0 2.38576,0.65521 2.10937,1.48437 -0.60889,1.82668 -2.69607,2.61643 -3.85417,1.45834 z"
       id="path4386"
        />
    <path
       style="fill-opacity:1;stroke-width:0.42092511"
       d="m 356.63461,1002.1057 c -1.66933,-0.7391 -0.63099,-0.8598 3.125,-0.3632 3.09375,0.4091 5.85937,0.9467 6.14583,1.1948 1.08579,0.9403 -6.8835,0.2255 -9.27083,-0.8316 z m 13.125,-0.4586 c 0,-0.2702 0.87297,-0.8262 1.93992,-1.2357 1.11241,-0.42685 1.61416,-0.2173 1.17623,0.4913 -0.73407,1.1877 -3.11615,1.7568 -3.11615,0.7444 z m -20.72972,-4.1788 c 0.53279,-1.67865 0.15881,-2.78154 -1.10803,-3.26767 -1.05174,-0.40359 -1.90364,-1.45458 -1.89311,-2.33553 0.0136,-1.13757 0.35613,-1.06887 1.18203,0.23707 0.6396,1.01134 1.51968,1.48202 1.95574,1.04595 0.43607,-0.43606 -0.17204,-2.26545 -1.35135,-4.06531 -1.17932,-1.79985 -1.88136,-3.53531 -1.5601,-3.85657 0.32126,-0.32126 1.28528,0.72606 2.14228,2.32737 0.85699,1.60131 3.24053,3.90527 5.29676,5.11991 2.05622,1.21464 3.40902,2.538 3.00621,2.94081 -0.40281,0.40281 -1.398,0.0667 -2.21154,-0.74679 -2.06493,-2.06493 -5.45284,-1.9898 -3.75758,0.0833 0.89836,1.09862 0.7161,2.08039 -0.61392,3.30691 -1.64946,1.5211 -1.78866,1.42004 -1.08739,-0.78948 z m 16.06826,0.16486 c 0.41537,-0.41536 1.49349,-0.45977 2.39583,-0.0987 0.99717,0.39904 0.70097,0.69523 -0.7552,0.75521 -1.31771,0.0543 -2.05599,-0.24116 -1.64063,-0.65652 z m 14.30848,-3.60421 c 1.22539,-1.68411 2.65462,-3.07969 3.17607,-3.1013 1.42568,-0.0591 -1.89812,4.81798 -3.77418,5.53789 -1.02734,0.39422 -0.80623,-0.50654 0.59811,-2.43659 z m -12.77202,0.96809 c 1.375,-0.33073 3.03438,-1.10923 3.6875,-1.73 0.65312,-0.62077 1.77812,-1.11078 2.5,-1.08892 0.72188,0.0219 0.22062,0.86562 -1.11391,1.875 -1.33453,1.00939 -3.58453,1.77 -5,1.69025 -2.51084,-0.14147 -2.51263,-0.15967 -0.0736,-0.74633 z m -24.95612,-3.59213 c -1.16525,-1.77839 -1.9035,-3.44859 -1.64055,-3.71154 0.26295,-0.26294 1.46469,1.19211 2.67055,3.23346 2.694,4.56058 1.8896,4.93395 -1.03,0.47808 z m 33.78649,-2.13295 c 0.46941,-1.23278 1.16836,-1.92653 1.55322,-1.54167 0.38486,0.38486 7.9e-4,1.3935 -0.85348,2.24141 -1.23452,1.22534 -1.3781,1.08176 -0.69974,-0.69974 z m -20.08635,-2.65094 c -1.65955,-1.65954 -3.3852,-4.48296 -3.83479,-6.27426 -1.0339,-4.11942 1.503,-10.39304 4.6002,-11.37606 2.18506,-0.69351 2.36557,-2.21115 2.36557,-19.88851 0,-19.95533 0.78559,-23.00291 5.46656,-21.20665 1.7528,0.67261 2.03344,3.36667 2.03344,19.52005 v 18.73976 l 3.75,3.50302 c 5.35882,5.00589 5.31762,12.2087 -0.0959,16.76388 -4.9097,4.13124 -10.29021,4.21364 -14.28508,0.21877 z m 25.82835,0.51735 c 0,-1.71875 0.28372,-2.42188 0.63048,-1.5625 0.34677,0.85937 0.34677,2.26562 0,3.125 -0.34676,0.85937 -0.63048,0.15625 -0.63048,-1.5625 z m 2.4602,-2.59668 c -0.92437,-2.08829 -1.33797,-4.13959 -0.91912,-4.55844 0.41885,-0.41885 0.76155,0.14276 0.76155,1.24801 0,1.10527 0.65809,2.41629 1.46242,2.9134 0.9361,0.57854 1.21499,0.259 0.7749,-0.88784 -0.37814,-0.98542 -0.25222,-4.03082 0.27982,-6.76756 l 0.96734,-4.97589 -0.0543,6.25 c -0.0299,3.4375 -0.40025,7.22317 -0.82312,8.4126 -0.62588,1.76051 -1.08132,1.45665 -2.4495,-1.63428 z m -5.05889,-0.42415 c -0.0543,-1.31771 0.24116,-2.05599 0.65653,-1.64063 0.41536,0.41537 0.45977,1.49349 0.0987,2.39583 -0.39904,0.99717 -0.69523,0.70097 -0.75521,-0.7552 z m -38.38082,-2.56293 c -0.38703,-1.00857 -0.46246,-2.55545 -0.16762,-3.4375 0.29484,-0.88206 0.83239,-0.0569 1.19457,1.83376 0.70717,3.69153 0.1238,4.60255 -1.02695,1.60374 z m -2.77049,-3.16624 c 0,-1.71875 0.28372,-2.42188 0.63048,-1.5625 0.34677,0.85937 0.34677,2.26562 0,3.125 -0.34676,0.85937 -0.63048,0.15625 -0.63048,-1.5625 z m 5.74132,0.96611 c 0.71076,-0.87511 1.56882,-2.71611 1.9068,-4.09111 0.48477,-1.97218 0.64512,-1.80249 0.75951,0.80376 0.0882,2.00934 -0.65891,3.61226 -1.90681,4.09112 -1.54626,0.59336 -1.7334,0.39532 -0.7595,-0.80377 z m 36.29467,-3.46611 c -0.30271,-2.0625 -0.0853,-3.75 0.48313,-3.75 0.56843,0 1.03351,1.6875 1.03351,3.75 0,2.0625 -0.21741,3.75 -0.48313,3.75 -0.26572,0 -0.73079,-1.6875 -1.03351,-3.75 z m -40.98336,-3.05123 c 0,-0.99068 0.51004,-2.11645 1.13343,-2.50172 0.62338,-0.38528 0.83903,0.42528 0.47921,1.80123 -0.76327,2.91873 -1.61264,3.28768 -1.61264,0.70049 z m 7.35581,-2.21777 c -0.0793,-0.8833 -0.27487,-2.1685 -0.4346,-2.856 -0.15973,-0.6875 -0.38471,-1.8125 -0.49996,-2.5 -0.11525,-0.6875 -0.73283,-0.42254 -1.37242,0.5888 -0.6396,1.01134 -1.5417,1.46 -2.00467,0.99702 -0.46298,-0.46297 0.0647,-1.7482 1.17249,-2.85604 1.85237,-1.85237 2.1266,-1.76775 3.41165,1.05263 1.39467,3.06098 1.40219,3.0621 3.88295,0.58134 2.31725,-2.31725 2.45605,-3.87086 2.04966,-22.94238 -0.23975,-11.25124 -0.0536,-19.49258 0.41373,-18.31409 0.46731,1.1785 0.88918,10.50596 0.9375,20.7277 l 0.0879,18.58498 -3.75,4.27102 c -2.0625,2.34905 -3.81488,3.54831 -3.89419,2.66502 z m 36.88583,-0.9349 c 0.40615,-1.8843 -0.12064,-3.94554 -1.35773,-5.3125 -1.11176,-1.22848 -1.46675,-2.2336 -0.78887,-2.2336 0.67788,0 1.95231,1.34496 2.83207,2.9888 1.24047,2.31784 1.26858,3.51045 0.12522,5.3125 -1.3239,2.08659 -1.40662,2.00953 -0.81069,-0.7552 z m -7.99164,-3.1711 c -1.61468,-1.71875 -2.27523,-3.125 -1.46789,-3.125 0.80734,0 1.46789,0.55587 1.46789,1.23526 0,0.6794 1.20362,1.10127 2.67471,0.9375 1.47109,-0.16377 2.78359,0.26474 2.91667,0.95224 0.13307,0.6875 0.008,0.82812 -0.27888,0.3125 -0.98343,-1.77018 -3.07997,-0.9375 -2.36047,0.9375 0.99688,2.59783 0.44215,2.36294 -2.95203,-1.25 z m -28.20115,-7.24769 c -0.34248,-0.89249 -0.46304,-9.47061 -0.26793,-19.0625 l 0.35476,-17.43981 0.61966,19.06437 c 0.34081,10.4854 0.46138,19.06353 0.26793,19.0625 -0.19345,-10e-4 -0.63194,-0.73208 -0.97442,-1.62456 z m 29.45115,-2.12731 -3.125,-1.0008 3.4375,-0.1246 c 1.89062,-0.0685 3.4375,0.4379 3.4375,1.1254 0,0.6875 -0.14063,1.19393 -0.3125,1.1254 -0.17188,-0.0685 -1.71875,-0.57496 -3.4375,-1.1254 z m 5.79797,-6.875 c -0.39573,-1.03125 -0.17466,-1.875 0.49126,-1.875 0.66592,0 1.21077,0.84375 1.21077,1.875 0,1.03125 -0.22107,1.875 -0.49126,1.875 -0.2702,0 -0.81505,-0.84375 -1.21077,-1.875 z m -9.46011,-0.3125 c 0.0483,-0.51563 0.57128,-2.0625 1.16214,-3.4375 0.95195,-2.21531 1.08429,-2.10856 1.16214,0.9375 0.0483,1.89062 -0.47464,3.4375 -1.16214,3.4375 -0.6875,0 -1.21047,-0.42188 -1.16214,-0.9375 z m 3.66214,-4.0625 c 0,-0.6875 0.24805,-1.25 0.55123,-1.25 0.30317,0 0.89887,0.5625 1.32377,1.25 0.4249,0.6875 0.17685,1.25 -0.55123,1.25 -0.72807,0 -1.32377,-0.5625 -1.32377,-1.25 z m -2.355,-5.3125 c 0.10274,-1.99271 0.30731,-2.19729 0.70185,-0.70187 0.30627,1.16085 1.7879,2.34987 3.2925,2.64227 2.25207,0.43767 2.128,0.56174 -0.70185,0.70187 -2.82038,0.13967 -3.41147,-0.33468 -3.2925,-2.64227 z m 7.355,-2.11373 c 0,-0.72807 0.5625,-1.32377 1.25,-1.32377 0.6875,0 1.25,0.24805 1.25,0.55123 0,0.30318 -0.5625,0.89887 -1.25,1.32377 -0.6875,0.4249 -1.25,0.17684 -1.25,-0.55123 z m -5,-6.2196 c 0,-1.31771 -0.70313,-2.67955 -1.5625,-3.02632 -1.17508,-0.47415 -1.14606,-0.65495 0.11703,-0.72917 0.92373,-0.0543 1.97206,1.01999 2.32961,2.38726 0.35755,1.36727 1.14864,2.17782 1.75797,1.80123 0.60934,-0.37659 1.10789,-0.089 1.10789,0.63906 0,0.72807 -0.84375,1.32377 -1.875,1.32377 -1.03125,0 -1.875,-1.07813 -1.875,-2.39583 z m -27.40132,-4.375 c -0.0543,-1.31771 0.24116,-2.05599 0.65653,-1.64063 0.41536,0.41537 0.45977,1.49349 0.0987,2.39583 -0.39904,0.99717 -0.69523,0.70097 -0.75521,-0.7552 z m 23.65132,-1.97917 c 0,-0.6875 0.5625,-1.25 1.25,-1.25 0.6875,0 1.25,0.5625 1.25,1.25 0,0.6875 -0.5625,1.25 -1.25,1.25 -0.6875,0 -1.25,-0.5625 -1.25,-1.25 z m 2.5,-4.52806 c 0,-1.73599 0.31502,-1.78693 2.1875,-0.3537 1.20312,0.92089 2.42187,1.83351 2.70833,2.02805 0.28646,0.19454 -0.69791,0.35371 -2.1875,0.35371 -1.66491,0 -2.70833,-0.78133 -2.70833,-2.02806 z m -3.75,-1.72194 c 0,-0.6875 0.24805,-1.25 0.55123,-1.25 0.30317,0 0.89887,0.5625 1.32377,1.25 0.4249,0.6875 0.17685,1.25 -0.55123,1.25 -0.72807,0 -1.32377,-0.5625 -1.32377,-1.25 z m 5.70537,-2.13359 c -0.67836,-1.7815 -0.53478,-1.92508 0.69974,-0.69974 0.85427,0.84791 1.23834,1.85655 0.85348,2.24141 -0.38486,0.38486 -1.08381,-0.30889 -1.55322,-1.54167 z m -22.24704,-3.1303 c 2.16378,-2.16378 3.0926,-2.43518 4.27778,-1.25 1.18519,1.18519 1.17212,1.85315 -0.0602,3.07639 -1.26208,1.25281 -1.409,1.12893 -0.74127,-0.625 0.4911,-1.28998 0.24896,-2.1875 -0.59017,-2.1875 -0.78263,0 -1.74674,0.84375 -2.14247,1.875 -0.39573,1.03125 -1.34683,1.875 -2.11355,1.875 -0.76672,0 -0.15029,-1.24375 1.36985,-2.76389 z m 6.85417,-3.09777 c 1.20312,-0.31441 3.17187,-0.31441 4.375,0 1.20312,0.31441 0.21875,0.57166 -2.1875,0.57166 -2.40625,0 -3.39063,-0.25725 -2.1875,-0.57166 z m 7.1875,-1.63834 c -1.03125,-0.66644 -1.3125,-1.21172 -0.625,-1.21172 0.6875,0 2.09375,0.54528 3.125,1.21172 1.03125,0.66644 1.3125,1.21172 0.625,1.21172 -0.6875,0 -2.09375,-0.54528 -3.125,-1.21172 z m -8.4375,-2.11166 c 1.20312,-0.31441 3.17187,-0.31441 4.375,0 1.20312,0.31441 0.21875,0.57166 -2.1875,0.57166 -2.40625,0 -3.39063,-0.25725 -2.1875,-0.57166 z"
       id="path4384"
        />
    <path
       style="fill-opacity:1;stroke-width:0.42092511"
       d="m 357.88461,987.5209 c -4.24277,-2.2582 -5.62227,-3.91959 -5.50718,-6.63253 0.0697,-1.6426 0.16968,-1.64537 0.80676,-0.0223 1.65314,4.21164 9.48129,8.64944 10.97994,6.22456 0.40866,-0.66122 1.81504,-1.20223 3.12527,-1.20223 3.30171,0 5.90155,-4.9435 3.56598,-6.78057 -0.94643,-0.74441 -1.89313,-2.14978 -2.1038,-3.12304 -0.31661,-1.46271 -0.0457,-1.48958 1.5625,-0.15493 1.62475,1.34843 1.94553,1.28026 1.94553,-0.4134 0,-1.11543 -0.5625,-2.02806 -1.25,-2.02806 -0.6875,0 -1.25,-0.96891 -1.25,-2.15313 0,-1.80791 0.29963,-1.72535 1.86876,0.51489 1.58475,2.26255 1.78356,5.33685 0.77097,11.92192 -0.18478,1.20163 -5.11939,4.27676 -8.26473,5.15039 -1.375,0.38191 -4.1875,-0.20378 -6.25,-1.30154 z m 1.875,-2.88253 c -1.12662,-0.72807 -1.28079,-1.21936 -0.38627,-1.23086 0.8188,-0.0105 1.83637,0.54336 2.26127,1.23086 0.95913,1.55191 0.5264,1.55191 -1.875,0 z m 8.41503,-2.5 c 1.17732,-1.375 2.3166,-2.5 2.53175,-2.5 0.21515,0 -0.2109,1.125 -0.94678,2.5 -0.73588,1.375 -1.87516,2.5 -2.53175,2.5 -0.65658,0 -0.23053,-1.125 0.94678,-2.5 z m -6.22753,-0.82785 c 0.85937,-0.34677 2.26562,-0.34677 3.125,0 0.85937,0.34676 0.15625,0.63048 -1.5625,0.63048 -1.71875,0 -2.42188,-0.28372 -1.5625,-0.63048 z m -5.82026,-1.30083 c 0.47705,-0.27015 0.59683,-1.52573 0.26616,-2.79018 -0.33065,-1.26445 -0.11365,-2.60032 0.48226,-2.9686 0.59589,-0.36829 1.01899,0.80291 0.9402,2.60265 -0.0788,1.79975 -0.68611,3.35666 -1.34961,3.45979 -0.6635,0.10314 -0.81606,-0.0335 -0.33901,-0.30366 z m -2.64099,-7.21771 c 1.80016,-2.16905 2.52375,-2.39479 2.52375,-0.78735 0,0.61395 -0.92331,1.47058 -2.05181,1.90362 -1.71559,0.65833 -1.79292,0.47542 -0.47194,-1.11627 z m 10.59735,-4.48677 c -1.32492,-2.14377 -0.13843,-2.35412 2.47978,-0.43964 2.0276,1.48262 2.09051,1.7728 0.3843,1.7728 -1.12207,0 -2.41091,-0.59992 -2.86408,-1.33316 z m -4.22492,-4.18767 c -0.0543,-1.31771 0.24116,-2.05599 0.65653,-1.64063 0.41536,0.41537 0.45977,1.49349 0.0987,2.39583 -0.39904,0.99717 -0.69523,0.70097 -0.75521,-0.7552 z m 3.65132,-0.0304 c 0,-0.30318 0.5625,-0.89887 1.25,-1.32377 0.6875,-0.4249 1.25,-0.17684 1.25,0.55123 0,0.72807 -0.5625,1.32377 -1.25,1.32377 -0.6875,0 -1.25,-0.24805 -1.25,-0.55123 z m 1.00754,-18.72538 c 0.37799,-15.34624 0.34822,-15.53846 -2.5,-16.14453 -2.66444,-0.56696 -2.64609,-0.59788 0.24246,-0.40862 l 3.125,0.20476 0.34985,15.9375 c 0.19241,8.76562 -0.0888,15.93852 -0.625,15.93978 -0.53617,10e-4 -0.80271,-6.98675 -0.59231,-15.52889 z m -4.65886,-7.49422 c -0.0543,-1.31771 0.24116,-2.05599 0.65653,-1.64063 0.41536,0.41537 0.45977,1.49349 0.0987,2.39583 -0.39904,0.99717 -0.69523,0.70097 -0.75521,-0.7552 z"
       id="path4382"
        />
  </g>
  <path
     style="opacity:1;fill:#808080;fill-opacity:1;stroke:#808080;stroke-width:4.99999952;stroke-linejoin:round;stroke-miterlimit:4;stroke-dasharray:none;stroke-opacity:1"
     d="m 232.52901,295.04149 c -16.32435,-16.32435 -13.60606,-45.14857 5.77464,-61.23312 4.82898,-4.00769 6.07195,-14.65484 6.43682,-55.13726 0.55786,-61.89852 2.56055,-72.70614 13.76893,-74.3046 11.00068,-1.56883 12.02492,3.67401 13.3663,68.41877 1.01462,48.97354 1.65207,52.77894 11.20337,66.88093 13.12654,19.38064 15.75045,28.92688 11.22363,40.83333 -10.39928,27.35219 -41.61505,34.7006 -61.77369,14.54195 z"
     id="path880"
      />
</svg>
