<svg xmlns="http://www.w3.org/2000/svg" viewBox="0 0 512 384">
<rect width="512" height="384" id="P010WIImgRct8" fill="#fff"/>
  <g
     id="g4403"
     transform="matrix(3.3981681,0,0,3.3981681,-1936.8548,-2734.6674)"
     style="stroke-width:0.40879568">
    <path
       style="fill-opacity:1;stroke-width:0.40879568"
       d="m 601.74762,905.53876 c -1.10815,-1.10815 -1.5,-12.66043 -1.5,-44.22194 0,-46.03889 0.0271,-46.22822 6.4937,-45.31151 l 2.8813,0.40845 0.32874,44.29119 c 0.34171,46.03766 0.31837,46.26444 -4.76624,46.31467 -1.06562,0.0105 -2.6125,-0.65586 -3.4375,-1.48086 z m 15.30354,-42.61049 c -0.3399,-0.88576 -0.46287,-10.87014 -0.27327,-22.1875 l 0.34473,-20.57701 3.95573,-0.38373 c 3.39442,-0.32929 50.70721,5.89578 60.74463,7.99233 6.01943,1.2573 7.17464,3.53028 7.17464,14.11677 0,5.84006 -0.62823,10.53097 -1.58574,11.84044 -1.24422,1.70156 -7.90734,3.09646 -30.9375,6.47665 -32.1613,4.72038 -38.48874,5.15728 -39.42322,2.72205 z m 25.38396,-5.36417 c 2.72643,-0.55544 2.8125,-1.0268 2.8125,-15.40337 0,-16.50765 0.11487,-16.31372 -9.6875,-16.3549 l -4.0625,-0.0171 v 16.04167 c 0,8.82291 0.29447,16.33613 0.65438,16.69604 0.62262,0.62262 4.10078,0.29711 10.28312,-0.96237 z m 27.65625,-3.80659 3.90625,-0.78125 v -10.39498 c 0,-5.71724 -0.51585,-10.71379 -1.14634,-11.10345 -0.63048,-0.38967 -3.72423,-1.06182 -6.875,-1.49368 l -5.72866,-0.7852 v 12.66991 c 0,14.11911 -0.18591,13.89458 9.84375,11.88865 z"
       id="path4413"
        />
    <path
       style="fill-opacity:1;stroke-width:0.40879568"
       d="m 600.87883,903.05226 c -0.38751,-1.58867 -0.54743,-21.451 -0.35538,-44.1385 l 0.34917,-41.25 h 4.375 4.375 v 43.75 43.75 l -4.01961,0.3885 c -3.32331,0.3212 -4.14166,-0.11186 -4.72418,-2.5 z m 16.37753,-40.49073 c -0.41731,-1.08748 -0.75874,-10.58111 -0.75874,-21.09695 0,-15.91292 0.33176,-19.39504 1.97801,-20.76132 2.78613,-2.31228 64.64005,6.39988 68.17961,9.60314 3.14991,2.85063 3.43306,20.46311 0.37809,23.51807 -1.08035,1.08036 -2.06879,1.96429 -2.19652,1.96429 -0.12774,0 -13.68407,1.96875 -30.12518,4.375 -34.03822,4.98168 -36.40557,5.13324 -37.45527,2.39777 z m 23.92876,-4.2557 4.0625,-0.0171 V 842.6245 c 0,-11.44122 -0.42124,-15.79406 -1.5625,-16.14579 -0.85938,-0.26485 -3.95313,-0.81634 -6.875,-1.22554 l -5.3125,-0.74398 v 17.66056 17.66056 l 2.8125,-0.75372 c 1.54687,-0.41455 4.64062,-0.7614 6.875,-0.77079 z m 30,-4.55493 c 2.64521,-0.70889 2.8125,-1.4049 2.8125,-11.70168 v -10.94796 l -3.90625,-0.78125 c -10.0155,-2.0031 -9.84375,-2.20756 -9.84375,11.71875 v 12.5 l 4.0625,-0.0171 c 2.23437,-0.009 5.32812,-0.35624 6.875,-0.77079 z"
       id="path4411"
        />
    <path
       style="fill-opacity:1;stroke-width:0.40879568"
       d="m 601.5416,903.37094 c -1.40139,-2.61852 -1.84507,-78.52217 -0.4886,-83.5867 0.62831,-2.34583 1.49392,-2.80918 4.67043,-2.5 l 3.89919,0.37952 0.34917,41.25 c 0.19205,22.6875 0.0407,42.51563 -0.33631,44.0625 -0.87545,3.59191 -6.24271,3.85363 -8.09388,0.39468 z m 16.45602,-40.33218 c -2.36957,-2.36957 -2.07805,-40.21415 0.32514,-42.20862 1.44598,-1.20006 8.52241,-0.56971 34.0625,3.03418 37.94803,5.35474 36.61236,4.67093 36.61236,18.74419 0,7.03304 -0.48617,9.47788 -2.1875,11.0005 -1.49031,1.33376 -11.96142,3.3875 -32.85385,6.44374 -34.71712,5.07857 -33.93134,5.01332 -35.95865,2.98601 z m 24.4375,-4.73624 c 2.77173,-0.0136 2.8125,-0.24932 2.8125,-16.26376 v -16.25 h -3.59375 c -1.97656,0 -5.29761,-0.34077 -7.3801,-0.75727 l -3.78635,-0.75727 -0.16829,17.80367 -0.16829,17.80368 4.73589,-0.78265 c 2.60474,-0.43045 6.00151,-0.78884 7.54839,-0.7964 z m 29.6875,-4.41512 c 2.27963,-0.44626 2.5,-1.48588 2.5,-11.79402 0,-6.65341 -0.51431,-11.33528 -1.25,-11.37913 -0.6875,-0.041 -3.92188,-0.51431 -7.1875,-1.05184 l -5.9375,-0.97731 v 13.47324 13.47324 l 4.6875,-0.62738 c 2.57812,-0.34507 5.8125,-0.84762 7.1875,-1.1168 z"
       id="path4409"
        />
    <path
       style="fill-opacity:1;stroke-width:0.40879568"
       d="m 602.28978,903.55924 c -0.33296,-0.53874 0.89947,-0.96062 2.73873,-0.9375 l 3.34411,0.042 0.67212,-20.625 0.67213,-20.625 0.26537,19.58527 c 0.14596,10.77189 -0.0761,20.47502 -0.49336,21.5625 -0.77643,2.02336 -6.10851,2.76232 -7.1991,0.99771 z m 4.30652,-30.79131 c -0.0543,-1.31771 0.24116,-2.05599 0.65653,-1.64063 0.41536,0.41537 0.45977,1.49349 0.0987,2.39584 -0.39904,0.99716 -0.69523,0.70096 -0.75521,-0.75521 z m -0.1019,-29.55077 c -0.60148,-21.23019 -0.54068,-21.95267 1.86246,-22.13217 1.57159,-0.11739 1.92754,0.1585 0.9689,0.75097 -1.06744,0.65971 -1.61795,7.2016 -1.86246,22.13217 l -0.34712,21.19563 z m 11.56572,19.89193 c -1.11752,-1.12312 -1.5625,-7.18238 -1.5625,-21.27635 0,-17.91507 0.21079,-19.81883 2.31935,-20.9473 3.25361,-1.74128 63.70041,6.98519 66.74315,9.63545 1.71514,1.49391 2.1875,3.90563 2.1875,11.16878 0,12.3929 -0.80173,13.61015 -9.65203,14.65444 -3.97263,0.46876 -15.94172,2.17204 -26.59797,3.78508 -30.51152,4.61853 -31.70152,4.72458 -33.4375,2.9799 z m 27.03117,-5.49733 c 0.88589,-0.88589 1.05643,-29.11661 0.18442,-30.52755 -0.41178,-0.66626 -3.96155,-1.589 -7.88838,-2.05052 l -7.13971,-0.83913 v 17.8442 17.8442 l 7.12345,-0.83722 c 3.9179,-0.46047 7.392,-1.10576 7.72022,-1.43398 z m 28.59383,-3.75208 c 1.09799,-0.34606 1.5625,-3.84152 1.5625,-11.75787 0,-12.59235 0.38695,-12.12415 -10.625,-12.85583 l -5,-0.33222 -0.12615,12.5 c -0.0694,6.875 0.12111,12.94886 0.42333,13.49747 0.49456,0.89775 9.84737,0.18328 13.76532,-1.05155 z m -71.99546,-33.76997 c 0.55128,-2.86253 4.49416,-3.91397 6.50324,-1.7342 1.10533,1.19925 0.94161,1.3797 -0.72161,0.79533 -1.2145,-0.4267 -3.04228,0.1351 -4.19731,1.29013 -1.89465,1.89465 -2.01184,1.86867 -1.58432,-0.35126 z"
       id="path4407"
        />
    <path
       style="fill-opacity:1;stroke-width:0.40879568"
       d="m 619.62262,863.28876 c -0.97773,-1.582 0.67704,-1.582 3.125,0 1.61586,1.04425 1.58286,1.21436 -0.23873,1.23086 -1.16255,0.0105 -2.46137,-0.54336 -2.88627,-1.23086 z m 6.3616,-1.06943 c -0.36352,-0.58818 0.72828,-0.80386 2.42623,-0.47928 1.69794,0.32459 3.08717,0.80583 3.08717,1.06943 0,0.96719 -4.8733,0.44556 -5.5134,-0.59015 z m 6.7634,-1.3568 c 0,-0.72807 0.5625,-1.32377 1.25,-1.32377 0.6875,0 1.25,0.24805 1.25,0.55123 0,0.30318 -0.5625,0.89887 -1.25,1.32377 -0.6875,0.4249 -1.25,0.17684 -1.25,-0.55123 z m 3.75,0.0617 c 0,-0.76203 0.98437,-1.46561 2.1875,-1.56352 1.20312,-0.0979 4.07253,-0.33245 6.37647,-0.52123 2.30392,-0.18877 5.50383,-0.67323 7.11089,-1.07658 1.60706,-0.40335 3.27085,-0.16879 3.6973,0.52123 0.45312,0.73316 -0.94372,1.32089 -3.36089,1.41412 -5.46587,0.21081 -8.42142,0.61177 -12.57377,1.7058 -2.22721,0.58681 -3.4375,0.41787 -3.4375,-0.47982 z M 624.46548,857.705 c -0.38703,-1.00858 -0.41378,-2.55545 -0.0594,-3.4375 0.40459,-1.00721 0.68093,-0.79007 0.74291,0.58376 0.0543,1.20313 0.94243,2.1875 1.97368,2.1875 1.03125,0 1.91941,-0.98437 1.97368,-2.1875 0.062,-1.37509 0.33805,-1.59159 0.74318,-0.58297 0.69533,1.73109 -1.67802,5.27047 -3.53415,5.27047 -0.62489,0 -1.45283,-0.82519 -1.83985,-1.83376 z m 32.9217,-0.2364 c -0.35917,-0.58016 1.40312,-0.98961 3.9162,-0.90989 2.51308,0.0797 4.89519,-0.36076 5.29356,-0.97884 0.39838,-0.61809 3.47175,-1.17895 6.82971,-1.24635 3.35797,-0.0674 7.6835,-0.57514 9.6123,-1.12831 1.9288,-0.55318 3.21186,-0.52837 2.85124,0.0551 -0.36062,0.58349 -2.7621,1.40834 -5.33662,1.833 -11.40007,1.88041 -13.69181,2.23966 -17.97216,2.81728 -2.49766,0.33706 -4.83507,0.13815 -5.19423,-0.44201 z m -9.63956,-1.67984 c 2.46982,-1.59612 6.61146,-1.59612 5.625,0 -0.4249,0.6875 -2.28622,1.24139 -4.13627,1.23086 -2.63096,-0.015 -2.95527,-0.28311 -1.48873,-1.23086 z m 10.34045,-7.5 c 0,-3.09375 0.24377,-4.35937 0.54172,-2.8125 0.29794,1.54688 0.29794,4.07813 0,5.625 -0.29795,1.54688 -0.54172,0.28125 -0.54172,-2.8125 z m 17.15955,-6.18789 c 0,-9.33505 -0.36055,-11.38966 -2.17709,-12.40624 -1.21749,-0.68135 -1.69302,-1.67291 -1.07887,-2.24962 0.60402,-0.56719 1.3388,-0.35973 1.63285,0.46103 0.29405,0.82075 1.48266,1.18956 2.64137,0.81958 1.8201,-0.58116 1.85163,-0.47625 0.23174,0.77107 -1.48728,1.14521 -0.97032,1.29949 2.5,0.74609 2.86175,-0.45635 3.5419,-0.34201 1.96639,0.33057 -2.2779,0.97245 -2.28626,1.07519 -0.15406,1.89339 1.24,0.47584 2.92757,0.30659 3.75017,-0.37611 1.12315,-0.93213 1.35186,-0.26174 0.91836,2.69188 -0.50627,3.44943 -0.76507,3.67629 -2.10436,1.84469 -0.83991,-1.14864 -2.16822,-2.08844 -2.9518,-2.08844 -0.78359,0 -1.4247,-0.5625 -1.4247,-1.25 0,-0.6875 -0.5625,-1.25 -1.25,-1.25 -1.81576,0 -1.58904,17.91096 0.25,19.75 1.16667,1.16667 1.02778,1.5 -0.625,1.5 -1.84172,0 -2.125,-1.49144 -2.125,-11.18789 z m -45.79938,-1.31211 c 0,-6.53125 0.21068,-9.20312 0.46818,-5.9375 0.2575,3.26563 0.2575,8.60938 0,11.875 -0.2575,3.26563 -0.46818,0.59375 -0.46818,-5.9375 z m 57.46964,1.25 c 0,-5.15625 0.22064,-7.26562 0.49032,-4.6875 0.26969,2.57813 0.26969,6.79688 0,9.375 -0.26968,2.57813 -0.49032,0.46875 -0.49032,-4.6875 z m -61.11257,6.14108 c -0.46192,-0.7474 -0.21387,-1.9849 0.55122,-2.75 1.02145,-1.02144 1.39109,-0.66035 1.39109,1.35892 0,3.01814 -0.64932,3.48318 -1.94231,1.39108 z m 20.88968,-1.14108 c 0,-1.71875 0.28371,-2.42187 0.63048,-1.5625 0.34677,0.85938 0.34677,2.26563 0,3.125 -0.34677,0.85938 -0.63048,0.15625 -0.63048,-1.5625 z m 6.09064,-0.5625 c -0.0277,-2.68916 0.33548,-3.31401 1.34152,-2.30797 0.98868,0.98868 0.99945,2.03343 0.038,3.6875 -1.17604,2.02328 -1.34621,1.85311 -1.37953,-1.37953 z m -2.43933,0.0417 c -0.0543,-1.3177 0.24116,-2.05599 0.65653,-1.64062 0.41536,0.41536 0.45977,1.49349 0.0987,2.39583 -0.39904,0.99717 -0.69523,0.70097 -0.75521,-0.75521 z m -3.60499,-8.85416 c -0.0255,-2.0625 0.23383,-3.05758 0.57623,-2.21129 0.3424,0.84629 0.36325,2.53379 0.0463,3.75 -0.31692,1.21621 -0.59707,0.52379 -0.62254,-1.53871 z m 6.04432,-0.0625 c 0.0333,-3.23264 0.20349,-3.40281 1.37953,-1.37953 0.96144,1.65408 0.95067,2.69882 -0.038,3.6875 -1.00604,1.00604 -1.36924,0.38119 -1.34152,-2.30797 z m 5.30244,-1.8125 c 0,-3.09375 0.24378,-4.35937 0.54172,-2.8125 0.29794,1.54688 0.29794,4.07813 0,5.625 -0.29794,1.54688 -0.54172,0.28125 -0.54172,-2.8125 z m -31.39308,1.25 c 0,-1.71875 0.28371,-2.42187 0.63048,-1.5625 0.34677,0.85938 0.34677,2.26563 0,3.125 -0.34677,0.85938 -0.63048,0.15625 -0.63048,-1.5625 z m 23.65131,0.72917 c -0.0543,-1.31771 0.24116,-2.05599 0.65653,-1.64063 0.41536,0.41537 0.45977,1.49349 0.0987,2.39584 -0.39904,0.99716 -0.69523,0.70096 -0.75521,-0.75521 z m -2.59563,-5.72917 c -1.17714,-3.78599 -0.77902,-5.01426 1.67005,-5.15243 1.48605,-0.0838 -0.61649,-0.6366 -4.6723,-1.22837 -7.36879,-1.07515 -9.24991,-1.78676 -8.00749,-3.02917 0.36298,-0.36299 2.18085,-0.0817 4.0397,0.625 1.85886,0.70673 6.01499,1.35152 9.23586,1.43286 3.22087,0.0813 7.54363,0.5248 9.60613,0.98547 l 3.75,0.83758 -3.125,0.85763 c -1.71875,0.4717 -3.30197,0.34109 -3.51826,-0.29025 -0.21629,-0.63133 -1.19744,-0.83929 -2.18032,-0.46212 -0.98288,0.37717 -1.47585,1.18932 -1.09547,1.80478 0.38038,0.61546 -0.41973,1.11902 -1.77801,1.11902 -1.35829,0 -2.75332,0.70313 -3.10009,1.5625 -0.34677,0.85938 -0.71793,1.28125 -0.8248,0.9375 z m -23.75305,-4.30123 c 0,-0.99068 0.52846,-2.12783 1.17435,-2.52702 0.64589,-0.39918 1.08869,0.41138 0.98399,1.80123 -0.21501,2.85443 -2.15834,3.50791 -2.15834,0.72579 z m 41.25,0.55123 c -1.45587,-0.94086 -1.09011,-1.216 1.63627,-1.23086 2.02636,-0.011 3.18456,0.50948 2.73873,1.23086 -0.95921,1.55204 -1.97339,1.55204 -4.375,0 z m -36.94231,-1.35892 c -0.46192,-0.7474 -0.33307,-1.8657 0.28634,-2.48511 0.66827,-0.66827 1.20232,-0.11571 1.3134,1.35891 0.20901,2.77471 -0.34142,3.16221 -1.59974,1.1262 z m 3.81731,-3.64108 c -0.4249,-0.6875 -0.21004,-1.25 0.47746,-1.25 0.6875,0 1.59764,0.5625 2.02254,1.25 0.4249,0.6875 0.21004,1.25 -0.47746,1.25 -0.6875,0 -1.59764,-0.5625 -2.02254,-1.25 z m -6.875,-1.36703 c 0,-0.62313 1.125,-1.13297 2.5,-1.13297 1.375,0 2.5,0.21565 2.5,0.47921 0,0.26357 -1.125,0.77341 -2.5,1.13298 -1.375,0.35957 -2.5,0.14392 -2.5,-0.47922 z"
       id="path4405"
        />
  </g>
  <path
     style="opacity:1;fill:#808080;fill-opacity:1;stroke:#808080;stroke-width:5;stroke-linejoin:round;stroke-miterlimit:4;stroke-dasharray:none;stroke-opacity:1"
     d="m 160.84443,192.218 c -3.96091,-14.78007 -2.75666,-119.76702 1.50229,-130.968876 4.58368,-12.055999 1.93595,-12.11757 112.10473,2.606534 85.78978,11.465827 117.28158,18.071865 122.97384,25.796287 2.98724,4.053665 4.91896,19.275865 4.91896,38.761885 0,25.56937 -1.39879,33.34842 -6.88655,38.29784 -7.25369,6.54214 -181.27271,34.36046 -214.94372,34.36046 -14.61086,0 -17.6652,-1.37489 -19.66955,-8.85413 z m 92.88716,-16.21693 c 4.44021,-6.82313 3.54691,-88.565905 -1.062,-97.177714 -3.1877,-5.956301 -8.32242,-7.611602 -23.61096,-7.611602 h -19.53737 v 57.429136 57.42913 l 20.65962,-2.81314 c 11.36276,-1.54721 21.9606,-4.81234 23.55071,-7.25581 z m 91.29661,-10.24802 c 9.64969,-3.66881 10.09409,-5.1949 10.09409,-34.66434 0,-18.63126 -1.94598,-33.35344 -4.91896,-37.21385 -2.70541,-3.513 -13.33035,-7.59416 -23.61096,-9.069249 l -18.69203,-2.681999 v 43.733608 43.73359 h 13.51688 c 7.4343,0 18.05924,-1.72698 23.61098,-3.83776 z"
     id="path882"
      />
</svg>
