<?xml version="1.0" encoding="UTF-8" standalone="no"?>
<svg
   xmlns:dc="http://purl.org/dc/elements/1.1/"
   xmlns:cc="http://creativecommons.org/ns#"
   xmlns:rdf="http://www.w3.org/1999/02/22-rdf-syntax-ns#"
   xmlns:svg="http://www.w3.org/2000/svg"
   xmlns="http://www.w3.org/2000/svg"
   xmlns:sodipodi="http://sodipodi.sourceforge.net/DTD/sodipodi-0.dtd"
   xmlns:inkscape="http://www.inkscape.org/namespaces/inkscape"
   viewBox="0 0 512 384"
   version="1.1"
   id="svg30"
   sodipodi:docname="monop014-wi4.svg"
   inkscape:version="0.92.3 (2405546, 2018-03-11)">
  <metadata
     id="metadata36">
    <rdf:RDF>
      <cc:Work
         rdf:about="">
        <dc:format>image/svg+xml</dc:format>
        <dc:type
           rdf:resource="http://purl.org/dc/dcmitype/StillImage" />
        <dc:title></dc:title>
      </cc:Work>
    </rdf:RDF>
  </metadata>
  <defs
     id="defs34" />
  <sodipodi:namedview
     pagecolor="#ffffff"
     bordercolor="#666666"
     borderopacity="1"
     objecttolerance="10"
     gridtolerance="10"
     guidetolerance="10"
     inkscape:pageopacity="0"
     inkscape:pageshadow="2"
     inkscape:window-width="1366"
     inkscape:window-height="705"
     id="namedview32"
     showgrid="true"
     inkscape:zoom="0.5"
     inkscape:cx="256"
     inkscape:cy="177.37777"
     inkscape:window-x="-8"
     inkscape:window-y="-8"
     inkscape:window-maximized="1"
     inkscape:current-layer="svg30">
    <inkscape:grid
       type="xygrid"
       id="grid857"
       spacingx="256"
       spacingy="192" />
  </sodipodi:namedview>
  <rect
     y="0"
     x="0"
     height="384"
     width="512"
     style="fill:none;)"
     id="rect2" />
  <text
     xml:space="preserve"
     style="font-style:normal;font-weight:normal;font-size:27.54262733px;line-height:0%;font-family:sans-serif;letter-spacing:0px;word-spacing:0px;display:inline;fill:#ff0000;fill-opacity:1;stroke:none;stroke-width:0.99999994px;stroke-linecap:butt;stroke-linejoin:miter;stroke-opacity:1"
     x="81.554535"
     y="383.31696"
     id="text4876-67-7"><tspan
       sodipodi:role="line"
       id="tspan4878-43-8"
       x="81.554535"
       y="383.31696"
       style="font-size:91.8087616px;line-height:1.25;stroke-width:0.99999994px"> </tspan></text>
  <g
     id="g4319"
     transform="matrix(3.3974149,0,0,3.3974149,-2468.1361,-2708.9945)"
     style="stroke-width:0.4849501">
    <path
       style="fill-opacity:1;stroke-width:0.4849501"
       d="m 799.92913,894.24811 c -0.87707,-3.49456 -2.71823,-4.09841 -3.81127,-1.25 -0.89421,2.3303 -3.44227,2.42161 -5.29456,0.18974 -1.0671,-1.28578 -0.80707,-2.22062 1.09694,-3.94374 3.30049,-2.98689 3.14789,-4.18487 -0.72036,-5.65558 -4.85938,-1.84753 -3.54057,-5.68926 1.80538,-5.25913 3.97571,0.31988 4.08896,0.20153 3.2897,-3.4375 -0.75371,-3.4316 -0.53929,-3.76879 2.39655,-3.76879 2.60594,0 3.22432,0.59933 3.22432,3.125 0,3.53478 1.45209,4.01882 3.75,1.25 0.85586,-1.03125 2.34864,-1.875 3.31729,-1.875 3.07644,0 3.37347,3.74471 0.53656,6.76446 l -2.71244,2.88726 3.80429,1.57579 c 4.05469,1.67951 4.35892,2.21263 2.72909,4.78248 -0.67402,1.06276 -2.19852,1.34345 -4.35586,0.80199 -3.05874,-0.7677 -3.31893,-0.5284 -3.31893,3.05251 0,3.03972 -0.53901,3.88551 -2.47618,3.88551 -1.59878,0 -2.75411,-1.10731 -3.26052,-3.125 z m -31.5029,-32.76399 c -4.10461,-0.78599 -11.00555,-8.14925 -11.91925,-12.71778 -1.91033,-9.55164 2.70522,-16.70962 12.91418,-20.0278 5.40508,-1.7568 6.96056,-2.85034 7.29599,-5.12928 1.82374,-12.39056 18.41481,-20.87647 30.74426,-15.72489 4.59618,1.9204 11.95442,8.93671 11.95442,11.39889 0,0.98501 2.65691,1.73156 7.37779,2.07303 16.71418,1.209 25.55027,17.4679 16.92157,31.13664 -5.73827,9.09002 -9.10603,9.84748 -43.04936,9.6825 -16.15625,-0.0785 -30.66407,-0.38962 -32.2396,-0.69131 z"
       id="path4325"
       inkscape:connector-curvature="0" />
    <path
       style="fill-opacity:1;stroke-width:0.4849501"
       d="m 800.01815,893.51983 -0.84633,-3.85327 -2.69049,2.44417 c -2.72911,2.47925 -5.8155,2.44013 -5.8155,-0.0737 0,-0.75778 1.21957,-2.67595 2.71016,-4.2626 l 2.71015,-2.88483 -3.96015,-1.38052 c -4.18315,-1.45825 -4.54305,-2.03188 -2.89981,-4.62189 0.7702,-1.21396 1.86331,-1.29111 4.43575,-0.31307 3.31941,1.26204 3.40284,1.18571 3.02129,-2.76406 -0.32452,-3.35939 0.04,-4.06193 2.10761,-4.06193 1.64091,0 2.63726,0.96648 2.89944,2.8125 0.46531,3.27634 2.29329,3.59117 5.26041,0.90597 1.85023,-1.67444 2.2923,-1.6829 3.63133,-0.0695 1.2337,1.48652 1.02937,2.26114 -1.07077,4.05934 -3.3785,2.89276 -3.27309,3.97088 0.52959,5.41666 1.99055,0.7568 3.125,2.15984 3.125,3.86485 0,2.70037 -1.05494,2.78824 -6.50184,0.54151 -1.83879,-0.75846 -2.02825,-0.2698 -1.39894,3.60818 0.63712,3.92613 0.40813,4.48546 -1.83635,4.48546 -1.84806,0 -2.8006,-1.0762 -3.41055,-3.85328 z"
       id="path4323"
       inkscape:connector-curvature="0" />
    <path
       style="fill-opacity:1;stroke-width:0.4849501"
       d="m 801.41304,896.45365 c -0.41097,-0.41096 -0.74721,-3.01097 -0.74721,-5.77778 0,-4.77123 -0.10145,-4.90549 -1.9677,-2.60417 -1.08223,1.33453 -1.55782,1.63637 -1.05686,0.67078 0.58418,-1.12601 0.41286,-1.44788 -0.47771,-0.89747 -0.7637,0.47199 -1.09953,1.61131 -0.7463,2.53183 0.7105,1.85153 -2.76701,3.6932 -4.70824,2.49346 -0.71577,-0.44237 -0.20538,-1.88316 1.21914,-3.44156 1.34768,-1.47435 2.83308,-4.08688 3.30089,-5.80563 0.61701,-2.26696 0.50942,-2.62969 -0.39182,-1.32107 -1.75398,2.5468 -7.95873,-0.22568 -6.86775,-3.06874 0.87155,-2.27122 3.7524,-1.69922 3.20773,0.63691 -0.22751,0.97582 0.39564,1.26825 1.66474,0.78125 1.11559,-0.42809 2.50694,-0.77835 3.09188,-0.77835 0.58494,0 1.42059,-1.125 1.857,-2.5 0.43641,-1.375 1.31806,-2.5 1.95924,-2.5 0.64117,0 1.16576,1.125 1.16576,2.5 0,3.27427 1.74438,3.17878 4.0004,-0.21898 1.31702,-1.98353 2.45711,-2.46272 4.21497,-1.77159 2.20623,0.86741 2.05679,1.24478 -1.77035,4.47058 l -4.17998,3.52321 4.49248,1.6245 c 4.7336,1.71169 5.02985,2.09175 3.50285,4.4938 -0.62744,0.98697 -1.57853,1.09989 -2.79336,0.33164 -3.64872,-2.30743 -5.32149,-1.41309 -4.55212,2.43377 0.69173,3.45869 -1.48351,6.12778 -3.41768,4.19361 z m -4.35221,-21.1343 c -0.0797,-1.47332 0.69875,-3.00254 1.73,-3.39827 1.03125,-0.39573 1.875,-0.17466 1.875,0.49126 0,0.66592 -0.52125,1.21077 -1.15835,1.21077 -0.63708,0 -1.41558,0.98437 -1.72999,2.1875 -0.45092,1.72547 -0.60228,1.62171 -0.71666,-0.49126 z"
       id="path4321"
       inkscape:connector-curvature="0" />
  </g>
  <path
     style="opacity:1;fill:#000000;fill-opacity:1;stroke:#000000;stroke-width:2;stroke-linejoin:round;stroke-miterlimit:4;stroke-dasharray:none;stroke-opacity:1"
     d="M 121.73086,198.42826 C 105.57036,182.26775 103.532,178.10402 103.532,161.25383 c 0,-24.69118 13.02279,-40.47443 43.65317,-52.90639 20.07277,-8.14694 23.45077,-11.224308 27.06848,-24.659484 10.18884,-37.838449 62.69503,-61.012441 101.2599,-44.691814 7.37315,3.120301 21.26365,14.368509 30.86781,24.996035 14.00198,15.493945 20.19317,19.340877 31.24505,19.414245 20.18936,0.134035 46.49856,13.587192 57.93817,29.626598 7.72826,10.83577 10.00286,19.38415 10.00286,37.59281 0,20.12125 -1.88555,25.90904 -12.8934,39.57707 -7.09137,8.80507 -19.27696,18.24678 -27.07904,20.98158 -9.47767,3.32213 -49.2788,5.05041 -119.92545,5.2075 l -105.73982,0.23514 z"
     id="path868"
     inkscape:connector-curvature="0" />
  <path
     style="opacity:1;fill:#808080;fill-opacity:1;stroke:#808080;stroke-width:9;stroke-linejoin:round;stroke-miterlimit:4;stroke-dasharray:none;stroke-opacity:1"
     d="m 249.86586,326.51191 c -4.75579,-10.4378 -5.33624,-10.60682 -12.90421,-3.75789 -8.2935,7.50549 -16.78148,5.58577 -16.78148,-3.79549 0,-3.02117 2.81206,-7.82682 6.24901,-10.67926 8.74414,-7.25697 7.85664,-10.4281 -4.49324,-16.0551 -13.70566,-6.24472 -10.91354,-15.11437 4.86091,-15.44148 10.52999,-0.21837 12.02686,-1.72983 11.34603,-11.45652 -0.58439,-8.34894 1.15004,-11.20497 6.80464,-11.20497 4.17391,0 8.56942,3.7494 9.76779,8.33202 2.28339,8.73168 13.1265,11.30708 17.53993,4.16599 3.83074,-6.19824 14.58102,-5.03858 14.58102,1.5729 0,3.15641 -2.81204,8.07271 -6.24901,10.92513 -9.20489,7.63938 -7.6373,14.69407 4.49324,20.22111 13.73426,6.25774 10.8676,15.18993 -4.87497,15.18993 -10.12086,0 -12.33337,1.88678 -13.4345,11.45652 -1.66871,14.50255 -10.4133,14.77519 -16.90516,0.52711 z"
     id="path872"
     inkscape:connector-curvature="0" />
</svg>
