<svg xmlns="http://www.w3.org/2000/svg" viewBox="0 0 512 384">
<rect width="512" height="384" id="P010WIImgRct2" fill="#fff" />

<path style="fill:#808080;stroke-width:0.99999994" d="m 125.50278,281.11771 c -31.29515,-9.83187 -49.53776,-57.42176 -33.7296,-87.9913 9.22526,-17.83978 34.87866,-34.80027 53.39662,-34.32824 12.32106,0.31407 23.62741,-0.51312 19.31879,-20.54359 -5.30438,-24.65966 24.40756,-51.825763 50.2778,-57.526494 34.82082,-11.1743 97.29883,7.95295 107.4372,37.723484 7.52869,24.87627 11.88164,12.97806 27.27747,12.66702 33.64299,-2.42906 73.36447,31.33528 76.54902,57.61849 5.64868,62.47401 -19.6238,93.04396 -54.25552,97.68837 l -116.04549,-0.42631 c -63.82504,-0.23437 -108.62028,3.60925 -130.22629,-4.88143 z" />
</svg>
