<svg xmlns="http://www.w3.org/2000/svg" viewBox="0 0 512 384">
<rect width="512" height="384" id="P010WIImgRct3" fill="#fff" />
<path style="opacity:1;fill:#000000;fill-opacity:1;stroke:#000000;stroke-width:2;stroke-linejoin:round;stroke-miterlimit:4;stroke-dasharray:none;stroke-opacity:1" d="m 219.05874,330.74556 c -12.25814,-12.25813 -14.97653,-29.05232 -6.50364,-40.17942 5.12834,-6.73486 56.66128,-37.86437 62.68206,-37.86437 2.00071,0 2.61071,14.65579 1.41064,33.89176 -1.98555,31.82563 -2.85209,34.55083 -14.21461,44.70324 -15.63929,13.97371 -29.01958,13.80366 -43.37445,-0.55121 z"
/>
<path style="fill:#808080;fill-opacity:1;stroke-width:0.99999994"
d="m 129.13942,229.13489 c -31.29515,-9.83187 -49.53776,-57.42176 -33.7296,-87.9913 9.22526,-17.83978 34.87866,-34.80027 53.39662,-34.32824 12.32106,0.31407 23.62741,-0.51312 19.31879,-20.543586 -5.30438,-24.65966 24.40755,-51.82576 50.27779,-57.5265 34.82082,-11.1743 97.29883,7.95295 107.4372,37.72349 7.52869,24.87627 11.88164,12.97806 27.27747,12.66702 33.64299,-2.42906 73.36447,31.335276 76.54902,57.618486 5.64868,62.47401 -19.6238,93.04396 -54.25552,97.68837 L 259.3657,234.01632 c -63.82504,-0.23437 -108.62027,3.60925 -130.22628,-4.88143 z"
/>
</svg>
