<svg xmlns="http://www.w3.org/2000/svg" viewBox="0 0 512 384">
<rect width="512" height="384" id="P010WIImgRct5" fill="#fff" />
<path style="opacity:1;fill:#000000;fill-opacity:1;stroke:#000000;stroke-width:8;stroke-linejoin:round;stroke-miterlimit:4;stroke-dasharray:none;stroke-opacity:1" d="m 219.59197,348.99506 c 7.35411,-24.43585 6.78466,-26.7028 -6.72354,-26.76644 -21.12112,-0.0996 -23.52204,-4.04422 -15.90645,-26.13425 12.77349,-37.05116 21.47408,-51.34914 33.18949,-54.54157 12.35938,-3.36789 30.92757,-0.51229 30.92757,4.75635 0,1.92189 -3.2747,9.91329 -7.27708,17.75861 -10.90349,21.3726 -9.76741,25.46975 7.06233,25.46975 7.88668,0 15.11008,1.24697 16.05201,2.77105 1.97655,3.19812 -54.84231,73.6382 -59.39854,73.6382 -1.66512,0 -0.73173,-7.62827 2.07421,-16.9517 z" />
<path style="fill:#808080;fill-opacity:1;stroke-width:0.99999994" d="m 128.86823,222.62642 c -31.29515,-9.83187 -49.53776,-57.42176 -33.7296,-87.9913 9.22526,-17.83978 34.87866,-34.800268 53.39662,-34.32824 12.32106,0.31407 23.62741,-0.513118 19.31879,-20.543598 -5.30438,-24.65966 24.40756,-51.82576 50.2778,-57.5265 34.82082,-11.1743 97.29883,7.95295 107.4372,37.72349 7.52869,24.87627 11.88164,12.97806 27.27747,12.66702 33.64299,-2.42906 73.36447,31.335288 76.54902,57.618498 5.64868,62.47401 -19.6238,93.04396 -54.25552,97.68837 l -116.04549,-0.42631 c -63.82504,-0.23437 -108.62028,3.60925 -130.22629,-4.88143 z" />
</svg>
