<svg xmlns="http://www.w3.org/2000/svg" viewBox="0 0 512 384">
<rect width="512" height="384" id="P010WIImgRct7" fill="#fff" />

<rect style="fill:#ffffff;stroke:#000000;stroke-width:23.26606369;stroke-miterlimit:4;stroke-dasharray:none;stroke-opacity:1" width="81.853996" height="235.32271" x="214.19327" y="34.835823" ry="40.926998" />
<circle style="fill:#ffffff;stroke:#000000;stroke-width:20.02818298;stroke-miterlimit:4;stroke-dasharray:none;stroke-opacity:1" cx="256.23801" cy="283.34003" r="68.985909" />
<rect style="fill:#ffffff;stroke:#ffffff;stroke-width:19.79176521;stroke-miterlimit:4;stroke-dasharray:none;stroke-opacity:1" width="38.880596" height="155.28783" x="235.62843" y="112.04632" ry="4.9120121" />
<path style="opacity:1;fill:#808080;fill-opacity:1;stroke:#808080;stroke-width:5;stroke-linejoin:round;stroke-miterlimit:4;stroke-dasharray:none;stroke-opacity:1" d="m 230.51319,317.5932 c -6.56325,-5.64546 -10.64824,-13.7671 -11.96712,-23.7926 -1.67569,-12.73792 -0.1143,-17.81438 9.56968,-31.11501 6.36464,-8.74152 13.04799,-21.58953 14.85191,-28.5511 2.57046,-9.91975 5.25959,-12.65741 12.43296,-12.65741 7.17443,0 10.00236,2.88024 13.08186,13.32387 2.16083,7.3281 8.63969,20.14549 14.39751,28.48309 11.2305,16.2623 12.99708,27.98249 6.21635,41.24152 -11.40812,22.30746 -40.33879,28.76077 -58.58315,13.06764 z" />
<rect style="fill:#000000;stroke:none;stroke-width:26.64929962;stroke-miterlimit:4;stroke-dasharray:none;stroke-opacity:1" width="42.305084" height="24" x="284.59195" y="176" ry="12" rx="13.514128" />
<rect style="fill:#000000;stroke:none;stroke-width:26.64929962;stroke-miterlimit:4;stroke-dasharray:none;stroke-opacity:1" width="42.305084" height="24" x="284.59155" y="82.271179" ry="12" rx="13.514128" />
<rect style="fill:#000000;stroke:none;stroke-width:26.64929962;stroke-miterlimit:4;stroke-dasharray:none;stroke-opacity:1" width="42.305084" height="24" x="284.59155" y="128.64407" ry="12" rx="13.514128" />
<rect style="fill:#808080;stroke:none;stroke-width:18.05564308;stroke-miterlimit:4;stroke-dasharray:none;stroke-opacity:1" width="37.96804" height="201.92093" x="235.86206" y="88.309517" rx="18.98402" ry="28.59857" />
</svg>
