<svg xmlns="http://www.w3.org/2000/svg" viewBox="0 0 1024 768">
<rect width="1024" height="768" id="P010WIImgRctX" fill="#fff"/>


<path d="m 392.62058,639.7444 c 1.43256,-0.92588 3.77676,-1.68324 5.20933,-1.68324 2.31527,0 2.31527,0.18698 0,1.68324 -1.43257,0.92573 -3.77677,1.68324 -5.20933,1.68324 -2.31527,0 -2.31527,-0.18698 0,-1.68324 0,0 0,0 0,0 m 11.88294,-1.61379 c 4.89758,-4.26846 6.81796,-15.21695 3.44322,-19.63058 -2.41347,-3.15644 -10.11683,-2.53799 -10.11683,0.8121 0,0.95504 1.47968,1.34943 3.28818,0.87656 2.79584,-0.73112 3.19317,-0.0472 2.6537,4.57268 -0.34897,2.98794 -0.20072,4.45586 0.32941,3.26202 1.56425,-3.52248 3.90252,-2.47742 2.91408,1.30233 -0.4995,1.91009 -1.5458,3.47289 -2.32509,3.47289 -1.89463,0 -3.87408,-6.49 -2.6055,-8.54261 0.55334,-0.89531 -0.70247,-1.87898 -2.79068,-2.18598 -4.95009,-0.72792 -6.2695,-4.87608 -1.91324,-6.01532 2.51651,-0.65805 3.2325,-2.08221 2.77962,-5.52871 -0.3355,-2.55327 -0.0868,-3.47025 0.55277,-2.03761 0.63953,1.4325 3.37803,4.67631 6.08555,7.20833 7.64885,7.15304 6.33629,19.82479 -2.49693,24.10589 -3.7784,1.83133 -3.77376,1.79285 0.20174,-1.67199 0,0 0,0 0,0 m -19.05021,-1.42499 c -2.15992,-2.75414 -2.0985,-2.81555 0.65559,-0.65568 1.67134,1.3108 3.03878,2.67829 3.03878,3.03877 0,1.42917 -1.42594,0.50941 -3.69437,-2.38309 0,0 0,0 0,0 m -2.93439,-10.60066 c -0.0971,-7.03885 2.46892,-10.70136 9.18051,-13.10335 4.25804,-1.52391 2.33652,0.53955 -2.9551,3.17325 -2.9637,1.47514 -4.00283,3.58805 -4.20078,8.54192 -0.35547,8.89519 -1.90636,9.95845 -2.02463,1.38818 0,0 0,0 0,0 m 4.89232,4.95721 c 0,-0.95505 0.34458,-1.73645 0.76574,-1.73645 0.42117,0 1.24867,0.7814 1.83893,1.73645 0.59025,0.95504 0.24566,1.73644 -0.76575,1.73644 -1.0114,0 -1.83892,-0.7814 -1.83892,-1.73644 0,0 0,0 0,0 m 5.20934,-25.83414 c 0,-5.43146 3.35284,-9.41465 6.30727,-7.49313 2.17514,1.41473 2.49217,7.558 0.32078,6.21594 -0.81145,-0.50149 -1.02581,-1.63921 -0.47634,-2.52827 0.54946,-0.88906 -0.30788,-1.61642 -1.9052,-1.61642 -2.23921,0 -2.72917,1.19287 -2.13968,5.20934 0.42053,2.86513 0.1185,5.20933 -0.67113,5.20933 -0.78964,0 -1.4357,-2.24849 -1.4357,-4.99679 0,0 0,0 0,0" />
<path d="m 621.38898,639.8822 c -5.89387,-3.13699 -7.81022,-5.44493 -7.65034,-9.21362 0.0968,-2.28183 0.23571,-2.28568 1.12072,-0.031 2.29647,5.85063 13.17099,12.01542 15.25285,8.64689 0.56769,-0.91854 2.52138,-1.67009 4.34149,-1.67009 4.58659,0 8.19818,-6.86729 4.9537,-9.41927 -1.31473,-1.0341 -2.62985,-2.98638 -2.9225,-4.33839 -0.43982,-2.03194 -0.0635,-2.06926 2.17055,-0.21522 2.25704,1.87318 2.70265,1.77848 2.70265,-0.57428 0,-1.54951 -0.7814,-2.81729 -1.73645,-2.81729 -0.95504,0 -1.73644,-1.34597 -1.73644,-2.99104 0,-2.51147 0.41623,-2.39678 2.596,0.71526 2.20146,3.14304 2.47764,7.41372 1.071,16.56142 -0.25669,1.66925 -7.11164,5.94108 -11.48101,7.15469 -1.91009,0.53054 -5.81709,-0.28308 -8.68222,-1.80804 0,0 0,-4e-5 0,-4e-5 m 2.60466,-4.00429 c -1.56505,-1.0114 -1.77921,-1.69388 -0.53658,-1.70985 1.13744,-0.0146 2.551,0.75481 3.14125,1.70985 1.33238,2.15585 0.73125,2.15585 -2.60467,0 0,0 0,0 0,0 m 11.6898,-3.47289 c 1.63548,-1.91009 3.21812,-3.47289 3.51699,-3.47289 0.29888,0 -0.29297,1.5628 -1.31522,3.47289 -1.02225,1.91009 -2.60489,3.47289 -3.517,3.47289 -0.91209,0 -0.32024,-1.5628 1.31523,-3.47289 0,0 0,0 0,0 m -8.65102,-1.15001 c 1.1938,-0.48172 3.1473,-0.48172 4.34112,0 1.1938,0.4817 0.21705,0.87583 -2.17056,0.87583 -2.38761,0 -3.36437,-0.39413 -2.17056,-0.87583 0,0 0,0 0,0 m -8.08525,-1.80706 c 0.6627,-0.37528 0.82909,-2.11947 0.36974,-3.87599 -0.45932,-1.75652 -0.15788,-3.61225 0.66994,-4.12385 0.82778,-0.51162 1.41553,1.11536 1.30608,3.61548 -0.10947,2.50014 -0.95311,4.66293 -1.87482,4.80619 -0.9217,0.14328 -1.13363,-0.0465 -0.47094,-0.42183 0,0 0,0 0,0 m -3.66875,-10.02653 c 2.50071,-3.01314 3.50589,-3.32673 3.50589,-1.09375 0,0.85288 -1.28262,2.04287 -2.85029,2.64443 -2.38322,0.91452 -2.49064,0.66043 -0.6556,-1.55068 0,0 0,0 0,0 m 14.72138,-6.23282 c -1.84052,-2.97803 -0.1923,-3.27024 3.4448,-0.61073 2.81666,2.05959 2.90405,2.4627 0.53386,2.4627 -1.55873,0 -3.34913,-0.83339 -3.97866,-1.85197 0,0 0,0 0,0 m -5.86907,-5.81733 c -0.0754,-1.8305 0.33501,-2.85609 0.91202,-2.27909 0.577,0.57701 0.63869,2.07469 0.13711,3.32818 -0.55433,1.38523 -0.96578,0.97376 -1.04911,-1.04909 0,0 -2e-5,0 -2e-5,0 m 5.07225,-0.0422 c 0,-0.42116 0.7814,-1.24867 1.73645,-1.83892 0.95504,-0.59026 1.73644,-0.24566 1.73644,0.76574 0,1.0114 -0.7814,1.83893 -1.73644,1.83893 -0.95505,0 -1.73645,-0.34458 -1.73645,-0.76575 0,0 0,0 0,0 m 1.39963,-26.01248 c 0.52509,-21.31833 0.48373,-21.58535 -3.47289,-22.42728 -3.70132,-0.78759 -3.67583,-0.83055 0.33682,-0.56764 0,0 4.34111,0.28445 4.34111,0.28445 0,0 0.486,22.13968 0.486,22.13968 0.26728,12.17682 -0.12336,22.1411 -0.86823,22.14285 -0.74482,10e-4 -1.11509,-9.70569 -0.82281,-21.57206 0,0 0,0 0,0 m -6.47188,-10.41064 c -0.0754,-1.83051 0.33501,-2.8561 0.91202,-2.2791 0.577,0.57702 0.63869,2.0747 0.13711,3.32819 -0.55433,1.38522 -0.96578,0.97375 -1.04911,-1.04909 0,0 -2e-5,0 -2e-5,0" />
<path d="m 810.66597,645.51565 c -1.5394,-1.53939 -2.08374,-17.58731 -2.08374,-61.43119 0,-63.95522 0.0377,-64.21822 9.02077,-62.94477 0,0 4.00258,0.5674 4.00258,0.5674 0,0 0.45667,61.52739 0.45667,61.52739 0.47469,63.95351 0.44226,64.26854 -6.62106,64.33832 -1.48031,0.0146 -3.62917,-0.91109 -4.77522,-2.05715 0,0 0,0 0,0 m 21.25901,-59.19263 c -0.47218,-1.23046 -0.643,-15.10033 -0.37962,-30.82191 0,0 0.47889,-28.58468 0.47889,-28.58468 0,0 5.49513,-0.53306 5.49513,-0.53306 4.71538,-0.45744 70.44024,8.19016 84.38379,11.10259 8.36193,1.74659 9.96669,4.90411 9.96669,19.6104 0,8.11276 -0.87271,14.62917 -2.20284,16.44823 -1.72841,2.36373 -10.98453,4.30146 -42.97702,8.99708 -44.67708,6.55734 -53.46688,7.16426 -54.76502,3.78135 0,0 0,0 0,0 m 35.26229,-7.45167 c 3.78744,-0.7716 3.907,-1.42639 3.907,-21.39769 0,-22.93171 0.15957,-22.66231 -13.45745,-22.71952 0,0 -5.64345,-0.0237 -5.64345,-0.0237 0,0 0,22.28439 0,22.28439 0,12.2564 0.40907,22.69344 0.90904,23.19341 0.86491,0.86492 5.69662,0.41273 14.28486,-1.33688 0,0 0,4e-5 0,4e-5 m 38.41886,-5.28795 c 0,0 5.42639,-1.08528 5.42639,-1.08528 0,0 0,-14.44025 0,-14.44025 0,-7.94214 -0.7166,-14.88313 -1.59245,-15.42443 -0.87583,-0.54131 -5.17354,-1.47504 -9.55045,-2.07496 0,0 -7.958,-1.09076 -7.958,-1.09076 0,0 0,17.60048 0,17.60048 0,19.61366 -0.25826,19.30175 13.67451,16.5152 0,0 0,0 0,0" />
<path d="m 809.45908,642.06152 c -0.53831,-2.20691 -0.76046,-29.7988 -0.49368,-61.31528 0,0 0.48506,-57.3027 0.48506,-57.3027 0,0 6.07756,0 6.07756,0 0,0 6.07756,0 6.07756,0 0,0 0,60.77559 0,60.77559 0,0 0,60.77559 0,60.77559 0,0 -5.58387,0.53969 -5.58387,0.53969 -4.6166,0.44619 -5.75342,-0.15539 -6.56263,-3.47289 0,0 0,0 0,0 m 22.75095,-56.24796 c -0.5797,-1.51068 -1.054,-14.69882 -1.054,-29.30696 0,-22.10554 0.46086,-26.94275 2.74776,-28.84072 3.87037,-3.21212 89.79514,8.89043 94.71214,13.34026 4.37572,3.95997 4.76906,28.42646 0.52523,32.67028 -1.50078,1.50079 -2.87387,2.7287 -3.05131,2.7287 -0.17745,0 -19.00931,2.7349 -41.84859,6.07756 -47.28441,6.92033 -50.57303,7.13088 -52.03123,3.33088 0,0 0,0 0,0 m 33.24079,-5.91183 c 0,0 5.64345,-0.0238 5.64345,-0.0238 0,0 0,-21.76006 0,-21.76006 0,-15.89365 -0.58517,-21.94042 -2.17055,-22.42903 -1.19382,-0.36792 -5.49152,-1.13402 -9.55046,-1.70247 0,0 -7.37989,-1.0335 -7.37989,-1.0335 0,0 0,24.53328 0,24.53328 0,0 0,24.53328 0,24.53328 0,0 3.907,-1.04704 3.907,-1.04704 2.14885,-0.57587 6.44655,-1.0577 9.55045,-1.07074 0,0 0,4e-5 0,4e-5 m 41.6747,-6.32751 c 3.67461,-0.98476 3.907,-1.95163 3.907,-16.25547 0,0 0,-15.20843 0,-15.20843 0,0 -5.42639,-1.08527 -5.42639,-1.08527 -13.9131,-2.78262 -13.67451,-3.06665 -13.67451,16.27917 0,0 0,17.36446 0,17.36446 0,0 5.64345,-0.0238 5.64345,-0.0238 3.10389,-0.0125 7.40159,-0.49487 9.55045,-1.07074 0,0 0,4e-5 0,4e-5" />
<path d="m 810.37977,642.50421 c -1.94675,-3.63753 -2.56309,-109.07957 -0.67874,-116.115 0.87282,-3.25872 2.07529,-3.90239 6.48796,-3.47289 0,0 5.41659,0.52722 5.41659,0.52722 0,0 0.48505,57.3027 0.48505,57.3027 0.26678,31.51648 0.0565,59.06086 -0.46719,61.2097 -1.21614,4.98973 -8.6721,5.3533 -11.24367,0.54827 0,0 0,0 0,0 m 22.85999,-56.0277 c -3.2917,-3.29171 -2.88674,-55.86375 0.45167,-58.63438 2.00869,-1.66707 11.83896,-0.79141 47.31814,4.21495 52.71575,7.43857 50.86029,6.48866 50.86029,26.03861 0,9.77 -0.67536,13.16626 -3.03878,15.28142 -2.07027,1.8528 -16.61628,4.70577 -45.63913,8.95136 -48.22751,7.05493 -47.13594,6.96429 -49.95219,4.14804 0,0 0,0 0,0 m 33.94751,-6.57938 c 3.85037,-0.0189 3.907,-0.34635 3.907,-22.59291 0,0 0,-22.57379 0,-22.57379 0,0 -4.99228,0 -4.99228,0 -2.74575,0 -7.35921,-0.47338 -10.25211,-1.05197 0,0 -5.25983,-1.05196 -5.25983,-1.05196 0,0 -0.23379,24.73208 -0.23379,24.73208 0,0 -0.23378,24.7321 -0.23378,24.7321 0,0 6.5789,-1.08723 6.5789,-1.08723 3.61839,-0.59796 8.33703,-1.09582 10.48589,-1.10632 0,0 0,0 0,0 m 41.24058,-6.13329 c 3.16676,-0.61993 3.47289,-2.06412 3.47289,-16.38374 0,-9.24263 -0.71446,-15.74648 -1.73644,-15.80739 -0.95505,-0.057 -5.44811,-0.71446 -9.98457,-1.46117 0,0 -8.24811,-1.35764 -8.24811,-1.35764 0,0 0,18.71644 0,18.71644 0,0 0,18.71644 0,18.71644 0,0 6.51167,-0.87153  6.51167,-0.87153 3.58141,-0.47936 8.07447,-1.17748 9.98456,-1.55141 0,0 0,0 0,0" />
<path d="m 811.41911,642.76579 c -0.46253,-0.74839 1.24951,-1.33445 3.80453,-1.30233 0,0 4.64549,0.0583 4.64549,0.0583 0,0 0.93368,-28.65135 0.93368,-28.65135 0,0 0.93369,-28.65135 0.93369,-28.65135 0,0 0.36864,27.207 0.36864,27.207 0.20276,14.96384 -0.10571,28.44301 -0.68535,29.95369 -1.07858,2.81076 -8.48568,3.83729 -10.00068,1.38597 0,0 0,3e-5 0,3e-5 m 5.98243,-42.77394 c -0.0754,-1.83051 0.33501,-2.8561 0.91203,-2.2791 0.577,0.57702 0.63869,2.0747 0.13711,3.3282 -0.55433,1.38521 -0.96579,0.97374 -1.04911,-1.0491 0,0 -3e-5,0 -3e-5,0 m -0.14155,-41.05065 c -0.83555,-29.49205 -0.75109,-30.49569 2.58725,-30.74504 2.18318,-0.16307 2.67765,0.22018 1.34595,1.04321 -1.48284,0.91644 -2.24759,10.00415 -2.58725,30.74505 0,0 -0.4822,29.44404 -0.4822,29.44404 0,0 -0.86375,-30.48726 -0.86375,-30.48726 0,0 0,0 0,0 m 16.06659,27.63301 c -1.55241,-1.56019 -2.17055,-9.97745 -2.17055,-29.55618 0,-24.88684 0.29282,-27.53146 3.22194,-29.09908 4.51977,-2.41891 88.48983,9.70352 92.71667,13.38515 2.3826,2.07527 3.03878,5.42553 3.03878,15.51518 0,17.21568 -1.11373,18.90663 -13.40818,20.35731 -5.5186,0.65118 -22.14554,3.0173 -36.94874,5.25807 -42.38527,6.41586 -44.03837,6.56318 -46.44992,4.13955 0,0 0,0 0,0 m 37.55053,-7.63665 c 1.23063,-1.23064 1.46754,-40.44753 0.25618,-42.40755 -0.57202,-0.92554 -5.50321,-2.20737 -10.95819,-2.84849 0,0 -9.91817,-1.16568 -9.91817,-1.16568 0,0 0,24.78838 0,24.78838 0,0 0,24.78839 0,24.78839 0,0 9.89558,-1.16303 9.89558,-1.16303 5.44258,-0.63967 10.26865,-1.53608 10.7246,-1.99202 0,0 0,0 0,0 m 39.7213,-5.21223 c 1.52528,-0.48073 2.17055,-5.33647 2.17055,-16.33352 0,-17.49274 0.53754,-16.84234 -14.75978,-17.85876 0,0 -6.94578,-0.46151 -6.94578,-0.46151 0,0 -0.17525,17.36446 -0.17525,17.36446 -0.0964,9.55045 0.16824,17.98799 0.58807,18.7501 0.68703,1.24711 13.67954,0.2546 19.12219,-1.46077 0,0 0,0 0,0 M 810.58545,526.81356 c 0.76582,-3.9765 6.24309,-5.43712 9.03402,-2.40908 1.53548,1.66595 1.30804,1.91662 -1.00243,1.10484 -1.68713,-0.59275 -4.2262,0.18768 -5.83072,1.79219 -2.63196,2.63197 -2.79476,2.59588 -2.20087,-0.48795 0,0 0,0 0,0" />
<path d="m 835.49714,586.8238 c -1.35822,-2.19765 0.94051,-2.19765 4.34111,0 2.24469,1.45062 2.19884,1.68693 -0.33163,1.70985 -1.61496,0.0146 -3.41923,-0.75481 -4.00948,-1.70985 0,0 0,0 0,0 m 8.83726,-1.48561 c -0.50499,-0.81707 1.01169,-1.11669 3.37041,-0.66579 2.3587,0.4509 4.28856,1.11942 4.28856,1.4856 0,1.34358 -6.76977,0.61895 -7.65897,-0.81981 0,0 0,0 0,0 m 9.39542,-1.88481 c 0,-1.0114 0.7814,-1.83892 1.73644,-1.83892 0.95505,0 1.73645,0.34458 1.73645,0.76574 0,0.42117 -0.7814,1.24868 -1.73645,1.83893 -0.95504,0.59025 -1.73644,0.24566 -1.73644,-0.76575 0,0 0,0 0,0 m 5.20933,0.0857 c 0,-1.05857 1.36745,-2.03596 3.03878,-2.17197 1.67132,-0.136 5.65738,-0.46182 8.85792,-0.72407 3.2005,-0.26223 7.64568,-0.93522 9.87814,-1.49554 2.23245,-0.56031 4.54372,-0.23447 5.13612,0.72407 0.62946,1.01848 -1.31097,1.83493 -4.6688,1.96444 -7.59295,0.29284 -11.69867,0.84984 -17.46693,2.36962 -3.09394,0.81517 -4.77523,0.58049 -4.77523,-0.66655 0,0 0,0 0,0 m -16.71452,-4.47201 c -0.53765,-1.40108 -0.57481,-3.54992 -0.0825,-4.77523 0.56204,-1.39917 0.94592,-1.09753 1.03202,0.81094 0.0754,1.67133 1.30918,3.03878 2.74175,3.03878 1.43257,0 2.66636,-1.36745 2.74175,-3.03878 0.0861,-1.91022 0.46961,-2.21097 1.0324,-0.80984 0.96592,2.40476 -2.33104,7.32151 -4.90949,7.32151 -0.86807,0 -2.01821,-1.14632 -2.55584,-2.54738 0,0 -7e-5,0 -7e-5,0 m 45.73339,-0.3284 c -0.49894,-0.80593 1.94915,-1.37472 5.44021,-1.26398 3.49106,0.11072 6.80019,-0.50115 7.35359,-1.35976 0.55341,-0.85862 4.8228,-1.63774 9.48753,-1.73137 4.66475,-0.0936 10.67358,-0.79896 13.35299,-1.5674 2.6794,-0.76846 4.46178,-0.73399 3.96082,0.0765 -0.50096,0.81056 -3.83699,1.95641 -7.4134,2.54632 -15.83648,2.61219 -19.02007,3.11124 -24.96614,3.91365 -3.46964,0.46823 -6.71667,0.19191 -7.2156,-0.61402 0,0 0,2e-5 0,2e-5 m -13.39086,-2.33356 c 3.43097,-2.21726 9.18435,-2.21726 7.81401,0 -0.59025,0.95505 -3.17592,1.72449 -5.74593,1.70986 -3.65481,-0.0208 -4.10533,-0.39328 -2.06808,-1.70986 0,0 0,0 0,0 m 14.36451,-10.41867 c 0,-4.2977 0.33863,-6.05585 0.75253,-3.907 0.41388,2.14886 0.41388,5.66516 0,7.814 -0.4139,2.14886 -0.75253,0.3907 -0.75253,-3.907 0,0 0,0 0,0 m 23.83729,-8.59595 c 0,-12.96784 -0.50086,-15.82202 -3.02431,-17.2342 -1.69129,-0.94651 -2.35187,-2.32394 -1.49872,-3.12508 0.83907,-0.78791 1.8598,-0.49972 2.26828,0.64044 0.40848,1.14015 2.05965,1.65249 3.66928,1.13853 2.5284,-0.80732 2.5722,-0.66159 0.32192,1.07114 -2.06607,1.59087 -1.34793,1.80519 3.47289,1.03643 3.97542,-0.63394 4.92025,-0.4751 2.73162,0.45921 -3.16436,1.35089 -3.17597,1.49361 -0.21401,2.63022 1.72255,0.66102 4.06685,0.4259 5.20957,-0.52248 1.56023,-1.29487 1.87795,-0.36359 1.27575,3.73945 -0.70329,4.79179 -1.0628,5.10694 -2.92329,2.56256 -1.16676,-1.59564 -3.01199,-2.90117 -4.10051,-2.90117 -1.08853,0 -1.97913,-0.7814 -1.97913,-1.73645 0,-0.95504 -0.7814,-1.73644 -1.73645,-1.73644 -2.52237,0 -2.20742,24.88112 0.34729,27.43584 1.62069,1.62068 1.42775,2.08373 -0.86822,2.08373 -2.55844,0 -2.95196,-2.07184 -2.95196,-15.54173 0,0 0,0 0,0 m -63.6225,-1.82272 c 0,-9.07293 0.29267,-12.78458 0.65038,-8.24812 0.35771,4.53647 0.35771,11.95978 0,16.49623 -0.35771,4.53647 -0.65038,0.82481 -0.65038,-8.24811 0,0 0,0 0,0 m 79.83432,1.73644 c 0,-7.16284 0.3065,-10.09308 0.68113,-6.51167 0.37464,3.58143 0.37464,9.44193 0,13.02334 -0.37463,3.58143 -0.68113,0.65117 -0.68113,-6.51167 0,0 0,0 0,0 m -84.89492,8.53092 c -0.64168,-1.03825 -0.2971,-2.75733 0.76573,-3.82018 1.41896,-1.41894 1.93244,-0.91733 1.93244,1.88776 0,4.19266 -0.902,4.83868 -2.69817,1.93242 0,0 0,0 0,0 M 873.1049,564.25 c 0,-2.38761 0.39411,-3.36435 0.87583,-2.17055 0.48172,1.19381 0.48172,3.14731 0,4.34111 -0.48172,1.19381 -0.87583,0.21706 -0.87583,-2.17056 0,0 0,0 0,0 m 8.46085,-0.7814 c -0.0385,-3.73566 0.46603,-4.60367 1.86358,-3.20613 1.37343,1.37343 1.38839,2.82476 0.0528,5.12252 -1.63371,2.81065 -1.8701,2.57426 -1.91639,-1.91639 0,0 2e-5,0 2e-5,0 m -3.38861,0.0579 c -0.0754,-1.83049 0.335,-2.85609 0.91202,-2.27908 0.577,0.577 0.63869,2.0747 0.13711,3.32819 -0.55433,1.38522 -0.96578,0.97375 -1.04911,-1.04911 0,0 -2e-5,0 -2e-5,0 m -5.0079,-12.29981 c -0.0354,-2.86514 0.32483,-4.24746 0.80047,-3.07183 0.47565,1.17563 0.50462,3.51983 0.0643,5.20934 -0.44025,1.6895 -0.82942,0.72762 -0.8648,-2.13751 0,0 10e-6,0 10e-6,0 m 8.39651,-0.0868 c 0.0463,-4.49065 0.28268,-4.72704 1.91638,-1.91639 1.33559,2.29778 1.32063,3.74909 -0.0528,5.12252 -1.39755,1.39754 -1.90209,0.52953 -1.86358,-3.20613 0,0 -10e-6,0 -10e-6,0 m 7.36592,-2.51785 c 0,-4.2977 0.33864,-6.05585 0.75253,-3.907 0.41388,2.14886 0.41388,5.66516 0,7.814 -0.41389,2.14886 -0.75253,0.3907 -0.75253,-3.907 0,0 0,0 0,0 m -43.6099,1.73645 c 0,-2.38762 0.39411,-3.36436 0.87583,-2.17056 0.48172,1.19381 0.48172,3.14731 0,4.34111 -0.48172,1.19382 -0.87583,0.21706 -0.87583,-2.17055 0,0 0,0 0,0 m 32.85537,1.01293 c -0.0754,-1.83051 0.335,-2.85609 0.91202,-2.27909 0.577,0.57701 0.63869,2.07469 0.13711,3.32819 -0.55433,1.38521 -0.96578,0.97375 -1.04911,-1.0491 0,0 -2e-5,0 -2e-5,0 m -3.60574,-7.95872 c -1.63523,-5.25933 -1.08218,-6.96559 2.31996,-7.15753 2.06436,-0.11641 -0.8564,-0.88433 -6.49055,-1.7064 -10.23641,-1.49355 -12.84958,-2.48208 -11.12366,-4.20799 0.50424,-0.50425 3.02954,-0.11349 5.61177,0.86823 2.58225,0.98176 8.35577,1.87747 12.83006,1.99046 4.47429,0.11294 10.47928,0.72903 13.34442,1.36898 0,0 5.20933,1.16352 5.20933,1.16352 0,0 -4.34111,1.19139 -4.34111,1.19139 -2.38761,0.65526 -4.58695,0.47382 -4.88742,-0.40321 -0.30046,-0.87701 -1.66343,-1.1659 -3.0288,-0.64195 -1.36538,0.52395 -2.05019,1.65215 -1.52178,2.50712 0.52841,0.85497 -0.58307,1.55449 -2.46993,1.55449 -1.88688,0 -3.8248,0.97676 -4.30651,2.17056 -0.48172,1.19381 -0.99732,1.77986 -1.14578,1.30233 0,0 0,0 0,0 m -32.9967,-5.97508 c 0,-1.37621 0.73411,-2.95589 1.63135,-3.51042 0.89725,-0.55453 1.51236,0.57147 1.36692,2.50219 -0.29868,3.96525 -2.99827,4.87303 -2.99827,1.00823 0,0 0,0 0,0 m 57.3027,0.76575 c -2.02243,-1.307 -1.51433,-1.68922 2.27303,-1.70986 2.81494,-0.0153 4.42386,0.70775 3.80453,1.70986 -1.33249,2.15602 -2.74135,2.15602 -6.07756,0 0,0 0,0 0,0 m -51.31865,-1.88775 c -0.64168,-1.03826 -0.46268,-2.59175 0.39777,-3.45221 0.92834,-0.92833 1.67022,-0.16074 1.82452,1.88774 0.29035,3.8545 -0.47428,4.3928 -2.22229,1.56447 0,0 0,0 0,0 m 5.30284,-5.05803 c -0.59025,-0.95505 -0.29177,-1.73645 0.66327,-1.73645 0.95505,0 2.21937,0.7814 2.80963,1.73645 0.59025,0.95504 0.29177,1.73644 -0.66327,1.73644 -0.95505,0 -2.21937,-0.7814 -2.80963,-1.73644 0,0 0,0 0,0 m -9.55045,-1.89902 c 0,-0.86563 1.5628,-1.57388 3.47289,-1.57388 1.91009,0 3.4729,0.29958 3.4729,0.6657 0,0.36614 -1.56281,1.07439 -3.4729,1.57389 -1.91009,0.4995 -3.47289,0.19993 -3.47289,-0.66571 0,0 0,0 0,0" />
<path d="m 386.4517,638.68455 c -2.77349,-2.38565 -4.49972,-5.81768 -5.05705,-10.05424 -0.70811,-5.38277 -0.0483,-7.52797 4.04394,-13.14853 2.68956,-3.69398 5.5138,-9.12327 6.2761,-12.06508 1.08622,-4.19187 2.22259,-5.34875 5.2539,-5.34875 3.03176,0 4.22678,1.21713 5.52811,5.63038 0.91312,3.0967 3.65095,8.51305 6.08408,12.03634 4.74577,6.8721 5.49229,11.8248 2.6269,17.42778 -4.82083,9.42665 -17.04631,12.15368 -24.75598,5.5221 0,0 0,0 0,0" style="fill:#808080;stroke:#808080;stroke-width:5;stroke-linejoin:round" />
<path d="m 617.18295,637.6043 c -6.87133,-6.87133 -5.72713,-19.00417 2.43069,-25.77456 2.03264,-1.68694 2.55584,-6.16859 2.70942,-23.20866 0.23482,-26.05464 1.0778,-30.60384 5.79569,-31.27667 4.63046,-0.66036 5.06159,1.54648 5.62621,28.79918 0.42708,20.61419 0.6954,22.21598 4.71578,28.15186 5.52529,8.1578 6.62976,12.17605 4.72431,17.18778 -4.37732,11.51322 -17.51682,14.60635 -26.0021,6.12107 0,0 0,0 0,0"
style="fill:#808080;stroke:#808080;stroke-width:5;stroke-linejoin:round" />
<path
d="m 832.27474,584.0788 c -1.6192,-6.04203 -1.12691,-48.96024 0.61413,-53.53951 1.87379,-4.92844 0.79141,-4.95361 45.82793,1.06554 35.07049,4.68718 47.9442,7.3877 50.27117,10.54541 1.22117,1.65712 2.01085,7.87989 2.01085,15.84569 0,10.45265 -0.57182,13.63269 -2.81519,15.65599 -2.96528,2.6744 -74.1035,14.04641 -87.86806,14.04641 -5.97286,0 -7.22146,-0.56205 -8.04083,-3.61953 0,0 0,0 0,0 m 37.97187,-6.62941 c 1.81514,-2.78927 1.44996,-36.20536 -0.43414,-39.72583 -1.30312,-2.43491 -3.40217,-3.11159 -9.65206,-3.11159 0,0 -7.98679,0 -7.98679,0 0,0 0,23.47678 0,23.47678 0,0 0,23.47678 0,23.47678 0,0 8.44556,-1.15 8.44556,-1.15 4.64505,-0.63249 8.9774,-1.96726 9.62743,-2.96614 0,0 0,0 0,0 m 37.32166,-4.18935 c 3.94475,-1.49979 4.12642,-2.12365 4.12642,-14.17063 0,-7.61638 -0.79551,-13.63474 -2.01085,-15.21286 -1.10596,-1.4361 -5.44939,-3.10446 -9.65206,-3.70747 0,0 -7.64122,-1.09639 -7.64122,-1.09639 0,0 0,17.87811 0,17.87811 0,0 0,17.8781 0,17.8781 0,0 5.52564,0 5.52564,0 3.03911,0 7.38254,-0.70598 9.65207,-1.56886 0,0 0,0 0,0" style="fill:#808080;fill-opacity:1;stroke:#808080;stroke-width:4;stroke-linejoin:round;" />
<path d="m 152.01126,173.2748 c -0.47162,-1.24053 -0.85748,-4.81441 -0.85748,-7.94196 0,-8.95301 3.01272,-14.30229 7.43052,-13.19339 2.92274,0.73362 4.32021,6.0215 3.79137,14.34614 -0.48038,7.56184 -1.47652,9.04471 -6.07593,9.04471 -2.87396,0 -3.57023,-0.3662 -4.28848,-2.2555 0,0 0,0 0,0" style="opacity:1;fill:#000000;fill-opacity:1;stroke:#000000;stroke-width:5;stroke-linejoin:round;" />
<path d="m 179.26594,181.21786 c -0.86494,-1.04228 -0.89546,-2.08621 -0.13496,-4.61633 1.37625,-4.57866 6.30973,-12.47246 9.06221,-14.49997 2.20533,-1.62448 2.41471,-1.63278 4.62627,-0.1836 1.27402,0.83484 2.54617,2.43344 2.82699,3.55243 0.65029,2.59117 -4.22067,11.94677 -7.77911,14.94125 -2.89421,2.43552 -6.935,2.81427 -8.6014,0.80622 0,0 0,0 0,0"
style="opacity:1;fill:#000000;fill-opacity:1;stroke:#000000;stroke-width:5;stroke-linejoin:round;" />
<path d="m 199.12159,200.8344 c -3.04507,-4.3478 -1.3684,-6.83585 8.38007,-12.43544 6.44023,-3.69933 12.23194,-2.58248 12.23194,2.35875 0,2.6403 -3.43307,5.70704 -10.68099,9.54129 -5.66921,2.99908 -8.11326,3.13083 -9.93102,0.5354 0,0 0,0 0,0"
style="opacity:1;fill:#000000;fill-opacity:1;stroke:#000000;stroke-width:7;stroke-linejoin:round;" />
<path d="m 214.01862,230.23131 c -6.45818,-0.62524 -8.9309,-3.1048 -8.20574,-8.22839 0.28061,-1.98251 0.63748,-2.07916 8.64535,-2.34151 10.35691,-0.33929 14.94689,0.80575 14.94689,3.72874 0,3.66036 -2.62734,5.81255 -7.91463,6.48327 -2.6588,0.33729 -6.02115,0.49834 -7.47187,0.35789 0,0 0,0 0,0"
style="opacity:1;fill:#000000;fill-opacity:1;stroke:#000000;stroke-width:7;stroke-linejoin:round;"
id="path75" />
<path d="m 210.94132,261.21854 c -4.63459,-1.45273 -12.60581,-7.25248 -13.03563,-9.48454 -0.54257,-2.81753 2.24615,-5.86035 5.36265,-5.85128 3.2083,0.009 10.28996,3.77917 14.51653,7.7277 3.258,3.04368 3.76238,6.65018 1.1273,8.06055 -2.13017,1.14014 -3.05817,1.08746 -7.97085,-0.45243 0,0 0,0 0,0" style="opacity:1;fill:#000000;fill-opacity:1;stroke:#000000;stroke-width:7;stroke-linejoin:round;" />
<path d="m 186.90809,285.40046 c -1.25932,-0.99066 -3.7485,-4.75319 -5.53151,-8.36118 -2.77638,-5.61806 -3.10015,-6.87101 -2.25496,-8.72617 1.38541,-3.04087 4.99303,-3.76724 7.93726,-1.59809 3.39914,2.5043 8.05633,10.63951 8.05633,14.07281 0,2.99621 -2.51357,6.41384 -4.71718,6.41384 -0.66016,0 -2.23063,-0.81055 -3.48994,-1.80121 0,0 0,0 0,0" style="opacity:1;fill:#000000;fill-opacity:1;stroke:#000000;stroke-width:7;stroke-linejoin:round;" />
<path d="m 153.44908,294.85557 c -2.27178,-1.66131 -3.03057,-13.88547 -1.14176,-18.39406 1.38095,-3.29634 4.41546,-4.95828 7.14242,-3.91176 3.98739,1.53023 4.16956,20.24351 0.22152,22.75411 -1.60674,1.02173 -4.49669,0.81352 -6.22218,-0.44829 0,0 0,0 0,0"
style="opacity:1;fill:#000000;fill-opacity:1;stroke:#000000;stroke-width:7;stroke-linejoin:round;" />
<path d="m 120.57643,285.83285 c -2.5276,-1.77056 -2.45518,-4.11242 0.311,-10.05572 3.29261,-7.07438 6.20536,-10.55802 8.82781,-10.55802 6.10381,0 7.19952,4.14898 3.19456,12.09637 -2.40747,4.77736 -7.20649,9.88619 -9.28666,9.88619 -0.60094,0 -1.97196,-0.61597 -3.04671,-1.36882 0,0 0,0 0,0" style="opacity:1;fill:#000000;fill-opacity:1;stroke:#000000;stroke-width:7;stroke-linejoin:round;" />
<path d="m 95.958032,261.21239 c -1.07475,-0.75284 -1.95409,-1.93876 -1.95409,-2.63537 0,-2.20691 6.098358,-8.12071 10.780228,-10.45398 5.77257,-2.87683 8.96712,-2.91154 10.79783,-0.11732 1.24911,1.90656 1.2577,2.39936 0.0815,4.67418 -1.52417,2.94763 -6.91403,6.91638 -11.72247,8.63165 -4.377748,1.56165 -5.634298,1.54605 -7.982948,-0.0992 0,0 -5e-5,4e-5 -5e-5,4e-5"
style="opacity:1;fill:#000000;fill-opacity:1;stroke:#000000;stroke-width:7;stroke-linejoin:round;" />
<path d="m 92.245492,229.93919 c -4.41417,-0.83753 -6.1546,-2.57585 -6.1546,-6.14714 0,-1.99404 0.5596,-2.58785 3.2971,-3.49864 4.60682,-1.53273 16.280518,-1.54838 18.116778,-0.0242 1.92132,1.59467 1.83969,5.63187 -0.15028,7.43292 -1.42148,1.28653 -3.15618,1.7896 -9.394018,2.72433 -0.96714,0.14492 -3.53889,-0.0743 -5.71498,-0.48719 0,0 0,-8e-5 0,-8e-5" style="opacity:1;fill:#000000;fill-opacity:1;stroke:#000000;stroke-width:7;stroke-linejoin:round;" />
<path d="m 105.4403,200.52338 c -7.719658,-3.59355 -10.557128,-6.13995 -10.557128,-9.47419 0,-5.71221 3.8251,-6.43046 12.133538,-2.27833 5.37544,2.68636 9.84717,6.8865 9.84717,9.2491 0,1.75047 -3.20741,4.77043 -5.05556,4.76011 -0.84625,-0.005 -3.71186,-1.02023 -6.36802,-2.25669 0,0 0,0 0,0" style="opacity:1;fill:#000000;fill-opacity:1;stroke:#000000;stroke-width:7;stroke-linejoin:round;" />
<path d="m 127.51959,182.07846 c -2.78479,-2.34344 -8.89725,-13.53392 -8.89725,-16.28877 0,-1.96488 3.22436,-4.32822 5.90511,-4.32822 3.38657,0 10.73792,11.54196 10.78092,16.92656 0.0185,2.31645 -2.60899,5.93529 -4.30937,5.93529 -0.44648,0 -2.01221,-1.01019 -3.47941,-2.24486 0,0 0,0 0,0"
style="opacity:1;fill:#000000;fill-opacity:1;stroke:#000000;stroke-width:7;stroke-linejoin:round;" />
<ellipse ry="38.469471" rx="38.466244" cy="224.18988" cx="157.08856" style="fill:#808080;stroke:none;stroke-width:7;stroke-linejoin:round;" />
<path style="opacity:1;fill:#000000;fill-opacity:1;stroke:#000000;stroke-width:0.88015759;stroke-linejoin:round;stroke-miterlimit:4;stroke-dasharray:none;stroke-opacity:1" d="m 621.74291,309.66456 c -5.3945,-5.39455 -6.5908,-12.78531 -2.862,-17.68211 2.2568,-2.96387 24.9354,-16.66331 27.585,-16.66331 0.8805,0 1.1489,6.4497 0.6208,14.91504 -0.8738,14.00579 -1.2552,15.20509 -6.2556,19.67295 -6.8825,6.14954 -12.7709,6.0747 -19.0882,-0.24257 z" />
<path style="fill:#808080;fill-opacity:1;stroke-width:0.44007877" d="m 582.17141,264.94785 c -13.7723,-4.32679 -21.8006,-25.27009 -14.8437,-38.7231 4.0598,-7.85091 15.3494,-15.31486 23.4987,-15.10713 5.4223,0.13822 10.3979,-0.22581 8.5018,-9.0408 -2.3344,-10.85219 10.7413,-22.80741 22.1262,-25.31619 15.3239,-4.91757 42.8192,3.49993 47.2808,16.60131 3.3132,10.94752 5.2289,5.71137 12.0043,5.57449 14.8055,-1.06898 32.2861,13.78999 33.6876,25.35667 2.4858,27.49349 -8.6361,40.94667 -23.8767,42.99058 l -51.0692,-0.18761 c -28.0881,-0.10314 -47.8015,1.58835 -57.3098,-2.14822 z" />
<path style="fill:#808080;stroke-width:0.44007877"
d="m 333.35223,266.55437 c -13.77234,-4.32679 -21.80052,-25.2701 -14.84369,-38.7231 4.05985,-7.85091 15.34936,-15.31486 23.49872,-15.10713 5.42224,0.13821 10.39793,-0.22582 8.50179,-9.0408 -2.33434,-10.8522 10.74125,-22.80742 22.12619,-25.31619 15.32391,-4.91757 42.81915,3.49992 47.28084,16.6013 3.31322,10.94752 5.22884,5.71137 12.00425,5.57449 14.80557,-1.06898 32.28612,13.78999 33.6876,25.35668 2.48587,27.49348 -8.63602,40.94667 -23.8767,42.99058 l -51.06917,-0.18761 c -28.08806,-0.10314 -47.80149,1.58835 -57.30983,-2.14822 z" />
<path style="opacity:1;fill:#000000;fill-opacity:1;stroke:#000000;stroke-width:0.88015765;stroke-linejoin:round;stroke-miterlimit:4;stroke-dasharray:none;stroke-opacity:1" d="m 801.60032,254.56327 c -7.11189,-7.1119 -8.00893,-8.94426 -8.00893,-16.35968 0,-10.86606 5.73105,-17.81194 19.21084,-23.28298 8.8336,-3.58529 10.32018,-4.93958 11.91226,-10.85212 4.48389,-16.6519 27.59075,-26.85028 44.56233,-19.66792 3.24477,1.37318 9.35769,6.32328 13.58427,11.00023 6.16198,6.81855 8.88659,8.51151 13.75029,8.5438 8.88491,0.059 20.46303,5.97943 25.49736,13.03804 3.40105,4.76859 4.40205,8.53055 4.40205,16.5438 0,8.85493 -0.82979,11.40202 -5.67411,17.41703 -3.12076,3.87492 -8.48339,8.03002 -11.91692,9.23355 -4.17092,1.46199 -21.68655,2.22257 -52.77665,2.29171 l -46.53385,0.10348 z" />
<path style="opacity:1;fill:#000000;fill-opacity:1;stroke:#808080;stroke-width:3.96070957;stroke-linejoin:round;stroke-miterlimit:4;stroke-dasharray:none;stroke-opacity:1" d="m 858.86998,310.93018 c -2.09293,-4.59346 -2.34837,-4.66784 -5.67887,-1.65377 -3.6498,3.30301 -7.38518,2.45818 -7.38518,-1.67032 0,-1.32955 1.23753,-3.44441 2.75006,-4.69971 3.84811,-3.19364 3.45754,-4.58919 -1.97738,-7.06551 -6.03157,-2.74817 -4.80282,-6.65152 2.13918,-6.79547 4.63403,-0.0961 5.29277,-0.76126 4.99315,-5.04177 -0.25718,-3.67419 0.50611,-4.93107 2.99458,-4.93107 1.83685,0 3.77122,1.65003 4.2986,3.66674 1.00487,3.84263 5.77669,4.97601 7.71895,1.83337 1.68583,-2.72772 6.4168,-2.21738 6.4168,0.6922 0,1.38907 -1.23752,3.55263 -2.75006,4.80792 -4.05088,3.36193 -3.36101,6.46654 1.97738,8.89888 6.04416,2.7539 4.7826,6.68477 -2.14537,6.68477 -4.45398,0 -5.42766,0.83033 -5.91224,5.04177 -0.73436,6.38226 -4.58267,6.50225 -7.4396,0.23197 z" />
<path style="fill:#808080;fill-opacity:1;stroke-width:0.44007882" d="m 804.2269,265.8992 c -13.77234,-4.3268 -21.80052,-25.2701 -14.84369,-38.72311 4.05985,-7.85091 15.34936,-15.31486 23.49873,-15.10713 5.42223,0.13822 10.39792,-0.22581 8.50179,-9.0408 -2.33435,-10.8522 10.74124,-22.80742 22.12619,-25.3162 15.3239,-4.91757 42.81915,3.49993 47.28084,16.60131 3.31321,10.94752 5.22885,5.71137 12.00423,5.57449 14.80557,-1.06898 32.28615,13.79 33.68761,25.35668 2.48586,27.49349 -8.63602,40.94668 -23.87671,42.99059 l -51.06916,-0.18761 c -28.08805,-0.10314 -47.80148,1.58835 -57.30983,-2.14822 z" />
<path d="m 858.86998,310.93018 c -2.09293,-4.59346 -2.34837,-4.66784 -5.67887,-1.65377 -3.6498,3.30301 -7.38518,2.45818 -7.38518,-1.67032 0,-1.32955 1.23753,-3.44441 2.75006,-4.69971 3.84811,-3.19364 3.45754,-4.58919 -1.97738,-7.06551 -6.03157,-2.74817 -4.80282,-6.65152 2.13918,-6.79547 4.63403,-0.0961 5.29277,-0.76126 4.99315,-5.04177 -0.25718,-3.67419 0.50611,-4.93107 2.99458,-4.93107 1.83685,0 3.77122,1.65003 4.2986,3.66674 1.00487,3.84263 5.77669,4.97601 7.71895,1.83337 1.68583,-2.72772 6.4168,-2.21738 6.4168,0.6922 0,1.38907 -1.23752,3.55263 -2.75006,4.80792 -4.05088,3.36193 -3.36101,6.46654 1.97738,8.89888 6.04416,2.7539 4.7826,6.68477 -2.14537,6.68477 -4.45398,0 -5.42766,0.83033 -5.91224,5.04177 -0.73436,6.38226 -4.58267,6.50225 -7.4396,0.23197 z" style="opacity:1;fill:#000000;fill-opacity:1;stroke:#000000;stroke-width:3.96070957;stroke-linejoin:round;stroke-miterlimit:4;stroke-dasharray:none;stroke-opacity:1" />
<path style="opacity:1;fill:#000000;fill-opacity:1;stroke:#000000;stroke-width:3.5206306;stroke-linejoin:round;stroke-miterlimit:4;stroke-dasharray:none;stroke-opacity:1" d="m 138.20871,651.21331 c 3.23639,-10.7537 2.98579,-11.75134 -2.95888,-11.77934 -9.29496,-0.0438 -10.35155,-1.77978 -7.00009,-11.50113 5.62134,-16.30543 9.45028,-22.59767 14.60599,-24.00259 5.43909,-1.48214 13.61056,-0.22545 13.61056,2.09316 0,0.84579 -1.44112,4.36263 -3.20249,7.81519 -4.79839,9.40563 -4.29843,11.2087 3.10798,11.2087 3.47077,0 6.64963,0.54877 7.06415,1.21948 0.86984,1.40743 -24.13493,32.40661 -26.14003,32.40661 -0.73279,0 -0.32202,-3.35704 0.91281,-7.46008 z" />
<path style="fill:#808080;fill-opacity:1;stroke-width:0.44007879" d="m 98.283115,595.60115 c -13.77234,-4.3268 -21.80052,-25.2701 -14.84369,-38.72311 4.05985,-7.85092 15.34936,-15.31487 23.498735,-15.10714 5.42223,0.13822 10.39792,-0.22581 8.50179,-9.0408 -2.33435,-10.8522 10.74125,-22.80742 22.12619,-25.3162 15.3239,-4.91757 42.81915,3.49993 47.28084,16.60131 3.31321,10.94752 5.22885,5.71137 12.00423,5.57449 14.80557,-1.06898 32.28615,13.79 33.68761,25.35669 2.48586,27.49349 -8.63602,40.94667 -23.87671,42.99058 l -51.06916,-0.18761 c -28.08805,-0.10314 -47.80149,1.58836 -57.309835,-2.14821 z" />
<rect style="fill:#ffffff;stroke:#000000;stroke-width:9.29346848;stroke-miterlimit:4;stroke-dasharray:none;stroke-opacity:1" width="32.696014" height="93.998032" x="610.52014" y="514.81152" ry="16.348007" />
<circle style="fill:#ffffff;stroke:#000000;stroke-width:8.00012016;stroke-miterlimit:4;stroke-dasharray:none;stroke-opacity:1" cx="627.31458" cy="614.07477" r="27.555946" />
<rect style="fill:#ffffff;stroke:#ffffff;stroke-width:7.90568447;stroke-miterlimit:4;stroke-dasharray:none;stroke-opacity:1" width="15.530586"
height="62.028652" x="619.08228" y="545.65271" ry="1.9620694" />
<path style="opacity:1;fill:#808080;fill-opacity:1;stroke:#808080;stroke-width:1.99721563;stroke-linejoin:round;stroke-miterlimit:4;stroke-dasharray:none;stroke-opacity:1" d="m 617.03899,627.75702 c -2.62164,-2.25504 -4.25336,-5.49917 -4.78018,-9.50379 -0.66934,-5.08807 -0.0457,-7.11583 3.82254,-12.42867 2.54232,-3.49174 5.21193,-8.62379 5.9325,-11.40454 1.02675,-3.96238 2.1009,-5.05592 4.96626,-5.05592 2.86577,0 3.99537,1.15049 5.22546,5.32213 0.86313,2.92716 3.45106,8.04698 5.75098,11.37737 4.48595,6.49587 5.1916,11.17742 2.48308,16.47365 -4.55689,8.91056 -16.11305,11.48829 -23.40064,5.21977 z" />
<rect style="fill:#000000;stroke:none;stroke-width:10.64487934;stroke-miterlimit:4;stroke-dasharray:none;stroke-opacity:1" width="16.898474" height="9.5866346" x="638.64038" y="571.19855" ry="4.7933173" rx="5.3981252" />
<rect style="fill:#000000;stroke:none;stroke-width:10.64487934;stroke-miterlimit:4;stroke-dasharray:none;stroke-opacity:1" width="16.898474" height="9.5866346" x="638.64026" y="533.75922" ry="4.7933173" rx="5.3981252" />
<rect style="fill:#000000;stroke:none;stroke-width:10.64487934;stroke-miterlimit:4;stroke-dasharray:none;stroke-opacity:1" width="16.898474" height="9.5866346" x="638.64026" y="552.28259" ry="4.7933173" rx="5.3981252" />
<rect style="fill:#808080;stroke:none;stroke-width:7.21220207;stroke-miterlimit:4;stroke-dasharray:none;stroke-opacity:1" width="15.166072" height="80.655922" x="619.1756" y="536.1712" rx="7.5830359" ry="11.423502" />
<rect style="fill:#ffffff;stroke:#000000;stroke-width:9.29346657;stroke-miterlimit:4;stroke-dasharray:none;stroke-opacity:1" width="32.696007" height="93.998009" x="380.71188" y="514.81171" ry="16.348003" />
<circle style="fill:#ffffff;stroke:#000000;stroke-width:8.0001173;stroke-miterlimit:4;stroke-dasharray:none;stroke-opacity:1" cx="397.50635" cy="614.07501" r="27.555939" />
<rect style="fill:#ffffff;stroke:#ffffff;stroke-width:7.90568209;stroke-miterlimit:4;stroke-dasharray:none;stroke-opacity:1" width="15.530582" height="62.028637" x="389.27399" y="545.65289" ry="1.9620689" />
<path style="opacity:1;fill:#808080;fill-opacity:1;stroke:#808080;stroke-width:1.99721503;stroke-linejoin:round;stroke-miterlimit:4;stroke-dasharray:none;stroke-opacity:1" d="m 387.23076,627.75717 c -2.62165,-2.25504 -4.25337,-5.49917 -4.78019,-9.50378 -0.66934,-5.08808 -0.0457,-7.11583 3.82254,-12.42868 2.54232,-3.49174 5.21193,-8.62378 5.9325,-11.40453 1.02675,-3.96238 2.1009,-5.05592 4.96626,-5.05592 2.86577,0 3.99537,1.15049 5.22545,5.32213 0.86313,2.92716 3.45107,8.04697 5.75098,11.37737 4.48595,6.49586 5.1916,11.17741 2.48308,16.47364 -4.55689,8.91055 -16.11304,11.48828 -23.40062,5.21977 z" />
<rect style="fill:#000000;stroke:none;stroke-width:10.64487648;stroke-miterlimit:4;stroke-dasharray:none;stroke-opacity:1" width="16.89847" height="9.5866318" x="408.83212" y="571.19873" ry="4.7933159" rx="5.3981237" />
<rect style="fill:#000000;stroke:none;stroke-width:10.64487648;stroke-miterlimit:4;stroke-dasharray:none;stroke-opacity:1" width="16.89847" height="9.5866318" x="408.83197" y="533.75946" ry="4.7933159" rx="5.3981237" />
<rect style="fill:#000000;stroke:none;stroke-width:10.64487648;stroke-miterlimit:4;stroke-dasharray:none;stroke-opacity:1" width="16.89847" height="9.5866318" x="408.83197" y="552.28278" ry="4.7933159" rx="5.3981237" />

<style>
.line { stroke-linecap: round; stroke-width: 11px; stroke: blue; } 
.box { stroke-width:0; stroke:green; height: 100%; width: 100%; fill: none; } 
.button { width: 9%; height: 12%; } 
.white { fill: white; }  
.blue { fill: blue; } 

</style>  

<!--1-->
<svg x="6%" y="6%">

<svg width="18%" height="24%">
<rect class="box"/>
</svg> 

<svg width="18%" height="24%">
<g transform="scale(1, 1)">
<svg>
<line class="line" x1="50%" y1="25%" x2="50%" y2="88%"/>
</svg>
</g>
</svg> 

<svg class="button" x="4.5%" y="0%" width="9%" height="12%">
<g transform="scale(1, 1)">
<svg class="btnCoff">
<circle class="circle" cx="50%" cy="50%" r="40%"/>
</svg>
<svg x="13%" y="14%" viewBox="0 0 400 400">
<g transform='scale(0.65 0.65)' class="btnToff">
<path d="m 212.51385,236.61457 c 0,-68.08913 -0.49101,-123.79842 -1.09113,-123.79842 -0.60011,0 -4.60949,2.85695 -8.90973,6.34877 -15.76274,12.79946 -51.27108,33.48609 -64.55957,37.61144 -4.16868,1.29415 -4.22034,1.09606 -4.21593,-16.16673 l 0.004,-17.47694 10.15495,-5.30595 c 29.94812,-15.64787 65.50005,-45.926729 76.91039,-65.503008 L 226,43.413996 h 12.01405 12.01403 V 201.91351 360.413 h -18.75714 -18.75733 z">
</path>
</g>
</svg>
</g>
</svg>

</svg> 

<!--2-->
<svg x="29%" y="23%">

<svg width="18%" height="24%">
<rect class="box"/>
</svg>

<svg width="18%" height="24%">
<g transform="scale(1, 1)">
<svg>
<line class="line" x1="50%" y1="75%" x2="50%" y2="35%"/>
</svg>
</g>
</svg>

<svg class="button" x="4.5%" y="12%" width="9%" height="12%">
<g transform="scale(1, 1)">
<svg class="btnCoff">
<circle class="circle" cx="50%" cy="50%" r="40%"/>
</svg>
<svg x="17%" y="14%" viewBox="0 0 400 400">
<g transform='scale(0.65 0.65)' class="btnToff">
<path d="m 89.58885,354.9505 c 0,-9.08544 6.69,-27.66163 14.99891,-41.64758 10.46314,-17.61208 34.70133,-42.26454 77.8164,-79.14641 56.76554,-48.55888 74.07604,-71.84823 75.69209,-101.83532 0.68123,-12.64079 0.13245,-16.68621 -3.36721,-24.82137 -8.17409,-19.001199 -28.08368,-32.149009 -51.18595,-33.801968 -35.32602,-2.527564 -61.4689,17.237938 -67.12098,50.747268 l -2.17961,12.92219 -6.8452,-0.99309 c -3.76485,-0.5462 -12.12302,-1.53321 -18.57371,-2.19334 -13.38172,-1.36943 -13.19184,-0.9572 -8.8754,-19.26663 7.64833,-32.442768 27.80077,-55.331672 58.28661,-66.201255 15.8151,-5.638798 53.26342,-7.118703 70.21955,-2.774978 19.81582,5.076306 31.22816,11.324708 43.8938,24.032434 24.5068,24.58821 31.59249,58.249839 19.35698,91.958319 -9.63325,26.53929 -30.89598,50.38432 -93.27576,104.60387 -34.31549,29.82651 -56.29682,52.07913 -56.29682,56.99163 0,0.67875 35.04478,1.23408 77.87727,1.23408 h 77.87727 V 342.58568 360.413 H 193.73797 89.58885 Z"> </path>
</g>
</svg>
</g>
</svg>

</svg> 

<!--3-->
<svg x="51%" y="15%">

<svg width="18%" height="24%">
<rect class="box"/>
</svg>

<svg width="18%" height="24%">
<g transform="scale(1, 1)">
<svg>
<line class="line" x1="25%" y1="25%" x2="55%" y2="55%"/>
</svg>
</g>
</svg>

<svg class="button" x="0%" y="0%" width="9%" height="12%">
<g transform="scale(1, 1)">
<svg class="btnCoff">
<circle class="circle" cx="50%" cy="50%" r="40%"/>
</svg>
<svg x="18%" y="14%" viewBox="0 0 400 400">
<g transform='scale(0.65 0.65)' class="btnToff">
<path d="m 173.83716,359.45692 c -18.66018,-2.9667 -40.72659,-15.27459 -54.14712,-30.20144 -12.54222,-13.94997 -23.357256,-37.46217 -23.357256,-50.77931 0,-4.35004 1.69981,-4.85216 24.912116,-7.35898 l 11.07205,-1.19575 4.20831,13.47979 c 9.9409,31.84202 28.45628,46.88499 57.61067,46.80621 18.87657,-0.0509 30.75866,-4.4471 43.50372,-16.09538 12.13935,-11.09468 18.27787,-22.34007 21.12761,-38.70447 5.15035,-29.57556 -10.10458,-57.9459 -36.54341,-67.96155 -9.19277,-3.48242 -13.13951,-3.88251 -30.53819,-3.09563 l -19.981,0.90367 1.1639,-9.47298 c 2.47018,-20.10455 1.22861,-18.63983 17.85405,-21.06302 24.52854,-3.57506 42.00178,-13.6186 50.067,-28.77829 5.8138,-10.92782 5.80462,-35.68077 -0.0173,-46.625834 -9.49327,-17.847159 -29.24664,-27.706407 -52.21785,-26.062824 -25.94334,1.856235 -45.58888,20.568374 -50.80921,48.395168 -0.67414,3.59344 -2.17129,6.53523 -3.327,6.53729 -5.47229,0.009 -34.39481,-6.07992 -34.39481,-7.24191 0,-4.29405 6.71947,-22.935104 11.56967,-32.096404 11.06272,-20.895821 33.65768,-38.236081 56.75931,-43.559326 12.11645,-2.791958 38.2133,-2.39756 50.33891,0.760762 39.4862,10.284847 64.13386,39.653402 64.21488,76.514248 0.0551,25.09015 -12.34555,46.7623 -33.75292,58.98855 l -9.00459,5.14273 11.10661,4.04967 c 28.16696,10.2702 45.00697,33.86408 47.4156,66.43221 3.46337,46.82958 -29.08593,89.37712 -77.01763,100.67534 -10.80422,2.54672 -36.47932,3.40987 -47.81614,1.60746 z"> </path>
</g>
</svg>
</g>
</svg>

</svg>


<!--4-->
<svg x="78%" y="14%">

<svg width="18%" height="24%">
<rect class="box"/>
</svg>

<svg width="18%" height="24%">
<g transform="scale(1, 1)">
<svg>
<line class="line" x1="75%" y1="25%" x2="45%" y2="55%"/>
</svg>
</g>
</svg>

<svg class="button" x="9%" y="0%" width="9%" height="12%">
<g transform="scale(1, 1)">
<svg class="btnCoff">
<circle class="circle" cx="50%" cy="50%" r="40%"/>
</svg>
<svg x="17%" y="14%" viewBox="0 0 400 400">
<g transform='scale(0.65 0.65)' class="btnToff">
<path d="M 225.63619,322.89833 V 285.38365 H 157.1719 88.707623 l 0.0428,-18.2884 0.0428,-18.28841 L 161.153,146.11042 233.51278,43.414 h 14.81901 14.81901 v 103.16535 103.16536 h 21.57094 21.57094 v 17.81947 17.81947 H 284.72174 263.1508 v 37.51468 37.51467 h -18.75734 -18.75733 z m 0,-145.74451 c 0,-40.17103 -0.71425,-71.79506 -1.59928,-70.80895 -0.8796,0.98006 -20.84734,29.63659 -44.37274,63.68115 -23.52541,34.04458 -45.6678,65.9086 -49.20529,70.80896 l -6.43183,8.90973 h 50.80457 50.80457 z"> </path>
</g>
</svg>
</g>
</svg>

</svg>


<!--5-->
<svg x="2%" y="59%">

<svg width="18%" height="24%">
<rect class="box"/>
</svg>

<svg width="18%" height="24%">
<g transform="scale(1, 1)">
<svg>
<line class="line" x1="25%" y1="25%" x2="55%" y2="55%"/>
</svg>
</g>
</svg>

<svg class="button" x="0%" y="0%" width="9%" height="12%">
<g transform="scale(1, 1)">
<svg class="btnCoff">
<circle class="circle" cx="50%" cy="50%" r="40%"/>
</svg>
<svg x="17%" y="16%" viewBox="0 0 400 400">
<g transform='scale(0.65 0.65)' class="btnToff">
<path d="m 168.94319,357.50038 c -36.2159,-7.8427 -64.36078,-35.59431 -71.68144,-70.67989 -1.42482,-6.82864 -1.59203,-11.38468 -0.45645,-12.43693 0.98565,-0.91329 9.8143,-2.21966 19.61924,-2.90303 l 17.82716,-1.24248 2.32857,9.80273 c 4.89951,20.62576 18.05941,37.54708 34.99137,44.99271 12.37523,5.44186 33.42823,5.8781 47.57322,0.98575 20.31323,-7.02576 38.98274,-30.76157 43.58285,-55.40981 7.21847,-38.67801 -7.21922,-72.1779 -37.13926,-86.17451 -9.34397,-4.37112 -13.05416,-5.00017 -29.54284,-5.00896 -17.75081,-0.009 -19.59598,0.36511 -31.45832,6.38612 -6.93081,3.51789 -16.04953,10.13686 -20.26382,14.70884 l -7.66235,8.31267 -13.1038,-1.31597 c -7.20709,-0.72378 -14.97323,-1.85579 -17.25809,-2.51556 l -4.15428,-1.1996 15.07987,-80.19424 15.07988,-80.194223 h 78.34767 78.34768 v 17.82094 17.820939 h -63.50637 -63.50637 l -8.54021,42.676464 c -4.69711,23.47205 -8.29803,42.92708 -8.00205,43.23343 0.29599,0.30632 5.9152,-2.37331 12.48713,-5.95476 19.0005,-10.35454 30.96785,-13.01726 54.01241,-12.01769 27.57288,1.19598 44.85965,8.85699 64.09288,28.40418 30.29589,30.79042 36.80496,83.52891 15.62201,126.57444 -22.03333,44.77354 -70.69674,66.79346 -122.71629,55.52844 z"> </path>
</g>
</svg>
</g>
</svg>

</svg>


<!--6-->
<svg x="30%" y="54%">

<svg width="18%" height="24%">
<rect class="box"/>
</svg>

<svg width="18%" height="24%">
<g transform="scale(1, 1)">
<svg>
<line class="line" x1="50%" y1="25%" x2="50%" y2="65%"/>
</svg>
</g>
</svg>

<svg class="button" x="4.5%" y="0%" width="9%" height="12%">
<g transform="scale(1, 1)">
<svg class="btnCoff">
<circle class="circle" cx="50%" cy="50%" r="40%"/>
</svg>
<svg x="17%" y="16%" viewBox="0 0 400 400">
<g transform='scale(0.65 0.65)' class="btnToff">
<path d="M 175.74827,357.67012 C 142.20336,349.55065 114.73048,321.82093 103.73678,284.98535 94.986776,255.66754 92.383876,195.43915 98.168426,156.13951 108.93161,83.015553 146.47661,43.413998 205.03996,43.413998 c 28.92539,0 48.94394,7.634731 65.26368,24.890453 10.66124,11.272692 17.65882,24.334472 21.224,39.616999 2.36744,10.14833 2.3268,11.11238 -0.47419,11.24645 -1.68497,0.0806 -9.90685,0.71581 -18.27085,1.41148 l -15.20727,1.26484 -3.75124,-11.2725 c -8.23361,-24.741997 -25.69318,-37.615031 -51.05373,-37.642165 -29.2521,-0.03132 -54.43881,24.307968 -64.93809,62.753175 -3.79722,13.90426 -8.51143,56.71617 -6.47006,58.75755 0.60746,0.60746 2.28845,-0.55389 3.73553,-2.58077 6.76774,-9.47946 21.10372,-22.05107 30.70913,-26.92968 26.85579,-13.64012 54.21117,-14.30462 80.69121,-1.9601 14.61323,6.81243 35.33077,27.93071 42.5636,43.3869 24.0215,51.33277 3.65329,120.67674 -42.28341,143.95462 -19.53429,9.89877 -48.24689,12.87347 -71.03,7.35887 z m 49.00532,-32.22828 c 16.55359,-8.27804 28.82455,-23.88085 33.99036,-43.21955 3.35354,-12.55426 3.1571,-38.56899 -0.3839,-50.8385 -3.88745,-13.46998 -14.09248,-28.06589 -24.39327,-34.88884 -23.64225,-15.65998 -57.87381,-12.14364 -77.46254,7.95711 -12.72781,13.0605 -17.5936,25.10471 -18.46538,45.70711 -1.7053,40.29993 17.66026,70.86044 50.26078,79.31587 9.11219,2.3634 27.79648,0.2962 36.45395,-4.0332 z"> </path>
</g>
</svg>
</g>
</svg>

</svg>


<!--7-->
<svg x="52%" y="54%">

<svg width="18%" height="24%">
<rect class="box"/>
</svg>

<svg width="18%" height="24%">
<g transform="scale(1, 1)">
<svg>
<line class="line" x1="50%" y1="25%" x2="50%" y2="65%"/>
</svg>
</g>
</svg>

<svg class="button" x="4.5%" y="0%" width="9%" height="12%">
<g transform="scale(1, 1)">
<svg class="btnCoff">
<circle class="circle" cx="50%" cy="50%" r="40%"/>
</svg>
<svg x="18%" y="19%" viewBox="0 0 400 400">
<g transform='scale(0.63 0.63)' class="btnToff">
<path d="m 140.98091,351.34224 c 0.0168,-13.58986 4.97377,-43.867 11.57509,-70.70154 15.97709,-64.94729 46.39458,-128.96012 86.18299,-181.369964 L 253.59895,79.69701 H 174.36871 95.138484 V 61.555505 43.413996 H 199.21345 303.28843 v 14.364911 c 0,13.999171 -0.18734,14.570462 -7.36051,22.438187 -21.44234,23.518736 -48.59975,66.365736 -68.98288,108.836196 -27.15358,56.57743 -38.83097,96.98804 -46.89641,162.28895 l -1.12034,9.07076 h -18.97931 -18.97932 l 0.0112,-9.07076 z"> </path>
</g>
</svg>
</g>
</svg>

</svg>


<!--8-->
<svg x="78%" y="57%">

<svg width="18%" height="24%">
<rect class="box"/>
</svg>

<svg width="18%" height="24%">
<g transform="scale(1, 1)">
<svg>
<line class="line" x1="75%" y1="25%" x2="45%" y2="55%"/>
</svg>
</g>
</svg>

<svg class="button" x="9%" y="0%" width="9%" height="12%">
<g transform="scale(1, 1)">
<svg class="btnCoff">
<circle class="circle" cx="50%" cy="50%" r="40%"/>
</svg>
<svg x="17%" y="17%" viewBox="0 0 400 400">
<g transform='scale(0.65 0.65)' class="btnToff">
<path d="m 173.4216,357.85439 c -27.63349,-5.99601 -54.31184,-25.96967 -65.53331,-49.06377 -16.39434,-33.73997 -11.85335,-74.95142 10.94425,-99.32391 7.88321,-8.42778 27.42723,-20.39198 33.31117,-20.39198 5.9722,0 3.5309,-3.69646 -5.29228,-8.01324 -12.81432,-6.26945 -24.7581,-18.24441 -30.66046,-30.74043 -6.58446,-13.94015 -6.75386,-39.73309 -0.36777,-55.996616 8.07932,-20.57572 25.26277,-37.015714 47.69133,-45.627939 13.08974,-5.026254 44.20637,-6.92879 59.93125,-3.66432 25.11933,5.21475 47.56127,22.510469 58.74514,45.274139 5.9894,12.190856 6.32754,13.916606 6.32754,32.294726 0,17.49562 -0.50732,20.44867 -5.12985,29.86168 -5.90103,12.01641 -15.6452,21.53503 -28.94404,28.27407 -5.11134,2.59011 -9.29333,4.99651 -9.29333,5.34757 0,0.35106 5.26669,3.23107 11.70374,6.40001 29.55607,14.55042 45.50407,40.72397 45.50407,74.6804 0,44.39145 -30.60028,81.3791 -75.13257,90.81538 -15.53004,3.29077 -38.30456,3.23755 -53.80488,-0.12586 z m 55.88163,-32.86153 c 12.53903,-5.78235 24.37317,-17.69279 30.24784,-30.44282 4.02209,-8.72933 4.82246,-13.15937 4.89285,-27.08193 0.0766,-15.14942 -0.45648,-17.74381 -5.93131,-28.86667 -7.02578,-14.27385 -17.07083,-24.04705 -31.59403,-30.73898 -8.66934,-3.99461 -13.09671,-4.78931 -26.97996,-4.84284 -14.14303,-0.0545 -18.14843,0.65493 -26.97997,4.77881 -14.04218,6.55699 -24.47622,16.42104 -30.63424,28.96079 -4.57113,9.3083 -5.12985,12.45597 -5.12985,28.90016 0,16.01305 0.63228,19.79674 4.77992,28.60391 8.847,18.78589 20.27127,28.40134 40.47745,34.06862 13.76846,3.86167 34.42967,2.38917 46.8513,-3.33905 z M 215.95183,170.5606 c 11.65129,-3.23609 23.78493,-12.90241 29.86709,-23.79377 4.62031,-8.2736 5.59929,-12.12077 5.6352,-22.14495 0.0562,-15.67283 -3.16532,-24.653049 -12.46166,-34.738376 -11.99014,-13.00777 -19.53135,-16.12063 -39.05384,-16.12063 -19.01967,0 -26.5436,2.96248 -38.20223,15.04182 -8.89597,9.216987 -12.72887,18.768996 -12.79158,31.877916 -0.0774,16.18537 2.99158,24.66731 12.75305,35.24632 13.17907,14.28285 34.65599,20.07493 54.25397,14.63167 z"> </path>
</g>
</svg>
</g>
</svg>

</svg>


</svg> 
