<svg xmlns="http://www.w3.org/2000/svg" viewBox="0 0 512 384">
<rect width="512" height="384" id="P010WIImgRct2" fill="#fff"/>
  
  <path
     style="fill:#808080;fill-opacity:1;stroke-width:0.99999994"
     d="m 125.50278,281.11771 c -31.29515,-9.83187 -49.53776,-57.42176 -33.7296,-87.9913 9.22526,-17.83978 34.87264,-34.32824 53.39662,-34.32824 12.31756,0 14.42304,-2.23894 19.31879,-20.54359 6.51725,-24.36721 26.99629,-47.79885 50.2778,-57.526494 39.13537,-16.35176 83.7799,-0.676149 107.4372,37.723484 7.52869,12.22025 11.01873,13.84097 27.27747,12.66702 33.64299,-2.42906 67.03646,22.70618 76.54902,57.61849 9.10738,33.42561 -3.88588,65.02812 -35.04219,85.23027 l -19.21333,12.4581 -116.04549,-0.42631 c -63.82504,-0.23437 -122.42684,-2.43112 -130.22629,-4.88143 z"
     id="path4285"
     />
</svg>
