<?xml version="1.0" encoding="UTF-8" standalone="no"?>
<svg
   xmlns:dc="http://purl.org/dc/elements/1.1/"
   xmlns:cc="http://creativecommons.org/ns#"
   xmlns:rdf="http://www.w3.org/1999/02/22-rdf-syntax-ns#"
   xmlns:svg="http://www.w3.org/2000/svg"
   xmlns="http://www.w3.org/2000/svg"
   xmlns:sodipodi="http://sodipodi.sourceforge.net/DTD/sodipodi-0.dtd"
   xmlns:inkscape="http://www.inkscape.org/namespaces/inkscape"
   viewBox="0 0 512 384"
   version="1.1"
   id="svg30"
   sodipodi:docname="monop014-wi5.svg"
   inkscape:version="0.92.3 (2405546, 2018-03-11)">
  <metadata
     id="metadata36">
    <rdf:RDF>
      <cc:Work
         rdf:about="">
        <dc:format>image/svg+xml</dc:format>
        <dc:type
           rdf:resource="http://purl.org/dc/dcmitype/StillImage" />
        <dc:title></dc:title>
      </cc:Work>
    </rdf:RDF>
  </metadata>
  <defs
     id="defs34" />
  <sodipodi:namedview
     pagecolor="#ffffff"
     bordercolor="#666666"
     borderopacity="1"
     objecttolerance="10"
     gridtolerance="10"
     guidetolerance="10"
     inkscape:pageopacity="0"
     inkscape:pageshadow="2"
     inkscape:window-width="1366"
     inkscape:window-height="705"
     id="namedview32"
     showgrid="true"
     inkscape:zoom="0.5"
     inkscape:cx="256"
     inkscape:cy="177.37777"
     inkscape:window-x="-8"
     inkscape:window-y="-8"
     inkscape:window-maximized="1"
     inkscape:current-layer="svg30">
    <inkscape:grid
       type="xygrid"
       id="grid857"
       spacingx="256"
       spacingy="192" />
  </sodipodi:namedview>
  <rect
     y="0"
     x="0"
     height="384"
     width="512"
     style="fill:none;)"
     id="rect2" />
  <g
     id="g4338"
     transform="matrix(2.9137802,0,0,2.9137802,-1857.7395,-2647.2363)"
     style="stroke-width:0.55525231">
    <path
       style="fill-opacity:1;stroke-width:0.55525231"
       d="m 717.82337,1030.4979 c -0.0186,-1.0938 0.80384,-4.7501 1.82765,-8.125 1.02381,-3.3749 1.86756,-6.558 1.875,-7.0736 0.007,-0.5157 -2.79897,-0.9375 -6.23647,-0.9375 -7.47139,0 -7.54576,-0.3271 -2.74142,-12.058 6.7899,-16.57912 6.31886,-16.02035 13.86783,-16.45105 3.70181,-0.21121 7.25687,0.14229 7.90013,0.78555 0.72609,0.72609 -0.0525,3.5813 -2.05349,7.52996 -1.77268,3.49821 -3.22305,6.94164 -3.22305,7.65194 0,0.7165 2.78261,1.2916 6.25,1.2916 6.70041,0 7.51313,0.7892 4.0625,3.9449 -1.20313,1.1003 -4.71875,5.2423 -7.8125,9.2044 -9.2616,11.861 -13.67861,16.4457 -13.71618,14.2368 z m -30.71231,-55.96493 c -5.29912,-3.2315 -8.07151,-7.97008 -8.07151,-13.79586 0,-10.06045 5.52358,-16.98834 14.63402,-18.35453 4.48186,-0.6721 5.36598,-1.26528 5.36598,-3.6002 0,-3.69835 6.55315,-12.61183 11.6003,-15.77853 6.12459,-3.84271 18.92913,-2.94184 25.10146,1.76602 2.50298,1.90912 5.40847,5.12955 6.45665,7.15651 1.71075,3.30821 2.52322,3.68538 7.93884,3.68538 7.05554,0 12.88665,3.35711 17.42113,10.02975 2.46911,3.63338 2.87029,5.5255 2.44877,11.54955 -0.5595,7.99595 -3.0565,12.33366 -9.70444,16.8582 -4.02534,2.73962 -4.97789,2.81238 -36.76006,2.80783 -29.57621,-0.004 -32.98337,-0.2216 -36.43114,-2.32412 z"
       id="path4344"
       inkscape:connector-curvature="0" />
    <path
       style="fill-opacity:1;stroke-width:0.55525231"
       d="m 717.82337,1029.8699 c -0.0186,-0.7517 1.04464,-4.5014 2.36276,-8.3325 1.31812,-3.8312 2.06812,-7.2943 1.66667,-7.6957 -0.40146,-0.4015 -3.48657,-0.7299 -6.85582,-0.7299 -7.07171,0 -7.05584,0.2716 -0.78638,-13.46884 1.96842,-4.31409 3.57895,-8.35204 3.57895,-8.97322 0,-4.02849 7.48365,-6.20055 14.70057,-4.2667 l 2.82557,0.75713 -3.76307,6.94777 c -2.06969,3.82128 -3.76307,7.41036 -3.76307,7.97576 0,0.5654 2.8125,1.0281 6.25,1.0281 3.4375,0 6.24931,0.4218 6.24847,0.9375 -8.4e-4,0.5156 -1.36984,2.5285 -3.04224,4.4731 -1.67239,1.9446 -4.90608,5.8663 -7.18597,8.7149 -6.85429,8.5641 -12.20054,14.0835 -12.23644,12.6326 z m -29.6534,-55.45314 c -8.26588,-5.04002 -10.84487,-13.22412 -6.80014,-21.5794 2.93165,-6.05599 8.08263,-9.7256 13.65169,-9.7256 3.36391,0 3.85645,-0.53694 5.12926,-5.59175 2.41679,-9.59796 11.99302,-16.90825 22.14921,-16.90825 6.69357,0 15.25583,4.7236 18.36976,10.13417 2.4449,4.24809 3.12579,4.60983 9.81965,5.21681 7.59307,0.68851 14.80015,4.55152 14.80015,7.93291 0,1.02501 0.49226,1.55942 1.0939,1.18758 0.60165,-0.37184 1.79642,1.83307 2.65505,4.8998 2.04193,7.29305 -0.0216,16.1095 -4.7631,20.35095 -6.86784,6.14348 -9.33003,6.5281 -41.7582,6.52311 -27.88053,-0.004 -30.678,-0.20305 -34.34723,-2.44033 z"
       id="path4342"
       inkscape:connector-curvature="0" />
    <path
       style="fill-opacity:1;stroke-width:0.55525231"
       d="m 720.62384,1022.0334 c 1.39251,-4.2472 2.29441,-7.9596 2.00422,-8.2498 -0.29019,-0.2902 -3.20453,-0.6662 -6.47631,-0.8355 -3.54349,-0.1835 -5.7589,-0.8444 -5.47929,-1.6347 0.25818,-0.7296 1.50332,-4.2507 2.76698,-7.8246 1.26367,-3.57393 2.84631,-6.1589 3.51698,-5.7444 0.67144,0.41498 0.82245,0.11135 0.33605,-0.67566 -0.48584,-0.78611 0.0435,-3.38241 1.17624,-5.76955 1.98509,-4.18328 2.30393,-4.33734 8.81521,-4.25957 3.7156,0.0444 6.75563,0.32247 6.75563,0.61797 0,0.2955 -1.44458,3.38802 -3.21018,6.87226 -1.7656,3.48424 -2.92124,7.08795 -2.56809,8.00825 0.35525,0.9258 2.95824,1.8465 5.82681,2.061 l 5.18471,0.3877 -2.75835,3.125 c -1.51709,1.7187 -4.24145,5.0672 -6.05412,7.441 -1.81268,2.3738 -5.33711,6.5405 -7.83206,9.2593 l -4.53628,4.9434 z"
       id="path4340"
       inkscape:connector-curvature="0" />
  </g>
  <path
     style="opacity:1;fill:#808080;fill-opacity:1;stroke:#808080;stroke-width:8;stroke-linejoin:round;stroke-miterlimit:4;stroke-dasharray:none;stroke-opacity:1"
     d="m 239.59197,334.99506 c 7.35411,-24.43585 6.78466,-26.7028 -6.72354,-26.76644 -21.12112,-0.0996 -23.52204,-4.04422 -15.90645,-26.13425 12.77349,-37.05116 21.47408,-51.34914 33.18949,-54.54157 12.35938,-3.36789 30.92757,-0.51229 30.92757,4.75635 0,1.92189 -3.2747,9.91329 -7.27708,17.75861 -10.90349,21.3726 -9.76741,25.46975 7.06233,25.46975 7.88668,0 15.11008,1.24697 16.05201,2.77105 1.97655,3.19812 -54.84231,73.6382 -59.39854,73.6382 -1.66512,0 -0.73173,-7.62827 2.07421,-16.9517 z"
     id="path876"
     inkscape:connector-curvature="0" />
</svg>
