<svg xmlns="http://www.w3.org/2000/svg" viewBox="0 0 512 384">
<rect y="0" x="0" height="384" width="512" style="fill:none;)" />

<g style="fill:#808080" transform="translate(-529.66524,-511.36206)">
<rect ry="18" y="796.36206" x="78" height="36" width="868" />
<rect y="818.36206" x="120" height="82" width="786" />
</g>
<circle r="17.813562" cy="107.70659" cx="255.7713" style="fill:#000000" />
<path d="m 195.97176,131.46031 c 12.67111,-11.12098 29.0177,-18.61677 45.91233,-21.05327 6.0969,-0.87928 14.86765,-1.11931 20.67646,-0.56586 15.09217,1.43796 29.48649,6.61402 41.98911,15.09888 2.53693,1.72168 6.10692,4.45082 8.07939,6.17642 l 1.14549,1.00215 -59.27251,-0.003 -59.27251,-0.003 z" style="fill:#000000" />
<rect ry="2.9471924" y="278.34219" x="202.75476" height="7.5" width="100" style="fill:#000000" />
<path d="m 334,235.35322 c 3.65164,-7.25458 5.98396,-13.71951 7.60258,-21.07346 0.91242,-4.14538 0.99136,-4.31918 1.24407,-2.73887 0.29894,1.86944 1.84275,3.62555 3.89309,4.42841 3.62192,1.41829 11.53279,-0.1738 16.77035,-3.37506 7.73032,-4.72487 15.50117,-14.75057 17.78166,-22.94129 2.09473,-7.52355 2.12175,-20.19135 0.0556,-26.06991 -2.80901,-7.99215 -10.47956,-14.66463 -18.27851,-15.90017 -11.7075,-1.85476 -16.37909,1.69388 -22.47972,17.07604 l -1.14485,2.88663 -1.15574,-3.25551 c -1.22768,-3.4582 -4.49326,-10.48757 -6.4624,-13.91074 l -1.18618,-2.06206 3.0313,-2.89062 c 9.09086,-8.66896 21.63152,-11.6508 33.54424,-7.97596 12.5758,3.8794 23.0116,14.9975 26.41198,28.13881 3.702,14.30711 -1.5121,32.39594 -13.03137,45.20892 -4.31152,4.79572 -9.85743,9.77787 -14.4713,13.00025 -11.82134,8.25614 -31.00964,18.34674 -34.88817,18.34674 -0.54498,0 0.0847,-1.57062 2.76337,-6.89215 z" style="fill:#000000" />
<path d="m 215.32135,273.92444 c -14.13676,-7.44389 -25.03992,-17.35949 -33.70758,-30.65451 -3.27398,-5.02185 -6.94086,-12.2564 -8.54435,-16.85755 -0.95227,-2.73249 -1.16769,-3.00228 -3.7946,-4.75229 -5.22734,-3.48238 -10.89022,-9.77589 -13.53461,-15.04185 -1.93571,-3.85472 -3.24667,-8.20083 -6.54569,-21.70028 -6.24226,-25.54313 -8.68586,-30.7827 -19.8668,-42.59858 l -2.86367,-3.02629 1.80334,-0.25452 c 3.50841,-0.49516 19.22006,-1.26811 20.29463,-0.99841 1.72132,0.43202 8.19793,9.86757 16.76282,24.4212 3.19409,5.42743 4.89405,7.41387 5.62953,6.57818 0.1845,-0.20963 0.858,-1.90803 1.49669,-3.77421 2.7262,-7.96578 9.22232,-19.51877 14.60719,-25.97811 l 2.20988,-2.65083 h 66.95797 66.95796 l 1.6696,2.01463 c 8.37643,10.10748 14.86774,23.284 17.9171,36.36936 2.14829,9.21869 2.74842,22.11835 1.4794,31.79907 -2.10046,16.02316 -9.00341,31.98737 -19.21871,44.44639 -2.93972,3.5854 -9.83131,10.43235 -13.33573,13.24934 -3.77309,3.03296 -10.26928,7.22712 -14.79865,9.55452 l -4.09903,2.10626 -36.61769,-0.009 -36.61768,-0.009 -4.24132,-2.23332 z" style="fill:#000000" />
</svg>