<svg xmlns="http://www.w3.org/2000/svg" viewBox="0 0 512 384">
<rect y="0" x="0" height="384" width="512" style="fill:none;)" />

<polygon points="287.64,89.858 287.64,93.548 286.41,156.87 284.56,238.03 283.54,245.61 280.87,252.99 276.98,259.34 271.45,264.88 263.45,271.23 254.03,279.84 246.44,289.88 239.88,300.54 235.38,312.63 232.71,324.72 231.69,337.22 231.69,757.76 232.71,771.49 235.58,784.6 236.81,787.48 238.66,789.93 241.26,790.77 397.06,790.77 401.17,789.93 403.02,787.48 404.25,784.6 406.91,771.49 408.14,757.76 408.14,337.22 407.32,324.72 404.25,312.63 399.53,300.54 393.59,289.88 385.6,279.84 376.38,271.23 368.38,264.88 363.06,259.34 358.75,252.99 356.29,245.61 355.06,238.03 353.42,156.87 352.4,93.548 352.4,89.858 352.6,89.039 353.22,88.014 354.04,87.194 354.45,85.965 354.04,67.93 353.83,66.7 353.01,65.88 351.99,64.855 351.78,64.036 351.78,56.863 351.37,56.863 350.76,53.789 348.71,51.74 345.63,51.124 293.99,51.124 291.33,51.74 289.07,53.789 288.25,56.863 288.25,64.036 287.84,64.855 287.02,65.88 286,66.7 285.79,67.93 285.18,85.965 285.38,87.194 286.41,88.014 286.61,88.014 287.23,89.039 " style="fill:#000000" transform="matrix(0.77390625,0,0,0.77390625,6.86224,179.00771)" />
<path style="fill:#808080;" d="m 254.32164,218.71938 c 0,-3.48319 -0.20775,-3.77969 -2.95969,-4.22418 l -1.7532,-0.28317 -0.31952,-4.45824 c -0.17582,-2.45203 -0.34319,-19.89353 -0.37207,-38.75891 l -0.0526,-34.30073 -9.30176,-0.423 c -10.41176,-0.47347 -28.03016,-0.55585 -38.641,-0.18059 l -7.01499,0.24806 -1.91469,-1.53703 c -3.90894,-3.13791 -6.23756,-10.34889 -5.2556,-16.27484 0.64588,-3.89777 2.17972,-7.15455 4.42883,-9.40365 2.64913,-2.64913 4.43282,-3.06885 9.53947,-2.2447 2.80731,0.45308 8.22266,0.67648 15.91362,0.65651 10.78454,-0.028 12.40176,-0.15319 21.58008,-1.6717 12.22521,-2.02242 18.4112,-2.14881 28.02929,-0.57258 15.40832,2.52515 28.68283,3.23474 37.45507,2.00221 8.1373,-1.14331 8.37556,-1.1442 10.54057,-0.0397 2.34231,1.19497 4.06674,3.25522 5.68196,6.78858 0.92397,2.02122 1.12266,3.32667 1.12844,7.41408 0.007,4.40314 -0.14923,5.29563 -1.38264,7.93751 -1.53763,3.29355 -3.31267,5.40245 -5.51462,6.55191 -1.28109,0.66874 -2.59856,0.68413 -11.1621,0.1304 -9.27332,-0.59971 -19.85452,-0.50203 -37.55131,0.34669 l -6.63677,0.31829 v 34.89771 34.89768 l -2.1084,0.0199 -2.10841,0.0199 1.3518,0.73359 c 2.01972,1.09606 2.36891,2.17737 2.36891,7.33552 0,4.64081 -0.0199,4.71797 -1.52635,5.98574 -0.83948,0.70639 -1.73245,1.28433 -1.98436,1.28433 -0.25192,4e-5 -0.45804,-1.43786 -0.45804,-3.19528 z" />
<path style="fill:#808080;" d="m 254.32164,235.8632 c 0,-3.65671 -0.28196,-4.00065 -3.29555,-4.01984 -1.39911,-0.0105 -1.66539,-0.84934 -1.66539,-5.25633 0,-2.79182 0.16471,-3.68014 0.68212,-3.68014 0.37519,0 1.37979,-0.1395 2.23243,-0.31006 1.18648,-0.23729 1.55029,-0.13493 1.55029,0.43591 0,0.41029 0.67862,1.02708 1.50805,1.37063 2.48729,1.03026 2.9568,2.1823 2.9568,7.25498 0,2.50906 -0.13871,4.9233 -0.30815,5.36499 -0.26754,0.69715 -2.60788,2.25464 -3.38791,2.25464 -0.15001,0 -0.27269,-1.53666 -0.27269,-3.41478 z" />
<path style="fill:#808080;" d="m 254.21938,252.57214 -0.14585,-3.57602 -2.23243,-0.54062 -2.23241,-0.54064 -0.14427,-4.07821 c -0.15478,-4.37707 -0.23665,-4.23557 2.7487,-4.75137 1.34267,-0.23199 1.6123,-0.1236 1.6123,0.64743 0,0.54898 0.45851,1.04108 1.1261,1.20864 0.61934,0.15537 1.62393,0.74644 2.23242,1.31334 0.99484,0.92681 1.10633,1.50701 1.10633,5.75688 0,5.2436 -0.3496,6.28756 -2.47341,7.38581 l -1.45181,0.75077 z" />
<path style="fill:#808080;" d="m 254.32164,269.56219 v -3.45017 l -1.86036,-0.33523 c -2.87194,-0.51748 -3.10058,-0.89839 -3.10058,-5.16551 v -3.84599 l 1.55029,-0.31006 c 2.30658,-0.4613 2.91455,-0.38331 2.91455,0.3739 0,0.37617 0.67862,0.96506 1.50805,1.30861 2.51413,1.04139 2.9568,2.16419 2.9568,7.49951 0,4.75811 -0.0159,4.81935 -1.52635,6.09079 -0.83948,0.70637 -1.73245,1.28432 -1.98437,1.28432 -0.25191,0 -0.45803,-1.55258 -0.45803,-3.45017 z" />
<path style="fill:#808080;" d="m 254.32164,286.92084 c 0,-3.70191 0.13053,-3.53681 -3.34864,-4.23704 l -1.6123,-0.32447 v -4.09382 -4.0938 l 2.23243,-0.51085 c 2.00603,-0.45905 2.23241,-0.42059 2.23241,0.37909 0,0.48946 0.42809,1.02581 0.95129,1.19185 0.5232,0.16609 1.52779,0.75541 2.23243,1.30967 1.22862,0.96646 1.28113,1.21623 1.28113,6.09426 0,4.64644 -0.0966,5.17341 -1.11622,6.09123 -2.44863,2.20413 -2.85253,1.9484 -2.85253,-1.80612 z" />
</svg>