<svg xmlns="http://www.w3.org/2000/svg" viewBox="0 0 512 384">
<rect y="0" x="0" height="384" width="512" style="fill:none;)" />
<rect style="fill:none" width="1024" height="768" x="339.92474" y="58.876556" />
<g style="fill:#808080" transform="matrix(1.2573593,0,0,1.2573593,-442.18414,-734.97515)" >
<rect ry="18" y="796.36206" x="78" height="36" width="868"
 />
<rect y="818.36206" x="120" height="82" width="786" />
</g>
<path style="fill:none;stroke:#000;stroke-width:8.8;stroke-linejoin:round" d="m 362.01108,172.4643 a 45.023381,61.988719 89.9511 0 1 -62.27421,44.60095 45.023381,61.988719 89.9511 0 1 -61.70013,-44.97011 l 61.98869,-0.0529 z" />
<path style="fill:#000000;" d="m 327.57842,155.48077 a 77.514568,97.815997 0 0 1 -38.75728,84.71114 77.514568,97.815997 0 0 1 -77.51458,0 77.514568,97.815997 0 0 1 -38.75727,-84.71114" />
<rect style="fill:#000;" width="155.02863" height="9.6" x="170.44476" y="256.65454" />
</svg>