<svg xmlns="http://www.w3.org/2000/svg" viewBox="0 0 1024 768">


<style>
.line { stroke-linecap: round; stroke-width: 11px; stroke: red; } 
.box { stroke-width:0; stroke:green; height: 100%; width: 100%; fill: none; } 
.circle { stroke: red; stroke-width: 11px; } 
.button { width: 9%; height: 12%; } 
.btnCoff { fill: white; } 
.btnCon { fill: red; } 
.btnToff { fill: black; } 
.btnTon { fill: white; } 

</style> 

<rect width="1024" height="768" x="0" y="0" fill="yellow"/>

<g style="fill:#808080" transform="translate(0.271776,-272.96536)">
<rect ry="18" y="796.36206" x="78" height="36" width="868" style="fill:#808080;" />
<rect y="818.36206" x="120" height="82" width="786" style="fill:#808080;" />
<rect y="896.36206" x="120" height="166" width="42" style="fill:#808080;" />
<rect y="895.36206" x="864" height="166" width="42" style="fill:#808080;" />
</g>
<circle r="17.813562" cy="346.10327" cx="785.70825" id="path1191" style="fill:#000000;" />
<path d="m 725.90878,369.85701 c 12.67111,-11.12098 29.0177,-18.61677 45.91233,-21.05327 6.0969,-0.87928 14.86765,-1.11931 20.67646,-0.56586 15.09217,1.43796 29.48649,6.61402 41.98911,15.09888 2.53693,1.72168 6.10692,4.45082 8.07939,6.17642 l 1.14549,1.00215 -59.27251,-0.003 -59.27251,-0.003 z" style="fill:#000000;" />
<rect ry="2.9471924" y="516.73889" x="732.69171" height="7.5" width="100" style="fill:#000000;" />
<path d="m 863.93702,473.74992 c 3.65164,-7.25458 5.98396,-13.71951 7.60258,-21.07346 0.91242,-4.14538 0.99136,-4.31918 1.24407,-2.73887 0.29894,1.86944 1.84275,3.62555 3.89309,4.42841 3.62192,1.41829 11.53279,-0.1738 16.77035,-3.37506 7.73032,-4.72487 15.50117,-14.75057 17.78166,-22.94129 2.09473,-7.52355 2.12175,-20.19135 0.0556,-26.06991 -2.80901,-7.99215 -10.47956,-14.66463 -18.27851,-15.90017 -11.7075,-1.85476 -16.37909,1.69388 -22.47972,17.07604 l -1.14485,2.88663 -1.15574,-3.25551 c -1.22768,-3.4582 -4.49326,-10.48757 -6.4624,-13.91074 l -1.18618,-2.06206 3.0313,-2.89062 c 9.09086,-8.66896 21.63152,-11.6508 33.54424,-7.97596 12.5758,3.8794 23.0116,14.9975 26.41196,28.13881 3.70202,14.30711 -1.51205,32.39594 -13.03135,45.20892 -4.31152,4.79572 -9.85743,9.77787 -14.4713,13.00025 -11.82134,8.25614 -31.00964,18.34674 -34.88817,18.34674 -0.54498,0 0.0847,-1.57062 2.76337,-6.89215 z" style="fill:#000000;" />
<path d="m 745.25837,512.32114 c -14.13676,-7.44389 -25.03992,-17.35949 -33.70758,-30.65451 -3.27398,-5.02185 -6.94086,-12.2564 -8.54435,-16.85755 -0.95227,-2.73249 -1.16769,-3.00228 -3.7946,-4.75229 -5.22734,-3.48238 -10.89022,-9.77589 -13.53461,-15.04185 -1.93571,-3.85472 -3.24667,-8.20083 -6.54569,-21.70028 -6.24226,-25.54313 -8.68586,-30.7827 -19.8668,-42.59858 l -2.86367,-3.02629 1.80334,-0.25452 c 3.50841,-0.49516 19.22006,-1.26811 20.29463,-0.99841 1.72132,0.43202 8.19793,9.86757 16.76282,24.4212 3.19409,5.42743 4.89405,7.41387 5.62953,6.57818 0.1845,-0.20963 0.858,-1.90803 1.49669,-3.77421 2.7262,-7.96578 9.22232,-19.51877 14.60719,-25.97811 l 2.20988,-2.65083 h 66.95797 66.95796 l 1.6696,2.01463 c 8.37643,10.10748 14.86774,23.284 17.9171,36.36936 2.14829,9.21869 2.74842,22.11835 1.4794,31.79907 -2.10046,16.02316 -9.00341,31.98737 -19.21871,44.44639 -2.93972,3.5854 -9.83131,10.43235 -13.33573,13.24934 -3.77309,3.03296 -10.26928,7.22712 -14.79865,9.55452 l -4.09903,2.10626 -36.61769,-0.009 -36.61768,-0.009 -4.24132,-2.23332 z" style="fill:#000000;" />
<path style="fill:none;stroke:#000000;stroke-width:7;stroke-linejoin:round;" d="m -639.47919,-449.28316 a 49.30072,35.807888 0 0 1 49.55804,-35.42963 49.30072,35.807888 0 0 1 49.04066,35.80739 h -49.30072 z" transform="rotate(179.9511)" />
  <path style="fill:#000000;" d="m 612.4775,435.22992 a 61.648701,77.794785 0 0 1 -30.82435,67.37226 61.648701,77.794785 0 0 1 -61.64871,0 61.648701,77.794785 0 0 1 -30.82434,-67.37226" />
<rect style="fill:#000000;" width="123.297" height="7.5" x="487.50632" y="515.69519" />
<rect style="fill:none;stroke:#000000;stroke-width:7;stroke-linejoin:round;" width="63.327179" height="175.9249" x="165.59888" y="343.98651" />
<rect style="fill:#000000;" width="58" height="125" x="168.21179" y="394.9693"/>
<path style="fill:#808080;" d="m 190.42074,390.50368 c 0,0 -3.4085,-17.09178 -7.5339,-37.57144 -4.1254,-20.47965 -7.4803,-37.24985 -7.4554,-37.2671 0.2173,-0.15031 8.1066,-1.64532 8.1877,-1.55158 0.076,0.0874 6.6993,32.69706 8.1316,40.03389 0.048,0.24554 1.6894,8.40659 3.6477,18.13568 1.9583,9.72908 3.5605,18.23324 3.5605,18.23324 l -4.2304,0.003 z" />
<path style="fill:#ffffff;" d="m 207.60894,458.64719 c -0.2145,-0.24307 -1.1275,-1.76565 -2.0289,-3.38351 -2.1957,-3.94109 -3.2742,-5.52823 -4.5652,-6.71829 -2.3624,-2.17751 -5.7565,-3.5845 -8.6678,-3.59307 -2.1358,-0.006 -2.6091,-0.14844 -2.6091,-0.7837 0,-0.82368 5.6977,-8.86495 7.8603,-11.09332 2.7612,-2.84529 4.5646,-2.71891 9.607,0.67328 6.4727,4.35435 10.0383,7.42384 10.9359,9.41447 0.4376,0.97049 0.4386,1.06865 0.02,2.16323 -0.7955,2.08307 -6.2912,10.64285 -8.3075,12.93926 -0.805,0.91684 -1.6467,1.05991 -2.2452,0.38165 v 0 z" />
<path style="fill:#ffffff;1" d="m 184.69644,430.89516 c -2.2329,-2.35894 -6.8238,-8.35115 -8.0468,-10.50306 -0.8924,-1.57025 -1.4014,-3.31642 -1.2003,-4.11778 0.5645,-2.2489 9.2704,-9.48129 14.1769,-11.77731 3.8642,-1.80829 5.1164,-1.08972 11.1115,6.3763 4.9059,6.10962 6.1735,8.63579 5.3373,10.63692 -0.5674,1.35817 -1.3705,1.75809 -4.0211,2.00269 -4.6866,0.43244 -6.2373,1.29562 -11.2885,6.2836 -1.8276,1.80465 -3.4759,3.28119 -3.6629,3.28119 -0.1871,0 -1.2698,-0.98215 -2.4061,-2.18255 z" />
<path style="fill:#808080;" d="m 217.21304,513.90917 c -0.1036,-0.41801 -5.6698,-28.00108 -12.3695,-61.29573 -6.6996,-33.29464 -12.5155,-62.36206 -12.5155,-62.36206 l 4.1753,0.0128 4.2856,-0.004 4.5512,22.7992 c 2.4805,12.4262 8.0357,39.98661 12.3217,61.25 4.2859,21.26339 7.6958,38.6665 7.5775,38.67357 -0.1183,0.007 -1.9302,0.38926 -4.0266,0.84931 l -3.8115,0.83645 z" />
<path style="fill:#ffffff;" d="m 183.23614,480.91866 c -1.2988,-0.6429 -2.2013,-2.02723 -4.6843,-7.18459 -2.3899,-4.96391 -3.8148,-8.69437 -3.9615,-10.37082 -0.1452,-1.66029 0.4906,-2.60213 2.8387,-4.20457 2.2543,-1.53844 9.762,-5.28301 12.2926,-6.13114 2.979,-0.99838 4.3339,-0.79343 5.9404,0.89855 1.6858,1.77543 6.0302,9.92387 7.5224,14.10912 1.1063,3.10306 0.4798,4.6226 -2.8256,6.85308 -2.4172,1.63113 -8.8356,4.74577 -11.8848,5.76735 -2.6641,0.89255 -3.8462,0.95191 -5.2379,0.26302 z" />
<path style="fill:#ffffff;" d="m 205.37824,506.64944 c -1.4903,-0.28468 -5.4462,-2.26793 -10.1572,-5.09216 -6.3564,-3.81066 -6.9943,-4.51447 -6.7232,-7.41733 0.3803,-4.07345 2.5787,-5.95751 12.8819,-11.04017 l 6.0074,-2.96353 3.0221,1.58876 c 5.7067,3.00001 7.6785,4.90338 7.6785,7.41194 0,1.10592 -0.2478,1.80974 -1.5624,4.43786 -1.9114,3.82136 -5.0279,9.17405 -6.3978,10.98847 -1.4468,1.91627 -2.7173,2.47432 -4.7493,2.08616 z"/>

<polygon points="289.07,53.789 288.25,56.863 288.25,64.036 287.84,64.855 287.02,65.88 286,66.7 285.79,67.93 285.18,85.965 285.38,87.194 286.41,88.014 286.61,88.014 287.23,89.039 287.64,89.858 287.64,93.548 286.41,156.87 284.56,238.03 283.54,245.61 280.87,252.99 276.98,259.34 271.45,264.88 263.45,271.23 254.03,279.84 246.44,289.88 239.88,300.54 235.38,312.63 232.71,324.72 231.69,337.22 231.69,757.76 232.71,771.49 235.58,784.6 236.81,787.48 238.66,789.93 241.26,790.77 397.06,790.77 401.17,789.93 403.02,787.48 404.25,784.6 406.91,771.49 408.14,757.76 408.14,337.22 407.32,324.72 404.25,312.63 399.53,300.54 393.59,289.88 385.6,279.84 376.38,271.23 368.38,264.88 363.06,259.34 358.75,252.99 356.29,245.61 355.06,238.03 353.42,156.87 352.4,93.548 352.4,89.858 352.6,89.039 353.22,88.014 354.04,87.194 354.45,85.965 354.04,67.93 353.83,66.7 353.01,65.88 351.99,64.855 351.78,64.036 351.78,56.863 351.37,56.863 350.76,53.789 348.71,51.74 345.63,51.124 293.99,51.124 291.33,51.74 " style="fill:#000" transform="matrix(0.39,0,0,0.39,277,215)" />
<path style="fill:#808080;" d="m 401.70395,235.01218 c 0,-1.75531 -0.10469,-1.90473 -1.4915,-2.12872 l -0.8835,-0.1427 -0.16102,-2.24667 c -0.0886,-1.23567 -0.17294,-10.02509 -0.1875,-19.53206 l -0.0265,-17.2854 -4.6875,-0.21317 c -5.24686,-0.2386 -14.12542,-0.28011 -19.47261,-0.091 l -3.53512,0.125 -0.96488,-0.77456 c -1.96986,-1.58131 -3.14334,-5.21519 -2.64849,-8.2015 0.32548,-1.96423 1.09844,-3.60544 2.23185,-4.73885 1.33499,-1.33499 2.23386,-1.5465 4.80729,-1.13118 1.41471,0.22832 4.1437,0.3409 8.01946,0.33084 5.43473,-0.0141 6.24971,-0.0772 10.875,-0.84243 6.16074,-1.01918 9.27809,-1.08287 14.125,-0.28855 7.76482,1.27252 14.45434,1.63011 18.875,1.00899 4.10068,-0.57616 4.22075,-0.57661 5.31178,-0.02 1.18038,0.60219 2.04938,1.64043 2.86335,3.42102 0.46562,1.01856 0.56575,1.67643 0.56866,3.73623 0.003,2.2189 -0.0752,2.66866 -0.69676,4 -0.77487,1.65974 -1.66938,2.7225 -2.77902,3.30175 -0.64559,0.337 -1.30951,0.34476 -5.625,0.0657 -4.67317,-0.30222 -10.00542,-0.25299 -18.92349,0.17471 l -3.34452,0.1604 v 17.58624 17.58624 l -1.0625,0.01 -1.0625,0.01 0.68122,0.36968 c 1.01781,0.55235 1.19378,1.09726 1.19378,3.69664 0,2.33868 -0.01,2.37756 -0.76918,3.01644 -0.42305,0.35597 -0.87305,0.64722 -1,0.64722 -0.12695,2e-5 -0.23082,-0.72459 -0.23082,-1.61022 z"/>
<path style="fill:#808080;" d="m 401.70395,243.65158 c 0,-1.84275 -0.14209,-2.01607 -1.66075,-2.02574 -0.70506,-0.005 -0.83925,-0.42802 -0.83925,-2.64886 0,-1.4069 0.083,-1.85456 0.34375,-1.85456 0.18907,0 0.69532,-0.0703 1.125,-0.15625 0.59791,-0.11958 0.78125,-0.068 0.78125,0.21967 0,0.20676 0.34198,0.51758 0.75996,0.69071 1.25344,0.51919 1.49004,1.09974 1.49004,3.65605 0,1.26441 -0.0699,2.48104 -0.15529,2.70362 -0.13482,0.35132 -1.3142,1.1362 -1.70729,1.1362 -0.0756,0 -0.13742,-0.77438 -0.13742,-1.72084 z" />
<path style="fill:#808080;" d="m 401.65242,252.07184 -0.0735,-1.80209 -1.125,-0.27244 -1.125,-0.27245 -0.0727,-2.05516 c -0.078,-2.20577 -0.11926,-2.13446 1.38517,-2.39439 0.67662,-0.11691 0.8125,-0.0623 0.8125,0.32626 0,0.27665 0.23106,0.52464 0.56748,0.60908 0.31211,0.0783 0.81836,0.37616 1.125,0.66184 0.50134,0.46706 0.55752,0.75944 0.55752,2.90111 0,2.64244 -0.17618,3.16853 -1.24644,3.72198 l -0.73162,0.37834 z" />
<path style="fill:#808080;" d="m 401.70395,260.63375 v -1.73867 l -0.9375,-0.16893 c -1.44728,-0.26078 -1.5625,-0.45273 -1.5625,-2.60309 v -1.93814 l 0.78125,-0.15625 c 1.16237,-0.23247 1.46875,-0.19316 1.46875,0.18842 0,0.18957 0.34198,0.48633 0.75996,0.65946 1.26696,0.52479 1.49004,1.09061 1.49004,3.77928 0,2.39779 -0.008,2.42865 -0.76918,3.06937 -0.42305,0.35597 -0.87305,0.64722 -1,0.64722 -0.12695,0 -0.23082,-0.7824 -0.23082,-1.73867 z" />
<path style="fill:#808080;" d="m 401.70395,269.38142 c 0,-1.86553 0.0658,-1.78233 -1.6875,-2.1352 l -0.8125,-0.16352 v -2.06302 -2.06302 l 1.125,-0.25744 c 1.01092,-0.23133 1.125,-0.21195 1.125,0.19104 0,0.24666 0.21573,0.51694 0.47939,0.60062 0.26366,0.0837 0.76991,0.38068 1.125,0.65999 0.61915,0.48703 0.64561,0.6129 0.64561,3.07112 0,2.34152 -0.0487,2.60708 -0.5625,3.0696 -1.23396,1.11074 -1.4375,0.98187 -1.4375,-0.91017 z" />




<!--Title-->
<svg id="AnnotDivLn-P00X-ID0" x="0%" y="76%">
<svg width="18%" height="24%">
<svg class="button" id="BtnContainerP00XBtnID0">

<rect id="P00XBtnImgId0B" class="circle btnCon" x="-5%" y="25%" width="100%" height="43%" fill="white" rx="15" ry="15"/>

<svg id="P00XBtnImgId0T" class="btnTon" x="null">
<svg viewBox="0 0 400 400">
<g transform="scale(0.365, 0.365)">
<g transform="translate(-60, 300)">
<path id="P00XDigitPath0DH" d="m 106.53335,354.43 c 0.0327,-1.22648 3.95043,-20.89477 8.70605,-43.70731 l 8.64657,-41.47736 H 106.26006 88.63415 v -15.16376 -15.16376 h 20.48169 c 19.77057,0 20.51455,-0.13933 21.42801,-4.01394 4.93098,-20.91544 14.54246,-70.95318 13.7762,-71.71944 -0.53758,-0.53758 -13.28683,-0.97742 -28.33166,-0.97742 H 88.63415 v -14.27178 -14.27178 h 31.09929 c 28.09308,0 31.18455,-0.30178 31.98126,-3.12195 0.48508,-1.71707 4.68591,-21.78676 9.33518,-44.599302 l 8.45322,-41.477352 h 14.65485 14.65485 l -8.64657,41.477352 c -4.75562,22.812542 -8.67334,42.882232 -8.70606,44.599302 -0.0545,2.86293 2.67878,3.12195 32.94401,3.12195 18.15192,0 33.00349,-0.28689 33.00349,-0.63753 0,-0.35065 3.13928,-15.80431 6.97617,-34.341471 3.8369,-18.537156 7.90775,-38.319951 9.04634,-43.961763 l 2.07018,-10.25784 h 14.71459 14.7146 l -8.53918,41.477352 c -4.69654,22.812542 -8.56526,42.882232 -8.59718,44.599302 -0.0514,2.76903 1.95873,3.12195 17.78172,3.12195 h 17.83973 v 14.27178 14.27178 h -20.41039 c -11.61869,0 -20.88311,0.76485 -21.5078,1.77563 -1.26052,2.03957 -15.16892,68.33931 -15.16892,72.3085 0,2.20346 4.59889,2.62667 28.54355,2.62667 h 28.54356 v 15.16376 15.16376 h -32.07752 c -31.79897,0 -32.08563,0.0348 -33.01331,4.01394 -0.51469,2.20767 -4.18379,20.06969 -8.15355,39.69338 -3.96976,19.6237 -7.66491,37.48572 -8.21144,39.69338 -0.92577,3.73956 -1.95602,4.01394 -15.07208,4.01394 -11.14262,0 -14.07838,-0.54222 -14.07838,-2.60025 0,-1.43014 3.61255,-19.97231 8.02788,-41.20483 4.41533,-21.23251 8.02787,-39.7307 8.02787,-41.10707 0,-2.05715 -5.87315,-2.50249 -33.00348,-2.50249 -18.15192,0 -33.00349,0.38179 -33.00349,0.84843 0,0.96898 -15.4987,76.4409 -16.95271,82.55227 -0.8916,3.74754 -1.89993,4.01394 -15.19277,4.01394 -10.23264,0 -14.22106,-0.6273 -14.17831,-2.22997 z M 226,238.1287 c 0,-0.434 3.21115,-16.13465 7.13589,-34.89033 3.92474,-18.75568 7.13589,-35.66052 7.13589,-37.5663 0,-3.30201 -1.50609,-3.46506 -32.00621,-3.46506 -17.60342,0 -32.43574,0.69498 -32.96072,1.54441 -1.12738,1.82415 -15.31182,69.21293 -15.31182,72.74488 0,1.95211 6.39768,2.42151 33.00349,2.42151 18.15191,0 33.00348,-0.3551 33.00348,-0.78911 z"/>
</g>
</g>
</svg>

<svg viewBox="0 0 400 400">
<g transform="scale(0.37, 0.37)">
<g transform="translate(175, 300)">
<path id="P00XDigitPath0D1" d="m 176.29871,358.09364 c -20.50105,-4.98061 -40.58042,-19.4385 -52.24756,-37.62016 -16.78007,-26.14946 -24.3114,-62.90261 -24.32214,-118.69282 -0.0129,-66.9279 9.87082,-104.020609 34.95564,-131.185517 11.48468,-12.437011 21.5433,-18.838934 37.30911,-23.745809 13.8716,-4.317323 38.89165,-4.60793 54.26264,-0.630255 35.36819,9.152511 59.62952,40.96431 70.28468,92.158211 3.74795,18.0075 5.36057,80.44329 2.72153,105.36883 -6.88364,65.01493 -31.83287,102.85216 -75.28112,114.16897 -12.50815,3.25796 -34.66589,3.34093 -47.68278,0.17858 z M 216,328.04735 c 19.90951,-6.43005 35.6255,-27.23126 41.55812,-55.00504 5.14304,-24.07729 7.2635,-67.9449 4.89102,-101.18417 -3.40139,-47.65466 -10.47467,-69.05748 -28.04226,-84.852257 -21.47364,-19.306642 -50.85858,-18.763028 -70.93387,1.312258 -10.9745,10.974495 -15.80865,21.895169 -21.75097,49.136779 -3.28055,15.03916 -3.83468,24.06633 -3.9067,63.64306 -0.12617,69.32152 5.0892,92.28608 25.62658,112.84038 16.39075,16.40427 32.26041,20.66441 52.55808,14.10899 z"/>
</g>
</g>
</svg>

<svg viewBox="0 0 400 400">
<g transform="scale(0.37, 0.37)">
<g transform="translate(400, 300)">
<path id="P00XDigitPath0D2" d="m 176.29871,358.09364 c -20.50105,-4.98061 -40.58042,-19.4385 -52.24756,-37.62016 -16.78007,-26.14946 -24.3114,-62.90261 -24.32214,-118.69282 -0.0129,-66.9279 9.87082,-104.020609 34.95564,-131.185517 11.48468,-12.437011 21.5433,-18.838934 37.30911,-23.745809 13.8716,-4.317323 38.89165,-4.60793 54.26264,-0.630255 35.36819,9.152511 59.62952,40.96431 70.28468,92.158211 3.74795,18.0075 5.36057,80.44329 2.72153,105.36883 -6.88364,65.01493 -31.83287,102.85216 -75.28112,114.16897 -12.50815,3.25796 -34.66589,3.34093 -47.68278,0.17858 z M 216,328.04735 c 19.90951,-6.43005 35.6255,-27.23126 41.55812,-55.00504 5.14304,-24.07729 7.2635,-67.9449 4.89102,-101.18417 -3.40139,-47.65466 -10.47467,-69.05748 -28.04226,-84.852257 -21.47364,-19.306642 -50.85858,-18.763028 -70.93387,1.312258 -10.9745,10.974495 -15.80865,21.895169 -21.75097,49.136779 -3.28055,15.03916 -3.83468,24.06633 -3.9067,63.64306 -0.12617,69.32152 5.0892,92.28608 25.62658,112.84038 16.39075,16.40427 32.26041,20.66441 52.55808,14.10899 z"/>
</g>
</g>
</svg>

<svg viewBox="0 0 400 400">
<g transform="scale(0.37, 0.37)">
<g transform="translate(625, 300)">
<path id="P00XDigitPath0D3" d="M 225.63619,322.89833 V 285.38365 H 157.1719 88.707623 l 0.0428,-18.2884 0.0428,-18.28841 L 161.153,146.11042 233.51278,43.414 h 14.81901 14.81901 v 103.16535 103.16536 h 21.57094 21.57094 v 17.81947 17.81947 H 284.72174 263.1508 v 37.51468 37.51467 h -18.75734 -18.75733 z m 0,-145.74451 c 0,-40.17103 -0.71425,-71.79506 -1.59928,-70.80895 -0.8796,0.98006 -20.84734,29.63659 -44.37274,63.68115 -23.52541,34.04458 -45.6678,65.9086 -49.20529,70.80896 l -6.43183,8.90973 h 50.80457 50.80457 z"/>
</g>
</g>
</svg>
</svg>
</svg>
</svg>
</svg>


<!--1-->
<svg x="4%" y="38%">

<svg width="18%" height="24%">
<rect class="box"/>
</svg> 

<svg width="18%" height="24%">
<g transform="scale(1, 1)">
<svg>
<line class="line" x1="25%" y1="50%" x2="65%" y2="50%"/>
</svg>
</g>
</svg> 

<svg class="button" x="0%" y="6%" width="9%" height="12%">
<g transform="scale(1, 1)">
<svg class="btnCoff">
<circle class="circle" cx="50%" cy="50%" r="40%"/>
</svg>
<svg x="13%" y="14%" viewBox="0 0 400 400">
<g transform='scale(0.65 0.65)' class="btnToff">
<path d="m 212.51385,236.61457 c 0,-68.08913 -0.49101,-123.79842 -1.09113,-123.79842 -0.60011,0 -4.60949,2.85695 -8.90973,6.34877 -15.76274,12.79946 -51.27108,33.48609 -64.55957,37.61144 -4.16868,1.29415 -4.22034,1.09606 -4.21593,-16.16673 l 0.004,-17.47694 10.15495,-5.30595 c 29.94812,-15.64787 65.50005,-45.926729 76.91039,-65.503008 L 226,43.413996 h 12.01405 12.01403 V 201.91351 360.413 h -18.75714 -18.75733 z">
</path>
</g>
</svg>
</g>
</svg>

</svg> 

<!--2-->
<svg x="25%" y="39%">

<svg width="18%" height="24%">
<rect class="box"/>
</svg>

<svg width="18%" height="24%">
<g transform="scale(1, 1)">
<svg>
<line class="line" x1="25%" y1="50%" x2="65%" y2="50%"/>
</svg>
</g>
</svg>

<svg class="button" x="0%" y="6%" width="9%" height="12%">
<g transform="scale(1, 1)">
<svg class="btnCoff">
<circle class="circle" cx="50%" cy="50%" r="40%"/>
</svg>
<svg x="17%" y="14%" viewBox="0 0 400 400">
<g transform='scale(0.65 0.65)' class="btnToff">
<path d="m 89.58885,354.9505 c 0,-9.08544 6.69,-27.66163 14.99891,-41.64758 10.46314,-17.61208 34.70133,-42.26454 77.8164,-79.14641 56.76554,-48.55888 74.07604,-71.84823 75.69209,-101.83532 0.68123,-12.64079 0.13245,-16.68621 -3.36721,-24.82137 -8.17409,-19.001199 -28.08368,-32.149009 -51.18595,-33.801968 -35.32602,-2.527564 -61.4689,17.237938 -67.12098,50.747268 l -2.17961,12.92219 -6.8452,-0.99309 c -3.76485,-0.5462 -12.12302,-1.53321 -18.57371,-2.19334 -13.38172,-1.36943 -13.19184,-0.9572 -8.8754,-19.26663 7.64833,-32.442768 27.80077,-55.331672 58.28661,-66.201255 15.8151,-5.638798 53.26342,-7.118703 70.21955,-2.774978 19.81582,5.076306 31.22816,11.324708 43.8938,24.032434 24.5068,24.58821 31.59249,58.249839 19.35698,91.958319 -9.63325,26.53929 -30.89598,50.38432 -93.27576,104.60387 -34.31549,29.82651 -56.29682,52.07913 -56.29682,56.99163 0,0.67875 35.04478,1.23408 77.87727,1.23408 h 77.87727 V 342.58568 360.413 H 193.73797 89.58885 Z"> </path>
</g>
</svg>
</g>
</svg>

</svg> 

<!--3-->
<svg x="45%" y="43%">

<svg width="18%" height="24%">
<rect class="box"/>
</svg>

<svg width="18%" height="24%">
<g transform="scale(1, 1)">
<svg>
<line class="line" x1="50%" y1="25%" x2="50%" y2="65%"/>
</svg>
</g>
</svg>

<svg class="button" x="4.5%" y="0%" width="9%" height="12%">
<g transform="scale(1, 1)">
<svg class="btnCoff">
<circle class="circle" cx="50%" cy="50%" r="40%"/>
</svg>
<svg x="18%" y="14%" viewBox="0 0 400 400">
<g transform='scale(0.65 0.65)' class="btnToff">
<path d="m 173.83716,359.45692 c -18.66018,-2.9667 -40.72659,-15.27459 -54.14712,-30.20144 -12.54222,-13.94997 -23.357256,-37.46217 -23.357256,-50.77931 0,-4.35004 1.69981,-4.85216 24.912116,-7.35898 l 11.07205,-1.19575 4.20831,13.47979 c 9.9409,31.84202 28.45628,46.88499 57.61067,46.80621 18.87657,-0.0509 30.75866,-4.4471 43.50372,-16.09538 12.13935,-11.09468 18.27787,-22.34007 21.12761,-38.70447 5.15035,-29.57556 -10.10458,-57.9459 -36.54341,-67.96155 -9.19277,-3.48242 -13.13951,-3.88251 -30.53819,-3.09563 l -19.981,0.90367 1.1639,-9.47298 c 2.47018,-20.10455 1.22861,-18.63983 17.85405,-21.06302 24.52854,-3.57506 42.00178,-13.6186 50.067,-28.77829 5.8138,-10.92782 5.80462,-35.68077 -0.0173,-46.625834 -9.49327,-17.847159 -29.24664,-27.706407 -52.21785,-26.062824 -25.94334,1.856235 -45.58888,20.568374 -50.80921,48.395168 -0.67414,3.59344 -2.17129,6.53523 -3.327,6.53729 -5.47229,0.009 -34.39481,-6.07992 -34.39481,-7.24191 0,-4.29405 6.71947,-22.935104 11.56967,-32.096404 11.06272,-20.895821 33.65768,-38.236081 56.75931,-43.559326 12.11645,-2.791958 38.2133,-2.39756 50.33891,0.760762 39.4862,10.284847 64.13386,39.653402 64.21488,76.514248 0.0551,25.09015 -12.34555,46.7623 -33.75292,58.98855 l -9.00459,5.14273 11.10661,4.04967 c 28.16696,10.2702 45.00697,33.86408 47.4156,66.43221 3.46337,46.82958 -29.08593,89.37712 -77.01763,100.67534 -10.80422,2.54672 -36.47932,3.40987 -47.81614,1.60746 z"> </path>
</g>
</svg>
</g>
</svg>

</svg>


<!--4-->
<svg x="68%" y="57%">

<svg width="18%" height="24%">
<rect class="box"/>
</svg>

<svg width="18%" height="24%">
<g transform="scale(1, 1)">
<svg>
<line class="line" x1="50%" y1="75%" x2="50%" y2="35%"/>
</svg>
</g>
</svg>

<svg class="button" x="4.5%" y="12%" width="9%" height="12%">
<g transform="scale(1, 1)">
<svg class="btnCoff">
<circle class="circle" cx="50%" cy="50%" r="40%"/>
</svg>
<svg x="17%" y="14%" viewBox="0 0 400 400">
<g transform='scale(0.65 0.65)' class="btnToff">
<path d="M 225.63619,322.89833 V 285.38365 H 157.1719 88.707623 l 0.0428,-18.2884 0.0428,-18.28841 L 161.153,146.11042 233.51278,43.414 h 14.81901 14.81901 v 103.16535 103.16536 h 21.57094 21.57094 v 17.81947 17.81947 H 284.72174 263.1508 v 37.51468 37.51467 h -18.75734 -18.75733 z m 0,-145.74451 c 0,-40.17103 -0.71425,-71.79506 -1.59928,-70.80895 -0.8796,0.98006 -20.84734,29.63659 -44.37274,63.68115 -23.52541,34.04458 -45.6678,65.9086 -49.20529,70.80896 l -6.43183,8.90973 h 50.80457 50.80457 z"> </path>
</g>
</svg>
</g>
</svg>

</svg>


<!--5-->
<svg x="10%" y="30%">

<svg width="18%" height="24%">
<rect class="box"/>
</svg>

<svg width="18%" height="24%">
<g transform="scale(1, 1)">
<svg>
<line class="line" x1="75%" y1="25%" x2="45%" y2="55%"/>
</svg>
</g>
</svg>

<svg class="button" x="9%" y="0%" width="9%" height="12%">
<g transform="scale(1, 1)">
<svg class="btnCoff">
<circle class="circle" cx="50%" cy="50%" r="40%"/>
</svg>
<svg x="17%" y="16%" viewBox="0 0 400 400">
<g transform='scale(0.65 0.65)' class="btnToff">
<path d="m 168.94319,357.50038 c -36.2159,-7.8427 -64.36078,-35.59431 -71.68144,-70.67989 -1.42482,-6.82864 -1.59203,-11.38468 -0.45645,-12.43693 0.98565,-0.91329 9.8143,-2.21966 19.61924,-2.90303 l 17.82716,-1.24248 2.32857,9.80273 c 4.89951,20.62576 18.05941,37.54708 34.99137,44.99271 12.37523,5.44186 33.42823,5.8781 47.57322,0.98575 20.31323,-7.02576 38.98274,-30.76157 43.58285,-55.40981 7.21847,-38.67801 -7.21922,-72.1779 -37.13926,-86.17451 -9.34397,-4.37112 -13.05416,-5.00017 -29.54284,-5.00896 -17.75081,-0.009 -19.59598,0.36511 -31.45832,6.38612 -6.93081,3.51789 -16.04953,10.13686 -20.26382,14.70884 l -7.66235,8.31267 -13.1038,-1.31597 c -7.20709,-0.72378 -14.97323,-1.85579 -17.25809,-2.51556 l -4.15428,-1.1996 15.07987,-80.19424 15.07988,-80.194223 h 78.34767 78.34768 v 17.82094 17.820939 h -63.50637 -63.50637 l -8.54021,42.676464 c -4.69711,23.47205 -8.29803,42.92708 -8.00205,43.23343 0.29599,0.30632 5.9152,-2.37331 12.48713,-5.95476 19.0005,-10.35454 30.96785,-13.01726 54.01241,-12.01769 27.57288,1.19598 44.85965,8.85699 64.09288,28.40418 30.29589,30.79042 36.80496,83.52891 15.62201,126.57444 -22.03333,44.77354 -70.69674,66.79346 -122.71629,55.52844 z"> </path>
</g>
</svg>
</g>
</svg>

</svg>


<!--6-->
<svg x="11%" y="57%">

<svg width="18%" height="24%">
<rect class="box"/>
</svg>

<svg width="18%" height="24%">
<g transform="scale(1, 1)">
<svg>
<line class="line" x1="50%" y1="75%" x2="50%" y2="35%"/>
</svg>
</g>
</svg>

<svg class="button" x="4.5%" y="12%" width="9%" height="12%">
<g transform="scale(1, 1)">
<svg class="btnCoff">
<circle class="circle" cx="50%" cy="50%" r="40%"/>
</svg>
<svg x="17%" y="16%" viewBox="0 0 400 400">
<g transform='scale(0.65 0.65)' class="btnToff">
<path d="M 175.74827,357.67012 C 142.20336,349.55065 114.73048,321.82093 103.73678,284.98535 94.986776,255.66754 92.383876,195.43915 98.168426,156.13951 108.93161,83.015553 146.47661,43.413998 205.03996,43.413998 c 28.92539,0 48.94394,7.634731 65.26368,24.890453 10.66124,11.272692 17.65882,24.334472 21.224,39.616999 2.36744,10.14833 2.3268,11.11238 -0.47419,11.24645 -1.68497,0.0806 -9.90685,0.71581 -18.27085,1.41148 l -15.20727,1.26484 -3.75124,-11.2725 c -8.23361,-24.741997 -25.69318,-37.615031 -51.05373,-37.642165 -29.2521,-0.03132 -54.43881,24.307968 -64.93809,62.753175 -3.79722,13.90426 -8.51143,56.71617 -6.47006,58.75755 0.60746,0.60746 2.28845,-0.55389 3.73553,-2.58077 6.76774,-9.47946 21.10372,-22.05107 30.70913,-26.92968 26.85579,-13.64012 54.21117,-14.30462 80.69121,-1.9601 14.61323,6.81243 35.33077,27.93071 42.5636,43.3869 24.0215,51.33277 3.65329,120.67674 -42.28341,143.95462 -19.53429,9.89877 -48.24689,12.87347 -71.03,7.35887 z m 49.00532,-32.22828 c 16.55359,-8.27804 28.82455,-23.88085 33.99036,-43.21955 3.35354,-12.55426 3.1571,-38.56899 -0.3839,-50.8385 -3.88745,-13.46998 -14.09248,-28.06589 -24.39327,-34.88884 -23.64225,-15.65998 -57.87381,-12.14364 -77.46254,7.95711 -12.72781,13.0605 -17.5936,25.10471 -18.46538,45.70711 -1.7053,40.29993 17.66026,70.86044 50.26078,79.31587 9.11219,2.3634 27.79648,0.2962 36.45395,-4.0332 z"> </path>
</g>
</svg>
</g>
</svg>

</svg>


<!--7-->
<svg x="30%" y="8%">

<svg width="18%" height="24%">
<rect class="box"/>
</svg>

<svg width="18%" height="24%">
<g transform="scale(1, 1)">
<svg>
<line class="line" x1="50%" y1="25%" x2="50%" y2="65%"/>
</svg>
</g>
</svg>

<svg class="button" x="4.5%" y="0%" width="9%" height="12%">
<g transform="scale(1, 1)">
<svg class="btnCoff">
<circle class="circle" cx="50%" cy="50%" r="40%"/>
</svg>
<svg x="18%" y="19%" viewBox="0 0 400 400">
<g transform='scale(0.63 0.63)' class="btnToff">
<path d="m 140.98091,351.34224 c 0.0168,-13.58986 4.97377,-43.867 11.57509,-70.70154 15.97709,-64.94729 46.39458,-128.96012 86.18299,-181.369964 L 253.59895,79.69701 H 174.36871 95.138484 V 61.555505 43.413996 H 199.21345 303.28843 v 14.364911 c 0,13.999171 -0.18734,14.570462 -7.36051,22.438187 -21.44234,23.518736 -48.59975,66.365736 -68.98288,108.836196 -27.15358,56.57743 -38.83097,96.98804 -46.89641,162.28895 l -1.12034,9.07076 h -18.97931 -18.97932 l 0.0112,-9.07076 z"> </path>
</g>
</svg>
</g>
</svg>

</svg>


<!--8-->
<svg x="40%" y="71%">

<svg width="18%" height="24%">
<rect class="box"/>
</svg>

<svg width="18%" height="24%">
<g transform="scale(1, 1)">
<svg>
<line class="line" x1="50%" y1="75%" x2="50%" y2="35%"/>
</svg>
</g>
</svg>

<svg class="button" x="4.5%" y="12%" width="9%" height="12%">
<g transform="scale(1, 1)">
<svg class="btnCoff">
<circle class="circle" cx="50%" cy="50%" r="40%"/>
</svg>
<svg x="17%" y="17%" viewBox="0 0 400 400">
<g transform='scale(0.65 0.65)' class="btnToff">
<path d="m 173.4216,357.85439 c -27.63349,-5.99601 -54.31184,-25.96967 -65.53331,-49.06377 -16.39434,-33.73997 -11.85335,-74.95142 10.94425,-99.32391 7.88321,-8.42778 27.42723,-20.39198 33.31117,-20.39198 5.9722,0 3.5309,-3.69646 -5.29228,-8.01324 -12.81432,-6.26945 -24.7581,-18.24441 -30.66046,-30.74043 -6.58446,-13.94015 -6.75386,-39.73309 -0.36777,-55.996616 8.07932,-20.57572 25.26277,-37.015714 47.69133,-45.627939 13.08974,-5.026254 44.20637,-6.92879 59.93125,-3.66432 25.11933,5.21475 47.56127,22.510469 58.74514,45.274139 5.9894,12.190856 6.32754,13.916606 6.32754,32.294726 0,17.49562 -0.50732,20.44867 -5.12985,29.86168 -5.90103,12.01641 -15.6452,21.53503 -28.94404,28.27407 -5.11134,2.59011 -9.29333,4.99651 -9.29333,5.34757 0,0.35106 5.26669,3.23107 11.70374,6.40001 29.55607,14.55042 45.50407,40.72397 45.50407,74.6804 0,44.39145 -30.60028,81.3791 -75.13257,90.81538 -15.53004,3.29077 -38.30456,3.23755 -53.80488,-0.12586 z m 55.88163,-32.86153 c 12.53903,-5.78235 24.37317,-17.69279 30.24784,-30.44282 4.02209,-8.72933 4.82246,-13.15937 4.89285,-27.08193 0.0766,-15.14942 -0.45648,-17.74381 -5.93131,-28.86667 -7.02578,-14.27385 -17.07083,-24.04705 -31.59403,-30.73898 -8.66934,-3.99461 -13.09671,-4.78931 -26.97996,-4.84284 -14.14303,-0.0545 -18.14843,0.65493 -26.97997,4.77881 -14.04218,6.55699 -24.47622,16.42104 -30.63424,28.96079 -4.57113,9.3083 -5.12985,12.45597 -5.12985,28.90016 0,16.01305 0.63228,19.79674 4.77992,28.60391 8.847,18.78589 20.27127,28.40134 40.47745,34.06862 13.76846,3.86167 34.42967,2.38917 46.8513,-3.33905 z M 215.95183,170.5606 c 11.65129,-3.23609 23.78493,-12.90241 29.86709,-23.79377 4.62031,-8.2736 5.59929,-12.12077 5.6352,-22.14495 0.0562,-15.67283 -3.16532,-24.653049 -12.46166,-34.738376 -11.99014,-13.00777 -19.53135,-16.12063 -39.05384,-16.12063 -19.01967,0 -26.5436,2.96248 -38.20223,15.04182 -8.89597,9.216987 -12.72887,18.768996 -12.79158,31.877916 -0.0774,16.18537 2.99158,24.66731 12.75305,35.24632 13.17907,14.28285 34.65599,20.07493 54.25397,14.63167 z"> </path>
</g>
</svg>
</g>
</svg>

</svg>


</svg> 


</svg>

