<svg xmlns="http://www.w3.org/2000/svg" viewBox="0 0 512 384">
<rect y="0" x="0" height="384" width="512" style="fill:none;)" />
<g style="fill:red" transform="translate(-145.43217,-442.36206)" >
<rect  ry="18" y="796.36206" x="78" height="36" width="868" style="fill:#808080" />
<rect y="818.36206" x="120" height="82" width="786" style="fill:#808080" />
<rect y="896.36206"  x="120" height="166" width="42" style="fill:#808080" />
<rect y="895.36206" x="864" height="166" width="42" style="fill:#808080" />
</g>
<polygon points="285.18,85.965 285.38,87.194 286.41,88.014 286.61,88.014 287.23,89.039 287.64,89.858 287.64,93.548 286.41,156.87 284.56,238.03 283.54,245.61 280.87,252.99 276.98,259.34 271.45,264.88 263.45,271.23 254.03,279.84 246.44,289.88 239.88,300.54 235.38,312.63 232.71,324.72 231.69,337.22 231.69,757.76 232.71,771.49 235.58,784.6 236.81,787.48 238.66,789.93 241.26,790.77 397.06,790.77 401.17,789.93 403.02,787.48 404.25,784.6 406.91,771.49 408.14,757.76 408.14,337.22 407.32,324.72 404.25,312.63 399.53,300.54 393.59,289.88 385.6,279.84 376.38,271.23 368.38,264.88 363.06,259.34 358.75,252.99 356.29,245.61 355.06,238.03 353.42,156.87 352.4,93.548 352.4,89.858 352.6,89.039 353.22,88.014 354.04,87.194 354.45,85.965 354.04,67.93 353.83,66.7 353.01,65.88 351.99,64.855 351.78,64.036 351.78,56.863 351.37,56.863 350.76,53.789 348.71,51.74 345.63,51.124 293.99,51.124 291.33,51.74 289.07,53.789 288.25,56.863 288.25,64.036 287.84,64.855 287.02,65.88 286,66.7 285.79,67.93 " style="fill:#000000" transform="matrix(0.39,0,0,0.39,131.29605,45.603299)" />
<path style="fill:#808080" d="m 256,65.615479 c 0,-1.75531 -0.10469,-1.90473 -1.4915,-2.12872 l -0.8835,-0.1427 -0.16102,-2.24667 c -0.0886,-1.23567 -0.17294,-10.02509 -0.1875,-19.53206 l -0.0265,-17.2854 -4.6875,-0.21317 c -5.24686,-0.2386 -14.12542,-0.28011 -19.47261,-0.091 l -3.53512,0.125 -0.96488,-0.77456 c -1.96986,-1.58131 -3.14334,-5.21519 -2.64849,-8.2015 0.32548,-1.96423 1.09844,-3.60544 2.23185,-4.73885 1.33499,-1.33499 2.23386,-1.5465 4.80729,-1.13118 1.41471,0.22832 4.1437,0.3409 8.01946,0.33084 5.43473,-0.0141 6.24971,-0.0772 10.875,-0.84243 6.16074,-1.01918 9.27809,-1.08287 14.125,-0.28855 7.76482,1.27252 14.45434,1.63011 18.875,1.00899 4.10068,-0.57616 4.22075,-0.57661 5.31178,-0.02 1.18038,0.60219 2.04938,1.64043 2.86335,3.42102 0.46562,1.01856 0.56575,1.67643 0.56866,3.73623 0.003,2.2189 -0.0752,2.66866 -0.69676,4 -0.77487,1.65974 -1.66938,2.7225 -2.77902,3.30175 -0.64559,0.337 -1.30951,0.34476 -5.625,0.0657 -4.67317,-0.30222 -10.00542,-0.25299 -18.92349,0.17471 l -3.34452,0.1604 v 17.58624 17.58624 l -1.0625,0.01 -1.0625,0.01 0.68122,0.36968 c 1.01781,0.55235 1.19378,1.09726 1.19378,3.69664 0,2.33868 -0.01,2.37756 -0.76918,3.01644 -0.42305,0.35597 -0.87305,0.64722 -1,0.64722 -0.12695,2e-5 -0.23082,-0.72459 -0.23082,-1.61022 z" />
<path style="fill:#808080" d="m 256,74.254879 c 0,-1.84275 -0.14209,-2.01607 -1.66075,-2.02574 -0.70506,-0.005 -0.83925,-0.42802 -0.83925,-2.64886 0,-1.4069 0.083,-1.85456 0.34375,-1.85456 0.18907,0 0.69532,-0.0703 1.125,-0.15625 0.59791,-0.11958 0.78125,-0.068 0.78125,0.21967 0,0.20676 0.34198,0.51758 0.75996,0.69071 1.25344,0.51919 1.49004,1.09974 1.49004,3.65605 0,1.26441 -0.0699,2.48104 -0.15529,2.70362 -0.13482,0.35132 -1.3142,1.1362 -1.70729,1.1362 -0.0756,0 -0.13742,-0.77438 -0.13742,-1.72084 z" />
<path style="fill:#808080" d="m 255.94847,82.675139 -0.0735,-1.80209 -1.125,-0.27244 -1.125,-0.27245 -0.0727,-2.05516 c -0.078,-2.20577 -0.11926,-2.13446 1.38517,-2.39439 0.67662,-0.11691 0.8125,-0.0623 0.8125,0.32626 0,0.27665 0.23106,0.52464 0.56748,0.60908 0.31211,0.0783 0.81836,0.37616 1.125,0.66184 0.50134,0.46706 0.55752,0.75944 0.55752,2.90111 0,2.64244 -0.17618,3.16853 -1.24644,3.72198 l -0.73162,0.37834 z" />
<path style="fill:#808080" d="m 256,91.237049 v -1.73867 l -0.9375,-0.16893 c -1.44728,-0.26078 -1.5625,-0.45273 -1.5625,-2.60309 v -1.93814 l 0.78125,-0.15625 c 1.16237,-0.23247 1.46875,-0.19316 1.46875,0.18842 0,0.18957 0.34198,0.48633 0.75996,0.65946 1.26696,0.52479 1.49004,1.09061 1.49004,3.77928 0,2.39779 -0.008,2.42865 -0.76918,3.069371 -0.42305,0.35597 -0.87305,0.64722 -1,0.64722 -0.12695,0 -0.23082,-0.7824 -0.23082,-1.738671 z" />
<path style="fill:#808080" d="m 256,99.98472 c 0,-1.86553 0.0658,-1.78233 -1.6875,-2.1352 L 253.5,97.686 v -2.06302 -2.06302 l 1.125,-0.25744 c 1.01092,-0.23133 1.125,-0.21195 1.125,0.19104 0,0.24666 0.21573,0.51694 0.47939,0.60062 0.26366,0.0837 0.76991,0.38068 1.125,0.65999 0.61915,0.48703 0.64561,0.6129 0.64561,3.07112 0,2.34152 -0.0487,2.60708 -0.5625,3.0696 C 256.20354,102.00563 256,101.87676 256,99.98472 Z"
/>
</svg>
