<svg xmlns="http://www.w3.org/2000/svg" viewBox="0 0 512 384">
<rect y="0" x="0" height="384" width="512" style="fill:none;)" />
<g style="fill:#808080" transform="translate(55.482838,-523.56639)" >
<rect ry="18" y="796.36206" x="78" height="36" width="868" />
<rect y="818.36206" x="120" height="82" width="786" />
<rect y="896.36206" x="120" height="166" width="42" />
<rect y="895.36206" x="864" height="166" width="42" />
</g>
<rect style="fill:none;stroke:#000000;stroke-width:7;stroke-linejoin:round" width="63" height="176" x="220" y="93" />
<rect style="fill:#000000; stroke-width:1" width="58" height="129.59619" x="222" y="140" />
<path style="fill:#808080" d="m 245.6318,139.90265 c 0,0 -3.4085,-17.09178 -7.5339,-37.57144 -4.1254,-20.47965 -7.4803,-37.24985 -7.4554,-37.2671 0.2173,-0.15031 8.1066,-1.64532 8.1877,-1.55158 0.076,0.0874 6.6993,32.69706 8.1316,40.03389 0.048,0.24554 1.6894,8.40659 3.6477,18.13568 1.9583,9.72908 3.5605,18.23324 3.5605,18.23324 l -4.2304,0.003 z" />
<path style="fill:#ffffff" d="m 262.82,208.04616 c -0.2145,-0.24307 -1.1275,-1.76565 -2.0289,-3.38351 -2.1957,-3.94109 -3.2742,-5.52823 -4.5652,-6.71829 -2.3624,-2.17751 -5.7565,-3.5845 -8.6678,-3.59307 -2.1358,-0.006 -2.6091,-0.14844 -2.6091,-0.7837 0,-0.82368 5.6977,-8.86495 7.8603,-11.09332 2.7612,-2.84529 4.5646,-2.71891 9.607,0.67328 6.4727,4.35435 10.0383,7.42384 10.9359,9.41447 0.4376,0.97049 0.4386,1.06865 0.02,2.16323 -0.7955,2.08307 -6.2912,10.64285 -8.3075,12.93926 -0.805,0.91684 -1.6467,1.05991 -2.2452,0.38165 v 0 z" />
<path style="fill:#ffffff" d="m 239.9075,180.29413 c -2.2329,-2.35894 -6.8238,-8.35115 -8.0468,-10.50306 -0.8924,-1.57025 -1.4014,-3.31642 -1.2003,-4.11778 0.5645,-2.2489 9.2704,-9.48129 14.1769,-11.77731 3.8642,-1.80829 5.1164,-1.08972 11.1115,6.3763 4.9059,6.10962 6.1735,8.63579 5.3373,10.63692 -0.5674,1.35817 -1.3705,1.75809 -4.0211,2.00269 -4.6866,0.43244 -6.2373,1.29562 -11.2885,6.2836 -1.8276,1.80465 -3.4759,3.28119 -3.6629,3.28119 -0.1871,0 -1.2698,-0.98215 -2.4061,-2.18255 z" />
<path style="fill:#808080" d="m 272.4241,263.30814 c -0.1036,-0.41801 -5.6698,-28.00108 -12.3695,-61.29573 -6.6996,-33.29464 -12.5155,-62.36206 -12.5155,-62.36206 l 4.1753,0.0128 4.2856,-0.004 4.5512,22.7992 c 2.4805,12.4262 8.0357,39.98661 12.3217,61.25 4.2859,21.26339 7.6958,38.6665 7.5775,38.67357 -0.1183,0.007 -1.9302,0.38926 -4.0266,0.84931 l -3.8115,0.83645 z"/>
<path style="fill:#ffffff" d="m 238.4472,230.31763 c -1.2988,-0.6429 -2.2013,-2.02723 -4.6843,-7.18459 -2.3899,-4.96391 -3.8148,-8.69437 -3.9615,-10.37082 -0.1452,-1.66029 0.4906,-2.60213 2.8387,-4.20457 2.2543,-1.53844 9.762,-5.28301 12.2926,-6.13114 2.979,-0.99838 4.3339,-0.79343 5.9404,0.89855 1.6858,1.77543 6.0302,9.92387 7.5224,14.10912 1.1063,3.10306 0.4798,4.6226 -2.8256,6.85308 -2.4172,1.63113 -8.8356,4.74577 -11.8848,5.76735 -2.6641,0.89255 -3.8462,0.95191 -5.2379,0.26302 z" />
<path style="fill:#ffffff" d="m 260.5893,256.04841 c -1.4903,-0.28468 -5.4462,-2.26793 -10.1572,-5.09216 -6.3564,-3.81066 -6.9943,-4.51447 -6.7232,-7.41733 0.3803,-4.07345 2.5787,-5.95751 12.8819,-11.04017 l 6.0074,-2.96353 3.0221,1.58876 c 5.7067,3.00001 7.6785,4.90338 7.6785,7.41194 0,1.10592 -0.2478,1.80974 -1.5624,4.43786 -1.9114,3.82136 -5.0279,9.17405 -6.3978,10.98847 -1.4468,1.91627 -2.7173,2.47432 -4.7493,2.08616 z" />
</svg>
