<svg xmlns="http://www.w3.org/2000/svg" viewBox="0 0 1024 768">
<rect width="1024" height="768" x="0" y="0" fill="none"/>

<g style="fill:#808080" transform="translate(0.271776,-272.96536)">
<rect ry="18" y="796.36206" x="78" height="36" width="868" style="fill:#808080;" />
<rect y="818.36206" x="120" height="82" width="786" style="fill:#808080;" />
<rect y="896.36206" x="120" height="166" width="42" style="fill:#808080;" />
<rect y="895.36206" x="864" height="166" width="42" style="fill:#808080;" />
</g>
<circle r="17.813562" cy="346.10327" cx="785.70825" id="path1191" style="fill:#000000;" />
<path d="m 725.90878,369.85701 c 12.67111,-11.12098 29.0177,-18.61677 45.91233,-21.05327 6.0969,-0.87928 14.86765,-1.11931 20.67646,-0.56586 15.09217,1.43796 29.48649,6.61402 41.98911,15.09888 2.53693,1.72168 6.10692,4.45082 8.07939,6.17642 l 1.14549,1.00215 -59.27251,-0.003 -59.27251,-0.003 z" style="fill:#000000;" />
<rect ry="2.9471924" y="516.73889" x="732.69171" height="7.5" width="100" style="fill:#000000;" />
<path d="m 863.93702,473.74992 c 3.65164,-7.25458 5.98396,-13.71951 7.60258,-21.07346 0.91242,-4.14538 0.99136,-4.31918 1.24407,-2.73887 0.29894,1.86944 1.84275,3.62555 3.89309,4.42841 3.62192,1.41829 11.53279,-0.1738 16.77035,-3.37506 7.73032,-4.72487 15.50117,-14.75057 17.78166,-22.94129 2.09473,-7.52355 2.12175,-20.19135 0.0556,-26.06991 -2.80901,-7.99215 -10.47956,-14.66463 -18.27851,-15.90017 -11.7075,-1.85476 -16.37909,1.69388 -22.47972,17.07604 l -1.14485,2.88663 -1.15574,-3.25551 c -1.22768,-3.4582 -4.49326,-10.48757 -6.4624,-13.91074 l -1.18618,-2.06206 3.0313,-2.89062 c 9.09086,-8.66896 21.63152,-11.6508 33.54424,-7.97596 12.5758,3.8794 23.0116,14.9975 26.41196,28.13881 3.70202,14.30711 -1.51205,32.39594 -13.03135,45.20892 -4.31152,4.79572 -9.85743,9.77787 -14.4713,13.00025 -11.82134,8.25614 -31.00964,18.34674 -34.88817,18.34674 -0.54498,0 0.0847,-1.57062 2.76337,-6.89215 z" style="fill:#000000;" />
<path d="m 745.25837,512.32114 c -14.13676,-7.44389 -25.03992,-17.35949 -33.70758,-30.65451 -3.27398,-5.02185 -6.94086,-12.2564 -8.54435,-16.85755 -0.95227,-2.73249 -1.16769,-3.00228 -3.7946,-4.75229 -5.22734,-3.48238 -10.89022,-9.77589 -13.53461,-15.04185 -1.93571,-3.85472 -3.24667,-8.20083 -6.54569,-21.70028 -6.24226,-25.54313 -8.68586,-30.7827 -19.8668,-42.59858 l -2.86367,-3.02629 1.80334,-0.25452 c 3.50841,-0.49516 19.22006,-1.26811 20.29463,-0.99841 1.72132,0.43202 8.19793,9.86757 16.76282,24.4212 3.19409,5.42743 4.89405,7.41387 5.62953,6.57818 0.1845,-0.20963 0.858,-1.90803 1.49669,-3.77421 2.7262,-7.96578 9.22232,-19.51877 14.60719,-25.97811 l 2.20988,-2.65083 h 66.95797 66.95796 l 1.6696,2.01463 c 8.37643,10.10748 14.86774,23.284 17.9171,36.36936 2.14829,9.21869 2.74842,22.11835 1.4794,31.79907 -2.10046,16.02316 -9.00341,31.98737 -19.21871,44.44639 -2.93972,3.5854 -9.83131,10.43235 -13.33573,13.24934 -3.77309,3.03296 -10.26928,7.22712 -14.79865,9.55452 l -4.09903,2.10626 -36.61769,-0.009 -36.61768,-0.009 -4.24132,-2.23332 z" style="fill:#000000;" />
<path style="fill:none;stroke:#000000;stroke-width:7;stroke-linejoin:round;" d="m -639.47919,-449.28316 a 49.30072,35.807888 0 0 1 49.55804,-35.42963 49.30072,35.807888 0 0 1 49.04066,35.80739 h -49.30072 z" transform="rotate(179.9511)" />
  <path style="fill:#000000;" d="m 612.4775,435.22992 a 61.648701,77.794785 0 0 1 -30.82435,67.37226 61.648701,77.794785 0 0 1 -61.64871,0 61.648701,77.794785 0 0 1 -30.82434,-67.37226" />
<rect style="fill:#000000;" width="123.297" height="7.5" x="487.50632" y="515.69519" />
<rect style="fill:none;stroke:#000000;stroke-width:7;stroke-linejoin:round;" width="63.327179" height="175.9249" x="165.59888" y="343.98651" />
<rect style="fill:#000000;" width="58" height="125" x="168.21179" y="394.9693"/>
<path style="fill:#808080;" d="m 190.42074,390.50368 c 0,0 -3.4085,-17.09178 -7.5339,-37.57144 -4.1254,-20.47965 -7.4803,-37.24985 -7.4554,-37.2671 0.2173,-0.15031 8.1066,-1.64532 8.1877,-1.55158 0.076,0.0874 6.6993,32.69706 8.1316,40.03389 0.048,0.24554 1.6894,8.40659 3.6477,18.13568 1.9583,9.72908 3.5605,18.23324 3.5605,18.23324 l -4.2304,0.003 z" />
<path style="fill:#ffffff;" d="m 207.60894,458.64719 c -0.2145,-0.24307 -1.1275,-1.76565 -2.0289,-3.38351 -2.1957,-3.94109 -3.2742,-5.52823 -4.5652,-6.71829 -2.3624,-2.17751 -5.7565,-3.5845 -8.6678,-3.59307 -2.1358,-0.006 -2.6091,-0.14844 -2.6091,-0.7837 0,-0.82368 5.6977,-8.86495 7.8603,-11.09332 2.7612,-2.84529 4.5646,-2.71891 9.607,0.67328 6.4727,4.35435 10.0383,7.42384 10.9359,9.41447 0.4376,0.97049 0.4386,1.06865 0.02,2.16323 -0.7955,2.08307 -6.2912,10.64285 -8.3075,12.93926 -0.805,0.91684 -1.6467,1.05991 -2.2452,0.38165 v 0 z" />
<path style="fill:#ffffff;1" d="m 184.69644,430.89516 c -2.2329,-2.35894 -6.8238,-8.35115 -8.0468,-10.50306 -0.8924,-1.57025 -1.4014,-3.31642 -1.2003,-4.11778 0.5645,-2.2489 9.2704,-9.48129 14.1769,-11.77731 3.8642,-1.80829 5.1164,-1.08972 11.1115,6.3763 4.9059,6.10962 6.1735,8.63579 5.3373,10.63692 -0.5674,1.35817 -1.3705,1.75809 -4.0211,2.00269 -4.6866,0.43244 -6.2373,1.29562 -11.2885,6.2836 -1.8276,1.80465 -3.4759,3.28119 -3.6629,3.28119 -0.1871,0 -1.2698,-0.98215 -2.4061,-2.18255 z" />
<path style="fill:#808080;" d="m 217.21304,513.90917 c -0.1036,-0.41801 -5.6698,-28.00108 -12.3695,-61.29573 -6.6996,-33.29464 -12.5155,-62.36206 -12.5155,-62.36206 l 4.1753,0.0128 4.2856,-0.004 4.5512,22.7992 c 2.4805,12.4262 8.0357,39.98661 12.3217,61.25 4.2859,21.26339 7.6958,38.6665 7.5775,38.67357 -0.1183,0.007 -1.9302,0.38926 -4.0266,0.84931 l -3.8115,0.83645 z" />
<path style="fill:#ffffff;" d="m 183.23614,480.91866 c -1.2988,-0.6429 -2.2013,-2.02723 -4.6843,-7.18459 -2.3899,-4.96391 -3.8148,-8.69437 -3.9615,-10.37082 -0.1452,-1.66029 0.4906,-2.60213 2.8387,-4.20457 2.2543,-1.53844 9.762,-5.28301 12.2926,-6.13114 2.979,-0.99838 4.3339,-0.79343 5.9404,0.89855 1.6858,1.77543 6.0302,9.92387 7.5224,14.10912 1.1063,3.10306 0.4798,4.6226 -2.8256,6.85308 -2.4172,1.63113 -8.8356,4.74577 -11.8848,5.76735 -2.6641,0.89255 -3.8462,0.95191 -5.2379,0.26302 z" />
<path style="fill:#ffffff;" d="m 205.37824,506.64944 c -1.4903,-0.28468 -5.4462,-2.26793 -10.1572,-5.09216 -6.3564,-3.81066 -6.9943,-4.51447 -6.7232,-7.41733 0.3803,-4.07345 2.5787,-5.95751 12.8819,-11.04017 l 6.0074,-2.96353 3.0221,1.58876 c 5.7067,3.00001 7.6785,4.90338 7.6785,7.41194 0,1.10592 -0.2478,1.80974 -1.5624,4.43786 -1.9114,3.82136 -5.0279,9.17405 -6.3978,10.98847 -1.4468,1.91627 -2.7173,2.47432 -4.7493,2.08616 z"/>

<polygon points="289.07,53.789 288.25,56.863 288.25,64.036 287.84,64.855 287.02,65.88 286,66.7 285.79,67.93 285.18,85.965 285.38,87.194 286.41,88.014 286.61,88.014 287.23,89.039 287.64,89.858 287.64,93.548 286.41,156.87 284.56,238.03 283.54,245.61 280.87,252.99 276.98,259.34 271.45,264.88 263.45,271.23 254.03,279.84 246.44,289.88 239.88,300.54 235.38,312.63 232.71,324.72 231.69,337.22 231.69,757.76 232.71,771.49 235.58,784.6 236.81,787.48 238.66,789.93 241.26,790.77 397.06,790.77 401.17,789.93 403.02,787.48 404.25,784.6 406.91,771.49 408.14,757.76 408.14,337.22 407.32,324.72 404.25,312.63 399.53,300.54 393.59,289.88 385.6,279.84 376.38,271.23 368.38,264.88 363.06,259.34 358.75,252.99 356.29,245.61 355.06,238.03 353.42,156.87 352.4,93.548 352.4,89.858 352.6,89.039 353.22,88.014 354.04,87.194 354.45,85.965 354.04,67.93 353.83,66.7 353.01,65.88 351.99,64.855 351.78,64.036 351.78,56.863 351.37,56.863 350.76,53.789 348.71,51.74 345.63,51.124 293.99,51.124 291.33,51.74 " style="fill:#000" transform="matrix(0.39,0,0,0.39,277,215)" />
<path style="fill:#808080;" d="m 401.70395,235.01218 c 0,-1.75531 -0.10469,-1.90473 -1.4915,-2.12872 l -0.8835,-0.1427 -0.16102,-2.24667 c -0.0886,-1.23567 -0.17294,-10.02509 -0.1875,-19.53206 l -0.0265,-17.2854 -4.6875,-0.21317 c -5.24686,-0.2386 -14.12542,-0.28011 -19.47261,-0.091 l -3.53512,0.125 -0.96488,-0.77456 c -1.96986,-1.58131 -3.14334,-5.21519 -2.64849,-8.2015 0.32548,-1.96423 1.09844,-3.60544 2.23185,-4.73885 1.33499,-1.33499 2.23386,-1.5465 4.80729,-1.13118 1.41471,0.22832 4.1437,0.3409 8.01946,0.33084 5.43473,-0.0141 6.24971,-0.0772 10.875,-0.84243 6.16074,-1.01918 9.27809,-1.08287 14.125,-0.28855 7.76482,1.27252 14.45434,1.63011 18.875,1.00899 4.10068,-0.57616 4.22075,-0.57661 5.31178,-0.02 1.18038,0.60219 2.04938,1.64043 2.86335,3.42102 0.46562,1.01856 0.56575,1.67643 0.56866,3.73623 0.003,2.2189 -0.0752,2.66866 -0.69676,4 -0.77487,1.65974 -1.66938,2.7225 -2.77902,3.30175 -0.64559,0.337 -1.30951,0.34476 -5.625,0.0657 -4.67317,-0.30222 -10.00542,-0.25299 -18.92349,0.17471 l -3.34452,0.1604 v 17.58624 17.58624 l -1.0625,0.01 -1.0625,0.01 0.68122,0.36968 c 1.01781,0.55235 1.19378,1.09726 1.19378,3.69664 0,2.33868 -0.01,2.37756 -0.76918,3.01644 -0.42305,0.35597 -0.87305,0.64722 -1,0.64722 -0.12695,2e-5 -0.23082,-0.72459 -0.23082,-1.61022 z"/>
<path style="fill:#808080;" d="m 401.70395,243.65158 c 0,-1.84275 -0.14209,-2.01607 -1.66075,-2.02574 -0.70506,-0.005 -0.83925,-0.42802 -0.83925,-2.64886 0,-1.4069 0.083,-1.85456 0.34375,-1.85456 0.18907,0 0.69532,-0.0703 1.125,-0.15625 0.59791,-0.11958 0.78125,-0.068 0.78125,0.21967 0,0.20676 0.34198,0.51758 0.75996,0.69071 1.25344,0.51919 1.49004,1.09974 1.49004,3.65605 0,1.26441 -0.0699,2.48104 -0.15529,2.70362 -0.13482,0.35132 -1.3142,1.1362 -1.70729,1.1362 -0.0756,0 -0.13742,-0.77438 -0.13742,-1.72084 z" />
<path style="fill:#808080;" d="m 401.65242,252.07184 -0.0735,-1.80209 -1.125,-0.27244 -1.125,-0.27245 -0.0727,-2.05516 c -0.078,-2.20577 -0.11926,-2.13446 1.38517,-2.39439 0.67662,-0.11691 0.8125,-0.0623 0.8125,0.32626 0,0.27665 0.23106,0.52464 0.56748,0.60908 0.31211,0.0783 0.81836,0.37616 1.125,0.66184 0.50134,0.46706 0.55752,0.75944 0.55752,2.90111 0,2.64244 -0.17618,3.16853 -1.24644,3.72198 l -0.73162,0.37834 z" />
<path style="fill:#808080;" d="m 401.70395,260.63375 v -1.73867 l -0.9375,-0.16893 c -1.44728,-0.26078 -1.5625,-0.45273 -1.5625,-2.60309 v -1.93814 l 0.78125,-0.15625 c 1.16237,-0.23247 1.46875,-0.19316 1.46875,0.18842 0,0.18957 0.34198,0.48633 0.75996,0.65946 1.26696,0.52479 1.49004,1.09061 1.49004,3.77928 0,2.39779 -0.008,2.42865 -0.76918,3.06937 -0.42305,0.35597 -0.87305,0.64722 -1,0.64722 -0.12695,0 -0.23082,-0.7824 -0.23082,-1.73867 z" />
<path style="fill:#808080;" d="m 401.70395,269.38142 c 0,-1.86553 0.0658,-1.78233 -1.6875,-2.1352 l -0.8125,-0.16352 v -2.06302 -2.06302 l 1.125,-0.25744 c 1.01092,-0.23133 1.125,-0.21195 1.125,0.19104 0,0.24666 0.21573,0.51694 0.47939,0.60062 0.26366,0.0837 0.76991,0.38068 1.125,0.65999 0.61915,0.48703 0.64561,0.6129 0.64561,3.07112 0,2.34152 -0.0487,2.60708 -0.5625,3.0696 -1.23396,1.11074 -1.4375,0.98187 -1.4375,-0.91017 z" />

</svg>
