<svg xmlns="http://www.w3.org/2000/svg" viewBox="0 0 512 384">
<rect width="512" height="384" id="P002WIImgRct1" fill="#fff"/>
  <path
     d="m 260.04695,216.49037 c -0.61035,-7.95166 0.65877,-23.56499 -1.29829,-22.56396 0,0 -0.31987,1.39217 -0.37484,1.82704 -0.3704,2.95849 -0.0256,15.73047 -0.45115,20.4061 0,0 -1.51436,12.23578 -2.35748,15.66721 -0.84312,3.43084 -2.36065,24.36058 -4.04731,29.50786 -1.68623,5.14691 -3.54118,12.00832 -1.85494,17.3271 1.68624,5.3185 3.5416,14.23913 1.85494,22.30244 -1.68623,8.06332 -3.54118,19.29957 -2.52935,24.96144 0.74439,4.16613 1.01183,8.14914 1.68666,9.00688 0.67399,0.85768 0,2.57267 0,4.80354 0,2.22974 0.33699,7.03393 -0.42177,8.8356 0,1.2858 1.09576,4.80312 0.50612,6.43271 -0.59048,1.63018 0,2.57375 -0.75918,3.25935 -0.75877,0.68645 -2.02366,2.48834 -4.80607,1.80231 -1.68666,-0.51544 -1.77059,-1.80231 -1.51753,-2.05964 0.25264,-0.25705 -0.9279,-0.085 -0.9279,-0.085 -0.58773,1.09533 -2.69764,1.45199 -3.70989,-0.0858 -0.16829,-0.25748 -0.75834,0.94313 -2.10758,0.6856 -1.34925,-0.25748 -0.75877,-0.85726 -0.75877,-0.85726 0,0 -1.77101,0.0854 -2.19236,-0.94356 -0.0844,0.2571 -0.92747,0.6002 -1.6023,-0.0858 -0.67441,-0.68603 -0.59006,-2.91604 -0.337,-4.03163 0.25264,-1.11565 1.43677,-3.04459 1.85495,-3.77463 0.59005,-1.02891 2.78241,-4.9752 2.69806,-6.08999 -0.0524,-0.68983 0.16828,-5.91914 0.67441,-7.20515 0.50613,-1.2873 0.59048,-2.83107 0.59048,-4.54649 0,-1.7158 0.42177,-11.40892 -2.95112,-23.33227 -3.3729,-11.92286 -4.97478,-17.75537 -5.05872,-25.99077 -0.0844,-8.23502 3.62512,-13.20979 1.43276,-25.64703 -2.19195,-12.43874 -3.11942,-20.67313 -3.37248,-21.44562 -0.25306,-0.77106 -1.6226,-18.4116 -1.6226,-18.4116 -0.19323,-19.21014 0.4482,-15.98141 0.70824,-22.95406 0.49746,-13.37233 0.22219,-10.99817 2.12471,-18.73378 0.3334,-2.57037 0.5188,-4.87098 0.85221,-7.44242 0.1389,-1.07206 0.42494,-2.41394 0.56426,-3.486 1.94416,-6.69191 1.93274,-5.3496 1.09745,-11.4694 -0.55179,-4.0528 0.13911,-3.52873 0.55264,-7.70901 0.0727,-0.74098 0.8021,-13.85439 -0.58774,-20.93104 -0.94417,-2.76234 -1.88835,-5.52506 -2.83294,-8.28676 h -0.11776 c 0.0425,6.79714 -2.33591,11.74151 -3.5416,17.53317 -0.39471,2.74861 -0.5057,5.0496 -0.90845,7.79629 -0.12367,0.84862 -0.36215,1.44968 -0.48942,2.32452 -0.54883,3.77608 0.59619,5.27857 -0.72663,12.09624 -1.53106,7.88935 -4.84709,14.77929 -6.37413,22.69695 -0.25306,1.31035 -0.11691,2.71967 -0.0668,3.99807 0.12368,0.85222 0.34144,1.33823 0.52326,2.23082 0.25263,1.2391 0.37631,2.78389 0.60527,3.97839 0.28203,1.46765 0.30401,3.23678 0.35179,4.95451 0.0437,1.55304 0.21924,2.6511 0.0609,4.62363 -0.0461,0.575 -0.007,7.68023 -0.66257,10.29327 -0.30317,1.20507 -0.99195,1.11479 -1.28476,0.90465 -1.20844,-1.61812 -0.13002,-5.31047 -1.32768,-9.21741 -0.11818,0.0803 -0.11818,0.01 -0.23636,0.0899 0.0178,0.85559 -0.14102,1.96041 -0.0378,3.27313 0.1647,2.10923 0.0799,2.9898 0.0148,3.81258 -0.17589,2.23511 -0.28414,4.16887 -0.82959,5.33148 -0.29492,0.62872 -1.09935,1.1818 -1.83274,0.31243 -0.40952,-0.69809 -0.46681,-1.72785 -0.50972,-3.18343 -0.18563,-6.35385 -0.20487,-4.29046 -0.28203,-5.70165 -0.082,-1.51857 -0.12896,-2.6993 -0.12896,-2.6993 -0.18816,-0.0498 -0.31585,-0.0748 -0.49577,-0.005 -0.45813,4.16442 -0.0376,3.3232 -0.62578,8.33919 -0.10381,0.88518 -0.0294,2.54287 -0.25898,3.61075 -0.47124,2.19087 -2.46741,1.91329 -2.63084,0.21711 -0.056,-0.57929 -0.18731,-1.20233 -0.26173,-1.70947 -0.0803,-0.54798 -0.0347,-1.32348 -0.0537,-1.90042 -0.0294,-0.88985 -0.11945,-1.66765 -0.18773,-2.55155 -0.0789,-1.02301 0.44058,-3.78327 0.005,-5.82468 -0.006,0 -0.24143,0 -0.23593,0 -0.15519,0.92158 -0.47463,2.31584 -0.83911,4.11097 -0.056,0.27673 -0.0844,0.76784 -0.14397,1.05175 -0.32748,1.56322 -0.2945,2.44712 -0.45792,3.41395 -0.25666,1.52726 0.0112,1.75852 -0.52959,2.77457 -0.59006,1.10969 -1.50844,0.60401 -1.75389,0.0172 -0.38076,-0.9114 -0.59492,-2.39786 -0.59091,-4.22296 0.008,-3.38157 0.5742,-4.09215 0.59725,-8.58745 0.005,-0.93107 0.0564,-1.74983 -0.0596,-2.61073 v 0.45009 c -0.51479,0.86868 -0.7131,1.71859 -1.65241,2.16107 -0.46786,0.16705 -0.84586,0.26343 -1.19724,0.0771 -0.34333,-0.18028 -0.57462,-0.11054 -0.44798,-0.78981 0.0975,-0.5222 0.33615,-1.23911 0.42578,-1.88305 0.13489,-0.96871 0.11734,-1.83889 0.34694,-2.85536 0.13361,-0.58964 0.50062,-1.31164 0.67715,-1.87844 0.28879,-0.92684 0.41395,-2.20905 0.66723,-2.63695 0.1909,-0.32407 0.63508,-0.84037 0.91119,-1.20464 0.0731,-0.0966 1.89088,-2.78684 2.59743,-3.7154 0.7095,-0.93209 1.20485,-1.72088 1.20485,-1.72088 0.0108,-2.48326 0.64671,-3.96993 0.43974,-6.35846 -0.35771,-4.13467 -0.10465,0.37204 -0.4945,-25.63015 1.01056,-14.43132 2.33507,-10.49055 3.62279,-23.57645 0.85792,-8.67896 1.01436,-11.89708 1.55685,-13.69898 0.51839,-1.72238 1.34036,-6.15045 1.19597,-9.23348 -0.097,-2.07208 -0.0951,-3.00653 -0.32621,-4.32916 -0.4334,-2.484925 -0.30254,-9.035595 2.47882,-14.650745 2.4264,-4.89952 5.77541,-7.19822 10.49226,-9.1519 3.28347,-1.36024 3.05134,-0.58984 9.08615,-3.85048 3.60967,-1.95072 12.22267,-7.0312 13.87318,-10.75314 0.0262,-3.45006 -0.0774,-3.05345 0.002,-6.29548 0,0 -0.67927,-2.81138 -0.9577,-4.77605 -1.44903,-0.0156 -2.27672,-1.36341 -2.77523,-3.02702 -0.4427,-1.47568 -0.39682,-4.07226 -0.40549,-4.41813 -0.0345,-1.34607 -0.0932,-2.6321 1.05601,-3.12258 0.30549,-0.0721 0.35961,-0.0795 0.49703,-0.044 0.17674,0.045 0.27019,0.23911 0.44714,0.28414 -0.22325,-7.02654 0.89597,-12.52542 5.43038,-15.61164 8.0648,-5.48873 17.79978,-0.92705 20.42152,6.60541 0.87736,2.52132 0.89047,5.9921 0.59005,9.00644 h 0.11776 c 0.25623,-0.21564 0.30549,-0.34418 0.81965,-0.26151 0.90971,0.39935 1.18202,1.46276 1.2076,3.375 0.0374,2.84246 -0.12685,4.74244 -1.98032,6.74474 -0.46278,0.5002 -0.90527,0.44185 -1.58074,0.70993 -0.0437,0.98201 -0.57145,3.93567 -0.57145,3.93567 0,0 -0.36004,5.95511 -0.13763,6.75214 0.92261,3.29023 11.78548,10.11805 18.13762,12.91315 3.75217,1.652 10.24173,2.48793 14.5941,9.42357 2.93083,4.6678 4.04879,11.30999 3.32005,15.745245 -0.28943,1.75557 -0.61226,6.12044 -0.0962,9.07899 2.30822,11.42328 1.10358,3.44242 2.62597,18.80588 0.78287,7.88469 0.97801,6.86779 2.55135,14.17802 0.18541,0.8624 0.16786,1.44523 0.28456,2.55075 0.35158,3.35428 1.18815,6.43201 0.52684,22.18343 -0.59175,14.03301 -0.8372,11.30873 -0.19936,14.45094 0.25539,1.26683 -0.64756,1.78243 2.97185,6.51071 0.31712,0.41396 0.65284,1.03025 0.96848,1.37313 0.35813,0.39005 0.69111,0.5089 0.94227,1.04231 0.2778,0.59237 0.15285,1.0949 0.29175,1.74903 0.17061,0.79067 0.3482,1.42218 0.86786,2.61074 0.21416,0.49196 -0.0159,1.85641 0.13805,2.84581 0.0867,0.55753 0.41458,1.09093 0.50486,1.63613 0,0.005 0.19852,0.27485 0.16109,0.52494 -0.0541,0.35666 -0.42367,0.7146 -1.13762,0.5609 -1.36277,-0.21984 -1.50124,-1.31753 -2.2433,-2.12155 0.0169,1.12878 -0.1258,1.53931 0.23233,6.2849 0.0903,1.19681 0.82304,6.41346 -0.25348,8.55405 -0.37124,0.73889 -1.2095,0.63339 -1.64966,0.10781 -1.17652,-1.40422 -0.0789,-2.25896 -1.88687,-10.8582 -0.23593,-1.11436 -0.49661,-0.12898 -0.49661,-0.12898 -0.0338,5.38342 0.35222,2.76277 -0.0529,6.73055 -0.19915,1.92937 -0.0793,5.7678 -1.15115,6.05471 -0.98476,0.26488 -1.55727,-0.49009 -1.72958,-1.14502 -0.44861,-1.71413 -0.41352,-3.81854 -0.42578,-4.03019 -0.0325,-0.57693 -0.21691,-1.92787 -0.23995,-2.51858 -0.0772,-1.94797 0.10507,-2.71013 -0.27527,-5.6906 -0.0302,-0.24821 -0.30908,-0.28541 -0.30908,-0.28541 -0.41458,0.38453 -0.17992,1.78731 -0.25074,2.44203 -0.66595,6.11454 0.0934,6.77859 -0.91986,9.09737 -0.34418,0.78665 -1.36996,0.82048 -1.78285,0.10379 -0.30486,-0.5311 -0.32262,-1.21054 -0.36046,-1.3429 -0.37125,-1.2873 -0.28203,-2.70718 -0.39387,-3.92575 -0.0748,-0.80547 -0.19577,-1.03256 -0.18097,-1.68245 0.0493,-2.20653 0.48816,-3.58642 0.0871,-5.8458 -0.0789,-0.0397 -0.15792,-0.0799 -0.23636,-0.11923 -0.1575,0.24462 -0.097,0.46302 -0.17589,0.78563 -0.25624,1.04183 -0.29683,2.56952 -0.46596,3.7756 -0.26617,1.90632 0.1926,4.30418 -1.0114,4.8059 -0.59006,-0.0402 -0.55031,-0.0804 -0.90359,-0.44061 -1.13656,-2.86612 -0.3816,-6.57241 -0.65898,-10.04678 -0.3353,-4.17964 -0.0135,-3.94945 0.074,-5.32445 0.40528,-6.56909 0.20423,-3.46596 0.67758,-6.80352 0.47822,-3.3708 0.64566,-2.93083 0.87378,-4.48789 0.4353,-2.97099 -0.14081,-4.40818 -1.05686,-7.97117 -0.10381,-0.40614 -0.24587,-0.73931 -0.34292,-1.15918 -0.44164,-1.89576 -1.23782,-4.01748 -1.74078,-5.83609 -4.08409,-14.76235 -3.06296,-11.43283 -3.62638,-15.35875 -0.27188,-1.89072 -0.23953,-1.16153 -0.0239,-7.54052 -0.17103,-1.18352 -0.49978,-2.20696 -0.67166,-3.39005 -0.37991,-2.61958 -0.60126,-5.39929 -0.98075,-8.01829 -1.19597,-5.5428 -3.37332,-10.3153 -3.42342,-16.93296 -0.078,0.0397 -0.15709,0.0799 -0.23594,0.1203 -0.59365,2.34924 -1.72133,5.03481 -2.7025,7.43647 -0.50845,1.24608 -0.0884,1.33743 -0.53319,3.25115 -0.61014,2.6266 -0.87631,13.49306 -0.1871,18.61434 0.19598,1.46973 0.25306,0.38244 0.59048,4.32299 0.06,0.70908 -0.0347,1.22619 -0.0947,2.03761 -0.0493,0.66319 -0.0473,1.62917 -0.13488,2.17163 -0.31035,1.92112 -0.68477,3.28369 -0.24313,5.27814 0.42706,1.92578 0.56596,0.8996 1.85009,7.38726 0.21015,1.05957 0.15877,1.61077 0.30993,2.82554 0.11945,0.9611 0.43932,2.5915 0.59957,3.43862 0.1575,0.82793 0.22473,1.89302 0.37801,2.70905 0.33149,1.7649 1.70886,6.31938 1.78856,13.12124 0.14884,12.58546 0.94629,11.73427 0.85073,21.61577 -0.12981,12.03368 -1.81478,31.19177 -3.00757,36.81182 -1.60189,7.5483 -2.69806,17.32768 -2.10716,19.21433 0.58921,1.88707 2.6137,16.72683 1.43233,23.58953 -1.18012,6.86147 -7.25065,29.5929 -7.1663,34.22516 0.0839,4.63231 -1.25136,8.76269 0.0839,11.75121 0.84354,1.88707 0.25349,5.74796 0.59048,6.86227 0.33741,1.11522 0.75876,4.28917 1.9393,5.23273 1.18053,0.94394 3.20376,5.74705 2.78241,7.29146 -0.42177,1.54372 -1.09618,2.74476 -2.19235,2.31621 -0.92706,1.0294 -2.10801,0.77191 -2.36065,0.68609 -0.25307,-0.0859 -0.92747,1.88707 -2.95113,0.34331 -0.5057,0.77142 -1.18011,1.37163 -2.61413,0.77142 -1.43317,-0.60014 -1.0114,-0.77142 -1.0114,-0.77142 l -1.09619,0.17128 c 0,0 0.16829,2.23038 -1.85536,2.23038 -2.02323,0 -4.97436,-1.3727 -4.80565,-3.6025 0.16828,-2.23081 -0.16871,-5.2331 0.84312,-8.32079 -1.01183,-2.14462 -1.09618,-5.57546 -0.59006,-7.20607 0.50571,-1.62873 0,-3.77372 -0.0848,-4.88851 -0.0843,-1.11565 1.60231,-7.89209 1.60231,-9.77874 0,-1.88793 0.16871,-19.12935 -1.01182,-21.70246 -1.18054,-2.57267 -2.69807,-12.6952 -0.92748,-19.72827 0,0 2.13739,-10.2075 2.19236,-12.78103 0.0839,-3.94629 -4.30037,-16.04081 -4.30037,-20.84392 0,-4.80397 -2.86677,-23.07522 -3.20376,-24.44792 -0.33699,-1.37248 -1.92577,-10.53263 -1.92577,-10.53263"
      />
</svg>
