<svg xmlns="http://www.w3.org/2000/svg" viewBox="0 0 512 384">
<rect width="512" height="384" id="P002WIImgRct7" fill="#fff"/>
<ellipse style="fill:#808080;" cx="255.0284" cy="191.36086" rx="172.53241" ry="173.01523" />
<path d="m 48.847882,110.73789 c -0.319121,-4.1575 0.344431,-12.320849 -0.678805,-11.797459 0,0 -0.16724,0.72788 -0.195982,0.95525 -0.193664,1.546859 -0.0134,8.224579 -0.235889,10.669219 0,0 -0.79177,6.39741 -1.232589,8.19153 -0.440829,1.79378 -1.234247,12.73679 -2.116111,15.42804 -0.881644,2.691 -1.851487,6.27847 -0.969853,9.05934 0.881647,2.78077 1.851717,7.44486 0.969853,11.66071 -0.881644,4.21587 -1.851487,10.09067 -1.322463,13.05094 0.389197,2.17825 0.529028,4.26075 0.881859,4.70921 0.352398,0.44843 0,1.34511 0,2.5115 0,1.16581 0.176199,3.67766 -0.220526,4.61965 0,0.67226 0.572924,2.51128 0.264632,3.36331 -0.308732,0.85232 0,1.34566 -0.396937,1.70413 -0.396725,0.35891 -1.058052,1.30101 -2.512823,0.94233 -0.881867,-0.2695 -0.925751,-0.94233 -0.79344,-1.07687 0.1321,-0.1344 -0.485142,-0.0444 -0.485142,-0.0444 -0.30729,0.57268 -1.410445,0.75916 -1.939697,-0.0448 -0.08798,-0.13463 -0.396492,0.49311 -1.10194,0.35845 -0.705437,-0.13461 -0.396706,-0.44821 -0.396706,-0.44821 0,0 -0.925961,0.0447 -1.14627,-0.49333 -0.04414,0.13443 -0.484926,0.31382 -0.837757,-0.0449 -0.35261,-0.3587 -0.308503,-1.52464 -0.176199,-2.10792 0.132093,-0.58332 0.751209,-1.59185 0.969852,-1.97354 0.308511,-0.53797 1.45477,-2.60126 1.410667,-3.18412 -0.02747,-0.36068 0.08799,-3.09478 0.352615,-3.76717 0.26462,-0.67306 0.308722,-1.48021 0.308722,-2.37711 0,-0.8971 0.220524,-5.9651 -1.542975,-12.19913 -1.763497,-6.23382 -2.601036,-9.2833 -2.644918,-13.58914 -0.04414,-4.30563 1.895364,-6.90666 0.749098,-13.40942 -1.146036,-6.50352 -1.630957,-10.80882 -1.763267,-11.21272 -0.132324,-0.40312 -0.848373,-9.6264 -0.848373,-9.6264 -0.101025,-10.0439 0.234333,-8.35579 0.370292,-12.001399 0.260097,-6.99166 0.116179,-5.75033 1.110894,-9.79486 0.174323,-1.3439 0.271259,-2.54676 0.445582,-3.89122 0.07265,-0.56053 0.222177,-1.26211 0.295018,-1.82264 1.016495,-3.49881 1.010528,-2.79702 0.573792,-5.99672 -0.2885,-2.11898 0.07273,-1.84496 0.288941,-4.0306 0.03801,-0.38743 0.419379,-7.24368 -0.30729,-10.94367 -0.493655,-1.44427 -0.98731,-2.88876 -1.481192,-4.33271 h -0.06153 c 0.02225,3.55386 -1.22132,6.13899 -1.851705,9.16714 -0.206375,1.43708 -0.264401,2.64016 -0.474978,4.07625 -0.06468,0.44369 -0.189351,0.75795 -0.255893,1.21535 -0.286956,1.9743 0.311721,2.75988 -0.379918,6.32446 -0.800503,4.1249 -2.534267,7.72728 -3.332668,11.86699 -0.132321,0.68509 -0.06118,1.42193 -0.03491,2.09034 0.06468,0.44558 0.178514,0.6997 0.273577,1.16638 0.132086,0.64787 0.196756,1.45555 0.316457,2.08009 0.147468,0.76734 0.158958,1.69231 0.183942,2.59042 0.02287,0.812 0.114633,1.38613 0.03182,2.417429 -0.02408,0.30066 -0.0037,4.01558 -0.346413,5.38181 -0.15851,0.63006 -0.518641,0.58286 -0.671732,0.47298 -0.631825,-0.84604 -0.06797,-2.77657 -0.694169,-4.81927 -0.06182,0.042 -0.06182,0.006 -0.123579,0.0469 0.0093,0.44735 -0.07373,1.02501 -0.01971,1.71133 0.08611,1.10283 0.04174,1.56321 0.0078,1.99342 -0.09197,1.1686 -0.148561,2.17967 -0.433748,2.78752 -0.154204,0.32873 -0.574794,0.61789 -0.958245,0.16337 -0.214106,-0.365 -0.244059,-0.90342 -0.266497,-1.66446 -0.09705,-3.32207 -0.107111,-2.24324 -0.147455,-2.98106 -0.04291,-0.79399 -0.06746,-1.41133 -0.06746,-1.41133 -0.09837,-0.0261 -0.165131,-0.0392 -0.259211,-0.002 -0.239538,2.17734 -0.01967,1.73752 -0.327186,4.36011 -0.05429,0.46282 -0.01542,1.32953 -0.135412,1.88785 -0.246385,1.14549 -1.29007,1.00036 -1.37551,0.11352 -0.02928,-0.30287 -0.09793,-0.62863 -0.13685,-0.8938 -0.04201,-0.28651 -0.0181,-0.69195 -0.02809,-0.99361 -0.01542,-0.46525 -0.06248,-0.87191 -0.09816,-1.33407 -0.04126,-0.53489 0.230353,-1.97805 0.0021,-3.04539 -0.0032,0 -0.126236,0 -0.123359,0 -0.08114,0.48182 -0.248157,1.21081 -0.438716,2.14938 -0.02928,0.14469 -0.04414,0.40147 -0.07528,0.54992 -0.171219,0.81731 -0.153977,1.27946 -0.239422,1.78495 -0.134198,0.79851 0.0059,0.91944 -0.276893,1.45068 -0.30851,0.5802 -0.788677,0.3158 -0.917011,0.009 -0.199085,-0.47652 -0.311056,-1.2537 -0.308954,-2.20797 0.0043,-1.76803 0.30022,-2.13955 0.312264,-4.48988 0.0021,-0.48681 0.02949,-0.9149 -0.03119,-1.36501 v 0.23533 c -0.269158,0.45419 -0.372845,0.89855 -0.86396,1.1299 -0.244614,0.0873 -0.442253,0.13773 -0.625965,0.0403 -0.179502,-0.0943 -0.300438,-0.0578 -0.234225,-0.41297 0.05096,-0.27302 0.175751,-0.64785 0.222621,-0.98455 0.07053,-0.506479 0.06131,-0.961449 0.181384,-1.492909 0.06988,-0.30829 0.261755,-0.68577 0.354054,-0.98212 0.15099,-0.48459 0.216432,-1.15499 0.348852,-1.37872 0.09981,-0.16945 0.332045,-0.43938 0.476415,-0.62984 0.03827,-0.0506 0.988643,-1.45709 1.35805,-1.94257 0.370959,-0.48736 0.629947,-0.89976 0.629947,-0.89976 0.0059,-1.29837 0.338127,-2.07566 0.22991,-3.3245 -0.187018,-2.16177 -0.05473,0.19454 -0.258538,-13.40057 0.528363,-7.54534 1.220879,-5.48493 1.894151,-12.32681 0.448566,-4.53775 0.530358,-6.22033 0.813996,-7.162438 0.271034,-0.900542 0.7008,-3.21573 0.625304,-4.827686 -0.05069,-1.083367 -0.04974,-1.571937 -0.170555,-2.263461 -0.226599,-1.299239 -0.158182,-4.724215 1.296039,-7.66007 1.268626,-2.561683 3.019637,-3.763551 5.485812,-4.785012 1.716744,-0.711195 1.595385,-0.308396 4.75065,-2.01321 1.887305,-1.019917 6.390559,-3.676219 7.25351,-5.622215 0.01369,-1.803845 -0.04046,-1.596482 4.13e-4,-3.291557 0,0 -0.355155,-1.469914 -0.500724,-2.497131 -0.757615,-0.0082 -1.190365,-0.712852 -1.451013,-1.582665 -0.231471,-0.771543 -0.207478,-2.129151 -0.212007,-2.309989 -0.01803,-0.703789 -0.04872,-1.376179 0.552122,-1.632627 0.159728,-0.03769 0.188028,-0.04156 0.259878,-0.02298 0.09241,0.02355 0.141262,0.125018 0.233788,0.148563 -0.1164,-3.673916 0.468782,-6.548976 2.839577,-8.162589 4.216632,-2.8697508 9.306514,-0.4846958 10.677279,3.453608 0.458721,1.318256 0.465573,3.132935 0.308504,4.708967 h 0.0616 c 0.133974,-0.112745 0.159728,-0.179953 0.428547,-0.136737 0.475645,0.208805 0.618013,0.764804 0.631391,1.764606 0.01951,1.486158 -0.06629,2.479549 -1.035394,3.52645 -0.241971,0.261523 -0.473317,0.231013 -0.826488,0.37118 -0.02299,0.513517 -0.298835,2.057827 -0.298835,2.057827 0,0 -0.188245,3.113593 -0.07192,3.53032 0.482376,1.720278 6.16197,5.290162 9.483156,6.751565 1.961803,0.863737 5.35483,1.300796 7.630439,4.927055 1.532373,2.440541 2.116895,5.913374 1.735872,8.232325 -0.151327,0.917893 -0.320115,3.200033 -0.05027,4.746881 1.206837,5.97263 0.576999,1.799864 1.372978,9.83256 0.409309,4.12247 0.511342,3.59078 1.333953,7.41291 0.09694,0.45088 0.08775,0.75563 0.148783,1.33363 0.183819,1.75377 0.621209,3.36296 0.275451,11.59848 -0.309392,7.33709 -0.437727,5.91272 -0.104231,7.55562 0.133528,0.66233 -0.338584,0.93193 1.553807,3.40409 0.16581,0.21643 0.341338,0.53864 0.506367,0.71793 0.187249,0.20394 0.361351,0.26606 0.492665,0.54494 0.145249,0.30973 0.07994,0.57247 0.152543,0.91448 0.0892,0.4134 0.182056,0.74357 0.453748,1.365 0.111976,0.25723 -0.0083,0.97063 0.07221,1.487949 0.04524,0.29148 0.216762,0.57036 0.263963,0.85544 0,0.002 0.103796,0.14369 0.08423,0.27446 -0.02834,0.18647 -0.221512,0.37361 -0.594794,0.29325 -0.712519,-0.11495 -0.784918,-0.68887 -1.172901,-1.10923 0.0089,0.59016 -0.06577,0.80481 0.121468,3.28602 0.04718,0.62576 0.43032,3.35324 -0.13253,4.47243 -0.1941,0.38632 -0.632383,0.33117 -0.862509,0.0564 -0.615139,-0.73417 -0.0413,-1.18107 -0.986545,-5.67715 -0.123352,-0.58263 -0.259648,-0.0675 -0.259648,-0.0675 -0.01771,2.81471 0.184157,1.4445 -0.02769,3.51904 -0.104135,1.00876 -0.04146,3.01565 -0.601872,3.16566 -0.514892,0.1385 -0.814214,-0.25623 -0.9043,-0.59867 -0.234562,-0.89623 -0.216223,-1.99651 -0.222631,-2.10716 -0.01707,-0.30165 -0.113409,-1.00798 -0.125453,-1.31682 -0.04041,-1.01849 0.05499,-1.41697 -0.143917,-2.97532 -0.01576,-0.12976 -0.161608,-0.14921 -0.161608,-0.14921 -0.216762,0.20107 -0.09406,0.93447 -0.13109,1.2768 -0.348191,3.19693 0.04883,3.54413 -0.480944,4.75649 -0.179952,0.41131 -0.716282,0.42901 -0.932157,0.0543 -0.159397,-0.27767 -0.168678,-0.63293 -0.188459,-0.70213 -0.194106,-0.67306 -0.147467,-1.41541 -0.205941,-2.05255 -0.03918,-0.42115 -0.102357,-0.53986 -0.09462,-0.87965 0.02575,-1.15368 0.255228,-1.87515 0.04553,-3.05645 -0.04126,-0.0208 -0.08256,-0.0418 -0.123577,-0.0623 -0.08234,0.12789 -0.05069,0.24207 -0.09196,0.41076 -0.133974,0.54472 -0.155196,1.34347 -0.243626,1.97407 -0.139171,0.99672 0.100695,2.25041 -0.528802,2.51272 -0.308512,-0.0211 -0.28773,-0.042 -0.472436,-0.23036 -0.594251,-1.49854 -0.199521,-3.43636 -0.344545,-5.25292 -0.175309,-2.185299 -0.0073,-2.064929 0.0387,-2.783869 0.211902,-3.43458 0.106779,-1.81213 0.354269,-3.55717 0.250036,-1.7624 0.33758,-1.53237 0.456851,-2.34647 0.22759,-1.55336 -0.07362,-2.30479 -0.552579,-4.16767 -0.05429,-0.21234 -0.128549,-0.38655 -0.179289,-0.60606 -0.23091,-0.99118 -0.647193,-2.10053 -0.910162,-3.05136 -2.135337,-7.71844 -1.601462,-5.9776 -1.896028,-8.03026 -0.142164,-0.98853 -0.125244,-0.60729 -0.01249,-3.94251 -0.08943,-0.61879 -0.26131,-1.15389 -0.351176,-1.77245 -0.198636,-1.36966 -0.314362,-2.82299 -0.512782,-4.19233 -0.625305,-2.89804 -1.763725,-5.3933 -1.789915,-8.85331 -0.04078,0.0209 -0.08213,0.0418 -0.123362,0.0629 -0.310384,1.22829 -0.899981,2.63243 -1.412989,3.88812 -0.26584,0.6515 -0.04616,0.69926 -0.278768,1.69984 -0.319006,1.3733 -0.458179,7.05477 -0.09783,9.73241 0.102463,0.76845 0.132312,0.19996 0.308727,2.26025 0.0314,0.37074 -0.0181,0.64111 -0.04952,1.06535 -0.02575,0.34675 -0.02473,0.8518 -0.07053,1.13543 -0.162263,1.00445 -0.358033,1.71685 -0.127117,2.75965 0.223281,1.00689 0.295909,0.47034 0.967312,3.86238 0.109868,0.55401 0.08301,0.84217 0.162042,1.47732 0.06248,0.5025 0.229689,1.35495 0.313477,1.79787 0.08236,0.43286 0.117502,0.98974 0.197645,1.41642 0.17332,0.92275 0.893465,3.30405 0.935143,6.86034 0.07782,6.580249 0.494757,6.135219 0.44479,11.301689 -0.0679,6.29174 -0.948838,16.30847 -1.572489,19.24686 -0.837531,3.94659 -1.410661,9.05968 -1.101712,10.0461 0.30806,0.98666 1.366556,8.74554 0.748883,12.33368 -0.617013,3.58746 -3.790966,15.47246 -3.746859,17.89441 0.04388,2.42199 -0.65426,4.58152 0.04388,6.14405 0.441033,0.98665 0.132534,3.00529 0.308722,3.58791 0.17642,0.58309 0.396715,2.24257 1.013959,2.7359 0.617233,0.49354 1.675068,3.00482 1.454773,3.8123 -0.220528,0.80713 -0.573143,1.43508 -1.146269,1.21102 -0.484708,0.53821 -1.102161,0.40359 -1.23425,0.35871 -0.132311,-0.0449 -0.484925,0.98665 -1.542984,0.1795 -0.2644,0.40334 -0.617008,0.71715 -1.366776,0.40334 -0.749327,-0.31379 -0.528816,-0.40334 -0.528816,-0.40334 l -0.573125,0.0896 c 0,0 0.08798,1.16615 -0.97007,1.16615 -1.057833,0 -2.600812,-0.71771 -2.512607,-1.88354 0.08798,-1.16638 -0.08821,-2.7361 0.440818,-4.3505 -0.529023,-1.12129 -0.573133,-2.91509 -0.308507,-3.76763 0.264405,-0.85159 0,-1.97308 -0.04435,-2.55593 -0.04414,-0.58331 0.837748,-4.12634 0.837748,-5.11277 0,-0.9871 0.08822,-10.00165 -0.529019,-11.34701 -0.617241,-1.34512 -1.410664,-6.63761 -0.484922,-10.31482 0,0 1.117523,-5.33693 1.146265,-6.68249 0.04387,-2.06327 -2.248433,-8.38685 -2.248433,-10.89813 0,-2.51173 -1.498875,-12.06474 -1.675067,-12.78245 -0.176192,-0.71761 -1.006871,-5.50693 -1.006871,-5.50693"
/>
<path style="fill:#ffffff;" d="M 17.877991,935.89444 V 744.78343 H 273.32338 528.7688 V 935.89444 1127.0054 H 273.32338 17.877991 Z M 303.5984,1036.9962 c 36.57806,-12.0474 61.72244,-38.8681 72.31314,-77.13405 3.3008,-11.92631 2.86621,-39.96522 -0.81952,-52.87437 -6.9833,-24.4588 -22.44187,-46.23955 -42.71982,-60.19114 -7.91153,-5.44327 -24.75158,-13.0374 -34.45037,-15.5356 -27.46248,-7.07376 -59.32616,-1.75851 -83.60278,13.94595 -31.21379,20.1921 -48.85038,52.65656 -48.85038,89.92107 0,49.68196 31.87528,90.31774 81.35578,103.71544 7.31066,1.9795 12.1094,2.3139 27.76039,1.9348 16.27266,-0.3942 20.33481,-0.9237 29.01356,-3.7821 z M 60.906191,929.27178 c 0.0762,-0.52035 0.34027,-12.86688 0.58673,-27.43673 0.24646,-14.56985 1.187,-31.31572 2.09009,-37.21304 l 1.64197,-10.7224 2.24876,15.76824 c 1.23682,8.67253 2.09165,18.60652 1.89962,22.07553 -0.19202,3.46901 -0.22008,13.57993 -0.0624,22.4687 l 0.28679,16.16142 4.65691,-0.74011 c 6.0129,-0.95561 6.20173,-1.21903 4.41525,-6.15944 -2.01652,-5.57658 -1.87242,-13.84471 0.38812,-22.26963 1.02387,-3.81591 1.84395,-11.7631 1.82239,-17.66042 -0.0216,-5.89732 0.41774,-15.57916 0.97621,-21.5152 0.55847,-5.93603 0.61551,-15.30236 0.12674,-20.81406 -2.02721,-22.86061 -2.49288,-36.52488 -1.18019,-34.63059 0.71704,1.03473 1.66191,5.00832 2.09971,8.83021 0.4378,3.82189 1.39834,9.21951 2.13454,11.99472 0.7362,2.77521 1.22858,8.93149 1.09418,13.68062 -0.21442,7.57693 0.10671,8.93925 2.62122,11.12007 1.67305,1.45104 3.05307,1.92282 3.31612,1.13367 0.2478,-0.7434 0.96972,-1.03077 1.60426,-0.6386 0.63454,0.39217 1.15372,-1.02343 1.15372,-3.14578 0,-2.12236 0.48894,-3.85883 1.08653,-3.85883 1.35255,0 0.28043,-6.09319 -1.23715,-7.03111 -0.61096,-0.37759 -1.11084,-5.1168 -1.11084,-10.53158 0,-5.41477 -0.58252,-12.90272 -1.29448,-16.63988 -0.71197,-3.73716 -1.58162,-10.69777 -1.93255,-15.46801 -0.35093,-4.77025 -1.18625,-9.69749 -1.85627,-10.94942 -0.67001,-1.25193 -4.48353,-3.89253 -8.47449,-5.868 l -7.25629,-3.59176 -0.10969,-9.09995 c -0.12034,-9.9828 -2.32382,-14.16823 -7.45906,-14.16823 -5.13328,0 -7.33871,4.18597 -7.45905,14.1575 l -0.1097,9.08922 -6.71694,3.35613 c -3.69431,1.84587 -7.33628,3.97548 -8.09327,4.73247 -1.60994,1.60993 -4.57831,23.39561 -5.5275,40.56783 -0.36751,6.64873 -1.52311,13.87937 -2.59574,16.2416 -1.19247,2.62617 -1.4629,4.55973 -0.70572,5.04583 0.67518,0.43345 1.16129,2.20723 1.08025,3.94174 -0.11919,2.55108 0.45523,3.16243 3.00631,3.1996 5.22031,0.0761 6.37397,-2.2173 6.17742,-12.28009 -0.099,-5.06586 0.38237,-10.6298 1.0696,-12.36431 0.68723,-1.7345 1.64034,-6.86157 2.11803,-11.39348 0.47769,-4.53192 1.44699,-9.07317 2.154,-10.09167 0.88316,-1.27226 0.9906,2.49098 0.34329,12.02421 -0.87873,12.94156 -1.08262,34.95505 -0.57249,61.81148 0.1186,6.24422 1.08703,15.15639 2.15206,19.80483 1.8541,8.09247 1.7791,17.68834 -0.19694,25.19612 -0.79172,3.00805 -0.49865,3.43098 2.70996,3.91073 6.27359,0.93803 6.74839,0.93595 6.88993,-0.0301 z" />
<path style="fill:#000000;" d="m 225.57185,361.72211 c -17.26484,-3.14665 -34.24939,-8.92935 -49.29075,-16.78193 -5.60887,-2.92822 -7.70631,-4.47368 -7.43386,-5.47754 0.20874,-0.76914 0.64966,-3.4054 0.97981,-5.85836 0.33015,-2.45296 1.81924,-8.84141 3.30908,-14.19655 l 2.7088,-9.73662 -1.33673,-11.36034 c -1.12881,-9.59336 -1.15568,-12.40147 -0.17275,-18.05388 1.82432,-10.49095 2.49328,-36.75525 1.34368,-52.75527 -0.95503,-13.29213 -1.31667,-15.1258 -5.49742,-27.87456 -2.46133,-7.50556 -4.85353,-13.64647 -5.31602,-13.64647 -0.46248,0 -0.84762,2.50871 -0.85586,5.57491 -0.0166,6.17841 -1.51761,13.78166 -6.91159,35.01045 -4.2655,16.78752 -6.463,33.15138 -7.42663,55.30314 -0.54634,12.55928 -1.21491,18.19248 -3.07003,25.8676 -1.30438,5.39651 -2.58058,10.71498 -2.836,11.81881 -0.25543,1.10383 -0.85376,2.00697 -1.32962,2.00697 -1.43843,0 -12.13953,-10.64078 -19.28642,-19.1777 -7.38296,-8.81892 -15.86285,-21.27128 -19.8581,-29.16081 -2.85478,-5.6374 -2.86102,-5.48861 0.89075,-21.2364 2.6673,-11.19578 4.2327,-22.19172 6.3492,-44.59931 1.04263,-11.03832 2.91357,-24.68571 4.15766,-30.32752 1.94709,-8.8299 2.22301,-11.99621 1.98208,-22.74565 -0.59832,-26.69511 -0.30425,-33.49078 1.79373,-41.45157 5.90969,-22.424349 17.58761,-34.460446 41.6325,-42.909433 21.6648,-7.612663 53.64317,-28.249173 60.19008,-38.842296 1.38593,-2.242481 1.79426,-3.97177 1.44541,-6.121434 -0.58385,-3.597881 -0.5528,-3.613704 9.79648,-4.990936 8.13082,-1.08201 47.97086,-0.667269 51.79862,0.539232 1.57596,0.496739 2.00697,1.299641 2.00697,3.7387 0,1.70836 0.65494,4.486303 1.45543,6.173207 4.48486,9.451121 38.16543,31.152844 61.42958,39.581504 20.328,7.364881 30.59283,16.034678 37.51407,31.684826 5.43377,12.28672 6.68185,23.42041 5.34626,47.69228 -0.68203,12.39452 -0.59611,13.51027 2.06077,26.75958 1.52486,7.60418 3.38306,20.44878 4.12933,28.54356 2.38827,25.90528 3.24475,32.3069 5.96697,44.5993 4.29703,19.40355 4.52277,21.93091 2.34211,26.2224 -5.96366,11.73637 -19.2885,28.89635 -31.90062,41.08224 -5.75589,5.56136 -7.50411,6.80907 -8.08533,5.77049 -0.9622,-1.71936 -5.24395,-18.57943 -6.32556,-24.90788 -0.46116,-2.69826 -0.82724,-10.203 -0.81353,-16.67718 0.0137,-6.47419 -0.38265,-13.69928 -0.88081,-16.05575 -0.49817,-2.35648 -1.67462,-10.3054 -2.61434,-17.66429 -0.98464,-7.71063 -3.19257,-18.85997 -5.21095,-26.31359 -3.54951,-13.10788 -4.98897,-20.20319 -6.06223,-29.88153 -0.6726,-6.06524 -0.28699,-6.60446 -5.74072,8.02788 -2.01137,5.39651 -4.23132,13.22369 -4.93322,17.39372 -1.8734,11.12995 -2.56766,36.88575 -1.32241,49.05924 1.82112,17.80325 2.07633,26.94508 0.99597,35.67752 -0.8963,7.24479 -0.84418,9.18831 0.35885,13.38171 1.69757,5.91719 5.78705,24.84939 5.80017,26.85182 0.0124,1.89147 -16.01096,9.4018 -29.97095,14.04773 -19.48858,6.48587 -26.43494,7.54039 -51.6364,7.83886 -18.90287,0.22388 -23.72631,0.004 -31.66551,-1.44288 z" />
<path style="fill:#808080;" d="m 285.46172,23.83061 c -0.0909,-2.204837 -0.40076,-2.711488 -2.039,-3.334349 -3.94073,-1.49826 -46.19521,-1.701681 -55.17361,-0.265616 -4.84664,0.775205 -6.42464,1.270078 -6.76532,2.121666 -0.12901,0.322472 -0.25041,-2.434307 -0.26977,-6.126175 -0.0259,-4.938632 -0.26838,-7.7672496 -0.91754,-10.7038332 -0.48529,-2.1952396 -0.88668,-4.3425641 -0.89199,-4.77183244 -0.009,-0.73660419 1.90869,-0.7804878 34.10881,-0.7804878 31.20641,0 34.11847,0.06190071 34.11847,0.72524456 0,0.39888448 -0.30356,2.55637578 -0.67458,4.79442498 -0.37102,2.2380492 -0.84272,7.6817239 -1.04823,12.0970549 -0.20551,4.415331 -0.40677,7.225087 -0.44724,6.243903 z" />
<path style="fill:#808080;" d="m 377.88321,382.7435 c 0.67812,-3.14048 0.83075,-9.61848 0.30362,-12.88614 -0.61451,-3.80936 -4.38604,-17.98688 -6.92368,-26.02675 -1.3711,-4.34398 -6.02859,-20.70004 -6.02859,-21.17105 0,-0.0842 0.37658,-0.0546 0.83685,0.0657 2.20622,0.57694 18.00669,-15.82973 27.99484,-29.0689 6.12417,-8.1175 11.45783,-16.79456 12.60762,-20.5107 l 0.76299,-2.466 0.80624,7.47442 c 0.44342,4.11092 0.95288,11.99009 1.13212,17.50925 0.30247,9.31348 -0.0399,33.29516 -0.63041,44.15331 -1.62632,29.90615 -1.68316,31.97525 -0.98263,35.77034 0.37565,2.03502 0.78529,4.7537 0.91033,6.04151 l 0.22734,2.34146 h -15.64074 -15.64073 z" />
<path style="fill:#808080;" d="m 161.41837,383.63549 c 0.0138,-1.76123 1.6515,-10.22607 3.1278,-16.16725 1.30936,-5.26932 2.13605,-10.08165 2.91141,-16.94773 0.59556,-5.27387 1.08536,-9.73805 1.08844,-9.9204 0.003,-0.18236 0.88574,0.34026 1.96145,1.16137 2.34837,1.79256 12.87482,7.04236 19.67482,9.81234 13.90322,5.66346 31.71224,10.31945 43.70732,11.42683 6.24127,0.57619 25.02694,0.57366 36.50034,-0.005 13.6758,-0.68963 19.7254,-1.71078 31.95319,-5.39354 11.74572,-3.53758 27.37426,-9.8974 33.52874,-13.64407 l 2.97181,-1.80916 0.48469,2.73629 c 0.26658,1.50496 0.90405,5.4457 1.41658,8.7572 0.51254,3.3115 1.51928,8.79934 2.23722,12.1952 1.2326,5.83026 3.0744,16.35826 3.07459,17.57483 7e-5,0.4442 -18.7613,0.55749 -92.32047,0.55749 -50.77631,0 -92.31937,-0.15052 -92.31793,-0.33449 z" />
<path style="fill:#808080;" d="m 98.530725,382.89592 c 0,-0.59074 0.3269,-3.55102 0.726443,-6.5784 0.632341,-4.79131 0.662248,-6.97754 0.230874,-16.87715 -0.272562,-6.25506 -0.619083,-24.71917 -0.770047,-41.03136 -0.237145,-25.62454 -0.174118,-30.72012 0.46339,-37.46342 0.895015,-9.46711 1.897945,-16.31896 1.974165,-13.48719 0.13451,4.99726 12.38335,24.10068 24.23284,37.79381 5.92459,6.84639 15.69705,16.27875 16.86571,16.27875 0.7644,0 0.87971,0.184 0.62882,1.00348 -0.16897,0.55192 -1.37352,4.31499 -2.67679,8.36237 -5.30089,16.46229 -7.49713,23.76938 -9.24939,30.77352 -1.69347,6.76914 -1.84239,7.8414 -1.85825,13.37979 -0.009,3.3115 0.12826,6.67317 0.3061,7.47039 l 0.32335,1.44947 H 114.12933 98.530725 Z" />

</svg>
