<svg xmlns="http://www.w3.org/2000/svg" viewBox="0 0 512 384">
<rect y="0" x="0" height="384" width="512" style="fill:none;" />
<path style="fill:#000000;" d="m 241.22003,354.86095 c -0.26979,-0.26978 -0.7449,-0.49051 -1.05574,-0.49051 -0.31089,0 -1.50697,-0.69625 -2.65794,-1.54723 -2.77482,-2.05148 -2.73124,-4.29894 0.31863,-16.43629 1.5456,-6.1509 1.41074,-20.28356 -0.26274,-27.53743 -0.78171,-3.38842 -2.38399,-11.32831 -3.56058,-17.64421 -1.97197,-10.58535 -2.15369,-12.78374 -2.32325,-28.10975 -0.197,-17.80239 -1.1947,-29.58471 -4.51096,-53.27195 -1.84992,-13.21341 -2.04181,-16.04301 -1.66936,-24.61385 0.75976,-17.48287 2.80864,-28.46842 7.05355,-37.81953 2.17491,-4.79108 2.45803,-6.0376 2.40942,-10.60833 -0.0557,-5.23893 -2.72417,-22.86446 -3.61331,-23.86652 -0.6334,-0.71379 -6.49899,16.14056 -7.77896,22.35212 -0.54887,2.66359 -1.80087,6.63353 -2.78225,8.82211 -0.98139,2.18857 -3.92597,9.78147 -6.5435,16.87309 -5.01639,13.5909 -5.36222,15.33633 -6.42,32.40264 -0.20236,3.26497 -0.64294,5.76634 -0.97911,5.55859 -0.33612,-0.20775 -0.61115,-1.23767 -0.61115,-2.28871 0,-2.6606 -0.75285,-6.15238 -1.3265,-6.15238 -0.26302,0 -0.99224,2.36669 -1.62049,5.25932 -1.15955,5.33886 -2.08098,7.58312 -2.81287,6.85125 -0.22254,-0.22257 -0.0886,-2.3514 0.29731,-4.73071 1.47473,-9.08867 0.4029,-9.9544 -2.39023,-1.93066 -1.04333,2.99708 -2.29898,5.7829 -2.79037,6.19072 -1.27851,1.06107 -1.16515,-0.49726 0.46381,-6.37555 2.12584,-7.67136 1.44568,-8.75077 -1.65655,-2.62889 -1.85883,3.66825 -3.77243,5.67587 -3.77243,3.95779 0,-0.57077 0.8684,-2.97486 1.92981,-5.34243 1.99403,-4.44784 3.25274,-9.39434 2.39052,-9.39434 -0.27035,0 -1.47057,1.06884 -2.66714,2.37519 -2.02512,2.21092 -3.69057,3.05368 -3.68796,1.86621 0,-0.27992 1.15853,-2.18856 2.57313,-4.2414 1.70811,-2.47871 3.64604,-4.30229 5.7694,-5.42898 2.85347,-1.51406 3.37738,-2.17105 4.87066,-6.10763 2.39983,-6.32634 3.53888,-11.16807 4.41619,-18.77206 1.07559,-9.32213 2.40682,-14.4187 5.85684,-22.42271 4.34157,-10.07239 6.35366,-18.93961 6.97516,-30.73934 0.41779,-7.93244 0.81068,-10.49619 2.02664,-13.2247 2.7404,-6.149349 6.11975,-8.491273 12.25277,-8.491273 1.86421,0 5.06784,-0.627962 7.1192,-1.395464 6.44274,-2.410534 8.78175,-6.858576 7.22594,-13.741267 -0.4383,-1.938978 -1.02878,-4.594253 -1.31215,-5.900589 -0.28338,-1.306363 -0.84801,-2.30886 -1.25473,-2.227787 -1.03449,0.2062 -2.9089,-3.999751 -2.9089,-6.527234 0,-1.97793 1.26711,-3.085778 1.43504,-1.254689 0.0429,0.466559 0.47874,-1.721346 0.96881,-4.861981 1.34257,-8.604608 4.07204,-11.508121 11.36903,-12.093852 8.71706,-0.69973 13.06049,3.305593 13.85446,12.776026 0.32227,3.843962 0.5594,4.553586 1.3127,3.928382 0.74507,-0.618355 0.91942,-0.290498 0.91942,1.728949 0,2.739297 -1.74772,6.754502 -2.68729,6.17382 -0.55535,-0.343214 -1.2319,1.868009 -2.77734,9.077225 -1.73605,8.098374 4.53225,14.318461 14.42941,14.318461 9.21358,0 14.10832,6.8807 14.10855,19.832803 1.3e-4,10.16516 2.88939,23.0064 7.46407,33.17452 3.12604,6.94826 4.37373,11.60975 5.42908,20.28407 0.95824,7.87603 2.26218,13.88205 4.25715,19.60835 1.32987,3.81736 1.90426,4.5824 4.77479,6.35984 2.71336,1.68013 6.54316,5.92571 8.86666,9.82921 1.11066,1.86593 -1.58411,0.71982 -3.989,-1.69658 L 319.4026,182 l 0.3373,2.75278 c 0.18553,1.51405 1.31364,4.97727 2.50694,7.69607 1.19328,2.71881 2.01402,5.09886 1.82389,5.289 -0.67351,0.67352 -1.83939,-0.60496 -3.44978,-3.78293 -1.79693,-3.54605 -3.77899,-5.68633 -3.76373,-4.06419 0.006,0.51227 0.61558,2.86722 1.35725,5.23325 1.52461,4.86372 1.81198,8.30896 0.59119,7.08818 -0.41652,-0.41653 -1.59691,-3.13596 -2.62306,-6.0432 -1.97062,-5.58299 -3.91654,-7.75642 -3.19433,-3.56782 1.04417,6.05587 1.27285,10.09688 0.57145,10.09688 -0.70731,0 -1.55144,-2.54654 -2.47443,-7.46486 -1.13396,-6.04232 -2.01826,-6.04272 -2.71945,-9.7e-4 -0.26,2.24013 -0.70809,4.07295 -0.99578,4.07295 -0.28767,0 -0.71297,-3.13014 -0.94506,-6.95589 -1.01295,-16.69533 -1.35637,-18.41339 -6.40945,-32.06497 -2.62492,-7.0916 -5.5593,-14.65484 -6.5208,-16.80717 -0.96152,-2.15233 -2.22468,-6.22015 -2.80703,-9.03958 -0.96752,-4.68402 -5.58246,-18.59643 -7.02195,-21.16864 -0.66696,-1.19179 -1.32877,1.51855 -3.11208,12.7449 -1.6137,10.15886 -1.38851,15.18626 0.89685,20.01939 3.7719,7.97697 5.00978,13.01267 6.58935,26.80564 1.34238,11.72185 1.22776,23.76255 -0.32307,33.93119 -3.28163,21.51747 -4.7943,39.037 -4.79723,55.56005 -0.003,14.641 -0.73714,20.89449 -4.63364,39.44729 -3.15821,15.03747 -3.45014,26.47675 -0.96735,37.90659 2.10156,9.67463 2.03195,11.22332 -0.59067,13.13952 -1.16468,0.85098 -2.38621,1.47088 -2.71448,1.37755 -0.32831,-0.0932 -0.5969,0.13588 -0.5969,0.50913 0,1.39505 -1.34751,0.61444 -1.75722,-1.01793 -0.23419,-0.93312 -0.65571,-1.69657 -0.93675,-1.69657 -0.28102,0 -0.36501,0.76345 -0.18662,1.69657 0.25824,1.3509 0.0486,1.69655 -1.02897,1.69655 -2.70382,0 -3.16227,-1.6702 -3.3579,-12.2338 -0.10239,-5.52335 -0.46195,-10.76825 -0.79921,-11.65531 -0.39836,-1.04769 -0.26101,-3.74373 0.39189,-7.6937 1.12902,-6.83074 0.84414,-15.47728 -0.91593,-27.79676 -1.36148,-9.52977 -1.4297,-16.74814 -0.26458,-27.9878 0.73288,-7.06994 0.76352,-9.96438 0.1436,-13.57248 -0.43335,-2.52238 -0.90858,-12.67874 -1.05603,-22.56969 -0.22286,-14.94726 -0.5507,-19.73773 -1.94177,-28.37356 -0.92049,-5.71454 -2.0216,-10.73803 -2.44693,-11.16337 -0.42533,-0.42531 -0.77332,-2.39182 -0.77332,-4.37001 0,-3.1443 -0.17072,-3.59672 -1.35724,-3.59672 -1.17968,0 -1.35725,0.45242 -1.35725,3.45808 0,1.90193 -0.42169,4.26865 -0.93708,5.25933 -0.51537,0.99069 -1.63861,6.84005 -2.49605,12.99856 -1.29763,9.32024 -1.53813,13.75691 -1.43457,26.46633 0.0908,11.14531 -0.15031,16.74339 -0.8928,20.72816 -0.81196,4.35755 -0.87911,6.82246 -0.33279,12.21523 1.50559,14.86247 1.51597,18.07053 0.0952,29.48998 -2.25825,18.15098 -2.34028,20.10016 -1.17569,27.9431 0.7657,5.15683 0.87822,7.75129 0.3916,9.03112 -0.37547,0.98764 -0.68271,5.7002 -0.68271,10.47238 0,10.14524 -0.6919,12.95093 -3.19376,12.95093 -1.47845,0 -1.64743,-0.22433 -1.27791,-1.69655 0.24552,-0.97834 0.13299,-1.69657 -0.26577,-1.69657 -0.38033,0 -0.69154,0.59273 -0.69154,1.31719 0,1.46364 -0.90156,2.30542 -1.65846,1.54851 z" />
</svg>
