<svg xmlns="http://www.w3.org/2000/svg" viewBox="0 0 512 384">
<rect y="0" x="0" height="384" width="512" style="fill:none;" />
<path style="fill:#000000;" d="m -232.37655,219.79319 c -0.26979,-0.26978 -0.7449,-0.49051 -1.05574,-0.49051 -0.31089,0 -1.50697,-0.69625 -2.65794,-1.54723 -2.77482,-2.05148 -2.73124,-4.29894 0.31863,-16.43629 1.5456,-6.1509 1.41074,-20.28356 -0.26274,-27.53743 -0.78171,-3.38842 -2.38399,-11.32831 -3.56058,-17.64421 -1.97197,-10.58535 -2.15369,-12.78374 -2.32325,-28.10975 -0.197,-17.80239 -1.1947,-29.58471 -4.51096,-53.27195 -1.84992,-13.213411 -2.04181,-16.043011 -1.66936,-24.613851 0.75976,-17.48287 2.80864,-28.46842 7.05355,-37.81953 2.17491,-4.7910797 2.45803,-6.0375997 2.40942,-10.6083297 -0.0557,-5.23893 -2.72417,-22.8644603 -3.61331,-23.8665203 -0.6334,-0.71379 -6.49899,16.1405603 -7.77896,22.35212031 -0.54887,2.66358999 -1.80087,6.63352999 -2.78225,8.82210999 -0.98139,2.1885697 -3.92597,9.7814697 -6.5435,16.8730897 -5.01639,13.5909 -5.36222,15.33633 -6.42,32.40264 -0.20236,3.26497 -0.64294,5.76634 -0.97911,5.55859 -0.33612,-0.20775 -0.61115,-1.23767 -0.61115,-2.28871 0,-2.6606 -0.75285,-6.15238 -1.3265,-6.15238 -0.26302,0 -0.99224,2.36669 -1.62049,5.25932 -1.15955,5.33886 -2.08098,7.58312 -2.81287,6.85125 -0.22254,-0.22257 -0.0886,-2.3514 0.29731,-4.73071 1.47473,-9.08867 0.4029,-9.9544 -2.39023,-1.93066 -1.04333,2.99708 -2.29898,5.7829 -2.79037,6.19072 -1.27851,1.06107 -1.16515,-0.49726 0.46381,-6.37555 2.12584,-7.67136 1.44568,-8.75077 -1.65655,-2.62889 -1.85883,3.66825 -3.77243,5.67587 -3.77243,3.95779 0,-0.57077 0.8684,-2.97486 1.92981,-5.34243 1.99403,-4.44784 3.25274,-9.39434 2.39052,-9.39434 -0.27035,0 -1.47057,1.06884 -2.66714,2.37519 -2.02512,2.21092 -3.69057,3.05368 -3.68796,1.86621 0,-0.27992 1.15853,-2.18856 2.57313,-4.2414 1.70811,-2.47871 3.64604,-4.30229 5.7694,-5.42898 2.85347,-1.51406 3.37738,-2.17105 4.87066,-6.10763 2.39983,-6.32634 3.53888,-11.16807 4.41619,-18.77206 1.07559,-9.3221297 2.40682,-14.4186997 5.85684,-22.4227097 4.34157,-10.0723903 6.35366,-18.9396103 6.97516,-30.7393403 0.41779,-7.93244 0.81068,-10.49619 2.02664,-13.2247 2.7404,-6.149349 6.11975,-8.491273 12.25277,-8.491273 1.86421,0 5.06784,-0.627962 7.1192,-1.395464 6.44274,-2.410534 8.78175,-6.858576 7.22594,-13.741267 -0.4383,-1.938978 -1.02878,-4.594253 -1.31215,-5.900589 -0.28338,-1.306363 -0.84801,-2.30886 -1.25473,-2.227787 -1.03449,0.2062 -2.9089,-3.999751 -2.9089,-6.527234 0,-1.97793 1.26711,-3.085778 1.43504,-1.254689 0.0429,0.466559 0.47874,-1.721346 0.96881,-4.861981 1.34257,-8.604605 4.07204,-11.508125 11.36903,-12.093855 8.71705,-0.69973 13.06048,3.3056 13.85445,12.776029 0.32227,3.843962 0.5594,4.553586 1.3127,3.928382 0.74507,-0.618355 0.91942,-0.290498 0.91942,1.728949 0,2.739297 -1.74772,6.754502 -2.68729,6.17382 -0.55535,-0.343214 -1.2319,1.868009 -2.77734,9.077225 -1.73605,8.098374 4.53225,14.318461 14.42941,14.318461 9.21358,0 14.10832,6.8807 14.10855,19.832803 1.3e-4,10.16516 2.88939,23.0064 7.46407,33.1745203 3.12604,6.94826 4.37373,11.60975 5.42908,20.2840697 0.95824,7.87603 2.26218,13.88205 4.25715,19.60835 1.32987,3.81736 1.90426,4.5824 4.77479,6.35984 2.71336,1.68013 6.54316,5.92571 8.86666,9.82921 1.11066,1.86593 -1.58411,0.71982 -3.989,-1.69658 l -2.53278,-2.54483 0.3373,2.75278 c 0.18553,1.51405 1.31364,4.97727 2.50694,7.69607 1.19328,2.71881 2.01402,5.09886 1.82389,5.289 -0.67351,0.67352 -1.83939,-0.60496 -3.44978,-3.78293 -1.79693,-3.54605 -3.77899,-5.68633 -3.76373,-4.06419 0.006,0.51227 0.61558,2.86722 1.35725,5.23325 1.52461,4.86372 1.81198,8.30896 0.59119,7.08818 -0.41652,-0.41653 -1.59691,-3.13596 -2.62306,-6.0432 -1.97062,-5.58299 -3.91654,-7.75642 -3.19433,-3.56782 1.04417,6.05587 1.27285,10.09688 0.57145,10.09688 -0.70731,0 -1.55144,-2.54654 -2.47443,-7.46486 -1.13396,-6.04232 -2.01826,-6.04272 -2.71945,-9.7e-4 -0.26,2.24013 -0.70809,4.07295 -0.99578,4.07295 -0.28767,0 -0.71297,-3.13014 -0.94506,-6.95589 -1.01295,-16.69533 -1.35637,-18.41339 -6.40945,-32.06497 -2.62492,-7.0916 -5.5593,-14.65484 -6.5208,-16.8071697 -0.96152,-2.15233 -2.22468,-6.22015 -2.80703,-9.03957999 -0.96752,-4.68402001 -5.58246,-18.59643031 -7.02195,-21.16864031 -0.66696,-1.19179 -1.32877,1.51855 -3.11208,12.7449003 -1.6137,10.15886 -1.38851,15.18626 0.89685,20.0193897 3.7719,7.97697 5.00978,13.01267 6.58935,26.80564 1.34238,11.72185 1.22776,23.76255 -0.32307,33.931191 -3.28163,21.51747 -4.7943,39.037 -4.79723,55.56005 -0.003,14.641 -0.73714,20.89449 -4.63364,39.44729 -3.15821,15.03747 -3.45014,26.47675 -0.96735,37.90659 2.10156,9.67463 2.03195,11.22332 -0.59067,13.13952 -1.16468,0.85098 -2.38621,1.47088 -2.71448,1.37755 -0.32831,-0.0932 -0.5969,0.13588 -0.5969,0.50913 0,1.39505 -1.34751,0.61444 -1.75722,-1.01793 -0.23419,-0.93312 -0.65571,-1.69657 -0.93675,-1.69657 -0.28102,0 -0.36501,0.76345 -0.18662,1.69657 0.25824,1.3509 0.0486,1.69655 -1.02897,1.69655 -2.70382,0 -3.16227,-1.6702 -3.3579,-12.2338 -0.10239,-5.52335 -0.46195,-10.76825 -0.79921,-11.65531 -0.39836,-1.04769 -0.26101,-3.74373 0.39189,-7.6937 1.12902,-6.83074 0.84414,-15.47728 -0.91593,-27.79676 -1.36148,-9.52977 -1.4297,-16.74814 -0.26458,-27.9878 0.73288,-7.06994 0.76352,-9.96438 0.1436,-13.57248 -0.43335,-2.52238 -0.90858,-12.67874 -1.05603,-22.56969 -0.22286,-14.94726 -0.5507,-19.73773 -1.94177,-28.373561 -0.92049,-5.71454 -2.02159,-10.73803 -2.44692,-11.16337 -0.42533,-0.42531 -0.77332,-2.39182 -0.77332,-4.37001 0,-3.1443 -0.17072,-3.59672 -1.35724,-3.59672 -1.17968,0 -1.35725,0.45242 -1.35725,3.45808 0,1.90193 -0.42169,4.26865 -0.93708,5.25933 -0.51537,0.99069 -1.63861,6.84005 -2.49605,12.998561 -1.29763,9.32024 -1.53813,13.75691 -1.43457,26.46633 0.0908,11.14531 -0.15031,16.74339 -0.8928,20.72816 -0.81196,4.35755 -0.87911,6.82246 -0.33279,12.21523 1.50559,14.86247 1.51597,18.07053 0.0952,29.48998 -2.25825,18.15098 -2.34028,20.10016 -1.17569,27.9431 0.7657,5.15683 0.87822,7.75129 0.3916,9.03112 -0.37547,0.98764 -0.68271,5.7002 -0.68271,10.47238 0,10.14524 -0.6919,12.95093 -3.19376,12.95093 -1.47845,0 -1.64743,-0.22433 -1.27791,-1.69655 0.24552,-0.97834 0.13299,-1.69657 -0.26577,-1.69657 -0.38033,0 -0.69154,0.59273 -0.69154,1.31719 0,1.46364 -0.90156,2.30542 -1.65846,1.54851 z" />
<ellipse style="fill:#808080;" cx="255.10583" cy="191.7921" rx="144.85776" ry="145.26314" />
<path d="m 681.01292,1058.9023 c -1.7884,-23.2996 2.2537,-77.13356 -3.4807,-74.20037 0,0 -1.2606,12.16396 -1.4218,13.4382 -1.0853,8.66897 -0.075,46.09237 -1.322,59.79267 0,0 -4.4372,35.8525 -6.9076,45.9071 -2.4706,10.0528 -6.917,71.3798 -11.8592,86.4621 -4.941,15.081 -10.3761,35.186 -5.4352,50.7706 4.9408,15.584 10.3774,41.7226 5.4352,65.3492 -4.941,23.6266 -10.3761,56.5501 -7.4114,73.1403 2.1812,12.2073 2.9648,23.8781 4.9421,26.3914 1.9749,2.5131 0,7.5383 0,14.075 0,6.5335 0.9875,20.6105 -1.2358,25.8896 0,3.7675 3.2107,14.0737 1.4831,18.8487 -1.7303,4.7766 0,7.5414 -2.2246,9.5503 -2.2233,2.0114 -5.9295,7.2912 -14.0824,5.281 -4.9421,-1.5103 -5.1881,-5.281 -4.4466,-6.035 0.7403,-0.7532 -2.7189,-0.2488 -2.7189,-0.2488 -1.7221,3.2094 -7.9045,4.2545 -10.8704,-0.2511 -0.4932,-0.7545 -2.222,2.7635 -6.1756,2.0089 -3.9534,-0.7544 -2.2232,-2.5119 -2.2232,-2.5119 0,0 -5.1892,0.2505 -6.4239,-2.7647 -0.2471,0.7533 -2.7176,1.7587 -4.6949,-0.2516 -1.9762,-2.0103 -1.7291,-8.5445 -0.9876,-11.8133 0.7403,-3.2691 4.2099,-8.9211 5.4354,-11.0602 1.7289,-3.0149 8.1527,-14.578 7.9056,-17.8445 -0.1541,-2.0213 0.4932,-17.3438 1.9761,-21.112 1.483,-3.772 1.7302,-8.2955 1.7302,-13.3219 0,-5.0276 1.2359,-33.4299 -8.6471,-68.3666 -9.8832,-34.9357 -14.5769,-52.0256 -14.8228,-76.1565 -0.2472,-24.1297 10.6219,-38.7064 4.1981,-75.1493 -6.4227,-36.4472 -9.1402,-60.575 -9.8817,-62.8386 -0.7416,-2.2592 -4.7545,-53.9484 -4.7545,-53.9484 -0.5662,-56.2883 1.3133,-46.8277 2.0753,-67.25853 1.4576,-39.1828 0.651,-32.22612 6.2255,-54.89256 0.977,-7.53151 1.5203,-14.27259 2.4973,-21.80725 0.4068,-3.14133 1.245,-7.07315 1.6532,-10.21449 5.6967,-19.60808 5.6632,-15.67511 3.2157,-33.60692 -1.6168,-11.87525 0.4075,-10.33956 1.6193,-22.58839 0.2131,-2.17122 2.3504,-40.59517 -1.7221,-61.3307 -2.7666,-8.09401 -5.5331,-16.18925 -8.3008,-24.28147 h -0.3448 c 0.1248,19.91663 -6.8445,34.40425 -10.3773,51.37463 -1.1566,8.05373 -1.4818,14.79606 -2.6619,22.84421 -0.3627,2.48656 -1.0613,4.24772 -1.4341,6.81111 -1.6081,11.06441 1.7469,15.46698 -2.1292,35.44366 -4.48606,23.11686 -14.20258,43.30538 -18.67691,66.50521 -0.74164,3.83941 -0.34297,7.96881 -0.19565,11.71474 0.36258,2.49713 1.00053,3.92127 1.53318,6.53666 0.74034,3.63082 1.10274,8.15722 1.7736,11.65728 0.82647,4.30034 0.89086,9.48409 1.0308,14.5173 0.12768,4.55062 0.64244,7.76817 0.17824,13.54781 -0.13487,1.685 -0.0218,22.5042 -1.9414,30.1609 -0.88825,3.531 -2.90651,3.2664 -3.76459,2.6506 -3.54083,-4.7413 -0.38112,-15.5605 -3.89018,-27.0082 -0.3463,0.2354 -0.3463,0.034 -0.69262,0.2628 0.0507,2.5071 -0.41301,5.7444 -0.1102,9.5907 0.4825,6.1805 0.23377,8.7606 0.045,11.1716 -0.51554,6.5491 -0.83254,12.2153 -2.43082,15.6218 -0.86418,1.8423 -3.22135,3.4628 -5.37026,0.9156 -1.19975,-2.0456 -1.36767,-5.063 -1.49343,-9.328 -0.54353,-18.6177 -0.60022,-12.5716 -0.82632,-16.7065 -0.24043,-4.4497 -0.37834,-7.9094 -0.37834,-7.9094 -0.55153,-0.1463 -0.92538,-0.2197 -1.4527,-0.012 -1.34244,12.2022 -0.11018,9.7374 -1.83362,24.435 -0.30426,2.5937 -0.087,7.451 -0.75889,10.5799 -1.38075,6.4196 -7.22987,5.6062 -7.70858,0.6362 -0.16431,-1.6974 -0.54874,-3.523 -0.76701,-5.0091 -0.23538,-1.6056 -0.1015,-3.8778 -0.15751,-5.5684 -0.0869,-2.6073 -0.35023,-4.8863 -0.55036,-7.4764 -0.23144,-2.9977 1.29099,-11.0854 0.0144,-17.0671 h -0.6913 c -0.4545,2.7003 -1.3906,6.7857 -2.45854,12.0457 -0.1643,0.8108 -0.24726,2.2499 -0.422,3.0818 -0.95961,4.5804 -0.86302,7.1704 -1.34189,10.0033 -0.75206,4.475 0.0334,5.1527 -1.5517,8.1299 -1.72895,3.2516 -4.41995,1.7698 -5.13912,0.05 -1.11578,-2.6705 -1.74329,-7.026 -1.73154,-12.3739 0.0218,-9.9085 1.68252,-11.9906 1.74998,-25.1623 0.0143,-2.7282 0.16531,-5.1273 -0.17475,-7.6499 v 1.3189 c -1.50838,2.5454 -2.08947,5.0357 -4.84182,6.3322 -1.37073,0.4893 -2.4784,0.7719 -3.50804,0.2258 -1.00601,-0.5284 -1.68369,-0.3239 -1.3126,-2.3143 0.28584,-1.5301 0.985,-3.6307 1.24763,-5.5177 0.39503,-2.83837 0.34355,-5.38814 1.01659,-8.36656 0.3917,-1.72771 1.46688,-3.8432 1.98417,-5.50399 0.8462,-2.71576 1.21281,-6.47285 1.95502,-7.72669 0.55921,-0.94963 1.86076,-2.46236 2.66998,-3.52974 0.21463,-0.28357 5.54053,-8.16587 7.61068,-10.88662 2.07902,-2.73125 3.53039,-5.04245 3.53039,-5.04245 0.0334,-7.27633 1.89497,-11.63244 1.28851,-18.6312 -1.04808,-12.11505 -0.30657,1.09022 -1.44891,-75.09976 2.96105,-42.28577 6.84209,-30.73878 10.61523,-69.08215 2.51381,-25.43053 2.97221,-34.86009 4.56177,-40.13988 1.51895,-5.04681 3.92745,-18.02165 3.50442,-27.05539 -0.28424,-6.07142 -0.27858,-8.8095 -0.95581,-12.68495 -1.26996,-7.28121 -0.88653,-26.47552 7.2632,-42.92872 7.10963,-14.35622 16.92273,-21.09175 30.74362,-26.81624 9.6211,-3.98569 8.941,-1.72833 26.6238,-11.28246 10.5769,-5.71584 35.8141,-20.60234 40.6503,-31.50815 0.077,-10.10914 -0.2271,-8.94703 0,-18.4466 0,0 -1.9904,-8.23772 -2.8063,-13.99447 -4.2458,-0.0459 -6.6709,-3.99497 -8.1317,-8.8696 -1.2972,-4.3239 -1.1628,-11.93224 -1.1882,-12.9457 -0.1015,-3.94416 -0.2729,-7.71238 3.0942,-9.14958 0.8952,-0.21123 1.0538,-0.23293 1.4564,-0.12859 0.5179,0.13196 0.7917,0.70061 1.3103,0.83256 -0.6523,-20.58941 2.6272,-36.70187 15.9135,-45.74493 23.631,-16.0827 52.1558,-2.71634 59.8379,19.3548 2.5707,7.38777 2.6092,17.55765 1.7289,26.39007 h 0.3451 c 0.751,-0.63186 0.8953,-1.00847 2.4019,-0.76631 2.6655,1.17019 3.4634,4.28614 3.5383,9.88926 0.1087,8.32874 -0.3715,13.89592 -5.8025,19.76299 -1.3561,1.46563 -2.6526,1.29465 -4.6318,2.08015 -0.1291,2.87787 -1.6747,11.53254 -1.6747,11.53254 0,0 -1.0551,17.44924 -0.4031,19.78467 2.7034,9.64084 34.5331,29.64724 53.1458,37.83726 10.9943,4.84056 30.0097,7.28994 42.7626,27.6123 8.5877,13.67734 11.8636,33.13985 9.7283,46.13575 -0.8482,5.14408 -1.794,17.9337 -0.2819,26.60257 6.7633,33.47195 3.2337,10.08682 7.6945,55.10383 2.2938,23.10321 2.8656,20.12349 7.4757,41.54354 0.5431,2.52686 0.492,4.23474 0.8338,7.47397 1.0301,9.8285 3.4814,18.84676 1.5436,65.00045 -1.7338,41.11867 -2.453,33.13617 -0.5841,42.34335 0.7483,3.71184 -1.8975,5.22273 8.7079,19.07727 0.9293,1.21294 1.913,3.01864 2.8379,4.02344 1.0494,1.14292 2.0251,1.49106 2.7609,3.05396 0.814,1.73579 0.4478,3.20826 0.8549,5.12494 0.4999,2.31679 1.0202,4.16714 2.5429,7.64976 0.6275,1.44159 -0.045,5.43963 0.4047,8.3388 0.2531,1.6335 1.2146,3.1964 1.4793,4.7941 0,0.012 0.5817,0.8053 0.4718,1.5381 -0.1585,1.045 -1.2414,2.0938 -3.3333,1.6435 -3.9932,-0.6442 -4.3989,-3.8606 -6.5732,-6.2164 0.051,3.3074 -0.3688,4.5103 0.6807,18.4156 0.2645,3.5069 2.4117,18.7923 -0.7427,25.0645 -1.0878,2.165 -3.544,1.8559 -4.8337,0.316 -3.4474,-4.1144 -0.2316,-6.619 -5.5289,-31.816 -0.6913,-3.2651 -1.4551,-0.3783 -1.4551,-0.3783 -0.1001,15.7743 1.0321,8.0953 -0.1552,19.7215 -0.5837,5.6533 -0.2326,16.9004 -3.3731,17.7411 -2.8855,0.7762 -4.563,-1.436 -5.0679,-3.3551 -1.3145,-5.0227 -1.2117,-11.1889 -1.2477,-11.809 -0.096,-1.6905 -0.6356,-5.6489 -0.703,-7.3797 -0.2264,-5.7079 0.3082,-7.9411 -0.8066,-16.6744 -0.088,-0.7272 -0.9057,-0.8362 -0.9057,-0.8362 -1.2148,1.1269 -0.5273,5.237 -0.7346,7.1555 -1.9513,17.9163 0.2735,19.8621 -2.6953,26.6564 -1.0084,2.3051 -4.0143,2.4043 -5.224,0.3043 -0.8934,-1.5561 -0.9453,-3.5471 -1.0562,-3.9349 -1.0878,-3.7719 -0.8265,-7.9322 -1.1541,-11.5029 -0.2197,-2.3602 -0.5737,-3.0255 -0.5302,-4.9298 0.145,-6.4654 1.4304,-10.5088 0.255,-17.129 -0.2315,-0.1166 -0.463,-0.2342 -0.6925,-0.3491 -0.4612,0.7167 -0.2841,1.3566 -0.5156,2.302 -0.7509,3.0527 -0.8698,7.529 -1.3653,11.0631 -0.78,5.5858 0.5642,12.6118 -2.9635,14.0818 -1.7291,-0.1182 -1.6125,-0.2354 -2.6477,-1.291 -3.3304,-8.3981 -1.1182,-19.2581 -1.9309,-29.4385 -0.9826,-12.2469 -0.039,-11.57233 0.2169,-15.60142 1.1874,-19.24815 0.5984,-10.15558 1.9854,-19.93519 1.4011,-9.87688 1.8919,-8.58774 2.5603,-13.15011 1.2754,-8.70538 -0.4124,-12.91657 -3.0968,-23.35654 -0.3044,-1.19003 -0.7204,-2.16632 -1.0048,-3.39652 -1.294,-5.55478 -3.627,-11.77182 -5.1007,-17.10049 -11.9669,-43.25583 -8.975,-33.49977 -10.6258,-45.00336 -0.7967,-5.53992 -0.7019,-3.40336 -0.07,-22.09467 -0.501,-3.46784 -1.4644,-6.46664 -1.968,-9.9332 -1.1131,-7.67588 -1.7618,-15.82067 -2.8737,-23.49474 -3.5044,-16.24124 -9.8843,-30.22522 -10.0311,-49.61586 -0.2287,0.11704 -0.4601,0.23425 -0.6913,0.3525 -1.7395,6.88361 -5.0438,14.75271 -7.9187,21.78986 -1.4899,3.65116 -0.259,3.91882 -1.5623,9.52629 -1.7878,7.69626 -2.5677,39.53645 -0.5482,54.54253 0.5743,4.30655 0.7415,1.12064 1.7303,12.66695 0.176,2.07773 -0.1015,3.59292 -0.2774,5.97046 -0.1451,1.94326 -0.1378,4.77367 -0.3951,6.3632 -0.9094,5.62915 -2.0065,9.6216 -0.7125,15.46569 1.2514,5.64281 1.6583,2.63589 5.421,21.64561 0.6158,3.10481 0.4653,4.71971 0.9082,8.27925 0.3503,2.8161 1.2872,7.59344 1.7567,10.07566 0.4619,2.42582 0.6586,5.54671 1.1077,7.9379 0.9714,5.17132 5.0073,18.51663 5.2408,38.44689 0.436,36.87721 2.7728,34.38311 2.4927,63.33721 -0.3805,35.2602 -5.3174,91.3962 -8.8126,107.8636 -4.6937,22.1175 -7.9056,50.7724 -6.1742,56.3005 1.7264,5.5295 7.6585,49.0119 4.1969,69.1207 -3.4579,20.1049 -21.2454,86.7109 -20.9982,100.2841 0.246,13.5734 -3.6667,25.6759 0.246,34.4327 2.4716,5.5294 0.7428,16.8423 1.7301,20.1074 0.9887,3.2678 2.2233,12.5679 5.6825,15.3326 3.4592,2.7659 9.3875,16.8397 8.1529,21.365 -1.2359,4.5233 -3.2121,8.0425 -6.424,6.7868 -2.7164,3.0163 -6.1767,2.2618 -6.917,2.0103 -0.7415,-0.2516 -2.7176,5.5294 -8.6472,1.006 -1.4818,2.2604 -3.4579,4.019 -7.6597,2.2604 -4.1993,-1.7586 -2.9636,-2.2604 -2.9636,-2.2604 l -3.2119,0.5021 c 0,0 0.4932,6.5353 -5.4366,6.5353 -5.9283,0 -14.5754,-4.0221 -14.081,-10.5557 0.493,-6.5367 -0.4944,-15.3337 2.4704,-24.3812 -2.9648,-6.2839 -3.2121,-16.3368 -1.7291,-21.1146 1.4818,-4.7725 0,-11.0576 -0.2487,-14.324 -0.2473,-3.269 4.6949,-23.125 4.6949,-28.6531 0,-5.5319 0.4942,-56.0514 -2.9648,-63.5911 -3.459,-7.5384 -7.9057,-37.1987 -2.7176,-57.8065 0,0 6.2629,-29.9094 6.4239,-37.4502 0.2461,-11.563 -12.6007,-47.0017 -12.6007,-61.0755 0,-14.0763 -8.4001,-67.6135 -9.3875,-71.6357 -0.9873,-4.0216 -5.6426,-30.862 -5.6426,-30.862" />
<path style="fill:#000000;" d="m 245.30565,336.83083 c -10.14054,-0.89881 -20.87234,-2.81857 -29.79166,-5.32931 -18.10035,-5.09514 -36.49663,-14.67219 -51.5071,-26.81442 -5.60208,-4.53163 -15.48173,-13.92987 -15.48173,-14.72736 0,-0.56243 7.04874,-3.49796 13.15679,-5.4793 10.46768,-3.39552 29.70058,-14.01077 43.48432,-24.00037 5.49828,-3.98481 13.77114,-12.00747 15.09302,-14.63656 0.87036,-1.73104 0.91466,-2.40702 0.73736,-11.25077 -0.18825,-9.38918 -0.24983,-9.8876 -2.68543,-21.7329 -0.1288,-0.62639 -0.76602,-1.10212 -1.95228,-1.45754 -0.96859,-0.29019 -2.2872,-1.15289 -2.93024,-1.9171 -3.20789,-3.81236 -4.29757,-8.27481 -4.39783,-18.01013 -0.064,-6.21707 0.0314,-7.31176 0.73042,-8.38268 1.06698,-1.63451 2.78695,-2.42255 3.84512,-1.76171 0.74237,0.46361 0.81124,0.0415 1.09546,-6.71475 0.66428,-15.79021 3.26101,-24.95424 9.13827,-32.24959 7.20751,-8.94655 20.85073,-14.43077 32.57452,-13.0941 9.96518,1.13618 18.18486,5.1814 25.07255,12.33918 5.41629,5.62868 8.70373,11.93235 9.98897,19.15386 0.71546,4.02004 1.01131,18.80623 0.40775,20.37907 -0.34274,0.89319 -0.0495,0.95211 1.11598,0.22425 1.32863,-0.82974 3.03944,0.19535 4.05315,2.42858 0.72732,1.60232 0.86,2.92825 0.85907,8.5849 -10e-4,7.26413 -0.32912,9.39 -1.98988,12.90056 -1.68378,3.55922 -3.97867,5.97717 -6.20506,6.53778 l -1.89714,0.47771 -0.79921,5.42873 c -0.98639,6.70017 -1.50392,13.5896 -1.5447,20.56319 -0.0267,4.55908 0.10509,5.60398 0.91846,7.28417 3.26696,6.74865 20.06262,19.33557 40.75077,30.53924 7.41023,4.01302 12.40346,6.24894 19.53461,8.74743 6.41883,2.24891 14.13786,5.42326 14.13786,5.81399 0,0.46358 -9.25581,9.44674 -13.42566,13.03017 -8.00553,6.8797 -16.85259,12.58285 -28.27469,18.22695 -14.91386,7.36951 -29.33142,11.78606 -45.93728,14.07202 -5.10945,0.70336 -23.20991,1.24025 -27.87456,0.82681 z" />
<path d="m 48.847882,110.73789 c -0.319121,-4.1575 0.344431,-12.320849 -0.678805,-11.797459 0,0 -0.16724,0.72788 -0.195982,0.95525 -0.193664,1.546859 -0.0134,8.224579 -0.235889,10.669219 0,0 -0.79177,6.39741 -1.232589,8.19153 -0.440829,1.79378 -1.234247,12.73679 -2.116111,15.42804 -0.881644,2.691 -1.851487,6.27847 -0.969853,9.05934 0.881647,2.78077 1.851717,7.44486 0.969853,11.66071 -0.881644,4.21587 -1.851487,10.09067 -1.322463,13.05094 0.389197,2.17825 0.529028,4.26075 0.881859,4.70921 0.352398,0.44843 0,1.34511 0,2.5115 0,1.16581 0.176199,3.67766 -0.220526,4.61965 0,0.67226 0.572924,2.51128 0.264632,3.36331 -0.308732,0.85232 0,1.34566 -0.396937,1.70413 -0.396725,0.35891 -1.058052,1.30101 -2.512823,0.94233 -0.881867,-0.2695 -0.925751,-0.94233 -0.79344,-1.07687 0.1321,-0.1344 -0.485142,-0.0444 -0.485142,-0.0444 -0.30729,0.57268 -1.410445,0.75916 -1.939697,-0.0448 -0.08798,-0.13463 -0.396492,0.49311 -1.10194,0.35845 -0.705437,-0.13461 -0.396706,-0.44821 -0.396706,-0.44821 0,0 -0.925961,0.0447 -1.14627,-0.49333 -0.04414,0.13443 -0.484926,0.31382 -0.837757,-0.0449 -0.35261,-0.3587 -0.308503,-1.52464 -0.176199,-2.10792 0.132093,-0.58332 0.751209,-1.59185 0.969852,-1.97354 0.308511,-0.53797 1.45477,-2.60126 1.410667,-3.18412 -0.02747,-0.36068 0.08799,-3.09478 0.352615,-3.76717 0.26462,-0.67306 0.308722,-1.48021 0.308722,-2.37711 0,-0.8971 0.220524,-5.9651 -1.542975,-12.19913 -1.763497,-6.23382 -2.601036,-9.2833 -2.644918,-13.58914 -0.04414,-4.30563 1.895364,-6.90666 0.749098,-13.40942 -1.146036,-6.50352 -1.630957,-10.80882 -1.763267,-11.21272 -0.132324,-0.40312 -0.848373,-9.6264 -0.848373,-9.6264 -0.101025,-10.0439 0.234333,-8.35579 0.370292,-12.001399 0.260097,-6.99166 0.116179,-5.75033 1.110894,-9.79486 0.174323,-1.3439 0.271259,-2.54676 0.445582,-3.89122 0.07265,-0.56053 0.222177,-1.26211 0.295018,-1.82264 1.016495,-3.49881 1.010528,-2.79702 0.573792,-5.99672 -0.2885,-2.11898 0.07273,-1.84496 0.288941,-4.0306 0.03801,-0.38743 0.419379,-7.24368 -0.30729,-10.94367 -0.493655,-1.44427 -0.98731,-2.88876 -1.481192,-4.33271 h -0.06153 c 0.02225,3.55386 -1.22132,6.13899 -1.851705,9.16714 -0.206375,1.43708 -0.264401,2.64016 -0.474978,4.07625 -0.06468,0.44369 -0.189351,0.75795 -0.255893,1.21535 -0.286956,1.9743 0.311721,2.75988 -0.379918,6.32446 -0.800503,4.1249 -2.534267,7.72728 -3.332668,11.86699 -0.132321,0.68509 -0.06118,1.42193 -0.03491,2.09034 0.06468,0.44558 0.178514,0.6997 0.273577,1.16638 0.132086,0.64787 0.196756,1.45555 0.316457,2.08009 0.147468,0.76734 0.158958,1.69231 0.183942,2.59042 0.02287,0.812 0.114633,1.38613 0.03182,2.417429 -0.02408,0.30066 -0.0037,4.01558 -0.346413,5.38181 -0.15851,0.63006 -0.518641,0.58286 -0.671732,0.47298 -0.631825,-0.84604 -0.06797,-2.77657 -0.694169,-4.81927 -0.06182,0.042 -0.06182,0.006 -0.123579,0.0469 0.0093,0.44735 -0.07373,1.02501 -0.01971,1.71133 0.08611,1.10283 0.04174,1.56321 0.0078,1.99342 -0.09197,1.1686 -0.148561,2.17967 -0.433748,2.78752 -0.154204,0.32873 -0.574794,0.61789 -0.958245,0.16337 -0.214106,-0.365 -0.244059,-0.90342 -0.266497,-1.66446 -0.09705,-3.32207 -0.107111,-2.24324 -0.147455,-2.98106 -0.04291,-0.79399 -0.06746,-1.41133 -0.06746,-1.41133 -0.09837,-0.0261 -0.165131,-0.0392 -0.259211,-0.002 -0.239538,2.17734 -0.01967,1.73752 -0.327186,4.36011 -0.05429,0.46282 -0.01542,1.32953 -0.135412,1.88785 -0.246385,1.14549 -1.29007,1.00036 -1.37551,0.11352 -0.02928,-0.30287 -0.09793,-0.62863 -0.13685,-0.8938 -0.04201,-0.28651 -0.0181,-0.69195 -0.02809,-0.99361 -0.01542,-0.46525 -0.06248,-0.87191 -0.09816,-1.33407 -0.04126,-0.53489 0.230353,-1.97805 0.0021,-3.04539 -0.0032,0 -0.126236,0 -0.123359,0 -0.08114,0.48182 -0.248157,1.21081 -0.438716,2.14938 -0.02928,0.14469 -0.04414,0.40147 -0.07528,0.54992 -0.171219,0.81731 -0.153977,1.27946 -0.239422,1.78495 -0.134198,0.79851 0.0059,0.91944 -0.276893,1.45068 -0.30851,0.5802 -0.788677,0.3158 -0.917011,0.009 -0.199085,-0.47652 -0.311056,-1.2537 -0.308954,-2.20797 0.0043,-1.76803 0.30022,-2.13955 0.312264,-4.48988 0.0021,-0.48681 0.02949,-0.9149 -0.03119,-1.36501 v 0.23533 c -0.269158,0.45419 -0.372845,0.89855 -0.86396,1.1299 -0.244614,0.0873 -0.442253,0.13773 -0.625965,0.0403 -0.179502,-0.0943 -0.300438,-0.0578 -0.234225,-0.41297 0.05096,-0.27302 0.175751,-0.64785 0.222621,-0.98455 0.07053,-0.506479 0.06131,-0.961449 0.181384,-1.492909 0.06988,-0.30829 0.261755,-0.68577 0.354054,-0.98212 0.15099,-0.48459 0.216432,-1.15499 0.348852,-1.37872 0.09981,-0.16945 0.332045,-0.43938 0.476415,-0.62984 0.03827,-0.0506 0.988643,-1.45709 1.35805,-1.94257 0.370959,-0.48736 0.629947,-0.89976 0.629947,-0.89976 0.0059,-1.29837 0.338127,-2.07566 0.22991,-3.3245 -0.187018,-2.16177 -0.05473,0.19454 -0.258538,-13.40057 0.528363,-7.54534 1.220879,-5.48493 1.894151,-12.32681 0.448566,-4.53775 0.530358,-6.22033 0.813996,-7.162438 0.271034,-0.900542 0.7008,-3.21573 0.625304,-4.827686 -0.05069,-1.083367 -0.04974,-1.571937 -0.170555,-2.263461 -0.226599,-1.299239 -0.158182,-4.724215 1.296039,-7.66007 1.268626,-2.561683 3.019637,-3.763551 5.485812,-4.785012 1.716744,-0.711195 1.595385,-0.308396 4.75065,-2.01321 1.887305,-1.019917 6.390559,-3.676219 7.25351,-5.622215 0.01369,-1.803845 -0.04046,-1.596482 4.13e-4,-3.291557 0,0 -0.355155,-1.469914 -0.500724,-2.497131 -0.757615,-0.0082 -1.190365,-0.712852 -1.451013,-1.582665 -0.231471,-0.771543 -0.207478,-2.129151 -0.212007,-2.309989 -0.01803,-0.703789 -0.04872,-1.376179 0.552122,-1.632627 0.159728,-0.03769 0.188028,-0.04156 0.259878,-0.02298 0.09241,0.02355 0.141262,0.125018 0.233788,0.148563 -0.1164,-3.673916 0.468782,-6.548976 2.839577,-8.162589 4.216632,-2.8697508 9.306514,-0.4846958 10.677279,3.453608 0.458721,1.318256 0.465573,3.132935 0.308504,4.708967 h 0.0616 c 0.133974,-0.112745 0.159728,-0.179953 0.428547,-0.136737 0.475645,0.208805 0.618013,0.764804 0.631391,1.764606 0.01951,1.486158 -0.06629,2.479549 -1.035394,3.52645 -0.241971,0.261523 -0.473317,0.231013 -0.826488,0.37118 -0.02299,0.513517 -0.298835,2.057827 -0.298835,2.057827 0,0 -0.188245,3.113593 -0.07192,3.53032 0.482376,1.720278 6.16197,5.290162 9.483156,6.751565 1.961803,0.863737 5.35483,1.300796 7.630439,4.927055 1.532373,2.440541 2.116895,5.913374 1.735872,8.232325 -0.151327,0.917893 -0.320115,3.200033 -0.05027,4.746881 1.206837,5.97263 0.576999,1.799864 1.372978,9.83256 0.409309,4.12247 0.511342,3.59078 1.333953,7.41291 0.09694,0.45088 0.08775,0.75563 0.148783,1.33363 0.183819,1.75377 0.621209,3.36296 0.275451,11.59848 -0.309392,7.33709 -0.437727,5.91272 -0.104231,7.55562 0.133528,0.66233 -0.338584,0.93193 1.553807,3.40409 0.16581,0.21643 0.341338,0.53864 0.506367,0.71793 0.187249,0.20394 0.361351,0.26606 0.492665,0.54494 0.145249,0.30973 0.07994,0.57247 0.152543,0.91448 0.0892,0.4134 0.182056,0.74357 0.453748,1.365 0.111976,0.25723 -0.0083,0.97063 0.07221,1.487949 0.04524,0.29148 0.216762,0.57036 0.263963,0.85544 0,0.002 0.103796,0.14369 0.08423,0.27446 -0.02834,0.18647 -0.221512,0.37361 -0.594794,0.29325 -0.712519,-0.11495 -0.784918,-0.68887 -1.172901,-1.10923 0.0089,0.59016 -0.06577,0.80481 0.121468,3.28602 0.04718,0.62576 0.43032,3.35324 -0.13253,4.47243 -0.1941,0.38632 -0.632383,0.33117 -0.862509,0.0564 -0.615139,-0.73417 -0.0413,-1.18107 -0.986545,-5.67715 -0.123352,-0.58263 -0.259648,-0.0675 -0.259648,-0.0675 -0.01771,2.81471 0.184157,1.4445 -0.02769,3.51904 -0.104135,1.00876 -0.04146,3.01565 -0.601872,3.16566 -0.514892,0.1385 -0.814214,-0.25623 -0.9043,-0.59867 -0.234562,-0.89623 -0.216223,-1.99651 -0.222631,-2.10716 -0.01707,-0.30165 -0.113409,-1.00798 -0.125453,-1.31682 -0.04041,-1.01849 0.05499,-1.41697 -0.143917,-2.97532 -0.01576,-0.12976 -0.161608,-0.14921 -0.161608,-0.14921 -0.216762,0.20107 -0.09406,0.93447 -0.13109,1.2768 -0.348191,3.19693 0.04883,3.54413 -0.480944,4.75649 -0.179952,0.41131 -0.716282,0.42901 -0.932157,0.0543 -0.159397,-0.27767 -0.168678,-0.63293 -0.188459,-0.70213 -0.194106,-0.67306 -0.147467,-1.41541 -0.205941,-2.05255 -0.03918,-0.42115 -0.102357,-0.53986 -0.09462,-0.87965 0.02575,-1.15368 0.255228,-1.87515 0.04553,-3.05645 -0.04126,-0.0208 -0.08256,-0.0418 -0.123577,-0.0623 -0.08234,0.12789 -0.05069,0.24207 -0.09196,0.41076 -0.133974,0.54472 -0.155196,1.34347 -0.243626,1.97407 -0.139171,0.99672 0.100695,2.25041 -0.528802,2.51272 -0.308512,-0.0211 -0.28773,-0.042 -0.472436,-0.23036 -0.594251,-1.49854 -0.199521,-3.43636 -0.344545,-5.25292 -0.175309,-2.185299 -0.0073,-2.064929 0.0387,-2.783869 0.211902,-3.43458 0.106779,-1.81213 0.354269,-3.55717 0.250036,-1.7624 0.33758,-1.53237 0.456851,-2.34647 0.22759,-1.55336 -0.07362,-2.30479 -0.552579,-4.16767 -0.05429,-0.21234 -0.128549,-0.38655 -0.179289,-0.60606 -0.23091,-0.99118 -0.647193,-2.10053 -0.910162,-3.05136 -2.135337,-7.71844 -1.601462,-5.9776 -1.896028,-8.03026 -0.142164,-0.98853 -0.125244,-0.60729 -0.01249,-3.94251 -0.08943,-0.61879 -0.26131,-1.15389 -0.351176,-1.77245 -0.198636,-1.36966 -0.314362,-2.82299 -0.512782,-4.19233 -0.625305,-2.89804 -1.763725,-5.3933 -1.789915,-8.85331 -0.04078,0.0209 -0.08213,0.0418 -0.123362,0.0629 -0.310384,1.22829 -0.899981,2.63243 -1.412989,3.88812 -0.26584,0.6515 -0.04616,0.69926 -0.278768,1.69984 -0.319006,1.3733 -0.458179,7.05477 -0.09783,9.73241 0.102463,0.76845 0.132312,0.19996 0.308727,2.26025 0.0314,0.37074 -0.0181,0.64111 -0.04952,1.06535 -0.02575,0.34675 -0.02473,0.8518 -0.07053,1.13543 -0.162263,1.00445 -0.358033,1.71685 -0.127117,2.75965 0.223281,1.00689 0.295909,0.47034 0.967312,3.86238 0.109868,0.55401 0.08301,0.84217 0.162042,1.47732 0.06248,0.5025 0.229689,1.35495 0.313477,1.79787 0.08236,0.43286 0.117502,0.98974 0.197645,1.41642 0.17332,0.92275 0.893465,3.30405 0.935143,6.86034 0.07782,6.580249 0.494757,6.135219 0.44479,11.301689 -0.0679,6.29174 -0.948838,16.30847 -1.572489,19.24686 -0.837531,3.94659 -1.410661,9.05968 -1.101712,10.0461 0.30806,0.98666 1.366556,8.74554 0.748883,12.33368 -0.617013,3.58746 -3.790966,15.47246 -3.746859,17.89441 0.04388,2.42199 -0.65426,4.58152 0.04388,6.14405 0.441033,0.98665 0.132534,3.00529 0.308722,3.58791 0.17642,0.58309 0.396715,2.24257 1.013959,2.7359 0.617233,0.49354 1.675068,3.00482 1.454773,3.8123 -0.220528,0.80713 -0.573143,1.43508 -1.146269,1.21102 -0.484708,0.53821 -1.102161,0.40359 -1.23425,0.35871 -0.132311,-0.0449 -0.484925,0.98665 -1.542984,0.1795 -0.2644,0.40334 -0.617008,0.71715 -1.366776,0.40334 -0.749327,-0.31379 -0.528816,-0.40334 -0.528816,-0.40334 l -0.573125,0.0896 c 0,0 0.08798,1.16615 -0.97007,1.16615 -1.057833,0 -2.600812,-0.71771 -2.512607,-1.88354 0.08798,-1.16638 -0.08821,-2.7361 0.440818,-4.3505 -0.529023,-1.12129 -0.573133,-2.91509 -0.308507,-3.76763 0.264405,-0.85159 0,-1.97308 -0.04435,-2.55593 -0.04414,-0.58331 0.837748,-4.12634 0.837748,-5.11277 0,-0.9871 0.08822,-10.00165 -0.529019,-11.34701 -0.617241,-1.34512 -1.410664,-6.63761 -0.484922,-10.31482 0,0 1.117523,-5.33693 1.146265,-6.68249 0.04387,-2.06327 -2.248433,-8.38685 -2.248433,-10.89813 0,-2.51173 -1.498875,-12.06474 -1.675067,-12.78245 -0.176192,-0.71761 -1.006871,-5.50693 -1.006871,-5.50693"
 />
<path style="fill:#808080;" d="m 116.13716,381.1475 c 0.59916,-4.15897 0.432,-17.74851 -0.28938,-23.52613 -0.79152,-6.33929 -0.84539,-10.73912 -0.20361,-16.63082 1.42043,-13.04 5.34415,-24.69321 11.37227,-33.77495 3.99822,-6.02357 12.87221,-13.61632 19.19673,-16.42507 l 1.82821,-0.81192 2.63172,2.76214 c 16.40391,17.21681 40.52677,31.87004 63.41682,38.52203 6.3717,1.85165 16.48792,3.95961 24.17657,5.03777 6.34,0.88905 23.15414,0.95906 32.08354,0.13361 26.77184,-2.47487 58.4499,-16.03405 78.04741,-33.40669 1.82359,-1.61656 5.4899,-5.02172 8.14734,-7.56703 l 4.83173,-4.62782 3.61235,2.17486 c 4.47019,2.69133 10.83976,8.60445 14.32841,13.3016 2.98547,4.01968 6.86706,11.68116 8.59804,16.97082 3.54226,10.82474 4.5363,21.75681 3.11114,34.2152 -0.60042,5.24879 -0.7308,8.91124 -0.55315,15.53867 0.12784,4.76917 0.37652,9.12279 0.55263,9.67471 l 0.32021,1.00348 H 253.55692 115.76771 Z" />
</svg>
