<svg xmlns="http://www.w3.org/2000/svg" viewBox="0 0 512 384">
<rect width="512" height="384" id="P008WIImgRct6" fill="#000"/>

<circle r="74.465126" cy="189.41129" cx="257.32907" style="fill:#ffffff;" />
<path d="m 265.74745,237.37303 c -49.56699,34.52631 -91.73883,55.98259 -111.26717,56.6108 -6.55212,0.21076 -9.98077,-1.25784 -10.97287,-4.70001 -0.73087,-2.53563 0.4202,-8.96089 2.36122,-13.18024 4.81056,-10.45713 14.78538,-23.63401 30.62713,-40.45871 3.7084,-3.93847 7.19645,-7.66529 7.75117,-8.28176 0.71035,-0.78939 2.13413,-2.92982 2.47558,-2.50174 1.32327,2.5394 3.11401,5.30286 4.80444,7.52698 -3.47628,2.89497 -5.9102,5.704 -7.98349,8.71398 -6.78567,9.85144 -9.29108,16.72073 -7.80225,21.39247 0.76785,2.40945 0.83429,2.48132 3.38448,3.6607 8.33582,3.85497 31.53339,-4.96527 61.78217,-23.49094 10.91167,-6.68277 18.59079,-12.0582 36.04513,-25.2318 26.60394,-20.07924 45.60772,-37.31776 60.83551,-55.18452 13.0307,-15.28891 18.38175,-27.07139 14.50282,-31.9342 -3.70186,-4.64094 -10.69018,-4.36299 -25.57054,1.01689 -7.66219,2.77021 -11.3982,4.30313 -11.3982,4.30313 -1.86526,-2.29765 -3.47504,-3.90091 -5.60576,-5.25398 -0.34658,-1.16014 22.35482,-11.99511 29.64023,-15.41383 21.4838,-10.0814 38.17798,-14.01233 45.1155,-10.62322 10.57006,5.16362 -3.35508,29.75962 -35.6025,62.88476 -4.18329,4.29718 -10.58689,10.51684 -14.23004,13.82137 -16.65839,15.10994 -56.57298,47.74256 -68.89256,56.32387 z"
style="fill:#808080;)" />
<path style="fill:#808080;" d="m 113.00664,318.74133 c -2.40043,-2.40043 -2.67269,-3.30961 -2.21284,-7.38941 0.75018,-6.65557 8.46596,-21.21358 17.80664,-33.59726 11.4691,-15.20551 52.62818,-67.51032 53.192,-65.63719 1.61068,5.35108 2.25712,5.58324 3.64797,9.05256 0,0 -1.48019,2.61416 -5.42721,6.75847 -12.86464,13.50766 -32.01976,36.60355 -37.30614,47.07579 -5.53884,10.97239 -5.49752,19.55411 0.10811,22.4529 14.32148,7.40592 56.33944,-10.5018 111.14135,-47.36759 28.86377,-19.41694 73.6982,-56.07045 96.47143,-78.86832 30.34768,-30.38052 45.96008,-52.47712 45.96008,-65.04838 0,-3.00783 -0.5797,-4.89099 -3.06184,-7.23157 -2.59818,-2.186321 -6.35521,-3.058148 -11.36422,-2.72419 -10.09889,0.67332 -22.59307,4.63583 -38.58399,12.23687 -10.28721,4.88987 -30.4864,15.61296 -36.06786,19.25597 0,0 -0.19665,-0.73122 -3.4283,-3.02506 l 6.4075,-3.53422 c 3.22716,-1.78002 12.26263,-6.24737 19.79264,-10.49776 39.21311,-22.13422 70.57036,-33.40675 83.27047,-29.93468 5.51655,1.50817 6.81761,4.35788 5.27456,11.55283 -2.07058,9.65479 -11.00386,24.41729 -24.9886,41.29438 -11.0415,13.32511 -42.25213,44.78275 -55.34419,55.78219 -32.65373,27.43438 -79.67461,64.00423 -97.14297,75.5516 -53.76631,35.54196 -93.48601,54.6236 -116.65765,56.04322 -8.49304,0.52033 -8.83002,0.45577 -11.48694,-2.20115 z" />
</svg>
