<svg xmlns="http://www.w3.org/2000/svg" viewBox="0 0 1024 768">
<rect width="1024" height="768" x="0" y="0" fill="none"/>
<circle r="93.301949" cy="383.11322" cx="417.91077" style="fill:#ffffff;"/>
<circle r="8.7111731" cy="384.57135" cx="128.85715" style="fill:#ffffff;" />
<circle r="10.132867" cy="383.14288" cx="174.28574" style="fill:#ffffff;" />
<circle r="12.620831" cy="383.49994" cx="228.07144" style="fill:#ffffff;" />
<circle r="7.6449027" cy="384.21423" cx="281.00003" style="fill:#ffffff;" />
<circle r="36.196148" cy="382.56372" cx="950.8689" id="path4297-8" style="fill:#ffffff;" />
<path d="m -3.9991555,382.73784 c 0,-211.45276 -0.5469231,-385.0095494 0,-385.0095494 2.7401003,0 29.4253755,56.0549874 43.5127285,93.1556814 23.758658,62.571208 39.679014,128.583958 48.526592,201.212468 4.506162,36.99045 5.141078,132.29999 1.128396,169.38804 C 78.258256,562.32522 51.532503,656.70697 10.098938,740.71805 L -3.9991555,767.7474 Z" style="fill:#ffffff;"/>
<path d="m 881.73582,384.02258 c 0,22.2823 -18.06,40.3444 -40.3404,40.3444 -22.2801,0 -40.3423,-18.0619 -40.3423,-40.3444 0,-22.2801 18.0622,-40.3423 40.3423,-40.3423 22.2804,0 40.3404,18.0622 40.3404,40.3423 z" style="fill:#ffffff;"/>
<path d="m 856.09142,317.3026 c -0.4225,-0.0756 -0.849,-0.12319 -1.2841,-0.13951 -7.9468,-0.31577 -16.6399,9.17138 -23.7207,24.40188 2.2645,-0.69951 4.6071,-1.22464 7.0112,-1.55884 0.4143,-0.78982 0.8328,-1.56519 1.2595,-2.31789 2.8719,-5.09738 5.9323,-9.16294 8.8615,-11.76184 2.3916,-2.12307 4.5948,-3.2061 6.3672,-3.13624 l 0,0 c 0.1805,0.0111 0.3567,0.0244 0.5331,0.0577 2.1129,0.37341 3.8481,2.57835 4.9273,4.363 1.9816,3.26575 3.5856,8.05726 4.6442,13.85803 1.1321,6.19285 1.6369,13.30669 1.4934,21.13847 -0.1517,8.20508 -1.005,16.81001 -2.5437,25.57721 -2.929,16.70549 -8.0205,32.06939 -14.33,43.27343 -2.872,5.09527 -5.9363,9.16105 -8.8615,11.75784 -2.3918,2.12519 -4.595,3.20821 -6.3671,3.13836 -0.1808,-0.0111 -0.357,-0.0244 -0.5375,-0.0577 -2.1129,-0.37341 -3.8442,-2.58045 -4.9274,-4.36088 -1.9773,-3.26576 -3.5813,-8.05759 -4.6438,-13.85837 -0.2174,-1.18965 -0.4103,-2.4163 -0.5784,-3.6717 -2.1292,-1.12813 -4.1559,-2.42052 -6.0637,-3.86463 1.5591,17.60803 6.9703,29.83791 15.2407,31.29824 0.4267,0.0778 0.8533,0.12317 1.2843,0.1395 13.4354,0.53302 29.0088,-26.92892 35.298,-62.81785 6.4962,-37.04238 0.6483,-69.03558 -13.0625,-71.4582 z" style="fill:#808080;"/>
<circle r="74.465126" cy="384.88675" cx="648.99243" id="path4297-2-1-2" style="fill:#ffffff;" />
<path d="m 657.41082,432.84848 c -49.56699,34.52631 -91.73883,55.98259 -111.26717,56.6108 -6.55212,0.21076 -9.98077,-1.25784 -10.97287,-4.70001 -0.73087,-2.53563 0.4202,-8.96089 2.36122,-13.18024 4.81056,-10.45713 14.78538,-23.63401 30.62713,-40.45871 3.7084,-3.93847 7.19645,-7.66529 7.75117,-8.28176 0.71035,-0.78939 3.66301,-3.54137 4.00446,-3.11329 1.0175,2.5394 2.80823,5.91441 4.49866,8.13853 -3.47628,2.89497 -7.1333,5.704 -9.20659,8.71398 -6.78567,9.85144 -9.29108,16.72073 -7.80225,21.39247 0.76785,2.40945 0.83429,2.48132 3.38448,3.6607 8.33582,3.85497 31.53339,-4.96527 61.78217,-23.49094 10.91167,-6.68277 18.59079,-12.0582 36.04513,-25.2318 26.60394,-20.07924 45.60772,-37.31776 60.83551,-55.18453 13.0307,-15.28891 18.38175,-27.07139 14.50282,-31.9342 -3.70186,-4.64094 -10.69018,-4.36299 -25.57054,1.01689 -7.66219,2.77021 -12.6213,4.76179 -12.6213,4.76179 -1.55948,-2.29765 -3.93371,-4.81824 -4.99421,-5.71264 -0.34658,-1.16014 22.96637,-11.99511 30.25178,-15.41383 21.4838,-10.0814 38.17798,-14.01233 45.1155,-10.62322 10.57006,5.16362 -3.35508,29.75962 -35.6025,62.88476 -4.18329,4.29718 -10.58689,10.51684 -14.23004,13.82138 -16.65839,15.10994 -56.57298,47.74256 -68.89256,56.32387 z" style="fill:#808080;" />
<path style="fill:#808080;" d="m 504.67001,514.21678 c -2.40043,-2.40043 -2.67269,-3.30961 -2.21284,-7.38941 0.75018,-6.65557 8.46596,-21.21358 17.80664,-33.59726 11.4691,-15.20551 51.54163,-60.59189 53.49778,-60.59189 0.38758,0 1.20357,1.32167 1.81331,2.93704 1.04319,2.76372 0.81313,3.22572 -3.89833,7.82869 -13.34282,13.03553 -32.01976,36.60355 -37.30614,47.07579 -5.53884,10.97239 -5.49752,19.55411 0.10811,22.4529 14.32148,7.40592 56.33944,-10.5018 111.14135,-47.36759 28.86377,-19.41694 73.6982,-56.07045 96.47143,-78.86833 30.34768,-30.38052 45.96008,-52.47712 45.96008,-65.04838 0,-3.00783 -0.73259,-4.7381 -3.06184,-7.23157 l -3.06185,-3.27772 -8.30237,0.55353 c -10.09889,0.67332 -22.59307,4.63583 -38.58399,12.23687 -10.28721,4.88987 -26.81709,13.7783 -32.39855,17.42131 -1.76341,1.15098 -2.4216,1.10619 -4.43142,-0.30155 l -2.36041,-1.65329 6.10172,-2.76978 c 3.35594,-1.52338 12.26263,-6.24737 19.79264,-10.49776 39.21311,-22.13422 70.57036,-33.40675 83.27047,-29.93468 5.51655,1.50817 6.81761,4.35788 5.27456,11.55283 -2.07058,9.65479 -11.00386,24.41729 -24.9886,41.29438 -11.0415,13.32511 -42.25213,44.78275 -55.34419,55.7822 -32.65373,27.43438 -79.67461,64.00423 -97.14297,75.5516 -53.76631,35.54196 -93.48601,54.6236 -116.65765,56.04322 -8.49304,0.52033 -8.83002,0.45577 -11.48694,-2.20115 z"/>
</svg>
