<svg xmlns="http://www.w3.org/2000/svg" viewBox="0 0 512 384">
<rect y="0" x="0" height="384" width="512" style="fill:none;" />
<path d="m 297.20136,192.44152 c 0,22.2823 -18.06,40.3444 -40.3404,40.3444 -22.2801,0 -40.3423,-18.0619 -40.3423,-40.3444 0,-22.2801 18.0622,-40.3423 40.3423,-40.3423 22.2804,0 40.3404,18.0622 40.3404,40.3423 z" style="fill:#ffffff;" />
<path d="m 271.55696,125.72154 c -0.4225,-0.0756 -0.849,-0.12319 -1.2841,-0.13951 -7.9468,-0.31577 -16.6399,9.17138 -23.7207,24.40188 2.2645,-0.69951 4.6071,-1.22464 7.0112,-1.55884 0.4143,-0.78982 0.8328,-1.56519 1.2595,-2.31789 2.8719,-5.09738 5.9323,-9.16294 8.8615,-11.76184 2.3916,-2.12307 4.5948,-3.2061 6.3672,-3.13624 l 0,0 c 0.1805,0.0111 0.3567,0.0244 0.5331,0.0577 2.1129,0.37341 3.8481,2.57835 4.9273,4.363 1.9816,3.26575 3.5856,8.05726 4.6442,13.85803 1.1321,6.19285 1.6369,13.30669 1.4934,21.13847 -0.1517,8.20508 -1.005,16.81001 -2.5437,25.57721 -2.929,16.70549 -8.0205,32.06939 -14.33,43.27343 -2.872,5.09527 -5.9363,9.16105 -8.8615,11.75784 -2.3918,2.12519 -4.595,3.20821 -6.3671,3.13836 -0.1808,-0.0111 -0.357,-0.0244 -0.5375,-0.0577 -2.1129,-0.37341 -3.8442,-2.58045 -4.9274,-4.36088 -1.9773,-3.26576 -3.5813,-8.05759 -4.6438,-13.85837 -0.2174,-1.18965 -0.4103,-2.4163 -0.5784,-3.6717 -2.1292,-1.12813 -4.1559,-2.42052 -6.0637,-3.86463 1.5591,17.60803 6.9703,29.83791 15.2407,31.29824 0.4267,0.0778 0.8533,0.12317 1.2843,0.1395 13.4354,0.53302 29.0088,-26.92892 35.298,-62.81785 6.4962,-37.04238 0.6483,-69.03558 -13.0625,-71.4582 z" style="fill:#808080;"/>
</svg>
