<?xml version="1.0" encoding="UTF-8" standalone="no"?>
<svg
   xmlns:dc="http://purl.org/dc/elements/1.1/"
   xmlns:cc="http://creativecommons.org/ns#"
   xmlns:rdf="http://www.w3.org/1999/02/22-rdf-syntax-ns#"
   xmlns:svg="http://www.w3.org/2000/svg"
   xmlns="http://www.w3.org/2000/svg"
   xmlns:sodipodi="http://sodipodi.sourceforge.net/DTD/sodipodi-0.dtd"
   xmlns:inkscape="http://www.inkscape.org/namespaces/inkscape"
   viewBox="0 0 512 384"
   version="1.1"
   id="svg8"
   sodipodi:docname="monopI05-wi2.svg"
   inkscape:version="0.92.3 (2405546, 2018-03-11)">
  <metadata
     id="metadata14">
    <rdf:RDF>
      <cc:Work
         rdf:about="">
        <dc:format>image/svg+xml</dc:format>
        <dc:type
           rdf:resource="http://purl.org/dc/dcmitype/StillImage" />
        <dc:title></dc:title>
      </cc:Work>
    </rdf:RDF>
  </metadata>
  <defs
     id="defs12" />
  <sodipodi:namedview
     pagecolor="#ffffff"
     bordercolor="#666666"
     borderopacity="1"
     objecttolerance="10"
     gridtolerance="10"
     guidetolerance="10"
     inkscape:pageopacity="0"
     inkscape:pageshadow="2"
     inkscape:window-width="1366"
     inkscape:window-height="705"
     id="namedview10"
     showgrid="true"
     inkscape:zoom="0.56054688"
     inkscape:cx="256"
     inkscape:cy="192"
     inkscape:window-x="-8"
     inkscape:window-y="-8"
     inkscape:window-maximized="1"
     inkscape:current-layer="svg8">
    <inkscape:grid
       type="xygrid"
       id="grid863"
       spacingx="256"
       spacingy="192" />
  </sodipodi:namedview>
  <rect
     width="512"
     height="384"
     fill="none"
     id="rect2" />
  <!-- apple -->
  <path
     inkscape:connector-curvature="0"
     style="fill:#c87137;stroke-width:1.56259203"
     d="m 127.81059,124.53839 c 0,0 11.1306,-0.40562 11.1306,-0.40562 -5.75395,0.40562 -10.24392,2.28273 -13.4133,5.67849 -3.24485,3.27315 -4.13153,6.55573 -2.6223,9.80058 1.99031,3.79196 9.02709,8.06496 21.11982,12.81905 -2.76377,0 -9.95149,-1.87711 -21.52542,-5.63133 -7.03681,-2.29214 -11.30982,-5.52756 -12.81905,-9.81 0,0 -0.36787,-5.66907 -0.36787,-5.66907 4.273,-3.28257 10.42313,-5.52756 18.49752,-6.7821 0,0 0,0 0,0"
     id="path12" />
  <path
     inkscape:connector-curvature="0"
     style="fill:#c87137;stroke-width:1.56259203"
     d="m 194.94314,139.24397 c 0.77348,22.88374 1.03761,33.34461 0.77348,31.31658 -13.08314,-23.65722 -26.15688,-37.61762 -39.24004,-41.89064 -8.29135,-2.5091 -18.61072,-2.76378 -30.94869,-0.73576 -6.26333,0.73576 -11.68713,1.87711 -16.21482,3.38634 0.5188,-1.50923 2.24498,-3.01846 5.27287,-4.53713 5.52756,-3.01845 14.11133,-4.89556 25.67583,-5.66905 11.57393,-0.48106 22.62905,1.66016 33.20312,6.44254 6.03692,2.76379 13.18692,6.64062 21.47827,11.68712 0,0 0,0 0,0"
     id="path14" />
  <path
     inkscape:connector-curvature="0"
     style="fill:#c87137;stroke-width:1.56259203"
     d="m 187.79316,67.536564 c 1.25455,-0.216966 1.88655,0.518796 1.88655,2.282713 -0.26413,1.773338 0.25467,2.876966 1.50922,3.395762 1.24512,0.254687 2.6506,-0.63199 4.15983,-2.650578 2.24497,-3.027897 7.77253,-6.782118 16.58269,-11.319244 0,0 -7.15,18.129645 -7.15,18.129645 -3.53725,8.036676 -5.41436,15.846949 -5.66905,23.402548 -0.26411,6.26331 0.50937,13.92267 2.28271,22.9875 1.25456,6.55573 3.13167,10.20617 5.63134,10.94192 6.56516,1.77336 10.31937,3.02791 11.31924,3.80138 4.27302,2.76379 2.65059,4.1221 -4.90501,4.1221 -7.0368,0 -12.67756,-2.49966 -16.98829,-7.5556 -4.48997,-5.52756 -8.39511,-16.4695 -11.67769,-32.82581 -3.28259,-15.846928 -3.90514,-25.647521 -1.87711,-29.401726 1.76391,-3.282584 3.38634,-5.0465 4.89557,-5.31061 0,0 0,0 0,0"
     id="path16" />
  <path
     inkscape:connector-curvature="0"
     style="fill:#c87137;stroke-width:1.56259203"
     d="m 185.14256,121.8878 c 5.0465,3.49953 8.81016,6.92361 11.30983,10.16845 1.29227,2.02803 2.3959,4.15983 3.43349,6.45196 0.99044,1.99031 -1.15078,7.29149 -6.41423,15.83751 1.25454,-6.55573 -1.77336,-12.85677 -9.06483,-18.86541 -8.32907,-6.8104 -18.24286,-8.69695 -29.80735,-5.66905 -5.0465,1.50923 -9.58363,4.89557 -13.60196,10.16846 0.26413,-3.49953 1.51867,-7.40467 3.80138,-11.67769 3.49954,-7.5556 7.40467,-11.94179 11.67769,-13.19635 10.05526,-1.76392 19.60117,0.48107 28.66598,6.78212 0,0 0,0 0,0"
     id="path18" />
  <path
     inkscape:connector-curvature="0"
     style="fill:#c87137;stroke-width:1.56259203"
     d="m 206.65856,96.240269 c 1.77336,-4.273017 5.52758,-7.187719 11.31925,-8.696949 4.78239,-1.509229 9.05541,-1.763916 12.81905,-0.735746 3.79194,0.735746 5.15969,6.414237 4.15982,16.950556 -2.02802,-4.754073 -5.0465,-8.546015 -9.06483,-11.309802 -2.24497,-1.50923 -6.4048,-0.886678 -12.45117,1.87711 -4.75407,2.028026 -7.0368,2.650594 -6.78212,1.914831 0,0 0,0 0,0"
     id="path20" />
  <path
     inkscape:connector-curvature="0"
     style="fill:#c87137;stroke-width:1.56259203"
     d="m 199.1124,144.13954 c -3.76364,-13.33784 -4.53713,-25.2702 -2.25441,-35.84426 2.5091,-12.309682 9.02709,-19.346487 19.60117,-21.119841 6.04635,-1.509229 10.83817,-1.660145 14.3377,-0.367865 -1.50923,-0.518797 -3.49953,-0.254687 -6.04636,0.735746 -4.75409,1.50923 -9.43271,5.52756 -13.92267,12.092727 -5.31061,7.772553 -8.0744,16.205393 -8.32909,25.270203 -0.22639,8.54604 1.76392,14.84708 6.04637,18.86541 5.51814,5.27289 2.38647,5.41438 -9.43271,0.36788 0,0 0,0 0,0"
     id="path22" />
  <path
     inkscape:connector-curvature="0"
     style="fill:#c87137;stroke-width:1.56259203"
     d="m 165.54141,35.48424 c -1.50923,15.101748 -1.14136,26.420993 1.10363,33.967156 1.50923,4.754076 4.79181,12.460608 9.83831,22.996932 5.27287,14.111332 14.18679,29.184782 26.78887,45.286412 0,0 1.87711,16.61098 1.87711,16.61098 -3.01845,0.73576 -5.52756,-1.50923 -7.5556,-6.8104 -0.25468,-0.73576 -5.15968,-6.04637 -14.69614,-15.84695 -9.32894,-9.80057 -16.36575,-20.48783 -21.14812,-32.052323 -5.0182,-11.828602 -5.89544,-26.053127 -2.6223,-42.635822 1.73562,-8.329068 3.90514,-15.479067 6.41424,-21.515985 0,0 0,0 0,0"
     id="path24" />
  <path
     inkscape:connector-curvature="0"
     style="fill:#ff9955;stroke-width:1.56259203"
     d="m 319.48313,127.93415 c 17.83725,3.75422 35.19343,14.07359 52.06853,30.91098 19.34647,19.12009 27.52462,46.79564 24.49672,83.01721 -3.49953,39.49473 -20.99718,68.9342 -52.42696,88.28068 -27.41144,16.87511 -55.08699,22.65735 -83.01721,17.35616 -23.39311,-4.23528 -44.14505,-15.44133 -62.23699,-33.57099 -14.84708,-14.59239 -23.54403,-32.45792 -26.04369,-53.56831 -2.25443,-17.6203 -0.11313,-36.58946 6.4048,-56.9641 0,0 15.1112,-46.79564 15.1112,-46.79564 -1.50925,-12.30968 -0.51881,-20.11995 3.01846,-23.40254 1.73561,-1.50923 3.65045,-1.76391 5.64075,-0.73574 0,0 6.81986,2.24497 6.81986,2.24497 8.54603,0.77348 22.10081,-0.62255 40.74927,-4.15981 29.40175,-5.52757 52.54015,-6.41425 69.41526,-2.61287 0,0 0,0 0,0"
     id="path26" />
  <path
     inkscape:connector-curvature="0"
     style="fill:#c87137;stroke-width:1.56259203"
     d="m 180.24699,198.85865 c 0,0 13.59254,-42.25851 13.59254,-42.25851 -0.99987,4.5277 -3.53727,14.96027 -7.5556,31.31657 -3.53727,16.83738 -4.89557,32.20326 -4.15983,46.02217 1.02817,16.8751 5.30119,33.19368 12.81904,49.04062 8.32908,17.12979 19.01634,30.43933 32.09008,40.01352 13.60195,10.31938 32.58056,16.9883 56.97352,20.00677 5.51812,0.66972 10.4986,1.17909 14.92254,1.50923 -28.74145,0.40561 -53.83244,-5.99919 -75.2824,-19.26158 -36.73096,-22.88374 -51.18186,-65.00075 -43.39989,-126.38879 0,0 0,0 0,0"
     id="path28" />
  <path
     inkscape:connector-curvature="0"
     style="fill:#c87137;stroke-width:1.56259203"
     d="m 200.98951,132.05625 c 0.77348,5.31061 1.28284,21.41223 1.50923,48.30488 0.5188,24.39296 2.1318,43.04142 4.89559,55.82274 5.31061,24.17601 11.97953,41.63595 20.01619,52.47412 12.59266,17.34674 33.96716,30.79778 64.14239,40.3814 14.85649,4.75408 33.3446,4.3862 55.45485,-1.14136 0,0 -1.87711,1.50923 -1.87711,1.50923 -32.68431,9.54591 -67.65134,2.87698 -104.90109,-20.00676 -14.59239,-9.06483 -26.16631,-25.53433 -34.71236,-49.4085 -6.51799,-18.61072 -9.68738,-35.11796 -9.4327,-49.45566 0.5188,-15.83751 0.88668,-28.55279 1.14137,-38.09869 0.51879,-17.61085 0.26411,-30.69401 -0.77348,-39.24005 1.29227,-0.73574 2.8015,-1.14135 4.53712,-1.14135 0,0 0,0 0,0"
     id="path30" />
  <path
     inkscape:connector-curvature="0"
     style="fill:#c87137;stroke-width:1.56259203"
     d="m 219.85492,200 c -10.31937,-35.22171 -17.35618,-57.73757 -21.11982,-67.53814 1.25454,-0.5188 2.25441,-0.5188 3.02789,0 14.32829,51.54972 30.91098,91.56324 49.77639,119.97454 12.08329,18.12966 31.46749,34.19356 58.10545,48.30488 8.55546,4.5277 24.06282,11.30982 46.42776,20.33691 0,0 -1.14136,1.14135 -1.14136,1.14135 -19.12008,-7.51786 -31.94857,-12.93223 -38.46656,-16.21481 -19.86528,-9.80058 -37.73082,-21.516 -53.57775,-35.07079 -16.61099,-14.11133 -30.9487,-37.73081 -43.032,-70.93394 0,0 0,0 0,0"
     id="path32" />
  <path
     inkscape:connector-curvature="0"
     style="fill:#c87137;stroke-width:1.56259203"
     d="m 219.11917,134.70683 c 4.27302,3.53727 10.30995,7.18772 18.09193,10.94194 31.72218,14.85652 49.2953,23.40254 52.83258,25.64753 27.93022,16.8751 48.56898,37.24974 61.86909,61.13335 7.5556,13.8472 12.81904,28.43959 15.83751,43.76774 2.29215,12.60209 2.66002,23.40254 1.15079,32.46737 0,0 -1.88655,2.24497 -1.88655,2.24497 2.76379,-22.88373 -1.14135,-45.39959 -11.71541,-67.53814 -20.11995,-43.51306 -61.60499,-75.09377 -124.50225,-94.69492 -6.51799,-2.02803 -12.30968,-6.66893 -17.35618,-13.96984 0,0 5.67849,0 5.67849,0"
     id="path34" />
  <path
     inkscape:connector-curvature="0"
     style="fill:#c87137;stroke-width:1.56259203"
     d="m 317.9739,144.50742 c 20.37463,7.3009 37.10826,18.61072 50.18198,33.9766 11.79088,13.8189 18.45981,28.55279 19.97848,44.14505 2.28271,22.13855 -1.11307,46.68245 -10.1779,73.57508 0,0 -3.79194,5.64075 -3.79194,5.64075 2.76377,-4.75407 5.31061,-13.04542 7.55558,-24.87404 2.5091,-13.07372 4.01835,-27.04356 4.52771,-41.89062 1.77335,-38.24961 -22.50644,-67.53816 -72.8016,-87.9128 -10.83819,-4.53713 -22.26119,-8.29135 -34.34448,-11.31925 -14.3377,-3.79194 -25.27964,-5.30117 -32.8258,-4.5277 0,0 6.03693,-1.14135 6.03693,-1.14135 24.39297,2.76379 46.27683,7.5556 65.66104,14.32828 0,0 0,0 0,0"
     id="path36" />
  <path
     inkscape:connector-curvature="0"
     style="fill:#c87137;stroke-width:1.56259203"
     d="m 371.55166,158.84286 c 19.34647,19.1201 27.52462,46.79565 24.49672,83.01722 -3.49953,39.49473 -20.99718,68.94363 -52.42696,88.28068 -26.90206,16.62041 -54.20031,22.51585 -81.87586,17.76178 -22.88374,-4.01833 -43.39987,-14.73389 -61.49179,-32.09006 17.34674,6.30104 33.92943,9.57418 49.8141,9.83831 18.61072,0.47164 32.05232,-3.43352 40.34367,-11.71542 17.61087,-17.62029 37.36293,-33.571 59.24682,-47.9087 7.81971,-5.0465 13.08316,-16.10162 15.84693,-33.19369 2.76379,-18.12964 1.87711,-36.2593 -2.65058,-54.35123 -5.00878,-19.85584 -13.56423,-34.71235 -25.64752,-44.51293 12.08329,5.52757 23.50629,13.81891 34.34447,24.87404 0,0 0,0 0,0"
     id="path38" />
  <path
     inkscape:connector-curvature="0"
     style="fill:#c87137;stroke-width:1.56259203"
     d="m 165.54141,142.63031 c 1.9903,-2.76378 3.75422,-4.89557 5.27289,-6.41423 3.01846,-2.76379 6.4048,-4.52771 10.20618,-5.26345 5.78224,-1.03761 16.57325,0.21695 32.4202,3.7542 0,0 -8.65923,5.67849 -8.65923,5.67849 -5.04648,1.7262 -8.54602,2.39591 -10.57406,1.87711 -0.99043,-0.25469 -1.50923,0.73575 -1.50923,3.01846 0.25469,1.25456 0.5188,2.39591 0.77349,3.39578 -1.77336,-5.79169 -5.31061,-8.92334 -10.57406,-9.4327 -3.28259,-0.26412 -7.18772,0.25467 -11.71543,1.50923 0,0 -5.64075,1.87711 -5.64075,1.87711"
     id="path40" />
  <path
     inkscape:connector-curvature="0"
     style="fill:#c87137;stroke-width:1.56259203"
     d="m 181.75622,133.56548 c -9.06481,0.77349 -14.3377,6.04636 -15.84695,15.84694 -0.99043,4.79181 -0.99043,9.58362 0,14.36601 -1.77333,-1.28285 -3.13165,-3.27314 -4.1598,-6.03693 -2.25443,-5.52756 -1.62244,-12.19648 1.91483,-20.00676 3.75422,-8.03667 9.90435,-11.94181 18.4598,-11.68712 5.0465,0.22639 12.33798,2.3959 21.88387,6.41424 0,0 11.71542,3.38633 11.71542,3.38633 0,0 -7.17828,0 -7.17828,0 -3.28258,-0.77348 -5.89544,-1.39603 -7.92348,-1.87711 -4.01833,-0.77348 -10.31937,-0.88667 -18.86541,-0.4056 0,0 0,0 0,0"
     id="path42" />
  <path
     inkscape:connector-curvature="0"
     style="fill:#997032;stroke-width:1.56259203"
     d="m 347.37564,315.06954 c 1.77334,-0.50936 3.65047,-0.87724 5.67849,-1.14135 -4.27301,0.26411 -5.89544,-0.99045 -4.905,-3.75422 0.77348,-1.50923 2.50908,-3.01846 5.27289,-4.53712 1.25454,-0.50938 2.53738,-0.99044 3.79194,-1.50923 0,0 1.87709,-5.26345 1.87709,-5.26345 0.77349,-2.02803 3.2826,-4.16927 7.5556,-6.45198 1.50923,-0.73574 2.50912,-0.73574 3.02792,0 1.72618,2.02804 2.86752,3.16939 3.38632,3.38634 1.73563,1.29228 2.5091,1.40548 2.24499,0.40562 -0.25468,-2.5374 -0.10375,-4.27302 0.36788,-5.30119 0,0 3.80138,-6.04637 3.80138,-6.04637 0.47162,-0.48107 0.87724,-0.36786 1.14135,0.4056 0.21695,1.73564 0.47164,2.87698 0.73575,3.3958 0.25468,0.99041 0.77348,1.2451 1.50923,0.77346 0.51881,-0.51879 1.25456,-1.51866 2.24499,-3.02788 2.02804,-2.5374 3.43351,-3.16939 4.16926,-1.91484 0.25467,0.51879 -0.36788,3.16939 -1.88655,7.92346 -1.2451,4.05605 -1.14136,5.67849 0.3773,4.93331 2.28273,-1.28284 3.01848,-0.66029 2.28273,1.88653 -1.0376,2.24498 -2.54683,4.00889 -4.57486,5.26345 -1.7262,0.99987 -2.86754,2.14124 -3.34862,3.39578 0,0 -1.14135,3.79194 -1.14135,3.79194 -1.25456,3.49954 -4.16926,5.89544 -8.69695,7.15 -1.25456,0.25469 -4.53714,3.01846 -9.80057,8.32907 -3.53727,3.75422 -7.81029,5.89544 -12.82848,6.40481 -2.0186,0.26411 -2.13181,-0.50937 -0.36789,-2.28271 0,0 3.02789,-2.65059 3.02789,-2.65059 -4.05605,1.76391 -7.3009,2.3959 -9.8383,1.91484 -1.50922,-0.25468 -1.25454,-1.39605 0.77349,-3.38635 0,0 3.38634,-3.0279 3.38634,-3.0279 -3.53727,1.50923 -6.15013,1.62243 -7.92348,0.36788 -1.24511,-0.99045 0,-2.13178 3.76365,-3.38634 1.72618,-0.44334 3.42408,-0.88667 5.12196,-1.33001 -3.20712,0.74518 -5.0182,0.30184 -5.48982,-1.32058 -0.26413,-1.25456 1.50923,-2.39591 5.26343,-3.39578 0,0 0,0 0,0"
     id="path44" />
  <path
     inkscape:connector-curvature="0"
     style="fill:#c87137;stroke-width:1.56259203"
     d="m 395.31264,303.35413 c -1.02817,-0.21695 -2.02803,0.15095 -3.01846,1.14137 0,0 -1.50925,1.50923 -1.50925,1.50923 0,0 1.50925,-0.36788 1.50925,-0.36788 1.25454,0 2.14122,0.22638 2.65058,0.74518 0.99987,0.77348 3.39577,0.62257 7.15,-0.3773 -0.48108,0.77348 -2.35819,1.62242 -5.64077,2.66003 -2.28272,0.73574 -4.67862,1.10361 -7.17829,1.10361 0,0 -3.02789,0 -3.02789,0 0,0 3.80138,1.87711 3.80138,1.87711 2.98074,1.02817 5.78224,1.50923 8.29134,1.50923 3.71649,-0.21695 6.03694,-1.10361 6.96134,-2.61286 -2.06577,3.82968 -5.89544,6.45198 -11.49846,7.92348 -3.49954,0.99044 -7.03681,1.25455 -10.57406,0.73575 0,0 -4.1221,-1.10363 -4.1221,-1.10363 0,0 6.77268,5.63132 6.77268,5.63132 2.02804,1.25456 3.90515,1.66016 5.67849,1.14136 -0.77349,0.77349 -3.28259,1.25455 -7.55559,1.51867 -2.76379,0.25469 -5.27289,-0.26412 -7.5556,-1.51867 0,0 -3.01846,-1.87711 -3.01846,-1.87711 0,0 1.50923,7.15 1.50923,7.15 0,2.80151 -0.99043,3.79194 -3.01847,3.01846 0.77348,-0.47164 0.77348,-1.50923 0,-3.01846 -0.26411,-0.99043 -0.99986,-1.9903 -2.24498,-2.98074 0,0 -1.92427,-1.14136 -1.92427,-1.14136 0,0 0.77348,2.65059 0.77348,2.65059 0,0 1.15079,10.94194 1.15079,10.94194 0,0 -7.92347,-7.92348 -7.92347,-7.92348 0,0 -4.57486,10.53634 -4.57486,10.53634 0,0 0,-5.63133 0,-5.63133 0,0 -0.36788,-1.51867 -0.36788,-1.51867 0,-2.01858 -0.62255,-5.04648 -1.87711,-9.05539 -0.99043,-3.28258 -0.73575,-6.41424 0.77348,-9.4327 0.73575,-1.77335 2.5091,-4.28245 5.27289,-7.5556 3.75421,-4.53712 9.16859,-7.40467 16.20538,-8.69695 5.05594,-0.48107 12.19648,0.15095 21.52544,1.91484 -0.73577,1.50924 -1.88655,1.87711 -3.39578,1.10362 0,0 0,0 0,0"
     id="path46" />
  <path
     inkscape:connector-curvature="0"
     style="fill:#d38d5f;stroke-width:1.56259203"
     d="m 358.31757,310.54185 c 6.56517,-6.30104 12.34741,-9.68738 17.35618,-10.20618 4.05606,-0.73574 8.58375,-0.84894 13.60195,-0.36788 0,0 -3.39577,0.36788 -3.39577,0.36788 -1.02816,0 -1.8771,0.40561 -2.65058,1.14137 0,0 -0.73576,1.14135 -0.73576,1.14135 0,0 2.24499,1.10362 2.24499,1.10362 1.50923,0.77349 3.13165,0.66973 4.90501,-0.36788 0,0 -3.0279,1.87711 -3.0279,1.87711 -1.98087,1.29228 -4.78239,2.29215 -8.28193,3.0279 0,0 2.6506,3.42408 2.6506,3.42408 1.02817,1.54696 2.16952,2.35817 3.38634,2.43364 0,0 -0.77349,0.17921 -0.77349,0.17921 0,0 -12.04555,-0.73574 -12.04555,-0.73574 0,0 0.36787,1.50923 0.36787,1.50923 0,0 0.36788,3.76364 0.36788,3.76364 0.51879,2.24499 0,3.75422 -1.47151,4.5277 0,-0.77348 -0.77347,-1.87711 -2.29214,-3.38634 0,0 -4.89558,-2.24499 -4.89558,-2.24499 0,0 -0.77347,7.51787 -0.77347,7.51787 0,3.79195 -0.48107,8.06496 -1.50924,12.81905 0,0 -0.73575,-6.00864 -0.73575,-6.00864 0,0 -2.29215,-8.32908 -2.29215,-8.32908 0,0 -0.73575,4.16926 -0.73575,4.16926 0,1.76392 -1.24512,4.79181 -3.75422,9.06483 0,0 0.73576,-3.0279 0.73576,-3.0279 0.25468,-1.24512 0.11314,-3.27314 -0.36788,-6.03693 -0.77348,-4.27302 -1.14136,-6.52743 -1.14136,-6.78212 -0.26411,-3.28257 1.50924,-6.81984 5.26345,-10.57406 0,0 0,0 0,0"
     id="path48" />
</svg>
