<?xml version="1.0" encoding="UTF-8" standalone="no"?>
<svg
   xmlns:dc="http://purl.org/dc/elements/1.1/"
   xmlns:cc="http://creativecommons.org/ns#"
   xmlns:rdf="http://www.w3.org/1999/02/22-rdf-syntax-ns#"
   xmlns:svg="http://www.w3.org/2000/svg"
   xmlns="http://www.w3.org/2000/svg"
   xmlns:sodipodi="http://sodipodi.sourceforge.net/DTD/sodipodi-0.dtd"
   xmlns:inkscape="http://www.inkscape.org/namespaces/inkscape"
   viewBox="0 0 512 384"
   version="1.1"
   id="svg14"
   sodipodi:docname="monopI05-wi5.svg"
   inkscape:version="0.92.3 (2405546, 2018-03-11)">
  <sodipodi:namedview
     pagecolor="#ffffff"
     bordercolor="#666666"
     borderopacity="1"
     objecttolerance="10"
     gridtolerance="10"
     guidetolerance="10"
     inkscape:pageopacity="0"
     inkscape:pageshadow="2"
     inkscape:window-width="1366"
     inkscape:window-height="705"
     id="namedview16"
     showgrid="true"
     inkscape:zoom="0.56054688"
     inkscape:cx="-48.167245"
     inkscape:cy="192"
     inkscape:window-x="-8"
     inkscape:window-y="-8"
     inkscape:window-maximized="1"
     inkscape:current-layer="svg14">
    <inkscape:grid
       spacingy="192"
       spacingx="265"
       id="grid827"
       type="xygrid" />
  </sodipodi:namedview>
  <metadata
     id="metadata20">
    <rdf:RDF>
      <cc:Work
         rdf:about="">
        <dc:format>image/svg+xml</dc:format>
        <dc:type
           rdf:resource="http://purl.org/dc/dcmitype/StillImage" />
        <dc:title />
      </cc:Work>
    </rdf:RDF>
  </metadata>
  <defs
     id="defs18" />
  <rect
     id="rect2"
     fill="none"
     height="384"
     width="512" />
  <!-- cherry -->
  <path
     inkscape:connector-curvature="0"
     style="fill:#5f6e06;stroke-width:1.23985684"
     d="m 297.58407,81.285217 c 0,0 -1.83137,4.038173 -1.83137,4.038173 0,0 4.76156,-4.752411 4.76156,-4.752411 3.14997,-2.435721 5.25604,-1.465099 6.22667,2.930191 0.96148,4.14807 -1.4651,8.04889 -7.33464,11.69333 -6.58379,4.19384 -10.12749,6.97753 -10.62197,8.44262 -1.46509,4.14806 -2.93935,7.44453 -4.40445,9.87111 0,0 2.93936,-4.00155 2.93936,-4.00155 2.42657,-2.68297 4.3953,-3.43383 5.86038,-2.21596 1.72149,0.99809 1.72149,2.68295 0,5.14615 -2.93019,3.39719 -5.25604,6.22667 -6.97753,8.406 -9.51398,10.97907 -14.98061,17.9566 -16.44572,20.89596 0,0 -1.47425,4.39529 -1.47425,4.39529 0,0 4.0107,-2.57308 4.0107,-2.57308 2.68296,-1.21786 4.03818,-0.50363 4.03818,2.21596 0,1.93211 -3.68107,5.36593 -10.97907,10.22821 -8.29613,5.36593 -13.30493,10.26485 -15.01726,14.66931 -2.22513,5.10952 -4.65169,7.54525 -7.33466,7.32548 0,0 -3.29646,-1.85884 -3.29646,-1.85884 4.61506,-3.89167 9.15686,-10.00845 13.56131,-18.31373 4.39529,-8.54335 5.72304,-14.01915 4.00155,-16.45487 -1.46511,-2.71044 -1.46511,-5.50328 0,-8.43348 1.72149,-2.93936 3.93745,-4.25795 6.62041,-4.04733 0,0 5.11869,0.75086 5.11869,0.75086 -1.96873,-9.51398 -4.90808,-15.63077 -8.79975,-18.31372 -2.68297,-1.71234 -2.93935,-4.50518 -0.71424,-8.44263 2.17935,-3.64443 4.24879,-4.97217 6.21753,-4.00155 0,0 3.65358,1.4651 3.65358,1.4651 0,-2.68297 -0.35712,-5.25604 -1.08051,-7.69177 -1.71233,-5.36592 -4.78904,-8.08551 -9.15687,-8.08551 -4.89892,0.25639 -6.00689,-1.675705 -3.32395,-5.823765 2.71959,-4.184693 5.75968,-5.51243 9.15688,-4.04733 0,0 6.2633,3.653591 6.2633,3.653591 -1.7215,-4.404462 -3.07671,-8.763127 -4.04735,-13.16758 -1.71232,-8.54335 -0.24722,-12.947803 4.40446,-13.195034 7.33464,0 11.22631,1.574984 11.69331,4.752413 0,0 5.51243,-12.444188 5.51243,-12.444188 4.14807,-7.334644 8.18624,-8.653226 12.08706,-4.047322 3.90082,4.651684 5.75967,8.699022 5.51243,12.09622 0,1.465083 -0.50363,2.573068 -1.47425,3.287305 10.73184,-3.900829 14.98979,-2.682969 12.81045,3.690224 -1.21786,3.433815 -4.76157,7.682596 -10.62196,12.801286 -5.86955,5.146161 -9.01952,8.186245 -9.51398,9.156867 0,0 0,0 0,0"
     id="path100" />
  <path
     inkscape:connector-curvature="0"
     style="fill:#8fa309;stroke-width:1.23985684"
     d="m 402.70485,66.652546 c 9.77037,-5.860399 16.84862,-6.611253 21.24392,-2.215962 3.14997,3.186592 4.36783,7.691766 3.65358,13.561319 -0.50361,5.860377 -11.83981,11.729947 -34.05436,17.590337 0,0 8.406,2.54561 8.406,2.54561 4.14806,1.46509 5.61316,4.65168 4.40445,9.55061 -1.47425,4.86229 -4.15721,7.07825 -8.04888,6.58379 -3.18659,-0.25641 -6.97753,0.24723 -11.38198,1.46509 0,0 -5.46665,1.82221 -5.46665,1.82221 0,0 3.64442,6.22668 3.64442,6.22668 1.7215,2.93019 0.2564,4.99963 -4.39529,6.21749 -4.61506,1.21788 -7.58187,0.50363 -8.76311,-2.17932 -1.25448,-1.96873 -4.54181,-3.43383 -9.90773,-4.39531 0,0 -8.04888,-1.11713 -8.04888,-1.11713 2.42657,2.22512 0.96147,4.76157 -4.40446,7.69176 -3.43381,1.72149 -8.44261,3.07672 -15.01724,4.04734 0,0 -8.40601,1.10799 -8.40601,1.10799 -1.00725,2.42656 -2.71959,5.2194 -5.15531,8.40599 -1.71233,1.96873 -5.0088,2.21596 -9.87109,0.75086 0,0 -6.97753,-2.93934 -6.97753,-2.93934 0,0 -6.93175,6.58377 -6.93175,6.58377 -1.96873,1.96873 -4.79819,2.32586 -8.44263,1.10799 -4.40445,-1.4651 -9.51398,-0.13735 -15.38353,4.0107 -7.58188,5.36593 -14.66929,13.19504 -21.24392,23.45988 -6.11678,9.51398 -10.62196,19.17448 -13.56132,28.9357 0.50363,28.79832 -0.24724,31.3714 -2.17933,7.69176 -1.25449,-15.63077 6.58378,-34.94259 23.43242,-57.87138 14.4129,-20.0352 24.284,-30.54729 29.68655,-31.50875 4.35867,-0.7234 6.58377,-0.25641 6.58377,1.46509 1.20872,-3.43383 2.5731,-6.94091 4.00155,-10.62196 3.43383,-7.55441 6.47391,-12.19694 9.15687,-13.91843 4.39529,-2.43573 7.472,2.17933 9.15687,13.91843 0,0 4.39529,-9.51398 4.39529,-9.51398 3.93745,-7.08741 8.55251,-12.84708 13.91843,-17.20576 5.40255,-4.18468 9.4041,-4.798189 12.08706,-1.86799 1.25448,1.72149 1.96873,3.69022 2.22512,5.86955 0,0 10.26484,-10.621963 10.26484,-10.621963 7.79249,-7.07826 13.76277,-10.731842 17.91998,-10.979089 6.83102,-0.256385 6.11678,5.109544 -2.18849,16.125252 0,0 4.76157,-5.146163 4.76157,-5.146163 4.89892,-4.615059 11.83982,-9.513981 20.8868,-14.632671 0,0 0,0 0,0"
     id="path102" />
  <path
     inkscape:connector-curvature="0"
     style="fill:#aa00d4;stroke-width:1.23985684"
     d="m 193.16836,127.06953 c 34.69535,-7.58188 67.64175,2.93019 98.90328,31.50877 32.01238,29.30196 43.81558,61.88207 35.51947,97.79529 -8.29612,35.66598 -26.71973,60.91145 -55.2983,75.82799 -19.53159,10.52122 -41.24251,15.02641 -65.16939,13.5613 -19.0646,-1.21786 -33.94449,-5.0088 -44.71297,-11.37282 -13.41479,-8.04888 -26.50911,-22.71817 -39.16389,-43.96209 -20.28246,-34.16426 -24.18328,-67.248 -11.7391,-99.2604 12.70057,-33.44086 39.92392,-54.79466 81.6609,-64.09804 0,0 0,0 0,0"
     id="path104" />
  <path
     inkscape:connector-curvature="0"
     style="fill:#d3bc5f;stroke-width:1.23985684"
     d="m 184.40524,223.39057 c 10.01761,1.47427 16.84863,5.36592 20.50221,11.7391 7.07826,11.97717 10.97908,18.31372 11.72995,19.06459 3.64443,3.64443 9.4041,4.39529 17.20575,2.17933 8.79974,-2.43573 17.70021,-0.35712 26.75635,6.22667 9.01036,6.61125 12.44418,13.69866 10.22822,21.24392 -4.14806,13.91844 -6.22667,21.14319 -6.22667,21.60103 0.24724,3.69023 4.76157,5.36593 13.56132,5.15532 5.35676,-0.24723 8.29611,1.31858 8.79974,4.75242 0.49447,3.14995 -1.36437,7.08741 -5.51243,11.70246 -21.24393,14.2023 -46.03156,20.38317 -74.32626,18.70747 -19.0646,-1.21786 -33.94449,-5.0088 -44.71297,-11.37282 -13.41479,-8.04888 -26.50911,-22.71817 -39.16389,-43.96209 -11.7391,-20.24583 -17.85589,-40.8854 -18.31373,-61.88209 3.64443,-6.11678 7.79249,-9.15685 12.44417,-9.15685 4.3953,0.24722 7.54526,3.43382 9.51398,9.51398 2.68296,9.04698 7.18814,13.45143 13.56132,13.19503 6.08016,-0.24723 12.44417,-4.03818 19.02796,-11.37282 6.36403,-6.57463 14.66014,-9.04698 24.92498,-7.33465 0,0 0,0 0,0"
     id="path106" />
  <path
     inkscape:connector-curvature="0"
     style="fill:#8f824d;stroke-width:1.23985684"
     d="m 162.76751,298.51347 c 0,0 11.01577,3.64444 11.01577,3.64444 0,0 -4.3953,-1.10798 -4.3953,-1.10798 -2.68293,-0.71424 -6.37311,-0.60435 -11.01576,0.35712 -5.11862,1.25449 -8.40598,3.0767 -9.88017,5.51243 -2.93015,4.64253 0.86071,10.97908 11.34531,19.06458 6.11684,4.8623 13.79936,9.15687 23.10275,12.80131 0,0 -3.68101,-0.35712 -3.68101,-0.35712 -3.18655,-0.24725 -8.29613,-2.43574 -15.3834,-6.58379 -9.01054,-5.14616 -15.02657,-10.51208 -17.95672,-16.12523 -3.14998,-6.1168 -2.42653,-10.98824 2.21587,-14.6693 4.14807,-3.3972 9.01959,-4.25795 14.63266,-2.53646 0,0 0,0 0,0"
     id="path108" />
  <path
     inkscape:connector-curvature="0"
     style="fill:#8f824d;stroke-width:1.23985684"
     d="m 180.72424,305.80234 c 0,0 6.62034,1.868 6.62034,1.868 5.10945,1.46508 9.15696,3.2873 12.05041,5.46664 7.07835,5.62231 9.4042,11.12559 6.97755,16.49151 -1.96877,4.14806 -6.97755,6.11679 -15.02644,5.86957 9.0471,-0.25642 12.59062,-3.6536 10.62209,-10.26487 -1.71236,-5.86953 -5.72317,-10.84172 -12.08711,-15.0264 0,0 -9.15684,-4.40445 -9.15684,-4.40445"
     id="path110" />
  <path
     inkscape:connector-curvature="0"
     style="fill:#8f824d;stroke-width:1.23985684"
     d="m 170.85312,311.31476 c 8.76306,1.21788 14.41284,3.90084 16.84854,8.0489 4.14818,7.33464 1.82234,11.4827 -6.97742,12.4808 -5.36598,0.46699 -10.6221,-1.24535 -15.74072,-5.14616 -4.6517,-3.3972 -7.18821,-6.47391 -7.69183,-9.15686 -0.49446,-2.43574 0.25653,-4.25795 2.18859,-5.47581 2.42653,-1.25449 6.21739,-1.50173 11.37284,-0.75087 0,0 0,0 0,0"
     id="path112" />
  <path
     inkscape:connector-curvature="0"
     style="fill:#d3bc5f;stroke-width:1.23985684"
     d="m 169.74518,314.24497 c 5.86031,0.71422 10.00838,2.58223 12.44407,5.47581 1.96865,2.47235 2.216,4.29457 0.75086,5.51241 -2.21587,2.21596 -5.40255,2.93021 -9.55062,2.21596 -3.90083,-0.75085 -6.83099,-2.47234 -8.76306,-5.1553 -1.96877,-2.68296 -2.21599,-4.75241 -0.75073,-6.21751 1.21767,-1.47426 3.18643,-2.07862 5.86948,-1.83137 0,0 0,0 0,0"
     id="path114" />
</svg>
