<?xml version="1.0" encoding="UTF-8" standalone="no"?>
<svg
   xmlns:dc="http://purl.org/dc/elements/1.1/"
   xmlns:cc="http://creativecommons.org/ns#"
   xmlns:rdf="http://www.w3.org/1999/02/22-rdf-syntax-ns#"
   xmlns:svg="http://www.w3.org/2000/svg"
   xmlns="http://www.w3.org/2000/svg"
   xmlns:sodipodi="http://sodipodi.sourceforge.net/DTD/sodipodi-0.dtd"
   xmlns:inkscape="http://www.inkscape.org/namespaces/inkscape"
   viewBox="0 0 512 384"
   version="1.1"
   id="svg14"
   sodipodi:docname="monopI05-wi8.svg"
   inkscape:version="0.92.3 (2405546, 2018-03-11)">
  <sodipodi:namedview
     pagecolor="#ffffff"
     bordercolor="#666666"
     borderopacity="1"
     objecttolerance="10"
     gridtolerance="10"
     guidetolerance="10"
     inkscape:pageopacity="0"
     inkscape:pageshadow="2"
     inkscape:window-width="1366"
     inkscape:window-height="705"
     id="namedview16"
     showgrid="true"
     inkscape:zoom="0.56054688"
     inkscape:cx="-48.167245"
     inkscape:cy="192"
     inkscape:window-x="-8"
     inkscape:window-y="-8"
     inkscape:window-maximized="1"
     inkscape:current-layer="svg14">
    <inkscape:grid
       spacingy="192"
       spacingx="256"
       id="grid827"
       type="xygrid" />
  </sodipodi:namedview>
  <metadata
     id="metadata20">
    <rdf:RDF>
      <cc:Work
         rdf:about="">
        <dc:format>image/svg+xml</dc:format>
        <dc:type
           rdf:resource="http://purl.org/dc/dcmitype/StillImage" />
        <dc:title />
      </cc:Work>
    </rdf:RDF>
  </metadata>
  <defs
     id="defs18" />
  <rect
     transform="matrix(1.000000,0.000000,0.000000,1.000000,0.000000,0.000000)"
     id="rect2"
     fill="none"
     height="384"
     width="512" />
  <!-- blueberry -->
  <path
     inkscape:connector-curvature="0"
     style="fill:#ff0000;stroke-width:1.69741738"
     d="m 392.23284,211.8554 c 0,67.55753 -59.46931,122.32374 -132.82842,122.32374 -73.3591,0 -132.82838,-54.76621 -132.82838,-122.32374 0,-67.55754 59.46928,-122.323743 132.82838,-122.323743 73.35911,0 132.82842,54.766203 132.82842,122.323743 0,0 0,0 0,0"
     id="path158" />
  <path
     inkscape:connector-curvature="0"
     style="fill:#5f6e06;stroke-width:1.69741738"
     d="m 286,162.65034 c 0,0 -36.70171,-25.43122 -36.70171,-25.43122 0,0 -18.19352,35.97267 -18.19352,35.97267 0,0 -3.4224,-38.69687 -3.4224,-38.69687 0,0 -44.73306,15.16819 -44.73306,15.16819 0,0 31.86168,-29.29442 31.86168,-29.29442 0,0 -45.0686,-14.52161 -45.0686,-14.52161 0,0 48.48165,-2.73167 48.48165,-2.73167 0,0 -19.00357,-35.704853 -19.00357,-35.704853 0,0 36.70173,25.431234 36.70173,25.431234 0,0 18.19349,-35.972655 18.19349,-35.972655 0,0 3.42241,38.696857 3.42241,38.696857 0,0 44.73307,-15.168173 44.73307,-15.168173 0,0 -31.86169,29.29439 -31.86169,29.29439 0,0 45.0686,14.52161 45.0686,14.52161 0,0 -48.48164,2.7317 -48.48164,2.7317 0,0 19.00356,35.70482 19.00356,35.70482"
     id="path160" />
  <path
     inkscape:connector-curvature="0"
     style="fill:#d40000;stroke-width:1.69741738"
     d="m 163.81899,163.89555 c -19.94927,19.81689 -26.75992,44.69816 -18.87871,75.64391 4.12225,16.18601 10.20121,31.67592 24.40517,46.09057 13.65372,13.85627 31.94882,20.87124 41.38111,25.88092 6.75004,3.58506 36.33365,6.55559 47.73478,3.7465 16.76082,-4.12966 29.09719,-8.27659 39.01295,-15.5039 -37.57385,20.11217 -163.88072,-25.22566 -133.6553,-135.858 0,0 0,0 0,0"
     id="path162" />
</svg>
