<svg xmlns="http://www.w3.org/2000/svg" viewBox="0 0 1024 768">

<rect width="1024" height="768" fill="none"/>
<path d="m307.8 699.6c-0.2-0.6-1.3-8.7-1.5-11.5-0.6-6.8 0.1-15 2-24.7 1.8-9.3 5.8-21.8 11.4-35.5 0.7-1.6 1.4-3.8 1.6-4.9 1-5.5 1.6-17.1 1.4-27.9-0.3-13.3-1.8-34.2-2.9-39.1-0.4-2-1.5-1.2-3.1 2.4-3.3 7.2-4.6 13.2-5.4 26-0.7 11-1.7 16.1-3 16.5-0.3 0.1-4.6-6.5-16.3-24.8l-9.6-15.2 0.4-2.1c1.4-6.7 1.6-10 2.2-39 0.4-18.8 0.8-27.9 1.5-31 1.1-5.2 3.9-11.7 6.4-15.1 3.9-5.1 10.3-9.7 16.5-11.8 2.4-0.8 4.6-1.2 13.5-2.7 8.5-1.4 11.6-2.2 17.4-4.7 6.1-2.6 9.4-4.6 11-6.4 1.2-1.4 3.1-5.2 3.7-7.6 0.9-3.6 0.9-10.8-0.1-14.2-0.2-0.6-0.8-1.8-1.4-2.7-0.6-0.9-1.5-2.2-2-2.9-1.1-1.7-2.7-5.1-3.3-6.9-0.2-0.7-0.4-1.5-0.5-1.6-0.1-0.2 6.8-0.3 33.9-0.3h34v0.5c0 1.7-2.7 7.3-4.6 9.8-2.8 3.7-3.1 4.5-3.1 11.6 0 4.5 0 5 0.6 7 1.5 5.5 4 8.6 8.9 11.2 5.9 3.1 12.7 5 25.9 7.2 9.8 1.6 13.1 2.6 17.3 5 4.1 2.4 9 6.8 11.1 10.1 3.1 4.6 5.6 11.9 6.1 17.3 0.4 4.2 0.8 15.4 1.3 39.4 0.2 8.5 0.5 17.3 0.8 20.1 0.2 2.1 1.2 7.8 1.5 8.9 0.1 0.2-0.8 1.8-2 3.7-14.8 23.4-21.2 33.3-22.9 35.7-0.9 1.2-0.9 1.2-1.3 0.8-1.1-1-2-6.2-2.6-16-0.7-11.2-1.6-16.2-3.8-22.3-1-2.7-2.4-5.6-3.1-6.6-0.6-0.8-1.4-1-1.6-0.4-0.6 2.1-1.7 12.8-2.5 25.8-0.8 12.1-1 33.7-0.3 39.5 0.3 2.3 1.1 4.8 3.9 11.8 6 14.9 10.6 32.1 11.4 42.8 0.3 3.7 0.3 11.5 0 15.2-0.3 3.6-1.1 8.9-1.5 9.4-0.3 0.4-3.9 0.4-73.7 0.5-61.3 0.1-73.4 0-73.5-0.2z" style="fill:#808080;"/>
<path d="m67.5 699.6c-0.2-0.6-1.3-8.7-1.5-11.5-0.6-6.8 0.1-15 2-24.7 1.8-9.3 5.8-21.8 11.4-35.5 0.7-1.6 1.4-3.8 1.6-4.9 1-5.5 1.6-17.1 1.4-27.9-0.3-13.3-1.8-34.2-2.9-39.1-0.4-2-1.5-1.2-3.1 2.4-3.3 7.2-4.6 13.2-5.4 26-0.7 11-1.7 16.1-3 16.5-0.3 0.1-4.6-6.5-16.3-24.8L42 560.9l0.4-2.1c1.4-6.7 1.6-10 2.2-39 0.4-18.8 0.8-27.9 1.5-31 1.1-5.2 3.9-11.7 6.4-15.1 3.9-5.1 10.3-9.7 16.5-11.8 2.4-0.8 4.6-1.2 13.5-2.7 8.5-1.4 11.6-2.2 17.4-4.7 6.1-2.6 9.4-4.6 11-6.4 1.2-1.4 3.1-5.2 3.7-7.6 0.9-3.6 0.9-10.8-0.1-14.2-0.2-0.6-0.8-1.8-1.4-2.7-0.6-0.9-1.5-2.2-2-2.9-1.1-1.7-2.7-5.1-3.3-6.9-0.2-0.7-0.4-1.5-0.5-1.6-0.1-0.2 6.8-0.3 33.9-0.3h34v0.5c0 1.7-2.7 7.3-4.6 9.8-2.8 3.7-3.1 4.5-3.1 11.6 0 4.5 0 5 0.6 7 1.5 5.5 4 8.6 8.9 11.2 5.9 3.1 12.7 5 25.9 7.2 9.8 1.6 13.1 2.6 17.3 5 4.1 2.4 9 6.8 11.1 10.1 3.1 4.6 5.6 11.9 6.1 17.3 0.4 4.2 0.8 15.4 1.3 39.4 0.2 8.5 0.5 17.3 0.8 20.1 0.2 2.1 1.2 7.8 1.5 8.9 0.1 0.2-0.8 1.8-2 3.7-14.8 23.4-21.2 33.3-22.9 35.7-0.9 1.2-0.9 1.2-1.3 0.8-1.1-1-2-6.2-2.6-16-0.7-11.2-1.6-16.2-3.8-22.3-1-2.7-2.4-5.6-3.1-6.6-0.6-0.8-1.4-1-1.6-0.4-0.6 2.1-1.7 12.8-2.5 25.8-0.8 12.1-1 33.7-0.3 39.5 0.3 2.3 1.1 4.8 3.9 11.8 6 14.9 10.6 32.1 11.4 42.8 0.3 3.7 0.3 11.5 0 15.2-0.3 3.6-1.1 8.9-1.5 9.4-0.3 0.4-3.9 0.4-73.7 0.5-61.3 0.1-73.4 0-73.5-0.2z" style="fill:#808080;"/>
<path d="m67.5 357.7c-0.2-0.6-1.3-8.7-1.5-11.5-0.6-6.8 0.1-15 2-24.7 1.8-9.3 5.8-21.8 11.4-35.5 0.7-1.6 1.4-3.8 1.6-4.9 1-5.5 1.6-17.1 1.4-27.9-0.3-13.3-1.8-34.2-2.9-39.1-0.4-2-1.5-1.2-3.1 2.4-3.3 7.2-4.6 13.2-5.4 26-0.7 11-1.7 16.1-3 16.5-0.3 0.1-4.6-6.5-16.3-24.8L42 219.1l0.4-2.1c1.4-6.7 1.6-10 2.2-39 0.4-18.8 0.8-27.9 1.5-31 1.1-5.2 3.9-11.7 6.4-15.1 3.9-5.1 10.3-9.7 16.5-11.8 2.4-0.8 4.6-1.2 13.5-2.7 8.5-1.4 11.6-2.2 17.4-4.7 6.1-2.6 9.4-4.6 11-6.4 1.2-1.4 3.1-5.2 3.7-7.6 0.9-3.6 0.9-10.8-0.1-14.2-0.2-0.6-0.8-1.8-1.4-2.7-0.6-0.9-1.5-2.2-2-2.9-1.1-1.7-2.7-5.1-3.3-6.9-0.2-0.7-0.4-1.5-0.5-1.6-0.1-0.2 6.8-0.3 33.9-0.3h34v0.5c0 1.7-2.7 7.3-4.6 9.8-2.8 3.7-3.1 4.5-3.1 11.6 0 4.5 0 5 0.6 7 1.5 5.5 4 8.6 8.9 11.2 5.9 3.1 12.7 5 25.9 7.2 9.8 1.6 13.1 2.6 17.3 5 4.1 2.4 9 6.8 11.1 10.1 3.1 4.6 5.6 11.9 6.1 17.3 0.4 4.2 0.8 15.4 1.3 39.4 0.2 8.5 0.5 17.3 0.8 20.1 0.2 2.1 1.2 7.8 1.5 8.9 0.1 0.2-0.8 1.8-2 3.7-14.8 23.4-21.2 33.3-22.9 35.7-0.9 1.2-0.9 1.2-1.3 0.8-1.1-1-2-6.2-2.6-16-0.7-11.2-1.6-16.2-3.8-22.3-1-2.7-2.4-5.6-3.1-6.6-0.6-0.8-1.4-1-1.6-0.4-0.6 2.1-1.7 12.8-2.5 25.8-0.8 12.1-1 33.7-0.3 39.5 0.3 2.3 1.1 4.8 3.9 11.8 6 14.9 10.6 32.1 11.4 42.8 0.3 3.7 0.3 11.5 0 15.2-0.3 3.6-1.1 8.9-1.5 9.4-0.3 0.4-3.9 0.4-73.7 0.5-61.3 0.1-73.4 0-73.5-0.2z" style="fill:#808080;"/>
<path d="m307.8 357.7c-0.2-0.6-1.3-8.7-1.5-11.5-0.6-6.8 0.1-15 2-24.7 1.8-9.3 5.8-21.8 11.4-35.5 0.7-1.6 1.4-3.8 1.6-4.9 1-5.5 1.6-17.1 1.4-27.9-0.3-13.3-1.8-34.2-2.9-39.1-0.4-2-1.5-1.2-3.1 2.4-3.3 7.2-4.6 13.2-5.4 26-0.7 11-1.7 16.1-3 16.5-0.3 0.1-4.6-6.5-16.3-24.8l-9.6-15.2 0.4-2.1c1.4-6.7 1.6-10 2.2-39 0.4-18.8 0.8-27.9 1.5-31 1.1-5.2 3.9-11.7 6.4-15.1 3.9-5.1 10.3-9.7 16.5-11.8 2.4-0.8 4.6-1.2 13.5-2.7 8.5-1.4 11.6-2.2 17.4-4.7 6.1-2.6 9.4-4.6 11-6.4 1.2-1.4 3.1-5.2 3.7-7.6 0.9-3.6 0.9-10.8-0.1-14.2-0.2-0.6-0.8-1.8-1.4-2.7-0.6-0.9-1.5-2.2-2-2.9-1.1-1.7-2.7-5.1-3.3-6.9-0.2-0.7-0.4-1.5-0.5-1.6-0.1-0.2 6.8-0.3 33.9-0.3h34v0.5c0 1.7-2.7 7.3-4.6 9.8-2.8 3.7-3.1 4.5-3.1 11.6 0 4.5 0 5 0.6 7 1.5 5.5 4 8.6 8.9 11.2 5.9 3.1 12.7 5 25.9 7.2 9.8 1.6 13.1 2.6 17.3 5 4.1 2.4 9 6.8 11.1 10.1 3.1 4.6 5.6 11.9 6.1 17.3 0.4 4.2 0.8 15.4 1.3 39.4 0.2 8.5 0.5 17.3 0.8 20.1 0.2 2.1 1.2 7.8 1.5 8.9 0.1 0.2-0.8 1.8-2 3.7-14.8 23.4-21.2 33.3-22.9 35.7-0.9 1.2-0.9 1.2-1.3 0.8-1.1-1-2-6.2-2.6-16-0.7-11.2-1.6-16.2-3.8-22.3-1-2.7-2.4-5.6-3.1-6.6-0.6-0.8-1.4-1-1.6-0.4-0.6 2.1-1.7 12.8-2.5 25.8-0.8 12.1-1 33.7-0.3 39.5 0.3 2.3 1.1 4.8 3.9 11.8 6 14.9 10.6 32.1 11.4 42.8 0.3 3.7 0.3 11.5 0 15.2-0.3 3.6-1.1 8.9-1.5 9.4-0.3 0.4-3.9 0.4-73.7 0.5-61.3 0.1-73.4 0-73.5-0.2z" style="fill:#808080;"/>
<path d="m558.4 357.7c-0.2-0.6-1.3-8.7-1.5-11.5-0.6-6.8 0.1-15 2-24.7 1.8-9.3 5.8-21.8 11.4-35.5 0.7-1.6 1.4-3.8 1.6-4.9 1-5.5 1.6-17.1 1.4-27.9-0.3-13.3-1.8-34.2-2.9-39.1-0.4-2-1.5-1.2-3.1 2.4-3.3 7.2-4.6 13.2-5.4 26-0.7 11-1.7 16.1-3 16.5-0.3 0.1-4.6-6.5-16.3-24.8l-9.6-15.2 0.4-2.1c1.4-6.7 1.6-10 2.2-39 0.4-18.8 0.8-27.9 1.5-31 1.1-5.2 3.9-11.7 6.4-15.1 3.9-5.1 10.3-9.7 16.5-11.8 2.4-0.8 4.6-1.2 13.5-2.7 8.5-1.4 11.6-2.2 17.4-4.7 6.1-2.6 9.4-4.6 11-6.4 1.2-1.4 3.1-5.2 3.7-7.6 0.9-3.6 0.9-10.8-0.1-14.2-0.2-0.6-0.8-1.8-1.4-2.7-0.6-0.9-1.5-2.2-2-2.9-1.1-1.7-2.7-5.1-3.3-6.9-0.2-0.7-0.4-1.5-0.5-1.6-0.1-0.2 6.8-0.3 33.9-0.3h34v0.5c0 1.7-2.7 7.3-4.6 9.8-2.8 3.7-3.1 4.5-3.1 11.6 0 4.5 0 5 0.6 7 1.5 5.5 4 8.6 8.9 11.2 5.9 3.1 12.7 5 25.9 7.2 9.8 1.6 13.1 2.6 17.3 5 4.1 2.4 9 6.8 11.1 10.1 3.1 4.6 5.6 11.9 6.1 17.3 0.4 4.2 0.8 15.4 1.3 39.4 0.2 8.5 0.5 17.3 0.8 20.1 0.2 2.1 1.2 7.8 1.5 8.9 0.1 0.2-0.8 1.8-2 3.7-14.8 23.4-21.2 33.3-22.9 35.7-0.9 1.2-0.9 1.2-1.3 0.8-1.1-1-2-6.2-2.6-16-0.7-11.2-1.6-16.2-3.8-22.3-1-2.7-2.4-5.6-3.1-6.6-0.6-0.8-1.4-1-1.6-0.4-0.6 2.1-1.7 12.8-2.5 25.8-0.8 12.1-1 33.7-0.3 39.5 0.3 2.3 1.1 4.8 3.9 11.8 6 14.9 10.6 32.1 11.4 42.8 0.3 3.7 0.3 11.5 0 15.2-0.3 3.6-1.1 8.9-1.5 9.4-0.3 0.4-3.9 0.4-73.7 0.5-61.3 0.1-73.4 0-73.5-0.2z" style="fill:#808080;"/>
<path d="m806.9 355.7c-0.2-0.6-1.3-8.7-1.5-11.5-0.6-6.8 0.1-15 2-24.7 1.8-9.3 5.8-21.8 11.4-35.5 0.7-1.6 1.4-3.8 1.6-4.9 1-5.5 1.6-17.1 1.4-27.9-0.3-13.3-1.8-34.2-2.9-39.1-0.4-2-1.5-1.2-3.1 2.4-3.3 7.2-4.6 13.2-5.4 26-0.7 11-1.7 16.1-3 16.5-0.3 0.1-4.6-6.5-16.3-24.8l-9.6-15.2 0.4-2.1c1.4-6.7 1.6-10 2.2-39 0.4-18.8 0.8-27.9 1.5-31 1.1-5.2 3.9-11.7 6.4-15.1 3.9-5.1 10.3-9.7 16.5-11.8 2.4-0.8 4.6-1.2 13.5-2.7 8.5-1.4 11.6-2.2 17.4-4.7 6.1-2.6 9.4-4.6 11-6.4 1.2-1.4 3.1-5.2 3.7-7.6 0.9-3.6 0.9-10.8-0.1-14.2-0.2-0.6-0.8-1.8-1.4-2.7-0.6-0.9-1.5-2.2-2-2.9-1.1-1.7-2.7-5.1-3.3-6.9-0.2-0.7-0.4-1.5-0.5-1.6-0.1-0.2 6.8-0.3 33.9-0.3h34v0.5c0 1.7-2.7 7.3-4.6 9.8-2.8 3.7-3.1 4.5-3.1 11.6 0 4.5 0 5 0.6 7 1.5 5.5 4 8.6 8.9 11.2 5.9 3.1 12.7 5 25.9 7.2 9.8 1.6 13.1 2.6 17.3 5 4.1 2.4 9 6.8 11.1 10.1 3.1 4.6 5.6 11.9 6.1 17.3 0.4 4.2 0.8 15.4 1.3 39.4 0.2 8.5 0.5 17.3 0.8 20.1 0.2 2.1 1.2 7.8 1.5 8.9 0.1 0.2-0.8 1.8-2 3.7-14.8 23.4-21.2 33.3-22.9 35.7-0.9 1.2-0.9 1.2-1.3 0.8-1.1-1-2-6.2-2.6-16-0.7-11.2-1.6-16.2-3.8-22.3-1-2.7-2.4-5.6-3.1-6.6-0.6-0.8-1.4-1-1.6-0.4-0.6 2.1-1.7 12.8-2.5 25.8-0.8 12.1-1 33.7-0.3 39.5 0.3 2.3 1.1 4.8 3.9 11.8 6 14.9 10.6 32.1 11.4 42.8 0.3 3.7 0.3 11.5 0 15.2-0.3 3.6-1.1 8.9-1.5 9.4-0.3 0.4-3.9 0.4-73.7 0.5-61.3 0.1-73.4 0-73.5-0.2z" style="fill:#808080;"/>
<path d="m805 679.3c0-1.1 2.7-7.6 5.6-13.3 6.6-13.1 11.6-27.4 14.3-40.5 1.4-6.7 0.9-20-1-27.2-0.7-2.8-1.3-5.2-1.2-5.3 0.2-0.2 9 5.4 19.6 12.4 17.2 11.5 36.5 22.4 63.8 36.1l12.6 6.3-1.8 2.2c-6 7.4-8.5 13.5-10.3 25.4l-0.7 4.5h-50.5c-32.5 0-50.5-0.2-50.5-0.5zM941.5 645.8c-3.1-0.4-8.5-0.8-11.9-0.8l-6.2-0.1-8.8-3.8c-18.8-8.3-40.1-19.6-64.2-34.4-17.2-10.5-30.6-21.3-34-27.3-1-1.7-3.7-6.2-6.1-9.8-8.1-12.7-11.2-20.9-12.4-33.7-0.7-6.8-0.4-19.3 0.6-26.4 3.2-22.9 21.3-48.5 41.1-58 5.1-2.5 14.4-5 21.7-5.9 21.6-2.6 56.3 3.1 74.7 12.4 13.5 6.8 25.2 17.6 30.5 28.3 3.8 7.6 8.2 23.6 9.2 33.8 0.5 5.3 0.4 7.7-1.4 17.5-0.9 4.9-0.9 6.3-0.4 8.9 0.8 4 5.2 11.4 12.4 21.4 5.7 7.8 6.7 10 6 12.9-0.5 2.1-4 5.2-7.1 6.4-1.5 0.5-3.1 1.4-3.6 1.8-1.2 1-1.2 3.8-0.1 6.4 1.3 3.1 1 5.7-0.8 8.2-0.9 1.2-2.1 2.6-2.7 3l-1.2 0.8 1.1 1.8c2 3.3 1 8-2.1 10.3-2.9 2-3.4 3.5-3.5 9.7-0.1 6.2-1 9.2-3.9 12.9-2.6 3.5-5 4.2-13.5 4.3-4.2 0.1-10.2-0.2-13.3-0.6z" style="fill:#808080;"/>
<circle transform="rotate(-13.244032)" r="113.5" cy="704.1" cx="491.3" style="fill:none;stroke-width:10;stroke:#808080"/>
<path d="m838.8 291.1c0-2.9-0.6-8.5-1.3-12.5-3.3-17.9 4.9-31.5 20-32.9 7-0.6 15.6 0.4 17 2 0.6 0.7 2.8 2.7 4.8 4.5l3.7 3.2-1.4 3.2c-0.8 1.7-1.3 3.9-1.2 4.8 0.1 0.9 0.2 2.7 0.3 3.9 0.1 1.2 1.6 4.2 3.5 6.6 1.8 2.4 3.3 4.5 3.3 4.6 0 0.1-0.7 0.5-1.6 0.8-1.1 0.4-2.3-0.2-3.7-1.8l-2.1-2.3-1.5 1.9c-3.7 4.5-9.4 7.8-15.4 8.8-1.7 0.3-7 2.8-11.7 5.5-4.7 2.8-9.4 5-10.6 5-1.9 0-2-0.4-2-5.2zm44.2-22.1c-1.1-2.3-0.7-10.2 0.5-11.3 1.8-1.6 1.3-4.1-1.2-5.8-3.5-2.4-3.1-4.4 0.7-3.7 1.7 0.3 8.2 0.8 14.4 1 11.3 0.5 16.5 1.7 16.5 3.9 0 1.8-3 3.6-8.6 5-3.7 0.9-7.3 2.8-11.7 6-8.5 6.1-9.8 6.7-10.7 4.8z"/>
<path d="m884.1 536c2.4-2.6 3.6-3.4 5.9-3.9 1.5-0.3 1.6-0.4 3.1-4l1.5-3.7 3 0 3 0 0.6-1.6c0.9-2.3 2.3-3 6.4-2.9l3.3 0.1 1.6-1.7c1.7-1.8 2.7-4.3 3-7.6 0.3-3.7-1.7-5.5-6.9-6.1-7-0.8-20.7 1.9-36.3 7.1-6.4 2.2-9.1 3.5-10 4.9-0.6 0.9-0.6 1.2-0.1 2.5 0.3 0.8 0.7 2.3 0.8 3.4 0.2 2 1.2 3.1 1.2 1.3 0-1.2 0.9-2.2 1.4-1.4 0.2 0.3 0.3 1 0.2 1.6-0.1 1.7 0.3 1.9 1.3 0.8 1.2-1.2 1.4-1.2 3.1-0.1 1.2 0.8 1.6 0.9 5.3 0.7 3.9-0.2 4-0.2 5.3 0.9 1.3 1.1 1.3 1.2 1.2 3.7-0.1 2.2-0.4 3.3-1.9 6.4-1 2.1 0 0 0 0 0 0 2.2 1.3 4-0.5z"/>
<path d="m810.5 553.3c1.8-1.4 3.8-4 6.2-8.5 1.3-2.3 2-3.3 2.5-3.2 0.4 0.1 1.3-0.8 2.4-2.4 3.2-4.7 7.7-7.9 12.6-9 1.6-0.4 2.2-0.7 2.6-1.6 0.9-1.7 4.1-3.1 7.8-3.4 3.6-0.3 4.6 0.1 5.4 2 0.5 1.1 0.8 1.3 2.4 1.6 2.3 0.3 4.9 1.9 5.8 3.4 0.4 0.7 1.2 1.4 2.1 1.6 2.7 0.9 3.5 2.2 4.3 7.1 0.7 4.2 0.7 4.2 2.3 0.9 1-2 1.5-3.6 1.5-4.6 0-2 1.6-3.7 4-4.4 1.4-0.4 1.7-0.6 1.3-1-0.2-0.3-0.4-1.3-0.4-2.3l0-1.8-2.7 0.1c-1.9 0.1-2.9 0.3-3.4 0.8-0.4 0.4-1.1 0.7-1.6 0.7-0.8 0-2.8-2-2.8-2.8 0-0.2-0.6 0-1.3 0.4-2.7 1.7-6.7 0.6-8.8-2.4-2.3-3.2-2.6-7.4-0.8-11.1 1.1-2.2 1.1-2.2-1.9-5-1.4-1.3-1.9-1.5-3.4-1.5-1.5 0-1.7-0.1-1.7-0.8 0-0.6 0.3-0.8 1-0.8 0.6 0 1-0.2 1-0.6 0-0.8 1-1.1 1.6-0.4 0.3 0.3 1.7 1.7 3.1 3l2.6 2.4 2.1-1.6c2.5-1.9 8-4.7 12.1-6.3 4.5-1.6 4.5-1.5 2.3-5.3-1-1.8-1.9-3.9-2-4.8-0.2-1.4-0.1-1.6 0.6-1.6 0.6 0 0.8 0.3 1 1.3 0.1 0.7 1 2.7 2 4.4 1 1.7 1.7 3.3 1.7 3.5 0 0.6 0.6 0.5 3.7-0.3 10.8-3 24.2-4.8 30.2-4 9 1.2 15.4 4.3 19.1 9.1 2.7 3.5 3.8 4 5.2 2.5 0.8-0.9 2-0.7 2 0.2 0 0.8-1.9 2.2-2.9 2.2-0.8 0-0.9 0.1-0.7 2.8 0.3 3.7-0.6 5.5-4.5 9.3-2.4 2.3-3.4 3.1-4.8 3.4-2.1 0.5-5.5 0.6-9.4 0.1-1.5-0.2-2.8-0.3-2.8-0.3 0 0 0.1 1.5 0.4 3.3 0.3 1.8 0.4 3.5 0.2 3.8-0.2 0.3-0.3 1-0.3 1.5 0 1.8-1.4 3.5-3.2 4.1l-1.7 0.5 3.5 0.7c5.6 1.1 11.5 1.3 14.6 0.5 3.9-1.1 5.3-1.2 7.6-0.4l2 0.7 3.1-1.3c3.6-1.5 4-1.5 8.1-0.6 5.4 1.2 13.2 0.1 17.2-2.3 2-1.2 3.8-3.1 4.8-4.9 0.7-1.3 0.9-2.5 1-6.3l0.2-4.7-1.8-1.9-1.8-1.9 0.4-1.9c0.7-2.8 0-5.8-2.6-11.2l-2.2-4.7-0.8 1.7c-0.6 1.2-1.7 2.3-4 4-1.8 1.3-3.5 2.8-3.8 3.5-0.4 0.8-0.8 1.1-1.4 0.9-0.9-0.3-0.9-0.3-0.2-1.6 0.7-1.3 2.1-2.6 4.9-4.7 1.2-0.8 2.3-1.8 2.5-2.2 0.3-0.6 0.7-5.6 0.7-9.8 0-2.7-1.4-5.2-3.9-7.4-1.9-1.6-2.2-1.7-3.8-1.5-1.5 0.2-1.7 0.2-1.7-0.6 0-1.3-1.1-3.7-2.3-4.9-0.6-0.6-2.8-2.4-5-3.9-2.2-1.5-5.1-3.8-6.5-5.1-2.7-2.5-4.8-3.4-7-3-1.2 0.2-1.3 0.3-1.2 2.1 0 1.5-0.2 2.3-1.4 4.1-1.7 2.6-1.7 3.2-0.5 5.4 1.1 1.9 1.2 3.6 0.3 5-1 1.5-1.6 1.9-5.1 3.2-3 1.2-4 2-2.6 2 1.2 0 12.1 3.9 14.8 5.3l2.8 1.4 1.2-1.2c0.8-0.8 2.5-1.7 5.5-2.7 5.1-1.8 6.2-2.4 6.7-4 0.3-0.8 0.7-1.2 1.2-1.2 0.7 0 0.8 0.2 0.5 1.3-0.4 2.2-2.3 3.6-7.1 5.3-2.4 0.8-4.8 1.9-5.4 2.4l-1.1 0.9 2.4 2.4c3.2 3.2 4.2 5.9 3.8 10-0.2 2.3-0.1 3.3 0.4 5 0.8 2.5 0.8 6.4 0 8.5-0.3 0.8-1.1 2.2-1.8 3-2.1 2.7-9.2 6.7-11.9 6.8-0.7 0-0.9-0.2-0.8-0.9 0.1-0.7 0.5-0.9 1.8-1.2 3.7-0.7 9.6-5 11-8.1 0.9-2 0.9-4.9 0.1-7.6-0.4-1.2-0.6-3.3-0.5-5.4 0.1-2.9-0.1-3.8-0.8-5.3-2-4.3-7.9-8.1-17.3-11.2-3-1-6-1.9-6.7-2.1-0.8-0.2-1.7-0.9-2.5-1.9-0.7-0.9-1.6-2.1-2.1-2.6l-0.8-1-4.4 0.5c-3.2 0.4-5.4 0.9-7.8 1.9-5.3 2.1-8.7 1.8-10.8-0.8-1.4-1.8-6.3-1.5-8.4 0.5-0.8 0.8-0.9 1.2-0.7 2.2 0.2 1.1 0.1 1.3-0.5 1.3-0.8 0-1.2-0.7-1.2-2 0-0.4-0.7-1.4-1.6-2.2-1.5-1.4-1.6-1.4-4.6-1.4-2.5 0-3.3 0.2-4.4 0.9-1.7 1.2-2.8 3.2-3.8 7.2-0.5 1.8-1.3 4-1.8 4.9-0.8 1.5-0.8 1.7-0.4 2.2 0.5 0.4 0.5 0.6 0 1.1-0.4 0.5-0.7 0.5-1.3 0.1-0.6-0.4-1-0.3-2.1 0.3-1 0.6-2.5 0.8-6.4 0.9-4.6 0.2-5.2 0.3-6.5 1.2l-1.4 1 0.2 2.6c0.1 1.8 0 3.4-0.4 5.1-0.8 3.1-0.5 4.5 1.2 6.5 0.8 0.9 1.3 1.8 1.1 2.2-0.4 0.9-1 0.7-2.4-0.8-2.2-2.4-2.5-4.3-1.3-9.8 0.3-1.2 0.4-2.7 0.2-3.3-0.2-0.9-0.4-1-1.2-0.7-0.6 0.2-1.8 0.2-3.4-0.2-4.1-0.9-4.9-0.8-6.4 0.9-1.2 1.3-1.4 1.4-1.9 0.9-0.5-0.6-0.5-0.7 0.4-1.9 1.9-2.4 2.9-2.6 7.1-1.8 3.7 0.7 3.7 0.7 4.7-0.2 3.7-3 5.5-3.6 11.2-3.6 5.5 0 7.3-1.7 9-8.2 1-3.7 1.6-5.2 3-6.6 0.9-1 0.9-1.1 0.4-2-0.3-0.5-1-2.1-1.4-3.5-0.4-1.4-1.5-3.6-2.3-4.8-0.9-1.2-1.6-2.2-1.6-2.2 0 0-0.2-2.1-0.3-4.6l-0.2-4.6-1.1-0.1c-1.6-0.2-2.9 0.6-4 2.7-0.9 1.6-1 2.2-1 5.4 0 2 0.1 3.9 0.3 4.2 0.5 0.9-0.9 1.4-1.5 0.5-1.1-1.5-1-6.9 0.1-9.9 0.4-1.1-2.2-0.7-4.2 0.6-2.8 1.9-3.1 2.4-3.3 5.7-0.2 2.3-0.1 3.2 0.4 4.2 1 2.1 8.8 9.7 10.2 10.1 1.6 0.5 1.6 1.8 0 1.6-0.8-0.1-1.1 0.1-1.1 0.7 0 0.5-0.3 0.8-0.7 0.8-0.5 0-0.9-0.5-1.2-1.7-0.4-1.3-1.4-2.6-4.5-5.7-4.9-4.9-5.6-6.4-5-10.4l0.4-2.6h-1.3c-3.6 0-5.4 2-9.2 10.1-3 6.5-4.6 8.6-7.4 9.9-2 1-2.6 0.9-2.6 0 0-0.6 0.5-1 1.6-1.4 2.1-0.8 4.2-3.4 5.9-7.1 1.7-3.7 1.8-4.2 0.3-4.2-1.4 0-2.4 1.1-4.1 4.8-1.1 2.3-2.2 3.7-4.9 6.4-3.6 3.6-4.6 5.5-4 7.9 0.4 1.7 0.4 1.7 2.2-0.1 2.2-2.2 5.6-3.4 11-3.6 2.1-0.1 4.4-0.3 5.1-0.4l1.3-0.2-0.6-1.2c-0.5-0.9-0.6-1.8-0.4-3.3 0.1-1.1 0.4-3.2 0.5-4.5 0.2-2.2 0.3-2.5 1-2.5 0.7 0 0.8 0.2 0.5 3.1-0.1 1.7-0.3 3.6-0.5 4.3-0.3 1.5 1.2 3.6 2.9 4 0.8 0.2 1.2 0.5 1.2 1 0 0.9-1.2 1-9.1 1.4-5.6 0.2-8.5 0.9-10.7 2.4-2.4 1.6-2.8 2.8-2.6 8.2 0.1 4.4 0.2 4.8 1.2 6.2 0.6 0.8 2.8 2.6 4.9 4 4 2.7 4.8 3.5 6.3 6 0.5 0.9 1.2 2 1.7 2.5 0.7 0.8 0.7 1 0.2 1.6-0.5 0.6-0.3 0.7 2.4 0.3 5.3-0.7 8.5-0.5 10.6 0.7 2 1 2.3 1.5 1.9 2.2-0.2 0.4-0.8 0.2-2.4-0.6-2.4-1.2-4.8-1.3-9.8-0.5-3.7 0.6-5.7 0.4-10.3-1.2-4-1.4-6.5-1.5-8.3-0.6-1.5 0.8-1.5 2 0 5.7 1.5 3.7 1.5 5.2-0.2 8.3-1.6 2.9-1.6 3.4-0.6 4.9 1.2 1.8 1.3 2 0.5 2.4-0.6 0.3-0.9 0.2-1.8-1.2-1.4-2.2-1.3-3.9 0.3-7 0.7-1.4 1.4-2.8 1.4-3.2 0-0.4-0.5-2-1.1-3.6-1.5-3.7-1.7-4.8-1.2-6 1-2.8 5.9-3.5 11.1-1.6 2.8 1 6.8 1.8 6.8 1.5 0-0.1-0.5-0.8-1.1-1.5-0.6-0.7-1.5-2.1-2.1-3.1-0.8-1.5-1.9-2.4-4.9-4.4-3.8-2.5-6.1-4.7-6.7-6.5-0.2-0.5-0.4-3-0.4-5.5 0-4-0.1-4.7-0.7-5.3-0.7-0.7-0.8-0.7-2.6 0.6-2.4 1.7-3.9 3.7-5 6.8-0.8 2.2-1.7 7.6-1.7 10.1 0 0.9 0 0.9 1.5-0.3 0.8-0.7 1.7-1.8 2-2.4 0.5-1.3 1.9-1.7 1.9-0.6 0 1.7-3.8 6-4.9 5.6-0.3-0.1-0.5 0.7-0.7 2.5-0.4 4.7-0.4 4.7 1.2 5.2 2.4 0.7 3.3 2.1 3.5 5.1 0.2 2.6 0.2 2.6-0.9 2.6-1 0-1-0.1-1-2.3 0-2.3-0.3-2.9-1.6-3.3-0.5-0.2-0.9 0.7-1.9 3.7-1.2 3.7-1.3 4-0.8 5.6 0.9 3.1 0.9 3.9 0.2 6.6l-0.7 2.6 1 0.9c1 1 1.6 0.9 3.3-0.7 0.7-0.7 2.1-0.7 2.1 0 0 0.5-2 2.2-3.8 3.2-2.7 1.5-2.7 3-0.1 6.1 1.9 2.2 2.7 2.3 4.9 0.7zm119.3-17.9c-0.1-0.7 0.1-0.9 1-0.9 0.6 0 1.8-0.5 2.6-1 1.3-0.9 2-1 5-1 5 0 8.6-0.6 11.4-2 2.6-1.2 2.7-1.6 0.8-2.6-1.2-0.6-1.3-0.9-0.8-1.7 0.3-0.4 0.6-0.4 1.9 0.3 1 0.5 2.3 0.8 3.7 0.8 1.8 0 2.4-0.2 3.8-1.3 0.9-0.7 1.7-1.5 1.7-1.8 0-0.3 0.7-0.9 1.5-1.5l1.5-1.1-0.3 1.7c-0.1 1-0.3 1.7-0.3 1.8 0 0-1.1 0.8-2.3 1.8-1.9 1.4-2.6 1.8-4.4 1.9-1.3 0.1-2.1 0.4-2.1 0.7 0 0.7-6.1 3.7-8.5 4.2-1.1 0.2-3.9 0.4-6.2 0.4-3.9 0-4.2 0.1-6.1 1.2-2.3 1.4-3.8 1.4-4 0.1zm-13.7-2.8c0-0.6 0.4-0.8 2.8-1 1.6-0.1 4.3-0.8 6.3-1.5 2.9-1.1 4.2-1.3 8-1.4 2.5-0.1 4.9-0.4 5.5-0.6 0.6-0.2 1.9-1.4 2.9-2.6 1.5-1.8 2.5-2.5 5.5-4 2-1 4.3-2.2 5-2.8 1.4-1.1 2.4-3.1 2.4-4.9 0-0.9 0.2-1.2 0.8-1.2 0.6 0 0.8 0.3 0.8 1.2 0 0.9 0.2 1.2 1 1.4 0.7 0.2 0.9 0.5 0.8 0.8-0.1 0.3-0.2 0.7-0.2 0.7 0 0.1-0.4 0.2-0.8 0.2-0.5 0-1.5 0.7-2.4 1.9-1.2 1.4-2.5 2.3-5.5 3.7-3.2 1.5-4.3 2.3-6.5 4.6l-2.6 2.7-5.2 0.3c-4.3 0.3-5.8 0.6-9.3 1.7-4.9 1.7-9.3 2-9.3 0.7zm24.8-33.9c0-0.5 1.1-1.2 3.6-2.4 4-1.9 5.7-2.2 5.7-0.9 0 0.5-0.3 0.8-0.7 0.8-0.4 0-2.1 0.7-3.8 1.6-3.4 1.7-4.8 2-4.8 0.9zm-58.2-6.2c0-1.3 0.5-2.3 1.2-2.3 0.5 0 0.7 0.3 0.7 1.1 0 0.6-0.1 1.3-0.3 1.4-0.4 0.5-1.7 0.3-1.7-0.2zm21.7-5.9c0-0.6 1.5-2 2.3-2 0.8 0 0.8 0.2 0.8 2.7v2.7l-1.6-1.6c-0.9-0.9-1.6-1.7-1.6-1.8zm27.3-4.6c-0.3-0.9 1-2.2 2.2-2.1 0.7 0.1 1 0.4 1.1 1.1 0.1 0.8 0 0.9-0.7 0.7-0.4-0.1-1 0-1.2 0.3-0.6 0.7-1.1 0.7-1.4-0.1z"/>
<path d="m917.5 481.2c2.6-1.1 4.1-2 4.7-2.8l0.8-1.1-1.1-2c-1.5-2.7-1.4-4.4 0.3-7 1.6-2.5 1.7-3.2 0.4-5.5-1.6-2.8-4.5-5.2-7.5-6.2-3.7-1.2-11.8-1.6-13.6-0.6l-1.2 0.7v6.2c0 6.7-0.1 7-2.7 11.1-0.5 0.9-1 1.7-1.1 1.7 0 0.1-0.5 0-0.9-0.1l-0.8-0.3 0.9-1.5c2.9-4.9 3-5.3 3-11.4 0-5.6 0-5.7-1-6.6-1.1-1.1-1.8-1.1-8-0.6l-3.7 0.3 0.4 1.1c0.6 1.6-0.1 3.4-1.1 3.2-1-0.2-1.1-0.3-0.6-1.3 0.4-0.7 0.3-1.1-0.3-1.9-0.6-0.8-1.4-1.2-3.8-1.7-3.8-0.8-6.6-0.5-9.9 1.1-2 1-2.7 1.1-4.2 0.9-3.7-0.6-4.5-0.4-6 1.1l-1.4 1.4v4.2 4.2l1.5 2.2c0.8 1.2 2 3.6 2.6 5.4 0.6 1.7 1.2 3.3 1.4 3.4 0.2 0.1 2.1 0.2 4.3 0.2 4.1-0.1 5.1 0.3 6.5 2.1 0.6 0.7 0.6 0.7 1.6-0.1 2.2-1.8 6-2.5 8.3-1.6 0.6 0.2 1.8 1.1 2.6 1.8 1.5 1.4 1.6 1.4 3.7 1.2 1.2-0.1 3.5-0.8 5.1-1.4 1.6-0.7 4-1.3 5.2-1.5 1.3-0.1 3.3-0.4 4.6-0.7 2.8-0.5 4.4 0.2 5.7 2.4 0.5 0.9 1 1.6 1.2 1.5 0.1 0 1.9-0.8 4-1.7zm-28.8-9.9c-0.3-0.3-0.3-0.7-0.1-1.1 0.8-1.3 0.4-1.6-1.3-0.8-2.3 1.1-6.6 1.1-9.2 0l-1.9-0.8-0.6 1.2c-0.4 0.7-0.9 1.2-1.4 1.2-0.9 0-1-0.5-0.1-2.1l0.6-1.3-1.6-1.4c-1.5-1.4-1.8-2.4-0.7-2.4 0.3 0 1.2 0.6 2.1 1.4 5 4.7 13.2 4.3 15.2-0.6 0.3-0.8 0.6-1.1 1.2-0.9 0.8 0.2 0.7 1.1-0.2 2.7-0.3 0.4-0.4 1.5-0.3 2.2 0.2 1.4-0.4 3.1-1 3.1-0.2 0-0.5-0.2-0.7-0.5z"/>
<path d="m845.2 575.6 1.9-1.3-0.9-2.2c-1.1-2.7-1.1-3.6-0.2-3.6 0.5 0 1 0.6 1.6 2.4 0.5 1.3 1 2.5 1.2 2.6 0.5 0.3 4-0.9 5.2-1.9 1.2-1 1.2-1.7 0-3.3l-1-1.2 1.8-0.6c3.3-1.2 3.9-3.1 1.1-4.4-1.3-0.6-1.8-1.1-1.8-1.7 0-1.2 0.8-1.9 4.4-3.6 4.5-2.1 5.4-2.9 5.1-4.3-0.1-0.6 0-1.7 0.4-2.6 0.7-1.8 0.7-3.1 0-4.5-0.3-0.6-0.8-2.7-1.2-4.7-0.4-2-0.9-3.9-1.1-4.2-0.6-0.9-2-1.6-3.1-1.5-0.6 0-1.1-0.4-1.7-1.5-1.5-2.8-4.3-3.9-6.9-2.7-0.5 0.2-0.8-0.1-1.3-1.9l-0.6-2.2-2.6 0c-3.4 0-5.4 0.6-6.7 2l-1.1 1.1 0.8 1.7c0.7 1.6 0.9 1.7 2.3 1.7 1.4 0 1.6 0.1 1.6 0.9 0 0.8-0.2 0.9-1.5 0.9-0.9 0-1.6 0.2-1.6 0.4 0 0.2 0.6 1 1.4 1.7 1.2 1.1 1.4 1.7 1.5 3.1 0.1 1 0.2 2 0.4 2.4 0.2 0.4 0 0.9-0.4 1.2-0.5 0.5-0.7 0.4-1 0-0.2-0.4-0.3 0-0.1 1.1 0.3 1.8-0.1 2.4-1.3 2-0.6-0.2-0.7-0.6-0.6-2.1 0.1-1 0.4-2.6 0.8-3.4 0.9-2.1 0.2-2.9-1.1-1.1-1.2 1.7-2.3 1.7-2.3-0.2 0-1.1 0.2-1.5 1-1.8 0.8-0.3 0.9-0.5 0.6-1.1-0.2-0.4-0.5-1.4-0.6-2.3-0.2-1.4-1-3.8-1.2-3.8-0.2 0-4.3 1.3-4.6 1.5-0.3 0.2 1.1 3.3 1.5 3.3 0.1 0 0.5-0.2 1-0.5 0.6-0.4 0.9-0.4 1.2 0 0.4 0.4 0.3 0.7-0.4 1.5-0.7 0.7-0.8 1.3-0.6 2.1 0.3 1.4-0.2 2.3-1.2 2.1-0.5-0.1-0.7-0.4-0.6-1.2 0.1-0.7-0.4-2-1.3-3.7l-1.4-2.6-1 0.6c-0.6 0.4-1.7 1.2-2.5 1.9l-1.5 1.3 1.4 2.4c0.8 1.3 1.7 2.7 2.2 3 0.7 0.6 0.7 0.7 0.2 1.4-0.4 0.6-0.6 0.6-1.1 0.2-0.5-0.4-0.7-0.4-0.9 0.1-0.2 0.4-0.6 0.5-1 0.4-0.5-0.2-0.6-0.6-0.4-1.8 0.2-1.6-0.8-4.1-1.6-3.9-0.4 0.1-4.1 6.3-4.1 6.8 0 0.2 0.7 0.5 1.5 0.8 1.2 0.4 1.8 0.4 2.5 0 1.6-0.8 3.4-0.6 5 0.6 1.4 0.9 1.7 1 4 0.7 2.4-0.3 2.8-0.1 2.2 0.8-0.4 0.7-3.5 1.5-4.6 1.2-0.5-0.1-1.6-0.7-2.5-1.3-1.5-1-1.5-1-3.5-0.4-1.4 0.5-2.2 0.5-2.9 0.3-1.3-0.5-1.2-0.6-2.1 1.2-1 2-1 4 0 5.3 0.7 0.9 0.8 0.9 1.8 0.4 1.1-0.6 1.1-0.8 0.4-3.1-0.2-0.7-0.1-0.9 0.5-0.9 0.4 0 1 0.4 1.3 0.9 0.3 0.5 0.5 0.9 0.5 1 0 0.1 0.7-0.2 1.5-0.5 1.8-0.8 1.7-0.8 1.9 0.2 0.2 0.6 0 0.9-0.8 1.2-0.6 0.2-2.1 1.2-3.4 2.1-2.1 1.5-2.4 1.8-2.4 3l0 1.3 1.1-0.8c1.3-0.9 4.2-1.2 5-0.4 0.4 0.4 0.7 0.3 1.4-0.4l0.9-0.9 0.3 0.9c0.2 0.6 0 1.1-0.4 1.7-0.7 0.8-1 0.8-3.8 0.1l-1.2-0.3 1.2 1c1.1 1 1.1 1.1 0.5 1.7-0.6 0.7-0.7 0.7-1.8-0.4-0.6-0.6-1.3-1.1-1.5-1.1-0.2 0-0.8 0.6-1.2 1.4-0.8 1.3-0.8 1.5-0.3 2.6 0.8 1.7 2.8 3 6.5 4.6 1.8 0.8 3.5 1.7 3.9 2 1 0.9 1.3 0 1.3-4.3 0-3.4 0.1-3.8 0.7-3.7 0.4 0 1.2-0.6 1.7-1.3 1.1-1.4 2.4-1.8 2.4-0.8 0 0.3-0.8 1.6-1.7 2.9-1 1.3-1.7 2.4-1.7 2.6 0 1.3 0.6 2.8 1 2.6 0.4-0.1 0.5 0.1 0.5 0.8 0 0.6-0.2 1-0.6 1-0.3 0-0.8 0.5-1 1-0.4 0.9-0.3 1.1 0.5 2 0.5 0.5 1.5 1.1 2.2 1.2 1.1 0.2 1.3 0.1 1.7-0.9 0.2-0.6 0.6-1.5 0.8-1.8 0.5-1 0.5-1-1.2-2.2-1.4-1-1.5-1.2-1-1.9 0.5-0.7 0.6-0.7 1.4-0.1 0.9 0.6 0.9 0.6 1.8-0.9 0.6-1 1.2-1.6 1.7-1.6 1 0 1 0.7-0.2 2.6-0.7 1.2-0.8 1.8-0.6 2.5 0.4 1 0.1 2.5-0.5 2.5-0.6 0-0.4 0.8 0.4 1.6 1.1 1.1 2.2 1 4.5-0.5z"/>
<path d="m904.9 525.2c0.8-2.6 1.4-2.8 6.5-2.4 9.3 0.7 10 0.6 13.6-2.8 3-2.8 4.4-5.2 4.4-7.4 0-2.2-1.8-5.5-4.8-8.5-3.1-3.2-6-4.8-11.1-6.2-4.8-1.4-14.5-1.3-22.6 0.2-11.6 2.1-21.8 5.3-28.7 8.9-6.6 3.4-9.5 7.1-9.4 11.7 0 2.4 0.5 3.6 2 5.3 2.3 2.5 4.5 2.9 6.3 1.1 1.3-1.3 1.5-2.9 0.6-5.6-1.7-5 0.4-6.9 11.5-10.4 13.6-4.3 24.5-6.5 32.6-6.5 6.1 0 7.7 0.3 10 2 2 1.6 2.6 3 2.3 6.3-0.3 3.7-1.7 6.8-4.1 8.9l-1.8 1.6-3.3-0.3c-3-0.2-3.4-0.2-4.4 0.6-1.2 1-1.4 2.2-0.5 3.8l0.5 1.1z"/>
<path d="m387.3 602.9c-1.7-0.2-2.8-0.4-4.8-0.9-1.9-0.5-2.2-0.6-2.4-0.7-0.1-0.1-0.4-0.2-0.7-0.2-0.3-0.1-0.7-0.2-0.9-0.3-0.2-0.1-0.5-0.2-0.6-0.2-0.1 0-0.3-0.1-0.4-0.1-0.1-0.1-0.6-0.3-1-0.5-2.7-1.1-5-2.7-5.7-3.8-0.6-1-1.9-1.4-5.2-1.7-2.5-0.2-3.1-0.3-4.7-0.7-2.6-0.7-2.9-0.7-2.4 0 0.1 0.2 0.5 0.6 0.7 1 0.4 0.6 0.5 0.9 0.6 1.7 0.1 0.9-0.1 3.3-0.3 3.6-0.1 0.1-7.3-3.4-7.3-3.6 0-0.1 0.2-0.6 0.5-1.2 1.8-3.9 3.2-6.2 5-7.9 2-1.9 2.8-2.3 5.6-2.4 1.6-0.1 1.8 0 2.5 0.3 0.4 0.2 1.4 0.9 2.1 1.6 2.2 2 3.2 2.4 5.8 2 1.5-0.3 3.2 0.1 5.3 1.2 0.8 0.4 1.8 0.9 2.1 1 1.7 0.6 4-0.1 5.1-1.6 0.8-1.1 1-1.8 1.1-4.4 0.2-4.3 0.6-8 1-10.2 0.1-0.6 0.1-0.9-0.1-1.3-0.3-0.7-0.7-0.8-3-1.1-3.2-0.5-5.8-1.2-7.1-2-1.3-0.8-2.3-2.4-3.2-5-0.8-2.4-1.6-7.2-1.6-10 0-1.1 0-1.3 0.3-1.3 1 0 8.5 0.9 8.6 1.1 0.1 0.1 0.1 0.5 0.1 0.9 0 0.4 0.1 1.4 0.3 2.1 0.9 4.5 2.7 7.2 5.7 8.8 0.7 0.3 1.3 0.6 1.3 0.6 0.2 0 0.2-0.4-0.3-1.2-0.8-1.6-0.6-3.4 0.6-5.9 1.2-2.4 2.7-3.6 5.7-4.3 1-0.3 1.6-0.3 3.6-0.3 2.3 0 4.1 0.2 6.1 0.8 3.6 1.1 7 4.5 9.1 9.4 0.2 0.4 0.3 0.8 0.3 0.8 0 0.1 0.1 0.3 0.1 0.4 0.3 0.5 0.9 3.3 1.1 4.7 0.1 1.1 0.1 5.8-0.1 7-0.2 1.4-0.4 2.7-0.6 3.5-0.1 0.4-0.3 1.1-0.4 1.6-0.1 0.5-0.3 1-0.4 1.1-0.1 0.1-0.2 0.5-0.2 0.7-0.1 0.3-0.2 0.6-0.2 0.7-0.1 0.1-0.3 0.8-0.6 1.4-0.5 1.3-1.5 3-2.2 3.9-0.2 0.3-0.4 0.6-0.4 0.7 0 0.1 0 0.2-0.1 0.2-0.1 0-0.5 0.5-0.9 1.1-2.3 2.9-4.9 5-8 6.6-1.5 0.8-1.9 0.9-3.2 1.4-3.5 1.1-7.2 1.5-11.4 1z"/>
<path d="m96 564.8c-1.2-0.3-3.3-1.4-4.4-2.5-2.4-2.3-3.4-5.1-3.9-10-0.4-4.4-0.6-12.6-0.5-22.1 0.2-12.9 0.4-16.1 1.4-19.6 1.3-4.6 6-13.9 9.4-18.7 4-5.6 14.5-14.5 19.7-16.7 4.6-1.9 9.2-0.6 12 3.6 2.8 4.2 5.5 12.1 7.3 22.3 0.9 5 1.7 9.1 2.2 11.4 0.6 2.8 0.7 9.3 0.2 14-0.5 4.3-0.7 7-1 11.2-0.4 5.9-0.8 8.1-2.3 11.1-0.8 1.7-1.1 2.1-2.6 3.6-2.3 2.3-5.8 4.5-11.5 7.2-7 3.3-11.3 4.5-18.6 5-4.8 0.3-6.7 0.4-7.5 0.2z"/>
<path d="m180.8 564.8c-7.9-0.5-12.8-1.5-17.9-3.7-6.1-2.7-11.1-5.5-13.8-7.8-1.3-1.1-2.9-3.1-3.6-4.7-1.2-2.5-1.8-5.6-2.2-11.9-0.1-1.8-0.4-5.3-0.7-7.8-0.2-2.5-0.5-5.3-0.6-6.2-0.2-2.2 0.2-9.1 0.6-10.3 0.1-0.5 1.2-5.6 2.3-11.2 2.2-10.8 2.5-12.2 3.9-15.7 2.4-6 4.4-9 7.3-10.3 3.8-1.8 7.1-1.1 12.5 2.5 5.3 3.6 11.8 9.6 15 13.8 3.2 4.2 8.4 14.6 9.7 19.3 1.1 3.9 1.4 11 1.3 26.8-0.1 10.1-0.2 13.3-0.7 16.7-0.7 4.8-2.7 8-6.2 9.7-1.9 0.9-2.8 1-7 0.8z"/>
<path d="m647 662.3c-1.2-0.7-1.6-1.2-2.6-3.9-2.5-6.3-3.1-7.6-4.7-9.8-0.9-1.2-5.7-6.2-10.7-11.1-11.9-11.7-14.4-15-14.9-19.8-0.5-4.2 0.7-7.2 6.9-16.6 4.6-7 7.5-12.6 9.2-17.7 1.6-4.9 2.1-7.8 1.9-12.2-0.1-3.4-0.2-3.9-1.5-6.3-0.8-1.6-2-3.3-2.9-4.2-1.5-1.4-1.7-1.5-5-1.9-7.4-0.9-11.7 0.1-15 3.4-3.3 3.3-4.7 7.6-5.2 15.8-0.4 6.2-0.8 8.2-2.2 10.6-1.3 2.2-3.2 3.6-6 4.4-2.6 0.7-9.6 1.4-10.1 1-0.2-0.2 1.3-1.3 4.1-2.9 5-3 7.3-4.9 7.9-6.7 0.6-1.9 0.2-6.6-0.8-8.6-0.9-1.7-1.3-2-6.7-3.4-2.4-0.6-5.3-2.7-6.5-4.6-1.7-2.9-3.4-4.7-5.5-6.1l-2.1-1.4 2.1 0.2c3.5 0.4 6.2 2 8.4 5 1.7 2.3 3.2 3.3 5.1 3.3 2.7 0 4.6-1.7 7.1-6.4 2.7-5.3 5.5-7.7 13.7-12 2.5-1.3 4.7-2.5 4.8-2.5 0.1-0.1-2.3-2.6-5.4-5.7-3-3.1-6.6-7-8-8.8-2.4-3-3.8-4.2-5.1-4.2-1 0-3.9 1.5-8.1 4.2-8.6 5.5-9 5.5-15.1 0-1.4-1.3-2.5-2.4-2.4-2.4 0.1 0 2.2 0.7 4.6 1.5 3.4 1.2 4.6 1.4 5.7 1.2 1.7-0.3 3.5-2.2 5.1-5.3 1.7-3.4 1.7-5.1-0.1-9l-1.3-2.9v-5.5c0-7.6 0.4-8.2 1.9-2.4 1.3 5.2 3.3 9.3 5.1 10.8 1 0.8 2 1.1 4.5 1.5 4.9 0.7 6.6 1.8 9.7 6.1 3.9 5.3 7.5 8 11.4 8.3 2.5 0.2 4.5-0.8 5.7-2.7 0.7-1.2 0.8-1.8 0.8-4.4 0-5.5-3-12-7.7-17-2.7-2.9-5.3-4.4-9-5.4-4.4-1.1-7.1-2.6-4.7-2.6 2 0 3.4-1.4 3.4-3.3 0-2.9 6-12.8 7.8-12.8 0.9 0 0.3 2.7-1.3 6.4-0.8 1.8-1.4 3.5-1.4 3.8 0 1.3 1.1 2.7 2.9 3.6 2.9 1.4 3.7 1.3 6-1.1 3.8-3.9 6.1-8.2 5.6-10.2-0.1-0.5-1.3-2.2-2.6-3.6-2.6-3-2.6-2.9 1.7-1.3 2.4 0.9 4.1 2 4.9 2.9 0.9 1.1 0.5 2.9-1.5 7.3-2.9 6.6-3.3 9.8-1.4 14.8 0.5 1.2 1.7 4.8 2.8 8 1.1 3.2 2.4 6.5 2.8 7.4 1 1.9 2.7 3.6 3.8 3.6 2.1 0 4.6-2.3 7.8-7.1 2.5-3.8 7.9-8.8 11.8-11.2 4.2-2.5 5.2-3.4 4.9-4.9-0.1-0.6-1.3-2.8-2.7-4.9-2.9-4.3-3.1-5-1.4-4.4 1.7 0.6 5.1 4 6.4 6.4 1 1.9 1.2 2.6 1.2 4.6l0 2.3 1.4 0.8c2.9 1.6 9.7 2.6 13.2 1.9 1.9-0.4 2.3-0.6 4.3-2.7 1.2-1.3 2.8-3.3 3.5-4.4 0.7-1.2 1.4-2.1 1.5-2 0.2 0.2-1.3 5.5-2.2 7.6-2.3 5.1-6.4 6.8-15.9 6.4-5.3-0.2-9.2 0.4-12.7 2.2-5.6 2.8-9.7 9.6-8.9 14.9 0.4 2.3 2.2 5.2 4.3 6.6 2.2 1.5 4.7 2.3 8.2 2.5 7.9 0.6 13.9-3 19.7-12 2.6-3.9 5.2-6.9 6.1-6.9 1 0 0.6 0.6-1.4 2.3-1.1 0.9-2 1.9-2 2.2 0 0.8 2.1 2.1 8.5 5.3 5.9 2.9 9 4.9 9 5.7 0 0.9-3.6 0-6.9-1.7-2.8-1.5-3.6-1.7-5.3-1.7-2.3 0-3.7 0.7-4.6 2.4-0.4 0.8-0.6 2.2-0.6 5.2 0 3.3-0.2 4.5-0.8 6.1-1.2 3.2-3.9 6.3-4.5 5.3-0.5-0.7 0.6-2.8 2.3-4.4 2-1.9 2.2-2.8 1.1-4.7-1.6-2.5-3.4-2.5-8.2-0.1-3.8 2-8.3 3.6-13.1 4.7-4.4 1-5.3 1.4-7 2.6-3.3 2.2-4.1 6.2-2.1 10.2 1.5 3.1 4.2 6.3 6.4 7.6 2.9 1.7 5 2 11.6 1.7 3.1-0.2 8-0.3 10.9-0.3 6 0 7.1 0.4 9.4 3.1 1.3 1.5 5.1 8.4 4.8 8.7-0.1 0.1-1-0.8-2.1-2-3.7-4.3-6.9-5.6-12.6-5.2-4.7 0.3-8.1 1.1-8.8 2-0.5 0.6-0.6 1.5-0.6 4.4 0 3.8-0.5 6.5-1.8 9.5-0.8 1.8-2.3 3.5-2.7 3.1-0.1-0.1 0.3-1.8 0.9-3.8 1.7-5.3 1.4-7.6-1.1-9.9-1.1-1-6.2-3.7-7.1-3.7-0.8 0-5.3-2-7.2-3.1-2.6-1.6-4.3-3.3-6.7-6.4-2.1-2.9-3.9-4.4-5.1-4.4-0.8 0-0.8 0.1-0.6 2.8 0.3 4-0.3 8.9-2 13.7-2.8 8.3-5.6 13.3-12.7 22.5-4.9 6.4-6.2 8.6-6.5 11.5-0.5 5 3.8 11 14.4 20.1 9.4 8.2 12.4 9.5 23.2 10.5 5 0.5 7.8 1.2 9.7 2.7 1.2 0.9 4.7 5.4 4.7 6 0 0.2-1.1-0.6-2.5-1.7-3.3-2.5-6.1-3.4-10.9-3.7-5.7-0.3-9.3 0.8-10.5 3.3-0.6 1.3 0 5.1 1.1 6.5 1.4 1.7 2.6 2.1 6.7 1.8 3.8-0.2 3.8-0.2 2.9 0.5-1.1 0.9-2.9 1.4-6.1 1.6-2.3 0.2-2.9 0.1-4.1-0.7zM640.4 552.8c0.5-0.4 1.5-1.8 2.2-3.2 1.5-2.9 1.5-3.9-0.1-6.4-1.6-2.6-5.1-4.6-8-4.6-3.8 0-6.4 3.7-6.4 9.3 0 2.6 0 2.7 1.1 3.6 1.5 1.3 4.3 2 7.5 2.1 2.2 0 2.9-0.1 3.6-0.7z"/>
<rect width="211.5" height="2" x="720.8" y="358.1" transform="rotate(8.440295)" ry="1" style="stroke:#808080; stroke-width: 10;"/>
<rect width="208.3" height="2" x="33.2" y="970" transform="rotate(-46.563312)" ry="1" style="stroke:#808080; stroke-width: 10;"/>
<path d="m139.5 347c-1.8-1.8-1.6-2.4 2.7-7.3 3-3.5 4.5-5.9 4.5-7.4 0-1.5-0.5-1.2-1.2 0.7-0.4 0.9-1.1 2.2-1.6 2.9-1.3 1.8-4.3 5-4.8 5-0.8 0-5.1-2.5-6.4-3.7-1.6-1.5-2.4-3.1-2.8-5.9-0.6-3.5 0.1-5.9 2.8-9.8 1.2-1.8 1.7-2.8 1.5-2.9-0.6-0.2-3.1 2.8-4.3 5.2l-1.1 2.3 0.1 3.6c0.1 4.7 0.4 5.3 4.8 9.8 3.3 3.4 3.5 3.7 3.5 4.8 0 0.9-0.2 1.3-1 2.1-1 1-1.8 1.2-2.8 0.7-0.9-0.5-1.2-1.3-1.4-3.9-0.2-2.2-0.3-2.5-1.4-3.9-1.5-1.9-1.6-2.2-2.7-6.5-0.7-2.9-0.9-4-0.8-6 0.1-3.2 0.8-4.7 3.5-7.3 2.3-2.2 4.1-3.4 7.5-4.9 2.9-1.3 5-1.6 8.1-1.5 3.2 0.2 4.6 0.8 6.8 3.3l1.7 1.9 2.2-0.1c2.1-0.1 2.3 0 2.9 0.7 0.9 0.9 1.1 0.9 2.9 0 2.2-1.1 3.5-1.2 5.2-0.3 0.8 0.4 1.5 0.7 1.6 0.6 0.3-0.3-0.4-1.1-1.3-1.7-0.5-0.3-0.9-0.7-0.9-0.9 0-0.2 0.9-1.5 2-3 1.1-1.5 2-2.8 2-3.1 0-0.2-0.3-1-0.7-1.7-0.9-1.5-0.8-2.1 0.6-4.4 1.2-1.9 1.2-2.7 0.3-4.8-0.4-0.9-0.7-1.9-0.7-2.3 0-0.4 0.1-6 0.1-12.4l0.1-11.7-0.6-0.9c-0.8-1.1-0.8-2.2-0.1-5.4 0.3-1.3 0.6-3.2 0.7-4.1l0.2-1.7 0.9 0.1c0.7 0.1 1.2-0.1 2-0.8 0.6-0.5 1.4-0.9 1.7-0.9 0.8 0 1.5-0.5 3.1-1.9 1.9-1.7 1.8-2.1-0.4-1.5-0.8 0.2-1.1 0.4-1.1 1.1-0.1 0.7-0.2 0.8-1.6 0.8-1.4 0-1.5 0-1.9 0.9-0.3 0.8-0.5 0.9-1.3 0.9-1.5 0-2.2 0.3-2.7 1.2-0.2 0.4-1.2 1.3-2.2 2-1 0.7-2.1 1.5-2.5 1.9-0.4 0.4-1.9 1-3.4 1.5-1.6 0.5-3.7 1.4-5.3 2.4-3.1 1.9-5.3 2.7-8.4 3-1.6 0.2-3.4 0.7-6.4 1.9-3 1.2-4.7 1.7-6 1.8l-1.9 0.2-0.1-0.8c-0.1-0.8-0.2-0.8-1.5-0.8-0.8 0-2.6 0.2-4 0.4-3.4 0.5-6.4 0.1-7.4-0.9-0.7-0.7-2.2-1.2-5.2-1.5-2.2-0.2-2.6-0.5-5.9-3.2-1.5-1.3-3.7-2.8-4.9-3.5-3.8-2.1-4.4-2.6-4.8-4.1-0.5-1.6-1-1.9-1.3-0.7-0.2 1-0.2 1-1.3 0.4-0.5-0.2-1-0.4-1.1-0.3-0.6 0.4-0.2 0.9 1 1.5l1.3 0.6-0.1 4.3c-0.1 3.4-0.3 5-0.9 7.6-0.8 3.5-0.8 3.2-0.3 10.7 0.1 1.8 0 3.2-0.6 6.4-1 5.2-0.9 6 1.2 9.8 3.8 7.2 3.9 7.5 4.1 10.2 0.1 1.3 0 3-0.2 3.7-0.3 1.1-0.4 1.2-1.5 1.5-2.4 0.6-6-0.3-8-2.1-1.6-1.5-2-2.2-2.3-4.5-0.1-1-0.5-2.8-0.9-4-0.5-1.6-0.7-2.8-0.7-4.7 0-2.7 0.3-3.8 1.6-5.3 0.8-1 0.8-1.1 0-3.2-0.5-1.3-0.5-1.3 0.2-2.9l0.7-1.6-0.5-2.2c-0.7-2.8-0.7-3.8 0.1-5.5l0.7-1.4-0.5-1.8c-0.5-1.7-0.5-1.8 0.1-3.5 0.3-1 0.6-1.9 0.6-2.2 0-0.2-0.6-1-1.3-1.7l-1.3-1.3 0.7-1.6c0.6-1.4 0.8-2.2 0.9-5.3l0.2-3.7 1-1.3c0.6-0.7 1.7-1.6 2.6-2.1 1.4-0.8 1.8-0.8 4.4-0.8 2.8 0 2.9 0 5.3 1.3 2.4 1.2 3 1.4 2.7 0.6-0.5-1.3-4.2-2.8-7.3-3l-2.3-0.2 0.9-0.8c0.5-0.5 1.6-1.2 2.5-1.6 1.4-0.7 2-0.8 4.9-0.9 2.9-0.1 3.4 0 4 0.5l0.7 0.6-1.2 0.6c-2.2 1.1-1.8 1.8 0.5 1 2.5-0.8 3.8-0.1 7 4 0.8 1.1 0.9 1.1 1.7 0.8 0.7-0.3 1.3-0.3 2.8 0 3.3 0.5 5 1.9 4.4 3.6-0.6 1.7-0.3 1.9 1.4 0.8 1.1-0.7 1.3-0.7 5.5-0.7 5.6 0 8.8-0.4 10.1-1.1 1-0.6 3.9-1.1 6.4-1.1 1.2 0 1.5-0.2 3.2-1.6 1-0.9 2.1-1.6 2.5-1.7 0.3-0.1 0.9-0.2 1.3-0.3 0.5-0.1 1-0.7 1.8-1.8 1.3-2.1 2.1-2.6 4.5-2.9 1.8-0.2 2.2-0.4 3.6-1.4 1.5-1.1 1.7-1.2 3.5-1.3 1.1 0 2.8-0.3 3.9-0.7 3.1-1 5-0.9 7.2 0.3 3 1.6 4.6 3.9 4.8 7 0.1 1.5 0 1.9-0.7 3.3l-0.8 1.6 0.8 0.9c0.8 0.9 1.7 3.3 1.7 4.7 0 0.4-0.3 1.4-0.6 2.2-0.8 1.9-0.8 3.1 0.2 4.9 0.7 1.3 0.7 1.6 0.4 2.3-0.3 0.7-0.2 1 0.3 1.8 0.6 1 0.6 1.2 0.4 6.2l-0.2 5.2-0.9 1.2c-1.1 1.5-1.1 2.4-0.1 4.1 0.9 1.5 0.9 2.8 0.2 4.8-0.7 1.9-0.7 3.2 0.1 4.3l0.6 0.8-0.8 1.5c-0.9 1.8-1 2.8-0.2 4.3l0.6 1.1-0.8 1.5c-0.4 0.9-1.1 3.4-1.6 5.6-1.2 5.8-3 10.4-5.4 13.9-2 2.9-3.7 3.8-4.3 2.4-0.4-0.9-0.6-0.9-1.9 0-1.3 0.9-3.4 1.6-4.9 1.6-0.8 0-1.2-0.2-1.5-0.7-0.4-0.6-0.5-0.6-1.3-0.4-0.6 0.2-1.1 0.2-2-0.2-1.4-0.5-2.1-0.3-1.3 0.5 0.3 0.3 0.4 0.6 0.3 0.7-0.3 0.3-5.1 0.2-5.8-0.2-1.1-0.6-1.8-2-1.8-3.7 0-0.8-0.1-1.6-0.3-1.6-0.1-0.1-1-0.2-1.8-0.2-1.5 0-1.5 0-2-1.3-1.4-3.3-3.2-4.7-6.5-4.7-1.9 0-4.2 0.6-4.2 1.1 0 0.5 0.6 0.5 2.3 0.1 1.1-0.3 2.2-0.4 2.9-0.3 2.5 0.4 4.8 3.3 5 6.3 0.1 1.7-0.3 3.3-1.8 6.6-0.5 1.1-1.5 3.5-2.3 5.3-1.9 4.7-2.5 5.6-3.6 5.6-0.6 0-1.1-0.3-1.7-0.8z"/>
<path d="m105.6 315.4c-0.1-0.3-0.5-1.6-0.9-3-0.3-1.4-1.7-5.2-2.9-8.6l-2.3-6.1 0-7.1c0-3.9-0.1-8.7-0.2-10.5l-0.3-3.4 1-1.2c0.5-0.6 1.1-1.5 1.2-1.9 0.2-0.7 0-4.3-0.4-7.4l-0.2-1.5 1.4 0.7c0.8 0.4 1.6 0.9 1.8 1.2 0.6 0.7 0.4 2.3-0.6 4.8-1.1 2.8-1.1 4 0.4 6.4l1 1.7v3.9 3.9l1.1 1.6c1 1.5 1 1.6 0.7 2.9-0.3 1.2-0.3 1.4 0.3 2.2 0.5 0.7 0.7 1.5 0.8 3.1 0.2 2 0.3 2.4 1.4 4 1.2 1.6 1.2 1.8 1.1 3.3-0.1 0.9-0.1 2.9 0 4.5 0.1 3.2-0.2 4.1-1.8 6-0.9 1-2.2 1.2-2.7 0.4z"/>
<path d="m154.8 314.7c-0.6-0.2-1.9-0.8-2.8-1.3-2.6-1.5-3.6-1.7-7.1-1.7-2.1 0-3.3 0.1-4.2 0.3-0.7 0.2-1.4 0.3-1.7 0.3-0.2 0-1.3-0.6-2.3-1.4-3.7-2.8-8.9-5.9-10.6-6.4-1.5-0.5-5.2-0.6-6.9-0.3-0.8 0.1-2.5 0.7-4 1.3-1.5 0.6-2.7 1-2.9 0.9-0.3-0.1-0.3-0.4-0.3-2.6 0.1-2.4 0.1-2.5 0.6-2.9 1.4-1.2 4.7-1.9 8.8-1.9 5.2 0 7.4 0.6 10.7 2.9 2.1 1.4 3.2 2 5.6 2.8 1.1 0.4 3.1 1.2 4.5 1.9 1.4 0.7 2.9 1.4 3.4 1.5 0.5 0.1 2.6 0.3 4.7 0.4 3.9 0.2 6.3 0.5 8 0.8 0.7 0.2 1.2 0.1 2.2-0.1 1.3-0.3 1.4-0.3 2.6 0.1 1.3 0.5 2 0.5 2.3 0 0.5-0.8-0.6-1.6-4.7-3.4-5.7-2.6-9.1-3.4-13.6-3.5-2.7 0-2.9 0-4.1 0.6-0.7 0.3-1.4 0.6-1.6 0.5-0.2 0-1.5-0.4-2.9-0.9-2.4-0.8-2.7-0.9-3.6-1.8-1.1-1.1-1.3-2-1-3.1 0.3-1 2.1-3.5 2.8-4 0.3-0.2 2.5-1.4 4.8-2.5 4.1-2 4.3-2.1 5.7-2.2 0.8 0 1.9 0 2.3 0.2 0.5 0.1 2.9 1.3 5.5 2.6 4 2 4.8 2.3 5.9 2.4 1.2 0.1 1.3 0.1 1.9-0.5 1-0.9 1.6-2.4 1.7-4.2 0-3.3-2.6-5.6-7.1-6.4-0.8-0.1-1.5-0.3-1.5-0.5-0.1-0.1-0.2-0.6-0.2-1l0-0.7 1.5-0.1c2.4-0.2 4.6 0 5.8 0.7 1.2 0.7 3.7 3.2 4.6 4.8 1.2 2 1.3 2.5 1.2 6-0.1 3-0.1 3.2-0.6 4.1-0.8 1.3-1.8 2.1-3.1 2.5-1.6 0.5-2.5 0.3-7-1.9-2.1-1-4.4-2-5.1-2.3-2.6-0.9-5.6-0.9-7.6 0.1-2.2 1-4 3.2-4 4.8 0 0.8 0.6 1.8 1.1 1.8 0.5 0 1.1-0.8 1.2-1.7 0.2-1.4 0.9-2.1 2.3-2.1 1.5 0 3.7 0.5 8.3 1.8 8.7 2.6 8.9 2.6 10.7 4.3 2.7 2.5 3 5.7 1 8.3-0.6 0.8-2.3 1.9-3.8 2.5-1.6 0.6-5.7 0.8-7.3 0.3z"/>
<path d="m115.6 294c-4.9-0.6-7.5-3.2-7.2-7.3 0.1-1.4 0.8-3.7 1.2-4 0.1-0.1 1-0.3 2-0.4 3.6-0.5 12.6-3.2 17-5.1 2.6-1.1 3.1-1.2 3.5-0.3 0.4 0.8 1.4 1.1 3.2 1 1.7-0.1 3.5-0.7 7-2.2 2.5-1 2.6-1 4.1-1 3.5 0.2 5.2 1.1 6.2 3.3 1.3 2.8 1.1 4.6-0.4 6-1.6 1.5-2.1 1.6-10.8 1.6-8.8 0-12.1-0.3-12.1-1.1 0-0.7 9.6-3.7 12.5-4 1.5-0.1 3.5 0.3 4.4 0.9 0.5 0.4 0.5 0.4 0.2 1.3-0.3 1.2-0.2 1.9 0.4 1.9 0.9 0.1 2-1.4 2-2.8 0-1.5-2-3-4.8-3.5-2.5-0.5-4.5 0-16.6 4.1-5.3 1.8-10.9 3.5-12.6 4-2.7 0.7-3 0.8-3.1 1.2-0.2 0.9 0.4 1.3 3.6 1.8 2.4 0.4 3.6 0.5 6.6 0.5 4.3 0 6.1-0.3 8.8-1.4 1.9-0.8 2.5-0.8 7.2-0.5 4.2 0.3 4.1 0.3 2.3 1.2-5.8 3-18.9 5.4-24.9 4.6z"/>
<path d="m154.7 277.1c-0.5-0.9-1.3-2-1.9-2.7-0.6-0.6-1-1.1-0.8-1 0.2 0.1 1.1 0.5 2.1 0.9 3.5 1.5 4.9 1.6 5.1 0.4 0.1-0.7-0.4-1-2.5-1.7-1-0.3-1.7-0.6-1.6-0.8 0.1-0.4 3.8-2.7 4.7-3 1-0.3 3.7-0.1 5 0.3 1.2 0.4 1.5 0.9 1.8 2.7 0.7 4.4-1.4 5.8-8.9 6.2l-2.1 0.1z"/>
<path d="m109.7 279.8c-1-0.4-1.6-0.9-2.2-2.1-0.9-1.6-1-2.6-0.7-4.1 0.4-1.5 1-3 1.3-3 0.3 0 2.4 1.7 4.2 3.4 2 1.9 2.8 2.2 4.5 1.8 2.1-0.5 2.4-0.5 3.8 0.1 0.7 0.3 1.5 0.5 1.8 0.5 0.3 0 0.5 0.1 0.5 0.2 0 0.7-8 3.2-11 3.4-0.9 0.1-1.7 0-2.2-0.2z"/>
<path d="m137.9 505.6c-0.1-0.4-0.4-2.2-0.8-4.1-0.7-3.3-0.7-3.4-0.4-3.7 0.1-0.1 0.4-0.4 0.5-0.7 0.3-0.4 0.3-0.5 0.3-4.6 0-2.3 0-8.3-0.1-13.3 0-7.6 0-9.3 0.1-9.8 0.2-0.6 0.2-0.7-0.1-1.5-0.4-1.2-0.5-1.9-0.3-4.8 0.2-3.1 0.1-3.4-0.7-4.6-1.1-1.6-2.1-5.7-2.4-9.7 0-0.5 0-1.7 0-2.5l0.1-1.5 3.6 0.1c4 0.1 6.1 0.1 8.3-0.3 1.7-0.3 2.1-0.3 2.5 0.4 0.2 0.3 0.3 0.7 0.3 1.7 0.1 1.5-0.1 3.1-0.8 6.4-0.6 3-1 4.1-1.8 5.3-0.9 1.4-1 1.7-0.8 2.5 0.3 1 0.3 6 0 6.7-0.3 0.6-0.3 11.8 0 12.9 0.1 0.6 0.1 1.3 0 3.7-0.2 4.5-0.4 6.9-0.6 8.5-0.2 1.4-0.2 1.4 0.1 1.8 0.2 0.3 0.3 0.5 0.2 1-0.1 0.5 0 0.7 0.3 1.4l0.4 0.7-0.8 3.9c-0.6 3-0.8 3.9-1 3.9-0.1 0-0.5-0.1-0.9-0.2-0.9-0.3-2.4-0.3-3.1 0-0.3 0.1-0.8 0.4-1.2 0.6l-0.7 0.4z"/>
<path d="m185.7 556.7c-0.4-0.6-1.2-1-2-1.2-0.7-0.2-1-0.7-1.6-3.2-0.3-1.2-0.7-2.4-0.8-2.6-0.3-0.4-0.3-0.4-0.5-0.1-0.1 0.2-0.3 0.9-0.3 1.7-0.1 1.6-0.3 2.2-0.9 2.5-0.7 0.4-0.8 0.1-0.8-1.4 0-1.5-0.2-1.8-0.7-1.3-0.2 0.2-0.5 0.3-0.6 0.2-0.3-0.1-0.3-0.4-0.2-3.4 0.1-1.8 0.2-3.5 0.2-3.8 0.1-0.4-0.1-0.8-1.2-2.2-1.8-2.5-2-3-2.2-5.1-0.1-1.9-0.3-2.5-1.1-3.3-1.3-1.2-3.9-1.3-4.3-0.1-0.2 0.6 0.1 1.4 1.4 3.1 2.1 2.8 3.9 7 3.9 9 0 0.8 0 0.8-0.6 0.6l-0.6-0.1 0.1 1c0.1 0.5 0.2 1.2 0.2 1.4 0.1 0.4 0 0.3-0.9-0.4-0.6-0.5-1.2-0.9-1.5-1.1-0.7-0.3-1.1-1.4-1.7-4.5-0.3-1.7-0.7-2.7-1.2-3.7-0.7-1.5-1.8-2.9-2.3-2.9-0.4 0-0.3 1.1 0.3 2.8 1.4 4.1 1.3 3.7 1 5-0.4 1.5-0.3 2.2 0.5 2.7 0.9 0.5 2.6 2.1 2.8 2.7 0.1 0.4 0.2 1.2 0.2 2.5-0.1 2.4-0.3 2.8-0.8 1.4-0.2-0.5-0.3-1-0.3-1.2 0-0.1-0.2-0.4-0.4-0.6-0.4-0.4-0.4-0.4-0.6-0.1-0.1 0.2-0.3 0.6-0.3 1 0 0.3-0.1 0.8-0.2 0.9-0.2 0.2-0.2 0.2-0.4 0-0.2-0.3-0.1-1.4 0.1-3.5 0.1-0.9 0.1-0.9-0.3-0.9-0.5 0-1.2 0.7-1.6 1.6-0.3 0.8-0.5 0.4-0.7-1.9-0.3-3.6-0.7-4.8-1.7-4.7-0.7 0.1-0.8 0.4-0.7 3.8 0.1 2.8 0.1 2.9-0.4 3.8-0.3 0.5-0.7 1.1-0.9 1.4-0.4 0.4-0.4 0.4-0.7 0.1-0.1-0.2-0.3-0.8-0.3-1.6-0.1-2.1-0.1-2.1-1.1-2-0.8 0.1-0.8 0.1-0.9-0.5 0-0.4 0.2-1.2 1.1-3 1.8-3.7 1.8-4.1 0.9-5.9-1.1-2.2-1.6-1.7-1.9 1.7-0.1 1.5-0.2 2.2-0.6 2.8-0.5 0.9-2 3.2-2.9 4.1l-0.6 0.6 0.1-1.2c0.1-1.4 0-1.4-1.2-0.9-1 0.4-0.9 0.1 0.5-1.8 1.8-2.4 2.6-4.2 2.6-5.9 0-1.5-0.4-1.7-1.4-0.8-0.7 0.6-1.6 0.9-2.3 0.8-0.6-0.1-1.5-1-1.7-1.6-0.2-0.7 0.1-0.8 1.3-0.7 1.3 0.1 2.8-0.1 3.3-0.6l0.4-0.3-0.4-0.4c-0.2-0.2-0.9-0.6-1.5-0.8-1.5-0.5-2.4-0.9-2.4-1.1 0-0.4 0.9-0.3 1.7 0.1 1.9 0.9 3.2 0.7 3.6-0.5 0.3-0.9 0.7-6.8 0.5-7.5-0.1-0.3-0.3-0.7-0.5-0.8-0.3-0.2-0.4-0.2-0.9 0.1-0.3 0.2-0.8 0.9-1.2 1.4-0.4 0.6-0.8 1.1-0.9 1.1-0.1 0-0.3-0.2-0.5-0.4-0.3-0.4-0.3-0.4-0.9 0-0.3 0.2-0.6 0.4-0.7 0.4-0.3 0-0.1-0.8 0.4-1.8 0.9-1.9 0.7-2.3-1.3-2.4-2-0.1-2.1-0.2-2.1-0.8 0-0.6 0.2-0.7 1.3-0.7 1 0 1.1-0.4 0.1-1.4l-0.8-0.8 0.6 0.1c0.3 0.1 1.3 0.4 2.2 0.8 1.7 0.8 3.2 1 3.9 0.7 0.9-0.5 1.1-2.6 0.4-4.2-0.4-1-4.1-4.5-7.2-7.1-2.4-2-5.3-4.1-5.7-4.3-0.1 0-0.1-0.4 0.1-1 0.1-0.5 0.5-2.2 0.8-3.7 0.3-1.5 0.6-2.8 0.6-2.9 0-0.1 0.5 0.3 1 0.8 1.2 1.1 3.4 2.9 4.1 3.3 0.5 0.2 0.6 0.2 1 0 0.9-0.6 2.1-2.7 2.1-3.7 0-0.5-0.1-0.6-1.3-0.9-0.7-0.2-1.4-0.5-1.5-0.7-0.4-0.5-1.5-1.6-2.1-2.1-0.5-0.4-0.7-1.4-0.6-2.5 0.1-0.5 0.1-0.5 0.9-0.5 0.8 0 0.9 0 1 0.6 0.1 0.3 0.4 0.8 0.7 1.1l0.5 0.5 0.5-0.4 0.5-0.4 0.5 0.6c0.6 0.7 1 0.8 1 0.1 0-0.9-0.5-3.6-0.9-4.4-0.4-0.8-1.2-1.5-2.2-1.9-1-0.4-1.2-0.7-0.6-1.3 0.7-0.6 1.2-0.7 1.7-0.4 0.9 0.6 1.1-0.3 0.4-1.9-0.4-0.8-0.4-1.1-0.3-1.4 0.3-0.5 0.3-0.5 1.2 0.2 0.4 0.3 0.8 0.5 1 0.5 0.4 0 0.2-1.5-0.4-2.3-0.7-1-0.6-1.1 0.3-1 0.7 0.1 0.9 0 1.2-0.3 0.3-0.4 0.4-0.4 0.8-0.1 0.4 0.3 0.7 1 0.7 2.2 0 0.7 0.3 1.3 0.6 1.3 0.4 0 0.8-1.1 0.8-2.5 0-1.2 0.5-2.9 0.7-2.6 0.1 0.1 0.2 0.5 0.3 0.9 0.3 0.9 0.5 1.1 1.6 1.3 1.1 0.2 1.2 0.5 0.3 2-1.1 1.8-1.9 4.5-1.6 5.3 0.2 0.4 0.5 0.1 1.6-1.8 1.1-1.8 1.9-2.9 2.5-3.3 0.3-0.2 0.4-0.2 1.2 0.3 0.5 0.3 1 0.5 1.1 0.5 0.4 0 0.7 0.4 0.7 0.8 0 0.2-0.6 0.9-1.3 1.6-2.3 2.3-6.2 7.4-5.9 7.8 0.1 0.1 0.3 0.1 0.4 0.1 0.6-0.2 2.5-1.6 4.1-3.2 0.9-0.8 2.2-1.9 2.8-2.2 1.8-1.2 2-1.4 3-3 0.9-1.5 1.5-2 2-1.8 0.4 0.1 0.5 1.2 0.2 2.3-0.5 2.2-0.2 2.2 1.7 0.3 0.8-0.8 1.5-1.4 1.7-1.4 0.4 0 0.8 0.5 0.8 0.8 0 0.2-0.4 0.6-0.8 1-1.4 1.3-1.4 2.2-0.1 2.8 0.3 0.1 0.5 0.3 0.5 0.4 0 0.2-0.7 0.5-2.1 0.8-1.4 0.4-2.8 1.1-4.7 2.4-0.8 0.6-2 1.3-2.5 1.6-0.6 0.3-1 0.5-0.9 0.6 0.2 0.4 2.3 0.1 3.8-0.4 1.2-0.4 1.8-0.5 3-0.5 1.6 0 3.1 0.4 3.6 0.9 0.3 0.3 0.3 0.3-0.1 0.5-0.2 0.1-1.3 0.6-2.5 1-2.2 0.8-2.5 1-1.9 1.7 0.3 0.3 0.3 0.3-0.1 0.5-0.5 0.3-1.4 0.2-3.3-0.1-2-0.4-2.7-0.3-4.8 0.7-2.6 1.2-2.6 1.6 0 1.1 3.5-0.6 4.8-0.3 6.6 1.2 1.4 1.2 1.7 1.2 3-0.2 1-1.1 2.6-1.9 3.4-1.8 0.4 0.1 0.5 0.1 0.4 0.6-0.1 0.5 0 0.6 0.5 0.6 0.3 0 1.3-0.5 2.5-1.2 2.1-1.2 2.8-1.4 2.9-0.7 0.1 0.4 0.1 0.4 1.7 0.4 1.3 0 1.7 0.1 2 0.3 0.5 0.5-0.2 1.3-1.6 1.7-1.3 0.4-2.1 0.8-2.1 1 0 0.1 0.3 0.4 0.7 0.5 1.3 0.5 1 0.7-2.6 1.7-3.1 0.9-3.6 0.9-6.6 0.4-2-0.3-3.8 0.1-4.1 0.8-0.2 0.4 0.4 0.9 1.1 1.1 0.7 0.1 0.9 0.3 0.6 0.7-0.3 0.3-1.7 0.3-3.8 0-2.3-0.4-3-0.3-4.6 0.2-0.7 0.3-1.5 0.4-1.7 0.4-0.2-0.1-0.6-0.8-1-1.6-0.4-0.8-0.9-1.7-1.1-1.9-0.4-0.5-1.3-0.5-1.9-0.1-0.5 0.4-1.1 1.5-1.2 2.5-0.1 0.8-0.1 0.8 0.9 1.7 1 1 3.7 2.8 4.9 3.5 1.3 0.7 1.8 0.5 3.3-1.3l1-1.2 0.7 0.7c1.4 1.3 2.2 1.2 6.8-0.9 3.3-1.5 4.5-2 5.3-2.2l0.5-0.1-0.1 1.7c-0.1 2-0.3 2.4-1.1 2.9-0.7 0.4-0.7 0.5-0.2 0.9 0.4 0.3 0.4 0.3 0 0.4-0.2 0.1-1.2 0.2-2.1 0.3-2.5 0.3-2.8 0.3-3.1 0.6-0.2 0.2-0.2 0.4-0.1 0.6 0.2 0.3 0.4 0.3 1.4 0.3 1.3 0 2.2 0.3 2.4 0.8 0.1 0.2 0.1 0.6 0.1 1 0 1.4 0.6 2 2.1 2 1.3 0 2.1-0.6 3.6-2.6 1.7-2.2 2-2.4 3.3-2.1 1.8 0.4 4.4 1.9 4.1 2.4-0.1 0.1-1.1 0.6-2.3 1.2-1.2 0.6-2.3 1.1-2.3 1.2-0.1 0.2 0.3 0.7 1.3 2 0.2 0.3 0.3 0.6 0.3 0.8-0.2 0.4-1.4 0.4-2.3-0.2-0.7-0.3-0.9-0.4-1.2-0.3-0.5 0.3-0.4 0.6 0.5 1.4l0.8 0.8-1.1 0.1c-1.4 0.1-1.6 0.3-1 1.1 0.5 0.5 0.5 0.6 0.2 0.7-1.1 0.4-3.7 0-5.1-0.9-1.6-1-2.5-1.4-3.1-1.4-0.3 0-0.6 0.1-0.6 0.2 0 0.1 0.5 0.7 1.2 1.3 0.6 0.6 1.2 1.2 1.2 1.3 0 0.3-0.8 0.6-1.4 0.5-0.9-0.2-2.8-1.3-3.9-2.3-0.6-0.5-2-2.1-3.2-3.5-1.1-1.4-2.3-2.6-2.6-2.8-0.6-0.3-2.2-0.2-3.3 0.1-0.8 0.3-0.7 0.8 0.4 1.4 1.6 0.9 3.9 2.7 6.9 5.6 1.7 1.7 4 3.2 6.6 4.5 3.6 1.8 4.5 1.6 4.5-0.9 0-0.5 0-0.8 0.1-0.8 0 0 0.6 0.3 1.3 0.6 0.7 0.3 1.4 0.6 1.6 0.6 0.4 0 0.4 0 0.3 0.8-0.1 0.4-0.1 0.9-0.2 1-0.1 0.3 0.1 0.8 0.4 0.8 0.5 0 0.2 0.3-0.6 0.7-1.5 0.7-0.7 1.6 1.3 1.6 1.2 0 2.5-0.7 3-1.6 0.2-0.4 0.5-0.6 0.6-0.6 0.1 0 0.5 0.5 0.9 1.1 0.7 1 0.7 1 0.4 1.3-0.5 0.4-0.1 1 0.9 1.7 0.5 0.3 0.9 0.6 0.9 0.6 0 0-0.1 0.2-0.2 0.4-0.4 0.4-0.2 1.1 0.5 2 0.2 0.3 0.5 0.7 0.5 0.9 0 0.3-0.1 0.4-0.6 0.4-0.9 0.1-1.9-0.3-3.4-1.2-0.7-0.5-1.9-1.1-2.5-1.4-0.6-0.3-1.8-1.1-2.7-1.7-2.7-2-4.6-2.8-4.6-1.9 0 0.7 0.9 2.1 1.7 2.8 0.8 0.7 1.3 1.5 1.1 2-0.2 0.4-1.3 0.3-1.9-0.2-0.6-0.5-0.9-0.6-0.9-0.2 0 0.5 1 2.4 1.6 3 1.1 1.1 1.9 1 2.9-0.5 0.6-0.9 1.4-1.4 1.7-1.2 0.1 0.1 0.2 0.4 0.2 0.9 0 1 0.3 1.2 2.7 1.9 1 0.3 2 0.7 2.1 0.8 0.2 0.2 0.4 0.6 0.4 1 0.1 0.4 0.2 0.8 0.2 1 0.1 0.3 0 0.3-1.2 0.2-1.6-0.1-2 0.1-1.5 0.7 0.4 0.4 0.5 0.9 0.4 1.7-0.1 1.1-1.9 0-2.8-1.8-0.8-1.4-1.3-2.1-2.2-2.7-1.1-0.7-1.9-0.7-2.1 0-0.1 0.4 0.1 0.9 0.9 2.5 1 2 2.4 4 4.7 6.7 1.3 1.5 2.2 3 1.9 3-0.1 0-0.4 0-0.8 0-0.6 0-0.6 0-0.7 0.9-0.1 0.5-0.2 1-0.4 1.1-0.3 0.3-0.3 0.2-0.7-0.2z" style="fill:#808080;"/>
<path d="m96.2 556.9c0-0.1-0.1-0.4-0.2-0.8-0.2-0.8-0.4-1.1-0.9-1.1-0.2 0-0.5-0.1-0.5-0.3-0.2-0.4 1.9-3.2 4-5.5 1-1.1 1.9-2.5 2.7-4.5 1-2.4 0.5-3.1-1.3-2.2-1 0.6-1.6 1.3-2.5 2.9-0.7 1.2-1.5 2-2.2 2-1 0-1.1-0.8-0.3-1.7 0.3-0.3 0.5-0.8 0.5-0.9 0-0.3-0.1-0.3-1.4-0.2l-1.4 0.1 0.1-0.7c0.3-1.6 0.4-1.7 3-2.4 1.6-0.4 2.3-0.9 2.3-1.7 0-1.4 0.8-1.3 1.8 0.3 0.2 0.3 0.5 0.6 0.8 0.8 0.7 0.4 1.6 0.1 2.6-0.9 0.8-0.8 1.5-2.2 1.3-2.4-0.2-0.3-0.7-0.1-1.2 0.2-0.5 0.4-1.6 0.4-1.7 0-0.1-0.4 0.7-1.5 1.4-1.9 0.5-0.3 0.7-0.6 0.9-1.3 0.3-1.1 0.3-1.5 0-1.7-0.4-0.2-2.7 1.1-4.3 2.3-0.8 0.6-2.1 1.4-3 1.9-0.9 0.5-1.8 1.1-2.1 1.4-0.3 0.3-0.9 0.6-1.4 0.8-1 0.3-2.4 0.4-2.5 0.1-0.1-0.1 0.2-0.6 0.5-1.1 0.7-1 0.9-1.7 0.6-1.9-0.4-0.3-0.2-0.8 0.8-1.4 0.9-0.6 1.2-1.2 0.8-1.5-0.1-0.1-0.2-0.3-0.2-0.4 0-0.4 1.2-2 1.5-2 0.1 0 0.3 0.3 0.5 0.6 0.5 1.2 3.1 1.9 4.6 1.2 0.9-0.4 0.7-0.9-0.6-1.4l-1-0.4 0.6-0.3c0.7-0.3 0.8-0.6 0.4-1.6-0.4-0.9-0.3-0.9 0.3-0.8 0.4 0.1 0.6 0 0.8-0.2 0.2-0.2 0.6-0.4 0.9-0.5 0.3-0.1 0.7-0.3 0.8-0.5 0.3-0.5 0.5-0.2 0.7 1.1 0.2 1.3 0.2 1.4 0.8 1.6 1.4 0.5 7-2.6 10.4-5.8 3.3-3.1 6-5.2 7-5.5 0.5-0.1 0.8-0.5 0.6-1-0.2-0.7-2.9-0.9-4.1-0.3-0.3 0.2-1.3 1.2-2.3 2.4-2.6 3.2-5.1 5.4-7 5.9-0.8 0.3-1.7 0-1.7-0.4 0-0.1 0.6-0.8 1.3-1.4 0.7-0.6 1.3-1.2 1.3-1.3 0-0.1-0.3-0.2-0.6-0.2-0.6 0-1.8 0.6-3.4 1.6-1.4 0.9-3.2 1.2-4.8 0.7l-0.7-0.2 0.5-0.3c1-0.5 0.3-1.1-1.4-1.1l-0.8 0 0.9-0.8c1.6-1.5 1.4-2.1-0.6-1.3-2.3 1-3 0.4-1.5-1.3 0.5-0.5 0.8-1 0.8-1.2 0-0.2-0.8-0.7-2.2-1.4-1.2-0.6-2.2-1.2-2.2-1.3-0.1-0.4 1.1-1.4 2.2-1.8 2.2-0.8 3.5-0.6 4.4 0.7 0.8 1.1 2.4 2.7 3.1 3.1 0.8 0.4 2.2 0.5 2.8 0.1 0.3-0.2 0.4-0.4 0.4-1.3 0-0.8 0.1-1.1 0.4-1.4 0.5-0.5 1.3-0.8 2.2-0.8 1 0 1.3-0.1 1.3-0.5 0-0.5-0.5-0.7-3-1-1.3-0.2-2.4-0.4-2.5-0.5-0.1-0.1-0.1-0.2 0.1-0.2 0.5 0 0.3-0.7-0.3-1-0.8-0.5-0.9-0.9-1-2.4-0.1-2-0.1-1.9 0.6-1.8 0.3 0.1 2.1 0.8 4 1.6 4 1.8 5.8 2.5 6.6 2.3 0.3-0.1 0.9-0.4 1.3-0.7 0.4-0.3 0.8-0.6 0.9-0.6 0.1 0 0.7 0.6 1.4 1.3 0.7 0.8 1.4 1.3 1.6 1.3 0.8 0 3.9-2 5.8-3.8 1-0.9 1.2-1.1 1.2-1.7 0-1.3-1.1-3.1-1.9-3.1-0.9 0-1.4 0.5-2.3 2.2-0.4 0.9-0.9 1.7-1.1 1.8-0.2 0.1-0.9-0.1-1.7-0.4-1.5-0.6-1.8-0.6-5.4-0.1-3.1 0.5-4.1 0.1-2.2-0.9 1.1-0.5 1.2-0.9 0.6-1.5-0.3-0.3-0.7-0.3-2.3-0.3-1 0-2.7 0.1-3.7 0.2-1.8 0.1-1.8 0.1-4.3-0.6-2.4-0.7-3.3-1.1-3.3-1.4 0-0.1 0.3-0.3 0.7-0.4 1.1-0.4 0.8-0.8-1.3-1.6-0.6-0.2-1.3-0.6-1.5-0.8-0.4-0.4-0.4-0.4-0.1-0.8 0.3-0.3 0.5-0.3 1.3-0.3 1.9 0.2 1.8 0.2 2.1-0.3 0.4-0.9 0.6-0.9 3.4 0.9 1.8 1.1 2.4 1.3 2.4 0.5 0-0.7 0.4-1 1.1-0.8 0.6 0.1 1.1 0.5 3.5 2.4 0.6 0.5 1.1 0.7 1.3 0.7 0.2-0.1 0.6-0.5 0.9-0.9 1-1.2 1.9-1.6 4.1-1.5 1 0 2.3 0.1 3 0.3 0.7 0.1 1.3 0.2 1.4 0.1 0.5-0.3-2.6-2-4.2-2.2-0.4-0.1-1.3 0-2.1 0.2-1.5 0.3-3.1 0.4-3.5 0.1-0.2-0.1-0.2-0.2 0-0.6 0.2-0.5 0.2-0.5-0.2-0.9-0.3-0.2-1-0.5-1.7-0.7-3.4-0.8-3.5-1.9-0.2-2.3 1.5-0.2 2.9 0 4.8 0.7 1.1 0.4 2.4 0.5 2.6 0.1 0.3-0.3 0.1-0.6-0.8-0.9-0.4-0.2-1.6-0.9-2.7-1.6-2.5-1.6-2.8-1.8-4.3-2.2-1.3-0.3-1.9-0.6-1.9-0.8 0-0.1 0.3-0.3 0.7-0.4 0.6-0.2 0.7-0.4 0.7-0.9 0-0.5-0.2-0.8-1-1.6-1.1-1.1-1.2-1.5-0.5-1.9 0.6-0.4 0.8-0.2 2.5 1.6 0.7 0.8 1.4 1.4 1.4 1.4 0 0 0-0.9-0.1-2-0.2-1.9-0.1-2.5 0.3-2.5 0.4 0 2.1 1.9 2.5 2.8 0.2 0.6 0.6 0.9 1.1 1.3 1.6 1 2.1 1.4 4 3.1 2.5 2.3 4.1 3.4 4.5 3 0.3-0.3-2.8-4.5-5.5-7.5-0.9-0.9-1.6-1.9-1.6-2.1 0-0.3 0.2-0.4 0.7-0.5 0.4-0.1 1-0.3 1.2-0.5 0.3-0.2 0.6-0.4 0.8-0.4 0.5 0 1.2 0.9 2.3 2.7 0.5 0.9 1.2 1.8 1.4 2 0.5 0.4 0.9 0.3 0.9-0.4 0-0.8-1-3.3-1.8-4.7-0.9-1.4-0.9-1.8 0-1.8 1 0 1.5-0.4 1.8-1.3 0.2-0.5 0.4-0.9 0.4-1 0.3-0.2 0.6 0.8 0.7 2.7 0.1 2 0.3 2.6 0.8 2.6 0.3 0 0.8-1.1 0.8-1.9 0-0.9 0.3-1.8 0.6-1.8 0.1 0 0.5 0.1 0.7 0.3 0.3 0.2 0.7 0.2 1.1 0.2l0.6-0.1-0.4 1.9c-0.2 1.1-0.4 2-0.3 2 0.1 0.1 0.5-0.2 0.9-0.6 0.5-0.4 0.9-0.7 1-0.7 0.3 0 0.4 0.6 0.1 1.6-0.3 1.1-0.4 1.8-0.2 2 0.1 0.1 0.4 0 0.7-0.2 0.6-0.3 0.6-0.3 1.4 0.3l0.8 0.6-1.2 0.8c-1.6 1.1-2.1 1.6-2.4 2.4-0.3 0.7-0.6 3.2-0.6 4.4l0 0.6 0.7-0.8c0.7-0.7 0.8-0.7 1-0.5 0.5 0.7 1.9-0.4 1.9-1.5 0-0.3 0.1-0.4 1.1-0.4 1.2 0 1.2 0 0.9 1.1-0.2 0.5-0.2 0.8 0 1.1 0.2 0.4 0.2 0.5-0.6 1-0.5 0.3-1.2 1-1.7 1.4-0.5 0.5-1.1 1-1.6 1.1-1.2 0.4-1.7 0.9-1.5 1.7 0.2 1.3 1.6 3.2 2.2 3.2 0.5 0 2.2-1.2 3.9-2.7 1.4-1.2 1.5-1.2 1.6-0.9 0.1 0.2 0.4 1.9 0.7 3.7 0.3 1.8 0.7 3.4 0.7 3.6 0.1 0.2-0.6 0.8-2 2-3.4 2.7-8.1 6.8-9.3 8.1-1.3 1.4-1.5 1.7-1.5 3.2 0 3 1.3 3.6 4.4 2.1 0.9-0.4 2-0.9 2.4-0.9l0.8-0.1-0.7 0.5c-0.7 0.5-1.1 1.1-0.9 1.5 0.1 0.1 0.6 0.2 1.1 0.2 0.6 0 1.1 0.1 1.3 0.2 0.5 0.3-0.2 0.5-1.6 0.5-1.8 0-2.6 0.3-2.6 0.9 0 0.3 0.2 1 0.5 1.6 0.3 0.6 0.5 1.3 0.5 1.5 0 0.4-0.4 0.4-1 0-0.4-0.3-0.5-0.3-0.9 0.1l-0.4 0.4-0.7-1.2c-1.2-1.8-2-2.2-2.6-1-0.3 0.5-0.3 0.9-0.2 2.4 0.2 2.6 0.7 5.6 1.1 6 0.4 0.5 1.5 0.4 2.8-0.1 1.2-0.5 2.5-0.6 2-0.2-0.1 0.1-1.1 0.5-2 0.9-1.9 0.7-2.3 0.9-2.1 1.3 0.2 0.6 1.2 0.9 3 0.9 1 0 1.8 0 1.9 0.1 0.3 0 0.1 0.8-0.5 1.3-1.2 1.2-2.9 1.2-3.7 0-1.3-2.1-1.6 1.7-0.4 4.3 0.3 0.6 1.1 1.8 1.8 2.6 0.7 0.8 1.3 1.6 1.3 1.7 0 0.3-0.5 0.3-1.2-0.2-0.5-0.3-0.6-0.3-0.8-0.1-0.2 0.4-0.2 0.9 0.1 1.8 0.1 0.4 0.3 0.8 0.3 0.8 0 0.5-2.8-3.2-3.5-4.6-0.3-0.7-0.6-1.5-0.7-3-0.1-1.1-0.3-2.3-0.4-2.5-0.3-0.7-0.8-0.6-1.4 0.4-1 1.6-0.8 2.9 1 6.7 0.6 1.3 1 2.4 1 2.7-0.1 0.4-0.2 0.4-0.9 0.5-0.5 0-0.9 0.1-1 0.3-0.1 0.1-0.2 0.8-0.2 1.5-0.1 0.7-0.2 1.5-0.3 1.7l-0.2 0.4-0.5-0.5c-0.3-0.3-0.7-0.9-0.9-1.4-0.3-0.8-0.4-1.2-0.3-4.1 0.1-3.5 0-3.7-0.8-3.5-0.7 0.2-1.1 1.3-1.4 4.1-0.2 2.1-0.5 3.2-0.7 3.2 0 0-0.2-0.4-0.4-0.9-0.4-1.1-0.6-1.4-1-1.4-0.6 0-0.8 0.6-0.4 2 0.3 1.5 0.3 2.5-0.1 2.5-0.2 0-0.3-0.3-0.4-0.9-0.1-0.5-0.2-1-0.2-1.1-0.4-0.6-1 0.1-1.3 1.5-0.1 0.8-0.4 1.3-0.6 1.3-0.3 0-0.5-1.3-0.5-2.5 0-1.6 0.4-2.5 2.2-4.3 1.4-1.5 1.5-1.6 1.5-2.3 0-0.4-0.1-1-0.3-1.2-0.4-0.7-0.3-1.1 0.5-3.2 1.3-3.3 1.6-4.5 0.9-4.5-0.4 0-1.5 1.3-2.1 2.5-0.6 1.2-1 2.4-1.4 4.9-0.2 1.1-0.5 2.2-0.7 2.5-0.4 0.6-2.7 2.8-3.2 3.1-0.3 0.2-0.3 0.1-0.2-0.3 0.1-0.3 0.2-0.8 0.4-1.2 0.4-1.1 0.3-1.2-0.3-1.1l-0.6 0.1 0.1-1.4c0.2-2.4 1.4-5.2 3.5-8.1 2.1-2.8 1.9-4.1-0.7-4.1-0.9 0-1 0.1-1.8 0.7-0.4 0.4-0.9 0.9-1 1.1-0.1 0.2-0.3 1.2-0.3 2.2-0.1 2.1-0.3 2.4-2.1 5.1l-1.2 1.7 0.2 2.9c0.2 2.8 0.1 4.3-0.2 4.8-0.1 0.2-0.2 0.2-0.7-0.1-0.3-0.2-0.6-0.3-0.7-0.2-0.1 0.1-0.1 0.6-0.1 1.2 0.1 1.2-0.1 1.7-0.8 1.5-0.4-0.1-0.4-0.2-0.8-2.4-0.5-3-0.8-2.8-1.7 1.1-0.6 2.7-0.8 3.1-1.8 3.1-0.3 0-0.8 0.2-1.3 0.7-0.8 0.7-1.1 0.8-1.2 0.6z" style="fill:#808080;"/>
<path d="m603.4 317c-3.9-0.8-7.3-3.4-8.8-6.7-0.6-1.3-1.5-4.9-2-8.3-0.5-3.1-0.5-8.7-0.1-10.8 1-4.5 2.8-7.9 6.2-11.2 2.1-2.1 3.7-3.3 5.5-4.2 1.4-0.7 1.4-0.7 3.5-0.7 2.5-0.1 3.2 0.1 5.4 1.2 3.9 1.9 6.2 6.4 5.4 10.2-0.3 1.3-1.2 3-2 3.8-0.8 0.8-2 1.3-3.9 1.5-2.4 0.3-2.6 0.4-3 1.3-0.4 1-0.6 3.9-0.3 5.4 0.3 1.4 0.8 2.3 2.4 4.4 0.7 1 1.5 2.1 1.7 2.5 1.6 3.2-0.3 8.4-3.8 10.7-1.6 1-4 1.4-6.3 0.9zm2.1-13.3c2-2 2.5-2.6 2.5-2.9 0-0.3-0.1-0.4-0.8-0.4-1.8 0-5 3.2-5 5 0 0.4 0.3 0.8 0.6 0.8 0.1 0 1.4-1.1 2.8-2.5zm3.3-12.8c0.2-0.2-0.2-0.9-0.8-1.4-0.7-0.6-4.5-3-4.6-3-0.1 0-0.2 0.1-0.3 0.2-0.3 0.4 0.1 1.5 0.9 2.3 1.3 1.4 4.2 2.5 4.9 1.9z"/>
<path d="m658.5 317c-2.9-0.8-5-3.2-6-6.6-0.3-1-0.3-1.5-0.3-2.6 0.1-1.8 0.4-2.5 2.2-4.8 2.2-2.9 2.5-3.7 2.5-6.6 0-2.1-0.2-3.3-0.7-3.9-0.3-0.4-0.6-0.4-2.2-0.6-2.4-0.3-3.2-0.6-4.2-1.5-1.4-1.3-2.4-4-2.3-6.2 0.2-2.2 1.1-4.2 3-6.1 1.3-1.3 2.6-2.1 4.6-2.8 1-0.3 1.4-0.4 3.3-0.3 2.1 0.1 2.2 0.1 3.4 0.6 2.3 1.1 5.2 3.4 7.3 6 2.3 2.7 3.6 5.3 4.4 8.7 0.6 2.4 0.7 7.4 0.3 10.5-0.6 4.2-1.5 8.1-2.5 10-1.4 2.7-4.3 5-7.6 5.9-1.5 0.4-4.2 0.6-5.2 0.3zm5.5-11.5c0.1-1.8-3.2-5.2-5.1-5.2-0.6 0-0.8 0.4-0.6 0.9 0.1 0.2 1.2 1.3 2.5 2.6 1.9 1.8 2.5 2.3 2.7 2.3 0.3 0 0.4-0.2 0.4-0.7zm-4.2-14.9c1.8-0.7 3.1-2 3.3-3.2 0.1-0.6-0.2-1-0.6-0.9-0.2 0.1-1.3 0.8-2.6 1.6-2.5 1.6-3.1 2.3-2.6 2.8 0.3 0.3 1 0.2 2.4-0.3z"/>
<path d="m646.6 317.4c-0.2-0.2-0.5-0.6-0.7-1-0.3-0.6-0.3-1-0.4-4.3 0-2.6 0-3.8 0.2-4.3 0.1-0.4 0.8-2 1.6-3.6 1.6-3.4 1.8-3.9 2.2-6.6 0.5-3.1 0.6-3.5 1.8-4.7 0.5-0.6 0.8-0.7 1-0.6 0.2 0.1 0.9 0.2 1.7 0.2 0.8 0 1.5 0.2 1.7 0.3 0.4 0.3 0.6 1.5 0.6 3.4 0 3-0.4 3.9-3 7.1-0.3 0.3-0.7 1.1-1 1.7-0.3 0.8-0.5 1-0.5 0.8-0.1-0.2-0.2-0.1-0.4 0.5-0.8 1.8-1.1 3.2-1.3 5.5-0.2 3.1-0.3 3.6-0.7 4.5-0.5 1.1-0.7 1.3-1.6 1.3-0.6 0-0.9-0.1-1.1-0.3z"/>
<path d="m617.7 317.7c-0.4-0.2-1-1.5-1.2-2.5-0.1-0.5-0.2-1.9-0.3-3-0.1-1.4-0.2-2.5-0.5-3.4-0.5-1.8-1.2-3.2-1.3-3-0.1 0.1-0.2-0.1-0.5-0.7-0.2-0.5-0.6-1.3-1-1.8-2.7-3.3-2.8-3.7-2.8-7 0-3.5 0.2-3.8 2.6-3.8 0.5 0 1.1-0.1 1.3-0.2 0.3-0.1 0.4 0 1.1 0.7 1 1 1.3 2 1.7 4.8 0.3 2.4 0.7 3.4 2.2 6.6 0.8 1.6 1.4 3.1 1.5 3.8 0.2 0.7 0.2 2.1 0.2 4.2 0 2.9 0 3.1-0.4 3.9-0.2 0.4-0.5 1-0.6 1.1-0.3 0.3-1.6 0.6-2 0.4z"/>
<g transform="matrix(0.07461733 0 0 0.07461733 440.17131 151.49571)">
<path d="m-850.4 146.2c0 0 16.4 117.9-1.4 176.5-15.1 49.5-37.2 91.2-38.1 142-1.1 56.3 27.7 91.4 42.2 146.5 10.8 41.1 9.3 84.8 11.2 126.1 1.9 41.3 108.9 31 107 0.4-1.9-30.5 0.5-134.1 12.9-200.3 6.2-33 32.5-64.1 30.6-97.3-2.3-40.2-40.8-74.6-50.3-114.1-14.2-59.7-15.7-182.2-15.7-182.2-37.4-23.5-62.8-13.1-98.4 2.5z"/>
</g>
<path d="m394.7 185c-2.7-5 3.3-16.4 7.2-15.6-1.2-2.6-1.3-2.2-3.2-5 0.7-0.7 5.3-3.8 5.7-1.9 1.1 4.4 0.6 4.3 1.6 4.8 2.1 1 1.5-1.9 0.9-5.8-0.2-1.4 5-1.5 4.5-0.2-0.6 1.6-1.6 6.3-0.2 5.3 1.4-1 1.4-3.5 2.7-4.1 1.2-0.5 1.8 0.2 2.5 1.3 0.6 1.2-1.1 2.7-0.7 4 0.7 2.5 2 3.3 3.2 5.6 1.2 2.4 3.4 4.8 3.7 9 0.3 4.2-3.6 3-2.9 5.3 1.2 3.6-2.5-5.6-3.9-8.3-0.6-1.1-0.8-3.1-2-3.2-2-0.2-5.7 0.5-6.3 0.9-3.5 2.8-4.1 4-6.4 7.5-1.2 1.9-4.9 2-6.4 0.4z"/>
<path d="m386.5 192.5c-6.5-7.5-0.1-12.1 6.1-13.8 2.8-0.7 5.3 2.8 8.1 2.5 3.9-0.4 8.4-6.9 12.3-6.6 1.7 0.1 3.9 1.6 4.8 3.1 3 4.5 0.9 11.1 1.9 16.9 1.1 5.6 2.2 13.6-2.2 17-5.7 4.4-15.9 1.2-20.9-4-4.7-4.8-6-10.8-10.3-15z" style="fill:#808080;"/>
<path d="m411.7 173.5c-4.5 0.8-6.7 6.1-11.4 6.4-3.3 0-5.8-3.5-9.2-2.8-4.9 0.2-8.3 1.8-9.7 6.2-1 4.3 0.3 6.6 2.4 8.9 5.3 5 7.2 12.6 12.7 17.4 5 4.3 11.7 6.8 18.3 6 3.6-0.4 7.3-2.6 8.3-6.3 1.7-5.8 0-11.8-0.9-17.6-0.8-5.3-0.9-11.1-4.4-15.4-1.6-1.6-3.8-3.1-6.2-2.8zm-1 3c5.7-0.6 8.9 4.7 0.1 13.2 8.3-6.3 8.1 1.9 9.2 6.6 0.7 4 1.1 8.3-0.4 12.2-0.9 2.3-2 5-4.2 1.4-3.7-5.9-8.1-15.7-5.2-19.2-4.1 0.8-12.8-4.2-11.8 3.4 1.3-2.2 1.7-4.2 4.1-3.6 3.1 0.8 3.3 5 4.6 7.7 1.1 4 3.2 8.4 2.1 12.5-0.5 2-3.4 1.3-5.2 0.5-4.4-1.8-8.1-4.9-10.5-9-2.1-3.3-2.2-5.2 3-7.3-3.7-0.8-13.3-0.3-11.4-10.2 0.8-4.4 5.3-5.4 8.5-4.9 3.4 0.5 5.3 3.4 8.5 2.3 3.2-1.1 5.4-5.1 8.8-5.7z"/>
</svg>
