<svg xmlns="http://www.w3.org/2000/svg" viewBox="0 0 512 384">
<rect width="512" height="384" id="P007WIImgRct3" fill="#fff"/>

<path d="m 172.19926,355.99792 c -0.22636,-0.67907 -1.47132,-9.84657 -1.69768,-13.01559 -0.67908,-7.69617 0.11318,-16.97685 2.26358,-27.95521 2.03722,-10.52565 6.56438,-24.67303 12.90241,-40.17856 0.79225,-1.81086 1.5845,-4.3008 1.81086,-5.54577 1.13179,-6.22485 1.81087,-19.35362 1.58451,-31.57695 -0.33954,-15.05281 -2.03722,-38.70723 -3.28219,-44.253 -0.45272,-2.26358 -1.69769,-1.35815 -3.50855,2.7163 -3.73491,8.14889 -5.20624,14.93963 -6.11167,29.42654 -0.79225,12.4497 -1.92404,18.22183 -3.39537,18.67454 -0.33954,0.11318 -5.20624,-7.35663 -18.44818,-28.0684 l -10.86519,-17.20321 0.45272,-2.37676 c 1.5845,-7.58299 1.81086,-11.3179 2.48993,-44.13982 0.45272,-21.27765 0.90544,-31.57695 1.69769,-35.0855 1.24497,-5.88531 4.41398,-13.24194 7.24346,-17.09003 4.41398,-5.772132 11.65744,-10.978368 18.67454,-13.355127 2.71629,-0.905432 5.20623,-1.358148 15.27917,-3.055834 9.62021,-1.584506 13.12876,-2.489938 19.69315,-5.319414 6.90392,-2.942655 10.63883,-5.206235 12.44969,-7.243458 1.35815,-1.584506 3.50855,-5.885309 4.18762,-8.601606 1.01861,-4.074445 1.01861,-12.223335 -0.11318,-16.071422 -0.22635,-0.679074 -0.90543,-2.037222 -1.5845,-3.055833 -0.67908,-1.018611 -1.69769,-2.489939 -2.26358,-3.282192 -1.24497,-1.924043 -3.05584,-5.77213 -3.73491,-7.809353 -0.22636,-0.792253 -0.45272,-1.697685 -0.5659,-1.810864 -0.11317,-0.226358 7.69618,-0.339537 38.36769,-0.339537 h 38.48087 v 0.565895 c 0,1.924043 -3.05583,8.262069 -5.20623,11.091544 -3.16901,4.187624 -3.50855,5.093056 -3.50855,13.128767 0,5.093057 0,5.658952 0.67907,7.922532 1.69769,6.224847 4.52716,9.733397 10.07294,12.676051 6.67756,3.50855 14.37373,5.658952 29.31336,8.14889 11.09155,1.810865 14.82646,2.942655 19.57998,5.658951 4.64034,2.716297 10.18611,7.69617 12.56287,11.43108 3.50855,5.20624 6.33802,13.46831 6.90392,19.57998 0.45271,4.75352 0.90543,17.42957 1.47133,44.59253 0.22635,9.62022 0.56589,19.57998 0.90543,22.74899 0.22636,2.37676 1.35815,8.82796 1.69768,10.07293 0.11318,0.22636 -0.90543,2.03722 -2.26358,4.18763 -16.75049,26.48389 -23.99395,37.68861 -25.91799,40.40491 -1.01862,1.35815 -1.01862,1.35815 -1.47133,0.90543 -1.24497,-1.13179 -2.26358,-7.0171 -2.94266,-18.10864 -0.79225,-12.67606 -1.81086,-18.33501 -4.3008,-25.23893 -1.13179,-3.05583 -2.7163,-6.33802 -3.50855,-7.46981 -0.67907,-0.90544 -1.58451,-1.13179 -1.81086,-0.45272 -0.67908,2.37676 -1.92405,14.48692 -2.82948,29.20019 -0.90543,13.69466 -1.13179,38.14133 -0.33954,44.70572 0.33954,2.60311 1.24497,5.43259 4.41399,13.35512 6.79074,16.86368 11.99697,36.33047 12.9024,48.44062 0.33954,4.18763 0.33954,13.01559 0,17.20322 -0.33953,4.07444 -1.24496,10.07293 -1.69768,10.63882 -0.33954,0.45272 -4.41398,0.45272 -83.41294,0.5659 -69.37875,0.11318 -83.07341,0 -83.18659,-0.22636 z" style="fill:#808080;"/>
<path d="m 223.12982,309.93406 c -4.41398,-0.90543 -8.26206,-3.84809 -9.95975,-7.583 -0.67907,-1.47132 -1.69768,-5.54577 -2.26358,-9.39386 -0.5659,-3.50855 -0.5659,-9.84657 -0.11318,-12.22333 1.13179,-5.09306 3.16901,-8.94114 7.0171,-12.67605 2.37676,-2.37676 4.18762,-3.73491 6.22485,-4.75352 1.5845,-0.79225 1.5845,-0.79225 3.96126,-0.79225 2.82948,-0.11318 3.62173,0.11318 6.11167,1.35814 4.41398,2.15041 7.0171,7.24346 6.11167,11.54427 -0.33954,1.47132 -1.35815,3.39537 -2.26358,4.3008 -0.90543,0.90543 -2.26358,1.47133 -4.41398,1.69768 -2.7163,0.33954 -2.94266,0.45272 -3.39538,1.47133 -0.45271,1.13179 -0.67907,4.41398 -0.33953,6.11167 0.33953,1.58451 0.90543,2.60312 2.71629,4.97988 0.79226,1.13179 1.69769,2.37676 1.92405,2.82947 1.81086,3.62173 -0.33954,9.50704 -4.30081,12.11016 -1.81086,1.13179 -4.52716,1.5845 -7.13027,1.01861 z m 2.37676,-15.05281 c 2.26358,-2.26358 2.82948,-2.94266 2.82948,-3.28219 0,-0.33954 -0.11318,-0.45272 -0.90543,-0.45272 -2.03722,0 -5.65895,3.62173 -5.65895,5.65895 0,0.45272 0.33953,0.90543 0.67907,0.90543 0.11318,0 1.58451,-1.24497 3.16901,-2.82947 z m 3.73491,-14.48692 c 0.22636,-0.22636 -0.22636,-1.01861 -0.90543,-1.5845 -0.79225,-0.67908 -5.09306,-3.39537 -5.20624,-3.39537 -0.11317,0 -0.22635,0.11317 -0.33953,0.22635 -0.33954,0.45272 0.11318,1.69769 1.01861,2.60312 1.47133,1.58451 4.75352,2.82948 5.54577,2.1504 z" />
<path d="m 285.49147,309.93406 c -3.28219,-0.90543 -5.65895,-3.62173 -6.79074,-7.46982 -0.33954,-1.13179 -0.33954,-1.69768 -0.33954,-2.94265 0.11318,-2.03722 0.45272,-2.82948 2.48994,-5.43259 2.48994,-3.2822 2.82947,-4.18763 2.82947,-7.46982 0,-2.37676 -0.22635,-3.73491 -0.79225,-4.41398 -0.33954,-0.45272 -0.67907,-0.45272 -2.48994,-0.67908 -2.71629,-0.33953 -3.62173,-0.67907 -4.75352,-1.69768 -1.5845,-1.47133 -2.71629,-4.52716 -2.60311,-7.0171 0.22635,-2.48994 1.24496,-4.75352 3.39537,-6.90392 1.47132,-1.47133 2.94265,-2.37676 5.20623,-3.16902 1.13179,-0.33953 1.58451,-0.45271 3.73491,-0.33953 2.37676,0.11318 2.48994,0.11318 3.84809,0.67907 2.60311,1.24497 5.88531,3.84809 8.26207,6.79074 2.60311,3.05584 4.07444,5.99849 4.97987,9.84658 0.67908,2.7163 0.79226,8.37525 0.33954,11.8838 -0.67907,4.75352 -1.69769,9.1675 -2.82948,11.3179 -1.5845,3.05583 -4.86669,5.65895 -8.6016,6.67756 -1.69769,0.45272 -4.75352,0.67908 -5.88531,0.33954 z m 6.22485,-13.01559 c 0.11317,-2.03722 -3.62173,-5.88531 -5.77214,-5.88531 -0.67907,0 -0.90543,0.45272 -0.67907,1.01861 0.11318,0.22636 1.35815,1.47133 2.82948,2.94266 2.1504,2.03722 2.82947,2.60311 3.05583,2.60311 0.33954,0 0.45272,-0.22635 0.45272,-0.79225 z M 286.9628,280.0548 c 2.03722,-0.79226 3.50855,-2.26358 3.7349,-3.62173 0.11318,-0.67908 -0.22635,-1.13179 -0.67907,-1.01861 -0.22636,0.11317 -1.47133,0.90543 -2.94266,1.81086 -2.82947,1.81086 -3.50854,2.60312 -2.94265,3.16901 0.33954,0.33954 1.13179,0.22636 2.7163,-0.33953 z" />
<path d="m 272.02316,310.38677 c -0.22635,-0.22635 -0.56589,-0.67907 -0.79225,-1.13179 -0.33954,-0.67907 -0.33954,-1.13179 -0.45271,-4.86669 0,-2.94266 0,-4.30081 0.22635,-4.8667 0.11318,-0.45272 0.90544,-2.26358 1.81087,-4.07445 1.81086,-3.84808 2.03722,-4.41398 2.48994,-7.46981 0.56589,-3.50855 0.67907,-3.96127 2.03722,-5.31942 0.56589,-0.67907 0.90543,-0.79225 1.13179,-0.67907 0.22636,0.11318 1.01861,0.22636 1.92404,0.22636 0.90543,0 1.69769,0.22636 1.92405,0.33953 0.45271,0.33954 0.67907,1.69769 0.67907,3.84809 0,3.39537 -0.45272,4.41398 -3.39537,8.03571 -0.33954,0.33954 -0.79225,1.24497 -1.13179,1.92405 -0.33954,0.90543 -0.5659,1.13179 -0.5659,0.90543 -0.11318,-0.22636 -0.22635,-0.11318 -0.45271,0.56589 -0.90543,2.03723 -1.24497,3.62173 -1.47133,6.22485 -0.22636,3.50855 -0.33954,4.07444 -0.79225,5.09306 -0.5659,1.24496 -0.79226,1.47132 -1.81087,1.47132 -0.67907,0 -1.01861,-0.11318 -1.24497,-0.33953 z" />
<path d="m 239.31443,310.72631 c -0.45272,-0.22636 -1.13179,-1.69768 -1.35815,-2.82947 -0.11318,-0.5659 -0.22636,-2.15041 -0.33954,-3.39537 -0.11318,-1.58451 -0.22636,-2.82948 -0.56589,-3.84809 -0.5659,-2.03722 -1.35815,-3.62173 -1.47133,-3.39537 -0.11318,0.11318 -0.22636,-0.11318 -0.5659,-0.79226 -0.22636,-0.56589 -0.67907,-1.47132 -1.13179,-2.03722 -3.05583,-3.73491 -3.16901,-4.18762 -3.16901,-7.92253 0,-3.96127 0.22636,-4.3008 2.94265,-4.3008 0.5659,0 1.24497,-0.11318 1.47133,-0.22636 0.33954,-0.11318 0.45272,0 1.24497,0.79225 1.13179,1.13179 1.47133,2.26358 1.92404,5.4326 0.33954,2.71629 0.79226,3.84808 2.48994,7.46981 0.90544,1.81087 1.58451,3.50855 1.69769,4.3008 0.22636,0.79226 0.22636,2.37676 0.22636,4.75352 0,3.2822 0,3.50855 -0.45272,4.41399 -0.22636,0.45271 -0.56589,1.13179 -0.67907,1.24496 -0.33954,0.33954 -1.81087,0.67908 -2.26358,0.45272 z" />
</svg>
