<svg xmlns="http://www.w3.org/2000/svg" viewBox="0 0 512 384">
<rect width="512" height="384" x="0" y="0" fill="none"/>
<path style="fill:#808080" d="m 172.31948,355.23936 c -0.22649,-0.63982 -1.42317,-9.8952 -1.68692,-13.04689 -0.64216,-7.67302 0.0979,-16.98455 2.22346,-27.97579 2.02842,-10.48907 6.60594,-24.71407 12.93336,-40.19166 0.76012,-1.85936 1.56386,-4.33908 1.78609,-5.51062 1.17916,-6.21598 1.85301,-19.35774 1.61704,-31.5358 -0.29114,-15.02557 -2.06083,-38.67256 -3.31151,-44.24945 -0.50864,-2.26808 -1.68651,-1.38119 -3.55187,2.67445 -3.76601,8.18798 -5.17065,14.91644 -6.13365,29.38132 -0.82543,12.39824 -1.88379,18.2213 -3.40394,18.72799 -0.35095,0.11694 -5.23829,-7.32571 -18.45232,-28.1002 l -10.91522,-17.1604 0.49437,-2.40524 c 1.56484,-7.6135 1.7712,-11.28377 2.48099,-44.12799 0.45878,-21.2291 0.95654,-31.57768 1.68716,-35.07706 1.22668,-5.87509 4.36559,-13.27185 7.26494,-17.119568 4.36674,-5.795109 11.64112,-10.999603 18.65338,-13.345671 2.67988,-0.896592 5.15849,-1.383671 15.27987,-3.00268 9.57719,-1.531956 13.08139,-2.485546 19.69021,-5.358247 6.86742,-2.985111 10.60981,-5.172548 12.42956,-7.265109 1.41489,-1.627024 3.45892,-5.861117 4.16438,-8.626286 1.05207,-4.1238 0.96972,-12.272765 -0.16251,-16.085471 -0.20554,-0.692091 -0.91228,-2.049793 -1.57053,-3.017126 -0.65825,-0.967321 -1.66416,-2.450622 -2.23535,-3.296227 -1.27357,-1.8854 -3.09201,-5.728625 -3.6927,-7.804443 -0.24547,-0.848266 -0.50126,-1.688075 -0.56845,-1.866234 -0.0974,-0.258239 7.68773,-0.323942 38.389,-0.323942 l 38.5111,0 0,0.537398 c 0,1.871113 -3.00241,8.308208 -5.18867,11.124251 -3.22218,4.150459 -3.45688,5.038696 -3.45755,13.086945 0,5.0419 0.0488,5.625179 0.67043,7.931558 1.66299,6.170265 4.5179,9.780801 10.04901,12.708688 6.65887,3.524865 14.35625,5.655733 29.31452,8.115129 11.0916,1.823647 14.8673,2.913839 19.53478,5.64053 4.62679,2.702907 10.14242,7.720767 12.61136,11.473195 3.45795,5.2557 6.37435,13.47015 6.94643,19.56564 0.45077,4.80299 0.85885,17.45886 1.43721,44.57339 0.20413,9.56797 0.60636,19.57939 0.9163,22.80498 0.22332,2.32365 1.31065,8.85752 1.68432,10.12088 0.0655,0.2216 -0.9494,2.08747 -2.25538,4.14641 -16.79861,26.48287 -24.03821,37.74432 -25.95094,40.36769 -0.97102,1.33172 -1.02381,1.36432 -1.50455,0.92928 -1.25593,-1.13656 -2.2211,-7.06501 -2.94955,-18.11749 -0.83608,-12.68509 -1.80143,-18.31797 -4.33027,-25.26685 -1.09266,-3.00227 -2.67418,-6.39218 -3.46751,-7.43234 -0.71302,-0.93479 -1.55262,-1.12833 -1.76516,-0.40688 -0.68665,2.33111 -1.87957,14.47147 -2.87342,29.24313 -0.92006,13.67573 -1.13563,38.1789 -0.39337,44.71152 0.29782,2.62111 1.23645,5.46364 4.39609,13.31326 6.77103,16.82154 11.99444,36.34739 12.95652,48.43342 0.33082,4.15648 0.33497,12.98316 0.008,17.18707 -0.31819,4.09117 -1.2689,10.04271 -1.69789,10.62956 -0.31848,0.43549 -4.36069,0.46198 -83.41096,0.54722 -69.4397,0.0747 -83.09656,0.0328 -83.19973,-0.25924 z" />
<path style="fill:#000000;" d="m 208.52514,282.11865 c 0.0207,-3.24752 -0.65496,-9.62818 -1.50126,-14.1793 -3.7734,-20.29472 5.59446,-35.69069 22.66438,-37.24874 7.92467,-0.72328 17.6383,0.42666 19.25971,2.28005 0.716,0.81838 3.16416,3.10772 5.44044,5.0875 l 4.1387,3.59958 -1.54903,3.57956 c -0.85198,1.96874 -1.47464,4.42981 -1.38363,5.46901 0.091,1.03921 0.24756,3.01588 0.3481,4.39256 0.10052,1.37666 1.86531,4.71414 3.92167,7.41659 2.05647,2.70247 3.73899,5.03792 3.73899,5.18991 0,0.15199 -0.8085,0.55074 -1.79666,0.88608 -1.20993,0.41055 -2.5861,-0.25061 -4.21407,-2.02459 l -2.4174,-2.63429 -1.75191,2.16336 c -4.14513,5.1187 -10.62637,8.82795 -17.43217,9.97659 -1.96675,0.33194 -7.92138,3.15661 -13.23244,6.2771 -5.31117,3.12047 -10.69475,5.6736 -11.96371,5.6736 -2.12177,0 -2.30404,-0.47419 -2.26971,-5.90457 z M 258.51306,257.124 c -1.23125,-2.65577 -0.81068,-11.49686 0.60654,-12.75019 2.06312,-1.82454 1.47829,-4.59359 -1.39194,-6.59014 -3.97458,-2.76488 -3.55792,-4.92605 0.80122,-4.15607 1.90958,0.33724 9.2406,0.86145 16.29126,1.16489 12.84214,0.55264 18.69486,1.9473 18.69486,4.45489 0,2.0791 -3.42278,4.07317 -9.72747,5.6672 -4.13402,1.04517 -8.22455,3.13485 -13.20907,6.74802 -9.58706,6.94961 -11.06532,7.6187 -12.0654,5.4614 z"/>
</svg>
