<svg xmlns="http://www.w3.org/2000/svg" viewBox="0 0 512 384">
<rect width="512" height="384" x="0" y="0" fill="none"/>
<circle transform="rotate(-13.244032)" r="153.46951" cy="246.43155" cx="201.74792" style="fill:none;stroke:#808080;stroke-width:13.5215435" />
<path d="m 262.92422,314.6521 c -1.62258,-0.94651 -2.16345,-1.62258 -3.5156,-5.2734 -3.38039,-8.51857 -4.19168,-10.27637 -6.35513,-13.25111 -1.21693,-1.62259 -7.70728,-8.38336 -14.46805,-15.00892 -16.09063,-15.8202 -19.47102,-20.28231 -20.1471,-26.77265 -0.67607,-5.67905 0.94651,-9.73551 9.32987,-22.44576 6.21991,-9.46509 10.14116,-17.03715 12.43982,-23.93314 2.16345,-6.62555 2.83952,-10.5468 2.56909,-16.49628 -0.13521,-4.59732 -0.27043,-5.2734 -2.02823,-8.51857 -1.08172,-2.16345 -2.70431,-4.46211 -3.92125,-5.67905 -2.02823,-1.89302 -2.29866,-2.02823 -6.76077,-2.56909 -10.00594,-1.21694 -15.82021,0.13521 -20.28231,4.59732 -4.46211,4.46211 -6.35513,10.27637 -7.03121,21.36404 -0.54086,8.38336 -1.08172,11.08767 -2.97474,14.33284 -1.7578,2.97474 -4.32689,4.86775 -8.11292,5.94948 -3.5156,0.9465 -12.98068,1.89301 -13.65676,1.35215 -0.27043,-0.27043 1.7578,-1.7578 5.54383,-3.92125 6.76077,-4.05646 9.87073,-6.62555 10.68202,-9.05943 0.81129,-2.5691 0.27043,-8.92422 -1.08172,-11.62853 -1.21694,-2.29866 -1.7578,-2.70431 -9.05944,-4.59732 -3.24517,-0.8113 -7.16641,-3.65082 -8.789,-6.21991 -2.29866,-3.92125 -4.59732,-6.35513 -7.43685,-8.24815 l -2.83952,-1.89301 2.83952,0.27043 c 4.73254,0.54086 8.38336,2.70431 11.3581,6.76077 2.29866,3.10996 4.32689,4.46211 6.89598,4.46211 3.65082,0 6.21991,-2.29866 9.6003,-8.65379 3.65082,-7.16642 7.43685,-10.41159 18.52451,-16.22585 3.38039,-1.7578 6.35513,-3.38039 6.49035,-3.38039 0.13521,-0.13521 -3.10996,-3.5156 -7.30164,-7.70728 -4.05646,-4.19167 -8.92422,-9.46508 -10.81723,-11.89895 -3.24517,-4.05647 -5.13819,-5.67905 -6.89599,-5.67905 -1.35215,0 -5.2734,2.02823 -10.95245,5.67905 -11.62853,7.43685 -12.16939,7.43685 -20.41753,0 -1.89302,-1.7578 -3.38039,-3.24517 -3.24517,-3.24517 0.13522,0 2.97474,0.9465 6.21991,2.02823 4.59732,1.62258 6.21991,1.89301 7.70728,1.62258 2.29866,-0.40564 4.73254,-2.97474 6.89599,-7.16641 2.29866,-4.59733 2.29866,-6.89599 -0.13522,-12.16939 l -1.7578,-3.92125 v -7.43685 c 0,-10.276371 0.54086,-11.087671 2.56909,-3.24517 1.7578,7.0312 4.46211,12.57503 6.89599,14.60327 1.35215,1.08172 2.70431,1.48737 6.0847,2.02823 6.62555,0.94651 8.92421,2.43388 13.11589,8.24814 5.2734,7.16642 10.14116,10.81723 15.41456,11.22288 3.38039,0.27043 6.0847,-1.08172 7.70728,-3.65082 0.94651,-1.62258 1.08172,-2.43387 1.08172,-5.94948 0,-7.43684 -4.05646,-16.22585 -10.41158,-22.98662 -3.65082,-3.92125 -7.16642,-5.94948 -12.16939,-7.30163 -5.94948,-1.48737 -9.6003,-3.515601 -6.35513,-3.515601 2.70431,0 4.59733,-1.89302 4.59733,-4.46211 0,-3.92125 8.11292,-17.30758 10.5468,-17.30758 1.21694,0 0.40565,3.65082 -1.7578,8.65379 -1.08172,2.43388 -1.89302,4.73254 -1.89302,5.13819 0,1.7578 1.48737,3.65081 3.92125,4.86775 3.92125,1.89302 5.00297,1.7578 8.11293,-1.48737 5.13818,-5.2734 8.24814,-11.08766 7.57206,-13.79197 -0.13521,-0.67608 -1.7578,-2.97474 -3.5156,-4.86776 -3.5156,-4.05646 -3.5156,-3.92125 2.29866,-1.7578 3.24517,1.21694 5.54384,2.70431 6.62556,3.92125 1.21694,1.48737 0.67608,3.92125 -2.02823,9.87072 -3.92125,8.92422 -4.46211,13.251121 -1.89302,20.011891 0.67608,1.62258 2.29866,6.49034 3.78603,10.81723 1.48737,4.3269 3.24517,8.78901 3.78604,10.00595 1.35215,2.56909 3.65081,4.86775 5.13818,4.86775 2.83953,0 6.21991,-3.10995 10.54681,-9.60029 3.38038,-5.13819 10.68202,-11.89896 15.95542,-15.14413 5.67905,-3.38039 7.0312,-4.59733 6.62555,-6.62556 -0.13521,-0.81129 -1.7578,-3.786031 -3.65081,-6.625561 -3.92125,-5.81426 -4.19168,-6.76077 -1.89302,-5.94947 2.29866,0.81129 6.89599,5.40861 8.65379,8.65378 1.35215,2.569101 1.62258,3.515601 1.62258,6.219911 v 3.10996 l 1.89302,1.08172 c 3.92125,2.16345 13.1159,3.5156 17.84844,2.56909 2.56909,-0.54086 3.10995,-0.81129 5.81426,-3.65081 1.62259,-1.7578 3.78603,-4.46211 4.73254,-5.94948 0.94651,-1.62259 1.89302,-2.839521 2.02823,-2.704311 0.27043,0.27043 -1.7578,7.436851 -2.97474,10.276371 -3.10995,6.89599 -8.65379,9.19465 -21.49925,8.65379 -7.16642,-0.27043 -12.43982,0.54086 -17.17236,2.97474 -7.57207,3.78603 -13.1159,12.98068 -12.03417,20.1471 0.54086,3.10996 2.97473,7.0312 5.81426,8.92422 2.97474,2.02823 6.35512,3.10995 11.08766,3.38038 10.68202,0.8113 18.79495,-4.05646 26.63744,-16.22585 3.51561,-5.2734 7.03121,-9.32986 8.24815,-9.32986 1.35215,0 0.81129,0.81129 -1.89302,3.10995 -1.48737,1.21694 -2.70431,2.5691 -2.70431,2.97474 0,1.08173 2.83953,2.83953 11.49331,7.16642 7.97771,3.92125 12.16939,6.62556 12.16939,7.70728 0,1.21694 -4.86775,0 -9.32986,-2.29866 -3.78603,-2.02823 -4.86776,-2.29866 -7.16642,-2.29866 -3.10996,0 -5.00297,0.9465 -6.21991,3.24517 -0.54086,1.08172 -0.81129,2.97474 -0.81129,7.0312 0,4.46211 -0.27043,6.08469 -1.08173,8.24814 -1.62258,4.32689 -5.2734,8.51857 -6.08469,7.16642 -0.67608,-0.94651 0.81129,-3.78603 3.10995,-5.94948 2.70431,-2.56909 2.97474,-3.78603 1.48737,-6.35513 -2.16344,-3.38038 -4.59732,-3.38038 -11.08766,-0.13521 -5.13819,2.70431 -11.22288,4.86775 -17.71322,6.35512 -5.94948,1.35216 -7.16642,1.89302 -9.46508,3.5156 -4.46211,2.97474 -5.54384,8.38336 -2.83953,13.79198 2.02823,4.19168 5.67905,8.51857 8.65379,10.27637 3.92125,2.29866 6.76077,2.70431 15.68499,2.29866 4.19168,-0.27043 10.81723,-0.40564 14.73848,-0.40564 8.11293,0 9.6003,0.54086 12.71025,4.19168 1.7578,2.02823 6.89599,11.35809 6.49034,11.76374 -0.13521,0.13521 -1.35215,-1.08172 -2.83952,-2.70431 -5.00297,-5.81426 -9.32987,-7.57206 -17.03715,-7.0312 -6.35512,0.40564 -10.95245,1.48737 -11.89895,2.70431 -0.67608,0.81129 -0.8113,2.02823 -0.8113,5.94948 0,5.13818 -0.67607,8.789 -2.43387,12.84546 -1.08173,2.43388 -3.10996,4.73254 -3.65082,4.19168 -0.13522,-0.13522 0.40565,-2.43388 1.21694,-5.13819 2.29866,-7.16641 1.89301,-10.27637 -1.48737,-13.38632 -1.48737,-1.35216 -8.38336,-5.00298 -9.6003,-5.00298 -1.08172,0 -7.16642,-2.7043 -9.73551,-4.19167 -3.5156,-2.16345 -5.81426,-4.46211 -9.05943,-8.65379 -2.83953,-3.92125 -5.2734,-5.94948 -6.89599,-5.94948 -1.08172,0 -1.08172,0.13521 -0.81129,3.78603 0.40564,5.40862 -0.40565,12.03417 -2.70431,18.52452 -3.78603,11.22288 -7.57206,17.98365 -17.17236,30.42347 -6.62556,8.65379 -8.38336,11.62853 -8.789,15.54977 -0.67608,6.76077 5.13818,14.8737 19.47102,27.17831 12.71025,11.08766 16.76671,12.84546 31.36998,14.19762 6.76077,0.67607 10.5468,1.62258 13.1159,3.65081 1.62258,1.21694 6.35512,7.30164 6.35512,8.11293 0,0.27043 -1.48737,-0.81129 -3.38038,-2.29866 -4.46211,-3.38039 -8.24815,-4.59733 -14.73849,-5.00298 -7.70728,-0.40564 -12.57503,1.08173 -14.19762,4.46211 -0.81129,1.7578 0,6.89599 1.48737,8.78901 1.89302,2.29866 3.5156,2.83952 9.05944,2.43388 5.13818,-0.27044 5.13818,-0.27044 3.92124,0.67607 -1.48737,1.21694 -3.92124,1.89302 -8.24814,2.16345 -3.10995,0.27043 -3.92124,0.13521 -5.54383,-0.94651 z M 254,166.5912 c 0.67608,-0.54086 2.02823,-2.43388 2.97474,-4.32689 2.02823,-3.92125 2.02823,-5.2734 -0.13521,-8.65379 -2.16345,-3.5156 -6.89599,-6.21991 -10.81724,-6.21991 -5.13818,0 -8.65379,5.00297 -8.65379,12.57503 0,3.51561 0,3.65082 1.48737,4.86776 2.02824,1.7578 5.81427,2.70431 10.14116,2.83952 2.97474,0 3.92125,-0.13521 4.86776,-0.9465 z" />
</svg>
