<svg xmlns="http://www.w3.org/2000/svg" viewBox="0 0 512 384">
<rect width="512" height="384" id="P007WIImgRct8" fill="#fff"/>

<path d="m 134.84221,350.18573 c 0,-1.49018 3.65773,-10.29582 7.5864,-18.01768 8.9411,-17.74674 15.71466,-37.11913 19.37239,-54.86587 1.8966,-9.07658 1.21924,-27.09426 -1.35471,-36.84819 -0.9483,-3.7932 -1.76113,-7.04451 -1.62566,-7.17998 0.27094,-0.27094 12.19242,7.31545 26.55237,16.79844 23.30107,15.5792 49.44702,30.34557 86.43069,48.90514 l 17.06938,8.53469 -2.43848,2.98036 c -8.12828,10.02488 -11.51506,18.28863 -13.95355,34.40971 l -0.9483,6.09621 h -68.413 c -44.02817,0 -68.413,-0.27094 -68.413,-0.67736 z m 184.91831,-45.38288 c -4.19961,-0.54188 -11.51506,-1.08377 -16.12108,-1.08377 l -8.39922,-0.13547 -11.92147,-5.14791 c -25.46861,-11.24412 -54.32399,-26.55237 -86.97257,-46.60212 -23.30106,-14.22449 -41.45422,-28.85539 -46.06024,-36.98367 -1.35471,-2.30301 -5.01244,-8.39921 -8.26375,-13.27618 -10.97317,-17.20486 -15.17278,-28.3135 -16.79844,-45.65383 -0.9483,-9.21204 -0.54188,-26.14595 0.81283,-35.76442 4.33508,-31.022924 28.85538,-65.703574 55.6787,-78.573344 6.90903,-3.38679 19.50786,-6.77357 29.39727,-7.99281 29.2618,-3.52225 76.27033,4.19961 101.19705,16.79844 18.28863,9.21205 34.13877,23.84295 41.31874,38.33838 5.14791,10.29581 11.10865,31.971224 12.46336,45.789294 0.67736,7.17998 0.54189,10.43129 -1.89659,23.70748 -1.21925,6.63809 -1.21925,8.53469 -0.54189,12.05694 1.08377,5.41885 7.04451,15.44373 16.79844,28.99086 7.72186,10.56676 9.07658,13.54713 8.12828,17.47579 -0.67736,2.8449 -5.41885,7.04451 -9.61846,8.67017 -2.03207,0.67735 -4.19961,1.89659 -4.87697,2.43848 -1.62566,1.35471 -1.62566,5.14791 -0.13547,8.67016 1.76112,4.19961 1.35471,7.72186 -1.08377,11.10865 -1.21924,1.62565 -2.8449,3.52225 -3.65773,4.06414 l -1.62565,1.08377 1.49018,2.43848 c 2.70943,4.47055 1.35471,10.8377 -2.8449,13.95354 -3.92866,2.70943 -4.60602,4.7415 -4.74149,13.14072 -0.13547,8.39922 -1.35471,12.46336 -5.28338,17.47579 -3.52225,4.7415 -6.77357,5.6898 -18.28862,5.82527 -5.6898,0.13547 -13.81808,-0.27094 -18.01769,-0.81283 z" style="fill:#808080;"/>
<path d="m 242,156.05538 c 3.25131,-3.52226 4.87697,-4.60603 7.99281,-5.28338 2.03207,-0.40642 2.16754,-0.54189 4.19961,-5.41886 l 2.03207,-5.01243 h 4.06414 4.06414 l 0.81282,-2.16754 c 1.21924,-3.11584 3.11584,-4.06414 8.67017,-3.92867 l 4.47055,0.13547 2.16754,-2.30301 c 2.30301,-2.43849 3.65772,-5.82527 4.06414,-10.29582 0.40641,-5.01244 -2.30301,-7.45092 -9.34752,-8.26375 -9.48299,-1.08377 -28.04256,2.57396 -49.17608,9.61846 -8.67016,2.98037 -12.32789,4.7415 -13.54713,6.6381 -0.81283,1.21924 -0.81283,1.62565 -0.13547,3.38678 0.40641,1.08377 0.9483,3.11584 1.08377,4.60602 0.27094,2.70943 1.62566,4.19961 1.62566,1.76113 0,-1.62566 1.21924,-2.98037 1.89659,-1.8966 0.27095,0.40641 0.40642,1.35471 0.27095,2.16754 -0.13547,2.30301 0.40641,2.57396 1.76112,1.08377 1.62566,-1.62565 1.8966,-1.62565 4.19961,-0.13547 1.62566,1.08377 2.16754,1.21924 7.17998,0.9483 5.28338,-0.27094 5.41885,-0.27094 7.17998,1.21924 1.76113,1.49018 1.76113,1.62566 1.62566,5.01244 -0.13548,2.98037 -0.54189,4.47055 -2.57396,8.67016 -1.35471,2.8449 0,0 0,0 0,0 2.98037,1.76113 5.41885,-0.67736 z" style="stroke-width:1.35471284" />
<path d="m 142.29313,179.49191 c 2.43849,-1.8966 5.14791,-5.41885 8.39922,-11.51506 1.76113,-3.11584 2.70943,-4.47055 3.38679,-4.33508 0.54188,0.13547 1.76112,-1.08377 3.25131,-3.25131 4.33508,-6.36715 10.43129,-10.70223 17.06938,-12.19242 2.16754,-0.54188 2.98037,-0.9483 3.52225,-2.16754 1.21924,-2.30301 5.55433,-4.19961 10.56676,-4.60602 4.87697,-0.40642 6.23168,0.13547 7.31545,2.70942 0.67736,1.49019 1.08377,1.76113 3.25131,2.16754 3.11584,0.40642 6.6381,2.57396 7.85734,4.60603 0.54188,0.9483 1.62565,1.89659 2.8449,2.16754 3.65772,1.21924 4.74149,2.98037 5.82526,9.61846 0.9483,5.68979 0.9483,5.68979 3.11584,1.21924 1.35471,-2.70943 2.03207,-4.87697 2.03207,-6.23168 0,-2.70942 2.16754,-5.01244 5.41885,-5.96074 1.8966,-0.54188 2.30301,-0.81282 1.76113,-1.35471 -0.27094,-0.40641 -0.54189,-1.76113 -0.54189,-3.11584 v -2.43848 l -3.65772,0.13547 c -2.57396,0.13547 -3.92867,0.40641 -4.60603,1.08377 -0.54188,0.54189 -1.49018,0.9483 -2.16754,0.9483 -1.08377,0 -3.79319,-2.70943 -3.79319,-3.7932 0,-0.27094 -0.81283,0 -1.76113,0.54189 -3.65772,2.30301 -9.07657,0.81283 -11.92147,-3.25131 -3.11584,-4.33508 -3.52226,-10.02488 -1.08377,-15.03732 1.49018,-2.98036 1.49018,-2.98036 -2.57396,-6.77356 -1.89659,-1.76113 -2.57395,-2.03207 -4.60602,-2.03207 -2.03207,0 -2.30301,-0.13547 -2.30301,-1.08377 0,-0.81283 0.40641,-1.08377 1.35471,-1.08377 0.81283,0 1.35471,-0.27094 1.35471,-0.81283 0,-1.08377 1.35472,-1.49018 2.16754,-0.54188 0.40642,0.40641 2.30302,2.30301 4.19961,4.06414 l 3.52226,3.25131 2.84489,-2.16754 c 3.38679,-2.57396 10.83771,-6.36715 16.39203,-8.5347 6.09621,-2.16754 6.09621,-2.03206 3.11584,-7.17997 -1.35471,-2.43849 -2.57395,-5.283384 -2.70943,-6.502634 -0.27094,-1.89659 -0.13547,-2.16754 0.81283,-2.16754 0.81283,0 1.08377,0.40642 1.35471,1.76113 0.13548,0.9483 1.35472,3.65773 2.70943,5.960744 1.35471,2.30301 2.30301,4.47055 2.30301,4.74149 0,0.81283 0.81283,0.67736 5.01244,-0.40641 14.6309,-4.06414 32.78405,-6.502624 40.91233,-5.41885 12.19242,1.62565 20.86258,5.82526 25.87502,12.32788 3.65772,4.7415 5.1479,5.41886 7.0445,3.38679 1.08377,-1.21924 2.70943,-0.9483 2.70943,0.27094 0,1.08377 -2.57396,2.98037 -3.92867,2.98037 -1.08377,0 -1.21924,0.13547 -0.9483,3.79319 0.40642,5.01244 -0.81283,7.45092 -6.09621,12.59883 -3.25131,3.11584 -4.60602,4.19961 -6.50262,4.60603 -2.8449,0.67735 -7.45092,0.81283 -12.7343,0.13547 -2.03207,-0.27094 -3.7932,-0.40642 -3.7932,-0.40642 0,0 0.13548,2.03207 0.54189,4.47056 0.40641,2.43848 0.54189,4.74149 0.27094,5.14791 -0.27094,0.40641 -0.40641,1.35471 -0.40641,2.03207 0,2.43848 -1.8966,4.74149 -4.33508,5.55432 l -2.30301,0.67735 4.74149,0.9483 c 7.58639,1.49019 15.5792,1.76113 19.77881,0.67736 5.28338,-1.49018 7.17998,-1.62566 10.29582,-0.54188 l 2.70942,0.94829 4.19961,-1.76112 c 4.87697,-2.03207 5.41885,-2.03207 10.97318,-0.81283 7.31545,1.62566 17.88221,0.13547 23.30106,-3.11584 2.70942,-1.62566 5.14791,-4.19961 6.50262,-6.63809 0.9483,-1.76113 1.21924,-3.38679 1.35471,-8.53469 l 0.27095,-6.36715 -2.43849,-2.57396 -2.43848,-2.57395 0.54188,-2.57396 c 0.9483,-3.79319 0,-7.85733 -3.52225,-15.17278 l -2.98037,-6.36715 -1.08377,2.30301 c -0.81283,1.62565 -2.30301,3.11584 -5.41885,5.41885 -2.43848,1.76113 -4.74149,3.7932 -5.14791,4.7415 -0.54188,1.08377 -1.08377,1.49018 -1.8966,1.21924 -1.21924,-0.40642 -1.21924,-0.40642 -0.27094,-2.16754 0.9483,-1.76113 2.8449,-3.52226 6.63809,-6.36715 1.62566,-1.08377 3.11584,-2.43849 3.38679,-2.98037 0.40641,-0.81283 0.9483,-7.586394 0.9483,-13.276194 0,-3.65772 -1.8966,-7.04451 -5.28338,-10.02487 -2.57396,-2.16754 -2.98037,-2.30302 -5.14791,-2.03207 -2.03207,0.27094 -2.30302,0.27094 -2.30302,-0.81283 0,-1.76113 -1.49018,-5.01244 -3.11584,-6.63809 -0.81282,-0.81283 -3.79319,-3.25132 -6.77356,-5.28338 -2.98037,-2.03207 -6.90904,-5.14791 -8.80563,-6.90904 -3.65773,-3.38678 -6.50263,-4.60602 -9.48299,-4.06414 -1.62566,0.27094 -1.76113,0.40641 -1.62566,2.8449 0,2.03207 -0.27094,3.11584 -1.8966,5.55432 -2.30301,3.52225 -2.30301,4.33508 -0.67735,7.31545 1.49018,2.57396 1.62565,4.87697 0.40641,6.77357 -1.35471,2.03206 -2.16754,2.57395 -6.90904,4.33508 -4.06413,1.62565 -5.41885,2.70942 -3.52225,2.70942 1.62566,0 16.39203,5.28338 20.04975,7.17998 l 3.7932,1.8966 1.62565,-1.62566 c 1.08377,-1.08377 3.38679,-2.30301 7.45092,-3.65772 6.90904,-2.43849 8.39922,-3.25131 9.07658,-5.41885 0.40641,-1.08377 0.9483,-1.62566 1.62566,-1.62566 0.9483,0 1.08377,0.27094 0.67735,1.76113 -0.54188,2.98037 -3.11584,4.87696 -9.61846,7.17998 -3.25131,1.08377 -6.50262,2.57395 -7.31545,3.25131 l -1.49018,1.21924 3.25131,3.25131 c 4.33508,4.335084 5.68979,7.992814 5.14791,13.547134 -0.27095,3.11584 -0.13547,4.47055 0.54188,6.77356 1.08377,3.38679 1.08377,8.67017 0,11.51506 -0.40641,1.08377 -1.49018,2.98037 -2.43848,4.06414 -2.8449,3.65773 -12.46336,9.07658 -16.12108,9.21205 -0.9483,0 -1.21925,-0.27094 -1.08377,-1.21924 0.13547,-0.9483 0.67735,-1.21924 2.43848,-1.62566 5.01244,-0.9483 13.00524,-6.77356 14.90184,-10.97317 1.21924,-2.70943 1.21924,-6.6381 0.13547,-10.29582 -0.54188,-1.62566 -0.81283,-4.47055 -0.67735,-7.31545 0.13547,-3.92867 -0.13548,-5.14791 -1.08378,-7.17998 -2.70942,-5.82526 -10.70223,-10.973174 -23.43653,-15.172784 -4.06414,-1.35472 -8.12828,-2.57396 -9.07657,-2.8449 -1.08377,-0.27094 -2.30302,-1.21924 -3.38679,-2.57395 -0.9483,-1.21925 -2.16754,-2.8449 -2.84489,-3.52226 l -1.08377,-1.35471 -5.96074,0.67736 c -4.33508,0.54188 -7.31545,1.21924 -10.56676,2.57395 -7.17998,2.8449 -11.786,2.43848 -14.6309,-1.08377 -1.8966,-2.43848 -8.53469,-2.03207 -11.37959,0.67736 -1.08377,1.08377 -1.21924,1.62565 -0.9483,2.98036 0.27095,1.49019 0.13547,1.76113 -0.67735,1.76113 -1.08377,0 -1.62566,-0.9483 -1.62566,-2.70942 0,-0.54189 -0.9483,-1.8966 -2.16754,-2.98037 -2.03207,-1.8966 -2.16754,-1.8966 -6.23168,-1.8966 -3.38678,0 -4.47055,0.27094 -5.96074,1.21924 -2.30301,1.62566 -3.79319,4.33508 -5.14791,9.75393 -0.67735,2.43849 -1.76112,5.41886 -2.43848,6.6381 -1.08377,2.032074 -1.08377,2.303014 -0.54188,2.980374 0.67735,0.54188 0.67735,0.81282 0,1.49018 -0.54189,0.67736 -0.9483,0.67736 -1.76113,0.13547 -0.81283,-0.54188 -1.35471,-0.40641 -2.8449,0.40641 -1.35471,0.81283 -3.38678,1.08377 -8.67016,1.21925 -6.23168,0.27094 -7.04451,0.40641 -8.80563,1.62565 l -1.8966,1.35471 0.27094,3.52226 c 0.13547,2.43848 0,4.60602 -0.54188,6.90903 -1.08377,4.19961 -0.67736,6.09621 1.62565,8.80564 1.08377,1.21924 1.76113,2.43848 1.49019,2.98037 -0.54189,1.21924 -1.35472,0.94829 -3.25132,-1.08377 -2.98036,-3.25132 -3.38678,-5.82527 -1.76112,-13.27619 0.40641,-1.62566 0.54188,-3.65773 0.27094,-4.47055 -0.27094,-1.21925 -0.54188,-1.35472 -1.62565,-0.9483 -0.81283,0.27094 -2.43849,0.27094 -4.60603,-0.27095 -5.55432,-1.21924 -6.63809,-1.08377 -8.67016,1.21925 -1.62566,1.76112 -1.8966,1.89659 -2.57396,1.21924 -0.67735,-0.81283 -0.67735,-0.9483 0.54189,-2.57396 2.57395,-3.25131 3.92867,-3.52225 9.61846,-2.43848 5.01244,0.9483 5.01244,0.9483 6.36715,-0.27094 5.01244,-4.06414 7.45092,-4.87697 15.17279,-4.87697 7.45092,0 9.8894,-2.303014 12.19241,-11.108644 1.35471,-5.01244 2.16754,-7.04451 4.06414,-8.94111 1.21924,-1.35471 1.21924,-1.49018 0.54189,-2.70942 -0.40642,-0.67736 -1.35472,-2.8449 -1.8966,-4.7415 -0.54189,-1.8966 -2.03207,-4.87697 -3.11584,-6.50262 -1.21924,-1.62566 -2.16754,-2.98037 -2.16754,-2.98037 0,0 -0.27095,-2.8449 -0.40642,-6.23168 l -0.27094,-6.23168 -1.49018,-0.13547 c -2.16754,-0.27094 -3.92867,0.81283 -5.41885,3.65772 -1.21925,2.16755 -1.35472,2.98037 -1.35472,7.31545 0,2.70943 0.13547,5.28338 0.40642,5.6898 0.67735,1.21924 -1.21925,1.8966 -2.03207,0.67735 -1.49019,-2.03206 -1.35472,-9.34751 0.13547,-13.41165 0.54188,-1.49019 -2.98037,-0.9483 -5.6898,0.81282 -3.79319,2.57396 -4.19961,3.25132 -4.47055,7.72187 -0.27094,3.11584 -0.13547,4.33508 0.54189,5.68979 1.35471,2.8449 11.92147,13.14072 13.81807,13.6826 2.16754,0.67736 2.16754,2.43849 0,2.16754 -1.08377,-0.13547 -1.49019,0.13547 -1.49019,0.9483 0,0.67736 -0.40641,1.08377 -0.9483,1.08377 -0.67735,0 -1.21924,-0.67735 -1.62565,-2.30301 -0.54189,-1.76113 -1.8966,-3.52225 -6.09621,-7.72186 -6.63809,-6.6381 -7.58639,-8.67017 -6.77356,-14.08902 l 0.54188,-3.52225 h -1.76112 c -4.87697,0 -7.31545,2.70943 -12.46336,13.6826 -4.06414,8.80563 -6.23168,11.65053 -10.02488,13.41166 -2.70942,1.35471 -3.52225,1.21924 -3.52225,0 0,-0.81283 0.67735,-1.35472 2.16754,-1.8966 2.8449,-1.08377 5.68979,-4.60602 7.9928,-9.61846 2.30302,-5.01244 2.43849,-5.6898 0.40642,-5.6898 -1.8966,0 -3.25131,1.49019 -5.55432,6.50263 -1.49019,3.11584 -2.98037,5.01243 -6.6381,8.67016 -4.87696,4.87696 -6.23168,7.45092 -5.41885,10.70223 0.54189,2.30301 0.54189,2.30301 2.98037,-0.13547 2.98037,-2.98037 7.58639,-4.60603 14.90184,-4.87697 2.8449,-0.13547 5.96074,-0.40641 6.90904,-0.54188 l 1.76112,-0.27095 -0.81282,-1.62565 c -0.67736,-1.21924 -0.81283,-2.43848 -0.54189,-4.47055 0.13547,-1.49019 0.54189,-4.33508 0.67736,-6.09621 0.27094,-2.98037 0.40641,-3.38678 1.35471,-3.38678 0.9483,0 1.08377,0.27094 0.67736,4.19961 -0.13547,2.30301 -0.40642,4.87696 -0.67736,5.82526 -0.40641,2.03207 1.62566,4.87697 3.92867,5.41885 1.08377,0.27095 1.62565,0.67736 1.62565,1.35472 0,1.21924 -1.62565,1.35471 -12.32788,1.89659 -7.5864,0.27095 -11.51506,1.21925 -14.49543,3.25132 -3.25131,2.16754 -3.7932,3.793194 -3.52226,11.108644 0.13548,5.96074 0.27095,6.50262 1.62566,8.39922 0.81283,1.08377 3.7932,3.52225 6.63809,5.41885 5.41885,3.65773 6.50262,4.7415 8.53469,8.12828 0.67736,1.21924 1.62566,2.70943 2.30302,3.38678 0.94829,1.08377 0.94829,1.35471 0.27094,2.16754 -0.67736,0.81283 -0.40642,0.9483 3.25131,0.40642 7.17998,-0.9483 11.51506,-0.67736 14.35996,0.9483 2.70942,1.35471 3.11584,2.03206 2.57395,2.98036 -0.27094,0.54189 -1.08377,0.27095 -3.25131,-0.81282 -3.25131,-1.62566 -6.50262,-1.76113 -13.27619,-0.67736 -5.01243,0.81283 -7.72186,0.54188 -13.95354,-1.62566 -5.41885,-1.89659 -8.80563,-2.03207 -11.24412,-0.81282 -2.03207,1.08377 -2.03207,2.70942 0,7.72186 2.03207,5.01244 2.03207,7.04451 -0.27094,11.24412 -2.16754,3.92866 -2.16754,4.60602 -0.81283,6.63809 1.62566,2.43848 1.76113,2.70943 0.67736,3.25131 -0.81283,0.40641 -1.21924,0.27094 -2.43848,-1.62565 -1.8966,-2.98037 -1.76113,-5.28339 0.40641,-9.48299 0.9483,-1.8966 1.8966,-3.7932 1.8966,-4.33509 0,-0.54188 -0.67736,-2.70942 -1.49019,-4.87696 -2.03207,-5.01244 -2.30301,-6.50262 -1.62565,-8.12828 1.35471,-3.7932 7.9928,-4.7415 15.03731,-2.16754 3.7932,1.35471 9.21205,2.43848 9.21205,2.03207 0,-0.13547 -0.67736,-1.08377 -1.49018,-2.03207 -0.81283,-0.9483 -2.03207,-2.8449 -2.8449,-4.19961 -1.08377,-2.03207 -2.57396,-3.25131 -6.6381,-5.96074 -5.1479,-3.38678 -8.26374,-6.36715 -9.07657,-8.80563 -0.27094,-0.67736 -0.54189,-4.06414 -0.54189,-7.45092 0,-5.41885 -0.13547,-6.36715 -0.9483,-7.17998 -0.94829,-0.948304 -1.08377,-0.948304 -3.52225,0.81283 -3.25131,2.30301 -5.28338,5.01244 -6.77356,9.21205 -1.08377,2.98036 -2.30302,10.29581 -2.30302,13.6826 0,1.21924 0,1.21924 2.03207,-0.40642 1.08377,-0.9483 2.30302,-2.43848 2.70943,-3.25131 0.67736,-1.76113 2.57395,-2.30301 2.57395,-0.81283 0,2.30301 -5.1479,8.12828 -6.63809,7.5864 -0.40641,-0.13548 -0.67736,0.94829 -0.9483,3.38678 -0.54188,6.36715 -0.54188,6.36715 1.62566,7.0445 3.25131,0.9483 4.47055,2.8449 4.74149,6.90904 0.27095,3.52225 0.27095,3.52225 -1.21924,3.52225 -1.35471,0 -1.35471,-0.13547 -1.35471,-3.11584 0,-3.11584 -0.40642,-3.92866 -2.16754,-4.47055 -0.67736,-0.27094 -1.21924,0.9483 -2.57396,5.01244 -1.62565,5.01244 -1.76112,5.41885 -1.08377,7.58639 1.21924,4.19961 1.21924,5.28338 0.27095,8.94111 l -0.9483,3.52225 1.35471,1.21924 c 1.35471,1.35471 2.16754,1.21924 4.47055,-0.9483 0.9483,-0.9483 2.8449,-0.9483 2.8449,0 0,0.67736 -2.70943,2.98037 -5.14791,4.33508 -3.65773,2.03207 -3.65773,4.06414 -0.13547,8.26375 2.57395,2.98037 3.65772,3.11584 6.63809,0.9483 z m 161.61725,-24.24936 c -0.13547,-0.9483 0.13547,-1.21924 1.35471,-1.21924 0.81283,0 2.43849,-0.67736 3.52226,-1.35472 1.76112,-1.21924 2.70942,-1.35471 6.77356,-1.35471 6.77357,0 11.65053,-0.81283 15.44373,-2.70943 3.52225,-1.62565 3.65772,-2.16754 1.08377,-3.52225 -1.62566,-0.81283 -1.76113,-1.21924 -1.08377,-2.30301 0.40641,-0.54189 0.81283,-0.54189 2.57395,0.40641 1.35472,0.67736 3.11584,1.08377 5.01244,1.08377 2.43848,0 3.25131,-0.27094 5.14791,-1.76112 1.21924,-0.9483 2.30301,-2.03207 2.30301,-2.43849 0,-0.40641 0.9483,-1.21924 2.03207,-2.03207 l 2.03207,-1.49018 -0.40641,2.30301 c -0.13547,1.35471 -0.40642,2.30301 -0.40642,2.43849 0,0 -1.49018,1.08377 -3.11584,2.43848 -2.57395,1.8966 -3.52225,2.43848 -5.96073,2.57395 -1.76113,0.13547 -2.8449,0.54189 -2.8449,0.9483 0,0.9483 -8.26375,5.01244 -11.51506,5.6898 -1.49018,0.27094 -5.28338,0.54188 -8.39922,0.54188 -5.28338,0 -5.68979,0.13547 -8.26375,1.62566 -3.11584,1.89659 -5.14791,1.89659 -5.41885,0.13547 z m -18.55956,-3.7932 c 0,-0.81283 0.54188,-1.08377 3.79319,-1.35471 2.16754,-0.13547 5.82527,-1.08377 8.53469,-2.03207 3.92867,-1.49018 5.6898,-1.76113 10.83771,-1.8966 3.38678,-0.13547 6.63809,-0.54188 7.45092,-0.81283 0.81282,-0.27094 2.57395,-1.89659 3.92866,-3.52225 2.03207,-2.43848 3.38679,-3.38678 7.45092,-5.41885 2.70943,-1.35471 5.82527,-2.98037 6.77357,-3.7932 1.8966,-1.49018 3.25131,-4.19961 3.25131,-6.63809 0,-1.21924 0.27094,-1.62566 1.08377,-1.62566 0.81283,0 1.08377,0.40642 1.08377,1.62566 0,1.21924 0.27094,1.62566 1.35471,1.8966 0.9483,0.27094 1.21924,0.67735 1.08377,1.08377 -0.13547,0.40641 -0.27094,0.9483 -0.27094,0.9483 0,0.13547 -0.54188,0.27094 -1.08377,0.27094 -0.67736,0 -2.03207,0.9483 -3.25131,2.57395 -1.62566,1.8966 -3.38678,3.11584 -7.45092,5.01244 -4.33508,2.03207 -5.82527,3.11584 -8.80563,6.23168 l -3.52226,3.65773 -7.04451,0.40641 c -5.82526,0.40641 -7.85733,0.81283 -12.59883,2.30301 -6.63809,2.30301 -12.59882,2.70943 -12.59882,0.9483 z m 33.59687,-45.92477 c 0,-0.67735 1.49019,-1.62565 4.87697,-3.25131 5.41885,-2.573954 7.72186,-2.980364 7.72186,-1.21924 0,0.67736 -0.40641,1.08377 -0.94829,1.08377 -0.54189,0 -2.8449,0.9483 -5.14791,2.16754 -4.60603,2.30302 -6.50263,2.70943 -6.50263,1.21924 z M 240.1034,97.125366 c 0,-1.76113 0.67736,-3.11584 1.62566,-3.11584 0.67736,0 0.9483,0.40641 0.9483,1.49018 0,0.81283 -0.13547,1.76113 -0.40641,1.8966 -0.54189,0.67735 -2.30302,0.40641 -2.30302,-0.27094 z m 29.39727,-7.99281 c 0,-0.81283 2.03207,-2.70943 3.11584,-2.70943 1.08377,0 1.08377,0.27095 1.08377,3.65773 v 3.65772 l -2.16754,-2.16754 c -1.21924,-1.21924 -2.16754,-2.30301 -2.16754,-2.43848 z m 36.98367,-6.23168 c -0.40642,-1.21924 1.35471,-2.98037 2.98036,-2.8449 0.9483,0.13547 1.35472,0.54189 1.49019,1.49019 0.13547,1.08377 0,1.21924 -0.9483,0.9483 -0.54189,-0.13548 -1.35471,0 -1.62566,0.40641 -0.81282,0.9483 -1.49018,0.9483 -1.89659,-0.13547 z" />
<path d="m 287.24741,81.817106 c 3.52226,-1.49018 5.55433,-2.70943 6.36715,-3.7932 l 1.08377,-1.49018 -1.49018,-2.70943 c -2.03207,-3.65772 -1.8966,-5.96073 0.40641,-9.48299 2.16754,-3.38678 2.30302,-4.33508 0.54189,-7.45092 -2.16754,-3.79319 -6.09621,-7.0445 -10.16035,-8.39922 -5.01244,-1.62565 -15.98561,-2.16754 -18.42409,-0.81283 l -1.62566,0.9483 v 8.39922 c 0,9.07658 -0.13547,9.48299 -3.65772,15.03732 -0.67736,1.21924 -1.35472,2.30301 -1.49019,2.30301 0,0.13547 -0.67735,0 -1.21924,-0.13547 l -1.08377,-0.40642 1.21924,-2.03207 c 3.92867,-6.63809 4.06414,-7.17997 4.06414,-15.44372 0,-7.58639 0,-7.72187 -1.35471,-8.94111 -1.49019,-1.49018 -2.43849,-1.49018 -10.83771,-0.81283 l -5.01243,0.40642 0.54188,1.49018 c 0.81283,2.16754 -0.13547,4.60603 -1.49018,4.33508 -1.35471,-0.27094 -1.49019,-0.40641 -0.81283,-1.76112 0.54189,-0.9483 0.40641,-1.49019 -0.40641,-2.57396 -0.81283,-1.08377 -1.8966,-1.62565 -5.14791,-2.30301 -5.14791,-1.08377 -8.94111,-0.67736 -13.41166,1.49018 -2.70943,1.35472 -3.65772,1.49019 -5.68979,1.21925 -5.01244,-0.81283 -6.09621,-0.54189 -8.12828,1.49018 l -1.8966,1.8966 v 5.68979 5.6898 l 2.03207,2.98037 c 1.08377,1.62565 2.70943,4.87696 3.52225,7.31544 0.81283,2.30302 1.62566,4.47056 1.8966,4.60603 0.27094,0.13547 2.8449,0.27094 5.82527,0.27094 5.55432,-0.13547 6.90903,0.40642 8.80563,2.8449 0.81283,0.9483 0.81283,0.9483 2.16754,-0.13547 2.98037,-2.43849 8.12828,-3.38679 11.24412,-2.16754 0.81283,0.27094 2.43848,1.49018 3.52225,2.43848 2.03207,1.8966 2.16754,1.8966 5.01244,1.62565 1.62565,-0.13547 4.74149,-1.08377 6.90904,-1.89659 2.16754,-0.9483 5.41885,-1.76113 7.0445,-2.03207 1.76113,-0.13547 4.47055,-0.54189 6.23168,-0.9483 3.7932,-0.67736 5.96074,0.27094 7.72186,3.25131 0.67736,1.21924 1.35472,2.16754 1.62566,2.03207 0.13547,0 2.57395,-1.08377 5.41885,-2.30301 z m -39.01573,-13.41166 c -0.40641,-0.40641 -0.40641,-0.9483 -0.13547,-1.49018 1.08377,-1.76113 0.54189,-2.16754 -1.76113,-1.08377 -3.11584,1.49018 -8.9411,1.49018 -12.46335,0 l -2.57396,-1.08377 -0.81283,1.62565 c -0.54188,0.9483 -1.21924,1.62566 -1.89659,1.62566 -1.21925,0 -1.35472,-0.67736 -0.13548,-2.8449 l 0.81283,-1.76113 -2.16754,-1.89659 c -2.03207,-1.8966 -2.43848,-3.25131 -0.9483,-3.25131 0.40642,0 1.62566,0.81282 2.8449,1.89659 6.77356,6.36715 17.88221,5.82527 20.59163,-0.81282 0.40642,-1.08377 0.81283,-1.49019 1.62566,-1.21925 1.08377,0.27095 0.9483,1.49019 -0.27094,3.65773 -0.40642,0.54188 -0.54189,2.03207 -0.40642,2.98037 0.27095,1.8966 -0.54188,4.19961 -1.35471,4.19961 -0.27094,0 -0.67736,-0.27095 -0.9483,-0.67736 z"/>
<path d="m 189.30167,209.70201 2.57396,-1.76113 -1.21925,-2.98037 c -1.49018,-3.65772 -1.49018,-4.87697 -0.27094,-4.87697 0.67736,0 1.35471,0.81283 2.16754,3.25132 0.67736,1.76112 1.35472,3.38678 1.62566,3.52225 0.67735,0.40641 5.41885,-1.21924 7.0445,-2.57396 1.62566,-1.35471 1.62566,-2.30301 0,-4.47055 l -1.35471,-1.62565 2.43849,-0.81283 c 4.47055,-1.62566 5.28338,-4.19961 1.49018,-5.96074 -1.76113,-0.81283 -2.43848,-1.49018 -2.43848,-2.30301 0,-1.62566 1.08377,-2.57395 5.96073,-4.87697 6.09621,-2.84489 7.31545,-3.92866 6.90904,-5.82526 -0.13547,-0.81283 0,-2.30301 0.54188,-3.52226 0.9483,-2.43848 0.9483,-4.19961 0,-6.0962 -0.40641,-0.81283 -1.08377,-3.65773 -1.62565,-6.36715 -0.54189,-2.70943 -1.21924,-5.28338 -1.49019,-5.6898 -0.81282,-1.21924 -2.70942,-2.16754 -4.19961,-2.03207 -0.81282,0 -1.49018,-0.54188 -2.30301,-2.03207 -2.03207,-3.79319 -5.82526,-5.28338 -9.34752,-3.65772 -0.67735,0.27094 -1.08377,-0.13547 -1.76112,-2.57396 l -0.81283,-2.98036 h -3.52225 c -4.60603,0 -7.31545,0.81282 -9.07658,2.70942 l -1.49019,1.49019 1.08378,2.30301 c 0.94829,2.16754 1.21924,2.30301 3.11583,2.30301 1.8966,0 2.16755,0.13547 2.16755,1.21924 0,1.08377 -0.27095,1.21924 -2.03207,1.21924 -1.21925,0 -2.16754,0.27095 -2.16754,0.54189 0,0.27094 0.81282,1.35471 1.89659,2.30301 1.62566,1.49018 1.8966,2.30301 2.03207,4.19961 0.13547,1.35471 0.27095,2.70943 0.54189,3.25131 0.27094,0.54189 0,1.21924 -0.54189,1.62566 -0.67735,0.67735 -0.9483,0.54188 -1.35471,0 -0.27094,-0.54189 -0.40641,0 -0.13547,1.49018 0.40641,2.43848 -0.13547,3.25131 -1.76113,2.70943 -0.81283,-0.27095 -0.9483,-0.81283 -0.81283,-2.8449 0.13548,-1.35471 0.54189,-3.52225 1.08377,-4.60602 1.21925,-2.8449 0.27095,-3.92867 -1.49018,-1.49019 -1.62566,2.30301 -3.11584,2.30301 -3.11584,-0.27094 0,-1.49019 0.27094,-2.03207 1.35471,-2.43848 1.08377,-0.40642 1.21925,-0.67736 0.81283,-1.49019 -0.27094,-0.54188 -0.67736,-1.8966 -0.81283,-3.11584 -0.27094,-1.8966 -1.35471,-5.14791 -1.62565,-5.14791 -0.27094,0 -5.82527,1.76113 -6.23168,2.03207 -0.40642,0.27094 1.49018,4.47055 2.03207,4.47055 0.13547,0 0.67735,-0.27094 1.35471,-0.67735 0.81283,-0.54189 1.21924,-0.54189 1.62566,0 0.54188,0.54188 0.40641,0.9483 -0.54189,2.03207 -0.9483,0.9483 -1.08377,1.76112 -0.81283,2.84489 0.40642,1.8966 -0.27094,3.11584 -1.62565,2.8449 -0.67736,-0.13547 -0.9483,-0.54188 -0.81283,-1.62565 0.13547,-0.9483 -0.54188,-2.70943 -1.76113,-5.01244 l -1.89659,-3.52226 -1.35472,0.81283 c -0.81283,0.54189 -2.30301,1.62566 -3.38678,2.57396 l -2.03207,1.76112 1.8966,3.25131 c 1.08377,1.76113 2.30301,3.65773 2.98037,4.06414 0.9483,0.81283 0.9483,0.9483 0.27094,1.8966 -0.54189,0.81283 -0.81283,0.81283 -1.49018,0.27094 -0.67736,-0.54188 -0.9483,-0.54188 -1.21925,0.13548 -0.27094,0.54188 -0.81282,0.67735 -1.35471,0.54188 -0.67736,-0.27094 -0.81283,-0.81283 -0.54188,-2.43848 0.27094,-2.16754 -1.08377,-5.55433 -2.16754,-5.28338 -0.54189,0.13547 -5.55433,8.53469 -5.55433,9.21204 0,0.27095 0.9483,0.67736 2.03207,1.08377 1.62566,0.54189 2.43849,0.54189 3.38678,0 2.16754,-1.08377 4.60603,-0.81282 6.77357,0.81283 1.8966,1.21924 2.30301,1.35472 5.41885,0.9483 3.25131,-0.40641 3.7932,-0.13547 2.98037,1.08377 -0.54189,0.9483 -4.7415,2.03207 -6.23168,1.62566 -0.67736,-0.13547 -2.16754,-0.9483 -3.38678,-1.76113 -2.03207,-1.35471 -2.03207,-1.35471 -4.7415,-0.54188 -1.8966,0.67735 -2.98037,0.67735 -3.92867,0.40641 -1.76112,-0.67736 -1.62565,-0.81283 -2.84489,1.62565 -1.35472,2.70943 -1.35472,5.41886 0,7.17998 0.9483,1.21924 1.08377,1.21924 2.43848,0.54189 1.49018,-0.81283 1.49018,-1.08377 0.54189,-4.19961 -0.27095,-0.9483 -0.13548,-1.21924 0.67735,-1.21924 0.54189,0 1.35472,0.54188 1.76113,1.21924 0.40641,0.67735 0.67736,1.21924 0.67736,1.35471 0,0.13547 0.94829,-0.27094 2.03206,-0.67736 2.43849,-1.08377 2.30302,-1.08377 2.57396,0.27095 0.27094,0.81283 0,1.21924 -1.08377,1.62565 -0.81283,0.27095 -2.8449,1.62566 -4.60602,2.8449 -2.8449,2.03207 -3.25132,2.43848 -3.25132,4.06414 v 1.76113 l 1.49019,-1.08378 c 1.76113,-1.21924 5.68979,-1.62565 6.77356,-0.54188 0.54189,0.54188 0.9483,0.40641 1.8966,-0.54189 l 1.21924,-1.21924 0.40642,1.21924 c 0.27094,0.81283 0,1.49019 -0.54189,2.30302 -0.9483,1.08377 -1.35471,1.08377 -5.14791,0.13547 l -1.62565,-0.40642 1.62565,1.35472 c 1.49019,1.35471 1.49019,1.49018 0.67736,2.30301 -0.81283,0.9483 -0.9483,0.9483 -2.43848,-0.54189 -0.81283,-0.81282 -1.76113,-1.49018 -2.03207,-1.49018 -0.27095,0 -1.08377,0.81283 -1.62566,1.8966 -1.08377,1.76112 -1.08377,2.03207 -0.40641,3.52225 1.08377,2.30301 3.79319,4.06414 8.80563,6.23168 2.43848,1.08377 4.7415,2.30301 5.28338,2.70943 1.35471,1.21924 1.76113,0 1.76113,-5.82527 0,-4.60602 0.13547,-5.14791 0.9483,-5.01244 0.54188,0 1.62565,-0.81282 2.30301,-1.76112 1.49018,-1.8966 3.25131,-2.43849 3.25131,-1.08377 0,0.40641 -1.08377,2.16754 -2.30301,3.92866 -1.35472,1.76113 -2.30301,3.25131 -2.30301,3.52226 0,1.76112 0.81282,3.79319 1.35471,3.52225 0.54188,-0.13547 0.67736,0.13547 0.67736,1.08377 0,0.81283 -0.27095,1.35471 -0.81283,1.35471 -0.40642,0 -1.08377,0.67736 -1.35472,1.35472 -0.54188,1.21924 -0.40641,1.49018 0.67736,2.70942 0.67736,0.67736 2.03207,1.49019 2.98037,1.62566 1.49018,0.27094 1.76113,0.13547 2.30301,-1.21924 0.27094,-0.81283 0.81283,-2.03207 1.08377,-2.43849 0.67736,-1.35471 0.67736,-1.35471 -1.62565,-2.98037 -1.8966,-1.35471 -2.03207,-1.62565 -1.35472,-2.57395 0.67736,-0.9483 0.81283,-0.9483 1.8966,-0.13547 1.21924,0.81283 1.21924,0.81283 2.43848,-1.21924 0.81283,-1.35472 1.62566,-2.16754 2.30302,-2.16754 1.35471,0 1.35471,0.9483 -0.27095,3.52225 -0.9483,1.62566 -1.08377,2.43848 -0.81282,3.38678 0.54188,1.35472 0.13547,3.38678 -0.67736,3.38678 -0.81283,0 -0.54189,1.08377 0.54188,2.16754 1.49019,1.49019 2.98037,1.35472 6.09621,-0.67735 z" />
<path d="m 270.17803,141.42448 c 1.08377,-3.52226 1.8966,-3.7932 8.80563,-3.25131 12.59883,0.94829 13.54713,0.81282 18.4241,-3.7932 4.06414,-3.7932 5.96074,-7.04451 5.96074,-10.02488 0,-2.98036 -2.43849,-7.45092 -6.50263,-11.51506 -4.19961,-4.33508 -8.12827,-6.50262 -15.03731,-8.39922 -6.50262,-1.89659 -19.64334,-1.76112 -30.61651,0.27095 -15.71467,2.84489 -29.53274,7.17998 -38.88026,12.05694 -8.9411,4.60603 -12.86977,9.61846 -12.7343,15.85014 0,3.25131 0.67736,4.87697 2.70943,7.17998 3.11583,3.38678 6.0962,3.92867 8.53469,1.49019 1.76112,-1.76113 2.03207,-3.92867 0.81282,-7.5864 -2.30301,-6.77356 0.54189,-9.34752 15.5792,-14.08901 18.4241,-5.82527 33.19047,-8.80563 44.16364,-8.80563 8.26375,0 10.43129,0.40641 13.54713,2.70942 2.70943,2.16754 3.52225,4.06414 3.11584,8.53469 -0.40641,5.01244 -2.30301,9.21205 -5.55432,12.05695 l -2.43849,2.16754 -4.47055,-0.40642 c -4.06414,-0.27094 -4.60602,-0.27094 -5.96073,0.81283 -1.62566,1.35471 -1.8966,2.98037 -0.67736,5.14791 l 0.67736,1.49018 z" />
</svg>
