<svg xmlns="http://www.w3.org/2000/svg" viewBox="0 0 512 384">
<rect width="512" height="384" id="P007WIImgRct1" fill="#fff"/>

<path d="m 171.53038,353.83341 c -0.2264,-0.67886 -1.4716,-9.84338 -1.69799,-13.01136 -0.6792,-7.69367 0.11319,-16.97133 2.26398,-27.94613 2.03759,-10.52223 6.56557,-24.66501 12.90472,-40.16549 0.79241,-1.81028 1.5848,-4.29941 1.81119,-5.54397 1.13199,-6.22282 1.8112,-19.34732 1.5848,-31.56668 -0.33961,-15.04792 -2.03759,-38.69464 -3.28279,-44.23861 -0.45279,-2.26285 -1.69798,-1.35771 -3.50917,2.71541 -3.73559,8.14624 -5.20717,14.93477 -6.11277,29.41698 -0.79239,12.44564 -1.92438,18.2159 -3.39598,18.66847 -0.33959,0.11314 -5.20716,-7.35425 -18.45149,-28.05928 l -10.98033,-17.08447 0.4528,-2.37599 c 1.58479,-7.58053 1.81119,-11.31422 2.49038,-44.12547 0.4528,-21.27073 0.9056,-31.56668 1.69799,-35.07409 1.24519,-5.88339 4.41478,-13.23764 7.24476,-17.084473 4.41478,-5.770254 11.65953,-10.974796 18.67788,-13.350783 2.7168,-0.905138 5.20718,-1.357707 15.28192,-3.05484 9.62194,-1.583991 13.13112,-2.489129 19.69668,-5.317685 6.90515,-2.941698 10.64073,-5.204542 12.45192,-7.241102 1.35839,-1.583992 3.50918,-5.883396 4.18837,-8.59881 1.0188,-4.07312 1.0188,-12.21936 -0.1132,-16.066196 -0.2264,-0.678853 -0.90559,-2.03656 -1.58478,-3.05484 -0.67921,-1.01828 -1.69799,-2.489129 -2.26399,-3.281125 -1.2452,-1.923417 -3.05638,-5.770253 -3.73558,-7.806813 -0.2264,-0.791996 -0.4528,-1.697134 -0.566,-1.810276 -0.11319,-0.226284 7.69756,-0.339427 38.37458,-0.339427 h 38.48775 v 0.565712 c 0,1.923417 -3.05638,8.259382 -5.20717,11.087938 -3.16958,4.186262 -3.50917,5.0914 -3.50917,13.124498 0,5.0914 0,5.657112 0.67919,7.919956 1.69799,6.222823 4.52797,9.730232 10.07474,12.67193 6.67876,3.507409 14.37631,5.657111 29.31862,8.14624 11.09354,1.810276 14.82911,2.941698 19.58348,5.657111 4.64118,2.715414 10.18794,7.693672 12.56513,11.427365 3.50918,5.20454 6.33916,13.46393 6.90516,19.57361 0.45279,4.75197 0.90559,17.4239 1.47159,44.57803 0.2264,9.61709 0.566,19.57361 0.90559,22.74159 0.2264,2.37599 1.35839,8.82509 1.698,10.06966 0.1132,0.22628 -0.9056,2.03656 -2.26399,4.18626 -16.7535,26.47528 -23.99826,37.67636 -25.92265,40.39178 -1.01879,1.3577 -1.01879,1.3577 -1.47158,0.90513 -1.2452,-1.13142 -2.26399,-7.01481 -2.94319,-18.10275 -0.7924,-12.67193 -1.81119,-18.32904 -4.30157,-25.23072 -1.132,-3.05484 -2.71678,-6.33596 -3.50919,-7.46739 -0.67919,-0.90513 -1.58478,-1.13142 -1.81119,-0.45256 -0.67919,2.37598 -1.92438,14.4822 -2.82998,29.19069 -0.90559,13.69021 -1.13199,38.12893 -0.3396,44.69118 0.3396,2.60227 1.2452,5.43083 4.41478,13.35078 6.79196,16.85819 11.99913,36.31866 12.90472,48.42488 0.3396,4.18626 0.3396,13.01135 0,17.19761 -0.3396,4.07312 -1.24519,10.06966 -1.69798,10.63537 -0.33961,0.45257 -4.41478,0.45257 -83.42789,0.56571 -69.39119,0.11315 -83.0883,0 -83.2015,-0.22628 z" style="fill:#808080;" />
<path d="m 253.03389,341.72719 c -2.03759,-2.03656 -1.81119,-2.71542 3.05636,-8.25939 3.39599,-3.95997 5.09397,-6.67539 5.09397,-8.37252 0,-1.69713 -0.56599,-1.35771 -1.35838,0.792 -0.45281,1.01828 -1.2452,2.48912 -1.81119,3.28112 -1.4716,2.03656 -4.86756,5.65711 -5.43356,5.65711 -0.9056,0 -5.77317,-2.82855 -7.24475,-4.18626 -1.8112,-1.69713 -2.71679,-3.50741 -3.16959,-6.67539 -0.6792,-3.95998 0.11321,-6.67539 3.16959,-11.08794 1.35838,-2.03656 1.92439,-3.16798 1.69798,-3.28113 -0.6792,-0.22628 -3.50918,3.16799 -4.86757,5.8834 l -1.24519,2.60227 0.1132,4.07312 c 0.1132,5.31769 0.45279,5.99654 5.43356,11.08794 3.73559,3.84684 3.96198,4.18626 3.96198,5.43083 0,1.01828 -0.22639,1.47085 -1.132,2.37598 -1.13198,1.13143 -2.03757,1.35771 -3.16957,0.792 -1.01879,-0.56571 -1.35839,-1.47085 -1.5848,-4.41255 -0.2264,-2.48913 -0.33959,-2.82855 -1.58478,-4.41254 -1.69799,-2.14971 -1.81119,-2.48913 -3.05638,-7.35425 -0.7924,-3.28112 -1.0188,-4.52569 -0.9056,-6.78853 0.1132,-3.62055 0.9056,-5.31769 3.96198,-8.25939 2.60358,-2.48912 4.64117,-3.84683 8.48994,-5.54396 3.28279,-1.47085 5.65997,-1.81028 9.16914,-1.69714 3.62237,0.22629 5.20717,0.90514 7.69755,3.7337 l 1.92439,2.1497 2.49039,-0.11314 c 2.37718,-0.11315 2.60358,0 3.28277,0.79199 1.0188,1.01828 1.2452,1.01828 3.28279,0 2.49039,-1.24456 3.96197,-1.35771 5.88636,-0.33943 0.90559,0.45257 1.698,0.792 1.81119,0.67886 0.3396,-0.33943 -0.45279,-1.24457 -1.47159,-1.92342 -0.566,-0.33943 -1.01879,-0.792 -1.01879,-1.01828 0,-0.22628 1.01879,-1.69713 2.26399,-3.39427 1.24518,-1.69713 2.26398,-3.16798 2.26398,-3.50741 0,-0.22628 -0.3396,-1.13142 -0.7924,-1.92341 -1.01879,-1.69714 -0.90559,-2.37599 0.67919,-4.97826 1.3584,-2.1497 1.3584,-3.05484 0.33961,-5.43083 -0.45281,-1.01828 -0.7924,-2.1497 -0.7924,-2.60227 0,-0.45257 0.1132,-6.78853 0.1132,-14.02964 l 0.1132,-13.23764 -0.6792,-1.01828 c -0.90559,-1.24456 -0.90559,-2.48913 -0.1132,-6.10968 0.3396,-1.47085 0.6792,-3.62055 0.7924,-4.63883 l 0.22639,-1.92342 1.0188,0.11315 c 0.7924,0.11314 1.35839,-0.11315 2.26399,-0.90514 0.67919,-0.56571 1.58478,-1.01828 1.92439,-1.01828 0.90559,0 1.69798,-0.56571 3.50918,-2.1497 2.15078,-1.92342 2.03759,-2.37599 -0.4528,-1.69714 -0.9056,0.22629 -1.2452,0.45257 -1.2452,1.24457 -0.1132,0.79199 -0.22639,0.90514 -1.81118,0.90514 -1.58479,0 -1.69799,0 -2.15079,1.01828 -0.33959,0.90513 -0.56599,1.01828 -1.47159,1.01828 -1.698,0 -2.49039,0.33942 -3.05638,1.3577 -0.2264,0.45257 -1.3584,1.47085 -2.49039,2.26285 -1.132,0.79199 -2.37718,1.69713 -2.82998,2.1497 -0.45279,0.45257 -2.15079,1.13142 -3.84878,1.69713 -1.81119,0.56571 -4.18838,1.58399 -5.99956,2.71542 -3.50918,2.1497 -5.99957,3.05484 -9.50874,3.39426 -1.81119,0.22629 -3.84878,0.792 -7.24476,2.1497 -3.39596,1.35771 -5.32035,1.92342 -6.79195,2.03656 l -2.15079,0.22629 -0.1132,-0.90514 c -0.1132,-0.90514 -0.22639,-0.90514 -1.69798,-0.90514 -0.9056,0 -2.94319,0.22629 -4.52797,0.45257 -3.84879,0.56571 -7.24476,0.11314 -8.37676,-1.01828 -0.79239,-0.79199 -2.49038,-1.3577 -5.88636,-1.69713 -2.49038,-0.22629 -2.94318,-0.56571 -6.67876,-3.62055 -1.698,-1.47085 -4.18838,-3.16798 -5.54677,-3.95998 -4.30157,-2.37599 -4.98077,-2.9417 -5.43356,-4.63883 -0.56601,-1.81028 -1.132,-2.1497 -1.4716,-0.792 -0.22639,1.13143 -0.22639,1.13143 -1.47158,0.45257 -0.56601,-0.22628 -1.132,-0.45257 -1.2452,-0.33942 -0.67919,0.45256 -0.2264,1.01828 1.13199,1.69713 l 1.47159,0.67885 -0.11319,4.86512 c -0.1132,3.84683 -0.3396,5.65711 -1.01879,8.59881 -0.90561,3.95997 -0.90561,3.62055 -0.33961,12.10622 0.11321,2.03656 0,3.62055 -0.67919,7.2411 -1.13199,5.88339 -1.01879,6.78853 1.35839,11.08794 4.30157,8.14624 4.41478,8.48566 4.64118,11.5405 0.11319,1.47085 0,3.39427 -0.2264,4.18627 -0.33961,1.24456 -0.45281,1.3577 -1.698,1.69713 -2.71678,0.67885 -6.79196,-0.33943 -9.05594,-2.37599 -1.8112,-1.69713 -2.26399,-2.48913 -2.60359,-5.0914 -0.1132,-1.13142 -0.56599,-3.16798 -1.01879,-4.52569 -0.566,-1.81027 -0.7924,-3.16798 -0.7924,-5.31768 0,-3.05484 0.33961,-4.29941 1.81119,-5.99654 0.90559,-1.13142 0.90559,-1.24456 0,-3.62055 -0.56599,-1.47085 -0.56599,-1.47085 0.2264,-3.28113 l 0.7924,-1.81027 -0.566,-2.48913 c -0.79239,-3.16798 -0.79239,-4.2994 0.1132,-6.22282 l 0.7924,-1.58399 -0.56601,-2.03656 c -0.56599,-1.92342 -0.56599,-2.03656 0.1132,-3.95998 0.33961,-1.13142 0.67921,-2.1497 0.67921,-2.48913 0,-0.22629 -0.67921,-1.13142 -1.4716,-1.92342 l -1.47158,-1.47085 0.79239,-1.81027 c 0.67919,-1.58399 0.90559,-2.48913 1.01879,-5.99654 l 0.22639,-4.18626 1.132,-1.47085 c 0.6792,-0.792 1.92439,-1.81028 2.94318,-2.37599 1.5848,-0.90514 2.03759,-0.90514 4.98077,-0.90514 3.16958,0 3.28278,0 5.99957,1.47085 2.71679,1.35771 3.39598,1.58399 3.05638,0.67885 -0.56599,-1.47084 -4.75437,-3.16798 -8.26355,-3.39426 l -2.60359,-0.22629 1.0188,-0.90513 c 0.566,-0.56572 1.81118,-1.35771 2.82998,-1.81028 1.5848,-0.792 2.26399,-0.90514 5.54677,-1.01828 3.28277,-0.11314 3.84878,0 4.52797,0.56571 l 0.79239,0.67885 -1.35838,0.67886 c -2.49039,1.24456 -2.03759,2.03656 0.56599,1.13142 2.82998,-0.90514 4.30158,-0.11314 7.92395,4.52569 0.9056,1.24456 1.0188,1.24456 1.92439,0.90514 0.79239,-0.33943 1.4716,-0.33943 3.16958,0 3.73558,0.56571 5.65997,2.1497 4.98077,4.07312 -0.67919,1.92342 -0.3396,2.1497 1.58479,0.90514 1.24519,-0.792 1.4716,-0.792 6.22596,-0.792 6.33917,0 9.96155,-0.45257 11.43312,-1.24456 1.132,-0.67886 4.41478,-1.24457 7.24476,-1.24457 1.3584,0 1.698,-0.22628 3.62239,-1.81028 1.13198,-1.01828 2.37718,-1.81027 2.82998,-1.92341 0.33959,-0.11315 1.01879,-0.22629 1.47158,-0.33943 0.56601,-0.11314 1.132,-0.792 2.03759,-2.03656 1.4716,-2.37599 2.37719,-2.9417 5.09397,-3.28112 2.03759,-0.22629 2.49038,-0.45257 4.07518,-1.584 1.69799,-1.24456 1.92439,-1.3577 3.96197,-1.47084 1.2452,0 3.16959,-0.33943 4.41477,-0.792 3.50919,-1.13142 5.65998,-1.01828 8.15036,0.33943 3.39598,1.81027 5.20717,4.41254 5.43357,7.91995 0.1132,1.69714 0,2.1497 -0.7924,3.7337 l -0.9056,1.81027 0.9056,1.01828 c 0.9056,1.01828 1.92439,3.7337 1.92439,5.31769 0,0.45257 -0.3396,1.58399 -0.6792,2.48913 -0.90559,2.1497 -0.90559,3.5074 0.2264,5.54396 0.79239,1.47085 0.79239,1.81028 0.4528,2.60228 -0.3396,0.79199 -0.2264,1.13142 0.33959,2.03656 0.67921,1.13142 0.67921,1.3577 0.45281,7.01481 l -0.22641,5.8834 -1.01879,1.35771 c -1.24519,1.69713 -1.24519,2.71541 -0.1132,4.63883 1.01879,1.69713 1.01879,3.16798 0.2264,5.43082 -0.79239,2.14971 -0.79239,3.62056 0.1132,4.86512 l 0.67919,0.90514 -0.90559,1.69713 c -1.01879,2.03656 -1.13199,3.16798 -0.2264,4.86512 l 0.6792,1.24456 -0.90559,1.69714 c -0.4528,1.01828 -1.2452,3.84683 -1.8112,6.33596 -1.35838,6.56225 -3.39597,11.76679 -6.11275,15.72677 -2.26399,3.28112 -4.18838,4.2994 -4.86758,2.71541 -0.45279,-1.01828 -0.6792,-1.01828 -2.15078,0 -1.4716,1.01828 -3.84879,1.81028 -5.54677,1.81028 -0.9056,0 -1.35839,-0.22629 -1.69799,-0.792 -0.4528,-0.67885 -0.56599,-0.67885 -1.4716,-0.45257 -0.67919,0.22629 -1.24518,0.22629 -2.26398,-0.22628 -1.58479,-0.56571 -2.37719,-0.33943 -1.47159,0.56571 0.3396,0.33943 0.4528,0.67885 0.3396,0.792 -0.3396,0.33942 -5.77316,0.22628 -6.56557,-0.22629 -1.24518,-0.67885 -2.03759,-2.26284 -2.03759,-4.18626 0,-0.90514 -0.11319,-1.81028 -0.33959,-1.81028 -0.1132,-0.11314 -1.13199,-0.22628 -2.03759,-0.22628 -1.69798,0 -1.69798,0 -2.26399,-1.47085 -1.58478,-3.73369 -3.62237,-5.31768 -7.35794,-5.31768 -2.15078,0 -4.75436,0.67885 -4.75436,1.24456 0,0.56571 0.67919,0.56571 2.60358,0.11314 1.24517,-0.33942 2.49037,-0.45257 3.28276,-0.33942 2.82999,0.45256 5.43357,3.73369 5.65997,7.12796 0.1132,1.92341 -0.3396,3.73369 -2.03759,7.46738 -0.566,1.24457 -1.69798,3.95998 -2.60359,5.99654 -2.15077,5.31769 -2.82998,6.33597 -4.07516,6.33597 -0.6792,0 -1.24519,-0.33943 -1.92438,-0.90514 z" />
<path d="m 214.65931,305.97424 c -0.1132,-0.33942 -0.56599,-1.81027 -1.01879,-3.39426 -0.33959,-1.58399 -1.92439,-5.8834 -3.28277,-9.73024 l -2.6036,-6.90167 v -8.0331 c 0,-4.41255 -0.1132,-9.84337 -0.22639,-11.87993 l -0.3396,-3.84684 1.132,-1.35771 c 0.56599,-0.67885 1.24519,-1.69713 1.35838,-2.1497 0.2264,-0.79199 0,-4.86511 -0.45279,-8.37252 l -0.2264,-1.69714 1.5848,0.792 c 0.90559,0.45257 1.81118,1.01828 2.03757,1.35771 0.67921,0.79199 0.45281,2.60227 -0.67919,5.43082 -1.24519,3.16799 -1.24519,4.52569 0.4528,7.24111 l 1.132,1.92341 v 4.41255 4.41255 l 1.24518,1.81027 c 1.132,1.69714 1.132,1.81028 0.79241,3.28113 -0.3396,1.3577 -0.3396,1.58399 0.33959,2.48913 0.566,0.79199 0.79239,1.69713 0.90559,3.50741 0.2264,2.26284 0.3396,2.71541 1.5848,4.52568 1.35838,1.81028 1.35838,2.03656 1.24518,3.7337 -0.1132,1.01828 -0.1132,3.28112 0,5.0914 0.1132,3.62055 -0.22639,4.63883 -2.03759,6.78853 -1.01879,1.13142 -2.49038,1.35771 -3.05638,0.45257 z" />
<path d="m 270.35337,305.18225 c -0.67919,-0.22629 -2.15079,-0.90514 -3.16958,-1.47085 -2.94319,-1.69713 -4.07518,-1.92342 -8.03716,-1.92342 -2.37718,0 -3.73557,0.11314 -4.75436,0.33943 -0.79239,0.22628 -1.58478,0.33942 -1.92438,0.33942 -0.22639,0 -1.47159,-0.67885 -2.60358,-1.58399 -4.18838,-3.16798 -10.07474,-6.67539 -11.99913,-7.2411 -1.69799,-0.56571 -5.88637,-0.67885 -7.81075,-0.33943 -0.9056,0.11315 -2.82999,0.792 -4.52798,1.47085 -1.69799,0.67886 -3.05639,1.13143 -3.28278,1.01828 -0.3396,-0.11314 -0.3396,-0.45257 -0.3396,-2.9417 0.1132,-2.71541 0.1132,-2.82855 0.6792,-3.28112 1.58479,-1.35771 5.32037,-2.1497 9.96154,-2.1497 5.88636,0 8.37675,0.67885 12.11232,3.28112 2.37719,1.58399 3.62239,2.26285 6.33917,3.16799 1.2452,0.45256 3.50917,1.3577 5.09395,2.1497 1.5848,0.79199 3.28278,1.58399 3.84879,1.69713 0.56599,0.11314 2.94318,0.33943 5.32036,0.45257 4.41478,0.22628 7.13156,0.56571 9.05595,0.90514 0.79239,0.22628 1.35839,0.11314 2.49039,-0.11314 1.47158,-0.33943 1.58478,-0.33943 2.94318,0.11314 1.47158,0.56571 2.26398,0.56571 2.60358,0 0.56599,-0.90514 -0.67919,-1.81028 -5.32037,-3.84684 -6.45236,-2.9417 -10.30114,-3.84683 -15.39511,-3.95998 -3.05638,0 -3.28278,0 -4.64116,0.67886 -0.79241,0.33942 -1.5848,0.67885 -1.8112,0.56571 -0.22638,0 -1.69798,-0.45257 -3.28277,-1.01828 -2.71678,-0.90514 -3.05638,-1.01828 -4.07517,-2.03656 -1.2452,-1.24457 -1.4716,-2.26285 -1.132,-3.50741 0.3396,-1.13142 2.37719,-3.95998 3.16959,-4.52569 0.3396,-0.22628 2.82998,-1.58399 5.43355,-2.82856 4.64118,-2.26284 4.86757,-2.37598 6.45236,-2.48912 0.9056,0 2.15079,0 2.60358,0.22628 0.56601,0.11314 3.28279,1.47085 6.22597,2.9417 4.52797,2.26284 5.43356,2.60227 6.67876,2.71541 1.35839,0.11314 1.47159,0.11314 2.15079,-0.56571 1.13199,-1.01828 1.81118,-2.71541 1.92438,-4.75197 0,-3.7337 -2.94318,-6.33597 -8.03715,-7.24111 -0.90559,-0.11314 -1.69799,-0.33942 -1.69799,-0.56571 -0.1132,-0.11314 -0.2264,-0.67885 -0.2264,-1.13142 v -0.792 l 1.69799,-0.11314 c 2.71679,-0.22628 5.20717,0 6.56557,0.792 1.35838,0.79199 4.18836,3.62055 5.20717,5.43083 1.35838,2.26284 1.47158,2.82855 1.35838,6.78853 -0.1132,3.39427 -0.1132,3.62055 -0.67919,4.63883 -0.90559,1.47085 -2.03759,2.37599 -3.50918,2.82856 -1.81119,0.56571 -2.82998,0.33942 -7.92396,-2.14971 -2.37718,-1.13142 -4.98077,-2.26284 -5.77316,-2.60227 -2.94318,-1.01828 -6.33915,-1.01828 -8.60314,0.11314 -2.49039,1.13143 -4.52798,3.62056 -4.52798,5.43083 0,0.90514 0.6792,2.03656 1.24519,2.03656 0.56601,0 1.2452,-0.90514 1.3584,-1.92342 0.2264,-1.58399 1.01879,-2.37598 2.60358,-2.37598 1.698,0 4.18838,0.56571 9.39555,2.03656 9.84834,2.94169 10.07474,2.94169 12.11233,4.86511 3.05637,2.82856 3.39597,6.44911 1.13198,9.39081 -0.67919,0.90514 -2.60358,2.1497 -4.30157,2.82855 -1.81118,0.67886 -6.45236,0.90514 -8.26355,0.33943 z" />
<path d="m 225.97925,281.76181 c -5.54676,-0.67886 -8.48996,-3.62055 -8.15035,-8.25939 0.1132,-1.58399 0.90559,-4.18626 1.35839,-4.52568 0.1132,-0.11315 1.132,-0.33943 2.26399,-0.45257 4.07517,-0.56571 14.26311,-3.62056 19.24388,-5.77026 2.94318,-1.24456 3.50918,-1.3577 3.96197,-0.33942 0.45281,0.90513 1.5848,1.24456 3.62239,1.13142 1.92439,-0.11314 3.96198,-0.792 7.92393,-2.48913 2.82998,-1.13142 2.94318,-1.13142 4.64118,-1.13142 3.96198,0.22628 5.88636,1.24456 7.01836,3.73369 1.47159,3.16798 1.24518,5.20454 -0.4528,6.78853 -1.81119,1.69714 -2.37718,1.81028 -12.22553,1.81028 -9.96152,0 -13.69711,-0.33943 -13.69711,-1.24456 0,-0.792 10.86714,-4.18627 14.14991,-4.52569 1.69799,-0.11315 3.96198,0.33942 4.98077,1.01828 0.56599,0.45257 0.56599,0.45257 0.2264,1.47085 -0.3396,1.3577 -0.2264,2.1497 0.45279,2.1497 1.0188,0.11314 2.26399,-1.58399 2.26399,-3.16798 0,-1.69714 -2.26399,-3.39427 -5.43357,-3.95998 -2.82998,-0.56571 -5.09395,0 -18.79108,4.63883 -5.99955,2.03656 -12.33872,3.95998 -14.2631,4.52569 -3.05639,0.79199 -3.39599,0.90514 -3.50919,1.3577 -0.22639,1.01828 0.4528,1.47085 4.07518,2.03656 2.71679,0.45257 4.07517,0.56572 7.47116,0.56572 4.86757,0 6.90516,-0.33943 9.96154,-1.584 2.15079,-0.90513 2.82998,-0.90513 8.15035,-0.56571 4.75436,0.33943 4.64116,0.33943 2.60358,1.35771 -6.56555,3.39427 -21.39466,6.10968 -28.18663,5.20454 z" />
<path d="m 270.24017,262.64077 c -0.56599,-1.01828 -1.47159,-2.26284 -2.15079,-3.05484 -0.67919,-0.67885 -1.13198,-1.24456 -0.90559,-1.13142 0.2264,0.11314 1.24519,0.56571 2.37719,1.01828 3.96197,1.69713 5.54676,1.81027 5.77316,0.45257 0.1132,-0.792 -0.45279,-1.13143 -2.82998,-1.92342 -1.132,-0.33943 -1.92439,-0.67885 -1.81119,-0.90514 0.1132,-0.45257 4.30157,-3.05484 5.32036,-3.39427 1.132,-0.33942 4.18838,-0.11314 5.65998,0.33943 1.35838,0.45257 1.69798,1.01828 2.03758,3.05484 0.7924,4.97826 -1.58479,6.56225 -10.07474,7.01482 l -2.37719,0.11314 z" />
<path d="m 219.30049,265.69561 c -1.13199,-0.45257 -1.8112,-1.01828 -2.49039,-2.37599 -1.01879,-1.81027 -1.13199,-2.94169 -0.79239,-4.63883 0.4528,-1.69713 1.13199,-3.39426 1.47158,-3.39426 0.33961,0 2.7168,1.92341 4.75438,3.84683 2.26398,2.1497 3.16959,2.48913 5.09397,2.03656 2.37718,-0.56571 2.71679,-0.56571 4.30157,0.11314 0.79241,0.33943 1.698,0.56571 2.03759,0.56571 0.3396,0 0.566,0.11315 0.566,0.22629 0,0.79199 -9.05594,3.62055 -12.45193,3.84683 -1.01879,0.11315 -1.92439,0 -2.49038,-0.22628 z" />
</svg>
