<svg xmlns="http://www.w3.org/2000/svg" viewBox="0 0 512 384">
<rect width="512" height="384" id="P007WIImgRct5" fill="#fff"/>

<path d="m 171.98696,354.67397 c -0.22636,-0.67907 -1.47133,-9.84657 -1.69768,-13.01559 -0.67908,-7.69617 0.11318,-16.97685 2.26358,-27.95522 2.03722,-10.52564 6.56438,-24.67302 12.90241,-40.17855 0.79225,-1.81086 1.5845,-4.3008 1.81086,-5.54577 1.13179,-6.22485 1.81087,-19.35362 1.58451,-31.57695 -0.33954,-15.05281 -2.03723,-38.70723 -3.28219,-44.253 -0.45272,-2.26358 -1.69769,-1.35815 -3.50855,2.7163 -3.73491,8.14889 -5.20624,14.93963 -6.11167,29.42654 -0.79226,12.4497 -1.92405,18.22183 -3.39537,18.67454 -0.33954,0.11318 -5.20624,-7.35663 -18.44818,-28.0684 l -10.97837,-17.20321 0.45272,-2.37676 c 1.5845,-7.58299 1.81086,-11.3179 2.48993,-44.13982 0.45272,-21.27766 0.90544,-31.57695 1.69769,-35.0855 1.24497,-5.88531 4.41398,-13.24194 7.24346,-17.09003 4.41398,-5.77213 11.65744,-10.97837 18.67454,-13.35513 2.71629,-0.90543 5.20623,-1.358144 15.27917,-3.055829 9.62021,-1.584507 13.12876,-2.489939 19.69315,-5.319415 6.90392,-2.942654 10.63883,-5.206235 12.44969,-7.243458 1.35815,-1.584506 3.50855,-5.885309 4.18762,-8.601606 1.01862,-4.074445 1.01862,-12.223335 -0.11318,-16.071422 -0.22635,-0.679074 -0.90543,-2.037222 -1.5845,-3.055833 -0.67908,-1.018612 -1.69769,-2.489939 -2.26358,-3.282192 -1.24497,-1.924044 -3.05584,-5.77213 -3.73491,-7.809353 -0.22636,-0.792253 -0.45272,-1.697685 -0.5659,-1.810864 -0.11317,-0.226358 7.69618,-0.339538 38.3677,-0.339538 h 38.48086 v 0.565896 c 0,1.924043 -3.05583,8.262069 -5.20623,11.091544 -3.16901,4.187624 -3.50855,5.093057 -3.50855,13.128768 0,5.093056 0,5.658951 0.67907,7.922531 1.69769,6.224847 4.52716,9.733397 10.07294,12.676052 6.67756,3.508549 14.37373,5.658951 29.31337,8.14889 11.09154,1.810864 14.82645,2.942659 19.57997,5.658949 4.64034,2.7163 10.18611,7.69618 12.56287,11.43108 3.50855,5.20624 6.33802,13.46831 6.90392,19.57998 0.45272,4.75351 0.90543,17.42957 1.47133,44.59253 0.22636,9.62022 0.56589,19.57997 0.90543,22.74899 0.22636,2.37676 1.35815,8.82796 1.69768,10.07293 0.11318,0.22636 -0.90543,2.03722 -2.26358,4.18762 -16.75049,26.4839 -23.99395,37.68862 -25.91799,40.40492 -1.01861,1.35815 -1.01861,1.35815 -1.47133,0.90543 -1.24497,-1.13179 -2.26358,-7.0171 -2.94266,-18.10865 -0.79225,-12.67605 -1.81086,-18.335 -4.3008,-25.23892 -1.13179,-3.05583 -2.71629,-6.33802 -3.50855,-7.46981 -0.67907,-0.90544 -1.5845,-1.13179 -1.81086,-0.45272 -0.67908,2.37676 -1.92405,14.48692 -2.82948,29.20019 -0.90543,13.69466 -1.13179,38.14133 -0.33954,44.70571 0.33954,2.60312 1.24497,5.4326 4.41399,13.35513 6.79074,16.86368 11.99697,36.33047 12.90241,48.44062 0.33953,4.18763 0.33953,13.01559 0,17.20322 -0.33954,4.07444 -1.24497,10.07293 -1.69769,10.63882 -0.33954,0.45272 -4.41398,0.45272 -83.41294,0.5659 -69.37875,0.11318 -83.07341,0 -83.18659,-0.22636 z" style="fill:#808080;"/>
<path d="m 204.24298,202.10864 c -1.35814,-0.33953 -3.7349,-1.5845 -4.97987,-2.82947 -2.7163,-2.60312 -3.84809,-5.77213 -4.41398,-11.3179 -0.45272,-4.97988 -0.67908,-14.26056 -0.5659,-25.01257 0.22636,-14.60009 0.45272,-18.22182 1.58451,-22.18309 1.47132,-5.20623 6.79074,-15.73188 10.63883,-21.16448 4.52716,-6.33802 16.41095,-16.41096 22.29626,-18.9009 5.20624,-2.1504 10.41247,-0.67907 13.58149,4.07445 3.16901,4.75352 6.22484,13.69466 8.26207,25.23892 1.01861,5.65895 1.92404,10.29929 2.48993,12.90241 0.67908,3.16901 0.79226,10.52565 0.22636,15.84507 -0.56589,4.86669 -0.79225,7.92253 -1.13179,12.67605 -0.45271,6.67756 -0.90543,9.1675 -2.60312,12.56287 -0.90543,1.92404 -1.24496,2.37676 -2.94265,4.07444 -2.60312,2.60312 -6.56438,5.09306 -13.01559,8.14889 -7.92253,3.73491 -12.78923,5.09306 -21.0513,5.65896 -5.43259,0.33953 -7.58299,0.45271 -8.48842,0.22635 z" />
<path d="m 300.2188,202.10864 c -8.94114,-0.56589 -14.48692,-1.69768 -20.25905,-4.18762 -6.90392,-3.05583 -12.56287,-6.22485 -15.6187,-8.82796 -1.47133,-1.24497 -3.28219,-3.50855 -4.07445,-5.31942 -1.35814,-2.82947 -2.03722,-6.33802 -2.48994,-13.4683 -0.11317,-2.03723 -0.45271,-5.99849 -0.79225,-8.82797 -0.22636,-2.82947 -0.56589,-5.99849 -0.67907,-7.0171 -0.22636,-2.48994 0.22636,-10.29929 0.67907,-11.65744 0.11318,-0.56589 1.35815,-6.33802 2.60312,-12.67605 2.48994,-12.22333 2.82948,-13.80784 4.41398,-17.76911 2.7163,-6.79074 4.97988,-10.18611 8.26207,-11.65744 4.3008,-2.03722 8.03571,-1.24496 14.14738,2.82948 5.99849,4.07445 13.35512,10.86519 16.97685,15.61871 3.62173,4.75352 9.50704,16.52413 10.97837,21.84355 1.24497,4.41398 1.58451,12.44969 1.47133,30.33198 -0.11318,11.43108 -0.22636,15.05281 -0.79226,18.9009 -0.79225,5.43259 -3.05583,9.05432 -7.0171,10.97836 -2.1504,1.01861 -3.16901,1.13179 -7.92253,0.90543 z" />
<path d="m 251.665,135.10666 c -0.11318,-0.45272 -0.45272,-2.48994 -0.90543,-4.64034 -0.79226,-3.73491 -0.79226,-3.84809 -0.45272,-4.18762 0.11318,-0.11318 0.45272,-0.45272 0.56589,-0.79226 0.33954,-0.45271 0.33954,-0.56589 0.33954,-5.20623 0,-2.60312 0,-9.39386 -0.11318,-15.05281 0,-8.60161 0,-10.52565 0.11318,-11.09155 0.22636,-0.67907 0.22636,-0.79225 -0.11318,-1.69768 -0.45271,-1.35815 -0.56589,-2.15041 -0.33953,-5.4326 0.22635,-3.508547 0.11317,-3.848084 -0.79226,-5.206233 -1.24497,-1.810864 -2.37676,-6.451204 -2.71629,-10.978365 0,-0.565895 0,-1.924044 0,-2.829476 l 0.11317,-1.697685 4.07445,0.113179 c 4.52716,0.113179 6.90392,0.113179 9.39386,-0.339538 1.92404,-0.339537 2.37676,-0.339537 2.82947,0.452717 0.22636,0.339537 0.33954,0.792253 0.33954,1.924043 0.11318,1.697685 -0.11318,3.50855 -0.90543,7.243458 -0.67907,3.395371 -1.13179,4.64034 -2.03722,5.998488 -1.01861,1.584507 -1.13179,1.924044 -0.90544,2.829472 0.33954,1.13179 0.33954,6.79075 0,7.583 -0.33953,0.67907 -0.33953,13.35512 0,14.60009 0.11318,0.67908 0.11318,1.47133 0,4.18763 -0.22635,5.09305 -0.45271,7.80935 -0.67907,9.62021 -0.22636,1.58451 -0.22636,1.58451 0.11318,2.03723 0.22636,0.33953 0.33954,0.56589 0.22636,1.13179 -0.11318,0.56589 0,0.79225 0.33953,1.5845 l 0.45272,0.79226 -0.90543,4.41398 c -0.67908,3.39537 -0.90543,4.41398 -1.13179,4.41398 -0.11318,0 -0.5659,-0.11318 -1.01861,-0.22636 -1.01861,-0.33953 -2.7163,-0.33953 -3.50855,0 -0.33954,0.11318 -0.90544,0.45272 -1.35815,0.67908 l -0.79225,0.45271 z"/>
<path d="m 305.76457,192.94114 c -0.45271,-0.67907 -1.35815,-1.13179 -2.26358,-1.35815 -0.79225,-0.22635 -1.13179,-0.79225 -1.81086,-3.62172 -0.33954,-1.35815 -0.79226,-2.7163 -0.90543,-2.94266 -0.33954,-0.45272 -0.33954,-0.45272 -0.5659,-0.11318 -0.11318,0.22636 -0.33954,1.01861 -0.33954,1.92404 -0.11318,1.81087 -0.33953,2.48994 -1.01861,2.82948 -0.79225,0.45272 -0.90543,0.11318 -0.90543,-1.58451 0,-1.69768 -0.22636,-2.03722 -0.79225,-1.47132 -0.22636,0.22635 -0.5659,0.33953 -0.67908,0.22635 -0.33953,-0.11317 -0.33953,-0.45271 -0.22636,-3.84808 0.11318,-2.03722 0.22636,-3.96127 0.22636,-4.30081 0.11318,-0.45271 -0.11318,-0.90543 -1.35815,-2.48993 -2.03722,-2.82948 -2.26358,-3.39537 -2.48993,-5.77213 -0.11318,-2.15041 -0.33954,-2.82948 -1.24497,-3.73491 -1.47133,-1.35815 -4.41399,-1.47133 -4.8667,-0.11318 -0.22636,0.67907 0.11318,1.58451 1.5845,3.50855 2.37676,3.16901 4.41399,7.92253 4.41399,10.18611 0,0.90543 0,0.90543 -0.67908,0.67908 l -0.67907,-0.11318 0.11318,1.13179 c 0.11318,0.56589 0.22636,1.35815 0.22636,1.5845 0.11317,0.45272 0,0.33954 -1.01862,-0.45271 -0.67907,-0.5659 -1.35814,-1.01861 -1.69768,-1.24497 -0.79225,-0.33954 -1.24497,-1.58451 -1.92405,-5.09306 -0.33953,-1.92404 -0.79225,-3.05583 -1.35814,-4.18762 -0.79226,-1.69769 -2.03723,-3.28219 -2.60312,-3.28219 -0.45272,0 -0.33954,1.24496 0.33954,3.16901 1.5845,4.64034 1.47132,4.18762 1.13179,5.65895 -0.45272,1.69769 -0.33954,2.48994 0.56589,3.05583 1.01861,0.5659 2.94266,2.37676 3.16901,3.05584 0.11318,0.45271 0.22636,1.35815 0.22636,2.82947 -0.11318,2.7163 -0.33953,3.16902 -0.90543,1.58451 -0.22636,-0.5659 -0.33954,-1.13179 -0.33954,-1.35815 0,-0.11318 -0.22636,-0.45272 -0.45271,-0.67907 -0.45272,-0.45272 -0.45272,-0.45272 -0.67908,-0.11318 -0.11318,0.22636 -0.33953,0.67907 -0.33953,1.13179 0,0.33954 -0.11318,0.90543 -0.22636,1.01861 -0.22636,0.22636 -0.22636,0.22636 -0.45272,0 -0.22636,-0.33954 -0.11318,-1.58451 0.11318,-3.96127 0.11318,-1.01861 0.11318,-1.01861 -0.33954,-1.01861 -0.56589,0 -1.35814,0.79226 -1.81086,1.81087 -0.33954,0.90543 -0.5659,0.45271 -0.79225,-2.1504 -0.33954,-4.07445 -0.79226,-5.4326 -1.92405,-5.31942 -0.79225,0.11318 -0.90543,0.45272 -0.79225,4.3008 0.11318,3.16902 0.11318,3.2822 -0.45272,4.30081 -0.33953,0.56589 -0.79225,1.24497 -1.01861,1.5845 -0.45271,0.45272 -0.45271,0.45272 -0.79225,0.11318 -0.11318,-0.22636 -0.33954,-0.90543 -0.33954,-1.81086 -0.11318,-2.37676 -0.11318,-2.37676 -1.24497,-2.26358 -0.90543,0.11318 -0.90543,0.11318 -1.01861,-0.5659 0,-0.45271 0.22636,-1.35815 1.24497,-3.39537 2.03722,-4.18762 2.03722,-4.64034 1.01861,-6.67756 -1.24497,-2.48994 -1.81086,-1.92404 -2.1504,1.92404 -0.11318,1.69769 -0.22636,2.48994 -0.67907,3.16901 -0.5659,1.01862 -2.26358,3.62173 -3.2822,4.64035 L 270,184 l 0.11318,-1.35815 c 0.11318,-1.58451 0,-1.58451 -1.35815,-1.01861 -1.13179,0.45272 -1.01861,0.11318 0.5659,-2.03722 2.03722,-2.7163 2.94265,-4.75352 2.94265,-6.67757 0,-1.69768 -0.45272,-1.92404 -1.58451,-0.90543 -0.79225,0.67908 -1.81086,1.01861 -2.60311,0.90543 -0.67908,-0.11317 -1.69769,-1.13179 -1.92405,-1.81086 -0.22636,-0.79225 0.11318,-0.90543 1.47133,-0.79225 1.47133,0.11318 3.16901,-0.11318 3.73491,-0.67908 l 0.45271,-0.33953 -0.45271,-0.45272 c -0.22636,-0.22636 -1.01861,-0.67907 -1.69769,-0.90543 -1.69768,-0.5659 -2.71629,-1.01861 -2.71629,-1.24497 0,-0.45272 1.01861,-0.33954 1.92404,0.11318 2.1504,1.01861 3.62173,0.79225 4.07444,-0.5659 0.33954,-1.01861 0.79226,-7.69617 0.5659,-8.48843 -0.11318,-0.33953 -0.33954,-0.79225 -0.5659,-0.90543 -0.33953,-0.22636 -0.45271,-0.22636 -1.01861,0.11318 -0.33953,0.22636 -0.90543,1.01861 -1.35814,1.58451 -0.45272,0.67907 -0.90544,1.24497 -1.01862,1.24497 -0.11318,0 -0.33953,-0.22636 -0.56589,-0.45272 -0.33954,-0.45271 -0.33954,-0.45271 -1.01861,0 -0.33954,0.22636 -0.67908,0.45272 -0.79226,0.45272 -0.33953,0 -0.11317,-0.90543 0.45272,-2.03723 1.01861,-2.1504 0.79225,-2.60311 -1.47133,-2.71629 -2.26358,-0.11318 -2.37676,-0.22636 -2.37676,-0.90543 0,-0.67908 0.22636,-0.79226 1.47133,-0.79226 1.13179,0 1.24497,-0.45271 0.11318,-1.5845 l -0.90543,-0.90544 0.67907,0.11318 c 0.33954,0.11318 1.47133,0.45272 2.48994,0.90544 1.92404,0.90543 3.62173,1.13179 4.41398,0.79225 1.01861,-0.5659 1.24497,-2.94266 0.45272,-4.75352 -0.45272,-1.13179 -4.64034,-5.09306 -8.14889,-8.03571 -2.7163,-2.26358 -5.99849,-4.64034 -6.45121,-4.8667 -0.11318,0 -0.11318,-0.45272 0.11318,-1.13179 0.11318,-0.5659 0.5659,-2.48994 0.90544,-4.18762 0.33953,-1.69769 0.67907,-3.16902 0.67907,-3.2822 0,-0.11317 0.56589,0.33954 1.13179,0.90544 1.35815,1.24497 3.84809,3.28219 4.64034,3.7349 0.56589,0.22636 0.67907,0.22636 1.13179,0 1.01861,-0.67907 2.37676,-3.05583 2.37676,-4.18762 0,-0.56589 -0.11318,-0.67907 -1.47133,-1.01861 -0.79225,-0.22636 -1.5845,-0.5659 -1.69768,-0.79225 -0.45272,-0.5659 -1.69769,-1.81087 -2.37676,-2.37676 -0.5659,-0.45272 -0.79226,-1.58451 -0.67908,-2.82948 0.11318,-0.56589 0.11318,-0.56589 1.01861,-0.56589 0.90544,0 1.01862,0 1.13179,0.67907 0.11318,0.33954 0.45272,0.90543 0.79226,1.24497 l 0.56589,0.56589 0.5659,-0.45271 0.56589,-0.45272 0.5659,0.67908 c 0.67907,0.79225 1.13179,0.90543 1.13179,0.11318 0,-1.01862 -0.5659,-4.07445 -1.01861,-4.97988 -0.45272,-0.90543 -1.35815,-1.69769 -2.48994,-2.1504 -1.13179,-0.45272 -1.35815,-0.79226 -0.67908,-1.47133 0.79226,-0.67908 1.35815,-0.79225 1.92405,-0.45272 1.01861,0.67908 1.24497,-0.33953 0.45271,-2.1504 -0.45271,-0.90543 -0.45271,-1.24497 -0.33953,-1.58451 0.33953,-0.56589 0.33953,-0.56589 1.35815,0.22636 0.45271,0.33954 0.90543,0.5659 1.13179,0.5659 0.45271,0 0.22635,-1.69769 -0.45272,-2.60312 -0.79225,-1.13179 -0.67907,-1.24497 0.33954,-1.13179 0.79225,0.11318 1.01861,0 1.35815,-0.33954 0.33953,-0.45271 0.45271,-0.45271 0.90543,-0.11318 0.45271,0.33954 0.79225,1.13179 0.79225,2.48994 0,0.79226 0.33954,1.47133 0.67907,1.47133 0.45272,0 0.90544,-1.24497 0.90544,-2.82948 0,-1.35814 0.56589,-3.28219 0.79225,-2.94265 0.11318,0.11318 0.22636,0.56589 0.33954,1.01861 0.33953,1.01861 0.56589,1.24497 1.81086,1.47133 1.24497,0.22636 1.35815,0.56589 0.33954,2.26358 -1.24497,2.03722 -2.1504,5.09306 -1.81087,5.99849 0.22636,0.45271 0.5659,0.11318 1.81087,-2.03723 1.24497,-2.03722 2.1504,-3.28219 2.82947,-3.7349 0.33954,-0.22636 0.45272,-0.22636 1.35815,0.33953 0.5659,0.33954 1.13179,0.5659 1.24497,0.5659 0.45272,0 0.79226,0.45272 0.79226,0.90543 0,0.22636 -0.67908,1.01861 -1.47133,1.81087 -2.60312,2.60311 -7.0171,8.37524 -6.67756,8.82796 0.11317,0.11318 0.33953,0.11318 0.45271,0.11318 0.67908,-0.22636 2.82948,-1.81087 4.64034,-3.62173 1.01861,-0.90543 2.48994,-2.1504 3.16901,-2.48994 2.03723,-1.35815 2.26358,-1.5845 3.39537,-3.39537 1.01862,-1.69768 1.69769,-2.26358 2.26359,-2.03722 0.45271,0.11318 0.56589,1.35815 0.22635,2.60312 -0.56589,2.48993 -0.22635,2.48993 1.92405,0.33953 0.90543,-0.90543 1.69768,-1.5845 1.92404,-1.5845 0.45272,0 0.90543,0.56589 0.90543,0.90543 0,0.22636 -0.45271,0.67907 -0.90543,1.13179 -1.58451,1.47133 -1.58451,2.48994 -0.11318,3.16901 0.33954,0.11318 0.5659,0.33954 0.5659,0.45272 0,0.22636 -0.79226,0.56589 -2.37676,0.90543 -1.58451,0.45272 -3.16902,1.24497 -5.31942,2.7163 -0.90543,0.67907 -2.26358,1.47132 -2.82947,1.81086 -0.67908,0.33954 -1.13179,0.5659 -1.01861,0.67908 0.22635,0.45271 2.60311,0.11317 4.3008,-0.45272 1.35815,-0.45272 2.03722,-0.5659 3.39537,-0.5659 1.81086,0 3.50855,0.45272 4.07444,1.01862 0.33954,0.33953 0.33954,0.33953 -0.11317,0.56589 -0.22636,0.11318 -1.47133,0.67907 -2.82948,1.13179 -2.48994,0.90543 -2.82948,1.13179 -2.1504,1.92404 0.33954,0.33954 0.33954,0.33954 -0.11318,0.5659 -0.5659,0.33954 -1.58451,0.22636 -3.73491,-0.11318 -2.26358,-0.45272 -3.05583,-0.33954 -5.43259,0.79225 -2.94266,1.35815 -2.94266,1.81087 0,1.24497 3.96126,-0.67907 5.43259,-0.33953 7.46981,1.35815 1.58451,1.35815 1.92405,1.35815 3.39537,-0.22636 1.1318,-1.24497 2.94266,-2.1504 3.84809,-2.03722 0.45272,0.11318 0.5659,0.11318 0.45272,0.67907 -0.11318,0.5659 0,0.67908 0.56589,0.67908 0.33954,0 1.47133,-0.5659 2.82948,-1.35815 2.37676,-1.35815 3.16901,-1.58451 3.28219,-0.79225 0.11318,0.45271 0.11318,0.45271 1.92404,0.45271 1.47133,0 1.92405,0.11318 2.26358,0.33954 0.5659,0.5659 -0.22635,1.47133 -1.81086,1.92404 -1.47133,0.45272 -2.37676,0.90544 -2.37676,1.13179 0,0.11318 0.33954,0.45272 0.79225,0.5659 1.47133,0.56589 1.13179,0.79225 -2.94265,1.92404 -3.50855,1.01861 -4.07445,1.01861 -7.46982,0.45272 -2.26358,-0.33954 -4.3008,0.11318 -4.64034,0.90543 -0.22636,0.45272 0.45272,1.01861 1.24497,1.24497 0.79226,0.11318 1.01861,0.33954 0.67908,0.79225 -0.33954,0.33954 -1.92405,0.33954 -4.30081,0 -2.60311,-0.45271 -3.39537,-0.33953 -5.20623,0.22636 -0.79226,0.33954 -1.69769,0.45272 -1.92405,0.45272 -0.22635,-0.11318 -0.67907,-0.90543 -1.13179,-1.81087 -0.45271,-0.90543 -1.01861,-1.92404 -1.24496,-2.1504 -0.45272,-0.56589 -1.47133,-0.56589 -2.15041,-0.11318 -0.56589,0.45272 -1.24497,1.69769 -1.35814,2.82948 -0.11318,0.90543 -0.11318,0.90543 1.01861,1.92404 1.13179,1.13179 4.18762,3.16901 5.54577,3.96127 1.47133,0.79225 2.03722,0.56589 3.73491,-1.47133 l 1.13179,-1.35815 0.79225,0.79226 c 1.58451,1.47132 2.48994,1.35814 7.69617,-1.01862 3.73491,-1.69768 5.09306,-2.26358 5.99849,-2.48993 l 0.5659,-0.11318 -0.11318,1.92404 c -0.11318,2.26358 -0.33954,2.7163 -1.24497,3.28219 -0.79225,0.45272 -0.79225,0.5659 -0.22636,1.01861 0.45272,0.33954 0.45272,0.33954 0,0.45272 -0.22636,0.11318 -1.35815,0.22636 -2.37676,0.33954 -2.82947,0.33953 -3.16901,0.33953 -3.50855,0.67907 -0.22636,0.22636 -0.22636,0.45272 -0.11318,0.67907 0.22636,0.33954 0.45272,0.33954 1.58451,0.33954 1.47133,0 2.48994,0.33954 2.7163,0.90543 0.11317,0.22636 0.11317,0.67908 0.11317,1.13179 0,1.58451 0.67908,2.26358 2.37676,2.26358 1.47133,0 2.37676,-0.67907 4.07445,-2.94265 1.92404,-2.48994 2.26358,-2.7163 3.73491,-2.37676 2.03722,0.45272 4.97987,2.1504 4.64034,2.7163 -0.11318,0.11318 -1.24497,0.67907 -2.60312,1.35815 -1.35815,0.67907 -2.60312,1.24496 -2.60312,1.35814 -0.11318,0.22636 0.33954,0.79226 1.47133,2.26358 0.22636,0.33954 0.33954,0.67908 0.33954,0.90544 -0.22636,0.45271 -1.58451,0.45271 -2.60312,-0.22636 -0.79225,-0.33954 -1.01861,-0.45272 -1.35815,-0.33954 -0.56589,0.33954 -0.45272,0.67908 0.5659,1.58451 l 0.90543,0.90543 -1.24497,0.11318 c -1.58451,0.11318 -1.81087,0.33954 -1.13179,1.24497 0.56589,0.56589 0.56589,0.67907 0.22636,0.79225 -1.24497,0.45272 -4.18763,0 -5.77213,-1.01861 -1.81087,-1.13179 -2.82948,-1.58451 -3.50855,-1.58451 -0.33954,0 -0.67908,0.11318 -0.67908,0.22636 0,0.11318 0.5659,0.79226 1.35815,1.47133 0.67907,0.67907 1.35815,1.35815 1.35815,1.47133 0,0.33953 -0.90543,0.67907 -1.58451,0.56589 -1.01861,-0.22636 -3.16901,-1.47133 -4.41398,-2.60312 -0.67907,-0.56589 -2.26358,-2.37676 -3.62173,-3.96126 -1.24497,-1.58451 -2.60312,-2.94266 -2.94265,-3.16901 -0.67908,-0.33954 -2.48994,-0.22636 -3.73491,0.11317 -0.90543,0.33954 -0.79225,0.90544 0.45271,1.58451 1.81087,1.01861 4.41399,3.05583 7.80936,6.33803 1.92404,1.92404 4.52716,3.62173 7.46981,5.09305 4.07445,2.03723 5.09306,1.81087 5.09306,-1.01861 0,-0.56589 0,-0.90543 0.11318,-0.90543 0,0 0.67907,0.33954 1.47133,0.67907 0.79225,0.33954 1.5845,0.67908 1.81086,0.67908 0.45272,0 0.45272,0 0.33954,0.90543 -0.11318,0.45272 -0.11318,1.01861 -0.22636,1.13179 -0.11318,0.33954 0.11318,0.90543 0.45272,0.90543 0.56589,0 0.22635,0.33954 -0.67908,0.79226 -1.69768,0.79225 -0.79225,1.81086 1.47133,1.81086 1.35815,0 2.82947,-0.79225 3.39537,-1.81086 0.22636,-0.45272 0.5659,-0.67908 0.67907,-0.67908 0.11318,0 0.5659,0.5659 1.01862,1.24497 0.79225,1.13179 0.79225,1.13179 0.45271,1.47133 -0.56589,0.45271 -0.11318,1.13179 1.01861,1.92404 0.5659,0.33954 1.01861,0.67908 1.01861,0.67908 0,0 -0.11318,0.22635 -0.22635,0.45271 -0.45272,0.45272 -0.22636,1.24497 0.56589,2.26358 0.22636,0.33954 0.5659,0.79226 0.5659,1.01861 0,0.33954 -0.11318,0.45272 -0.67908,0.45272 -1.01861,0.11318 -2.1504,-0.33954 -3.84808,-1.35815 -0.79226,-0.56589 -2.15041,-1.24497 -2.82948,-1.58451 -0.67907,-0.33953 -2.03722,-1.24496 -3.05583,-1.92404 -3.05584,-2.26358 -5.20624,-3.16901 -5.20624,-2.1504 0,0.79225 1.01861,2.37676 1.92404,3.16901 0.90544,0.79226 1.47133,1.69769 1.24497,2.26358 -0.22635,0.45272 -1.47132,0.33954 -2.1504,-0.22635 -0.67907,-0.5659 -1.01861,-0.67908 -1.01861,-0.22636 0,0.56589 1.13179,2.71629 1.81086,3.39537 1.24497,1.24497 2.15041,1.13179 3.2822,-0.5659 0.67907,-1.01861 1.5845,-1.5845 1.92404,-1.35815 0.11318,0.11318 0.22636,0.45272 0.22636,1.01862 0,1.13179 0.33954,1.35814 3.05583,2.1504 1.13179,0.33953 2.26358,0.79225 2.37676,0.90543 0.22636,0.22636 0.45272,0.67907 0.45272,1.13179 0.11318,0.45272 0.22636,0.90543 0.22636,1.13179 0.11317,0.33954 0,0.33954 -1.35815,0.22636 -1.81087,-0.11318 -2.26358,0.11318 -1.69769,0.79225 0.45272,0.45272 0.5659,1.01861 0.45272,1.92404 -0.11318,1.24497 -2.1504,0 -3.16901,-2.03722 -0.90544,-1.5845 -1.47133,-2.37676 -2.48994,-3.05583 -1.24497,-0.79225 -2.1504,-0.79225 -2.37676,0 -0.11318,0.45271 0.11318,1.01861 1.01861,2.82947 1.13179,2.26358 2.71629,4.52717 5.31941,7.583 1.47133,1.69768 2.48994,3.39537 2.1504,3.39537 -0.11317,0 -0.45271,0 -0.90543,0 -0.67907,0 -0.67907,0 -0.79225,1.01861 -0.11318,0.5659 -0.22636,1.13179 -0.45272,1.24497 -0.33953,0.33954 -0.33953,0.22636 -0.79225,-0.22636 z" style="fill:#808080;" />
<path d="m 204.46934,193.1675 c 0,-0.11318 -0.11318,-0.45272 -0.22636,-0.90543 -0.22635,-0.90543 -0.45271,-1.24497 -1.01861,-1.24497 -0.22635,0 -0.56589,-0.11318 -0.56589,-0.33954 -0.22636,-0.45271 2.1504,-3.62173 4.52716,-6.22484 1.13179,-1.24497 2.1504,-2.82948 3.05583,-5.09306 1.13179,-2.7163 0.5659,-3.50855 -1.47132,-2.48994 -1.13179,0.67907 -1.81087,1.47133 -2.82948,3.28219 -0.79225,1.35815 -1.69769,2.26358 -2.48994,2.26358 -1.13179,0 -1.24497,-0.90543 -0.33954,-1.92404 0.33954,-0.33954 0.5659,-0.90543 0.5659,-1.01861 0,-0.33954 -0.11318,-0.33954 -1.58451,-0.22636 l -1.5845,0.11318 0.11318,-0.79225 c 0.33953,-1.81087 0.45271,-1.92405 3.39537,-2.7163 1.81086,-0.45272 2.60311,-1.01861 2.60311,-1.92404 0,-1.58451 0.90544,-1.47133 2.03723,0.33953 0.22636,0.33954 0.56589,0.67908 0.90543,0.90544 0.79225,0.45271 1.81086,0.11317 2.94265,-1.01862 0.90544,-0.90543 1.69769,-2.48993 1.47133,-2.71629 -0.22636,-0.33954 -0.79225,-0.11318 -1.35815,0.22636 -0.56589,0.45271 -1.81086,0.45271 -1.92404,0 -0.11318,-0.45272 0.79225,-1.69769 1.58451,-2.15041 0.56589,-0.33953 0.79225,-0.67907 1.01861,-1.47132 0.33953,-1.24497 0.33953,-1.69769 0,-1.92405 -0.45272,-0.22636 -3.05584,1.24497 -4.8667,2.60312 -0.90543,0.67907 -2.37676,1.58451 -3.39537,2.1504 -1.01861,0.5659 -2.03722,1.24497 -2.37676,1.58451 -0.33954,0.33954 -1.01861,0.67907 -1.58451,0.90543 -1.13179,0.33954 -2.71629,0.45272 -2.82947,0.11318 -0.11318,-0.11318 0.22635,-0.67907 0.56589,-1.24497 0.79225,-1.13179 1.01861,-1.92404 0.67908,-2.1504 -0.45272,-0.33954 -0.22636,-0.90543 0.90543,-1.58451 1.01861,-0.67907 1.35815,-1.35815 0.90543,-1.69768 -0.11318,-0.11318 -0.22636,-0.33954 -0.22636,-0.45272 0,-0.45272 1.35815,-2.26358 1.69769,-2.26358 0.11318,0 0.33953,0.33954 0.56589,0.67907 0.5659,1.35815 3.50855,2.15041 5.20624,1.35815 1.01861,-0.45271 0.79225,-1.01861 -0.67908,-1.5845 l -1.13179,-0.45272 0.67908,-0.33954 c 0.79225,-0.33953 0.90543,-0.67907 0.45271,-1.81086 -0.45271,-1.01861 -0.33953,-1.01861 0.33954,-0.90543 0.45272,0.11318 0.67908,0 0.90543,-0.22636 0.22636,-0.22636 0.67908,-0.45272 1.01861,-0.5659 0.33954,-0.11318 0.79226,-0.33953 0.90544,-0.56589 0.33953,-0.5659 0.56589,-0.22636 0.79225,1.24497 0.22636,1.47132 0.22636,1.5845 0.90543,1.81086 1.58451,0.5659 7.92253,-2.94265 11.77062,-6.56438 3.73491,-3.50855 6.79074,-5.88531 7.92253,-6.22485 0.5659,-0.11318 0.90543,-0.56589 0.67908,-1.13179 -0.22636,-0.79225 -3.28219,-1.01861 -4.64034,-0.33954 -0.33954,0.22636 -1.47133,1.35815 -2.60312,2.7163 -2.94266,3.62173 -5.77213,6.11167 -7.92253,6.67756 -0.90544,0.33954 -1.92405,0 -1.92405,-0.45271 0,-0.11318 0.67908,-0.90543 1.47133,-1.58451 0.79225,-0.67907 1.47133,-1.35815 1.47133,-1.47133 0,-0.11318 -0.33954,-0.22635 -0.67908,-0.22635 -0.67907,0 -2.03722,0.67907 -3.84808,1.81086 -1.58451,1.01861 -3.62173,1.35815 -5.4326,0.79225 l -0.79225,-0.22635 0.5659,-0.33954 c 1.13179,-0.5659 0.33953,-1.24497 -1.58451,-1.24497 h -0.90543 l 1.01861,-0.90543 c 1.81086,-1.69769 1.58451,-2.37676 -0.67908,-1.47133 -2.60311,1.13179 -3.39537,0.45272 -1.69768,-1.47133 0.56589,-0.56589 0.90543,-1.13179 0.90543,-1.35815 0,-0.22635 -0.90543,-0.79225 -2.48994,-1.5845 -1.35815,-0.67908 -2.48994,-1.35815 -2.48994,-1.47133 -0.11317,-0.45272 1.24497,-1.58451 2.48994,-2.03722 2.48994,-0.90543 3.96127,-0.67908 4.97988,0.79225 0.90543,1.24497 2.7163,3.05583 3.50855,3.50855 0.90543,0.45272 2.48994,0.5659 3.16901,0.11318 0.33954,-0.22636 0.45272,-0.45272 0.45272,-1.47133 0,-0.90543 0.11318,-1.24497 0.45271,-1.5845 0.5659,-0.5659 1.47133,-0.90544 2.48994,-0.90544 1.13179,0 1.47133,-0.11318 1.47133,-0.56589 0,-0.5659 -0.56589,-0.79225 -3.39537,-1.13179 -1.47133,-0.22636 -2.7163,-0.45272 -2.82948,-0.5659 -0.11317,-0.11318 -0.11317,-0.22635 0.11318,-0.22635 0.5659,0 0.33954,-0.79226 -0.33953,-1.1318 -0.90544,-0.56589 -1.01862,-1.01861 -1.13179,-2.71629 -0.11318,-2.26358 -0.11318,-2.1504 0.67907,-2.03722 0.33954,0.11317 2.37676,0.90543 4.52716,1.81086 4.52716,2.03722 6.56438,2.82948 7.46982,2.60312 0.33953,-0.11318 1.01861,-0.45272 1.47132,-0.79226 0.45272,-0.33953 0.90544,-0.67907 1.01862,-0.67907 0.11317,0 0.79225,0.67907 1.5845,1.47133 0.79226,0.90543 1.58451,1.47133 1.81087,1.47133 0.90543,0 4.41398,-2.26359 6.56438,-4.30081 1.13179,-1.01861 1.35815,-1.24497 1.35815,-1.92404 0,-1.47133 -1.24497,-3.50855 -2.1504,-3.50855 -1.01861,0 -1.58451,0.56589 -2.60312,2.48994 -0.45272,1.01861 -1.01861,1.92404 -1.24497,2.03722 -0.22636,0.11318 -1.01861,-0.11318 -1.92404,-0.45272 -1.69769,-0.67907 -2.03723,-0.67907 -6.11167,-0.11318 -3.50855,0.5659 -4.64034,0.11318 -2.48994,-1.01861 1.24497,-0.56589 1.35815,-1.01861 0.67907,-1.69768 -0.33953,-0.33954 -0.79225,-0.33954 -2.60311,-0.33954 -1.13179,0 -3.05584,0.11318 -4.18763,0.22636 -2.03722,0.11318 -2.03722,0.11318 -4.8667,-0.67908 -2.71629,-0.79225 -3.7349,-1.24496 -3.7349,-1.5845 0,-0.11318 0.33953,-0.33954 0.79225,-0.45272 1.24497,-0.45271 0.90543,-0.90543 -1.47133,-1.81086 -0.67907,-0.22636 -1.47132,-0.67908 -1.69768,-0.90543 -0.45272,-0.45272 -0.45272,-0.45272 -0.11318,-0.90544 0.33954,-0.33953 0.56589,-0.33953 1.47133,-0.33953 2.1504,0.22635 2.03722,0.22635 2.37676,-0.33954 0.45271,-1.01861 0.67907,-1.01861 3.84808,1.01861 2.03722,1.24497 2.7163,1.47133 2.7163,0.5659 0,-0.79226 0.45271,-1.13179 1.24497,-0.90544 0.67907,0.11318 1.24497,0.5659 3.96126,2.7163 0.67908,0.5659 1.24497,0.79225 1.47133,0.79225 0.22636,-0.11318 0.67908,-0.56589 1.01861,-1.01861 1.13179,-1.35815 2.1504,-1.81086 4.64034,-1.69768 1.13179,0 2.60312,0.11318 3.39537,0.33953 0.79226,0.11318 1.47133,0.22636 1.58451,0.11318 0.56589,-0.33953 -2.94265,-2.26358 -4.75352,-2.48994 -0.45272,-0.11317 -1.47133,0 -2.37676,0.22636 -1.69768,0.33954 -3.50855,0.45272 -3.96126,0.11318 -0.22636,-0.11318 -0.22636,-0.22636 0,-0.67907 0.22635,-0.5659 0.22635,-0.5659 -0.22636,-1.01861 -0.33954,-0.22636 -1.13179,-0.5659 -1.92405,-0.79226 -3.84808,-0.90543 -3.96126,-2.1504 -0.22635,-2.60311 1.69768,-0.22636 3.28219,0 5.43259,0.79225 1.24497,0.45271 2.7163,0.56589 2.94265,0.11318 0.33954,-0.33954 0.11318,-0.67908 -0.90543,-1.01861 -0.45271,-0.22636 -1.81086,-1.01862 -3.05583,-1.81087 -2.82948,-1.81086 -3.16902,-2.03722 -4.8667,-2.48994 -1.47133,-0.33953 -2.1504,-0.67907 -2.1504,-0.90543 0,-0.11318 0.33953,-0.33954 0.79225,-0.45272 0.67908,-0.22635 0.79225,-0.45271 0.79225,-1.01861 0,-0.56589 -0.22635,-0.90543 -1.13179,-1.81086 -1.24497,-1.24497 -1.35814,-1.69769 -0.56589,-2.1504 0.67907,-0.45272 0.90543,-0.22636 2.82947,1.81086 0.79226,0.90543 1.58451,1.58451 1.58451,1.58451 0,0 0,-1.01861 -0.11318,-2.26358 -0.22636,-2.1504 -0.11318,-2.82948 0.33954,-2.82948 0.45272,0 2.37676,2.1504 2.82947,3.16901 0.22636,0.67908 0.67908,1.01862 1.24497,1.47133 1.81087,1.13179 2.37676,1.58451 4.52717,3.50855 2.82947,2.60312 4.64034,3.84809 5.09305,3.39537 0.33954,-0.33953 -3.16901,-5.09305 -6.22485,-8.48842 -1.01861,-1.01862 -1.81086,-2.15041 -1.81086,-2.37676 0,-0.33954 0.22636,-0.45272 0.79225,-0.5659 0.45272,-0.11318 1.13179,-0.33954 1.35815,-0.56589 0.33954,-0.22636 0.67908,-0.45272 0.90543,-0.45272 0.5659,0 1.35815,1.01861 2.60312,3.05583 0.5659,1.01861 1.35815,2.03723 1.58451,2.26358 0.56589,0.45272 1.01861,0.33954 1.01861,-0.45271 0,-0.90543 -1.13179,-3.73491 -2.03722,-5.31942 -1.01861,-1.5845 -1.01861,-2.03722 0,-2.03722 1.13179,0 1.69768,-0.45271 2.03722,-1.47133 0.22636,-0.56589 0.45272,-1.01861 0.45272,-1.13179 0.33953,-0.22635 0.67907,0.90544 0.79225,3.05584 0.11318,2.26358 0.33954,2.94265 0.90543,2.94265 0.33954,0 0.90543,-1.24497 0.90543,-2.1504 0,-1.01861 0.33954,-2.03722 0.67908,-2.03722 0.11318,0 0.56589,0.11318 0.79225,0.33954 0.33954,0.22635 0.79225,0.22635 1.24497,0.22635 l 0.67907,-0.11318 -0.45271,2.15041 c -0.22636,1.24496 -0.45272,2.26358 -0.33954,2.26358 0.11318,0.11318 0.5659,-0.22636 1.01861,-0.67908 0.5659,-0.45271 1.01861,-0.79225 1.13179,-0.79225 0.33954,0 0.45272,0.67907 0.11318,1.81086 -0.33954,1.24497 -0.45271,2.03723 -0.22636,2.26358 0.11318,0.11318 0.45272,0 0.79226,-0.22635 0.67907,-0.33954 0.67907,-0.33954 1.5845,0.33953 l 0.90544,0.67908 -1.35815,0.90543 c -1.81087,1.24497 -2.37676,1.81086 -2.7163,2.7163 -0.33954,0.79225 -0.67907,3.62172 -0.67907,4.97987 v 0.67908 l 0.79225,-0.90543 c 0.79225,-0.79226 0.90543,-0.79226 1.13179,-0.5659 0.56589,0.79225 2.1504,-0.45272 2.1504,-1.69769 0,-0.33953 0.11318,-0.45271 1.24497,-0.45271 1.35815,0 1.35815,0 1.01861,1.24497 -0.22636,0.56589 -0.22636,0.90543 0,1.24497 0.22636,0.45271 0.22636,0.56589 -0.67907,1.13179 -0.5659,0.33953 -1.35815,1.13179 -1.92405,1.5845 -0.56589,0.5659 -1.24497,1.13179 -1.81086,1.24497 -1.35815,0.45272 -1.92404,1.01861 -1.69769,1.92405 0.22636,1.47132 1.81087,3.62173 2.48994,3.62173 0.5659,0 2.48994,-1.35815 4.41398,-3.05584 1.58451,-1.35815 1.69769,-1.35815 1.81087,-1.01861 0.11318,0.22636 0.45272,2.1504 0.79225,4.18762 0.33954,2.03723 0.79226,3.84809 0.79226,4.07445 0.11317,0.22636 -0.67908,0.90543 -2.26359,2.26358 -3.84808,3.05583 -9.1675,7.69617 -10.52564,9.1675 -1.47133,1.58451 -1.69769,1.92404 -1.69769,3.62173 0,3.39537 1.47133,4.07444 4.97988,2.37676 1.01861,-0.45272 2.26358,-1.01861 2.71629,-1.01861 l 0.90544,-0.11318 -0.79226,0.56589 c -0.79225,0.5659 -1.24497,1.24497 -1.01861,1.69769 0.11318,0.11318 0.67908,0.22636 1.24497,0.22636 0.67908,0 1.24497,0.11318 1.47133,0.22636 0.56589,0.33953 -0.22636,0.56589 -1.81087,0.56589 -2.03722,0 -2.94265,0.33954 -2.94265,1.01861 0,0.33954 0.22636,1.13179 0.56589,1.81087 0.33954,0.67907 0.5659,1.47132 0.5659,1.69768 0,0.45272 -0.45272,0.45272 -1.13179,0 -0.45272,-0.33953 -0.5659,-0.33953 -1.01861,0.11318 l -0.45272,0.45272 -0.79225,-1.35815 c -1.35815,-2.03722 -2.26358,-2.48994 -2.94266,-1.13179 -0.33953,0.56589 -0.33953,1.01861 -0.22635,2.7163 0.22635,2.94265 0.79225,6.33802 1.24497,6.79074 0.45271,0.56589 1.69768,0.45271 3.16901,-0.11318 1.35815,-0.5659 2.82947,-0.67908 2.26358,-0.22636 -0.11318,0.11318 -1.24497,0.5659 -2.26358,1.01861 -2.1504,0.79225 -2.60312,1.01861 -2.37676,1.47133 0.22636,0.67907 1.35815,1.01861 3.39537,1.01861 1.13179,0 2.03722,0 2.1504,0.11318 0.33954,0 0.11318,0.90543 -0.56589,1.47133 -1.35815,1.35814 -3.2822,1.35814 -4.18763,0 -1.47133,-2.37676 -1.81086,1.92404 -0.45271,4.86669 0.33953,0.67908 1.24496,2.03723 2.03722,2.94266 0.79225,0.90543 1.47133,1.81086 1.47133,1.92404 0,0.33954 -0.5659,0.33954 -1.35815,-0.22636 -0.5659,-0.33953 -0.67908,-0.33953 -0.90544,-0.11317 -0.22635,0.45271 -0.22635,1.01861 0.11318,2.03722 0.11318,0.45271 0.33954,0.90543 0.33954,0.90543 0,0.5659 -3.16901,-3.62173 -3.96127,-5.20624 -0.33953,-0.79225 -0.67907,-1.69768 -0.79225,-3.39537 -0.11318,-1.24497 -0.33954,-2.60311 -0.45271,-2.82947 -0.33954,-0.79225 -0.90544,-0.67908 -1.58451,0.45271 -1.13179,1.81087 -0.90543,3.2822 1.13179,7.583 0.67907,1.47133 1.13179,2.7163 1.13179,3.05583 -0.11318,0.45272 -0.22636,0.45272 -1.01861,0.5659 -0.5659,0 -1.01861,0.11318 -1.13179,0.33954 -0.11318,0.11317 -0.22636,0.90543 -0.22636,1.69768 -0.11318,0.79225 -0.22636,1.69769 -0.33954,1.92404 l -0.22636,0.45272 -0.56589,-0.56589 c -0.33954,-0.33954 -0.79225,-1.01862 -1.01861,-1.58451 -0.33954,-0.90543 -0.45272,-1.35815 -0.33954,-4.64034 0.11318,-3.96127 0,-4.18763 -0.90543,-3.96127 -0.79225,0.22636 -1.24497,1.47133 -1.58451,4.64034 -0.22636,2.37676 -0.56589,3.62173 -0.79225,3.62173 0,0 -0.22636,-0.45271 -0.45272,-1.01861 -0.45271,-1.24497 -0.67907,-1.58451 -1.13179,-1.58451 -0.67907,0 -0.90543,0.67908 -0.45271,2.26358 0.33953,1.69769 0.33953,2.82948 -0.11318,2.82948 -0.22636,0 -0.33954,-0.33954 -0.45272,-1.01861 -0.11318,-0.5659 -0.22636,-1.13179 -0.22636,-1.24497 -0.45271,-0.67907 -1.13179,0.11318 -1.47132,1.69769 -0.11318,0.90543 -0.45272,1.47132 -0.67908,1.47132 -0.33953,0 -0.56589,-1.47132 -0.56589,-2.82947 0,-1.81087 0.45271,-2.82948 2.48994,-4.8667 1.5845,-1.69769 1.69768,-1.81087 1.69768,-2.60312 0,-0.45272 -0.11318,-1.13179 -0.33954,-1.35815 -0.45271,-0.79225 -0.33953,-1.24497 0.5659,-3.62173 1.47133,-3.7349 1.81086,-5.09305 1.01861,-5.09305 -0.45272,0 -1.69768,1.47132 -2.37676,2.82947 -0.67907,1.35815 -1.13179,2.7163 -1.58451,5.54578 -0.22635,1.24496 -0.56589,2.48993 -0.79225,2.82947 -0.45271,0.67908 -3.05583,3.16901 -3.62173,3.50855 -0.33953,0.22636 -0.33953,0.11318 -0.22636,-0.33954 0.11318,-0.33953 0.22636,-0.90543 0.45272,-1.35814 0.45272,-1.24497 0.33954,-1.35815 -0.33954,-1.24497 l -0.67907,0.11318 0.11318,-1.58451 c 0.22636,-2.7163 1.5845,-5.88531 3.96126,-9.1675 2.37676,-3.16901 2.15041,-4.64034 -0.79225,-4.64034 -1.01861,0 -1.13179,0.11318 -2.03722,0.79225 -0.45272,0.45272 -1.01861,1.01861 -1.13179,1.24497 -0.11318,0.22636 -0.33954,1.35815 -0.33954,2.48994 -0.11318,2.37676 -0.33954,2.7163 -2.37676,5.77213 l -1.35815,1.92404 0.22636,3.28219 c 0.22636,3.16902 0.11318,4.8667 -0.22636,5.4326 -0.11318,0.22636 -0.22635,0.22636 -0.79225,-0.11318 -0.33954,-0.22636 -0.67907,-0.33954 -0.79225,-0.22636 -0.11318,0.11318 -0.11318,0.67907 -0.11318,1.35815 0.11318,1.35815 -0.11318,1.92404 -0.90543,1.69768 -0.45272,-0.11317 -0.45272,-0.22635 -0.90544,-2.71629 -0.56589,-3.39537 -0.90543,-3.16901 -1.92404,1.24497 -0.67907,3.05583 -0.90543,3.50855 -2.03722,3.50855 -0.33954,0 -0.90543,0.22636 -1.47133,0.79225 -0.90543,0.79225 -1.24497,0.90543 -1.35815,0.67907 z" style="fill:#808080;" />
</svg>
