<svg xmlns="http://www.w3.org/2000/svg" viewBox="0 0 512 384">
<rect width="512" height="384" x="0" y="0" fill="none"/>
<path d="m 171.7948,355.31733 c -0.22636,-0.67907 -1.47132,-9.84657 -1.69768,-13.01559 -0.67908,-7.69617 0.11318,-16.97685 2.26358,-27.95522 2.03722,-10.52564 6.56438,-24.67302 12.90241,-40.17855 0.79225,-1.81086 1.5845,-4.3008 1.81086,-5.54577 1.13179,-6.22485 1.81087,-19.35362 1.58451,-31.57695 -0.33954,-15.05281 -2.03722,-38.70723 -3.28219,-44.253 -0.45272,-2.26358 -1.69769,-1.35815 -3.50855,2.7163 -3.73491,8.14889 -5.20624,14.93963 -6.11167,29.42654 -0.79225,12.4497 -1.92404,18.22183 -3.39537,18.67454 -0.33954,0.11318 -5.20624,-7.35663 -18.44818,-28.0684 l -10.86519,-17.20321 0.45272,-2.37676 c 1.5845,-7.58299 1.81086,-11.3179 2.48993,-44.13982 0.45272,-21.27766 0.90544,-31.57695 1.69769,-35.0855 1.24497,-5.88531 4.41398,-13.24194 7.24346,-17.09003 4.41398,-5.772131 11.65744,-10.978366 18.67454,-13.355126 2.71629,-0.905432 5.20623,-1.358148 15.27917,-3.055833 9.62021,-1.584507 13.12876,-2.489939 19.69315,-5.319415 6.90392,-2.942654 10.63883,-5.206235 12.44969,-7.243458 1.35815,-1.584506 3.50855,-5.885309 4.18762,-8.601606 1.01862,-4.074445 1.01862,-12.223335 -0.11318,-16.071421 -0.22635,-0.679075 -0.90543,-2.037223 -1.5845,-3.055834 -0.67908,-1.018611 -1.69769,-2.489939 -2.26358,-3.282192 -1.24497,-1.924044 -3.05584,-5.77213 -3.73491,-7.809353 -0.22636,-0.792253 -0.45272,-1.697685 -0.5659,-1.810864 -0.11317,-0.226358 7.69618,-0.339538 38.3677,-0.339538 h 38.48087 v 0.565896 c 0,1.924043 -3.05584,8.262069 -5.20624,11.091544 -3.16901,4.187624 -3.50855,5.093057 -3.50855,13.128768 0,5.093056 0,5.658951 0.67908,7.922531 1.69768,6.224847 4.52716,9.733397 10.07293,12.676052 6.67756,3.508549 14.37374,5.658951 29.31337,8.14889 11.09154,1.810864 14.82645,2.942654 19.57997,5.658951 4.64034,2.716297 10.18611,7.696174 12.56287,11.431078 3.50855,5.20624 6.33803,13.46831 6.90392,19.57998 0.45272,4.75352 0.90544,17.42957 1.47133,44.59253 0.22636,9.62022 0.5659,19.57997 0.90543,22.74899 0.22636,2.37676 1.35815,8.82796 1.69769,10.07293 0.11318,0.22636 -0.90543,2.03722 -2.26358,4.18762 -16.7505,26.4839 -23.99396,37.68862 -25.918,40.40492 -1.01861,1.35815 -1.01861,1.35815 -1.47133,0.90543 -1.24497,-1.13179 -2.26358,-7.0171 -2.94265,-18.10865 -0.79225,-12.67605 -1.81087,-18.335 -4.3008,-25.23892 -1.13179,-3.05583 -2.7163,-6.33802 -3.50855,-7.46981 -0.67908,-0.90544 -1.58451,-1.13179 -1.81087,-0.45272 -0.67907,2.37676 -1.92404,14.48692 -2.82947,29.20019 -0.90544,13.69466 -1.13179,38.14133 -0.33954,44.70571 0.33954,2.60312 1.24497,5.4326 4.41398,13.35513 6.79074,16.86368 11.99698,36.33047 12.90241,48.44062 0.33954,4.18763 0.33954,13.01559 0,17.20322 -0.33954,4.07444 -1.24497,10.07293 -1.69769,10.63882 -0.33953,0.45272 -4.41398,0.45272 -83.41294,0.5659 -69.37875,0.11318 -83.07341,0 -83.18659,-0.22636 z" style="fill:#808080;" />
<path d="m 261.77213,245.87321 c -1.92404,-0.22635 -3.16901,-0.45271 -5.43259,-1.01861 -2.1504,-0.56589 -2.48994,-0.67907 -2.7163,-0.79225 -0.11318,-0.11318 -0.45272,-0.22636 -0.79225,-0.22636 -0.33954,-0.11318 -0.79226,-0.22636 -1.01861,-0.33954 -0.22636,-0.11318 -0.5659,-0.22635 -0.67908,-0.22635 -0.11318,0 -0.33954,-0.11318 -0.45271,-0.11318 -0.11318,-0.11318 -0.67908,-0.33954 -1.1318,-0.5659 -3.05583,-1.24497 -5.65895,-3.05583 -6.4512,-4.3008 -0.67907,-1.13179 -2.1504,-1.58451 -5.88531,-1.92405 -2.82947,-0.22635 -3.50855,-0.33953 -5.31941,-0.79225 -2.94266,-0.79225 -3.2822,-0.79225 -2.7163,0 0.11318,0.22636 0.5659,0.67908 0.79225,1.13179 0.45272,0.67908 0.5659,1.01861 0.67908,1.92405 0.11318,1.01861 -0.11318,3.7349 -0.33954,4.07444 -0.11318,0.11318 -8.26207,-3.84809 -8.26207,-4.07444 0,-0.11318 0.22636,-0.67908 0.5659,-1.35815 2.03722,-4.41399 3.62173,-7.0171 5.65895,-8.94115 2.26358,-2.1504 3.16901,-2.60311 6.33802,-2.71629 1.81087,-0.11318 2.03723,0 2.82948,0.33953 0.45272,0.22636 1.58451,1.01862 2.37676,1.81087 2.48994,2.26358 3.62173,2.7163 6.56438,2.26358 1.69769,-0.33954 3.62173,0.11318 5.99849,1.35815 0.90543,0.45271 2.03722,1.01861 2.37676,1.13179 1.92405,0.67907 4.52716,-0.11318 5.77213,-1.81087 0.90543,-1.24497 1.13179,-2.03722 1.24497,-4.97987 0.22636,-4.8667 0.67908,-9.05433 1.13179,-11.54426 0.11318,-0.67908 0.11318,-1.01862 -0.11318,-1.47133 -0.33953,-0.79226 -0.79225,-0.90543 -3.39537,-1.24497 -3.62173,-0.5659 -6.56438,-1.35815 -8.03571,-2.26358 -1.47133,-0.90543 -2.60312,-2.7163 -3.62173,-5.65895 -0.90543,-2.7163 -1.81086,-8.14889 -1.81086,-11.31791 0,-1.24497 0,-1.47132 0.33953,-1.47132 1.13179,0 9.62022,1.01861 9.7334,1.24497 0.11318,0.11318 0.11318,0.56589 0.11318,1.01861 0,0.45271 0.11318,1.5845 0.33954,2.37676 1.01861,5.09305 3.05583,8.14889 6.4512,9.95975 0.79225,0.33954 1.47133,0.67908 1.47133,0.67908 0.22636,0 0.22636,-0.45272 -0.33954,-1.35815 -0.90543,-1.81087 -0.67907,-3.84809 0.67908,-6.67757 1.35814,-2.71629 3.05583,-4.07444 6.4512,-4.86669 1.13179,-0.33954 1.81087,-0.33954 4.07445,-0.33954 2.60312,0 4.64034,0.22636 6.90392,0.90543 4.07444,1.24497 7.92253,5.09306 10.29929,10.63883 0.22636,0.45272 0.33954,0.90543 0.33954,0.90543 0,0.11318 0.11318,0.33954 0.11318,0.45272 0.33953,0.56589 1.01861,3.73491 1.24497,5.31941 0.11317,1.24497 0.11317,6.56439 -0.11318,7.92253 -0.22636,1.58451 -0.45272,3.05584 -0.67908,3.96127 -0.11318,0.45272 -0.33953,1.24497 -0.45271,1.81086 -0.11318,0.5659 -0.33954,1.1318 -0.45272,1.24497 -0.11318,0.11318 -0.22636,0.5659 -0.22636,0.79226 -0.11318,0.33953 -0.22636,0.67907 -0.22636,0.79225 -0.11317,0.11318 -0.33953,0.90543 -0.67907,1.58451 -0.56589,1.47132 -1.69769,3.39537 -2.48994,4.41398 -0.22636,0.33954 -0.45271,0.67907 -0.45271,0.79225 0,0.11318 0,0.22636 -0.11318,0.22636 -0.11318,0 -0.5659,0.5659 -1.01862,1.24497 -2.60311,3.28219 -5.54577,5.65895 -9.05432,7.46982 -1.69768,0.90543 -2.1504,1.01861 -3.62173,1.5845 -3.96126,1.24497 -8.14889,1.69769 -12.90241,1.13179 z" />
</svg>
