<svg xmlns="http://www.w3.org/2000/svg" viewBox="0 0 512 384">
<rect width="512" height="384" id="P007WIImgRct2" fill="#fff"/>

<path d="m 171.71879,356.32075 c -0.22629,-0.67886 -1.47085,-9.84338 -1.69714,-13.01136 -0.67885,-7.69367 0.11314,-16.97133 2.26285,-27.94613 2.03656,-10.52223 6.56225,-24.665 12.89821,-40.16549 0.792,-1.81027 1.58399,-4.2994 1.81028,-5.54397 1.13142,-6.22282 1.81027,-19.34732 1.58399,-31.56668 -0.33943,-15.04792 -2.03656,-38.69464 -3.28113,-44.23861 -0.45257,-2.26284 -1.69713,-1.35771 -3.50741,2.71541 -3.73369,8.14624 -5.20454,14.93478 -6.10968,29.41698 -0.79199,12.44565 -1.92341,18.2159 -3.39426,18.66847 -0.33943,0.11314 -5.20455,-7.35425 -18.44219,-28.05927 l -10.86165,-17.19762 0.45257,-2.37599 c 1.58399,-7.58053 1.81027,-11.31422 2.48913,-44.12547 0.45257,-21.27074 0.90514,-31.56668 1.69713,-35.07409 1.24457,-5.88339 4.41255,-13.23764 7.2411,-17.08447 4.41255,-5.77026 11.65365,-10.974797 18.66847,-13.350784 2.71541,-0.905138 5.20454,-1.357707 15.2742,-3.05484 9.61709,-1.583991 13.1245,-2.489129 19.68675,-5.317685 6.90168,-2.941698 10.63537,-5.204542 12.44564,-7.241102 1.35771,-1.583992 3.50741,-5.883396 4.18627,-8.598811 1.01828,-4.07312 1.01828,-12.21936 -0.11315,-16.066196 -0.22628,-0.678853 -0.90513,-2.036559 -1.58399,-3.054839 -0.67885,-1.01828 -1.69713,-2.489129 -2.26284,-3.281126 -1.24457,-1.923417 -3.05484,-5.770253 -3.73369,-7.806813 -0.22629,-0.791996 -0.45257,-1.697134 -0.56572,-1.810276 -0.11314,-0.226284 7.69368,-0.339426 38.35522,-0.339426 h 38.46836 v 0.565711 c 0,1.923418 -3.05484,8.259382 -5.20455,11.087939 -3.16798,4.186261 -3.50741,5.091399 -3.50741,13.124498 0,5.091399 0,5.657111 0.67886,7.919955 1.69713,6.222824 4.52569,9.730233 10.06966,12.671931 6.67539,3.507409 14.36906,5.657111 29.30383,8.14624 11.08794,1.810275 14.82163,2.941698 19.57361,5.65711 4.63883,2.715414 10.1828,7.693674 12.55879,11.427364 3.5074,5.20454 6.33596,13.46393 6.90167,19.57361 0.45257,4.75197 0.90514,17.4239 1.47085,44.57803 0.22628,9.61709 0.56571,19.57361 0.90514,22.74159 0.22628,2.37599 1.35771,8.82509 1.69713,10.06966 0.11314,0.22628 -0.90514,2.03656 -2.26284,4.18626 -16.74505,26.47528 -23.98615,37.67636 -25.90957,40.39178 -1.01828,1.3577 -1.01828,1.3577 -1.47085,0.90513 -1.24457,-1.13142 -2.26285,-7.01481 -2.9417,-18.10275 -0.792,-12.67193 -1.81028,-18.32904 -4.2994,-25.23072 -1.13143,-3.05484 -2.71542,-6.33596 -3.50741,-7.46739 -0.67886,-0.90513 -1.58399,-1.13142 -1.81028,-0.45256 -0.67885,2.37598 -1.92342,14.4822 -2.82855,29.19069 -0.90514,13.69021 -1.13143,38.12893 -0.33943,44.69118 0.33943,2.60227 1.24456,5.43083 4.41255,13.35078 6.78853,16.85819 11.99307,36.31866 12.89821,48.42488 0.33943,4.18626 0.33943,13.01135 0,17.19761 -0.33943,4.07312 -1.24457,10.06966 -1.69713,10.63537 -0.33943,0.45257 -4.41255,0.45257 -83.38583,0.56571 -69.35618,0.11315 -83.04639,0 -83.15953,-0.22628 z" style="fill:#808080;"/>
<g transform="matrix(0.08442371,0,0,0.08442371,321.48663,123.01662)">
<path d="m -850.4,146.2 c 0,0 16.4,117.9 -1.4,176.5 -15.1,49.5 -37.2,91.2 -38.1,142 -1.1,56.3 27.7,91.4 42.2,146.5 10.8,41.1 9.3,84.8 11.2,126.1 1.9,41.3 108.9,31 107,0.4 -1.9,-30.5 0.5,-134.1 12.9,-200.3 6.2,-33 32.5,-64.1 30.6,-97.3 -2.3,-40.2 -40.8,-74.6 -50.3,-114.1 -14.2,-59.7 -15.7,-182.2 -15.7,-182.2 -37.4,-23.5 -62.8,-13.1 -98.4,2.5 z"/>
</g>
<path d="m 270.03938,160.92412 c -3.05484,-5.65711 3.73369,-18.55532 8.14624,-17.65019 -1.35771,-2.94169 -1.47085,-2.48912 -3.62055,-5.65711 0.792,-0.79199 5.99654,-4.2994 6.44911,-2.1497 1.24456,4.97826 0.67885,4.86512 1.81027,5.43083 2.37599,1.13142 1.69714,-2.1497 1.01828,-6.56225 -0.22628,-1.58399 5.65711,-1.69714 5.0914,-0.22629 -0.67885,1.81028 -1.81027,7.12796 -0.22628,5.99654 1.58399,-1.13142 1.58399,-3.95998 3.05484,-4.63883 1.35771,-0.56571 2.03656,0.22628 2.82855,1.47085 0.67886,1.35771 -1.24456,3.05484 -0.79199,4.52569 0.79199,2.82855 2.26284,3.73369 3.62055,6.33596 1.35771,2.71542 3.84684,5.43083 4.18626,10.1828 0.33943,4.75198 -4.07312,3.39427 -3.28112,5.99654 1.3577,4.07312 -2.82856,-6.33596 -4.41255,-9.3908 -0.67885,-1.24457 -0.90514,-3.50741 -2.26284,-3.62055 -2.26285,-0.22629 -6.44911,0.56571 -7.12796,1.01828 -3.95998,3.16798 -4.63884,4.52568 -7.24111,8.48566 -1.3577,2.1497 -5.54397,2.26285 -7.2411,0.45257 z" />
<path d="m 260.76172,169.40979 c -7.35425,-8.48567 -0.11314,-13.69021 6.90167,-15.61363 3.16799,-0.79199 5.99654,3.16798 9.16452,2.82856 4.41255,-0.45257 9.50395,-7.80682 13.9165,-7.46739 1.92342,0.11314 4.41255,1.81028 5.43083,3.50741 3.39426,5.0914 1.01828,12.55879 2.1497,19.12104 1.24456,6.33596 2.48913,15.38734 -2.48913,19.23417 -6.44911,4.97826 -17.98962,1.35771 -23.64673,-4.52569 -5.31768,-5.43082 -6.78853,-12.21936 -11.65365,-16.97133 z" style="fill:#808080;" />
<path d="m 289.27356,147.91277 c -5.0914,0.90513 -7.58053,6.90167 -12.89821,7.2411 -3.7337,0 -6.56225,-3.95998 -10.40909,-3.16798 -5.54397,0.22628 -9.3908,2.03656 -10.9748,7.01481 -1.13142,4.86512 0.33943,7.46739 2.71542,10.06966 5.99654,5.65711 8.14624,14.25592 14.36906,19.68675 5.65711,4.86512 13.23764,7.69367 20.70503,6.78853 4.07312,-0.45257 8.25938,-2.94169 9.3908,-7.12796 1.92342,-6.56225 0,-13.35078 -1.01828,-19.91303 -0.90513,-5.99654 -1.01828,-12.55879 -4.97825,-17.4239 -1.81028,-1.81028 -4.29941,-3.50741 -7.01482,-3.16798 z m -1.13142,3.39426 c 6.4491,-0.67885 10.06966,5.31769 0.11314,14.93478 9.3908,-7.12796 9.16452,2.1497 10.40908,7.46738 0.792,4.52569 1.24457,9.39081 -0.45256,13.80335 -1.01828,2.60228 -2.26285,5.65712 -4.75198,1.584 -4.18626,-6.6754 -9.16452,-17.76333 -5.88339,-21.72331 -4.63884,0.90514 -14.48221,-4.75198 -13.35079,3.84683 1.47085,-2.48912 1.92342,-4.75197 4.63883,-4.07312 3.50741,0.90514 3.7337,5.65712 5.20455,8.71196 1.24456,4.52568 3.62055,9.50394 2.37598,14.14277 -0.56571,2.26285 -3.84683,1.47085 -5.88339,0.56572 -4.97826,-2.03657 -9.16452,-5.54397 -11.87994,-10.18281 -2.37598,-3.73369 -2.48912,-5.88339 3.39427,-8.25938 -4.18626,-0.90514 -15.04792,-0.33942 -12.89821,-11.54051 0.90513,-4.97825 5.99654,-6.10968 9.61709,-5.54396 3.84683,0.56571 5.99653,3.84683 9.61709,2.60227 3.62055,-1.24457 6.10968,-5.77026 9.95651,-6.44911 z" />
</svg>
