<svg xmlns="http://www.w3.org/2000/svg" viewBox="0 0 512 384">
<rect width="512" height="384" fill="none"/>  
<!-- strawberry -->
<path style="fill:#ff0000" d="M309.069261168 114.076014287C257.486043351 129.416143848 220.486761771 116.991752835 190.425812964 137.284683973C177.138476942 146.25370729 164.631870822 166.414547329 161.290906814 182.101575966C157.372906662 200.48617331 162.007485351 227.521821968 171.058698686 243.995451224C181.476810292 262.973392256 208.398205794 278.042615891 225.17008747 291.720354497C245.110148462 308.000902441 268.435329272 338.301697576 293.663098602 343.380995512C304.515944221 345.563898156 321.171164242 341.67442366 329.429203765 334.301933911C346.310245626 319.23092899 350.375791412 285.639321815 356.137472221 263.759641635C364.000191808 233.948323681 378.029019275 192.405208619 371.833532728 162.201907504C368.467455103 145.772810386 356.834556971 123.066137057 342.261283358 114.78175458C333.605866641 109.85830658 318.614567974 111.244096512 309.069261168 114.076014287C309.069261168 114.076014287 309.069261168 114.076014287 309.069261168 114.076014287" />
<!-- seeds -->
<g style="fill: #ffff00;">
<path
   id="path6"
   d="M249.19917711 189.120292382C248.042420349 189.121998402 247.024829653 189.790406965 246.315326082 190.608794748C245.605847598 191.427157443 245.105180934 192.415118587 244.70010156 193.520920547C243.889942814 195.73247429 243.470011033 198.470836945 243.474401525 201.4810338C243.479419231 204.491255743 243.906727039 207.228363971 244.723308449 209.437534304C245.131624242 210.542132015 245.635150999 211.528612936 246.347037981 212.344918371C247.058924963 213.161198718 248.078447475 213.826596658 249.235229324 213.824915726C250.392011173 213.823209707 251.409601869 213.154801144 252.119080352 212.33641336C252.828583924 211.518050665 253.329250589 210.530089521 253.734329962 209.424287561C254.54446362 207.212733818 254.96442049 204.474371164 254.960004909 201.464174309C254.954987203 198.453952365 254.527704483 195.716844138 253.711097985 193.507673804C253.30280728 192.403076094 252.799255435 191.416595173 252.087368453 190.600314826C251.375506559 189.78400939 250.355958959 189.118611451 249.19917711 189.120292382C249.19917711 189.120292382 249.19917711 189.120292382 249.19917711 189.120292382" />
<path
   id="path8"
   d="M284.139668993 220.078958898C282.75626247 220.406615073 281.697024818 221.365950207 281.04183791 222.38938653C280.386625912 223.412847941 280.021336945 224.548078745 279.798274842 225.774983029C279.352150637 228.228741422 279.497388126 231.102657393 280.214543699 234.130591837C280.931699272 237.158501193 282.090914708 239.792269774 283.590255318 241.785252261C284.339900535 242.781768593 285.175574314 243.632570755 286.220235531 244.253411469C287.26487166 244.874252183 288.64185552 245.256576261 290.02528713 244.928920085C291.408693653 244.601263909 292.467906217 243.641928776 293.123118214 242.618492453C293.778330211 241.595031042 294.143619179 240.459800238 294.366681281 239.232895954C294.812805486 236.779137561 294.667542909 233.90522159 293.950412425 230.877312234C293.233256852 227.84937779 292.074041416 225.215609209 290.574700805 223.222626722C289.8250305 222.22611039 288.989381809 221.375308228 287.944720592 220.754467514C286.900084463 220.1336268 285.523075515 219.751302722 284.139668993 220.078958898C284.139668993 220.078958898 284.139668993 220.078958898 284.139668993 220.078958898" />
<path
   id="path10"
   d="M230.72739713 227.505113009C229.671220278 227.994013154 229.012822038 229.011227522 228.696781851 230.030674768C228.380741664 231.050122015 228.324317564 232.130860536 228.403070454 233.275098121C228.560626409 235.563523114 229.288419518 238.151329511 230.514270085 240.799674527C231.740120651 243.448019543 233.242095557 245.677511584 234.884892371 247.278410555C235.706265689 248.07888513 236.566752022 248.735226111 237.548491211 249.153953643C238.530230401 249.572656087 239.731795272 249.728932528 240.787972124 249.240007294C241.844174064 248.751132237 242.502572304 247.73391787 242.818612492 246.714470623C243.134652679 245.695023376 243.19105169 244.614259767 243.1122988 243.47004727C242.954742845 241.181622277 242.226974824 238.59381588 241.001124258 235.945470864C239.775248603 233.29710076 238.273298785 231.067633808 236.630501972 229.466709747C235.809103565 228.666260262 234.94864232 228.009919281 233.966903131 227.591191748C232.985163942 227.172464216 231.78359907 227.016212864 230.72739713 227.505138097C230.72739713 227.505138097 230.72739713 227.505138097 230.72739713 227.505138097" />
<path
   id="path12"
   d="M268.483474157 259.053485375C267.206141931 259.619357124 266.354486759 260.701801665 265.904373478 261.765379632C265.454260198 262.828982688 265.304030092 263.939325672 265.307442132 265.106368729C265.31496869 267.440404666 265.967094798 270.045873387 267.199568736 272.682652592C268.432017586 275.319406707 270.021049684 277.510111884 271.82418728 279.04838989C272.725743533 279.817528892 273.684376188 280.436663586 274.803776131 280.804938089C275.923176073 281.173212591 277.320908145 281.2591408 278.598265459 280.693294139C279.875597685 280.12742239 280.727252857 279.04497785 281.177366138 277.981399882C281.627479419 276.917821915 281.777709524 275.807453842 281.774272396 274.640410786C281.766745838 272.306374849 281.114619729 269.700906127 279.88217088 267.064152012C278.649696942 264.427372807 277.060689932 262.236667631 275.257552336 260.698389625C274.355970994 259.929250622 273.397363428 259.310115928 272.277963486 258.941841426C271.158563543 258.573566923 269.760806383 258.487638715 268.483474157 259.053485375C268.483474157 259.053485375 268.483474157 259.053485375 268.483474157 259.053485375" />
<path
   id="path14"
   d="M302.529911256 294.440653411C301.014764873 294.799519716 299.824113511 295.721121703 299.069049173 296.683843788C298.313959746 297.646565873 297.868638374 298.698854003 297.57367255 299.828690773C296.983740902 302.088314136 297.017334441 304.706076236 297.664743906 307.439722247C298.312203549 310.173393346 299.456315691 312.52810223 300.99710255 314.283094941C301.767495979 315.160591296 302.637490864 315.901355174 303.744145834 316.423146379C304.850825893 316.944912496 306.328364573 317.23458464 307.843536044 316.875718336C309.358682427 316.516852031 310.549358877 315.595250044 311.304423216 314.632527959C312.059487555 313.669805874 312.504808927 312.617517744 312.79977475 311.487680974C313.389706398 309.228057611 313.356112859 306.610295511 312.708703394 303.8766495C312.061243752 301.142978401 310.917131609 298.788244428 309.376344751 297.033276806C308.605951321 296.155780451 307.735956436 295.415016573 306.629301466 294.893225368C305.522621407 294.371459251 304.045082728 294.081787107 302.529911256 294.440653411C302.529911256 294.440653411 302.529911256 294.440653411 302.529911256 294.440653411" />
<path
   id="path16"
   d="M326.600898738 244.59358682C325.298126744 244.640753252 324.141470338 245.247594568 323.329379775 245.96936643C322.517289212 246.691138292 321.93766895 247.548388205 321.46384701 248.501752269C320.516152953 250.408480397 319.999529985 252.74632979 319.956452982 255.297807999C319.913300714 257.849311297 320.351622387 260.15256361 321.236018087 261.99295767C321.678228482 262.9131547 322.229573973 263.729435047 323.018256939 264.393252409C323.806964994 265.057044683 324.944529031 265.580792794 326.247326113 265.533601272C327.550098106 265.48643484 328.706754512 264.879593524 329.518845075 264.157821662C330.330935638 263.436074889 330.9105559 262.578799887 331.38437784 261.625435823C332.332071897 259.718707695 332.848694865 257.380883391 332.891771868 254.829380093C332.934924136 252.277876795 332.496602464 249.974624482 331.612206763 248.134230422C331.169996368 247.214058481 330.618650877 246.397753045 329.829967911 245.733935683C329.041259856 245.070143409 327.90369582 244.546395299 326.600898738 244.59358682C326.600898738 244.59358682 326.600898738 244.59358682 326.600898738 244.59358682" />
<path
   id="path18"
   d="M335.797123765 189.913917788C334.476262942 189.786718951 333.257361898 190.254795618 332.377381778 190.887628648C331.497401659 191.520486767 330.84136174 192.324072319 330.28437133 193.240756955C329.17039051 195.074176404 328.456897862 197.409165705 328.204607624 200.027830992C327.952342475 202.646496279 328.206940858 205.074764727 328.950414296 207.08709047C329.322151016 208.093265885 329.812732092 209.007316226 330.555728849 209.796500963C331.298700517 210.585710788 332.405807081 211.277903275 333.726642814 211.405152289C335.047478548 211.532351126 336.266379592 211.064274459 337.146359712 210.431416341C338.026339831 209.79858331 338.682404839 208.994997759 339.239395249 208.078288034C340.353376069 206.244893673 341.066868717 203.909879284 341.319158954 201.291239085C341.571424103 198.672573798 341.316825721 196.24430535 340.573352283 194.231954519C340.201615563 193.225779104 339.711034487 192.311753852 338.96803773 191.522544026C338.225066062 190.73335929 337.117959498 190.041141714 335.797123765 189.913917788C335.797123765 189.913917788 335.797123765 189.913917788 335.797123765 189.913917788" />
<path
   id="path20"
   d="M272.896270258 153.121516211C271.512838647 153.449172386 270.436866947 154.33778296 269.761132534 155.274563506C269.085398121 156.211344053 268.695321687 157.241905518 268.444511673 158.3515962C267.942866555 160.571002653 268.019361477 163.154619266 268.661025669 165.863352369C269.302564419 168.572085471 270.393037288 170.915554695 271.836856986 172.674160153C272.558754291 173.553487971 273.369640604 174.299595705 274.393754317 174.833780644C275.417893119 175.367965582 276.778117842 175.679565099 278.161549452 175.351908924C279.544955975 175.024252748 280.620927675 174.135642175 281.296662088 173.198861628C281.972396502 172.262081081 282.362472935 171.231519616 282.613282949 170.121803846C283.114928067 167.902422482 283.038433145 165.318805868 282.396768953 162.610072766C281.755230203 159.901339663 280.664757334 157.55787044 279.220937636 155.799239893C278.499040331 154.919937163 277.688154018 154.17380434 276.664040305 153.639644491C275.639926592 153.105459553 274.279676781 152.793860035 272.896270258 153.121516211C272.896270258 153.121516211 272.896270258 153.121516211 272.896270258 153.121516211" />
<path
   id="path22"
   d="M204.289382298 190.701045266C203.12116008 190.977746641 202.240853809 191.847540818 201.704887586 192.78492349C201.168921362 193.72233125 200.881381743 194.769325701 200.71644976 195.90428053C200.386560705 198.17419019 200.567173018 200.846068244 201.236660388 203.672391278C201.906047403 206.498714311 202.942981354 208.967801794 204.25593929 210.848613473C204.912430802 211.789006768 205.63904475 212.59582874 206.538518656 213.193236769C207.437992562 213.790644797 208.614920499 214.173194672 209.783142716 213.896493297C210.951364934 213.61981701 211.831696293 212.750022833 212.367662517 211.812615073C212.903603652 210.875232401 213.191143271 209.828237951 213.356100343 208.693283121C213.685964309 206.423373462 213.505377085 203.751470318 212.835889715 200.925172373C212.166477611 198.09884934 211.12954366 195.629761857 209.816585724 193.748950178C209.160119301 192.808556883 208.433505353 192.001734911 207.534031447 191.404326883C206.634557541 190.806918854 205.457629604 190.424368979 204.289382298 190.701045266C204.289382298 190.701045266 204.289382298 190.701045266 204.289382298 190.701045266" />
<path
   id="path24" />


<path
   id="path26"
   d="M328.88882196 140.710898799C327.997200763 141.195709514 327.483036471 142.120848984 327.267300218 143.02935476C327.051538878 143.937860536 327.065588453 144.885855655 327.201066504 145.882045836C327.472097872 147.874376022 328.257569507 150.097495577 329.480459627 152.346531581C330.703349748 154.595567585 332.142302271 156.463358317 333.667208091 157.773932843C334.429673546 158.429245194 335.217754387 158.956380256 336.097583976 159.269209112C336.977413564 159.582012879 338.033414796 159.65341483 338.925061081 159.168604114C339.816682278 158.683793399 340.330821482 157.758653929 340.546582823 156.850148153C340.762344164 155.941642377 340.748294588 154.993647258 340.612816537 153.997457077C340.341785169 152.005126892 339.556338623 149.782007337 338.333448503 147.532971333C337.110558382 145.283935329 335.67158077 143.416144596 334.14667495 142.105570071C333.384234584 141.450257719 332.596153743 140.923097569 331.716324154 140.610293802C330.836494566 140.297490035 329.780468245 140.226062996 328.888847049 140.710898799C328.888847049 140.710898799 328.888847049 140.710898799 328.888847049 140.710898799" />
<path
   id="path28"
   d="M237.47352669 273.310116677C236.580776509 273.823478137 236.100908234 274.841871665 235.927697037 275.851434032C235.754586194 276.86097131 235.820318137 277.922241133 236.013750688 279.041365102C236.400916852 281.279613039 237.330747877 283.792931597 238.712874884 286.349527865C240.094976803 288.906124134 241.679166815 291.043164949 243.321762921 292.559515582C244.143086062 293.317690898 244.983852812 293.933338286 245.907612413 294.312124882C246.831346925 294.690911478 247.923626169 294.805315166 248.816401438 294.29205406C249.709151618 293.778717688 250.189019893 292.760299071 250.362206002 291.750761793C250.535316845 290.741199426 250.469584902 289.679929603 250.276152351 288.560805635C249.889011275 286.322557698 248.959155162 283.809264228 247.577053243 281.25266796C246.194926236 278.696071691 244.610736224 276.559005787 242.968140118 275.042655155C242.146842066 274.284479839 241.306050227 273.668857539 240.382315715 273.290070943C239.458556114 272.911284347 238.36627687 272.796855571 237.47352669 273.310141765C237.47352669 273.310141765 237.47352669 273.310141765 237.47352669 273.310141765" />
<path
   id="path30"
   d="M173.397927948 174.877735745C172.458889434 174.691327982 171.577378914 175.095504168 170.933431666 175.677432575C170.289484418 176.259260627 169.800910423 177.019417937 169.380125632 177.895434069C168.538581137 179.647491422 167.969924561 181.911505278 167.723028357 184.475904079C167.476157242 187.040277791 167.59582952 189.440823416 168.074719343 191.454830089C168.314314785 192.461833426 168.640841977 193.383711388 169.150716132 194.19444717C169.660590286 195.005157864 170.432714824 195.737341465 171.371753338 195.923598697C172.310791853 196.11000646 173.192327461 195.705830274 173.836274709 195.123926955C174.480221958 194.542073814 174.968770863 193.781916504 175.389555655 192.905900372C176.23110015 191.153868108 176.799781814 188.889854252 177.046652929 186.325455451C177.293524045 183.76105665 177.173851766 181.360511026 176.694961944 179.346504352C176.455366502 178.339501015 176.12883931 177.417648142 175.618965155 176.60691236C175.109091001 175.796176578 174.336966463 175.064018065 173.397927948 174.877735745C173.397927948 174.877735745 173.397927948 174.877735745 173.397927948 174.877735745" />
<path
   id="path32"
   d="M363.650608258 164.449990144C362.771255352 164.335586456 362.016692784 164.877824812 361.500596674 165.595632686C360.984500565 166.313465649 360.632006746 167.215774559 360.355506079 168.241293229C359.802529834 170.292305482 359.561178194 172.890398176 359.650117026 175.793216131C359.739181301 178.696008998 360.142228503 181.378022818 360.825865802 183.590053243C361.167671908 184.696081 361.578521642 185.697765569 362.142938257 186.556269909C362.707329783 187.414774249 363.501306428 188.158724369 364.380659335 188.273203323C365.260012241 188.38760701 366.014574809 187.845393743 366.530670919 187.12756078C367.04674194 186.409727817 367.399260847 185.507443996 367.675761514 184.481925325C368.228737759 182.430913073 368.470089399 179.83279529 368.381125478 176.930002424C368.292312089 174.027184468 367.889014002 171.345170648 367.205401791 169.133140223C366.863595685 168.027137554 366.452720862 167.025452986 365.888329336 166.166923557C365.32393781 165.308419218 364.529961165 164.564494186 363.650608258 164.449990144C363.650608258 164.449990144 363.650608258 164.449990144 363.650608258 164.449990144" />
<path
   id="path34"
   d="M341.270437033 275.723281831C339.999075877 275.522322722 338.806542875 275.957859568 337.9358706 276.584771706C337.065223412 277.211759109 336.405169329 278.030924636 335.837064701 278.975005945C334.700830357 280.863118385 333.93482742 283.303078087 333.604888188 286.066805243C333.274923868 288.830532399 333.440809215 291.417736672 334.092408464 293.588396115C334.418233177 294.673725836 334.861848529 295.667306811 335.553338538 296.541140241C336.244828547 297.414973671 337.291145607 298.204183496 338.562506763 298.405092429C339.833842831 298.606051538 341.026375833 298.170514692 341.897048108 297.543602554C342.767720384 296.916615151 343.427749379 296.097449623 343.995879095 295.153368314C345.132088351 293.265255874 345.898091288 290.825296172 346.228055608 288.061569016C346.55799484 285.29784186 346.392134582 282.710637587 345.740535332 280.540003233C345.414710619 279.454648423 344.971095267 278.461067449 344.279605258 277.587234019C343.58811525 276.713400589 342.541773101 275.924190763 341.270437033 275.723281831C341.270437033 275.723281831 341.270437033 275.723281831 341.270437033 275.723281831" />
<path
   id="path36"
   d="M349.914237762 222.455946395C348.819575108 222.350574577 347.809410617 222.73844322 347.080112196 223.262918898C346.350838865 223.787394576 345.807120286 224.453344463 345.34549137 225.213075268C344.422283717 226.732536878 343.830947112 228.667690308 343.62185932 230.837923245C343.412871882 233.008156183 343.623740959 235.020607368 344.239890119 236.688367267C344.547977242 237.522234672 344.954536839 238.279757686 345.570284581 238.933815611C346.186032324 239.587873536 347.103544882 240.161547817 348.198182447 240.267019989C349.2928451 240.372391807 350.303009592 239.984523164 351.032308012 239.460047486C351.761581344 238.935571808 352.305299923 238.269596832 352.76690375 237.509866028C353.690136492 235.990429506 354.281473096 234.055276076 354.490560889 231.885043138C354.699548327 229.714785112 354.488679249 227.702333927 353.87253009 226.034599117C353.564442966 225.200706623 353.15788337 224.443183609 352.542135627 223.789125684C351.926387885 223.135067759 351.008875327 222.561393478 349.914237762 222.455946395C349.914237762 222.455946395 349.914237762 222.455946395 349.914237762 222.455946395" />
<path
   id="path38"
   d="M232.158246059 153.903927045C231.306189471 153.565884219 230.361079533 153.759417124 229.598789698 154.153808784C228.836474775 154.548150267 228.178176889 155.128573362 227.555680332 155.823776473C226.31066213 157.214157606 225.198437507 159.106785981 224.318808626 161.323984643C223.439204835 163.541183305 222.951458762 165.681585983 222.904668657 167.547344545C222.882088982 168.480211282 222.962623157 169.354094889 223.247277596 170.163776953C223.531906946 170.973459017 224.087266602 171.762317603 224.939298101 172.100335341C225.791354689 172.438378167 226.736464627 172.244845262 227.498754462 171.850453602C228.261069385 171.456112119 228.919367271 170.875689024 229.541863828 170.180485913C230.78688203 168.790079691 231.899106653 166.897451316 232.778735534 164.680252654C233.658339325 162.463053992 234.146085398 160.322651314 234.192875503 158.456892752C234.215455178 157.524026016 234.134921003 156.650142408 233.850291653 155.840460344C233.565637214 155.03077828 233.010302647 154.241919694 232.158246059 153.903901956C232.158246059 153.903901956 232.158246059 153.903901956 232.158246059 153.903901956" />
<path
   id="path40"
   d="M197.312237572 145.16341004C196.248208011 144.846341224 195.127528554 145.183480863 194.248602153 145.744836677C193.369675751 146.305816163 192.63578613 147.081076767 191.957166536 147.991564536C190.599927349 149.812565164 189.455614498 152.227963197 188.626162674 155.01151029C187.79671085 157.795082472 187.432274892 160.44287554 187.57139078 162.709774576C187.640886002 163.843224094 187.830755982 164.893756027 188.25926804 165.844335264C188.687780098 166.79493959 189.440912621 167.690825837 190.50496727 168.007919742C191.568996831 168.324988559 192.689676288 167.98784892 193.56860269 167.426493106C194.447529091 166.86551362 195.181418712 166.090253016 195.860038306 165.179765246C197.217277494 163.358764618 198.361590344 160.943366585 199.191042169 158.159819492C200.020493993 155.37624731 200.384929951 152.728454242 200.245814063 150.461555206C200.17631884 149.328105688 199.98644886 148.277573756 199.557936802 147.326994518C199.129424744 146.376390192 198.376292222 145.480503946 197.312237572 145.16341004C197.312237572 145.16341004 197.312237572 145.16341004 197.312237572 145.16341004" />
<path
   id="path42"
   d="M204.727603616 252.043374324C204.067123028 252.47243833 203.737334328 253.367496655 203.64014137 254.265063833C203.543048767 255.16263101 203.630105959 256.114615205 203.814004869 257.122697349C204.184110834 259.138886725 204.97570407 261.419709894 206.112189299 263.75459884C207.248674529 266.089512876 208.524325824 268.055851346 209.823259273 269.468711801C210.472725997 270.175129484 211.132127778 270.754649392 211.846498525 271.125031331C212.560844182 271.49541327 213.394209817 271.634955662 214.054690405 271.205816391C214.715170993 270.776777474 215.044934605 269.88169406 215.142127563 268.984126882C215.239220166 268.086559705 215.152162974 267.13457551 214.968264064 266.126493366C214.598158099 264.11030399 213.806589952 261.82950591 212.670104722 259.494591875C211.533619492 257.159677839 210.257943109 255.193339369 208.95900966 253.780504003C208.309542936 253.074061231 207.650141154 252.494541323 206.935795497 252.124159384C206.22142475 251.753777445 205.388084204 251.614235053 204.727603616 252.043374324C204.727603616 252.043374324 204.727603616 252.043374324 204.727603616 252.043374324" />
<path
   id="path44"
   d="M257.612589886 307.198470961C256.879151858 307.838554576 256.586594533 308.917286015 256.568907121 309.941851321C256.551345151 310.966416628 256.755816655 312.006787707 257.083322299 313.085468968C257.738408854 315.242856579 258.919752372 317.592096164 260.514203592 319.917200585C262.108654812 322.242305006 263.827570219 324.122389117 265.514071248 325.379625432C266.357346851 326.00824359 267.198615372 326.492953951 268.082132974 326.731018993C268.965675665 326.969109124 269.964725938 326.920688265 270.698163966 326.280529384C271.431627082 325.640445769 271.724159319 324.561714331 271.741846731 323.537149025C271.7594087 322.512583718 271.554937197 321.472212639 271.227431553 320.393506289C270.572344998 318.236118678 269.39100148 315.886904182 267.79655026 313.561799761C266.202124129 311.23669534 264.483183633 309.356611228 262.796682604 308.099374913C261.953432089 307.470731667 261.112163568 306.986046395 260.228620877 306.747981353C259.345103275 306.509891222 258.346053002 306.558312081 257.612589886 307.198470961C257.612589886 307.198470961 257.612589886 307.198470961 257.612589886 307.198470961" />
<path
   id="path46"
   d="M300.847951251 179.419637411C299.677947747 179.093085131 298.507994421 179.348636877 297.617903625 179.813351681C296.72778774 180.278166839 296.013040666 180.940152739 295.370096959 181.725147692C294.084184456 183.295112508 293.081646877 185.404355234 292.45079584 187.855103003C291.819919715 190.305850773 291.674933112 192.654438056 292.034376453 194.6835982C292.214010313 195.698178273 292.515047561 196.643664539 293.062554507 197.509695437C293.610086542 198.375751423 294.50050349 199.206231877 295.670506993 199.532759069C296.840510496 199.85931135 298.010463822 199.603759604 298.900579707 199.139044799C299.790695592 198.674229641 300.505417578 198.012218653 301.148386373 197.227248789C302.434298876 195.657283972 303.436811366 193.548016158 304.067687491 191.097293477C304.698538528 188.646545708 304.843525131 186.297958425 304.484106879 184.26879828C304.304473019 183.254193119 304.003435771 182.308731941 303.455903736 181.442675955C302.90839679 180.576645057 302.017954754 179.746164603 300.847951251 179.419637411C300.847951251 179.419637411 300.847951251 179.419637411 300.847951251 179.419637411" />
   </g>
<!-- strawberry leaf -->
<path
   id="path48"
   d="M233.067604845 150.903640158C225.809945288 147.024727933 228.250456938 139.147657708 230.681083708 133.042264065C233.317837823 127.412975418 223.093735804 136.53207831 219.623289903 134.918409278C205.064241485 139.689845887 193.189841182 150.533609459 178.324185864 154.388662494C164.880849374 157.110090392 153.892600969 146.372978152 141.19783089 144.328840157C147.723382111 137.241732413 158.677459941 138.879085016 167.45182137 137.277006883C185.683855375 133.544937812 203.12183747 126.716467704 221.062317692 121.83484228C224.547515648 118.627976454 214.992800644 112.589544092 214.049020398 107.341651248C216.051135109 102.824762844 217.713701683 98.0622075733 218.893891128 93.3736634606C224.880013909 88.0434300673 231.951064995 86.2332425951 237.729153702 93.0962846951C241.094353228 95.7731302785 249.022528784 103.29166035 246.304211864 93.9525310672C244.380498802 78.3586561347 241.965828336 62.1977052038 233.429858101 48.6619425772C236.13967001 44.0215182613 245.762876695 35.9249234166 245.137294249 46.9510304102C250.994135845 69.0689010753 256.607116949 91.2502457163 262.319699509 113.405598642C270.842096851 113.539822267 278.144564519 108.295993764 286.298561916 106.581443761C294.556325464 102.462785562 303.446922043 100.030302241 312.704438344 99.751443252C326.915709587 98.3956591989 341.830463155 95.4821786193 352.885020539 85.7663200005C356.773014812 82.072962528 368.308017508 81.2906018708 361.703186538 88.8487969047C357.130601602 98.7012123814 353.213931142 110.727774606 341.972288604 114.817580998C330.80199784 119.384345396 318.746282746 120.936020676 307.028485035 123.523676542C309.032907891 129.783113747 304.340274348 134.892342297 301.943416737 140.262441361C299.044663124 147.73004172 284.264358977 149.03901058 280.455368479 140.93416161C276.547127764 136.643019781 267.998462734 125.592752535 263.16676348 129.572871882C260.664784937 137.230317133 261.825179534 149.489600543 252.147330035 151.992356831C244.760991418 152.30819631 238.227938727 159.364394987 233.067604845 150.903640158C233.067604845 150.903640158 233.067604845 150.903640158 233.067604845 150.903640158"
   style="fill:#008000" />

</svg>
