<svg xmlns="http://www.w3.org/2000/svg" viewBox="0 0 1024 768">
<rect width="1024" height="768" fill="none"/>

<!-- strawberry -->
<g style="opacity: 1; fill: #ffff00">
<path style="fill:#ff0000; opacity: 1" d="M731.73303 255.26605C711.17255 261.38045 696.42506 256.42823 684.44311 264.51676C679.14693 268.09171 674.16194 276.12759 672.83027 282.38026C671.2686 289.70815 673.11589 300.48425 676.7236 307.05045C680.87614 314.61484 691.6067 320.62126 698.29178 326.07305C706.23966 332.56229 715.53681 344.63984 725.59231 346.66439C729.91813 347.53447 736.55671 345.98417 739.84827 343.04558C746.57686 337.03845 748.19734 323.64922 750.49388 314.92823C753.62787 303.04578 759.2196 286.48717 756.75015 274.44848C755.40847 267.90003 750.77173 258.84941 744.96299 255.54735C741.51304 253.58492 735.53768 254.13728 731.73303 255.26605C731.73303 255.26605 731.73303 255.26605 731.73303 255.26605" />
<!-- seeds -->
<path d="M707.869504557 285.177844221C707.408425037 285.178521943 707.002829609 285.444941742 706.720032402 285.771137307C706.437235194 286.097332872 706.237676095 286.49112082 706.076217723 286.931875798C705.753300974 287.813383307 705.585920646 288.904862663 705.58767119 290.104694874C705.589421734 291.304527085 705.759986252 292.39550971 706.085473833 293.276064155C706.248217625 293.716342601 706.448924931 294.109542213 706.732672756 294.434905036C707.01642058 294.760267858 707.422791675 295.025494179 707.883871195 295.024816457C708.344950716 295.024138734 708.750546144 294.757718935 709.033343351 294.43152337C709.316140558 294.105327806 709.515699657 293.711539857 709.67715803 293.27078488C710.000074779 292.389277371 710.167455106 291.297798014 710.165704563 290.097965803C710.163954019 288.898133592 709.9933895 287.807150967 709.66790192 286.926596522C709.505158128 286.486318077 709.304450822 286.093118464 709.020702997 285.767755642C708.736955172 285.442392819 708.330584077 285.177166498 707.869504557 285.177844221C707.869504557 285.177844221 707.869504557 285.177844221 707.869504557 285.177844221" />
<path d="M721.796380028 297.517610122C721.244966326 297.64821019 720.822772827 298.030591476 720.561615343 298.438524045C720.300457859 298.846456613 720.154860537 299.298953114 720.065949264 299.787976688C719.888126135 300.766021373 719.946023126 301.911534293 720.231870526 303.118426256C720.517717925 304.32531822 720.979769536 305.375108779 721.577385385 306.169493931C721.8761936 306.566687738 722.209282427 306.905809393 722.625666841 307.153268948C723.042051255 307.400728504 723.590903848 307.553121516 724.14231755 307.422521448C724.693731251 307.29192138 725.115924751 306.909540094 725.377082235 306.501607525C725.638239719 306.093674957 725.783837041 305.641178456 725.872748313 305.152154882C726.050571442 304.174110197 725.992674451 303.028597277 725.706827052 301.821705314C725.420979653 300.61481335 724.958928041 299.565022791 724.361312193 298.770637639C724.062503977 298.373443832 723.72941515 298.034322177 723.313030736 297.786862622C722.896646322 297.539403066 722.347793729 297.387010054 721.796380028 297.517610122C721.796380028 297.517610122 721.796380028 297.517610122 721.796380028 297.517610122" />
<path d="M700.506863639 300.47759351C700.085878515 300.672460739 699.823450983 301.077911559 699.697479777 301.484249761C699.57150857 301.890587963 699.549022806 302.32136355 699.580411348 302.777435934C699.643187435 303.689578549 699.93329559 304.721048359 700.421908907 305.776651427C700.910522224 306.832254496 701.509188332 307.720897802 702.163985025 308.359003621C702.49138387 308.678057606 702.834358281 308.939667568 703.225666676 309.106565379C703.61697507 309.27346319 704.095907353 309.335750501 704.516892476 309.140883272C704.9378776 308.946016043 705.200305132 308.540565223 705.326276338 308.134227021C705.452247545 307.727888819 705.474733309 307.297113232 705.443344767 306.841040849C705.38056868 305.928898233 705.090460525 304.897428424 704.601847208 303.841825355C704.113233891 302.786222286 703.514567783 301.89757898 702.85977109 301.259473162C702.532372245 300.940419177 702.189397834 300.678809214 701.798089439 300.511911403C701.406781045 300.345013592 700.927848762 300.282726281 700.506863639 300.47759351C700.506863639 300.47759351 700.506863639 300.47759351 700.506863639 300.47759351" />
<path d="M715.555999905 313.052412998C715.046868343 313.277963613 714.707410647 313.709407566 714.527999948 314.133341978C714.348589248 314.557276389 714.288706658 314.999854736 714.290072311 315.465017861C714.292802615 316.395341969 714.553002128 317.433853674 715.044248251 318.484835798C715.535494374 319.535817922 716.168858125 320.40901396 716.887567115 321.022152011C717.24692211 321.328722107 717.629020244 321.575498364 718.075197853 321.722290602C718.521375463 321.869082839 719.078504508 321.903329475 719.58763607 321.67777886C720.096767632 321.452228245 720.436225328 321.020784291 720.615636027 320.59684988C720.795046727 320.172915469 720.854929317 319.730337122 720.853563664 319.265173996C720.85083336 318.334849888 720.590633847 317.296338183 720.099387724 316.24535606C719.608141601 315.194373936 718.97477785 314.321177897 718.25606886 313.708039847C717.896713865 313.40146975 717.514615731 313.154693494 717.068438122 313.007901256C716.622260512 312.861109018 716.065131467 312.826862383 715.555999905 313.052412998C715.555999905 313.052412998 715.555999905 313.052412998 715.555999905 313.052412998" />
<path d="M729.126524399 327.157328037C728.522599911 327.300365041 728.048016067 327.667712748 727.747055257 328.051441047C727.446094446 328.435169345 727.268594537 328.854599872 727.151023361 329.30493509C726.915880482 330.205603304 726.929269802 331.249005473 727.187338912 332.338613067C727.445408023 333.428220661 727.901439358 334.366784909 728.515580031 335.066303845C728.822650631 335.416064424 729.169421858 335.711323513 729.610524841 335.919297088C730.051627825 336.127270662 730.640562193 336.242728504 731.244486681 336.099691501C731.848411169 335.956654497 732.322995013 335.589306789 732.623955823 335.205578491C732.924916634 334.821850192 733.102416543 334.402419665 733.219987719 333.952084447C733.455130598 333.051416234 733.441741278 332.008014065 733.183672168 330.918406471C732.925603057 329.828798877 732.469571722 328.890234628 731.855431049 328.190715692C731.548360449 327.840955113 731.201589222 327.545696024 730.760486239 327.33772245C730.319383255 327.129748875 729.730448887 327.014291033 729.126524399 327.157328037C729.126524399 327.157328037 729.126524399 327.157328037 729.126524399 327.157328037" />
<path d="M738.720944116 307.288858424C738.201667726 307.307663551 737.740637099 307.549537529 737.416947471 307.837226545C737.093257844 308.124915561 736.862232082 308.466609727 736.673365777 308.846610154C736.295633201 309.606608935 736.089714714 310.538445625 736.072541747 311.555442937C736.055368779 312.572440249 736.230050108 313.49049386 736.58256263 314.224047472C736.758818874 314.590825315 736.978580634 314.916194617 737.292944632 315.180777095C737.60730863 315.445359574 738.060729908 315.6541175 738.580006299 315.635312373C739.099282689 315.616507247 739.560313316 315.374633268 739.884002944 315.086944252C740.207692571 314.799255236 740.438718333 314.457561071 740.627584638 314.077560643C741.005317214 313.317561862 741.211235701 312.385725173 741.228408668 311.36872786C741.245581636 310.351730548 741.070900307 309.433676938 740.718387785 308.700123325C740.542131541 308.333345482 740.322369781 308.007976181 740.008005783 307.743393702C739.693641785 307.478811224 739.240220507 307.270053297 738.720944116 307.288858424C738.720944116 307.288858424 738.720944116 307.288858424 738.720944116 307.288858424" />
<path d="M742.386445077 285.494165497C741.859973964 285.443447628 741.374134729 285.630037386 741.023384577 285.882282662C740.672634425 286.134527938 740.411139566 286.454825251 740.189129718 286.820212629C739.745110227 287.550985257 739.460719006 288.481691914 739.360162623 289.525460548C739.259606241 290.569229181 739.361088154 291.537109128 739.657431517 292.339204997C739.805603096 292.740253996 740.001141548 293.104579852 740.297285436 293.419144003C740.593429324 293.733708154 741.034711987 294.009612684 741.561183101 294.060330553C742.087654214 294.111048422 742.573493449 293.924458664 742.924243601 293.672213388C743.274993753 293.419968112 743.536488612 293.099670799 743.75849846 292.734283421C744.20251795 292.003510793 744.486909172 291.072804136 744.587465554 290.029035502C744.688021936 288.985266869 744.586540024 288.017386922 744.290196661 287.215291053C744.142025082 286.814242054 743.94648663 286.449916198 743.650342741 286.135352047C743.354198853 285.820787896 742.91291619 285.544883366 742.386445077 285.494165497C742.386445077 285.494165497 742.386445077 285.494165497 742.386445077 285.494165497" />
<path d="M717.314885296 270.829135157C716.763471594 270.959735225 716.334602233 271.313929937 716.065263152 271.687318475C715.795924072 272.060707014 715.640444574 272.471479362 715.540470195 272.913792702C715.340520915 273.798417179 715.371012805 274.82822131 715.626727701 275.907888944C715.882442596 276.987556578 716.317089107 277.921638348 716.892578804 278.622603292C717.180323913 278.973086865 717.503530564 279.270484367 717.911733382 279.483399893C718.319936199 279.696315419 718.86211293 279.820521856 719.413526632 279.689921788C719.964940333 279.55932172 720.393809695 279.205127008 720.663148775 278.83173847C720.932487855 278.458349931 721.087967353 278.047577583 721.187941733 277.605264243C721.387891013 276.720639766 721.357399122 275.690835635 721.101684227 274.611168001C720.845969332 273.531500367 720.41132282 272.597418597 719.835833124 271.896453653C719.548088015 271.54597008 719.224881363 271.248572578 718.816678546 271.035657052C718.408475728 270.822741526 717.866298997 270.698535089 717.314885296 270.829135157C717.314885296 270.829135157 717.314885296 270.829135157 717.314885296 270.829135157" />
<path d="M689.968974877 285.807912442C689.503334221 285.918197535 689.152447923 286.264888729 688.938819158 286.638522423C688.725190394 287.012156117 688.610581583 287.429481864 688.54483796 287.881861154C688.413350171 288.786617438 688.485371459 289.851603851 688.752187166 290.978140951C689.019002873 292.10467805 689.432312059 293.088831815 689.955642808 293.838496995C690.217308455 294.213330733 690.506925604 294.534917208 690.865446304 294.773039632C691.223967005 295.011162056 691.693079446 295.163639889 692.158720103 295.053354796C692.624360759 294.943069703 692.975247057 294.596378508 693.188875822 294.222744814C693.402504586 293.84911112 693.517113397 293.431785374 693.58285702 292.979406083C693.714344809 292.0746498 693.642323521 291.009663386 693.375507814 289.883126287C693.108692107 288.756589187 692.695382921 287.772435423 692.172052172 287.022770243C691.910386525 286.647936504 691.620769376 286.32635003 691.262248676 286.088227606C690.903727975 285.850105182 690.434615534 285.697627349 689.968974877 285.807912442C689.968974877 285.807912442 689.968974877 285.807912442 689.968974877 285.807912442" />
<path d="M681.233035872 300.619382791C680.85287428 300.818081192 680.638331112 301.194529352 680.552072408 301.563542891C680.465813705 301.93255643 680.478720658 302.317069213 680.544246547 302.7208356C680.675297219 303.528366521 681.029376851 304.428333414 681.571878635 305.337802421C682.114380418 306.247271427 682.747096696 307.001603787 683.412758885 307.529710232C683.745590532 307.793764382 684.088518463 308.005785672 684.469378015 308.130651321C684.850237567 308.255516971 685.305163486 308.282054882 685.685325078 308.083356481C686.06548667 307.884658081 686.280029838 307.508209921 686.366288542 307.139196381C686.452547245 306.770182842 686.439640292 306.38567006 686.374114403 305.981903672C686.243063731 305.174372751 685.888984099 304.274405858 685.346482315 303.364936852C684.803980532 302.455467845 684.171264254 301.701135486 683.505602065 301.17302904C683.172770418 300.908974891 682.829842487 300.696953601 682.448982935 300.572087951C682.068123383 300.447222301 681.613197464 300.42068439 681.233035872 300.619382791C681.233035872 300.619382791 681.233035872 300.619382791 681.233035872 300.619382791" />
<path d="M739.632879539 265.882410208C739.277486312 266.075645434 739.072551173 266.444396502 738.986556849 266.806515806C738.900562526 267.168635111 738.906159822 267.546503394 738.960174793 267.943565261C739.06820374 268.737687167 739.38127529 269.623801619 739.868707552 270.520240914C740.356139814 271.416680209 740.929694218 272.161164321 741.537503565 272.683544473C741.841408736 272.944735464 742.155525416 273.154854874 742.506215565 273.279539088C742.856905715 273.404223301 743.277822279 273.432684834 743.633215506 273.239449607C743.988608733 273.046214381 744.193543872 272.677463313 744.279538196 272.315344009C744.365532519 271.953224704 744.359935223 271.575356421 744.305920252 271.178294554C744.197891305 270.384172648 743.884819755 269.498058196 743.397387493 268.601618901C742.909955231 267.705179606 742.336400827 266.960695494 741.72859148 266.438315342C741.424686309 266.177124351 741.110569629 265.967004941 740.75987948 265.842320727C740.40918933 265.717636514 739.988272766 265.689174981 739.632879539 265.882410208C739.632879539 265.882410208 739.632879539 265.882410208 739.632879539 265.882410208" />
<path d="M703.195786647 318.734944539C702.839945336 318.939556528 702.648675764 319.345484598 702.579637503 319.747878961C702.510599241 320.150273324 702.536815005 320.57328381 702.613972575 321.019353901C702.76828659 321.911492004 703.138912115 322.913269059 703.689806777 323.932297714C704.240701438 324.951326368 704.872138238 325.80313457 705.526862782 326.40753207C705.854225615 326.709731859 706.189349747 326.955117227 706.557546535 327.106097461C706.925743324 327.257077696 707.361114535 327.302681619 707.716955846 327.098069631C708.072797156 326.893457642 708.264066729 326.487529572 708.33310499 326.085135209C708.402143251 325.682740846 708.375927487 325.25973036 708.298769918 324.813660269C708.144455903 323.921522166 707.773830377 322.919745111 707.222935716 321.900716456C706.672041054 320.881687802 706.040604255 320.0298796 705.385879711 319.4254821C705.058516877 319.123282311 704.723392745 318.877896943 704.355195957 318.726916709C703.986999169 318.575936474 703.551627957 318.530332551 703.195786647 318.734944539C703.195786647 318.734944539 703.195786647 318.734944539 703.195786647 318.734944539" />
<path d="M677.655989195 279.500920603C677.281700705 279.426671724 676.930335794 279.587750033 676.6736659 279.819665465C676.416996007 280.051580897 676.222262087 280.35457059 676.054544715 280.703743573C675.719110172 281.402087455 675.492446088 282.304497969 675.394040998 283.32663604C675.295635908 284.34877411 675.343303823 285.305604795 675.534221605 286.108362975C675.629680396 286.509743107 675.759868972 286.877188779 675.963100843 287.200336486C676.166332713 287.523484192 676.47409429 287.81531566 676.84838278 287.889564539C677.22267127 287.963813418 677.574036181 287.802735109 677.830706075 287.570819677C678.087375968 287.338904246 678.282109888 287.035914552 678.44982726 286.686741569C678.785261803 285.988397688 679.011925887 285.085987173 679.110330977 284.063849103C679.208736067 283.041711032 679.161068152 282.084880348 678.97015037 281.282122168C678.874691579 280.880742036 678.744503003 280.513296364 678.541271132 280.190148657C678.338039262 279.86700095 678.030277685 279.575169482 677.655989195 279.500920603C677.655989195 279.500920603 677.655989195 279.500920603 677.655989195 279.500920603" />
<path d="M753.488527662 275.34454375C753.138029007 275.298908254 752.837268276 275.515065116 752.631560312 275.80118437C752.425852347 276.087303623 752.28534542 276.446950324 752.175138946 276.855706543C751.954725926 277.673216621 751.858525529 278.708791241 751.893982148 279.865816573C751.929438767 281.022841905 752.090133784 282.091864726 752.362618052 282.973550834C752.498860222 283.414395068 752.662623666 283.813658267 752.887586037 284.1558515C753.112548409 284.498044733 753.429019981 284.794566246 753.779518636 284.840201742C754.130017291 284.885837238 754.430778022 284.669680376 754.636485986 284.383561123C754.84219395 284.09744187 754.982700877 283.737795168 755.092907351 283.329038949C755.313320372 282.511528871 755.409520768 281.475954252 755.374064149 280.31892892C755.33860753 279.161903587 755.177912513 278.092880767 754.905428245 277.211194658C754.769186075 276.770350424 754.605422631 276.371087225 754.38046026 276.028893992C754.155497889 275.68670076 753.839026316 275.390179246 753.488527662 275.34454375C753.488527662 275.34454375 753.488527662 275.34454375 753.488527662 275.34454375" />
<path d="M744.568047501 319.696802902C744.061301812 319.616724679 743.585971696 319.790272889 743.238933886 320.040179897C742.891896075 320.290086905 742.628809487 320.616603316 742.402367491 320.992897686C741.949483767 321.745484179 741.644163483 322.718019188 741.512646917 323.819609559C741.381130351 324.921199931 741.447225597 325.952427685 741.706965367 326.817626133C741.836835117 327.25022648 742.013658059 327.646259365 742.289276949 327.994561372C742.564895838 328.34286338 742.981950913 328.657430293 743.488696602 328.737508516C743.99544229 328.817586738 744.470772406 328.644038528 744.817810217 328.39413152C745.164848027 328.144224512 745.427934616 327.817708101 745.654376612 327.441413731C746.107260336 326.688827239 746.412580619 325.71629223 746.544097185 324.614701858C746.675613752 323.513111486 746.609518506 322.481883733 746.349778736 321.616685285C746.219908985 321.184084938 746.043086043 320.788052053 745.767467154 320.439750045C745.491848264 320.091448037 745.07479319 319.776881124 744.568047501 319.696802902C744.568047501 319.696802902 744.568047501 319.696802902 744.568047501 319.696802902" />
<path d="M748.013366639 298.465047339C747.577052056 298.423012061 747.174409776 298.577648012 746.88372266 298.786697224C746.593035544 298.995746436 746.376318651 299.261194845 746.192324821 299.564012268C745.824337331 300.169645349 745.588641089 300.940976448 745.505297935 301.806009598C745.421954781 302.671042749 745.506052107 303.473183295 745.751642649 304.137929512C745.874437836 304.470303503 746.036488731 304.772243035 746.281917076 305.032942509C746.527345422 305.293641983 746.893058317 305.522302558 747.329372901 305.564337836C747.765687484 305.606373114 748.168329764 305.451737163 748.45901688 305.242687951C748.749703996 305.033638739 748.966420889 304.76819033 749.150414719 304.465372907C749.518402209 303.859739826 749.754098451 303.088408727 749.837441605 302.223375577C749.920784759 301.358342426 749.836687433 300.55620188 749.591096891 299.891455663C749.468301704 299.559081672 749.306250809 299.25714214 749.060822464 298.996442666C748.815394118 298.735743192 748.449681223 298.507082617 748.013366639 298.465047339C748.013366639 298.465047339 748.013366639 298.465047339 748.013366639 298.465047339" />
<path d="M701.0771795 271.140997459C700.737563861 271.006263815 700.360854008 271.083424961 700.057008949 271.240605195C699.753163891 271.397785429 699.490769543 271.629136019 699.242647784 271.906235369C698.746404981 272.460432265 698.303076545 273.214814533 697.952473098 274.098564251C697.60186965 274.98231397 697.407460001 275.835448272 697.38880998 276.579117645C697.379484612 276.950953232 697.411913011 277.299267055 697.525365934 277.621999376C697.638818857 277.944731696 697.860176186 278.259160394 698.199791825 278.393894038C698.539407464 278.528627683 698.916117317 278.451466536 699.219962376 278.294286302C699.523807434 278.137106069 699.786201782 277.905755478 700.034323541 277.628656129C700.530566344 277.074459232 700.97389478 276.320076964 701.324498227 275.436327246C701.675101675 274.552577528 701.869511324 273.699443225 701.888161345 272.955773853C701.897486713 272.583938266 701.865058314 272.235624442 701.751605391 271.912892122C701.638152468 271.590159801 701.416795139 271.275731103 701.0771795 271.140997459C701.0771795 271.140997459 701.0771795 271.140997459 701.0771795 271.140997459" />
<path d="M687.187963585 267.657133846C686.76384582 267.530748663 686.317160773 267.665273878 685.966828796 267.888876765C685.616496819 268.112479653 685.323980843 268.421487689 685.053491157 268.784402976C684.512512459 269.510231288 684.056399692 270.472982347 683.72578915 271.582474128C683.395178608 272.691965909 683.249919841 273.747350059 683.305367102 274.65091062C683.333090396 275.102692031 683.408754064 275.521415942 683.579550878 275.900312861C683.750347692 276.27920978 684.050539079 276.636300806 684.474656845 276.762685989C684.89877461 276.889071172 685.345459657 276.754545957 685.695791634 276.53094307C686.046123611 276.307340182 686.338639587 275.998332146 686.609129273 275.635416859C687.150107971 274.909588547 687.606220738 273.946837488 687.93683128 272.837345707C688.267441822 271.727853926 688.412700589 270.672469776 688.357253328 269.768909215C688.329530034 269.317127804 688.253866366 268.898403893 688.083069552 268.519506974C687.912272738 268.140610055 687.612081351 267.783519029 687.187963585 267.657133846C687.187963585 267.657133846 687.187963585 267.657133846 687.187963585 267.657133846" />
<path d="M690.143636636 310.258264614C689.880375974 310.429275508 689.748933692 310.786041562 689.710191224 311.143801073C689.671448755 311.501560585 689.705741333 311.881008267 689.779502248 312.282824219C689.927023154 313.086454227 690.24253501 313.995555732 690.69552625 314.926224935C691.14851749 315.856894139 691.656984313 316.640654466 692.174721951 317.203796229C692.433591232 317.485368059 692.696422259 317.71635997 692.981157658 317.863992229C693.265893057 318.011624488 693.598055935 318.067238321 693.861316596 317.896227426C694.124577258 317.725216532 694.25601954 317.368450478 694.294762009 317.010690967C694.333504477 316.652931455 694.2992119 316.273483773 694.225450985 315.871667821C694.077930079 315.068037813 693.762418223 314.158936308 693.309426983 313.228267105C692.856435742 312.297597901 692.347968919 311.513837574 691.830231281 310.950695811C691.571362001 310.669123981 691.308530974 310.43813207 691.023795574 310.290499811C690.739060175 310.142867552 690.406897298 310.087253719 690.143636636 310.258264614C690.143636636 310.258264614 690.143636636 310.258264614 690.143636636 310.258264614" />
<path d="M711.222991624 332.242448012C710.930647964 332.497579695 710.81403924 332.927548749 710.806991918 333.335928237C710.799944595 333.744307724 710.881478244 334.158986623 711.012033031 334.588941927C711.273141308 335.448850645 711.74401082 336.385225586 712.379539979 337.311986626C713.015069138 338.238747667 713.700209788 338.988125716 714.372433472 339.489249277C714.708545962 339.739812003 715.043865218 339.933009276 715.396031092 340.027899265C715.748196965 340.122789254 716.146408907 340.103468378 716.438752566 339.848336695C716.731096226 339.593205012 716.84770495 339.163235958 716.854752272 338.754856471C716.861799595 338.346476983 716.780265946 337.931798085 716.649711159 337.501842781C716.388602882 336.641934063 715.91773337 335.705559122 715.282204211 334.778798081C714.646675052 333.852037041 713.961534402 333.102658992 713.289310718 332.60153543C712.953198228 332.350972704 712.617878972 332.157775431 712.265713098 332.062885442C711.913547225 331.967995453 711.515335283 331.987316329 711.222991624 332.242448012C711.222991624 332.242448012 711.222991624 332.242448012 711.222991624 332.242448012"  />
<path d="M728.456113579 281.311265065C727.989763794 281.181110818 727.523430352 281.282927812 727.168645008 281.468196789C726.813859664 281.653465767 726.528972701 281.917332949 726.272697778 282.230219395C725.760148445 282.855990294 725.360550652 283.696713031 725.109096657 284.673550737C724.857642662 285.650388443 724.799852516 286.58650678 724.94311895 287.395310266C725.014751911 287.799713005 725.134706507 288.176568014 725.352941959 288.521762208C725.57117741 288.866956402 725.926091489 289.197976575 726.392441274 289.328130823C726.858791058 289.45828507 727.3251245 289.356468075 727.679909844 289.171199098C728.034695188 288.985930121 728.319582151 288.722062938 728.575857074 288.409176493C729.088406407 287.783405594 729.488004201 286.942682856 729.739458196 285.96584515C729.99091219 284.989007445 730.048702337 284.052889108 729.905435902 283.244085622C729.833802942 282.839682883 729.713848346 282.462827874 729.495612894 282.11763368C729.277377442 281.772439486 728.922463363 281.441419312 728.456113579 281.311265065C728.456113579 281.311265065 728.456113579 281.311265065 728.456113579 281.311265065" />

<!-- strawberry leaf -->

<path style="fill:#008000" d="M701.43964 269.94512C698.54682 268.39903 699.51958 265.25932 700.4884 262.82578C701.53938 260.58201 697.46417 264.21678 696.08089 263.57359C690.27782 265.47543 685.54482 269.79763 679.61954 271.33421C674.26118 272.41894 669.88139 268.13925 664.8214 267.32448C667.42241 264.49964 671.78858 265.15227 675.28594 264.5137C682.55302 263.02614 689.5036 260.30439 696.65447 258.35863C698.04363 257.08041 694.23523 254.67356 693.85905 252.58181C694.65707 250.78143 695.31975 248.88313 695.79016 247.01433C698.17616 244.88976 700.9946 244.16824 703.29768 246.90377C704.63901 247.97073 707.79909 250.96753 706.7156 247.24506C705.94883 241.02952 704.98637 234.58795 701.58403 229.19275C702.66413 227.34313 706.49983 224.11592 706.25048 228.5108C708.58495 237.32673 710.82222 246.16796 713.09919 254.99883C716.49612 255.05233 719.4068 252.9622 722.65689 252.2788C725.94834 250.63715 729.49203 249.66759 733.18197 249.55644C738.84642 249.01604 744.79127 247.85476 749.19749 243.98213C750.7472 242.51 755.34492 242.19816 752.71231 245.21077C750.88973 249.13783 749.32859 253.93148 744.8478 255.56163C740.39545 257.38189 735.59018 258.00037 730.9196 259.03178C731.71854 261.52672 729.84811 263.5632 728.89275 265.70366C727.73734 268.68016 721.84608 269.2019 720.32786 265.9714C718.77008 264.261 715.36268 259.85649 713.43682 261.44292C712.43956 264.49509 712.90208 269.3815 709.0446 270.37907C706.10049 270.50496 703.49649 273.31748 701.43964 269.94512C701.43964 269.94512 701.43964 269.94512 701.43964 269.94512" />

</g>

<!-- apple -->
<g style="fill:#008000;">
<path d="M508.474611495 169.467113621C505.783466924 170.505511149 518.33685625 156.551198959 531.420539309 149.88710355C546.090450384 137.339884079 645.305905397 160.807070134 619.568913993 145.517485275C607.717550934 138.766272485 518.577525013 103.266201427 508.477218322 169.472682362C508.477218322 169.472682362 508.474611495 169.467113621 508.474611495 169.467113621" />
<path d="M513.255616495 163.633768533C513.255616495 163.633768533 508.918717019 173.8225149 508.918717019 173.8225149C502.715883534 185.792061044 497.671595548 185.873336816 494.93338472 173.103724113C494.93338472 173.103724113 494.791423452 134.239053277 494.791423452 134.239053277C494.630556172 133.425031453 498.381102105 131.430542385 505.061773452 130.857608057C505.061773452 130.857608057 511.999999284 166.136678067 511.999999284 166.136678067C511.999999284 166.136678067 513.255616495 163.633768533 513.255616495 163.633768533" />

<path style="fill:#ff0000;" d="M531.44108 161.59116C659.70392 131.17104 654.85994 369.00481 506.62401 349.99312C500.29785 349.18178 502.86992 348.59888 485.94855 350.2254C374.36216 347.53683 357.28633 155.81013 471.32725 159.09181C485.99511 163.2677 490.4405 163.32365 498.86106 170.2165C507.82739 166.78471 523.21372 161.71719 531.44108 161.59116C531.44108 161.59116 531.44108 161.59116 531.44108 161.59116" />

</g>

<!-- orange -->
<g style="opacity: 1;">
<path style="fill:#ff7f2a" d="M215.42424 112.66906C195.33122 112.26442 174.98411 115.40761 155.73862 121.19558C144.29433 124.63734 133.10641 129.659 123.33787 136.54331C109.97681 145.95943 97.541178 157.49296 88.663358 171.21781C79.966888 184.66185 73.506058 200.22502 71.610328 216.12413C69.281108 235.65667 71.798918 256.36701 78.999978 274.67287C85.410208 290.96818 96.531068 305.75828 109.69544 317.30545C124.73621 330.49824 143.33368 340.19347 162.55984 345.72717C181.53986 351.19011 202.0217 351.63832 221.67702 349.70621C244.52637 347.46022 267.98055 342.69457 288.18384 331.78802C304.99529 322.71297 321.19113 310.08918 331.01254 293.70292C344.14738 271.78864 351.43695 244.6044 348.93076 219.18116C346.89679 198.54302 336.40302 178.3977 322.85835 162.69413C306.14239 143.31393 282.38354 130.14615 258.62525 120.62999C245.03228 115.18541 230.0637 112.96692 215.42424 112.6719C215.42424 112.6719 215.42424 112.66906 215.42424 112.66906" />
</g>



<path style="fill:#008000" d="M38.897697 152.9189C39.247207 149.86174 40.021557 148.69403 43.227117 146.39015C44.554317 145.43627 45.308617 144.77018 44.903327 144.90994C44.498037 145.04971 44.055997 145.05361 43.921007 144.91894C43.570287 144.56822 46.557807 138.75732 48.578437 135.85998C49.519327 134.51085 50.604327 132.51046 50.989537 131.41466C51.374747 130.31887 52.155367 128.61295 52.724257 127.62372C53.293147 126.6345 54.302417 124.42026 54.967067 122.70319C56.429457 118.92524 58.767487 115.59477 60.798527 114.39643C62.117857 113.61801 62.272927 113.33672 62.072397 112.08575C61.903237 111.03046 62.142697 110.22286 62.996497 108.96909C63.630327 108.03832 64.148917 106.9776 64.148917 106.61192C64.148917 105.50892 65.381347 103.97547 67.477877 102.46986C68.803027 101.51821 69.376147 100.82052 69.203117 100.36961C69.036507 99.935445 69.680217 99.018525 71.006397 97.800945C72.432267 96.491865 73.068787 95.553895 73.068787 94.761819C73.068787 92.775279 76.960317 88.602965 81.334827 85.899369C82.476557 85.193744 82.714777 84.796239 82.540937 83.886851C82.251557 82.373041 84.490357 80.258931 90.357447 76.505695C94.167567 74.068322 94.821217 73.478593 94.765207 72.528956C94.679707 71.078443 96.872157 69.961845 100.56344 69.57603C102.9927 69.322123 103.28767 69.176746 103.72512 68.01783C104.41236 66.197101 105.82097 65.839061 112.29686 65.839061C112.29686 65.839061 118.01739 65.839061 118.01739 65.839061C118.01739 65.839061 118.29552 64.730871 118.29552 64.730871C118.70935 63.082044 120.01265 62.981051 127.1061 64.048139C138.879 65.819173 146.44178 68.002991 154.93708 72.084574C166.80471 77.786405 174.99808 85.774018 178.15259 94.71711C178.60685 96.004915 179.18227 97.058035 179.43131 97.057375C179.68036 97.056705 182.29248 96.431515 185.23604 95.668055C189.49661 94.563002 191.82671 94.233653 196.66274 94.05295C196.66274 94.05295 202.73753 93.825959 202.73753 93.825959C202.73753 93.825959 203.26545 88.417876 203.26545 88.417876C203.97539 81.145269 205.43486 71.619817 205.93212 71.013507C206.15384 70.743171 206.40464 70.040742 206.48947 69.452554C206.82958 67.094282 209.30729 67.106445 212.01022 69.479654C212.88579 70.248411 213.89296 71.439726 214.24837 72.12702C214.92721 73.43976 215.13199 77.048801 214.56008 77.62071C214.37611 77.804682 214.20387 78.490397 214.17733 79.144519C214.15083 79.798645 213.88007 82.340805 213.57572 84.793767C213.253 87.394777 212.99759 95.295185 212.96294 103.74846C212.96294 103.74846 212.90354 118.24324 212.90354 118.24324C212.90354 118.24324 214.39358 121.58818 214.39358 121.58818C215.2131 123.42791 216.16336 125.58023 216.50527 126.37112C217.03614 127.5991 217.27331 127.75527 218.12923 127.44045C218.75916 127.20875 219.62861 127.28839 220.46951 127.65482C221.31009 128.02111 223.7556 128.24533 227.04791 128.25797C229.93014 128.26907 232.28832 128.45141 232.28832 128.66326C232.28832 130.0739 226.46463 133.70574 223.22942 134.31266C221.31234 134.67231 221.15744 135.07621 222.67196 135.76627C223.27006 136.03879 223.97902 136.67208 224.24742 137.17359C224.67021 137.96359 224.53981 138.20473 223.27145 138.97836C220.16654 140.8722 215.34947 140.78386 212.32335 138.77759C212.32335 138.77759 210.42109 137.51642 210.42109 137.51642C210.42109 137.51642 202.328 137.74846 202.328 137.74846C202.328 137.74846 194.23491 137.9805 194.23491 137.9805C194.23491 137.9805 193.19193 136.85511 193.19193 136.85511C192.61829 136.23614 192.14895 135.48845 192.14895 135.19358C192.14895 134.89871 191.31878 134.2831 190.30413 133.82556C187.88221 132.73342 186.35104 131.50114 186.35104 130.64412C186.35104 129.93558 188.30301 129.96249 196.77734 130.78787C196.77734 130.78787 199.39875 131.0432 199.39875 131.0432C199.39875 131.0432 199.08671 128.54565 199.08671 128.54565C198.90022 127.05309 198.94443 126.04812 199.19657 126.04812C199.42862 126.04812 200.54238 126.56449 201.67159 127.19562C202.8008 127.82675 203.91433 128.22593 204.1461 128.08269C204.70358 127.73814 205.77217 122.83711 206.43729 117.57425C207.3499 110.35307 206.33015 104.6981 203.84324 103.18909C201.98245 102.05999 199.66564 99.707115 199.85506 99.138835C200.21457 98.060305 194.01152 96.852075 192.59846 97.725395C192.3358 97.887725 190.17442 98.204705 187.7954 98.429775C185.41638 98.654855 182.53695 99.148885 181.39667 99.527625C179.49954 100.15774 179.30002 100.3627 179.04772 101.9405C178.55253 105.03729 173.66427 110.23337 168.0417 113.63962C160.59565 118.15056 148.06718 120.42384 138.91391 118.92483C137.28792 118.65854 135.60133 118.65279 134.45398 118.90963C133.43918 119.13679 129.44029 119.63427 125.56757 120.01513C110.60374 121.48677 91.225887 126.5928 77.751727 132.61453C68.415417 136.78701 54.046227 145.14525 44.883787 151.73307C42.014777 153.7959 39.428257 155.48367 39.135967 155.48367C38.752337 155.48367 38.686067 154.77043 38.897717 152.91921C38.897717 152.91921 38.897697 152.9189 38.897697 152.9189" />

<!-- banana -->
<g>
<path style="fill:#ffff00" d="M48.74612 531.505444C48.74612 531.505444 45.11079 539.330884 42.71495 542.897654C42.55362 543.137834 42.3811 543.386894 42.19882 543.643444C38.5725 548.747414 31.08582 556.814744 31.08582 556.814744C31.08582 556.814744 51.05727 602.079294 68.53876 619.644354C92.01694 643.234764 120.46567 659.082544 154.1458 668.523184C185.81034 677.398854 234.69547 681.337124 267.10743 675.779644C309.54822 668.502584 343.429 654.313034 376.43962 626.663884C396.23307 610.085224 412.19112 587.279534 418.25827 561.465004C421.97332 545.658214 414.63703 512.741804 414.63703 512.741804C414.63703 512.741804 412.54915 487.253004 415.97729 475.214534C417.95022 468.286294 426.69936 456.450894 426.69936 456.450894C426.69936 456.450894 415.19825 457.644394 410.33867 455.977044C405.52061 454.323924 399.22404 447.069074 399.22404 447.069074C399.22404 447.069074 392.46449 479.383034 385.15131 493.978174C381.78897 500.688504 371.74871 512.071674 371.74871 512.071674C371.74871 512.071674 335.83417 551.894354 312.89226 563.631024C286.29346 577.238494 256.86316 581.491794 227.00066 582.435314C202.82257 583.199224 178.78441 578.802544 155.14114 572.302064C132.19818 565.994124 110.90993 553.333944 88.71698 544.752414C75.62536 539.690174 48.74612 531.505444 48.74612 531.505444C48.74612 531.505444 48.74612 531.505444 48.74612 531.505444" />
    
<path style="fill:#803300" d="M399.00865 447.088974C399.00865 447.088974 411.80269 456.802974 411.80269 456.802974C411.80269 456.802974 427.43985 455.618334 427.43985 455.618334C427.43985 455.618334 418.57824 467.905814 416.54123 475.046324C413.13639 486.981644 414.88274 512.243814 414.88274 512.243814C414.88274 512.243814 407.14411 517.991644 402.56255 518.640834C396.58183 519.488274 390.23901 517.700134 384.79305 515.086934C381.3561 513.437724 376.02677 507.742204 376.02677 507.742204C376.02677 507.742204 382.71151 498.797674 385.02998 493.763534C391.82387 479.011854 399.00865 447.088974 399.00865 447.088974C399.00865 447.088974 399.00865 447.088974 399.00865 447.088974" />
<path style="fill:#803300" d="M399.06362 447.181794C399.06362 447.181794 407.8729 442.018964 412.75009 442.008364C416.35107 442.000364 419.78446 443.322874 422.40455 445.793144C425.04598 448.283544 427.43687 455.743484 427.43687 455.743484C427.43687 455.743484 417.17081 458.785224 412.34915 457.438984C406.96045 455.934414 399.06362 447.181794 399.06362 447.181794C399.06362 447.181794 399.06362 447.181794 399.06362 447.181794" />
<path style="fill:#803300" d="M31.22773 556.332904C31.22773 556.332904 27.82278 546.998654 27.82278 546.998654C27.82278 546.998654 35.33714 539.014644 35.33714 539.014644C35.33714 539.014644 40.73809 528.682374 40.73809 528.682374C40.73809 528.682374 49.07433 531.852504 49.07433 531.852504C49.07433 531.852504 44.65287 540.564214 41.7361 544.591704C38.64295 548.862714 31.22773 556.332904 31.22773 556.332904C31.22773 556.332904 31.22773 556.332904 31.22773 556.332904" />
<path style="fill:#803300" d="M27.73793 546.670314C27.73793 546.670314 31.62323 536.099994 31.62323 536.099994C31.62323 536.099994 40.36517 528.615064 40.36517 528.615064C40.36517 528.615064 35.16572 539.013974 35.16572 539.013974C35.16572 539.013974 27.73793 546.670314 27.73793 546.670314" />
</g>

<!-- cherry -->
<g>
<path style="fill:#803300" d="M542.78375 560.72207C531.8135 544.52672 519.48078 529.3272 514.20968 523.18216C512.18719 508.82671 508.65361 504.72416 508.43272 504.40185C508.43272 504.40185 505.19712 506.61392 505.19712 506.61392C505.24192 506.68422 507.83652 510.84487 509.46155 523.36524C509.46155 523.36524 509.29654 523.51338 509.29654 523.51338C509.30984 523.52448 509.38274 523.60808 509.51406 523.75523C510.7739 533.6904 511.41852 548.77381 509.76531 571.07517C506.19608 619.27676 497.06692 621.22313 496.97322 621.23758C496.97322 621.23758 496.83808 625.14767 496.83808 625.14767C497.2394 625.18337 498.7052 625.18337 500.56847 623.59925C505.06921 619.78648 511.10537 608.74155 513.79174 572.47569C515.0552 555.40713 515.7675 539.46447 514.95956 530.00964C520.5349 536.61453 533.76131 552.97874 538.86379 562.28856C547.1272 577.35439 559.88339 600.38974 560.05948 600.6788C560.05948 600.6788 563.40734 598.63728 563.40734 598.63728C563.23149 598.34821 553.75257 576.91405 542.78255 560.72159C542.78255 560.72159 542.78375 560.72207 542.78375 560.72207" />
<path style="fill:#800000" d="M517.93862 609.42711C528.91032 609.71955 537.44111 622.8826 537.68513 639.99092C537.92891 657.10188 525.54175 676.4131 503.3129 675.83016C481.08645 675.24167 468.13851 656.81835 467.88076 638.72867C467.6878 625.27462 474.95345 611.86248 486.78007 610.3738C498.60499 608.88921 502.58084 616.30108 502.58084 616.30108C502.58084 616.30108 507.92854 609.15876 517.93982 609.42615C517.93982 609.42615 517.93862 609.42711 517.93862 609.42711" />
<path d="M576.60436 588.19529C590.03745 587.20548 602.03485 599.86267 604.10889 614.44721C606.6994 632.67155 600.91424 655.62692 577.55105 660.8036C554.18472 665.97376 535.87269 650.10361 530.89596 631.28283C527.19376 617.29088 531.29149 601.3911 543.25324 596.75884C555.21283 592.13043 561.29764 598.8377 561.29764 598.8377C561.29764 598.8377 565.85764 588.99022 576.60364 588.19529C576.60364 588.19529 576.60436 588.19529 576.60436 588.19529" style="fill:#d40000" />
<path style="fill:#803300" d="M508.4332 504.40137C508.4332 504.40137 507.01052 501.15565 507.01052 501.15565C507.01052 501.15565 505.30094 500.11887 505.56134 498.54901C505.82198 496.98372 507.39112 496.07076 507.39112 496.07076C507.39112 496.07076 505.56134 491.49871 505.56134 491.49871C505.56134 491.49871 498.11551 495.67618 498.11551 495.67618C498.11551 495.67618 498.11551 498.81326 499.42594 500.90248C500.72841 502.99146 504.12156 505.60292 504.12156 505.60292C504.12156 505.60292 505.19784 506.6132 505.19784 506.6132C505.19784 506.6132 508.43537 504.40137 508.43537 504.40137C508.43537 504.40137 508.4332 504.40137 508.4332 504.40137" />
</g>

<!-- pear -->
<g>
<path style="fill:#808000" d="M883.909373294 144.232086854C878.629045144 146.432583925 872.864253125 145.890919948 867.701297293 147.611745021C857.154617283 151.127455246 850.20825825 160.743531078 847.388042472 171.318701328C846.532636442 174.526459678 845.31912362 178.161424741 844.970144201 181.478661656C844.616601096 184.834933781 843.315522535 190.548632474 842.23250263 193.798291173C841.4717931 196.07993915 836.886286253 202.637022837 836.446460945 204.55811104C818.054946079 219.789796251 805.542258353 244.727672993 805.542258353 270.856761816C805.542258353 316.746500045 841.818633291 353.948233773 886.571999265 353.948233773C931.324281363 353.948233773 967.602881098 316.746500045 967.602881098 270.856761816C967.602881098 255.905810368 956.277094196 225.345632742 955.266950664 223.324447201C953.688200289 220.166435889 947.705206999 208.725607002 946.32041331 206.154057957C944.726117878 203.193404703 942.346725714 200.529997201 940.995446599 197.443534514C935.251191171 184.313324355 928.920359384 171.366868189 923.093672364 158.259614801C922.293030575 156.455633651 921.891711374 154.421055116 920.919503487 152.691743012C917.924726693 147.367145674 914.880890266 144.355424766 909.948257997 141.066946208C907.977030565 139.753308952 901.815711216 139.950635635 899.33606056 139.537430882C898.912350771 139.466879138 889.256730593 142.003942399 883.909373294 144.232086854C883.909373294 144.232086854 883.909373294 144.232086854 883.909373294 144.232086854" />

<path style="fill:#008000" d="M883.648244845 145.291998817C889.137190524 127.138445985 866.421454137 96.1748974959 849.658034508 93.2131182953C833.180929174 90.3017353167 815.80517688 97.9559342828 801.1376589 104.460163204C798.602459619 105.584266272 786.619544614 106.649499208 786.347933947 106.90527103C785.970417224 107.261165861 787.429000023 106.698334935 787.904864194 106.90527103C790.246948219 107.923898742 791.522470134 108.490966766 794.131914893 109.105755265C798.608035874 110.16028493 805.287091219 113.533484053 808.921639846 116.440853412C830.100968315 133.381774784 833.75312992 145.574975916 858.65219108 141.914562595C865.529253383 140.903740214 868.229686646 140.903740214 872.97719011 141.914562595C874.830916871 142.309481225 883.114621513 147.056980411 883.648244845 145.291998817C883.648244845 145.291998817 883.648244845 145.291998817 883.648244845 145.291998817" />
<path style="fill:#803300" d="M885.844761525 152.373920738C886.268428529 146.437217493 885.186934607 140.487119827 884.732006349 134.572907001C884.591672982 132.731249765 885.048583592 130.939731758 884.935061885 129.111397636C884.792161444 126.820153081 884.645339085 124.526257309 884.529193258 122.23365078C884.350852938 118.65666593 886.047788538 115.325820671 886.95760227 111.917154571C887.100488449 111.379967286 887.209717438 110.833648348 887.361203314 110.298895505C887.479431323 109.889057897 888.148367966 109.276056366 887.767043417 109.08539124C887.251945802 108.827541514 886.71006505 109.560157274 886.148132599 109.692161912C885.775721501 109.779542251 882.265847091 110.079473447 882.103051829 110.096662858C881.19992675 110.191929819 878.231462462 109.922255866 878.057101106 110.096662858C877.437181311 110.716576949 878.057101106 111.84982593 878.057101106 112.726407466C878.057101106 116.08174974 878.440864374 119.49442618 878.663828994 122.840635375C878.893753235 126.289876929 879.429387441 129.714373317 879.675355894 133.156917661C880.066934476 138.641202675 879.877698354 144.240087568 879.877698354 149.74417613C879.877698354 151.772737729 878.878707331 157.142387212 881.293681989 158.240182052C883.63957384 159.30674844 885.7267617 154.015600074 885.844975447 152.373920738C885.844975447 152.373920738 885.844761525 152.373920738 885.844761525 152.373920738" />
</g>

<!-- peach -->
<g>
<path style="fill:#ff7f2a" d="M803.277334991 505.689651062C788.220522024 507.878658467 776.602272317 511.525582575 766.390153722 518.455103927C755.813708262 525.332230445 747.477446555 534.763300475 741.381368602 547.318564763C735.182328708 560.088282323 729.346397195 576.811982085 730.075660169 593.694084833C730.805532384 610.261209337 736.901610338 630.893198133 745.549804076 646.367951283C753.938460617 661.738524008 764.723876168 676.170254426 780.926673807 685.027418257C797.182475522 693.677439722 822.503192674 700.449776573 842.19816689 698.105412395C861.736565847 695.448506943 882.732881509 685.444749198 896.957469562 670.126571306C910.816512265 654.548856216 922.538954582 627.611819375 925.509619793 606.198782014C928.27070567 584.628560153 925.769766234 559.307843 914.202692875 542.270992721C902.324893784 525.025172351 874.812732259 510.749407949 856.212566366 504.497363979C837.350426306 498.232525922 818.488286246 503.390370811 803.275507264 505.682949398C803.275507264 505.682949398 803.277334991 505.689651062 803.277334991 505.689651062" />

<path style="fill:#008000" d="M825.26633779 502.126790199C835.00873061 506.138650416 845.117278022 510.670803513 855.590152299 516.142408161C865.958846152 521.456219065 877.941422725 529.844875605 887.735601136 534.273457521C897.532825758 538.441283753 906.64892973 538.858005452 913.890395298 541.984636679C920.872920725 545.110658664 925.249107807 546.465004185 930.251595922 553.290345112C935.25225631 560.115686039 939.732623816 569.858078859 943.901668533 582.727712148C945.049480932 573.089499753 945.723912103 563.450068873 945.723912103 553.602886386C945.62034092 543.651523475 946.818720426 531.9284841 943.901668533 523.852978077C940.775646548 515.724467977 934.418203669 509.784965282 927.854227668 505.4087782C921.186071242 500.927801451 915.506714987 500.406899328 904.356351143 497.38566701C892.84348816 494.103069767 873.669416068 485.923383318 860.330057004 486.704431883C846.993744152 487.53482907 835.582636809 492.484313109 825.268165517 502.123134746C825.268165517 502.123134746 825.26633779 502.126790199 825.26633779 502.126790199" />
<path style="fill:#803300" d="M837.455825216 510.431383494C829.7452553 511.629763 821.98229055 512.254845548 813.957960875 512.514991989C805.674703244 512.723352839 791.138183159 512.359025973 789.261717029 511.629763C787.490649809 510.848105193 798.223670527 508.815673047 802.965402959 507.7738688C807.54995089 506.574880052 812.031536881 505.637256229 816.61547557 504.751417997C810.884942966 492.403905317 808.122638605 484.745120992 807.705916906 480.993407216C807.237409616 477.242302683 812.863761794 483.650921911 814.531867075 482.765083679C816.042787855 481.670884598 815.521276489 475.574806645 817.813855076 475.314660204C820.10582442 475.106299355 826.826984922 477.867385232 828.546875794 481.566704174C830.057796574 485.162451933 825.837575508 491.466890736 827.34910553 496.468160366C828.914858113 501.417644405 832.089010235 505.741436654 837.456434458 510.431383494C837.456434458 510.431383494 837.455825216 510.431383494 837.455825216 510.431383494" />
<path style="fill:#aa4400" d="M833.849074541 521.064202139C843.278926087 522.36676207 851.668191869 526.013686178 859.429938134 531.797222858C867.090550186 537.528364703 874.227823144 542.946965275 879.647032958 555.867774913C884.805487089 568.633227777 890.380053676 590.464205321 890.953350634 608.491074257C891.473643515 626.621514374 888.867914412 644.493026536 882.928411717 663.509914127C889.077493746 652.985863501 893.141748796 641.054463277 895.120567624 626.935274133C897.102432663 612.711295322 897.517935877 593.850373747 894.549098393 579.366248495C891.368853848 564.620758319 886.472983127 549.928272218 876.415612064 540.081089731C866.095048349 530.28691132 852.234787162 524.086652942 833.847856057 521.065420624C833.847856057 521.065420624 833.849074541 521.064202139 833.849074541 521.064202139" />
</g>

<!-- blueberry -->
<g style="fill:#330080">
<path style="fill:#803300" d="M668.118892712 398.182632035C668.118892712 398.182632035 670.302669661 404.214031219 668.39619854 415.098287558C666.48972742 425.982538737 662.122173523 428.131656326 660.077023693 443.106176211C658.031925454 458.080690937 659.60908623 487.059144829 659.60908623 487.059144829C659.60908623 487.059144829 654.340275493 489.000290786 654.340275493 489.000290786C654.340275493 489.000290786 653.248387019 458.288667728 655.362824613 443.106176211C657.477313798 427.923679535 661.532892189 425.705232909 663.404693632 415.098287558C663.695980833 413.44781486 663.88552904 411.92341184 663.993974966 410.522741392C661.83052518 415.686175914 658.891547726 421.39645237 655.362824613 425.081297375C647.528922067 433.261819308 624.945135414 449.900169003 624.945135414 449.900169003C624.945135414 449.900169003 621.894771303 446.849804892 621.894771303 446.849804892C621.894771303 446.849804892 646.002940339 427.923679535 653.698989643 420.367098295C661.394213479 412.810511895 662.295470319 398.737243691 662.295470319 398.737243691C662.295470319 398.737243691 664.609258558 398.737243691 664.609258558 398.737243691C664.609258558 398.737243691 668.11884112 398.182632035 668.11884112 398.182632035C668.11884112 398.182632035 668.118892712 398.182632035 668.118892712 398.182632035" />
<path d="M694.590532873 530.87901181C694.590532873 530.87901181 686.548663854 527.274041201 686.548663854 527.274041201C686.548663854 527.274041201 700.707306139 517.276884918 700.968566923 503.425739972C701.245872751 488.728525916 695.966795249 476.349320306 680.039431902 472.367487208C658.964188955 467.098676471 634.960596462 481.951728664 629.383989154 498.153596406C623.560566761 515.069251929 639.206187386 531.89062863 653.273047891 535.869964686C667.970256788 540.02955211 676.566737464 534.206129716 676.566737464 534.206129716C676.566737464 534.206129716 681.280936544 540.02955211 681.280936544 540.02955211C681.280936544 540.02955211 684.885912312 534.206129716 684.885912312 534.206129716C684.885912312 534.206129716 689.322805564 535.869964686 689.322805564 535.869964686C689.322805564 535.869964686 688.768193907 531.433071434 688.768193907 531.433071434C688.768193907 531.433071434 694.5916163 530.878459777 694.5916163 530.878459777C694.5916163 530.878459777 694.590532873 530.87901181 694.590532873 530.87901181" />
<path d="M615.516737254 491.77334391C596.074580574 491.491575392 576.55529418 466.191883833 577.803144612 448.513639862C579.051046635 430.835390731 602.968687219 419.119216908 622.172077132 422.169586178C641.375518636 425.21994513 653.369008606 440.263788892 652.121106583 457.942032863C650.873256151 475.620281994 634.650839403 492.050654897 615.516737254 491.77334391C615.516737254 491.77334391 615.516737254 491.77334391 615.516737254 491.77334391" />
<path style="fill:#0044aa" d="M619.171653866 465.983901882C619.171653866 465.983901882 615.012066442 461.269702802 615.012066442 461.269702802C615.012066442 461.269702802 608.079420736 462.101620287 608.079420736 462.101620287C608.079420736 462.101620287 609.743255705 455.446285568 609.743255705 455.446285568C609.743255705 455.446285568 605.029056625 451.563998813 605.029056625 451.563998813C605.029056625 451.563998813 614.457454786 451.009387157 614.457454786 451.009387157C614.457454786 451.009387157 619.171653866 446.849799733 619.171653866 446.849799733C619.171653866 446.849799733 618.894348038 453.227838942 618.894348038 453.227838942C618.894348038 453.227838942 623.608547118 456.832814709 623.608547118 456.832814709C623.608547118 456.832814709 617.785124725 459.605872992 617.785124725 459.605872992C617.785124725 459.605872992 619.171653866 465.983901882 619.171653866 465.983901882" />
</g>

</svg>