<?xml version="1.0" encoding="UTF-8" standalone="no"?>
<svg
   xmlns:dc="http://purl.org/dc/elements/1.1/"
   xmlns:cc="http://creativecommons.org/ns#"
   xmlns:rdf="http://www.w3.org/1999/02/22-rdf-syntax-ns#"
   xmlns:svg="http://www.w3.org/2000/svg"
   xmlns="http://www.w3.org/2000/svg"
   xmlns:sodipodi="http://sodipodi.sourceforge.net/DTD/sodipodi-0.dtd"
   xmlns:inkscape="http://www.inkscape.org/namespaces/inkscape"
   viewBox="0 0 512 384"
   version="1.1"
   id="svg14"
   sodipodi:docname="monopI04-wi5.svg"
   inkscape:version="0.92.3 (2405546, 2018-03-11)">
  <sodipodi:namedview
     pagecolor="#ffffff"
     bordercolor="#666666"
     borderopacity="1"
     objecttolerance="10"
     gridtolerance="10"
     guidetolerance="10"
     inkscape:pageopacity="0"
     inkscape:pageshadow="2"
     inkscape:window-width="1366"
     inkscape:window-height="705"
     id="namedview16"
     showgrid="true"
     inkscape:zoom="0.56054688"
     inkscape:cx="256"
     inkscape:cy="192"
     inkscape:window-x="-8"
     inkscape:window-y="-8"
     inkscape:window-maximized="1"
     inkscape:current-layer="svg14">
    <inkscape:grid
       spacingy="192"
       spacingx="265"
       id="grid827"
       type="xygrid" />
  </sodipodi:namedview>
  <metadata
     id="metadata20">
    <rdf:RDF>
      <cc:Work
         rdf:about="">
        <dc:format>image/svg+xml</dc:format>
        <dc:type
           rdf:resource="http://purl.org/dc/dcmitype/StillImage" />
        <dc:title></dc:title>
      </cc:Work>
    </rdf:RDF>
  </metadata>
  <defs
     id="defs18" />
  <rect
     id="rect2"
     fill="none"
     height="384"
     width="512" />
  <!-- cherry -->
  <g
     id="g12">
    <path
       id="path4"
       d="M275.001785398 161.144079999C258.644054399 136.995206571 240.254745473 114.331214458 232.39501248 105.16835023C229.379279259 83.7629502196 224.110360948 77.6456411967 223.780992046 77.1650450135C223.780992046 77.1650450135 218.956391474 80.4634608209 218.956391474 80.4634608209C219.023192718 80.5682850946 222.891998703 86.7722269811 225.315079636 105.441340672C225.315079636 105.441340672 225.069033357 105.662232107 225.069033357 105.662232107C225.088864976 105.678783308 225.197566108 105.803439202 225.393377255 106.022854449C227.271923671 120.837178488 228.233116037 143.328039072 225.768015929 176.581579127C220.445939931 248.454931415 206.833456758 251.357162164 206.693740763 251.378708548C206.693740763 251.378708548 206.492233618 257.209040619 206.492233618 257.209040619C207.090641548 257.26227286 209.276294756 257.26227286 212.054615162 254.900192796C218.765664976 249.214974499 227.766178323 232.745888212 231.771822481 178.669893378C233.655766676 153.218977217 234.717876636 129.446889645 233.513157948 115.348800196C241.826542962 125.197346391 261.548432332 149.598006831 269.156736178 163.479871985C281.478300218 185.944519045 300.499044922 220.292511002 300.76161258 220.723528137C300.76161258 220.723528137 305.753603948 217.679419298 305.753603948 217.679419298C305.491394154 217.248387252 291.357384125 185.287928424 274.999996079 161.143364272C274.999996079 161.143364272 275.001487178 161.144079999 275.001487178 161.144079999"
       style="fill:#803300" />
    <path
       id="path6"
       d="M237.955231931 233.768126179C254.315125024 234.204183229 267.035379168 253.831596554 267.399237195 279.341798819C267.762737358 304.855937586 249.292252992 333.65088228 216.14683254 332.781660912C183.004990726 331.904163944 163.69832775 304.43316623 163.313996931 277.459658854C163.02627443 257.398335662 173.860079332 237.399504438 191.494742953 235.179734881C209.126871705 232.96606392 215.055258459 244.017897347 215.055258459 244.017897347C215.055258459 244.017897347 223.029209651 233.367989709 237.95702125 233.766694724C237.95702125 233.766694724 237.955530151 233.768126179 237.955530151 233.768126179"
       style="fill:#800000" />
    <path
       id="path8"
       style="fill:#d40000"
       d="M325.431669913 202.109376363C345.461739665 200.633471464 363.351053207 219.506597347 366.443652592 241.253593273C370.30635998 268.427892068 361.680112533 302.65662591 326.843278614 310.375569317C292.001762644 318.084790757 264.696709361 294.420822788 257.275911239 266.357172787C251.755563781 245.493787335 257.865685706 221.785638097 275.701841561 214.878478917C293.534776643 207.977060469 302.607831966 217.9782654 302.607831966 217.9782654C302.607831966 217.9782654 309.407244318 203.29469585 325.430596321 202.109376363C325.430596321 202.109376363 325.431669913 202.109376363 325.431669913 202.109376363" />
    <path
       id="path10"
       d="M223.781707773 77.1643292859C223.781707773 77.1643292859 221.660350764 72.3246387905 221.660350764 72.3246387905C221.660350764 72.3246387905 219.111197393 70.7786969619 219.499479625 68.4378799718C219.88811972 66.103877305 222.227863119 64.7425633794 222.227863119 64.7425633794C222.227863119 64.7425633794 219.499479625 57.925183282 219.499479625 57.925183282C219.499479625 57.925183282 208.397008469 64.1542054571 208.397008469 64.1542054571C208.397008469 64.1542054571 208.397008469 68.8319029354 210.350989593 71.947137206C212.293101568 75.0620136128 217.352624819 78.9559595297 217.352624819 78.9559595297C217.352624819 78.9559595297 218.957465066 80.4623872294 218.957465066 80.4623872294C218.957465066 80.4623872294 223.784943459 77.1643292859 223.784943459 77.1643292859C223.784943459 77.1643292859 223.78196126 77.1643292859 223.78196126 77.1643292859"
       style="fill:#803300" />
  </g>
</svg>
