<?xml version="1.0" encoding="UTF-8" standalone="no"?>
<svg
   xmlns:dc="http://purl.org/dc/elements/1.1/"
   xmlns:cc="http://creativecommons.org/ns#"
   xmlns:rdf="http://www.w3.org/1999/02/22-rdf-syntax-ns#"
   xmlns:svg="http://www.w3.org/2000/svg"
   xmlns="http://www.w3.org/2000/svg"
   xmlns:sodipodi="http://sodipodi.sourceforge.net/DTD/sodipodi-0.dtd"
   xmlns:inkscape="http://www.inkscape.org/namespaces/inkscape"
   viewBox="0 0 512 384"
   version="1.1"
   id="svg14"
   sodipodi:docname="monopI04-wi8.svg"
   inkscape:version="0.92.3 (2405546, 2018-03-11)">
  <sodipodi:namedview
     pagecolor="#ffffff"
     bordercolor="#666666"
     borderopacity="1"
     objecttolerance="10"
     gridtolerance="10"
     guidetolerance="10"
     inkscape:pageopacity="0"
     inkscape:pageshadow="2"
     inkscape:window-width="1366"
     inkscape:window-height="705"
     id="namedview16"
     showgrid="true"
     inkscape:zoom="0.56054688"
     inkscape:cx="256"
     inkscape:cy="192"
     inkscape:window-x="-8"
     inkscape:window-y="-8"
     inkscape:window-maximized="1"
     inkscape:current-layer="svg14">
    <inkscape:grid
       spacingy="192"
       spacingx="256"
       id="grid827"
       type="xygrid" />
  </sodipodi:namedview>
  <metadata
     id="metadata20">
    <rdf:RDF>
      <cc:Work
         rdf:about="">
        <dc:format>image/svg+xml</dc:format>
        <dc:type
           rdf:resource="http://purl.org/dc/dcmitype/StillImage" />
        <dc:title></dc:title>
      </cc:Work>
    </rdf:RDF>
  </metadata>
  <defs
     id="defs18" />
  <rect
     transform="matrix(1.000000,0.000000,0.000000,1.000000,0.000000,0.000000)"
     id="rect2"
     fill="none"
     height="384"
     width="512" />
  <!-- blueberry -->
  <g
     id="g12"
     style="fill:#330080">
    <path
       id="path4"
       d="M311.392851781 51.7912452223C311.392851781 51.7912452223 315.734354481 63.7820773512 311.944162862 85.4207241841C308.153971244 107.059351136 299.470965843 111.331947407 295.405068982 141.102308439C291.339291405 170.872649591 294.474792416 228.48377293 294.474792416 228.48377293C294.474792416 228.48377293 284.000040911 232.34291074 284.000040911 232.34291074C284.000040911 232.34291074 281.829289561 171.286127932 286.032919759 141.102308439C290.236669242 110.918469066 298.29943725 106.508040055 302.020702558 85.4207241841C302.599806827 82.1394580415 302.976645079 79.1088474872 303.192231151 76.3242205618C298.89116575 86.589489363 293.048274247 97.9418932793 286.032919759 105.267624912C270.458595421 121.531053311 225.5605096 154.609221192 225.5605096 154.609221192C225.5605096 154.609221192 219.496167225 148.544878816 219.496167225 148.544878816C219.496167225 148.544878816 267.424843719 110.918469066 282.725112912 95.8954756894C298.023732007 80.8724624326 299.815497993 52.8938475049 299.815497993 52.8938475049C299.815497993 52.8938475049 304.415469388 52.8938475049 304.415469388 52.8938475049C304.415469388 52.8938475049 311.392752377 51.7912452223 311.392752377 51.7912452223C311.392752377 51.7912452223 311.392851781 51.7912452223 311.392851781 51.7912452223"
       style="fill:#803300" />
    <path
       id="path6"
       d="M364.020266878 315.600645477C364.020266878 315.600645477 348.032484079 308.4337207 348.032484079 308.4337207C348.032484079 308.4337207 376.180840236 288.558688812 376.700242829 261.021683385C377.25153403 231.802633434 366.756384949 207.191924644 335.091693513 199.275776636C293.192687492 188.801025131 245.471923129 218.329895567 234.385244355 250.540311614C222.807890567 284.169770695 253.9124439 317.611814625 281.878315313 325.522992463C311.097365264 333.792539403 328.187750345 322.215185616 328.187750345 322.215185616C328.187750345 322.215185616 337.559899568 333.792539403 337.559899568 333.792539403C337.559899568 333.792539403 344.726824345 322.215185616 344.726824345 322.215185616C344.726824345 322.215185616 353.547682367 325.522992463 353.547682367 325.522992463C353.547682367 325.522992463 352.445060203 316.702154322 352.445060203 316.702154322C352.445060203 316.702154322 364.022433872 315.59955204 364.022433872 315.59955204C364.022433872 315.59955204 364.020445804 315.600645477 364.020445804 315.600645477" />
    <path
       id="path8"
       d="M206.816211155 237.855922152C168.163878897 237.295764169 129.358206969 186.998245249 131.839017373 151.852705545C134.319947061 116.707145959 181.869836997 93.4146056431 220.047478307 99.4789480182C258.22521902 105.543270513 282.069090299 135.451444405 279.588180491 170.59698411C277.107370087 205.742543695 244.856099247 238.407233234 206.816211155 237.855922152C206.816211155 237.855922152 206.816211155 237.855922152 206.816211155 237.855922152" />
    <path
       id="path10"
       d="M214.082420038 186.584766908C214.082420038 186.584766908 205.812892978 177.212617686 205.812892978 177.212617686C205.812892978 177.212617686 192.030314745 178.86653105 192.030314745 178.86653105C192.030314745 178.86653105 195.338141473 165.635283778 195.338141473 165.635283778C195.338141473 165.635283778 185.96599225 157.917028039 185.96599225 157.917028039C185.96599225 157.917028039 204.710270815 156.814425757 204.710270815 156.814425757C204.710270815 156.814425757 214.082420038 148.544878816 214.082420038 148.544878816C214.082420038 148.544878816 213.531128837 161.224854768 213.531128837 161.224854768C213.531128837 161.224854768 222.90327806 168.391779545 222.90327806 168.391779545C222.90327806 168.391779545 211.325904391 173.904810838 211.325904391 173.904810838C211.325904391 173.904810838 214.082420038 186.584766908 214.082420038 186.584766908"
       style="fill:#0044aa" />
  </g>
</svg>
