<svg xmlns="http://www.w3.org/2000/svg" viewBox="0 0 512 384">
<rect width="512" height="384" fill="none"/>
<path d="m-1.3 248.3 0-7.3 109.2 0c76.8 0 109.2 0.2 109.2 0.7 0 0.4-0.8 1.3-1.8 2.2-2.9 2.4-3.8 7.1-2.2 10.8 0.4 1-4.9 1.1-106.9 1.1l-107.4 0 0-7.3z" fill="#808080"/>
<path d="m147 136.2c-1.5-1.7-1.6-3.2-1.6-17.1 0.2-29.5 7.4-74.3 12.3-75.7 25.3-7.2 156.5-8.4 196.1-1.8 4.3 0.7 8 1.6 8.4 1.9 1.7 1.8 4.9 19.4 6.7 36.9 1.5 15 2.8 42.9 2.2 48.3-0.8 6.6-2.7 8.8-7.2 8-4.5-0.8-7.3-2.4-17.5-10-22.4-16.6-37.8-23-63.5-26.5-15.5-2.1-42.9-1.9-55.9 0.4-22.3 4-34.5 9.7-57.2 26.6-8.5 6.3-16.5 10.7-19.6 10.7-0.9 0-2.4-0.8-3.3-1.8z"/>
<path d="m242.8 359.3c-5.8-0.3-13.9-1.4-15.1-2.1-1.5-0.8-1.6-0.4 4.5-27.1 6.2-27.5 7-32.8 6.5-44.6-0.5-14.8-2.5-19.7-11.9-29.7-3.2-3.4-5.6-6.3-5.4-6.6 0.2-0.3 2.2-1.2 4.6-2.2 8.6-3.4 12.5-8.9 12.4-17.6 0-4-0.3-5.2-1.7-7.9-4-7.3-10.9-10.6-39.7-18.6-36.6-10.2-50.6-15.8-59.6-23.9-3.9-3.5-5.5-6.8-5.9-11.9l-0.4-4.4 4.8 0.4c11 0.9 44.6 2.2 89.5 3.4 12.6 0.4 39 0.4 68.8 0 46.2-0.5 54.2-0.8 77.4-2.5 9.3-0.7 10.3-0.7 11.8 0.3 1.3 0.9 1.6 1.5 1.6 3.8 0 5.4-3.1 9.8-10.7 15.2-10.8 7.7-23.3 12.2-62.4 22.3-29.7 7.7-31.1 8.1-33 10.7-2.2 2.9-3.4 6.7-3.4 11.1 0 6.5 2.2 10.9 9.6 18.7l3.9 4.1-3.9 5.1c-7.3 9.7-9.3 17.4-9.3 35.7 0 16 0.5 18.4 9.7 53.2 2.1 8 2.7 12.8 1.6 13.4-2.6 1.6-27.4 2.6-44.3 1.7z"/>
</svg>