<svg xmlns="http://www.w3.org/2000/svg" viewBox="0 0 1024 768"> 


<style>
.line { stroke-linecap: round; stroke-width: 11px; stroke: blue; } 
.box { stroke-width:0; stroke:green; height: 100%; width: 100%; fill: none; } 
.circle { stroke: blue; stroke-width: 11px; } 
.button { width: 9%; height: 12%; } 
.btnCoff { fill: white; } 
.btnCon { fill: blue; } 
.btnToff { fill: black; } 
.btnTon { fill: white; } 
</style> 

<rect width="1024" height="768" fill="#fff"/>
<path d="M0 671.6 1024 680.2Z" style="stroke-width:2px;stroke:#000"/>
<path d="M0.5 92.9 1024.5 66.9l0-87.7-1024 0z"/>
<rect width="257.8" height="147.8" x="284" y="130.3" style="fill:#808080;stroke-width:10;stroke:#020202"/>
<rect width="267.9" height="20.7" x="278.8" y="106.7"/>
<rect width="45" height="12" x="302.5" y="161.7"/>
<rect width="77.9" height="12" x="302.5" y="182.9"/>
<rect width="45" height="12" x="302.5" y="226.2"/>
<rect width="77.9" height="12" x="302.5" y="204.3"/>
<rect width="45" height="12" x="432" y="161.7"/>
<rect width="77.9" height="12" x="432" y="182.9"/>
<rect width="45" height="12" x="432" y="226.2"/>
<rect width="77.9" height="12" x="432" y="204.3"/>
<rect width="20.7" height="60.7" x="479.3" y="52.5"/>
<rect width="20.7" height="60.7" x="317" y="52.5"/>
<circle cx="1028.2" cy="655.6" r="18.1"/>
<path d="m942.8 593.6c2.1 3.9 7 11.9 10.9 17.9 3.9 5.9 6.5 12.5 5.7 14.5-0.8 2.1 1.3 6.7 4.5 10.3 5.7 6.3 5.8 6.7 0.6 12.4-2.9 3.2-7.6 5.8-10.4 5.8-2.8 0-10.8 3.3-17.7 7.2-12.4 7.1-33.7 10.2-30.1 4.4 1-1.6 5.4-2.9 9.9-2.9 4.5 0 10.1-2.3 12.6-5.1 4.1-4.7 2.9-8.7-14.2-48.1-10.3-23.6-24.5-50.8-31.5-60.5-7.1-9.6-18.4-27.9-25.2-40.6-6.8-12.7-13.2-23.1-14.4-23.1-1.2 0-6.7 6.2-12.3 13.9-5.6 7.6-12.8 16.2-16 19.1-3.2 2.9-8.8 13.3-12.4 23.2-6.3 17-30 57.5-50.6 86.3-5.2 7.2-10.2 17.9-11.3 23.7-1.1 5.8-3.8 11.3-6 12.2-3.8 1.5-17.6 0.3-32.6-2.7-6.8-1.4-24.2-14.8-24.2-18.7 0-1.3 8.4-2.2 18.7-1.9 24.2 0.6 29.1-3.5 18-15.1l-8-8.3 15.7-10.8c8.6-6 18.3-14.4 21.5-18.7 8.9-12 18.2-31.5 18.2-38 0-8.7 8.8-30 14.5-35.1 2.7-2.4 8-12.9 11.7-23.3 3.7-10.4 11.2-25.8 16.5-34.3 9.6-15.2 10.2-20.9 2.3-20.9-6.3 0-16.7-16.6-14.6-23.2 2.5-7.8 0.3-7.4-16.7 3-11.3 7-15.3 8.1-18.5 5.5-3.1-2.6-5.6-2.4-10.9 1.1-3.8 2.5-12 5.4-18.2 6.6l-11.3 2.1 8.7-7.3c4.8-4 12-8.5 16-9.9 4-1.4 18.1-8.3 31.2-15.3 22.4-11.9 24-13.3 24-22 0-10.1 20.9-55.1 33.1-71.2 4.2-5.5 7.6-11.5 7.6-13.3 0-6.4-11.3-15.5-17.3-13.9-4.5 1.2-5.9 0.2-5.9-4.2 0-3.2-1.9-7.4-4.3-9.4-3.1-2.6-3.5-5-1.5-8.9 1.6-2.9 2.8-9.8 2.8-15.2 0-14.3 7.6-20.1 25-19 12 0.8 14.9 2.2 20.2 10 3.4 5 8.4 16.8 11.2 26.2 2.8 9.4 8.2 26.8 12.1 38.9 7 21.7 8.7 35.9 5.3 44.8-2.8 7.3-6.9 5.4-7.3-3.4-0.4-10.8-8.1 23.9-8.3 37.1 0 5.6 3.2 20.6 7.3 33.4 4.7 14.7 6.3 23.6 4.3 24.2-1.7 0.6-2.3 4.1-1.3 8.1 1 3.9 0.2 9-1.7 11.3-5 6-1 20.7 7.4 27.3 4.5 3.5 8.1 10.7 10.1 20.1 2.7 12.6 18.3 43.2 25.9 51 12.2 10 13.1 28.8 20.5 42.7z"/>
<rect width="76.5" height="35" x="138.2" y="790.7" transform="matrix(0.71188194 -0.70229915 0.70229915 0.71188194 0 0)" style="fill: #808080"/>
<circle cx="155.8" cy="807.9" transform="matrix(0.71188194 -0.70229915 0.70229915 0.71188194 0 0)" r="14"/>
<rect width="34.4" height="2.6" x="175.3" y="794.5" transform="matrix(0.71188194 -0.70229915 0.70229915 0.71188194 0 0)"/>
<rect width="34.4" height="2.6" x="175.3" y="799.3" transform="matrix(0.71188194 -0.70229915 0.70229915 0.71188194 0 0)"/>
<rect width="34.4" height="2.6" x="175.3" y="804.1" transform="matrix(0.71188194 -0.70229915 0.70229915 0.71188194 0 0)"/>
<rect width="20.4" height="2.6" x="175.3" y="809.4" transform="matrix(0.71188194 -0.70229915 0.70229915 0.71188194 0 0)"/>
<path d="m 673.67465,476.1618 c 0,-0.84478 0.11927,-1.02671 1.20412,-1.83662 l 1.20413,-0.89896 v -3.24647 c 0,-2.3008 -0.0813,-3.24647 -0.27913,-3.24647 -0.23789,0 -7.99268,2.41909 -9.02637,2.81575 -0.29023,0.11138 -0.34138,-0.0957 -0.28096,-1.13728 l 0.0739,-1.27344 4.69609,-2.9344 4.69609,-2.93439 0.12041,-3.79238 c 0.11508,-3.62443 0.14559,-3.81273 0.68895,-4.25204 0.7233,-0.58481 1.51117,-0.58481 2.23448,0 0.54336,0.43931 0.57386,0.62761 0.68895,4.25204 l 0.12041,3.79238 4.69609,2.93439 4.69608,2.9344 0.0739,1.27344 c 0.0563,0.97064 -10e-4,1.24483 -0.24082,1.15309 -0.99193,-0.37936 -8.8529,-2.83156 -9.07709,-2.83156 -0.18423,0 -0.26854,1.01928 -0.26854,3.24647 v 3.24647 l 1.20412,0.89896 c 1.08485,0.80991 1.20413,0.99184 1.20413,1.83662 0,0.79413 -0.0645,0.91288 -0.42145,0.77579 -0.23179,-0.089 -1.17739,-0.37143 -2.10132,-0.62754 -1.66008,-0.46017 -1.69983,-0.46018 -3.37155,-7.7e-4 -0.93042,0.25571 -1.88133,0.5381 -2.11312,0.62754 -0.35705,0.13776 -0.42144,0.0193 -0.42144,-0.77506 z" style="fill: #808080"/>
<path d="m67.6 335.5c-8.9-0.7-14.8-3.2-14.3-6.1 0.1-0.6 7.3-90.4 7.3-91.1 0-0.4 0.6-0.4 13.5-0.5 7.4-0.1 13.6-0.1 13.6-0.1 0 0 1.8 20.3 4 45 2.2 24.7 4 45.2 4.1 45.5 0.4 2-3.1 4.4-8.5 5.8-5.5 1.4-13.7 2.1-19.7 1.6z" class="b"/>
<path  d="m58.5 230.5c-4.5-8.6-7-12.7-10.1-16.4-2.7-3.3-3-4.2-3-10.9 0-6.1 0.2-6.9 2-7.8 1.8-0.9 2.3-1.6 2.7-3.9 0.4-2.6 0.6-2.6 4.9-2.6l3.1 0 0-7.6 0-7.6 1.3 0 1.3 0 0 7.6 0 7.6 1 0 1 0 0-3.6 0-3.6 0.9 0 0.9 0 0 3.6 0 3.6 3.4 0c5.1 0 8.3-0.4 9-1.2 0.3-0.4 0.5-0.9 0.5-1.2 0-0.3 0.7-1.4 1.6-2.4 0.9-1 1.6-2.1 1.6-2.4 0-0.8-1.2-1.4-4.2-1.9-1.6-0.3-3-0.6-3.1-0.7-0.1-0.1 0.5-0.5 1.3-0.8 1.3-0.5 2.5-0.6 7.3-0.5 5.6 0 7.7 0.3 8 1.2 0 0.2-1.3 0.6-2.9 0.9-1.6 0.3-3.2 0.7-3.5 0.8-1 0.4-0.6 1.6 1 3.4 0.8 1 1.6 2.1 1.7 2.5 0.3 1.7 0.9 1.8 6.8 2.2 3 0.2 5.7 0.5 5.8 0.6 0.2 0.2 0.4 1.2 0.6 2.2 0.3 2.2 0.5 2.5 2.4 3.5 1.1 0.6 1.5 1 1.8 1.8 0.5 1.5 0.5 11.7 0 13.5-0.2 0.9-0.9 1.9-2.4 3.5-2.4 2.6-3.7 4.7-8.9 13.9l-3.9 7-13.9 0.1-13.9 0.1-2.3-4.4 0 0zm42.6-26.5 0-4.9-26.3 0-26.3 0 0 4.9 0 4.9 26.3 0 26.3 0 0-4.9z"/>
<path  d="m4.7 386c0-15.8 0.3-28.7 0.6-28.7 0.4 0 3-0.4 5.8-0.8 6.8-1.1 29.7-2.4 70.7-3.9 44.9-1.7 50.8-1.7 60.6 0.5 25.6 5.7 69.6 13.8 75.6 13.8 0.6 0 1.5 1.5 2 3.4 1.9 7.2 10.4 10.2 17.1 6.1 3.5-2.1 6.2-2.1 25.5-0.3l14.8 1.4 1.5-2 1.5-2 14.1 1.1c21.7 1.7 24.1 2 25.6 3.5 5.2 5.3 10 5.8 14.7 1.5 1.9-1.7 4.6-3.2 6.7-3.5 4.6-0.8 10.7-3.6 13.2-5.9 3.4-3.2 2.6-5.5-4.4-12.6l-6.4-6.5-22.4-2.3-22.4-2.3 14.7-0.6c8.1-0.3 52.6-1.6 99-2.7 46.4-1.2 89.9-2.3 96.6-2.5l12.3-0.4 0 27 0 27-193.5 8.1c-106.4 4.4-210.1 8.8-230.3 9.7-20.2 0.9-49.5 1.9-65.1 2.2l-28.3 0.6 0-28.7z" style="fill:none;stroke-width:2"/>
<path d="m534.7 367.1c-0.3-14.7-0.4-26.8-0.2-26.9 0.2-0.3 21.7-0.9 112.4-3.2 28.5-0.7 65.3-1.7 81.7-2.1 62.1-1.7 77-2 77-1.4 0 0.3-2.2 5.5-4.8 11.5-5.7 12.9-9.9 25-9.9 28.7 0 3.8-1.3 6.6-3.7 8.2-1.7 1.1-6.4 1.6-23.6 2.3-41 1.7-85 3.5-148.2 6.1-35 1.4-67.3 2.8-71.9 3.1l-8.3 0.5-0.5-26.7z" style="fill: #808080"/><path d="m879.4 374c0-5.2 1-13.7 2.2-18.9 0.3-1.2 1.3-2 2.9-2.3 6-1.2 11.4-9.9 11.4-18.3l0-3.8 10.6-0.5c5.8-0.3 18.2-0.7 27.5-1 34.2-0.9 72.4-2.2 79.8-2.6l7.6-0.5 0 23.7 0 23.7-11.5 0.6c-36.6 1.8-48.4 2.3-78.9 3.5-18.6 0.7-37.7 1.5-42.6 1.8l-8.9 0.5 0-5.9z" style="fill: #808080"/>
<path d="m526.9 480.1c0-6.4-0.1-11.7-0.1-11.7 0 0 0.9 0.1 2 0.1l1.9 0.2 0 11.5 0 11.5-1.9 0-1.9 0-0.1-11.7z" />
<path d="m525.6 88.6 0-13.3 0.9 0c0.5 0 1.3-0.1 1.8-0.2l1-0.2 0 13.6 0 13.6-1.8 0-1.8 0 0-13.3z" />
<path d="m892.7 307.1-1.3-5.2 4.3-0.3c2.4-0.2 22.4-0.8 44.4-1.3 22-0.5 48.2-1.2 58.1-1.5 9.9-0.3 19.2-0.6 20.6-0.6l2.6 0 0 4.9c0 4.1-0.2 4.9-1.1 5.2-1.6 0.5-28.2 1.5-68 2.5-19.3 0.5-40.4 1.1-46.8 1.3l-11.6 0.4-1.3-5.2z" style="fill: #808080"/>
<path d="m882.8 275.1c-0.4-1.2-0.6-2.2-0.6-2.3 0.1-0.1 19.1-0.7 84.2-2.4 9.4-0.3 21.7-0.6 27.2-0.8 5.5-0.2 14-0.4 18.9-0.5l8.8-0.2 0 2.2 0 2.2-2.5 0.2c-1.4 0.1-7.3 0.3-13.2 0.5-5.9 0.2-15.6 0.5-21.6 0.6-6 0.2-26 0.7-44.5 1.2-18.5 0.5-38.4 1-44.3 1.2-5.9 0.2-10.9 0.3-11.2 0.3-0.4 0-0.7-0.5-1.2-2.2z" style="fill: #808080"/><path d="m3.9 330.6 0-5.7 9.9-0.4c5.5-0.2 16.3-0.6 24-0.8l14.1-0.4-0.3 3.7c-0.3 4.4 0.3 5.8 3.5 7.3l2.4 1.2-14.7 0.4c-8.1 0.2-20.2 0.4-26.9 0.4l-12.1 0 0-5.7z" style="fill: #808080"/>
<path d="m798.6 569.6c0.6-1 1.9-3.4 2.9-5.4l1.9-3.6 26.1 0 26.1 0 0-21.5 0-21.5 1.7 3 1.7 3 0 6.6c0 3.6 0.1 12 0.3 18.6l0.3 12 11.7 0 11.7 0 2.8 5c1.5 2.8 2.9 5.2 3 5.4 0.1 0.2-20.4 0.4-45.6 0.4l-45.7 0 1.1-1.8z" class="b"/>
<path d="m536.2 570.9c-0.4-1.4-1.1-6.5-1.1-8.5l0-2.3 74.3 0.3c40.8 0.2 89.6 0.3 108.4 0.3l34.1 0-2.8 5.3-2.8 5.3-105 0.1c-83.8 0.1-105 0-105.1-0.4z" class="b"/>
<path d="m106.6 568.7c-0.3-1.3-0.8-3.7-1-5.5l-0.4-3.2 154 0c84.7 0 174.9 0.2 200.4 0.4l46.3 0.4 0 2.8c0 1.5-0.2 3.8-0.4 5.1l-0.4 2.3-199 0-199 0-0.6-2.3z" class="b"/>
<rect width="7.3" height="477" y="84.9" class="b"/>
<path d="m0 565.4 0-5.5 40.1 0 40.1 0 0 1.6c0 0.9-0.3 3.4-0.7 5.5l-0.7 3.9-39.4 0-39.4 0 0-5.5z" class="b"/>
<path d="m979.9 616.4c-32.9-30.7-29.5-26.4-35.5-44.2-5.2-15.5-7.5-19.6-15-27.8-3.3-3.6-10-13.8-10-15.1 0-1.5 20.5-22.5 23.4-24 3-1.6 8.7-1.6 11.2-0.1 3.1 1.9 19.5 16.9 76.7 70.1 32.4 30.1 32.5 30.2 32.5 36.2 0 4.5-1.6 7-11.6 18-8.4 9.2-8.9 9.7-10.1 8.8-8.7-6.4-20.8-5.5-28.6 2.3-1.6 1.6-3.1 2.9-3.4 2.9-0.2 0-13.5-12.2-29.5-27.1z" style="fill: #808080"/>
<path d="m856.2 217.5-1.8-1.2 0-30.5c0-16.8-0.1-48.4-0.3-70.4l-0.3-39.9 1.8 0c1 0 1.8 0 1.9 0.1 0.1 0.1 0.6 142.7 0.6 142.9 0 0-0.8-0.4-1.8-1.1z" class="b"/>
<path  d="m82.5 593.2c-5.2-0.5-5.1 1.1-0.6-16.8 4.4-17.5 3.2-29-3.8-35.3l-2.5-2.3 4-2c3.3-1.6 4-2.8 4.3-6.7 0.7-8.2-1.9-9.9-23.4-15.6-18.8-5-30.2-11.1-30.2-16.2 0-1 16.4-1.4 61.8-1.4 56.5 0 61.8 0.2 61.8 2 0 3.1-7.6 9.1-15.5 12-3.9 1.5-12.7 4-19.5 5.5-14.6 3.3-17.1 4.5-18.1 8.4-1 3.9 0.1 6.6 3.4 8.3 3 1.6 47 3.2 93.4 3.3 33.2 0.1 31 0.8 28.4-8.8-1.7-6.1-5.4-8.3-21.7-12.5-15.5-4-24.8-7.9-29-12.1-6.4-6.4-7.9-6.2 58.7-6.2 50.2 0 61.8 0.3 61.8 1.6 0 7.3-10.9 12.8-37.1 18.6-7.3 1.6-13 3.6-14.4 5-3.4 3.4-3 8 1 10.5 3.1 2 7.8 2.2 60.8 2.2 44.6 0 58.2-0.4 60.3-1.6 3.4-2 3.8-8.7 0.6-11.6-1.2-1-8.7-3.6-16.8-5.7-16.6-4.3-31.5-11-34.5-15.6-2.8-4.3-0.5-5.5 8.2-4.4 3.7 0.5 31.4 0.9 61.5 0.9 48.8 0 54.7 0.2 54.7 1.9 0 1.1-1.5 3.4-3.4 5.1-5.4 5.2-16.4 9.2-37.3 13.7-6.8 1.5-10 2.8-11.3 4.7-2.5 3.6-2.3 7.4 0.6 10.1 2.2 2 6.1 2.4 36.4 3.3 18.7 0.6 45.4 0.7 59.4 0.2 22.7-0.7 25.8-1.1 27.8-3.1 3.1-3.1 2.9-6.2-0.5-9.3-4.2-3.8-6.6-4.8-20.5-8.2-20.3-5-37.6-14.9-33.4-19.2 0.8-0.8 8-0.7 20.1 0.2 12 0.9 34.8 1.2 62.6 0.7 48.2-0.7 47.8-0.8 40 6.5-4.5 4.2-15.9 8.6-33.6 12.9-7.4 1.8-14.4 4.1-15.6 5.1-3.2 2.7-2.7 9.2 0.9 13.5l3.1 3.7-2.7 4.5c-4.3 7.4-4.5 19.5-0.4 35.3 1.8 7.2 3 13.5 2.6 13.9-1.1 1.1-27.2 1.1-28.2 0.1-0.5-0.5 0-3.8 1.1-7.3 3.3-11.6 4.6-23.2 3.8-33.8l-0.8-10.1-201.4 0.3c-214.2 0.4-205 0.1-208.2 6.1-2.4 4.4-1.5 17.8 1.7 28.5 4.7 15.3 4.7 15.3 1.3 16.6-3 1.1-12.2 1.2-21.5 0.3z"/>
<path d="m464.8 480.8c-1.8-4.7 2.8-42.1 5.5-44.7 3.3-3.3 84.7-4.3 98.1-1.3 4.1 0.9 4.4 1.4 5.8 8.3 0.8 4 1.7 14.2 1.8 22.5 0.4 18.5 0.2 18.7-12.9 9.8-5-3.4-12.3-7.3-16.1-8.6-14.1-4.9-38.1-5.2-52.1-0.5-3.2 1.1-9.8 4.7-14.8 8.1-11.2 7.7-14.3 9-15.3 6.4z" class="b"/>
<path d="m320.6 479.7c-1-3.8 1.5-25.6 4-35.8 1.3-5.3 2.7-8.1 4.5-9.1 1.8-1 15.9-1.4 47.2-1.5 50.2-0.1 50.8 0 53.4 8.1 1.9 5.9 3.5 36.7 2 39.4-1 1.8-2.4 1.3-11.2-4.6-12-8-20.4-11.3-33-13.1-19.1-2.7-34.8 1-52.7 12.4-6.4 4-12 7.3-12.5 7.3-0.5 0-1.3-1.4-1.7-3z" class="b"/>
<path d="m178.9 478.1c-1-4.6 1.3-28.5 3.6-37.3 1-3.9 1.8-7.3 1.8-7.6 0-1.6 99.2 0.4 100.8 2 1.7 1.7 4.6 16.7 5.2 27.5 0.8 13.2 0.1 18.8-2.4 18.8-0.8 0-5.6-2.5-10.6-5.7-12-7.4-17.6-9.8-29.6-12.2-19.3-3.9-36.7-0.4-54.7 11-5.9 3.8-11.3 6.8-12 6.8-0.7 0-1.6-1.5-2-3.4z" class="b"/>
<path d="m36.5 478.4c-2-4.3-1.8-8.8 1-25 2.8-16.4 4.2-18.4 13.7-19.8 15.5-2.2 86.2-0.7 89.6 1.8 3.3 2.5 9.4 32.9 8.2 41-0.8 5.6-3.2 5.9-10.4 1-15.6-10.6-29.1-14.6-49.8-14.6-16.9-0.1-26.2 2.5-35.8 9.8-13.5 10.2-14.4 10.5-16.6 5.7z" class="b"/>
<path d="m179.3 481.3c-2-3.3 0.8-35.6 3.9-43.8l1.5-4 46.2 0c25.4 0 48.1 0.3 50.3 0.7 3.8 0.6 4.2 1 5.4 4.3 3.3 8.9 5.8 34.3 4 39.9-1 3-1.3 3.2-3.7 2.7-1.5-0.3-5.8-2.5-9.6-5-16.2-10.4-25.3-13.1-43.4-13.2-18.6-0.1-25.7 2.1-43.7 13.7-4.9 3.2-9.2 5.7-9.6 5.7-0.4 0-1-0.5-1.3-1z" class="b"/>
<path d="m320.4 479.2c-0.6-3.8 0.7-18.9 2.6-28.7 1.8-9.4 3.7-14.6 5.9-15.9 1.4-0.8 12.7-1.1 47.3-1.1 50.2 0 50.3 0 53.1 5.5 2.4 4.7 4.3 39.3 2.3 42.4-1.1 1.7-3.4 0.7-10.6-4.6-8.7-6.4-12.9-8.6-21.9-11.3-7-2.1-9.2-2.4-21.6-2.4-19.5-0.1-26.3 1.9-42.9 12.9-4.7 3.1-9.7 5.9-11 6.1-2.4 0.5-2.6 0.3-3.1-2.9z" class="b"/>
<path d="m464.9 481c-1.7-4.5 1.1-33 4.3-43.8 0.7-2.2 7-3.2 27.8-4.3 29.7-1.5 72.4 0.2 75.3 3 1.8 1.8 3.7 15.3 4.2 30.1 0.7 19 0.6 19.1-14.4 8.9-11.5-7.8-19.1-10.5-34-11.8-12.3-1.1-22.4-0.2-31.9 2.8-5.6 1.8-9.8 4.1-22.3 12.6-5.8 3.9-8.1 4.5-9 2.3z" class="b"/>
<path  d="m81.9 593.3c-3-0.3-3.2-0.6-3.2-3 0-1.4 1.2-7.3 2.7-13.1 2.1-8.1 2.8-12.4 2.8-18.7 0.1-9.3-0.8-11.7-6.1-16.7l-3.2-3 3-1.3c5.5-2.3 7.6-6.5 6-11.4-1.7-5.1-4.4-6.3-28.5-13-15.7-4.3-25.1-10.2-25.1-15.7 0-2.1 0.1-2.2 4.1-1.7 8.9 1.1 88.9 1.6 103.9 0.6 12.1-0.8 15.2-0.8 15.8 0.1 1.2 1.9 0.8 3.1-2 6.3-5.1 5.8-18.5 11.2-36.8 14.6-10.8 2.1-15 5-15 10.4 0 2.9 3.9 5.7 9.2 6.5 4.2 0.7 117.2 2.9 117.7 2.3 0.1-0.1-0.2-2.5-0.7-5.3-1.5-9.2-4-11.2-18.4-14.8-10.4-2.6-22.5-6.5-27.5-9.1-4.8-2.5-8.5-6.6-8.5-9.5l0-2.5 9.7 0.6c11 0.7 88.4 0.9 103.6 0.2l9.9-0.4 0.3 2.6c0.4 3.9-2.4 6.8-10.5 10.7-6.9 3.4-11.3 4.7-29.5 8.7-6.8 1.5-9.1 2.4-11 4.3-4.6 4.6-2.5 10.4 4.2 11.8 1.8 0.4 28 0.7 58.2 0.7 49.6 0 55.2-0.1 58.1-1.5 5.5-2.5 5.5-8.8 0-12.5-1.6-1.1-6.6-2.7-11.2-3.8-22.5-4.9-40.9-14.1-39.8-19.8 0.3-1.7 5.4-1.7 26.2-0.3 17.7 1.3 41.6 1.3 70.5 0.1 12.6-0.5 24.3-1 25.9-1.1 2.7-0.1 3.1 0.2 3.3 2.1 0.4 3.4-3.4 7.3-10.5 10.7-6.7 3.2-18.5 6.8-26.9 8.3-8 1.4-13.3 3.4-14.8 5.4-1.8 2.6-1.7 7.8 0.2 9.5 2.9 2.6 12.5 3.2 57.7 3.7 49.8 0.5 64.8-0.1 66.8-2.8 2.2-3 2.3-5.5 0.5-8-2.7-3.7-7.8-6-18.4-8.5-22.3-5.2-37.2-12.7-37.2-18.9l0-2.3 13.2 0.7c16.4 0.9 90.2 1 103.3 0.1 9.3-0.6 9.7-0.6 10.2 1.1 0.8 2.4-1.3 5.3-6 8.5-5.6 3.8-11.2 5.8-29.5 10.5-17.7 4.5-19.5 5.5-19.5 10.5 0 3.4 2.3 8.1 4.9 10.2l2.1 1.7-2.6 3.6c-5.3 7.4-5.7 20.9-1 37.2 1.4 5 2.6 10.1 2.6 11.4 0 2.2-0.2 2.3-6.6 2.9-6.5 0.6-21.6 0.1-22.5-0.8-0.2-0.2 0.9-5.4 2.4-11.5 2.7-10.4 2.9-11.8 2.8-24.7-0.1-7.5-0.3-13.8-0.4-14-0.2-0.2-77.9-0.6-172.8-0.9-168.9-0.5-227.4 0-232.8 2.1-4.1 1.6-5.5 5.5-5.4 15.3 0.1 7.4 0.5 10.1 3.1 18.2 4.6 14.5 4.7 15 2 16-2.2 0.8-16.2 1-23.1 0.2z" class="b"/>
<path d="m526.8 399.5c-0.2-14.8-0.3-46.1-0.3-69.6l0-42.7 1.5 0 1.5 0 0.3 26.1c0.1 14.3 0.3 45.7 0.4 69.6l0.2 43.6-1.6 0-1.6 0-0.3-26.9z" class="b"/>
<path d="m7.4 299.1 0-2.4 3.1-0.2c1.7-0.1 10.4-0.4 19.2-0.6 8.8-0.2 18-0.5 20.3-0.6l4.2-0.2-0.2 2.5c-0.1 1.4-0.3 2.6-0.3 2.6-0.1 0.1-8.4 0.3-18.6 0.5-10.2 0.2-20.6 0.5-23.1 0.6l-4.7 0.1 0-2.4z" style="fill: #808080"/>
<path  d="m334.7 371.7c-1.1-0.5-2.2-1.7-2.7-2.8l-0.9-1.9-18.4-1.1c-10.1-0.6-22.7-1.3-28-1.7-8-0.5-20-1.8-39.6-4.3l-2.9-0.4-1.1 2.2c-1.4 3-3.9 4.6-7 4.6-4.3 0-7.8-3.4-7.8-7.5 0-1.1-0.3-2.1-0.6-2.2-0.4-0.1-4.5-1-9.2-1.9-8.8-1.8-30.9-6.8-42.9-9.8-3.7-0.9-15.2-3.6-25.5-6-18.3-4.2-28.8-6.9-31.6-8-2.2-0.9-2.5-1.9-1.9-6.8 0.3-2.4 0.7-4.6 0.9-4.9 0.3-0.5 7.1-0.2 12.5 0.6l2.4 0.4-0.3-3.1c-0.4-3.9-1.1-36.3-0.8-36.6 0.1-0.1 2.1 0 4.4 0.2l4.2 0.4 5 6.1c2.8 3.4 8.4 10.1 12.5 15.1 5.6 6.7 17.8 21.8 18.3 22.7 0.1 0.1 18.2 2.2 64.9 7.6 21.6 2.5 47 5.4 56.3 6.5 9.3 1.1 22.3 2.6 28.9 3.4 6.6 0.8 15.7 1.9 20.2 2.4l8.2 1 3.6 3.3c4 3.7 7.8 8.3 7.8 9.6 0 2-6.8 4.8-15.1 6.2-4.1 0.7-4.8 1-4.8 1.9 0 1.7-1.7 4-3.5 4.8-2.2 1-3.2 1-5.4-0.2z" />
<path d="m7.5 386 0-28.1 3.7-0.5c2-0.3 42-1.8 88.8-3.3l85.1-2.9 12.2 2.8c6.7 1.5 15.2 3.4 18.9 4.2 5.4 1.2 6.7 1.8 6.7 3 0 2.4 4 6.7 7.4 7.8 4.3 1.4 8.5 0.4 11.8-3l2.8-2.8 16.4 2c9 1.1 27.7 2.6 41.5 3.4l25.1 1.5 2.9 2.7c2.3 2.2 3.6 2.7 6.7 2.7 3.4 0 4.3-0.4 7.4-3.7 1.9-2 4.3-3.7 5.2-3.7 0.9 0 4.1-0.8 7.1-1.8 5.7-1.9 10.1-5.3 10.1-7.8 0-1.7-3.5-7.1-7-10.8l-2.5-2.7 18-0.6c24.2-0.8 136.3-4 141.4-4l4.1 0 0 26.4c0 20.4-0.2 26.5-1.1 26.7-0.6 0.2-46.2 2.1-101.4 4.4-55.2 2.2-108.7 4.4-118.9 4.9-159 6.9-267.5 11.2-283.9 11.2l-8.4 0 0-28.1z" style="fill: #808080"/>
<path d="m216.2 324.8c-20.6-2.5-37.3-4.5-37.2-4.6 0.1-0.1 17.5-0.6 38.7-1.1 21.2-0.5 52.9-1.3 70.5-1.8 31.5-0.8 50.9-1.3 152.2-3.9 28.1-0.7 57.7-1.5 65.9-1.8l14.9-0.6 0 5.7 0 5.7-6.8 0c-3.7 0-26 0.6-49.5 1.3-66.7 2-165.9 4.7-189.7 5.2l-21.6 0.4-37.4-4.5z" style="fill: #808080"/>
<path d="m155.6 295.1c-1.2-1.4-1.6-2.3-1.3-2.4 0.3 0 8.4-0.3 17.9-0.5 17.1-0.5 26.4-0.7 73.7-2 43.7-1.2 57.9-1.6 71.8-2 15.7-0.5 166.9-1.1 166.4-0.6-0.2 0.2-9.8 0.6-21.4 0.9-26.4 0.7-46.8 1.3-75.4 2.1-33.2 1-80.2 2.3-106.8 3-13 0.4-30.6 0.8-39.1 1.1-18.3 0.5-40.8 1.1-63.1 1.7-8.8 0.2-17.1 0.5-18.4 0.7l-2.4 0.2-1.9-2.3z" style="fill: #808080"/>
<path d="m94.9 297.8c-0.1-0.6-0.1-1.7-0.1-2.4l0-1.2 1.4-0.1c0.7-0.1 6.7-0.2 13.1-0.3 6.5-0.1 12.5-0.3 13.4-0.3l1.7-0.1 0.2 2.4c0.1 1.3 0.1 2.5 0.1 2.5-0.2 0.2-11.5 0.6-20.4 0.7l-9.1 0.1-0.1-1.2z" style="fill: #808080"/>
<path d="m92.2 334.3c0-0.1 0.6-0.5 1.3-0.9 1.9-1.2 3-2.2 3.5-3.3 0.4-0.8 0.4-1.4 0.4-4.3 0-3.1 0-3.3 0.4-3.5 0.4-0.2 7.2-0.6 10.5-0.7l1.7 0-0.1 0.9c-0.1 0.5-0.2 2-0.3 3.4-0.2 3.3 0.3 5 1.9 6.7l1.1 1.2-2.9 0.1c-4.2 0.2-17.5 0.4-17.5 0.3z" style="fill: #808080"/>
<path  d="m775.8 278.4c-0.8 0-1.7-0.4-2.3-0.9l-1-0.9-11 4.2c-6.1 2.3-13.7 5.2-16.8 6.4-4.8 1.8-12.2 4.2-24.3 8l-1.8 0.5 0 1.6c-0.1 2.1-1.1 3.7-2.9 4.5-2.5 1.1-5.5 0.1-6.6-2.3-0.3-0.7-0.7-1.1-0.9-1.1-0.2 0-2.9 0.6-5.9 1.3-5.6 1.3-19.9 4.2-27.7 5.6-2.4 0.4-9.9 1.9-16.5 3.2-11.8 2.4-18.6 3.6-20.6 3.7-1.5 0.1-2-0.5-2.9-3.5-0.5-1.5-0.8-2.9-0.8-3.1 0.1-0.4 4.1-2 7.5-2.9l1.5-0.4-1-1.7c-1.3-2.2-10.2-21-10.1-21.2 0-0.1 1.2-0.6 2.6-1.1l2.6-0.9 4.6 2.3c2.5 1.2 7.6 3.7 11.3 5.5 5 2.4 16.2 8.1 16.7 8.4 0.1 0 11.3-3.5 40-12.7 13.3-4.3 28.9-9.2 34.7-11.1 5.7-1.8 13.8-4.4 17.8-5.7 4.1-1.3 9.7-3 12.4-3.9l5.1-1.5 3 1c3.3 1.1 6.8 2.8 7.1 3.6 0.5 1.2-2.7 4.6-7.2 7.6-2.2 1.5-2.6 1.8-2.3 2.4 0.4 1 0.1 2.8-0.8 3.7-1 1.2-1.6 1.4-3.2 1.3z" />
<path d="m551.6 284 0-2.2 3.4 0c3 0 30.1-0.7 59.8-1.6l10.2-0.3 0.8 1.8c0.6 1.4 0.7 1.9 0.3 2.2-0.3 0.2-5.4 0.5-11.2 0.6-5.9 0.2-16.8 0.5-24.3 0.7-7.5 0.2-19.3 0.5-26.3 0.7l-12.6 0.3 0-2.2z" style="fill: #808080"/>
<path style="fill: #808080" d="m657.6 281.3-4.1-2.1 1.4-0.2c0.8-0.1 7.4-0.3 14.8-0.5 7.4-0.2 15.4-0.4 17.7-0.5 2.4-0.1 4.2-0.1 4.1 0-0.1 0.1-3.5 1.2-7.6 2.5-8.2 2.6-6.5 2.3-18.4 2.7l-3.8 0.1-4.1-2.1z" />
<path d="m780.5 279.6c1.2-0.6 2.6-1.8 3.5-3.2 0.5-0.8 1.3-0.9 13.2-1.2 14.1-0.4 13.1-0.5 13.3 2.5l0.1 1.4-11.6 0.3c-6.4 0.2-13.4 0.4-15.6 0.5-3.4 0.2-3.8 0.1-2.8-0.3z" style="fill: #808080"/>
<path style="fill: #808080" d="m534.8 318.5 0.1-5.5 33.5-0.3c18.4-0.2 39.3-0.5 46.3-0.7 11.6-0.4 12.8-0.3 13.2 0.3 1 1.7 3.4 3.5 4.8 3.8 1.9 0.4 4.6-0.1 21.6-3.3l13.4-2.6 18.6-0.7c10.2-0.4 23.3-0.9 29-1.1 11.5-0.4 45.6-1.5 70.7-2.2 18.6-0.5 35.9-0.6 35.9-0.2 0 0.2-4.9 8.5-5.4 9.2-0.3 0.4-11.9 1-33.3 1.6-13.3 0.4-34.5 1-47.1 1.3-12.6 0.3-26.4 0.7-30.7 0.9-14.7 0.4-52.8 1.5-106.8 3-29.7 0.8-56.2 1.6-58.9 1.7l-4.9 0.2 0.1-5.5z"/>




<!--1-->
<svg x="0%" y="12%">

<svg width="18%" height="24%">
<rect class="box"/>
</svg> 

<svg width="18%" height="24%">
<g transform="scale(1, 1)">
<svg>
<line class="line" x1="75%" y1="25%" x2="46%" y2="53%"/>
</svg>
</g>
</svg> 

<svg class="button" x="9%" y="0%" width="9%" height="12%">
<g transform="scale(1, 1)">
<svg class="btnCoff">
<circle class="circle" cx="50%" cy="50%" r="40%"/>
</svg>
<svg x="13%" y="14%" viewBox="0 0 400 400">
<g transform='scale(0.65 0.65)' class="btnToff">
<path d="m 212.51385,236.61457 c 0,-68.08913 -0.49101,-123.79842 -1.09113,-123.79842 -0.60011,0 -4.60949,2.85695 -8.90973,6.34877 -15.76274,12.79946 -51.27108,33.48609 -64.55957,37.61144 -4.16868,1.29415 -4.22034,1.09606 -4.21593,-16.16673 l 0.004,-17.47694 10.15495,-5.30595 c 29.94812,-15.64787 65.50005,-45.926729 76.91039,-65.503008 L 226,43.413996 h 12.01405 12.01403 V 201.91351 360.413 h -18.75714 -18.75733 z">
</path>
</g>
</svg>
</g>
</svg>

</svg> 

<!--2-->
<svg x="15%" y="31%">

<svg width="18%" height="24%">
<rect class="box"/>
</svg>

<svg width="18%" height="24%">
<g transform="scale(1, 1)">
<svg>
<line class="line" x1="50%" y1="25%" x2="50%" y2="57%"/>
</svg>
</g>
</svg>

<svg class="button" x="4.5%" y="0%" width="9%" height="12%">
<g transform="scale(1, 1)">
<svg class="btnCoff">
<circle class="circle" cx="50%" cy="50%" r="40%"/>
</svg>
<svg x="17%" y="14%" viewBox="0 0 400 400">
<g transform='scale(0.65 0.65)' class="btnToff">
<path d="m 89.58885,354.9505 c 0,-9.08544 6.69,-27.66163 14.99891,-41.64758 10.46314,-17.61208 34.70133,-42.26454 77.8164,-79.14641 56.76554,-48.55888 74.07604,-71.84823 75.69209,-101.83532 0.68123,-12.64079 0.13245,-16.68621 -3.36721,-24.82137 -8.17409,-19.001199 -28.08368,-32.149009 -51.18595,-33.801968 -35.32602,-2.527564 -61.4689,17.237938 -67.12098,50.747268 l -2.17961,12.92219 -6.8452,-0.99309 c -3.76485,-0.5462 -12.12302,-1.53321 -18.57371,-2.19334 -13.38172,-1.36943 -13.19184,-0.9572 -8.8754,-19.26663 7.64833,-32.442768 27.80077,-55.331672 58.28661,-66.201255 15.8151,-5.638798 53.26342,-7.118703 70.21955,-2.774978 19.81582,5.076306 31.22816,11.324708 43.8938,24.032434 24.5068,24.58821 31.59249,58.249839 19.35698,91.958319 -9.63325,26.53929 -30.89598,50.38432 -93.27576,104.60387 -34.31549,29.82651 -56.29682,52.07913 -56.29682,56.99163 0,0.67875 35.04478,1.23408 77.87727,1.23408 h 77.87727 V 342.58568 360.413 H 193.73797 89.58885 Z"> </path>
</g>
</svg>
</g>
</svg>

</svg> 

<!--3-->
<svg x="62%" y="23%">

<svg width="18%" height="24%">
<rect class="box"/>
</svg>

<svg width="18%" height="24%">
<g transform="scale(1, 1)">
<svg>
<line class="line" x1="50%" y1="25%" x2="50%" y2="55%"/>
</svg>
</g>
</svg>

<svg class="button" x="4.5%" y="0%" width="9%" height="12%">
<g transform="scale(1, 1)">
<svg class="btnCoff">
<circle class="circle" cx="50%" cy="50%" r="40%"/>
</svg>
<svg x="18%" y="14%" viewBox="0 0 400 400">
<g transform='scale(0.65 0.65)' class="btnToff">
<path d="m 173.83716,359.45692 c -18.66018,-2.9667 -40.72659,-15.27459 -54.14712,-30.20144 -12.54222,-13.94997 -23.357256,-37.46217 -23.357256,-50.77931 0,-4.35004 1.69981,-4.85216 24.912116,-7.35898 l 11.07205,-1.19575 4.20831,13.47979 c 9.9409,31.84202 28.45628,46.88499 57.61067,46.80621 18.87657,-0.0509 30.75866,-4.4471 43.50372,-16.09538 12.13935,-11.09468 18.27787,-22.34007 21.12761,-38.70447 5.15035,-29.57556 -10.10458,-57.9459 -36.54341,-67.96155 -9.19277,-3.48242 -13.13951,-3.88251 -30.53819,-3.09563 l -19.981,0.90367 1.1639,-9.47298 c 2.47018,-20.10455 1.22861,-18.63983 17.85405,-21.06302 24.52854,-3.57506 42.00178,-13.6186 50.067,-28.77829 5.8138,-10.92782 5.80462,-35.68077 -0.0173,-46.625834 -9.49327,-17.847159 -29.24664,-27.706407 -52.21785,-26.062824 -25.94334,1.856235 -45.58888,20.568374 -50.80921,48.395168 -0.67414,3.59344 -2.17129,6.53523 -3.327,6.53729 -5.47229,0.009 -34.39481,-6.07992 -34.39481,-7.24191 0,-4.29405 6.71947,-22.935104 11.56967,-32.096404 11.06272,-20.895821 33.65768,-38.236081 56.75931,-43.559326 12.11645,-2.791958 38.2133,-2.39756 50.33891,0.760762 39.4862,10.284847 64.13386,39.653402 64.21488,76.514248 0.0551,25.09015 -12.34555,46.7623 -33.75292,58.98855 l -9.00459,5.14273 11.10661,4.04967 c 28.16696,10.2702 45.00697,33.86408 47.4156,66.43221 3.46337,46.82958 -29.08593,89.37712 -77.01763,100.67534 -10.80422,2.54672 -36.47932,3.40987 -47.81614,1.60746 z"> </path>
</g>
</svg>
</g>
</svg>

</svg>


<!--4-->
<svg x="46%" y="4%">

<svg width="18%" height="24%">
<rect class="box"/>
</svg>

<svg width="18%" height="24%">
<g transform="scale(1, 1)">
<svg>
<line class="line" x1="75%" y1="50%" x2="35%" y2="50%"/>
</svg>
</g>
</svg>

<svg class="button" x="9%" y="6%" width="9%" height="12%">
<g transform="scale(1, 1)">
<svg class="btnCoff">
<circle class="circle" cx="50%" cy="50%" r="40%"/>
</svg>
<svg x="17%" y="14%" viewBox="0 0 400 400">
<g transform='scale(0.65 0.65)' class="btnToff">
<path d="M 225.63619,322.89833 V 285.38365 H 157.1719 88.707623 l 0.0428,-18.2884 0.0428,-18.28841 L 161.153,146.11042 233.51278,43.414 h 14.81901 14.81901 v 103.16535 103.16536 h 21.57094 21.57094 v 17.81947 17.81947 H 284.72174 263.1508 v 37.51468 37.51467 h -18.75734 -18.75733 z m 0,-145.74451 c 0,-40.17103 -0.71425,-71.79506 -1.59928,-70.80895 -0.8796,0.98006 -20.84734,29.63659 -44.37274,63.68115 -23.52541,34.04458 -45.6678,65.9086 -49.20529,70.80896 l -6.43183,8.90973 h 50.80457 50.80457 z"> </path>
</g>
</svg>
</g>
</svg>

</svg>


<!--5-->
<svg x="40%" y="56%">

<svg width="18%" height="24%">
<rect class="box"/>
</svg>

<svg width="18%" height="24%">
<g transform="scale(1, 1)">
<svg>
<line class="line" x1="25%" y1="75%" x2="55%" y2="45%"/>
</svg>
</g>
</svg>

<svg class="button" x="0%" y="12%" width="9%" height="12%">
<g transform="scale(1, 1)">
<svg class="btnCoff">
<circle class="circle" cx="50%" cy="50%" r="40%"/>
</svg>
<svg x="17%" y="16%" viewBox="0 0 400 400">
<g transform='scale(0.65 0.65)' class="btnToff">
<path d="m 168.94319,357.50038 c -36.2159,-7.8427 -64.36078,-35.59431 -71.68144,-70.67989 -1.42482,-6.82864 -1.59203,-11.38468 -0.45645,-12.43693 0.98565,-0.91329 9.8143,-2.21966 19.61924,-2.90303 l 17.82716,-1.24248 2.32857,9.80273 c 4.89951,20.62576 18.05941,37.54708 34.99137,44.99271 12.37523,5.44186 33.42823,5.8781 47.57322,0.98575 20.31323,-7.02576 38.98274,-30.76157 43.58285,-55.40981 7.21847,-38.67801 -7.21922,-72.1779 -37.13926,-86.17451 -9.34397,-4.37112 -13.05416,-5.00017 -29.54284,-5.00896 -17.75081,-0.009 -19.59598,0.36511 -31.45832,6.38612 -6.93081,3.51789 -16.04953,10.13686 -20.26382,14.70884 l -7.66235,8.31267 -13.1038,-1.31597 c -7.20709,-0.72378 -14.97323,-1.85579 -17.25809,-2.51556 l -4.15428,-1.1996 15.07987,-80.19424 15.07988,-80.194223 h 78.34767 78.34768 v 17.82094 17.820939 h -63.50637 -63.50637 l -8.54021,42.676464 c -4.69711,23.47205 -8.29803,42.92708 -8.00205,43.23343 0.29599,0.30632 5.9152,-2.37331 12.48713,-5.95476 19.0005,-10.35454 30.96785,-13.01726 54.01241,-12.01769 27.57288,1.19598 44.85965,8.85699 64.09288,28.40418 30.29589,30.79042 36.80496,83.52891 15.62201,126.57444 -22.03333,44.77354 -70.69674,66.79346 -122.71629,55.52844 z"> </path>
</g>
</svg>
</g>
</svg>

</svg>


<!--6-->
<svg x="57%" y="45%">

<svg width="18%" height="24%">
<rect class="box"/>
</svg>

<svg width="18%" height="24%">
<g transform="scale(1, 1)">
<svg>
<line class="line" x1="25%" y1="25%" x2="55%" y2="55%"/>
</svg>
</g>
</svg>

<svg class="button" x="0%" y="0%" width="9%" height="12%">
<g transform="scale(1, 1)">
<svg class="btnCoff">
<circle class="circle" cx="50%" cy="50%" r="40%"/>
</svg>
<svg x="17%" y="16%" viewBox="0 0 400 400">
<g transform='scale(0.65 0.65)' class="btnToff">
<path d="M 175.74827,357.67012 C 142.20336,349.55065 114.73048,321.82093 103.73678,284.98535 94.986776,255.66754 92.383876,195.43915 98.168426,156.13951 108.93161,83.015553 146.47661,43.413998 205.03996,43.413998 c 28.92539,0 48.94394,7.634731 65.26368,24.890453 10.66124,11.272692 17.65882,24.334472 21.224,39.616999 2.36744,10.14833 2.3268,11.11238 -0.47419,11.24645 -1.68497,0.0806 -9.90685,0.71581 -18.27085,1.41148 l -15.20727,1.26484 -3.75124,-11.2725 c -8.23361,-24.741997 -25.69318,-37.615031 -51.05373,-37.642165 -29.2521,-0.03132 -54.43881,24.307968 -64.93809,62.753175 -3.79722,13.90426 -8.51143,56.71617 -6.47006,58.75755 0.60746,0.60746 2.28845,-0.55389 3.73553,-2.58077 6.76774,-9.47946 21.10372,-22.05107 30.70913,-26.92968 26.85579,-13.64012 54.21117,-14.30462 80.69121,-1.9601 14.61323,6.81243 35.33077,27.93071 42.5636,43.3869 24.0215,51.33277 3.65329,120.67674 -42.28341,143.95462 -19.53429,9.89877 -48.24689,12.87347 -71.03,7.35887 z m 49.00532,-32.22828 c 16.55359,-8.27804 28.82455,-23.88085 33.99036,-43.21955 3.35354,-12.55426 3.1571,-38.56899 -0.3839,-50.8385 -3.88745,-13.46998 -14.09248,-28.06589 -24.39327,-34.88884 -23.64225,-15.65998 -57.87381,-12.14364 -77.46254,7.95711 -12.72781,13.0605 -17.5936,25.10471 -18.46538,45.70711 -1.7053,40.29993 17.66026,70.86044 50.26078,79.31587 9.11219,2.3634 27.79648,0.2962 36.45395,-4.0332 z"> </path>
</g>
</svg>
</g>
</svg>

</svg>


<!--7-->
<svg x="77%" y="27%">

<svg width="18%" height="24%">
<rect class="box"/>
</svg>

<svg width="18%" height="24%">
<g transform="scale(1, 1)">
<svg>
<line class="line" x1="75%" y1="25%" x2="45%" y2="55%"/>
</svg>
</g>
</svg>

<svg class="button" x="9%" y="0%" width="9%" height="12%">
<g transform="scale(1, 1)">
<svg class="btnCoff">
<circle class="circle" cx="50%" cy="50%" r="40%"/>
</svg>
<svg x="18%" y="19%" viewBox="0 0 400 400">
<g transform='scale(0.63 0.63)' class="btnToff">
<path d="m 140.98091,351.34224 c 0.0168,-13.58986 4.97377,-43.867 11.57509,-70.70154 15.97709,-64.94729 46.39458,-128.96012 86.18299,-181.369964 L 253.59895,79.69701 H 174.36871 95.138484 V 61.555505 43.413996 H 199.21345 303.28843 v 14.364911 c 0,13.999171 -0.18734,14.570462 -7.36051,22.438187 -21.44234,23.518736 -48.59975,66.365736 -68.98288,108.836196 -27.15358,56.57743 -38.83097,96.98804 -46.89641,162.28895 l -1.12034,9.07076 h -18.97931 -18.97932 l 0.0112,-9.07076 z"> </path>
</g>
</svg>
</g>
</svg>

</svg>


<!--8-->
<svg x="82%" y="54%">

<svg width="18%" height="24%">
<rect class="box"/>
</svg>

<svg width="18%" height="24%">
<g transform="scale(1, 1)">
<svg>
<line class="line" x1="50%" y1="25%" x2="58%" y2="62%"/>
</svg>
</g>
</svg>

<svg class="button" x="4.5%" y="0%" width="9%" height="12%">
<g transform="scale(1, 1)">
<svg class="btnCoff">
<circle class="circle" cx="50%" cy="50%" r="40%"/>
</svg>
<svg x="17%" y="17%" viewBox="0 0 400 400">
<g transform='scale(0.65 0.65)' class="btnToff">
<path d="m 173.4216,357.85439 c -27.63349,-5.99601 -54.31184,-25.96967 -65.53331,-49.06377 -16.39434,-33.73997 -11.85335,-74.95142 10.94425,-99.32391 7.88321,-8.42778 27.42723,-20.39198 33.31117,-20.39198 5.9722,0 3.5309,-3.69646 -5.29228,-8.01324 -12.81432,-6.26945 -24.7581,-18.24441 -30.66046,-30.74043 -6.58446,-13.94015 -6.75386,-39.73309 -0.36777,-55.996616 8.07932,-20.57572 25.26277,-37.015714 47.69133,-45.627939 13.08974,-5.026254 44.20637,-6.92879 59.93125,-3.66432 25.11933,5.21475 47.56127,22.510469 58.74514,45.274139 5.9894,12.190856 6.32754,13.916606 6.32754,32.294726 0,17.49562 -0.50732,20.44867 -5.12985,29.86168 -5.90103,12.01641 -15.6452,21.53503 -28.94404,28.27407 -5.11134,2.59011 -9.29333,4.99651 -9.29333,5.34757 0,0.35106 5.26669,3.23107 11.70374,6.40001 29.55607,14.55042 45.50407,40.72397 45.50407,74.6804 0,44.39145 -30.60028,81.3791 -75.13257,90.81538 -15.53004,3.29077 -38.30456,3.23755 -53.80488,-0.12586 z m 55.88163,-32.86153 c 12.53903,-5.78235 24.37317,-17.69279 30.24784,-30.44282 4.02209,-8.72933 4.82246,-13.15937 4.89285,-27.08193 0.0766,-15.14942 -0.45648,-17.74381 -5.93131,-28.86667 -7.02578,-14.27385 -17.07083,-24.04705 -31.59403,-30.73898 -8.66934,-3.99461 -13.09671,-4.78931 -26.97996,-4.84284 -14.14303,-0.0545 -18.14843,0.65493 -26.97997,4.77881 -14.04218,6.55699 -24.47622,16.42104 -30.63424,28.96079 -4.57113,9.3083 -5.12985,12.45597 -5.12985,28.90016 0,16.01305 0.63228,19.79674 4.77992,28.60391 8.847,18.78589 20.27127,28.40134 40.47745,34.06862 13.76846,3.86167 34.42967,2.38917 46.8513,-3.33905 z M 215.95183,170.5606 c 11.65129,-3.23609 23.78493,-12.90241 29.86709,-23.79377 4.62031,-8.2736 5.59929,-12.12077 5.6352,-22.14495 0.0562,-15.67283 -3.16532,-24.653049 -12.46166,-34.738376 -11.99014,-13.00777 -19.53135,-16.12063 -39.05384,-16.12063 -19.01967,0 -26.5436,2.96248 -38.20223,15.04182 -8.89597,9.216987 -12.72887,18.768996 -12.79158,31.877916 -0.0774,16.18537 2.99158,24.66731 12.75305,35.24632 13.17907,14.28285 34.65599,20.07493 54.25397,14.63167 z"> </path>
</g>
</svg>
</g>
</svg>

</svg>


</svg>