<svg xmlns="http://www.w3.org/2000/svg" viewBox="0 0 512 384">
<rect y="0" x="0" height="384" width="512" style="fill:none;" />
<path style="fill:#000000;" d="M 67.971454,398.91137 V 382.6907 L 79.2371,367.68658 c 7.37496,-9.82232 16.37135,-24.81279 26.04951,-43.40559 18.4703,-35.48349 34.23805,-55.95688 61.75742,-80.18787 23.84713,-20.99757 32.47997,-32.04036 41.20204,-52.70403 3.7943,-8.98917 8.1775,-18.0736 9.7405,-20.18764 l 2.84176,-3.8437 -9.74862,-20.61125 c -5.84237,-12.35241 -10.02252,-23.20509 -10.43222,-27.08456 -0.85683,-8.11353 1.44377,-6.50791 5.32479,3.71625 1.47659,3.88993 3.54079,7.07258 4.58713,7.07258 1.04635,0 3.2151,-3.83775 4.81944,-8.52833 3.79964,-11.10893 7.30937,-12.77376 5.91052,-2.80362 -0.54142,3.85903 -1.9565,10.47149 -3.14461,14.69435 -2.14189,7.61291 -2.12264,7.75815 2.27233,17.14997 2.87427,6.14219 4.92476,8.97979 5.83275,8.07179 3.41763,-3.41763 22.04837,-47.62708 22.11644,-52.4808 0.0494,-3.52083 -1.59047,-7.926647 -5.08647,-13.66586 -5.99299,-9.8384 -9.87961,-20.628028 -9.87961,-27.426745 0,-6.858277 2.55618,-5.888165 4.46559,1.694762 0.89649,3.560325 2.46019,6.473304 3.47489,6.473304 1.0147,0 3.29593,-2.427485 5.06941,-5.394415 4.29532,-7.185912 5.31754,-3.812172 2.08239,6.87284 -2.95058,9.745074 -2.22787,14.036355 3.43037,20.36902 L 256,100.04018 l 6.57627,-3.853958 c 9.96405,-5.839324 12.01449,-9.32402 13.91091,-23.641165 1.76414,-13.318696 7.64578,-27.685681 11.33412,-27.685681 1.40562,0 1.73668,0.980358 1.09302,3.236649 -3.23852,11.352192 -6.65876,27.397579 -5.98393,28.072418 0.44002,0.440018 2.10264,-0.378803 3.6947,-1.819596 1.59206,-1.440793 3.3058,-2.208491 3.80832,-1.705971 1.42333,1.423334 -8.49846,12.766582 -21.87503,25.008965 -9.78135,8.951979 -12.7374,12.645819 -15.03554,18.788129 -1.57329,4.20497 -2.86052,8.26847 -2.86052,9.02998 0,2.76381 4.93884,1.25186 17.43803,-5.33843 7.01297,-3.69763 13.24081,-6.21162 13.83966,-5.58665 1.49172,1.5568 -4.35799,5.8338 -20.87806,15.26499 l -13.99591,7.99016 -12.24295,24.37633 c -12.52592,24.93969 -18.59546,40.04977 -16.80621,41.83901 2.91252,2.91253 30.95636,-14.25274 36.17902,-22.14471 3.76842,-5.69444 15.47596,-35.09021 17.3208,-43.48974 0.62056,-2.8254 2.10821,-4.96538 3.75028,-5.39479 1.49696,-0.39146 5.10833,-4.64051 8.02526,-9.44232 4.41783,-7.27253 5.54614,-10.81963 6.75615,-21.23953 1.13825,-9.801964 2.05373,-12.884366 4.23043,-14.243738 2.67297,-1.669297 2.73952,-1.37707 1.76309,7.740752 -0.55811,5.211546 -0.59386,9.475546 -0.0795,9.475546 0.51441,0 4.08597,-2.65669 7.93679,-5.90376 11.80423,-9.953451 10.70616,-5.610547 -2.21027,8.74181 -11.18767,12.43142 -17.21929,22.81775 -14.7088,25.32826 1.0238,1.0238 8.94684,-2.93815 15.12545,-7.56357 4.85681,-3.63586 6.9669,-7.586 12.54254,-23.47976 4.74983,-13.539752 6.70002,-17.262133 9.04374,-17.262133 1.31252,0 1.75613,0.846029 1.20148,2.291406 -2.89869,7.553883 -2.66828,8.988552 1.52152,9.473682 l 4.08475,0.472973 -6.16954,4.003862 c -5.98273,3.88263 -8.28615,7.5364 -9.93855,15.76495 -0.68619,3.41701 -0.33474,3.9559 2.57993,3.9559 1.8559,0 6.71016,-0.77555 10.78724,-1.72343 l 7.41289,-1.72343 0.83653,-8.95808 c 0.85907,-9.199727 5.0684,-21.374133 6.28003,-18.163418 1.02385,2.713075 5.95713,2.161896 10.66693,-1.191774 6.86115,-4.885565 8.02852,-2.307576 1.38972,3.069038 -3.36545,2.725607 -7.71795,6.250319 -9.67219,7.832684 -3.04791,2.46792 -3.6726,4.45755 -4.39301,13.99193 -0.718,9.50248 -0.49494,11.24725 1.53769,12.02725 4.67559,1.7942 28.25754,-19.49482 36.34887,-32.814598 4.70887,-7.751631 7.71613,-9.55525 7.71613,-4.627777 0,2.579289 0.33108,2.574192 6.74037,-0.103772 2.8652,-1.197156 5.59454,-1.791555 6.06521,-1.320896 1.10161,1.101617 -3.17257,4.282079 -11.49656,8.554703 -6.3606,3.264814 -15.69413,12.26409 -15.69413,15.13204 0,2.62309 13.39099,1.07951 32.16408,-3.70756 3.95955,-1.00967 4.07824,-0.89 3.17885,3.20487 -0.7962,3.6251 -0.38429,4.50429 2.78749,5.94945 2.04697,0.93266 4.6623,1.69574 5.81184,1.69574 1.14954,0 2.09009,0.64734 2.09009,1.43852 0,2.47298 -6.7974,1.57462 -12.19868,-1.6122 -4.14472,-2.44545 -6.6583,-2.89494 -12.66919,-2.2656 -13.85149,1.45024 -27.12128,3.88521 -30.2689,5.55423 -9.50963,5.04246 -36.03868,29.04228 -35.12681,31.77786 0.29506,0.88517 2.11434,2.05677 4.04283,2.60356 1.9285,0.54678 6.13896,1.78454 9.35655,2.75058 5.74335,1.72437 6.1636,1.59366 23.01617,-7.15844 9.4413,-4.90317 19.45895,-11.11729 22.26144,-13.80913 6.12726,-5.88535 7.76134,-6.15947 6.48861,-1.08848 l -0.95519,3.80579 7.99179,-0.82483 c 12.39317,-1.27909 9.43724,1.30323 -5.42234,4.73696 -18.89362,4.36592 -18.97942,4.47476 -9.93313,12.59749 11.92207,10.70492 9.75788,12.23713 -4.53476,3.21051 -5.011,-3.16472 -10.08647,-5.75405 -11.27884,-5.75405 -2.53109,0 -9.7485,5.36789 -9.7485,7.25037 0,0.70813 3.72215,4.01484 8.27144,7.34825 4.54929,3.33342 11.91753,8.8399 16.37387,12.23662 4.45633,3.39671 11.19944,7.32574 14.98469,8.73117 8.35847,3.10344 10.8016,6.7898 2.89084,4.3619 -2.81439,-0.86375 -5.57237,-1.11521 -6.1288,-0.55878 -0.55643,0.55644 0.15746,4.06335 1.58641,7.79316 3.86989,10.10099 4.23072,11.81625 2.48572,11.81625 -0.87352,0 -3.79818,-4.3884 -6.49924,-9.75201 -3.96726,-7.87793 -6.91947,-11.3522 -15.36193,-18.07851 -5.74798,-4.57956 -13.41793,-9.82406 -17.04432,-11.65446 -7.76434,-3.91897 -33.39159,-12.3014 -37.60856,-12.3014 -3.65755,0 -38.99004,20.58202 -44.09358,25.68555 -1.97483,1.97484 -1.883,2.45739 0.89595,4.70764 9.10431,7.37222 30.67429,6.19207 44.91268,-2.45729 6.75278,-4.10211 9.38995,-5.0261 11.1594,-3.90994 3.06512,1.9334 2.77445,3.91049 -0.66228,4.50495 -1.52611,0.26396 -6.65872,2.33216 -11.4058,4.59601 -4.74708,2.26384 -10.41122,4.78299 -12.58696,5.59812 -5.42898,2.03393 -4.95754,4.11201 1.1947,5.26617 3.86905,0.72584 7.71678,-0.0221 15.46399,-3.00643 8.55914,-3.29697 11.84119,-5.59119 19.29564,-13.48805 8.9945,-9.52832 11.64455,-9.81979 5.98221,-0.65794 -3.75203,6.07092 -2.75763,9.12398 2.97178,9.12398 4.06643,0 6.50817,2.80158 2.56253,2.94018 -15.02894,0.52799 -35.60314,6.19922 -35.60314,9.81398 0,1.64194 6.84567,4.03694 15.24699,5.33424 4.12467,0.63693 7.25874,0.20619 10.4292,-1.43331 5.35608,-2.76974 6.19584,-0.49457 1.29588,3.51098 -4.13019,3.37633 -2.76567,4.80682 8.17615,8.57136 5.48979,1.88877 12.16424,2.90981 19.02113,2.90981 11.27085,0 14.6768,2.41399 4.44996,3.15393 -3.97794,0.28782 -6.11367,1.12559 -6.11367,2.39818 0,1.07572 5.06856,5.0239 11.26347,8.77374 11.7491,7.11187 20.9297,15.0972 19.2677,16.75918 -0.53268,0.5327 -4.44326,-1.71222 -8.69018,-4.98868 -4.2469,-3.27647 -8.45075,-5.95721 -9.34188,-5.95721 -1.14023,0 -1.35731,3.40929 -0.73279,11.50809 0.64381,8.34878 0.42423,11.50809 -0.79988,11.50809 -2.50572,0 -4.31615,-5.93984 -5.55016,-18.2096 l -1.10075,-10.94481 -7.54513,-4.25831 c -8.08507,-4.56302 -50.73846,-21.25069 -54.3164,-21.25069 -1.48228,0 -2.15219,1.49998 -2.15219,4.81895 0,5.79192 5.19078,13.40617 15.34778,22.51336 5.97818,5.36028 9.36241,7.05828 19.69151,9.87999 18.37453,5.01956 18.59381,8.17047 0.26403,3.79408 -4.71419,-1.12556 -8.78763,-1.83009 -9.05209,-1.56562 -0.26445,0.26445 0.94492,5.32693 2.68749,11.24995 1.83751,6.24566 2.72901,11.90973 2.12244,13.48458 -1.0114,2.62583 -1.09722,2.62049 -2.59984,-0.16157 -2.24913,-4.16416 -2.28733,-4.1816 -4.7259,-2.15775 -3.13015,2.59777 -4.3745,0.69445 -2.39143,-3.6579 2.38074,-5.22516 2.0679,-12.37635 -0.7227,-16.5208 -1.31717,-1.95621 -6.79898,-8.4927 -12.18179,-14.52554 -6.41501,-7.1897 -11.47645,-14.67625 -14.69076,-21.72958 l -4.90383,-10.76077 -11.05627,-4.60273 c -16.77314,-6.98267 -28.79679,-9.61867 -34.48756,-7.56085 -2.55313,0.92322 -5.53623,1.67858 -6.62911,1.67858 -3.51365,0 -40.01036,21.54515 -43.05637,25.41751 -4.5182,5.74398 -3.78039,8.4003 2.88819,10.39824 10.49855,3.14546 27.8325,5.65493 51.5073,7.45684 l 23.27646,1.7716 5.118,-5.97921 c 6.43924,-7.52281 11.41019,-8.41702 5.78379,-1.04042 -2.07185,2.71634 -3.76701,5.25973 -3.76701,5.65197 0,0.39223 3.56032,1.74817 7.91181,3.01318 8.01137,2.32897 11.54514,6.31888 3.9559,4.46654 -2.17575,-0.53106 -11.39005,-1.34111 -20.47622,-1.80013 -19.16062,-0.96796 -19.17165,-0.92872 -2.94071,10.46806 5.53518,3.88662 10.07449,7.89236 10.08735,8.90165 0.0334,2.62373 -6.40965,-0.93653 -20.20288,-11.16359 -7.97793,-5.91526 -13.4782,-8.85566 -18.63343,-9.96126 -8.8619,-1.90054 -18.68077,-2.04623 -18.68077,-0.2772 0,0.7103 3.5471,5.82479 7.88246,11.36557 9.50635,12.14952 14.26636,14.7119 37.09236,19.96724 l 16.73041,3.85193 7.52874,-5.27043 c 8.56766,-5.99771 10.86726,-5.83985 4.94696,0.33961 -3.97387,4.14782 -3.98678,7.29444 -0.0299,7.29444 4.60739,0 29.13407,8.80588 31.35165,11.25626 4.86156,5.37198 1.88145,5.02538 -14.16575,-1.64752 -11.0927,-4.61268 -19.41137,-6.25788 -19.41137,-3.83904 0,0.97592 5.29004,7.19408 11.75564,13.81815 6.4656,6.62408 11.41053,12.38888 10.98873,12.81069 -0.76178,0.76178 -8.10064,-5.38269 -25.18599,-21.08698 -7.55648,-6.94567 -10.18682,-8.4481 -17.26212,-9.85989 -4.59097,-0.91608 -13.0832,-2.97717 -18.87163,-4.5802 -5.78843,-1.60302 -10.87847,-2.56056 -11.31119,-2.12783 -0.43273,0.43275 1.62923,5.67642 4.58215,11.65264 5.62492,11.38397 7.7008,12.75022 12.68465,8.34845 2.78284,-2.45782 2.8295,-2.40973 1.97247,2.0323 -1.01567,5.26408 0.15423,6.53921 8.35037,9.10163 7.28997,2.27911 19.4199,8.72057 19.4199,10.31272 0,1.55995 -3.92441,1.58326 -4.55529,0.027 -0.26372,-0.65055 -6.7577,-3.33403 -14.43108,-5.96329 -7.67337,-2.62925 -16.19169,-6.62696 -18.92962,-8.8838 -2.87155,-2.36697 -7.54107,-9.12649 -11.03495,-15.97398 -7.15605,-14.02485 -10.3478,-18.45627 -22.80245,-31.65887 -12.5802,-13.33568 -14.52532,-14.19513 -31.16495,-13.7703 l -13.67509,0.34913 -15.39039,12.28916 c -25.71806,20.53575 -31.36642,28.67808 -52.71732,75.99397 -7.84966,17.39568 -39.1016,66.56293 -49.98292,78.63582 -0.691242,0.76695 -1.231706,-5.75094 -1.231706,-14.85409 z M 278.16164,176.10118 c 31.76505,-17.92882 34.74227,-19.9469 45.04379,-30.53271 9.29189,-9.54829 10.75216,-11.77437 11.64959,-17.75881 0.56432,-3.76316 0.70028,-7.16787 0.30213,-7.56602 -0.39813,-0.39814 -3.08632,0.87927 -5.97372,2.83872 -2.88739,1.95944 -9.7146,4.57812 -15.17159,5.81928 -11.57044,2.63164 -33.74791,14.18753 -37.83728,19.71565 -2.96439,4.00735 -11.26664,29.99215 -10.16717,31.82172 1.03315,1.71923 2.09279,1.34105 12.15425,-4.33783 z" />
</svg>
