<svg xmlns="http://www.w3.org/2000/svg" viewBox="0 0 512 384">
<rect y="0" x="0" height="384" width="512" style="fill:none;" />
<path style="fill:#808080;" d="m -231.38843,395.33612 c -19.30494,-5.73154 -25.03207,-8.80443 -39.59115,-21.24266 -14.86497,-12.69954 -32.26455,-21.32487 -49.11145,-24.34555 -14.7805,-2.65017 -23.03922,-1.76948 -51.26619,5.46696 -18.26835,4.6834 -22.5092,5.02575 -51.45408,4.15388 -35.1609,-1.05912 -54.89444,-4.73305 -73.91877,-13.76197 -22.45495,-10.65709 -35.31163,-25.51981 -35.31163,-40.82137 0,-14.35532 18.86869,-33.47805 41.89613,-42.46019 16.54021,-6.45172 41.99924,-9.41963 80.94997,-9.43678 42.14014,-0.0182 66.32732,-2.24017 88.85291,-8.16114 9.43288,-2.47948 27.30319,-4.71227 46.58031,-5.81992 36.35365,-2.08887 44.31548,-4.51329 63.85387,-19.44388 27.32804,-20.88317 22.28492,-19.11951 52.99907,-18.53469 25.63362,0.48807 27.96176,0.21178 35.73101,-4.24062 4.72988,-2.71059 10.38107,-8.33808 13.11574,-13.06074 11.84754,-20.46008 36.047182,-36.22494 55.606674,-36.22494 20.362477,0 42.356057,15.69131 53.8863136,38.44518 11.0514274,21.80894 20.7436084,28.5899 49.7127214,34.78059 21.18301,4.52684 25.60831,6.64531 40.31771,19.30091 6.10386,5.25163 14.019821,10.77358 17.591001,12.27101 9.43609,3.95665 22.87334,3.34039 33.94405,-1.55672 19.56004,-8.65232 47.54699,-2.41353 65.9777,14.70764 14.87773,13.82067 31.40009,19.74092 55.61352,19.92737 6.3267,0.0486 14.81098,1.27032 18.85398,2.7147 8.35862,2.98619 25.94292,16.67472 25.94292,20.19538 0,1.28392 -3.9067,6.77409 -8.68156,12.20034 l -8.68155,9.86593 -36.66568,2.59163 c -38.04373,2.68905 -54.99961,5.04071 -71.94594,9.9783 -13.86391,4.03949 -25.62478,3.62581 -43.39235,-1.52627 -10.9745,-3.18226 -20.9311,-4.45776 -35.44035,-4.54006 -23.263391,-0.13197 -32.058911,2.07743 -47.232691,11.86462 -11.5781,7.46792 -21.77707,9.8948 -41.550828,9.88712 -24.1944734,-0.01 -34.4612,-2.43623 -47.69631,-11.27429 -9.460988,-6.31781 -14.866553,-8.49028 -22.715705,-9.1294 -9.704119,-0.79015 -11.069529,-0.2728 -23.59091,8.93845 -19.401176,14.27229 -82.179156,44.42785 -99.706576,47.8943 -26.29589,5.20063 -37.02375,5.28026 -53.47188,0.39688 z" />
<path style="opacity:1;fill:#000000;" d="m 348.1881,290.13872 c -4.47958,-8.78076 -21.11263,-25.41669 -33.76107,-33.767 -12.47168,-8.2336 -24.18704,-11.51403 -47.93862,-13.42328 l -21.84303,-1.75585 -9.74943,-9.11947 c -25.19381,-23.56584 -68.95289,-34.01958 -98.99587,-23.64942 -12.15461,4.1955 -11.91761,4.25749 -24.13292,-6.31382 l -8.56498,-7.41227 4.04877,-16.01066 c 14.53042,-57.46 60.62989,-97.938038 119.93189,-105.307162 59.02437,-7.334651 116.90778,24.160389 142.66548,77.625952 13.68002,28.39577 17.48821,58.75438 11.13697,88.7835 -3.2135,15.19364 -15.67206,42.67533 -23.74647,52.38109 l -4.96783,5.97151 z" />
</svg>
