<svg xmlns="http://www.w3.org/2000/svg" viewBox="0 0 1024 768">

<style>
.line { stroke-linecap: round; stroke-width: 11px; stroke: red; } 
.box { stroke-width:0; stroke:green; height: 100%; width: 100%; fill: none; } 
.circle { stroke: red; stroke-width: 11px; } 
.button { width: 9%; height: 12%; } 
.btnCoff { fill: white; } 
.btnCon { fill: red; } 
.btnToff { fill: black; } 
.btnTon { fill: white; } 
</style> 

<rect width="1024" height="768" fill="none"/>
<path d="m307.8 699.6c-0.2-0.6-1.3-8.7-1.5-11.5-0.6-6.8 0.1-15 2-24.7 1.8-9.3 5.8-21.8 11.4-35.5 0.7-1.6 1.4-3.8 1.6-4.9 1-5.5 1.6-17.1 1.4-27.9-0.3-13.3-1.8-34.2-2.9-39.1-0.4-2-1.5-1.2-3.1 2.4-3.3 7.2-4.6 13.2-5.4 26-0.7 11-1.7 16.1-3 16.5-0.3 0.1-4.6-6.5-16.3-24.8l-9.6-15.2 0.4-2.1c1.4-6.7 1.6-10 2.2-39 0.4-18.8 0.8-27.9 1.5-31 1.1-5.2 3.9-11.7 6.4-15.1 3.9-5.1 10.3-9.7 16.5-11.8 2.4-0.8 4.6-1.2 13.5-2.7 8.5-1.4 11.6-2.2 17.4-4.7 6.1-2.6 9.4-4.6 11-6.4 1.2-1.4 3.1-5.2 3.7-7.6 0.9-3.6 0.9-10.8-0.1-14.2-0.2-0.6-0.8-1.8-1.4-2.7-0.6-0.9-1.5-2.2-2-2.9-1.1-1.7-2.7-5.1-3.3-6.9-0.2-0.7-0.4-1.5-0.5-1.6-0.1-0.2 6.8-0.3 33.9-0.3h34v0.5c0 1.7-2.7 7.3-4.6 9.8-2.8 3.7-3.1 4.5-3.1 11.6 0 4.5 0 5 0.6 7 1.5 5.5 4 8.6 8.9 11.2 5.9 3.1 12.7 5 25.9 7.2 9.8 1.6 13.1 2.6 17.3 5 4.1 2.4 9 6.8 11.1 10.1 3.1 4.6 5.6 11.9 6.1 17.3 0.4 4.2 0.8 15.4 1.3 39.4 0.2 8.5 0.5 17.3 0.8 20.1 0.2 2.1 1.2 7.8 1.5 8.9 0.1 0.2-0.8 1.8-2 3.7-14.8 23.4-21.2 33.3-22.9 35.7-0.9 1.2-0.9 1.2-1.3 0.8-1.1-1-2-6.2-2.6-16-0.7-11.2-1.6-16.2-3.8-22.3-1-2.7-2.4-5.6-3.1-6.6-0.6-0.8-1.4-1-1.6-0.4-0.6 2.1-1.7 12.8-2.5 25.8-0.8 12.1-1 33.7-0.3 39.5 0.3 2.3 1.1 4.8 3.9 11.8 6 14.9 10.6 32.1 11.4 42.8 0.3 3.7 0.3 11.5 0 15.2-0.3 3.6-1.1 8.9-1.5 9.4-0.3 0.4-3.9 0.4-73.7 0.5-61.3 0.1-73.4 0-73.5-0.2z" style="fill:#808080;"/>
<path d="m67.5 699.6c-0.2-0.6-1.3-8.7-1.5-11.5-0.6-6.8 0.1-15 2-24.7 1.8-9.3 5.8-21.8 11.4-35.5 0.7-1.6 1.4-3.8 1.6-4.9 1-5.5 1.6-17.1 1.4-27.9-0.3-13.3-1.8-34.2-2.9-39.1-0.4-2-1.5-1.2-3.1 2.4-3.3 7.2-4.6 13.2-5.4 26-0.7 11-1.7 16.1-3 16.5-0.3 0.1-4.6-6.5-16.3-24.8L42 560.9l0.4-2.1c1.4-6.7 1.6-10 2.2-39 0.4-18.8 0.8-27.9 1.5-31 1.1-5.2 3.9-11.7 6.4-15.1 3.9-5.1 10.3-9.7 16.5-11.8 2.4-0.8 4.6-1.2 13.5-2.7 8.5-1.4 11.6-2.2 17.4-4.7 6.1-2.6 9.4-4.6 11-6.4 1.2-1.4 3.1-5.2 3.7-7.6 0.9-3.6 0.9-10.8-0.1-14.2-0.2-0.6-0.8-1.8-1.4-2.7-0.6-0.9-1.5-2.2-2-2.9-1.1-1.7-2.7-5.1-3.3-6.9-0.2-0.7-0.4-1.5-0.5-1.6-0.1-0.2 6.8-0.3 33.9-0.3h34v0.5c0 1.7-2.7 7.3-4.6 9.8-2.8 3.7-3.1 4.5-3.1 11.6 0 4.5 0 5 0.6 7 1.5 5.5 4 8.6 8.9 11.2 5.9 3.1 12.7 5 25.9 7.2 9.8 1.6 13.1 2.6 17.3 5 4.1 2.4 9 6.8 11.1 10.1 3.1 4.6 5.6 11.9 6.1 17.3 0.4 4.2 0.8 15.4 1.3 39.4 0.2 8.5 0.5 17.3 0.8 20.1 0.2 2.1 1.2 7.8 1.5 8.9 0.1 0.2-0.8 1.8-2 3.7-14.8 23.4-21.2 33.3-22.9 35.7-0.9 1.2-0.9 1.2-1.3 0.8-1.1-1-2-6.2-2.6-16-0.7-11.2-1.6-16.2-3.8-22.3-1-2.7-2.4-5.6-3.1-6.6-0.6-0.8-1.4-1-1.6-0.4-0.6 2.1-1.7 12.8-2.5 25.8-0.8 12.1-1 33.7-0.3 39.5 0.3 2.3 1.1 4.8 3.9 11.8 6 14.9 10.6 32.1 11.4 42.8 0.3 3.7 0.3 11.5 0 15.2-0.3 3.6-1.1 8.9-1.5 9.4-0.3 0.4-3.9 0.4-73.7 0.5-61.3 0.1-73.4 0-73.5-0.2z" style="fill:#808080;"/>
<path d="m67.5 357.7c-0.2-0.6-1.3-8.7-1.5-11.5-0.6-6.8 0.1-15 2-24.7 1.8-9.3 5.8-21.8 11.4-35.5 0.7-1.6 1.4-3.8 1.6-4.9 1-5.5 1.6-17.1 1.4-27.9-0.3-13.3-1.8-34.2-2.9-39.1-0.4-2-1.5-1.2-3.1 2.4-3.3 7.2-4.6 13.2-5.4 26-0.7 11-1.7 16.1-3 16.5-0.3 0.1-4.6-6.5-16.3-24.8L42 219.1l0.4-2.1c1.4-6.7 1.6-10 2.2-39 0.4-18.8 0.8-27.9 1.5-31 1.1-5.2 3.9-11.7 6.4-15.1 3.9-5.1 10.3-9.7 16.5-11.8 2.4-0.8 4.6-1.2 13.5-2.7 8.5-1.4 11.6-2.2 17.4-4.7 6.1-2.6 9.4-4.6 11-6.4 1.2-1.4 3.1-5.2 3.7-7.6 0.9-3.6 0.9-10.8-0.1-14.2-0.2-0.6-0.8-1.8-1.4-2.7-0.6-0.9-1.5-2.2-2-2.9-1.1-1.7-2.7-5.1-3.3-6.9-0.2-0.7-0.4-1.5-0.5-1.6-0.1-0.2 6.8-0.3 33.9-0.3h34v0.5c0 1.7-2.7 7.3-4.6 9.8-2.8 3.7-3.1 4.5-3.1 11.6 0 4.5 0 5 0.6 7 1.5 5.5 4 8.6 8.9 11.2 5.9 3.1 12.7 5 25.9 7.2 9.8 1.6 13.1 2.6 17.3 5 4.1 2.4 9 6.8 11.1 10.1 3.1 4.6 5.6 11.9 6.1 17.3 0.4 4.2 0.8 15.4 1.3 39.4 0.2 8.5 0.5 17.3 0.8 20.1 0.2 2.1 1.2 7.8 1.5 8.9 0.1 0.2-0.8 1.8-2 3.7-14.8 23.4-21.2 33.3-22.9 35.7-0.9 1.2-0.9 1.2-1.3 0.8-1.1-1-2-6.2-2.6-16-0.7-11.2-1.6-16.2-3.8-22.3-1-2.7-2.4-5.6-3.1-6.6-0.6-0.8-1.4-1-1.6-0.4-0.6 2.1-1.7 12.8-2.5 25.8-0.8 12.1-1 33.7-0.3 39.5 0.3 2.3 1.1 4.8 3.9 11.8 6 14.9 10.6 32.1 11.4 42.8 0.3 3.7 0.3 11.5 0 15.2-0.3 3.6-1.1 8.9-1.5 9.4-0.3 0.4-3.9 0.4-73.7 0.5-61.3 0.1-73.4 0-73.5-0.2z" style="fill:#808080;"/>
<path d="m307.8 357.7c-0.2-0.6-1.3-8.7-1.5-11.5-0.6-6.8 0.1-15 2-24.7 1.8-9.3 5.8-21.8 11.4-35.5 0.7-1.6 1.4-3.8 1.6-4.9 1-5.5 1.6-17.1 1.4-27.9-0.3-13.3-1.8-34.2-2.9-39.1-0.4-2-1.5-1.2-3.1 2.4-3.3 7.2-4.6 13.2-5.4 26-0.7 11-1.7 16.1-3 16.5-0.3 0.1-4.6-6.5-16.3-24.8l-9.6-15.2 0.4-2.1c1.4-6.7 1.6-10 2.2-39 0.4-18.8 0.8-27.9 1.5-31 1.1-5.2 3.9-11.7 6.4-15.1 3.9-5.1 10.3-9.7 16.5-11.8 2.4-0.8 4.6-1.2 13.5-2.7 8.5-1.4 11.6-2.2 17.4-4.7 6.1-2.6 9.4-4.6 11-6.4 1.2-1.4 3.1-5.2 3.7-7.6 0.9-3.6 0.9-10.8-0.1-14.2-0.2-0.6-0.8-1.8-1.4-2.7-0.6-0.9-1.5-2.2-2-2.9-1.1-1.7-2.7-5.1-3.3-6.9-0.2-0.7-0.4-1.5-0.5-1.6-0.1-0.2 6.8-0.3 33.9-0.3h34v0.5c0 1.7-2.7 7.3-4.6 9.8-2.8 3.7-3.1 4.5-3.1 11.6 0 4.5 0 5 0.6 7 1.5 5.5 4 8.6 8.9 11.2 5.9 3.1 12.7 5 25.9 7.2 9.8 1.6 13.1 2.6 17.3 5 4.1 2.4 9 6.8 11.1 10.1 3.1 4.6 5.6 11.9 6.1 17.3 0.4 4.2 0.8 15.4 1.3 39.4 0.2 8.5 0.5 17.3 0.8 20.1 0.2 2.1 1.2 7.8 1.5 8.9 0.1 0.2-0.8 1.8-2 3.7-14.8 23.4-21.2 33.3-22.9 35.7-0.9 1.2-0.9 1.2-1.3 0.8-1.1-1-2-6.2-2.6-16-0.7-11.2-1.6-16.2-3.8-22.3-1-2.7-2.4-5.6-3.1-6.6-0.6-0.8-1.4-1-1.6-0.4-0.6 2.1-1.7 12.8-2.5 25.8-0.8 12.1-1 33.7-0.3 39.5 0.3 2.3 1.1 4.8 3.9 11.8 6 14.9 10.6 32.1 11.4 42.8 0.3 3.7 0.3 11.5 0 15.2-0.3 3.6-1.1 8.9-1.5 9.4-0.3 0.4-3.9 0.4-73.7 0.5-61.3 0.1-73.4 0-73.5-0.2z" style="fill:#808080;"/>
<path d="m558.4 357.7c-0.2-0.6-1.3-8.7-1.5-11.5-0.6-6.8 0.1-15 2-24.7 1.8-9.3 5.8-21.8 11.4-35.5 0.7-1.6 1.4-3.8 1.6-4.9 1-5.5 1.6-17.1 1.4-27.9-0.3-13.3-1.8-34.2-2.9-39.1-0.4-2-1.5-1.2-3.1 2.4-3.3 7.2-4.6 13.2-5.4 26-0.7 11-1.7 16.1-3 16.5-0.3 0.1-4.6-6.5-16.3-24.8l-9.6-15.2 0.4-2.1c1.4-6.7 1.6-10 2.2-39 0.4-18.8 0.8-27.9 1.5-31 1.1-5.2 3.9-11.7 6.4-15.1 3.9-5.1 10.3-9.7 16.5-11.8 2.4-0.8 4.6-1.2 13.5-2.7 8.5-1.4 11.6-2.2 17.4-4.7 6.1-2.6 9.4-4.6 11-6.4 1.2-1.4 3.1-5.2 3.7-7.6 0.9-3.6 0.9-10.8-0.1-14.2-0.2-0.6-0.8-1.8-1.4-2.7-0.6-0.9-1.5-2.2-2-2.9-1.1-1.7-2.7-5.1-3.3-6.9-0.2-0.7-0.4-1.5-0.5-1.6-0.1-0.2 6.8-0.3 33.9-0.3h34v0.5c0 1.7-2.7 7.3-4.6 9.8-2.8 3.7-3.1 4.5-3.1 11.6 0 4.5 0 5 0.6 7 1.5 5.5 4 8.6 8.9 11.2 5.9 3.1 12.7 5 25.9 7.2 9.8 1.6 13.1 2.6 17.3 5 4.1 2.4 9 6.8 11.1 10.1 3.1 4.6 5.6 11.9 6.1 17.3 0.4 4.2 0.8 15.4 1.3 39.4 0.2 8.5 0.5 17.3 0.8 20.1 0.2 2.1 1.2 7.8 1.5 8.9 0.1 0.2-0.8 1.8-2 3.7-14.8 23.4-21.2 33.3-22.9 35.7-0.9 1.2-0.9 1.2-1.3 0.8-1.1-1-2-6.2-2.6-16-0.7-11.2-1.6-16.2-3.8-22.3-1-2.7-2.4-5.6-3.1-6.6-0.6-0.8-1.4-1-1.6-0.4-0.6 2.1-1.7 12.8-2.5 25.8-0.8 12.1-1 33.7-0.3 39.5 0.3 2.3 1.1 4.8 3.9 11.8 6 14.9 10.6 32.1 11.4 42.8 0.3 3.7 0.3 11.5 0 15.2-0.3 3.6-1.1 8.9-1.5 9.4-0.3 0.4-3.9 0.4-73.7 0.5-61.3 0.1-73.4 0-73.5-0.2z" style="fill:#808080;"/>
<path d="m806.9 355.7c-0.2-0.6-1.3-8.7-1.5-11.5-0.6-6.8 0.1-15 2-24.7 1.8-9.3 5.8-21.8 11.4-35.5 0.7-1.6 1.4-3.8 1.6-4.9 1-5.5 1.6-17.1 1.4-27.9-0.3-13.3-1.8-34.2-2.9-39.1-0.4-2-1.5-1.2-3.1 2.4-3.3 7.2-4.6 13.2-5.4 26-0.7 11-1.7 16.1-3 16.5-0.3 0.1-4.6-6.5-16.3-24.8l-9.6-15.2 0.4-2.1c1.4-6.7 1.6-10 2.2-39 0.4-18.8 0.8-27.9 1.5-31 1.1-5.2 3.9-11.7 6.4-15.1 3.9-5.1 10.3-9.7 16.5-11.8 2.4-0.8 4.6-1.2 13.5-2.7 8.5-1.4 11.6-2.2 17.4-4.7 6.1-2.6 9.4-4.6 11-6.4 1.2-1.4 3.1-5.2 3.7-7.6 0.9-3.6 0.9-10.8-0.1-14.2-0.2-0.6-0.8-1.8-1.4-2.7-0.6-0.9-1.5-2.2-2-2.9-1.1-1.7-2.7-5.1-3.3-6.9-0.2-0.7-0.4-1.5-0.5-1.6-0.1-0.2 6.8-0.3 33.9-0.3h34v0.5c0 1.7-2.7 7.3-4.6 9.8-2.8 3.7-3.1 4.5-3.1 11.6 0 4.5 0 5 0.6 7 1.5 5.5 4 8.6 8.9 11.2 5.9 3.1 12.7 5 25.9 7.2 9.8 1.6 13.1 2.6 17.3 5 4.1 2.4 9 6.8 11.1 10.1 3.1 4.6 5.6 11.9 6.1 17.3 0.4 4.2 0.8 15.4 1.3 39.4 0.2 8.5 0.5 17.3 0.8 20.1 0.2 2.1 1.2 7.8 1.5 8.9 0.1 0.2-0.8 1.8-2 3.7-14.8 23.4-21.2 33.3-22.9 35.7-0.9 1.2-0.9 1.2-1.3 0.8-1.1-1-2-6.2-2.6-16-0.7-11.2-1.6-16.2-3.8-22.3-1-2.7-2.4-5.6-3.1-6.6-0.6-0.8-1.4-1-1.6-0.4-0.6 2.1-1.7 12.8-2.5 25.8-0.8 12.1-1 33.7-0.3 39.5 0.3 2.3 1.1 4.8 3.9 11.8 6 14.9 10.6 32.1 11.4 42.8 0.3 3.7 0.3 11.5 0 15.2-0.3 3.6-1.1 8.9-1.5 9.4-0.3 0.4-3.9 0.4-73.7 0.5-61.3 0.1-73.4 0-73.5-0.2z" style="fill:#808080;"/>
<path d="m805 679.3c0-1.1 2.7-7.6 5.6-13.3 6.6-13.1 11.6-27.4 14.3-40.5 1.4-6.7 0.9-20-1-27.2-0.7-2.8-1.3-5.2-1.2-5.3 0.2-0.2 9 5.4 19.6 12.4 17.2 11.5 36.5 22.4 63.8 36.1l12.6 6.3-1.8 2.2c-6 7.4-8.5 13.5-10.3 25.4l-0.7 4.5h-50.5c-32.5 0-50.5-0.2-50.5-0.5zM941.5 645.8c-3.1-0.4-8.5-0.8-11.9-0.8l-6.2-0.1-8.8-3.8c-18.8-8.3-40.1-19.6-64.2-34.4-17.2-10.5-30.6-21.3-34-27.3-1-1.7-3.7-6.2-6.1-9.8-8.1-12.7-11.2-20.9-12.4-33.7-0.7-6.8-0.4-19.3 0.6-26.4 3.2-22.9 21.3-48.5 41.1-58 5.1-2.5 14.4-5 21.7-5.9 21.6-2.6 56.3 3.1 74.7 12.4 13.5 6.8 25.2 17.6 30.5 28.3 3.8 7.6 8.2 23.6 9.2 33.8 0.5 5.3 0.4 7.7-1.4 17.5-0.9 4.9-0.9 6.3-0.4 8.9 0.8 4 5.2 11.4 12.4 21.4 5.7 7.8 6.7 10 6 12.9-0.5 2.1-4 5.2-7.1 6.4-1.5 0.5-3.1 1.4-3.6 1.8-1.2 1-1.2 3.8-0.1 6.4 1.3 3.1 1 5.7-0.8 8.2-0.9 1.2-2.1 2.6-2.7 3l-1.2 0.8 1.1 1.8c2 3.3 1 8-2.1 10.3-2.9 2-3.4 3.5-3.5 9.7-0.1 6.2-1 9.2-3.9 12.9-2.6 3.5-5 4.2-13.5 4.3-4.2 0.1-10.2-0.2-13.3-0.6z" style="fill:#808080;"/>
<circle transform="rotate(-13.244032)" r="113.5" cy="704.1" cx="491.3" style="fill:none;stroke-width:10;stroke:#808080"/>
<path d="m838.8 291.1c0-2.9-0.6-8.5-1.3-12.5-3.3-17.9 4.9-31.5 20-32.9 7-0.6 15.6 0.4 17 2 0.6 0.7 2.8 2.7 4.8 4.5l3.7 3.2-1.4 3.2c-0.8 1.7-1.3 3.9-1.2 4.8 0.1 0.9 0.2 2.7 0.3 3.9 0.1 1.2 1.6 4.2 3.5 6.6 1.8 2.4 3.3 4.5 3.3 4.6 0 0.1-0.7 0.5-1.6 0.8-1.1 0.4-2.3-0.2-3.7-1.8l-2.1-2.3-1.5 1.9c-3.7 4.5-9.4 7.8-15.4 8.8-1.7 0.3-7 2.8-11.7 5.5-4.7 2.8-9.4 5-10.6 5-1.9 0-2-0.4-2-5.2zm44.2-22.1c-1.1-2.3-0.7-10.2 0.5-11.3 1.8-1.6 1.3-4.1-1.2-5.8-3.5-2.4-3.1-4.4 0.7-3.7 1.7 0.3 8.2 0.8 14.4 1 11.3 0.5 16.5 1.7 16.5 3.9 0 1.8-3 3.6-8.6 5-3.7 0.9-7.3 2.8-11.7 6-8.5 6.1-9.8 6.7-10.7 4.8z"/>
<path d="m884.1 536c2.4-2.6 3.6-3.4 5.9-3.9 1.5-0.3 1.6-0.4 3.1-4l1.5-3.7 3 0 3 0 0.6-1.6c0.9-2.3 2.3-3 6.4-2.9l3.3 0.1 1.6-1.7c1.7-1.8 2.7-4.3 3-7.6 0.3-3.7-1.7-5.5-6.9-6.1-7-0.8-20.7 1.9-36.3 7.1-6.4 2.2-9.1 3.5-10 4.9-0.6 0.9-0.6 1.2-0.1 2.5 0.3 0.8 0.7 2.3 0.8 3.4 0.2 2 1.2 3.1 1.2 1.3 0-1.2 0.9-2.2 1.4-1.4 0.2 0.3 0.3 1 0.2 1.6-0.1 1.7 0.3 1.9 1.3 0.8 1.2-1.2 1.4-1.2 3.1-0.1 1.2 0.8 1.6 0.9 5.3 0.7 3.9-0.2 4-0.2 5.3 0.9 1.3 1.1 1.3 1.2 1.2 3.7-0.1 2.2-0.4 3.3-1.9 6.4-1 2.1 0 0 0 0 0 0 2.2 1.3 4-0.5z"/>
<path d="m810.5 553.3c1.8-1.4 3.8-4 6.2-8.5 1.3-2.3 2-3.3 2.5-3.2 0.4 0.1 1.3-0.8 2.4-2.4 3.2-4.7 7.7-7.9 12.6-9 1.6-0.4 2.2-0.7 2.6-1.6 0.9-1.7 4.1-3.1 7.8-3.4 3.6-0.3 4.6 0.1 5.4 2 0.5 1.1 0.8 1.3 2.4 1.6 2.3 0.3 4.9 1.9 5.8 3.4 0.4 0.7 1.2 1.4 2.1 1.6 2.7 0.9 3.5 2.2 4.3 7.1 0.7 4.2 0.7 4.2 2.3 0.9 1-2 1.5-3.6 1.5-4.6 0-2 1.6-3.7 4-4.4 1.4-0.4 1.7-0.6 1.3-1-0.2-0.3-0.4-1.3-0.4-2.3l0-1.8-2.7 0.1c-1.9 0.1-2.9 0.3-3.4 0.8-0.4 0.4-1.1 0.7-1.6 0.7-0.8 0-2.8-2-2.8-2.8 0-0.2-0.6 0-1.3 0.4-2.7 1.7-6.7 0.6-8.8-2.4-2.3-3.2-2.6-7.4-0.8-11.1 1.1-2.2 1.1-2.2-1.9-5-1.4-1.3-1.9-1.5-3.4-1.5-1.5 0-1.7-0.1-1.7-0.8 0-0.6 0.3-0.8 1-0.8 0.6 0 1-0.2 1-0.6 0-0.8 1-1.1 1.6-0.4 0.3 0.3 1.7 1.7 3.1 3l2.6 2.4 2.1-1.6c2.5-1.9 8-4.7 12.1-6.3 4.5-1.6 4.5-1.5 2.3-5.3-1-1.8-1.9-3.9-2-4.8-0.2-1.4-0.1-1.6 0.6-1.6 0.6 0 0.8 0.3 1 1.3 0.1 0.7 1 2.7 2 4.4 1 1.7 1.7 3.3 1.7 3.5 0 0.6 0.6 0.5 3.7-0.3 10.8-3 24.2-4.8 30.2-4 9 1.2 15.4 4.3 19.1 9.1 2.7 3.5 3.8 4 5.2 2.5 0.8-0.9 2-0.7 2 0.2 0 0.8-1.9 2.2-2.9 2.2-0.8 0-0.9 0.1-0.7 2.8 0.3 3.7-0.6 5.5-4.5 9.3-2.4 2.3-3.4 3.1-4.8 3.4-2.1 0.5-5.5 0.6-9.4 0.1-1.5-0.2-2.8-0.3-2.8-0.3 0 0 0.1 1.5 0.4 3.3 0.3 1.8 0.4 3.5 0.2 3.8-0.2 0.3-0.3 1-0.3 1.5 0 1.8-1.4 3.5-3.2 4.1l-1.7 0.5 3.5 0.7c5.6 1.1 11.5 1.3 14.6 0.5 3.9-1.1 5.3-1.2 7.6-0.4l2 0.7 3.1-1.3c3.6-1.5 4-1.5 8.1-0.6 5.4 1.2 13.2 0.1 17.2-2.3 2-1.2 3.8-3.1 4.8-4.9 0.7-1.3 0.9-2.5 1-6.3l0.2-4.7-1.8-1.9-1.8-1.9 0.4-1.9c0.7-2.8 0-5.8-2.6-11.2l-2.2-4.7-0.8 1.7c-0.6 1.2-1.7 2.3-4 4-1.8 1.3-3.5 2.8-3.8 3.5-0.4 0.8-0.8 1.1-1.4 0.9-0.9-0.3-0.9-0.3-0.2-1.6 0.7-1.3 2.1-2.6 4.9-4.7 1.2-0.8 2.3-1.8 2.5-2.2 0.3-0.6 0.7-5.6 0.7-9.8 0-2.7-1.4-5.2-3.9-7.4-1.9-1.6-2.2-1.7-3.8-1.5-1.5 0.2-1.7 0.2-1.7-0.6 0-1.3-1.1-3.7-2.3-4.9-0.6-0.6-2.8-2.4-5-3.9-2.2-1.5-5.1-3.8-6.5-5.1-2.7-2.5-4.8-3.4-7-3-1.2 0.2-1.3 0.3-1.2 2.1 0 1.5-0.2 2.3-1.4 4.1-1.7 2.6-1.7 3.2-0.5 5.4 1.1 1.9 1.2 3.6 0.3 5-1 1.5-1.6 1.9-5.1 3.2-3 1.2-4 2-2.6 2 1.2 0 12.1 3.9 14.8 5.3l2.8 1.4 1.2-1.2c0.8-0.8 2.5-1.7 5.5-2.7 5.1-1.8 6.2-2.4 6.7-4 0.3-0.8 0.7-1.2 1.2-1.2 0.7 0 0.8 0.2 0.5 1.3-0.4 2.2-2.3 3.6-7.1 5.3-2.4 0.8-4.8 1.9-5.4 2.4l-1.1 0.9 2.4 2.4c3.2 3.2 4.2 5.9 3.8 10-0.2 2.3-0.1 3.3 0.4 5 0.8 2.5 0.8 6.4 0 8.5-0.3 0.8-1.1 2.2-1.8 3-2.1 2.7-9.2 6.7-11.9 6.8-0.7 0-0.9-0.2-0.8-0.9 0.1-0.7 0.5-0.9 1.8-1.2 3.7-0.7 9.6-5 11-8.1 0.9-2 0.9-4.9 0.1-7.6-0.4-1.2-0.6-3.3-0.5-5.4 0.1-2.9-0.1-3.8-0.8-5.3-2-4.3-7.9-8.1-17.3-11.2-3-1-6-1.9-6.7-2.1-0.8-0.2-1.7-0.9-2.5-1.9-0.7-0.9-1.6-2.1-2.1-2.6l-0.8-1-4.4 0.5c-3.2 0.4-5.4 0.9-7.8 1.9-5.3 2.1-8.7 1.8-10.8-0.8-1.4-1.8-6.3-1.5-8.4 0.5-0.8 0.8-0.9 1.2-0.7 2.2 0.2 1.1 0.1 1.3-0.5 1.3-0.8 0-1.2-0.7-1.2-2 0-0.4-0.7-1.4-1.6-2.2-1.5-1.4-1.6-1.4-4.6-1.4-2.5 0-3.3 0.2-4.4 0.9-1.7 1.2-2.8 3.2-3.8 7.2-0.5 1.8-1.3 4-1.8 4.9-0.8 1.5-0.8 1.7-0.4 2.2 0.5 0.4 0.5 0.6 0 1.1-0.4 0.5-0.7 0.5-1.3 0.1-0.6-0.4-1-0.3-2.1 0.3-1 0.6-2.5 0.8-6.4 0.9-4.6 0.2-5.2 0.3-6.5 1.2l-1.4 1 0.2 2.6c0.1 1.8 0 3.4-0.4 5.1-0.8 3.1-0.5 4.5 1.2 6.5 0.8 0.9 1.3 1.8 1.1 2.2-0.4 0.9-1 0.7-2.4-0.8-2.2-2.4-2.5-4.3-1.3-9.8 0.3-1.2 0.4-2.7 0.2-3.3-0.2-0.9-0.4-1-1.2-0.7-0.6 0.2-1.8 0.2-3.4-0.2-4.1-0.9-4.9-0.8-6.4 0.9-1.2 1.3-1.4 1.4-1.9 0.9-0.5-0.6-0.5-0.7 0.4-1.9 1.9-2.4 2.9-2.6 7.1-1.8 3.7 0.7 3.7 0.7 4.7-0.2 3.7-3 5.5-3.6 11.2-3.6 5.5 0 7.3-1.7 9-8.2 1-3.7 1.6-5.2 3-6.6 0.9-1 0.9-1.1 0.4-2-0.3-0.5-1-2.1-1.4-3.5-0.4-1.4-1.5-3.6-2.3-4.8-0.9-1.2-1.6-2.2-1.6-2.2 0 0-0.2-2.1-0.3-4.6l-0.2-4.6-1.1-0.1c-1.6-0.2-2.9 0.6-4 2.7-0.9 1.6-1 2.2-1 5.4 0 2 0.1 3.9 0.3 4.2 0.5 0.9-0.9 1.4-1.5 0.5-1.1-1.5-1-6.9 0.1-9.9 0.4-1.1-2.2-0.7-4.2 0.6-2.8 1.9-3.1 2.4-3.3 5.7-0.2 2.3-0.1 3.2 0.4 4.2 1 2.1 8.8 9.7 10.2 10.1 1.6 0.5 1.6 1.8 0 1.6-0.8-0.1-1.1 0.1-1.1 0.7 0 0.5-0.3 0.8-0.7 0.8-0.5 0-0.9-0.5-1.2-1.7-0.4-1.3-1.4-2.6-4.5-5.7-4.9-4.9-5.6-6.4-5-10.4l0.4-2.6h-1.3c-3.6 0-5.4 2-9.2 10.1-3 6.5-4.6 8.6-7.4 9.9-2 1-2.6 0.9-2.6 0 0-0.6 0.5-1 1.6-1.4 2.1-0.8 4.2-3.4 5.9-7.1 1.7-3.7 1.8-4.2 0.3-4.2-1.4 0-2.4 1.1-4.1 4.8-1.1 2.3-2.2 3.7-4.9 6.4-3.6 3.6-4.6 5.5-4 7.9 0.4 1.7 0.4 1.7 2.2-0.1 2.2-2.2 5.6-3.4 11-3.6 2.1-0.1 4.4-0.3 5.1-0.4l1.3-0.2-0.6-1.2c-0.5-0.9-0.6-1.8-0.4-3.3 0.1-1.1 0.4-3.2 0.5-4.5 0.2-2.2 0.3-2.5 1-2.5 0.7 0 0.8 0.2 0.5 3.1-0.1 1.7-0.3 3.6-0.5 4.3-0.3 1.5 1.2 3.6 2.9 4 0.8 0.2 1.2 0.5 1.2 1 0 0.9-1.2 1-9.1 1.4-5.6 0.2-8.5 0.9-10.7 2.4-2.4 1.6-2.8 2.8-2.6 8.2 0.1 4.4 0.2 4.8 1.2 6.2 0.6 0.8 2.8 2.6 4.9 4 4 2.7 4.8 3.5 6.3 6 0.5 0.9 1.2 2 1.7 2.5 0.7 0.8 0.7 1 0.2 1.6-0.5 0.6-0.3 0.7 2.4 0.3 5.3-0.7 8.5-0.5 10.6 0.7 2 1 2.3 1.5 1.9 2.2-0.2 0.4-0.8 0.2-2.4-0.6-2.4-1.2-4.8-1.3-9.8-0.5-3.7 0.6-5.7 0.4-10.3-1.2-4-1.4-6.5-1.5-8.3-0.6-1.5 0.8-1.5 2 0 5.7 1.5 3.7 1.5 5.2-0.2 8.3-1.6 2.9-1.6 3.4-0.6 4.9 1.2 1.8 1.3 2 0.5 2.4-0.6 0.3-0.9 0.2-1.8-1.2-1.4-2.2-1.3-3.9 0.3-7 0.7-1.4 1.4-2.8 1.4-3.2 0-0.4-0.5-2-1.1-3.6-1.5-3.7-1.7-4.8-1.2-6 1-2.8 5.9-3.5 11.1-1.6 2.8 1 6.8 1.8 6.8 1.5 0-0.1-0.5-0.8-1.1-1.5-0.6-0.7-1.5-2.1-2.1-3.1-0.8-1.5-1.9-2.4-4.9-4.4-3.8-2.5-6.1-4.7-6.7-6.5-0.2-0.5-0.4-3-0.4-5.5 0-4-0.1-4.7-0.7-5.3-0.7-0.7-0.8-0.7-2.6 0.6-2.4 1.7-3.9 3.7-5 6.8-0.8 2.2-1.7 7.6-1.7 10.1 0 0.9 0 0.9 1.5-0.3 0.8-0.7 1.7-1.8 2-2.4 0.5-1.3 1.9-1.7 1.9-0.6 0 1.7-3.8 6-4.9 5.6-0.3-0.1-0.5 0.7-0.7 2.5-0.4 4.7-0.4 4.7 1.2 5.2 2.4 0.7 3.3 2.1 3.5 5.1 0.2 2.6 0.2 2.6-0.9 2.6-1 0-1-0.1-1-2.3 0-2.3-0.3-2.9-1.6-3.3-0.5-0.2-0.9 0.7-1.9 3.7-1.2 3.7-1.3 4-0.8 5.6 0.9 3.1 0.9 3.9 0.2 6.6l-0.7 2.6 1 0.9c1 1 1.6 0.9 3.3-0.7 0.7-0.7 2.1-0.7 2.1 0 0 0.5-2 2.2-3.8 3.2-2.7 1.5-2.7 3-0.1 6.1 1.9 2.2 2.7 2.3 4.9 0.7zm119.3-17.9c-0.1-0.7 0.1-0.9 1-0.9 0.6 0 1.8-0.5 2.6-1 1.3-0.9 2-1 5-1 5 0 8.6-0.6 11.4-2 2.6-1.2 2.7-1.6 0.8-2.6-1.2-0.6-1.3-0.9-0.8-1.7 0.3-0.4 0.6-0.4 1.9 0.3 1 0.5 2.3 0.8 3.7 0.8 1.8 0 2.4-0.2 3.8-1.3 0.9-0.7 1.7-1.5 1.7-1.8 0-0.3 0.7-0.9 1.5-1.5l1.5-1.1-0.3 1.7c-0.1 1-0.3 1.7-0.3 1.8 0 0-1.1 0.8-2.3 1.8-1.9 1.4-2.6 1.8-4.4 1.9-1.3 0.1-2.1 0.4-2.1 0.7 0 0.7-6.1 3.7-8.5 4.2-1.1 0.2-3.9 0.4-6.2 0.4-3.9 0-4.2 0.1-6.1 1.2-2.3 1.4-3.8 1.4-4 0.1zm-13.7-2.8c0-0.6 0.4-0.8 2.8-1 1.6-0.1 4.3-0.8 6.3-1.5 2.9-1.1 4.2-1.3 8-1.4 2.5-0.1 4.9-0.4 5.5-0.6 0.6-0.2 1.9-1.4 2.9-2.6 1.5-1.8 2.5-2.5 5.5-4 2-1 4.3-2.2 5-2.8 1.4-1.1 2.4-3.1 2.4-4.9 0-0.9 0.2-1.2 0.8-1.2 0.6 0 0.8 0.3 0.8 1.2 0 0.9 0.2 1.2 1 1.4 0.7 0.2 0.9 0.5 0.8 0.8-0.1 0.3-0.2 0.7-0.2 0.7 0 0.1-0.4 0.2-0.8 0.2-0.5 0-1.5 0.7-2.4 1.9-1.2 1.4-2.5 2.3-5.5 3.7-3.2 1.5-4.3 2.3-6.5 4.6l-2.6 2.7-5.2 0.3c-4.3 0.3-5.8 0.6-9.3 1.7-4.9 1.7-9.3 2-9.3 0.7zm24.8-33.9c0-0.5 1.1-1.2 3.6-2.4 4-1.9 5.7-2.2 5.7-0.9 0 0.5-0.3 0.8-0.7 0.8-0.4 0-2.1 0.7-3.8 1.6-3.4 1.7-4.8 2-4.8 0.9zm-58.2-6.2c0-1.3 0.5-2.3 1.2-2.3 0.5 0 0.7 0.3 0.7 1.1 0 0.6-0.1 1.3-0.3 1.4-0.4 0.5-1.7 0.3-1.7-0.2zm21.7-5.9c0-0.6 1.5-2 2.3-2 0.8 0 0.8 0.2 0.8 2.7v2.7l-1.6-1.6c-0.9-0.9-1.6-1.7-1.6-1.8zm27.3-4.6c-0.3-0.9 1-2.2 2.2-2.1 0.7 0.1 1 0.4 1.1 1.1 0.1 0.8 0 0.9-0.7 0.7-0.4-0.1-1 0-1.2 0.3-0.6 0.7-1.1 0.7-1.4-0.1z"/>
<path d="m917.5 481.2c2.6-1.1 4.1-2 4.7-2.8l0.8-1.1-1.1-2c-1.5-2.7-1.4-4.4 0.3-7 1.6-2.5 1.7-3.2 0.4-5.5-1.6-2.8-4.5-5.2-7.5-6.2-3.7-1.2-11.8-1.6-13.6-0.6l-1.2 0.7v6.2c0 6.7-0.1 7-2.7 11.1-0.5 0.9-1 1.7-1.1 1.7 0 0.1-0.5 0-0.9-0.1l-0.8-0.3 0.9-1.5c2.9-4.9 3-5.3 3-11.4 0-5.6 0-5.7-1-6.6-1.1-1.1-1.8-1.1-8-0.6l-3.7 0.3 0.4 1.1c0.6 1.6-0.1 3.4-1.1 3.2-1-0.2-1.1-0.3-0.6-1.3 0.4-0.7 0.3-1.1-0.3-1.9-0.6-0.8-1.4-1.2-3.8-1.7-3.8-0.8-6.6-0.5-9.9 1.1-2 1-2.7 1.1-4.2 0.9-3.7-0.6-4.5-0.4-6 1.1l-1.4 1.4v4.2 4.2l1.5 2.2c0.8 1.2 2 3.6 2.6 5.4 0.6 1.7 1.2 3.3 1.4 3.4 0.2 0.1 2.1 0.2 4.3 0.2 4.1-0.1 5.1 0.3 6.5 2.1 0.6 0.7 0.6 0.7 1.6-0.1 2.2-1.8 6-2.5 8.3-1.6 0.6 0.2 1.8 1.1 2.6 1.8 1.5 1.4 1.6 1.4 3.7 1.2 1.2-0.1 3.5-0.8 5.1-1.4 1.6-0.7 4-1.3 5.2-1.5 1.3-0.1 3.3-0.4 4.6-0.7 2.8-0.5 4.4 0.2 5.7 2.4 0.5 0.9 1 1.6 1.2 1.5 0.1 0 1.9-0.8 4-1.7zm-28.8-9.9c-0.3-0.3-0.3-0.7-0.1-1.1 0.8-1.3 0.4-1.6-1.3-0.8-2.3 1.1-6.6 1.1-9.2 0l-1.9-0.8-0.6 1.2c-0.4 0.7-0.9 1.2-1.4 1.2-0.9 0-1-0.5-0.1-2.1l0.6-1.3-1.6-1.4c-1.5-1.4-1.8-2.4-0.7-2.4 0.3 0 1.2 0.6 2.1 1.4 5 4.7 13.2 4.3 15.2-0.6 0.3-0.8 0.6-1.1 1.2-0.9 0.8 0.2 0.7 1.1-0.2 2.7-0.3 0.4-0.4 1.5-0.3 2.2 0.2 1.4-0.4 3.1-1 3.1-0.2 0-0.5-0.2-0.7-0.5z"/>
<path d="m845.2 575.6 1.9-1.3-0.9-2.2c-1.1-2.7-1.1-3.6-0.2-3.6 0.5 0 1 0.6 1.6 2.4 0.5 1.3 1 2.5 1.2 2.6 0.5 0.3 4-0.9 5.2-1.9 1.2-1 1.2-1.7 0-3.3l-1-1.2 1.8-0.6c3.3-1.2 3.9-3.1 1.1-4.4-1.3-0.6-1.8-1.1-1.8-1.7 0-1.2 0.8-1.9 4.4-3.6 4.5-2.1 5.4-2.9 5.1-4.3-0.1-0.6 0-1.7 0.4-2.6 0.7-1.8 0.7-3.1 0-4.5-0.3-0.6-0.8-2.7-1.2-4.7-0.4-2-0.9-3.9-1.1-4.2-0.6-0.9-2-1.6-3.1-1.5-0.6 0-1.1-0.4-1.7-1.5-1.5-2.8-4.3-3.9-6.9-2.7-0.5 0.2-0.8-0.1-1.3-1.9l-0.6-2.2-2.6 0c-3.4 0-5.4 0.6-6.7 2l-1.1 1.1 0.8 1.7c0.7 1.6 0.9 1.7 2.3 1.7 1.4 0 1.6 0.1 1.6 0.9 0 0.8-0.2 0.9-1.5 0.9-0.9 0-1.6 0.2-1.6 0.4 0 0.2 0.6 1 1.4 1.7 1.2 1.1 1.4 1.7 1.5 3.1 0.1 1 0.2 2 0.4 2.4 0.2 0.4 0 0.9-0.4 1.2-0.5 0.5-0.7 0.4-1 0-0.2-0.4-0.3 0-0.1 1.1 0.3 1.8-0.1 2.4-1.3 2-0.6-0.2-0.7-0.6-0.6-2.1 0.1-1 0.4-2.6 0.8-3.4 0.9-2.1 0.2-2.9-1.1-1.1-1.2 1.7-2.3 1.7-2.3-0.2 0-1.1 0.2-1.5 1-1.8 0.8-0.3 0.9-0.5 0.6-1.1-0.2-0.4-0.5-1.4-0.6-2.3-0.2-1.4-1-3.8-1.2-3.8-0.2 0-4.3 1.3-4.6 1.5-0.3 0.2 1.1 3.3 1.5 3.3 0.1 0 0.5-0.2 1-0.5 0.6-0.4 0.9-0.4 1.2 0 0.4 0.4 0.3 0.7-0.4 1.5-0.7 0.7-0.8 1.3-0.6 2.1 0.3 1.4-0.2 2.3-1.2 2.1-0.5-0.1-0.7-0.4-0.6-1.2 0.1-0.7-0.4-2-1.3-3.7l-1.4-2.6-1 0.6c-0.6 0.4-1.7 1.2-2.5 1.9l-1.5 1.3 1.4 2.4c0.8 1.3 1.7 2.7 2.2 3 0.7 0.6 0.7 0.7 0.2 1.4-0.4 0.6-0.6 0.6-1.1 0.2-0.5-0.4-0.7-0.4-0.9 0.1-0.2 0.4-0.6 0.5-1 0.4-0.5-0.2-0.6-0.6-0.4-1.8 0.2-1.6-0.8-4.1-1.6-3.9-0.4 0.1-4.1 6.3-4.1 6.8 0 0.2 0.7 0.5 1.5 0.8 1.2 0.4 1.8 0.4 2.5 0 1.6-0.8 3.4-0.6 5 0.6 1.4 0.9 1.7 1 4 0.7 2.4-0.3 2.8-0.1 2.2 0.8-0.4 0.7-3.5 1.5-4.6 1.2-0.5-0.1-1.6-0.7-2.5-1.3-1.5-1-1.5-1-3.5-0.4-1.4 0.5-2.2 0.5-2.9 0.3-1.3-0.5-1.2-0.6-2.1 1.2-1 2-1 4 0 5.3 0.7 0.9 0.8 0.9 1.8 0.4 1.1-0.6 1.1-0.8 0.4-3.1-0.2-0.7-0.1-0.9 0.5-0.9 0.4 0 1 0.4 1.3 0.9 0.3 0.5 0.5 0.9 0.5 1 0 0.1 0.7-0.2 1.5-0.5 1.8-0.8 1.7-0.8 1.9 0.2 0.2 0.6 0 0.9-0.8 1.2-0.6 0.2-2.1 1.2-3.4 2.1-2.1 1.5-2.4 1.8-2.4 3l0 1.3 1.1-0.8c1.3-0.9 4.2-1.2 5-0.4 0.4 0.4 0.7 0.3 1.4-0.4l0.9-0.9 0.3 0.9c0.2 0.6 0 1.1-0.4 1.7-0.7 0.8-1 0.8-3.8 0.1l-1.2-0.3 1.2 1c1.1 1 1.1 1.1 0.5 1.7-0.6 0.7-0.7 0.7-1.8-0.4-0.6-0.6-1.3-1.1-1.5-1.1-0.2 0-0.8 0.6-1.2 1.4-0.8 1.3-0.8 1.5-0.3 2.6 0.8 1.7 2.8 3 6.5 4.6 1.8 0.8 3.5 1.7 3.9 2 1 0.9 1.3 0 1.3-4.3 0-3.4 0.1-3.8 0.7-3.7 0.4 0 1.2-0.6 1.7-1.3 1.1-1.4 2.4-1.8 2.4-0.8 0 0.3-0.8 1.6-1.7 2.9-1 1.3-1.7 2.4-1.7 2.6 0 1.3 0.6 2.8 1 2.6 0.4-0.1 0.5 0.1 0.5 0.8 0 0.6-0.2 1-0.6 1-0.3 0-0.8 0.5-1 1-0.4 0.9-0.3 1.1 0.5 2 0.5 0.5 1.5 1.1 2.2 1.2 1.1 0.2 1.3 0.1 1.7-0.9 0.2-0.6 0.6-1.5 0.8-1.8 0.5-1 0.5-1-1.2-2.2-1.4-1-1.5-1.2-1-1.9 0.5-0.7 0.6-0.7 1.4-0.1 0.9 0.6 0.9 0.6 1.8-0.9 0.6-1 1.2-1.6 1.7-1.6 1 0 1 0.7-0.2 2.6-0.7 1.2-0.8 1.8-0.6 2.5 0.4 1 0.1 2.5-0.5 2.5-0.6 0-0.4 0.8 0.4 1.6 1.1 1.1 2.2 1 4.5-0.5z"/>
<path d="m904.9 525.2c0.8-2.6 1.4-2.8 6.5-2.4 9.3 0.7 10 0.6 13.6-2.8 3-2.8 4.4-5.2 4.4-7.4 0-2.2-1.8-5.5-4.8-8.5-3.1-3.2-6-4.8-11.1-6.2-4.8-1.4-14.5-1.3-22.6 0.2-11.6 2.1-21.8 5.3-28.7 8.9-6.6 3.4-9.5 7.1-9.4 11.7 0 2.4 0.5 3.6 2 5.3 2.3 2.5 4.5 2.9 6.3 1.1 1.3-1.3 1.5-2.9 0.6-5.6-1.7-5 0.4-6.9 11.5-10.4 13.6-4.3 24.5-6.5 32.6-6.5 6.1 0 7.7 0.3 10 2 2 1.6 2.6 3 2.3 6.3-0.3 3.7-1.7 6.8-4.1 8.9l-1.8 1.6-3.3-0.3c-3-0.2-3.4-0.2-4.4 0.6-1.2 1-1.4 2.2-0.5 3.8l0.5 1.1z"/>
<path d="m387.3 602.9c-1.7-0.2-2.8-0.4-4.8-0.9-1.9-0.5-2.2-0.6-2.4-0.7-0.1-0.1-0.4-0.2-0.7-0.2-0.3-0.1-0.7-0.2-0.9-0.3-0.2-0.1-0.5-0.2-0.6-0.2-0.1 0-0.3-0.1-0.4-0.1-0.1-0.1-0.6-0.3-1-0.5-2.7-1.1-5-2.7-5.7-3.8-0.6-1-1.9-1.4-5.2-1.7-2.5-0.2-3.1-0.3-4.7-0.7-2.6-0.7-2.9-0.7-2.4 0 0.1 0.2 0.5 0.6 0.7 1 0.4 0.6 0.5 0.9 0.6 1.7 0.1 0.9-0.1 3.3-0.3 3.6-0.1 0.1-7.3-3.4-7.3-3.6 0-0.1 0.2-0.6 0.5-1.2 1.8-3.9 3.2-6.2 5-7.9 2-1.9 2.8-2.3 5.6-2.4 1.6-0.1 1.8 0 2.5 0.3 0.4 0.2 1.4 0.9 2.1 1.6 2.2 2 3.2 2.4 5.8 2 1.5-0.3 3.2 0.1 5.3 1.2 0.8 0.4 1.8 0.9 2.1 1 1.7 0.6 4-0.1 5.1-1.6 0.8-1.1 1-1.8 1.1-4.4 0.2-4.3 0.6-8 1-10.2 0.1-0.6 0.1-0.9-0.1-1.3-0.3-0.7-0.7-0.8-3-1.1-3.2-0.5-5.8-1.2-7.1-2-1.3-0.8-2.3-2.4-3.2-5-0.8-2.4-1.6-7.2-1.6-10 0-1.1 0-1.3 0.3-1.3 1 0 8.5 0.9 8.6 1.1 0.1 0.1 0.1 0.5 0.1 0.9 0 0.4 0.1 1.4 0.3 2.1 0.9 4.5 2.7 7.2 5.7 8.8 0.7 0.3 1.3 0.6 1.3 0.6 0.2 0 0.2-0.4-0.3-1.2-0.8-1.6-0.6-3.4 0.6-5.9 1.2-2.4 2.7-3.6 5.7-4.3 1-0.3 1.6-0.3 3.6-0.3 2.3 0 4.1 0.2 6.1 0.8 3.6 1.1 7 4.5 9.1 9.4 0.2 0.4 0.3 0.8 0.3 0.8 0 0.1 0.1 0.3 0.1 0.4 0.3 0.5 0.9 3.3 1.1 4.7 0.1 1.1 0.1 5.8-0.1 7-0.2 1.4-0.4 2.7-0.6 3.5-0.1 0.4-0.3 1.1-0.4 1.6-0.1 0.5-0.3 1-0.4 1.1-0.1 0.1-0.2 0.5-0.2 0.7-0.1 0.3-0.2 0.6-0.2 0.7-0.1 0.1-0.3 0.8-0.6 1.4-0.5 1.3-1.5 3-2.2 3.9-0.2 0.3-0.4 0.6-0.4 0.7 0 0.1 0 0.2-0.1 0.2-0.1 0-0.5 0.5-0.9 1.1-2.3 2.9-4.9 5-8 6.6-1.5 0.8-1.9 0.9-3.2 1.4-3.5 1.1-7.2 1.5-11.4 1z"/>
<path d="m96 564.8c-1.2-0.3-3.3-1.4-4.4-2.5-2.4-2.3-3.4-5.1-3.9-10-0.4-4.4-0.6-12.6-0.5-22.1 0.2-12.9 0.4-16.1 1.4-19.6 1.3-4.6 6-13.9 9.4-18.7 4-5.6 14.5-14.5 19.7-16.7 4.6-1.9 9.2-0.6 12 3.6 2.8 4.2 5.5 12.1 7.3 22.3 0.9 5 1.7 9.1 2.2 11.4 0.6 2.8 0.7 9.3 0.2 14-0.5 4.3-0.7 7-1 11.2-0.4 5.9-0.8 8.1-2.3 11.1-0.8 1.7-1.1 2.1-2.6 3.6-2.3 2.3-5.8 4.5-11.5 7.2-7 3.3-11.3 4.5-18.6 5-4.8 0.3-6.7 0.4-7.5 0.2z"/>
<path d="m180.8 564.8c-7.9-0.5-12.8-1.5-17.9-3.7-6.1-2.7-11.1-5.5-13.8-7.8-1.3-1.1-2.9-3.1-3.6-4.7-1.2-2.5-1.8-5.6-2.2-11.9-0.1-1.8-0.4-5.3-0.7-7.8-0.2-2.5-0.5-5.3-0.6-6.2-0.2-2.2 0.2-9.1 0.6-10.3 0.1-0.5 1.2-5.6 2.3-11.2 2.2-10.8 2.5-12.2 3.9-15.7 2.4-6 4.4-9 7.3-10.3 3.8-1.8 7.1-1.1 12.5 2.5 5.3 3.6 11.8 9.6 15 13.8 3.2 4.2 8.4 14.6 9.7 19.3 1.1 3.9 1.4 11 1.3 26.8-0.1 10.1-0.2 13.3-0.7 16.7-0.7 4.8-2.7 8-6.2 9.7-1.9 0.9-2.8 1-7 0.8z"/>
<path d="m647 662.3c-1.2-0.7-1.6-1.2-2.6-3.9-2.5-6.3-3.1-7.6-4.7-9.8-0.9-1.2-5.7-6.2-10.7-11.1-11.9-11.7-14.4-15-14.9-19.8-0.5-4.2 0.7-7.2 6.9-16.6 4.6-7 7.5-12.6 9.2-17.7 1.6-4.9 2.1-7.8 1.9-12.2-0.1-3.4-0.2-3.9-1.5-6.3-0.8-1.6-2-3.3-2.9-4.2-1.5-1.4-1.7-1.5-5-1.9-7.4-0.9-11.7 0.1-15 3.4-3.3 3.3-4.7 7.6-5.2 15.8-0.4 6.2-0.8 8.2-2.2 10.6-1.3 2.2-3.2 3.6-6 4.4-2.6 0.7-9.6 1.4-10.1 1-0.2-0.2 1.3-1.3 4.1-2.9 5-3 7.3-4.9 7.9-6.7 0.6-1.9 0.2-6.6-0.8-8.6-0.9-1.7-1.3-2-6.7-3.4-2.4-0.6-5.3-2.7-6.5-4.6-1.7-2.9-3.4-4.7-5.5-6.1l-2.1-1.4 2.1 0.2c3.5 0.4 6.2 2 8.4 5 1.7 2.3 3.2 3.3 5.1 3.3 2.7 0 4.6-1.7 7.1-6.4 2.7-5.3 5.5-7.7 13.7-12 2.5-1.3 4.7-2.5 4.8-2.5 0.1-0.1-2.3-2.6-5.4-5.7-3-3.1-6.6-7-8-8.8-2.4-3-3.8-4.2-5.1-4.2-1 0-3.9 1.5-8.1 4.2-8.6 5.5-9 5.5-15.1 0-1.4-1.3-2.5-2.4-2.4-2.4 0.1 0 2.2 0.7 4.6 1.5 3.4 1.2 4.6 1.4 5.7 1.2 1.7-0.3 3.5-2.2 5.1-5.3 1.7-3.4 1.7-5.1-0.1-9l-1.3-2.9v-5.5c0-7.6 0.4-8.2 1.9-2.4 1.3 5.2 3.3 9.3 5.1 10.8 1 0.8 2 1.1 4.5 1.5 4.9 0.7 6.6 1.8 9.7 6.1 3.9 5.3 7.5 8 11.4 8.3 2.5 0.2 4.5-0.8 5.7-2.7 0.7-1.2 0.8-1.8 0.8-4.4 0-5.5-3-12-7.7-17-2.7-2.9-5.3-4.4-9-5.4-4.4-1.1-7.1-2.6-4.7-2.6 2 0 3.4-1.4 3.4-3.3 0-2.9 6-12.8 7.8-12.8 0.9 0 0.3 2.7-1.3 6.4-0.8 1.8-1.4 3.5-1.4 3.8 0 1.3 1.1 2.7 2.9 3.6 2.9 1.4 3.7 1.3 6-1.1 3.8-3.9 6.1-8.2 5.6-10.2-0.1-0.5-1.3-2.2-2.6-3.6-2.6-3-2.6-2.9 1.7-1.3 2.4 0.9 4.1 2 4.9 2.9 0.9 1.1 0.5 2.9-1.5 7.3-2.9 6.6-3.3 9.8-1.4 14.8 0.5 1.2 1.7 4.8 2.8 8 1.1 3.2 2.4 6.5 2.8 7.4 1 1.9 2.7 3.6 3.8 3.6 2.1 0 4.6-2.3 7.8-7.1 2.5-3.8 7.9-8.8 11.8-11.2 4.2-2.5 5.2-3.4 4.9-4.9-0.1-0.6-1.3-2.8-2.7-4.9-2.9-4.3-3.1-5-1.4-4.4 1.7 0.6 5.1 4 6.4 6.4 1 1.9 1.2 2.6 1.2 4.6l0 2.3 1.4 0.8c2.9 1.6 9.7 2.6 13.2 1.9 1.9-0.4 2.3-0.6 4.3-2.7 1.2-1.3 2.8-3.3 3.5-4.4 0.7-1.2 1.4-2.1 1.5-2 0.2 0.2-1.3 5.5-2.2 7.6-2.3 5.1-6.4 6.8-15.9 6.4-5.3-0.2-9.2 0.4-12.7 2.2-5.6 2.8-9.7 9.6-8.9 14.9 0.4 2.3 2.2 5.2 4.3 6.6 2.2 1.5 4.7 2.3 8.2 2.5 7.9 0.6 13.9-3 19.7-12 2.6-3.9 5.2-6.9 6.1-6.9 1 0 0.6 0.6-1.4 2.3-1.1 0.9-2 1.9-2 2.2 0 0.8 2.1 2.1 8.5 5.3 5.9 2.9 9 4.9 9 5.7 0 0.9-3.6 0-6.9-1.7-2.8-1.5-3.6-1.7-5.3-1.7-2.3 0-3.7 0.7-4.6 2.4-0.4 0.8-0.6 2.2-0.6 5.2 0 3.3-0.2 4.5-0.8 6.1-1.2 3.2-3.9 6.3-4.5 5.3-0.5-0.7 0.6-2.8 2.3-4.4 2-1.9 2.2-2.8 1.1-4.7-1.6-2.5-3.4-2.5-8.2-0.1-3.8 2-8.3 3.6-13.1 4.7-4.4 1-5.3 1.4-7 2.6-3.3 2.2-4.1 6.2-2.1 10.2 1.5 3.1 4.2 6.3 6.4 7.6 2.9 1.7 5 2 11.6 1.7 3.1-0.2 8-0.3 10.9-0.3 6 0 7.1 0.4 9.4 3.1 1.3 1.5 5.1 8.4 4.8 8.7-0.1 0.1-1-0.8-2.1-2-3.7-4.3-6.9-5.6-12.6-5.2-4.7 0.3-8.1 1.1-8.8 2-0.5 0.6-0.6 1.5-0.6 4.4 0 3.8-0.5 6.5-1.8 9.5-0.8 1.8-2.3 3.5-2.7 3.1-0.1-0.1 0.3-1.8 0.9-3.8 1.7-5.3 1.4-7.6-1.1-9.9-1.1-1-6.2-3.7-7.1-3.7-0.8 0-5.3-2-7.2-3.1-2.6-1.6-4.3-3.3-6.7-6.4-2.1-2.9-3.9-4.4-5.1-4.4-0.8 0-0.8 0.1-0.6 2.8 0.3 4-0.3 8.9-2 13.7-2.8 8.3-5.6 13.3-12.7 22.5-4.9 6.4-6.2 8.6-6.5 11.5-0.5 5 3.8 11 14.4 20.1 9.4 8.2 12.4 9.5 23.2 10.5 5 0.5 7.8 1.2 9.7 2.7 1.2 0.9 4.7 5.4 4.7 6 0 0.2-1.1-0.6-2.5-1.7-3.3-2.5-6.1-3.4-10.9-3.7-5.7-0.3-9.3 0.8-10.5 3.3-0.6 1.3 0 5.1 1.1 6.5 1.4 1.7 2.6 2.1 6.7 1.8 3.8-0.2 3.8-0.2 2.9 0.5-1.1 0.9-2.9 1.4-6.1 1.6-2.3 0.2-2.9 0.1-4.1-0.7zM640.4 552.8c0.5-0.4 1.5-1.8 2.2-3.2 1.5-2.9 1.5-3.9-0.1-6.4-1.6-2.6-5.1-4.6-8-4.6-3.8 0-6.4 3.7-6.4 9.3 0 2.6 0 2.7 1.1 3.6 1.5 1.3 4.3 2 7.5 2.1 2.2 0 2.9-0.1 3.6-0.7z"/>
<rect width="211.5" height="2" x="720.8" y="358.1" transform="rotate(8.440295)" ry="1" style="stroke:#808080; stroke-width: 10;"/>
<rect width="208.3" height="2" x="33.2" y="970" transform="rotate(-46.563312)" ry="1" style="stroke:#808080; stroke-width: 10;"/>
<path d="m139.5 347c-1.8-1.8-1.6-2.4 2.7-7.3 3-3.5 4.5-5.9 4.5-7.4 0-1.5-0.5-1.2-1.2 0.7-0.4 0.9-1.1 2.2-1.6 2.9-1.3 1.8-4.3 5-4.8 5-0.8 0-5.1-2.5-6.4-3.7-1.6-1.5-2.4-3.1-2.8-5.9-0.6-3.5 0.1-5.9 2.8-9.8 1.2-1.8 1.7-2.8 1.5-2.9-0.6-0.2-3.1 2.8-4.3 5.2l-1.1 2.3 0.1 3.6c0.1 4.7 0.4 5.3 4.8 9.8 3.3 3.4 3.5 3.7 3.5 4.8 0 0.9-0.2 1.3-1 2.1-1 1-1.8 1.2-2.8 0.7-0.9-0.5-1.2-1.3-1.4-3.9-0.2-2.2-0.3-2.5-1.4-3.9-1.5-1.9-1.6-2.2-2.7-6.5-0.7-2.9-0.9-4-0.8-6 0.1-3.2 0.8-4.7 3.5-7.3 2.3-2.2 4.1-3.4 7.5-4.9 2.9-1.3 5-1.6 8.1-1.5 3.2 0.2 4.6 0.8 6.8 3.3l1.7 1.9 2.2-0.1c2.1-0.1 2.3 0 2.9 0.7 0.9 0.9 1.1 0.9 2.9 0 2.2-1.1 3.5-1.2 5.2-0.3 0.8 0.4 1.5 0.7 1.6 0.6 0.3-0.3-0.4-1.1-1.3-1.7-0.5-0.3-0.9-0.7-0.9-0.9 0-0.2 0.9-1.5 2-3 1.1-1.5 2-2.8 2-3.1 0-0.2-0.3-1-0.7-1.7-0.9-1.5-0.8-2.1 0.6-4.4 1.2-1.9 1.2-2.7 0.3-4.8-0.4-0.9-0.7-1.9-0.7-2.3 0-0.4 0.1-6 0.1-12.4l0.1-11.7-0.6-0.9c-0.8-1.1-0.8-2.2-0.1-5.4 0.3-1.3 0.6-3.2 0.7-4.1l0.2-1.7 0.9 0.1c0.7 0.1 1.2-0.1 2-0.8 0.6-0.5 1.4-0.9 1.7-0.9 0.8 0 1.5-0.5 3.1-1.9 1.9-1.7 1.8-2.1-0.4-1.5-0.8 0.2-1.1 0.4-1.1 1.1-0.1 0.7-0.2 0.8-1.6 0.8-1.4 0-1.5 0-1.9 0.9-0.3 0.8-0.5 0.9-1.3 0.9-1.5 0-2.2 0.3-2.7 1.2-0.2 0.4-1.2 1.3-2.2 2-1 0.7-2.1 1.5-2.5 1.9-0.4 0.4-1.9 1-3.4 1.5-1.6 0.5-3.7 1.4-5.3 2.4-3.1 1.9-5.3 2.7-8.4 3-1.6 0.2-3.4 0.7-6.4 1.9-3 1.2-4.7 1.7-6 1.8l-1.9 0.2-0.1-0.8c-0.1-0.8-0.2-0.8-1.5-0.8-0.8 0-2.6 0.2-4 0.4-3.4 0.5-6.4 0.1-7.4-0.9-0.7-0.7-2.2-1.2-5.2-1.5-2.2-0.2-2.6-0.5-5.9-3.2-1.5-1.3-3.7-2.8-4.9-3.5-3.8-2.1-4.4-2.6-4.8-4.1-0.5-1.6-1-1.9-1.3-0.7-0.2 1-0.2 1-1.3 0.4-0.5-0.2-1-0.4-1.1-0.3-0.6 0.4-0.2 0.9 1 1.5l1.3 0.6-0.1 4.3c-0.1 3.4-0.3 5-0.9 7.6-0.8 3.5-0.8 3.2-0.3 10.7 0.1 1.8 0 3.2-0.6 6.4-1 5.2-0.9 6 1.2 9.8 3.8 7.2 3.9 7.5 4.1 10.2 0.1 1.3 0 3-0.2 3.7-0.3 1.1-0.4 1.2-1.5 1.5-2.4 0.6-6-0.3-8-2.1-1.6-1.5-2-2.2-2.3-4.5-0.1-1-0.5-2.8-0.9-4-0.5-1.6-0.7-2.8-0.7-4.7 0-2.7 0.3-3.8 1.6-5.3 0.8-1 0.8-1.1 0-3.2-0.5-1.3-0.5-1.3 0.2-2.9l0.7-1.6-0.5-2.2c-0.7-2.8-0.7-3.8 0.1-5.5l0.7-1.4-0.5-1.8c-0.5-1.7-0.5-1.8 0.1-3.5 0.3-1 0.6-1.9 0.6-2.2 0-0.2-0.6-1-1.3-1.7l-1.3-1.3 0.7-1.6c0.6-1.4 0.8-2.2 0.9-5.3l0.2-3.7 1-1.3c0.6-0.7 1.7-1.6 2.6-2.1 1.4-0.8 1.8-0.8 4.4-0.8 2.8 0 2.9 0 5.3 1.3 2.4 1.2 3 1.4 2.7 0.6-0.5-1.3-4.2-2.8-7.3-3l-2.3-0.2 0.9-0.8c0.5-0.5 1.6-1.2 2.5-1.6 1.4-0.7 2-0.8 4.9-0.9 2.9-0.1 3.4 0 4 0.5l0.7 0.6-1.2 0.6c-2.2 1.1-1.8 1.8 0.5 1 2.5-0.8 3.8-0.1 7 4 0.8 1.1 0.9 1.1 1.7 0.8 0.7-0.3 1.3-0.3 2.8 0 3.3 0.5 5 1.9 4.4 3.6-0.6 1.7-0.3 1.9 1.4 0.8 1.1-0.7 1.3-0.7 5.5-0.7 5.6 0 8.8-0.4 10.1-1.1 1-0.6 3.9-1.1 6.4-1.1 1.2 0 1.5-0.2 3.2-1.6 1-0.9 2.1-1.6 2.5-1.7 0.3-0.1 0.9-0.2 1.3-0.3 0.5-0.1 1-0.7 1.8-1.8 1.3-2.1 2.1-2.6 4.5-2.9 1.8-0.2 2.2-0.4 3.6-1.4 1.5-1.1 1.7-1.2 3.5-1.3 1.1 0 2.8-0.3 3.9-0.7 3.1-1 5-0.9 7.2 0.3 3 1.6 4.6 3.9 4.8 7 0.1 1.5 0 1.9-0.7 3.3l-0.8 1.6 0.8 0.9c0.8 0.9 1.7 3.3 1.7 4.7 0 0.4-0.3 1.4-0.6 2.2-0.8 1.9-0.8 3.1 0.2 4.9 0.7 1.3 0.7 1.6 0.4 2.3-0.3 0.7-0.2 1 0.3 1.8 0.6 1 0.6 1.2 0.4 6.2l-0.2 5.2-0.9 1.2c-1.1 1.5-1.1 2.4-0.1 4.1 0.9 1.5 0.9 2.8 0.2 4.8-0.7 1.9-0.7 3.2 0.1 4.3l0.6 0.8-0.8 1.5c-0.9 1.8-1 2.8-0.2 4.3l0.6 1.1-0.8 1.5c-0.4 0.9-1.1 3.4-1.6 5.6-1.2 5.8-3 10.4-5.4 13.9-2 2.9-3.7 3.8-4.3 2.4-0.4-0.9-0.6-0.9-1.9 0-1.3 0.9-3.4 1.6-4.9 1.6-0.8 0-1.2-0.2-1.5-0.7-0.4-0.6-0.5-0.6-1.3-0.4-0.6 0.2-1.1 0.2-2-0.2-1.4-0.5-2.1-0.3-1.3 0.5 0.3 0.3 0.4 0.6 0.3 0.7-0.3 0.3-5.1 0.2-5.8-0.2-1.1-0.6-1.8-2-1.8-3.7 0-0.8-0.1-1.6-0.3-1.6-0.1-0.1-1-0.2-1.8-0.2-1.5 0-1.5 0-2-1.3-1.4-3.3-3.2-4.7-6.5-4.7-1.9 0-4.2 0.6-4.2 1.1 0 0.5 0.6 0.5 2.3 0.1 1.1-0.3 2.2-0.4 2.9-0.3 2.5 0.4 4.8 3.3 5 6.3 0.1 1.7-0.3 3.3-1.8 6.6-0.5 1.1-1.5 3.5-2.3 5.3-1.9 4.7-2.5 5.6-3.6 5.6-0.6 0-1.1-0.3-1.7-0.8z"/>
<path d="m105.6 315.4c-0.1-0.3-0.5-1.6-0.9-3-0.3-1.4-1.7-5.2-2.9-8.6l-2.3-6.1 0-7.1c0-3.9-0.1-8.7-0.2-10.5l-0.3-3.4 1-1.2c0.5-0.6 1.1-1.5 1.2-1.9 0.2-0.7 0-4.3-0.4-7.4l-0.2-1.5 1.4 0.7c0.8 0.4 1.6 0.9 1.8 1.2 0.6 0.7 0.4 2.3-0.6 4.8-1.1 2.8-1.1 4 0.4 6.4l1 1.7v3.9 3.9l1.1 1.6c1 1.5 1 1.6 0.7 2.9-0.3 1.2-0.3 1.4 0.3 2.2 0.5 0.7 0.7 1.5 0.8 3.1 0.2 2 0.3 2.4 1.4 4 1.2 1.6 1.2 1.8 1.1 3.3-0.1 0.9-0.1 2.9 0 4.5 0.1 3.2-0.2 4.1-1.8 6-0.9 1-2.2 1.2-2.7 0.4z"/>
<path d="m154.8 314.7c-0.6-0.2-1.9-0.8-2.8-1.3-2.6-1.5-3.6-1.7-7.1-1.7-2.1 0-3.3 0.1-4.2 0.3-0.7 0.2-1.4 0.3-1.7 0.3-0.2 0-1.3-0.6-2.3-1.4-3.7-2.8-8.9-5.9-10.6-6.4-1.5-0.5-5.2-0.6-6.9-0.3-0.8 0.1-2.5 0.7-4 1.3-1.5 0.6-2.7 1-2.9 0.9-0.3-0.1-0.3-0.4-0.3-2.6 0.1-2.4 0.1-2.5 0.6-2.9 1.4-1.2 4.7-1.9 8.8-1.9 5.2 0 7.4 0.6 10.7 2.9 2.1 1.4 3.2 2 5.6 2.8 1.1 0.4 3.1 1.2 4.5 1.9 1.4 0.7 2.9 1.4 3.4 1.5 0.5 0.1 2.6 0.3 4.7 0.4 3.9 0.2 6.3 0.5 8 0.8 0.7 0.2 1.2 0.1 2.2-0.1 1.3-0.3 1.4-0.3 2.6 0.1 1.3 0.5 2 0.5 2.3 0 0.5-0.8-0.6-1.6-4.7-3.4-5.7-2.6-9.1-3.4-13.6-3.5-2.7 0-2.9 0-4.1 0.6-0.7 0.3-1.4 0.6-1.6 0.5-0.2 0-1.5-0.4-2.9-0.9-2.4-0.8-2.7-0.9-3.6-1.8-1.1-1.1-1.3-2-1-3.1 0.3-1 2.1-3.5 2.8-4 0.3-0.2 2.5-1.4 4.8-2.5 4.1-2 4.3-2.1 5.7-2.2 0.8 0 1.9 0 2.3 0.2 0.5 0.1 2.9 1.3 5.5 2.6 4 2 4.8 2.3 5.9 2.4 1.2 0.1 1.3 0.1 1.9-0.5 1-0.9 1.6-2.4 1.7-4.2 0-3.3-2.6-5.6-7.1-6.4-0.8-0.1-1.5-0.3-1.5-0.5-0.1-0.1-0.2-0.6-0.2-1l0-0.7 1.5-0.1c2.4-0.2 4.6 0 5.8 0.7 1.2 0.7 3.7 3.2 4.6 4.8 1.2 2 1.3 2.5 1.2 6-0.1 3-0.1 3.2-0.6 4.1-0.8 1.3-1.8 2.1-3.1 2.5-1.6 0.5-2.5 0.3-7-1.9-2.1-1-4.4-2-5.1-2.3-2.6-0.9-5.6-0.9-7.6 0.1-2.2 1-4 3.2-4 4.8 0 0.8 0.6 1.8 1.1 1.8 0.5 0 1.1-0.8 1.2-1.7 0.2-1.4 0.9-2.1 2.3-2.1 1.5 0 3.7 0.5 8.3 1.8 8.7 2.6 8.9 2.6 10.7 4.3 2.7 2.5 3 5.7 1 8.3-0.6 0.8-2.3 1.9-3.8 2.5-1.6 0.6-5.7 0.8-7.3 0.3z"/>
<path d="m115.6 294c-4.9-0.6-7.5-3.2-7.2-7.3 0.1-1.4 0.8-3.7 1.2-4 0.1-0.1 1-0.3 2-0.4 3.6-0.5 12.6-3.2 17-5.1 2.6-1.1 3.1-1.2 3.5-0.3 0.4 0.8 1.4 1.1 3.2 1 1.7-0.1 3.5-0.7 7-2.2 2.5-1 2.6-1 4.1-1 3.5 0.2 5.2 1.1 6.2 3.3 1.3 2.8 1.1 4.6-0.4 6-1.6 1.5-2.1 1.6-10.8 1.6-8.8 0-12.1-0.3-12.1-1.1 0-0.7 9.6-3.7 12.5-4 1.5-0.1 3.5 0.3 4.4 0.9 0.5 0.4 0.5 0.4 0.2 1.3-0.3 1.2-0.2 1.9 0.4 1.9 0.9 0.1 2-1.4 2-2.8 0-1.5-2-3-4.8-3.5-2.5-0.5-4.5 0-16.6 4.1-5.3 1.8-10.9 3.5-12.6 4-2.7 0.7-3 0.8-3.1 1.2-0.2 0.9 0.4 1.3 3.6 1.8 2.4 0.4 3.6 0.5 6.6 0.5 4.3 0 6.1-0.3 8.8-1.4 1.9-0.8 2.5-0.8 7.2-0.5 4.2 0.3 4.1 0.3 2.3 1.2-5.8 3-18.9 5.4-24.9 4.6z"/>
<path d="m154.7 277.1c-0.5-0.9-1.3-2-1.9-2.7-0.6-0.6-1-1.1-0.8-1 0.2 0.1 1.1 0.5 2.1 0.9 3.5 1.5 4.9 1.6 5.1 0.4 0.1-0.7-0.4-1-2.5-1.7-1-0.3-1.7-0.6-1.6-0.8 0.1-0.4 3.8-2.7 4.7-3 1-0.3 3.7-0.1 5 0.3 1.2 0.4 1.5 0.9 1.8 2.7 0.7 4.4-1.4 5.8-8.9 6.2l-2.1 0.1z"/>
<path d="m109.7 279.8c-1-0.4-1.6-0.9-2.2-2.1-0.9-1.6-1-2.6-0.7-4.1 0.4-1.5 1-3 1.3-3 0.3 0 2.4 1.7 4.2 3.4 2 1.9 2.8 2.2 4.5 1.8 2.1-0.5 2.4-0.5 3.8 0.1 0.7 0.3 1.5 0.5 1.8 0.5 0.3 0 0.5 0.1 0.5 0.2 0 0.7-8 3.2-11 3.4-0.9 0.1-1.7 0-2.2-0.2z"/>
<path d="m137.9 505.6c-0.1-0.4-0.4-2.2-0.8-4.1-0.7-3.3-0.7-3.4-0.4-3.7 0.1-0.1 0.4-0.4 0.5-0.7 0.3-0.4 0.3-0.5 0.3-4.6 0-2.3 0-8.3-0.1-13.3 0-7.6 0-9.3 0.1-9.8 0.2-0.6 0.2-0.7-0.1-1.5-0.4-1.2-0.5-1.9-0.3-4.8 0.2-3.1 0.1-3.4-0.7-4.6-1.1-1.6-2.1-5.7-2.4-9.7 0-0.5 0-1.7 0-2.5l0.1-1.5 3.6 0.1c4 0.1 6.1 0.1 8.3-0.3 1.7-0.3 2.1-0.3 2.5 0.4 0.2 0.3 0.3 0.7 0.3 1.7 0.1 1.5-0.1 3.1-0.8 6.4-0.6 3-1 4.1-1.8 5.3-0.9 1.4-1 1.7-0.8 2.5 0.3 1 0.3 6 0 6.7-0.3 0.6-0.3 11.8 0 12.9 0.1 0.6 0.1 1.3 0 3.7-0.2 4.5-0.4 6.9-0.6 8.5-0.2 1.4-0.2 1.4 0.1 1.8 0.2 0.3 0.3 0.5 0.2 1-0.1 0.5 0 0.7 0.3 1.4l0.4 0.7-0.8 3.9c-0.6 3-0.8 3.9-1 3.9-0.1 0-0.5-0.1-0.9-0.2-0.9-0.3-2.4-0.3-3.1 0-0.3 0.1-0.8 0.4-1.2 0.6l-0.7 0.4z"/>
<path d="m185.7 556.7c-0.4-0.6-1.2-1-2-1.2-0.7-0.2-1-0.7-1.6-3.2-0.3-1.2-0.7-2.4-0.8-2.6-0.3-0.4-0.3-0.4-0.5-0.1-0.1 0.2-0.3 0.9-0.3 1.7-0.1 1.6-0.3 2.2-0.9 2.5-0.7 0.4-0.8 0.1-0.8-1.4 0-1.5-0.2-1.8-0.7-1.3-0.2 0.2-0.5 0.3-0.6 0.2-0.3-0.1-0.3-0.4-0.2-3.4 0.1-1.8 0.2-3.5 0.2-3.8 0.1-0.4-0.1-0.8-1.2-2.2-1.8-2.5-2-3-2.2-5.1-0.1-1.9-0.3-2.5-1.1-3.3-1.3-1.2-3.9-1.3-4.3-0.1-0.2 0.6 0.1 1.4 1.4 3.1 2.1 2.8 3.9 7 3.9 9 0 0.8 0 0.8-0.6 0.6l-0.6-0.1 0.1 1c0.1 0.5 0.2 1.2 0.2 1.4 0.1 0.4 0 0.3-0.9-0.4-0.6-0.5-1.2-0.9-1.5-1.1-0.7-0.3-1.1-1.4-1.7-4.5-0.3-1.7-0.7-2.7-1.2-3.7-0.7-1.5-1.8-2.9-2.3-2.9-0.4 0-0.3 1.1 0.3 2.8 1.4 4.1 1.3 3.7 1 5-0.4 1.5-0.3 2.2 0.5 2.7 0.9 0.5 2.6 2.1 2.8 2.7 0.1 0.4 0.2 1.2 0.2 2.5-0.1 2.4-0.3 2.8-0.8 1.4-0.2-0.5-0.3-1-0.3-1.2 0-0.1-0.2-0.4-0.4-0.6-0.4-0.4-0.4-0.4-0.6-0.1-0.1 0.2-0.3 0.6-0.3 1 0 0.3-0.1 0.8-0.2 0.9-0.2 0.2-0.2 0.2-0.4 0-0.2-0.3-0.1-1.4 0.1-3.5 0.1-0.9 0.1-0.9-0.3-0.9-0.5 0-1.2 0.7-1.6 1.6-0.3 0.8-0.5 0.4-0.7-1.9-0.3-3.6-0.7-4.8-1.7-4.7-0.7 0.1-0.8 0.4-0.7 3.8 0.1 2.8 0.1 2.9-0.4 3.8-0.3 0.5-0.7 1.1-0.9 1.4-0.4 0.4-0.4 0.4-0.7 0.1-0.1-0.2-0.3-0.8-0.3-1.6-0.1-2.1-0.1-2.1-1.1-2-0.8 0.1-0.8 0.1-0.9-0.5 0-0.4 0.2-1.2 1.1-3 1.8-3.7 1.8-4.1 0.9-5.9-1.1-2.2-1.6-1.7-1.9 1.7-0.1 1.5-0.2 2.2-0.6 2.8-0.5 0.9-2 3.2-2.9 4.1l-0.6 0.6 0.1-1.2c0.1-1.4 0-1.4-1.2-0.9-1 0.4-0.9 0.1 0.5-1.8 1.8-2.4 2.6-4.2 2.6-5.9 0-1.5-0.4-1.7-1.4-0.8-0.7 0.6-1.6 0.9-2.3 0.8-0.6-0.1-1.5-1-1.7-1.6-0.2-0.7 0.1-0.8 1.3-0.7 1.3 0.1 2.8-0.1 3.3-0.6l0.4-0.3-0.4-0.4c-0.2-0.2-0.9-0.6-1.5-0.8-1.5-0.5-2.4-0.9-2.4-1.1 0-0.4 0.9-0.3 1.7 0.1 1.9 0.9 3.2 0.7 3.6-0.5 0.3-0.9 0.7-6.8 0.5-7.5-0.1-0.3-0.3-0.7-0.5-0.8-0.3-0.2-0.4-0.2-0.9 0.1-0.3 0.2-0.8 0.9-1.2 1.4-0.4 0.6-0.8 1.1-0.9 1.1-0.1 0-0.3-0.2-0.5-0.4-0.3-0.4-0.3-0.4-0.9 0-0.3 0.2-0.6 0.4-0.7 0.4-0.3 0-0.1-0.8 0.4-1.8 0.9-1.9 0.7-2.3-1.3-2.4-2-0.1-2.1-0.2-2.1-0.8 0-0.6 0.2-0.7 1.3-0.7 1 0 1.1-0.4 0.1-1.4l-0.8-0.8 0.6 0.1c0.3 0.1 1.3 0.4 2.2 0.8 1.7 0.8 3.2 1 3.9 0.7 0.9-0.5 1.1-2.6 0.4-4.2-0.4-1-4.1-4.5-7.2-7.1-2.4-2-5.3-4.1-5.7-4.3-0.1 0-0.1-0.4 0.1-1 0.1-0.5 0.5-2.2 0.8-3.7 0.3-1.5 0.6-2.8 0.6-2.9 0-0.1 0.5 0.3 1 0.8 1.2 1.1 3.4 2.9 4.1 3.3 0.5 0.2 0.6 0.2 1 0 0.9-0.6 2.1-2.7 2.1-3.7 0-0.5-0.1-0.6-1.3-0.9-0.7-0.2-1.4-0.5-1.5-0.7-0.4-0.5-1.5-1.6-2.1-2.1-0.5-0.4-0.7-1.4-0.6-2.5 0.1-0.5 0.1-0.5 0.9-0.5 0.8 0 0.9 0 1 0.6 0.1 0.3 0.4 0.8 0.7 1.1l0.5 0.5 0.5-0.4 0.5-0.4 0.5 0.6c0.6 0.7 1 0.8 1 0.1 0-0.9-0.5-3.6-0.9-4.4-0.4-0.8-1.2-1.5-2.2-1.9-1-0.4-1.2-0.7-0.6-1.3 0.7-0.6 1.2-0.7 1.7-0.4 0.9 0.6 1.1-0.3 0.4-1.9-0.4-0.8-0.4-1.1-0.3-1.4 0.3-0.5 0.3-0.5 1.2 0.2 0.4 0.3 0.8 0.5 1 0.5 0.4 0 0.2-1.5-0.4-2.3-0.7-1-0.6-1.1 0.3-1 0.7 0.1 0.9 0 1.2-0.3 0.3-0.4 0.4-0.4 0.8-0.1 0.4 0.3 0.7 1 0.7 2.2 0 0.7 0.3 1.3 0.6 1.3 0.4 0 0.8-1.1 0.8-2.5 0-1.2 0.5-2.9 0.7-2.6 0.1 0.1 0.2 0.5 0.3 0.9 0.3 0.9 0.5 1.1 1.6 1.3 1.1 0.2 1.2 0.5 0.3 2-1.1 1.8-1.9 4.5-1.6 5.3 0.2 0.4 0.5 0.1 1.6-1.8 1.1-1.8 1.9-2.9 2.5-3.3 0.3-0.2 0.4-0.2 1.2 0.3 0.5 0.3 1 0.5 1.1 0.5 0.4 0 0.7 0.4 0.7 0.8 0 0.2-0.6 0.9-1.3 1.6-2.3 2.3-6.2 7.4-5.9 7.8 0.1 0.1 0.3 0.1 0.4 0.1 0.6-0.2 2.5-1.6 4.1-3.2 0.9-0.8 2.2-1.9 2.8-2.2 1.8-1.2 2-1.4 3-3 0.9-1.5 1.5-2 2-1.8 0.4 0.1 0.5 1.2 0.2 2.3-0.5 2.2-0.2 2.2 1.7 0.3 0.8-0.8 1.5-1.4 1.7-1.4 0.4 0 0.8 0.5 0.8 0.8 0 0.2-0.4 0.6-0.8 1-1.4 1.3-1.4 2.2-0.1 2.8 0.3 0.1 0.5 0.3 0.5 0.4 0 0.2-0.7 0.5-2.1 0.8-1.4 0.4-2.8 1.1-4.7 2.4-0.8 0.6-2 1.3-2.5 1.6-0.6 0.3-1 0.5-0.9 0.6 0.2 0.4 2.3 0.1 3.8-0.4 1.2-0.4 1.8-0.5 3-0.5 1.6 0 3.1 0.4 3.6 0.9 0.3 0.3 0.3 0.3-0.1 0.5-0.2 0.1-1.3 0.6-2.5 1-2.2 0.8-2.5 1-1.9 1.7 0.3 0.3 0.3 0.3-0.1 0.5-0.5 0.3-1.4 0.2-3.3-0.1-2-0.4-2.7-0.3-4.8 0.7-2.6 1.2-2.6 1.6 0 1.1 3.5-0.6 4.8-0.3 6.6 1.2 1.4 1.2 1.7 1.2 3-0.2 1-1.1 2.6-1.9 3.4-1.8 0.4 0.1 0.5 0.1 0.4 0.6-0.1 0.5 0 0.6 0.5 0.6 0.3 0 1.3-0.5 2.5-1.2 2.1-1.2 2.8-1.4 2.9-0.7 0.1 0.4 0.1 0.4 1.7 0.4 1.3 0 1.7 0.1 2 0.3 0.5 0.5-0.2 1.3-1.6 1.7-1.3 0.4-2.1 0.8-2.1 1 0 0.1 0.3 0.4 0.7 0.5 1.3 0.5 1 0.7-2.6 1.7-3.1 0.9-3.6 0.9-6.6 0.4-2-0.3-3.8 0.1-4.1 0.8-0.2 0.4 0.4 0.9 1.1 1.1 0.7 0.1 0.9 0.3 0.6 0.7-0.3 0.3-1.7 0.3-3.8 0-2.3-0.4-3-0.3-4.6 0.2-0.7 0.3-1.5 0.4-1.7 0.4-0.2-0.1-0.6-0.8-1-1.6-0.4-0.8-0.9-1.7-1.1-1.9-0.4-0.5-1.3-0.5-1.9-0.1-0.5 0.4-1.1 1.5-1.2 2.5-0.1 0.8-0.1 0.8 0.9 1.7 1 1 3.7 2.8 4.9 3.5 1.3 0.7 1.8 0.5 3.3-1.3l1-1.2 0.7 0.7c1.4 1.3 2.2 1.2 6.8-0.9 3.3-1.5 4.5-2 5.3-2.2l0.5-0.1-0.1 1.7c-0.1 2-0.3 2.4-1.1 2.9-0.7 0.4-0.7 0.5-0.2 0.9 0.4 0.3 0.4 0.3 0 0.4-0.2 0.1-1.2 0.2-2.1 0.3-2.5 0.3-2.8 0.3-3.1 0.6-0.2 0.2-0.2 0.4-0.1 0.6 0.2 0.3 0.4 0.3 1.4 0.3 1.3 0 2.2 0.3 2.4 0.8 0.1 0.2 0.1 0.6 0.1 1 0 1.4 0.6 2 2.1 2 1.3 0 2.1-0.6 3.6-2.6 1.7-2.2 2-2.4 3.3-2.1 1.8 0.4 4.4 1.9 4.1 2.4-0.1 0.1-1.1 0.6-2.3 1.2-1.2 0.6-2.3 1.1-2.3 1.2-0.1 0.2 0.3 0.7 1.3 2 0.2 0.3 0.3 0.6 0.3 0.8-0.2 0.4-1.4 0.4-2.3-0.2-0.7-0.3-0.9-0.4-1.2-0.3-0.5 0.3-0.4 0.6 0.5 1.4l0.8 0.8-1.1 0.1c-1.4 0.1-1.6 0.3-1 1.1 0.5 0.5 0.5 0.6 0.2 0.7-1.1 0.4-3.7 0-5.1-0.9-1.6-1-2.5-1.4-3.1-1.4-0.3 0-0.6 0.1-0.6 0.2 0 0.1 0.5 0.7 1.2 1.3 0.6 0.6 1.2 1.2 1.2 1.3 0 0.3-0.8 0.6-1.4 0.5-0.9-0.2-2.8-1.3-3.9-2.3-0.6-0.5-2-2.1-3.2-3.5-1.1-1.4-2.3-2.6-2.6-2.8-0.6-0.3-2.2-0.2-3.3 0.1-0.8 0.3-0.7 0.8 0.4 1.4 1.6 0.9 3.9 2.7 6.9 5.6 1.7 1.7 4 3.2 6.6 4.5 3.6 1.8 4.5 1.6 4.5-0.9 0-0.5 0-0.8 0.1-0.8 0 0 0.6 0.3 1.3 0.6 0.7 0.3 1.4 0.6 1.6 0.6 0.4 0 0.4 0 0.3 0.8-0.1 0.4-0.1 0.9-0.2 1-0.1 0.3 0.1 0.8 0.4 0.8 0.5 0 0.2 0.3-0.6 0.7-1.5 0.7-0.7 1.6 1.3 1.6 1.2 0 2.5-0.7 3-1.6 0.2-0.4 0.5-0.6 0.6-0.6 0.1 0 0.5 0.5 0.9 1.1 0.7 1 0.7 1 0.4 1.3-0.5 0.4-0.1 1 0.9 1.7 0.5 0.3 0.9 0.6 0.9 0.6 0 0-0.1 0.2-0.2 0.4-0.4 0.4-0.2 1.1 0.5 2 0.2 0.3 0.5 0.7 0.5 0.9 0 0.3-0.1 0.4-0.6 0.4-0.9 0.1-1.9-0.3-3.4-1.2-0.7-0.5-1.9-1.1-2.5-1.4-0.6-0.3-1.8-1.1-2.7-1.7-2.7-2-4.6-2.8-4.6-1.9 0 0.7 0.9 2.1 1.7 2.8 0.8 0.7 1.3 1.5 1.1 2-0.2 0.4-1.3 0.3-1.9-0.2-0.6-0.5-0.9-0.6-0.9-0.2 0 0.5 1 2.4 1.6 3 1.1 1.1 1.9 1 2.9-0.5 0.6-0.9 1.4-1.4 1.7-1.2 0.1 0.1 0.2 0.4 0.2 0.9 0 1 0.3 1.2 2.7 1.9 1 0.3 2 0.7 2.1 0.8 0.2 0.2 0.4 0.6 0.4 1 0.1 0.4 0.2 0.8 0.2 1 0.1 0.3 0 0.3-1.2 0.2-1.6-0.1-2 0.1-1.5 0.7 0.4 0.4 0.5 0.9 0.4 1.7-0.1 1.1-1.9 0-2.8-1.8-0.8-1.4-1.3-2.1-2.2-2.7-1.1-0.7-1.9-0.7-2.1 0-0.1 0.4 0.1 0.9 0.9 2.5 1 2 2.4 4 4.7 6.7 1.3 1.5 2.2 3 1.9 3-0.1 0-0.4 0-0.8 0-0.6 0-0.6 0-0.7 0.9-0.1 0.5-0.2 1-0.4 1.1-0.3 0.3-0.3 0.2-0.7-0.2z" style="fill:#808080;"/>
<path d="m96.2 556.9c0-0.1-0.1-0.4-0.2-0.8-0.2-0.8-0.4-1.1-0.9-1.1-0.2 0-0.5-0.1-0.5-0.3-0.2-0.4 1.9-3.2 4-5.5 1-1.1 1.9-2.5 2.7-4.5 1-2.4 0.5-3.1-1.3-2.2-1 0.6-1.6 1.3-2.5 2.9-0.7 1.2-1.5 2-2.2 2-1 0-1.1-0.8-0.3-1.7 0.3-0.3 0.5-0.8 0.5-0.9 0-0.3-0.1-0.3-1.4-0.2l-1.4 0.1 0.1-0.7c0.3-1.6 0.4-1.7 3-2.4 1.6-0.4 2.3-0.9 2.3-1.7 0-1.4 0.8-1.3 1.8 0.3 0.2 0.3 0.5 0.6 0.8 0.8 0.7 0.4 1.6 0.1 2.6-0.9 0.8-0.8 1.5-2.2 1.3-2.4-0.2-0.3-0.7-0.1-1.2 0.2-0.5 0.4-1.6 0.4-1.7 0-0.1-0.4 0.7-1.5 1.4-1.9 0.5-0.3 0.7-0.6 0.9-1.3 0.3-1.1 0.3-1.5 0-1.7-0.4-0.2-2.7 1.1-4.3 2.3-0.8 0.6-2.1 1.4-3 1.9-0.9 0.5-1.8 1.1-2.1 1.4-0.3 0.3-0.9 0.6-1.4 0.8-1 0.3-2.4 0.4-2.5 0.1-0.1-0.1 0.2-0.6 0.5-1.1 0.7-1 0.9-1.7 0.6-1.9-0.4-0.3-0.2-0.8 0.8-1.4 0.9-0.6 1.2-1.2 0.8-1.5-0.1-0.1-0.2-0.3-0.2-0.4 0-0.4 1.2-2 1.5-2 0.1 0 0.3 0.3 0.5 0.6 0.5 1.2 3.1 1.9 4.6 1.2 0.9-0.4 0.7-0.9-0.6-1.4l-1-0.4 0.6-0.3c0.7-0.3 0.8-0.6 0.4-1.6-0.4-0.9-0.3-0.9 0.3-0.8 0.4 0.1 0.6 0 0.8-0.2 0.2-0.2 0.6-0.4 0.9-0.5 0.3-0.1 0.7-0.3 0.8-0.5 0.3-0.5 0.5-0.2 0.7 1.1 0.2 1.3 0.2 1.4 0.8 1.6 1.4 0.5 7-2.6 10.4-5.8 3.3-3.1 6-5.2 7-5.5 0.5-0.1 0.8-0.5 0.6-1-0.2-0.7-2.9-0.9-4.1-0.3-0.3 0.2-1.3 1.2-2.3 2.4-2.6 3.2-5.1 5.4-7 5.9-0.8 0.3-1.7 0-1.7-0.4 0-0.1 0.6-0.8 1.3-1.4 0.7-0.6 1.3-1.2 1.3-1.3 0-0.1-0.3-0.2-0.6-0.2-0.6 0-1.8 0.6-3.4 1.6-1.4 0.9-3.2 1.2-4.8 0.7l-0.7-0.2 0.5-0.3c1-0.5 0.3-1.1-1.4-1.1l-0.8 0 0.9-0.8c1.6-1.5 1.4-2.1-0.6-1.3-2.3 1-3 0.4-1.5-1.3 0.5-0.5 0.8-1 0.8-1.2 0-0.2-0.8-0.7-2.2-1.4-1.2-0.6-2.2-1.2-2.2-1.3-0.1-0.4 1.1-1.4 2.2-1.8 2.2-0.8 3.5-0.6 4.4 0.7 0.8 1.1 2.4 2.7 3.1 3.1 0.8 0.4 2.2 0.5 2.8 0.1 0.3-0.2 0.4-0.4 0.4-1.3 0-0.8 0.1-1.1 0.4-1.4 0.5-0.5 1.3-0.8 2.2-0.8 1 0 1.3-0.1 1.3-0.5 0-0.5-0.5-0.7-3-1-1.3-0.2-2.4-0.4-2.5-0.5-0.1-0.1-0.1-0.2 0.1-0.2 0.5 0 0.3-0.7-0.3-1-0.8-0.5-0.9-0.9-1-2.4-0.1-2-0.1-1.9 0.6-1.8 0.3 0.1 2.1 0.8 4 1.6 4 1.8 5.8 2.5 6.6 2.3 0.3-0.1 0.9-0.4 1.3-0.7 0.4-0.3 0.8-0.6 0.9-0.6 0.1 0 0.7 0.6 1.4 1.3 0.7 0.8 1.4 1.3 1.6 1.3 0.8 0 3.9-2 5.8-3.8 1-0.9 1.2-1.1 1.2-1.7 0-1.3-1.1-3.1-1.9-3.1-0.9 0-1.4 0.5-2.3 2.2-0.4 0.9-0.9 1.7-1.1 1.8-0.2 0.1-0.9-0.1-1.7-0.4-1.5-0.6-1.8-0.6-5.4-0.1-3.1 0.5-4.1 0.1-2.2-0.9 1.1-0.5 1.2-0.9 0.6-1.5-0.3-0.3-0.7-0.3-2.3-0.3-1 0-2.7 0.1-3.7 0.2-1.8 0.1-1.8 0.1-4.3-0.6-2.4-0.7-3.3-1.1-3.3-1.4 0-0.1 0.3-0.3 0.7-0.4 1.1-0.4 0.8-0.8-1.3-1.6-0.6-0.2-1.3-0.6-1.5-0.8-0.4-0.4-0.4-0.4-0.1-0.8 0.3-0.3 0.5-0.3 1.3-0.3 1.9 0.2 1.8 0.2 2.1-0.3 0.4-0.9 0.6-0.9 3.4 0.9 1.8 1.1 2.4 1.3 2.4 0.5 0-0.7 0.4-1 1.1-0.8 0.6 0.1 1.1 0.5 3.5 2.4 0.6 0.5 1.1 0.7 1.3 0.7 0.2-0.1 0.6-0.5 0.9-0.9 1-1.2 1.9-1.6 4.1-1.5 1 0 2.3 0.1 3 0.3 0.7 0.1 1.3 0.2 1.4 0.1 0.5-0.3-2.6-2-4.2-2.2-0.4-0.1-1.3 0-2.1 0.2-1.5 0.3-3.1 0.4-3.5 0.1-0.2-0.1-0.2-0.2 0-0.6 0.2-0.5 0.2-0.5-0.2-0.9-0.3-0.2-1-0.5-1.7-0.7-3.4-0.8-3.5-1.9-0.2-2.3 1.5-0.2 2.9 0 4.8 0.7 1.1 0.4 2.4 0.5 2.6 0.1 0.3-0.3 0.1-0.6-0.8-0.9-0.4-0.2-1.6-0.9-2.7-1.6-2.5-1.6-2.8-1.8-4.3-2.2-1.3-0.3-1.9-0.6-1.9-0.8 0-0.1 0.3-0.3 0.7-0.4 0.6-0.2 0.7-0.4 0.7-0.9 0-0.5-0.2-0.8-1-1.6-1.1-1.1-1.2-1.5-0.5-1.9 0.6-0.4 0.8-0.2 2.5 1.6 0.7 0.8 1.4 1.4 1.4 1.4 0 0 0-0.9-0.1-2-0.2-1.9-0.1-2.5 0.3-2.5 0.4 0 2.1 1.9 2.5 2.8 0.2 0.6 0.6 0.9 1.1 1.3 1.6 1 2.1 1.4 4 3.1 2.5 2.3 4.1 3.4 4.5 3 0.3-0.3-2.8-4.5-5.5-7.5-0.9-0.9-1.6-1.9-1.6-2.1 0-0.3 0.2-0.4 0.7-0.5 0.4-0.1 1-0.3 1.2-0.5 0.3-0.2 0.6-0.4 0.8-0.4 0.5 0 1.2 0.9 2.3 2.7 0.5 0.9 1.2 1.8 1.4 2 0.5 0.4 0.9 0.3 0.9-0.4 0-0.8-1-3.3-1.8-4.7-0.9-1.4-0.9-1.8 0-1.8 1 0 1.5-0.4 1.8-1.3 0.2-0.5 0.4-0.9 0.4-1 0.3-0.2 0.6 0.8 0.7 2.7 0.1 2 0.3 2.6 0.8 2.6 0.3 0 0.8-1.1 0.8-1.9 0-0.9 0.3-1.8 0.6-1.8 0.1 0 0.5 0.1 0.7 0.3 0.3 0.2 0.7 0.2 1.1 0.2l0.6-0.1-0.4 1.9c-0.2 1.1-0.4 2-0.3 2 0.1 0.1 0.5-0.2 0.9-0.6 0.5-0.4 0.9-0.7 1-0.7 0.3 0 0.4 0.6 0.1 1.6-0.3 1.1-0.4 1.8-0.2 2 0.1 0.1 0.4 0 0.7-0.2 0.6-0.3 0.6-0.3 1.4 0.3l0.8 0.6-1.2 0.8c-1.6 1.1-2.1 1.6-2.4 2.4-0.3 0.7-0.6 3.2-0.6 4.4l0 0.6 0.7-0.8c0.7-0.7 0.8-0.7 1-0.5 0.5 0.7 1.9-0.4 1.9-1.5 0-0.3 0.1-0.4 1.1-0.4 1.2 0 1.2 0 0.9 1.1-0.2 0.5-0.2 0.8 0 1.1 0.2 0.4 0.2 0.5-0.6 1-0.5 0.3-1.2 1-1.7 1.4-0.5 0.5-1.1 1-1.6 1.1-1.2 0.4-1.7 0.9-1.5 1.7 0.2 1.3 1.6 3.2 2.2 3.2 0.5 0 2.2-1.2 3.9-2.7 1.4-1.2 1.5-1.2 1.6-0.9 0.1 0.2 0.4 1.9 0.7 3.7 0.3 1.8 0.7 3.4 0.7 3.6 0.1 0.2-0.6 0.8-2 2-3.4 2.7-8.1 6.8-9.3 8.1-1.3 1.4-1.5 1.7-1.5 3.2 0 3 1.3 3.6 4.4 2.1 0.9-0.4 2-0.9 2.4-0.9l0.8-0.1-0.7 0.5c-0.7 0.5-1.1 1.1-0.9 1.5 0.1 0.1 0.6 0.2 1.1 0.2 0.6 0 1.1 0.1 1.3 0.2 0.5 0.3-0.2 0.5-1.6 0.5-1.8 0-2.6 0.3-2.6 0.9 0 0.3 0.2 1 0.5 1.6 0.3 0.6 0.5 1.3 0.5 1.5 0 0.4-0.4 0.4-1 0-0.4-0.3-0.5-0.3-0.9 0.1l-0.4 0.4-0.7-1.2c-1.2-1.8-2-2.2-2.6-1-0.3 0.5-0.3 0.9-0.2 2.4 0.2 2.6 0.7 5.6 1.1 6 0.4 0.5 1.5 0.4 2.8-0.1 1.2-0.5 2.5-0.6 2-0.2-0.1 0.1-1.1 0.5-2 0.9-1.9 0.7-2.3 0.9-2.1 1.3 0.2 0.6 1.2 0.9 3 0.9 1 0 1.8 0 1.9 0.1 0.3 0 0.1 0.8-0.5 1.3-1.2 1.2-2.9 1.2-3.7 0-1.3-2.1-1.6 1.7-0.4 4.3 0.3 0.6 1.1 1.8 1.8 2.6 0.7 0.8 1.3 1.6 1.3 1.7 0 0.3-0.5 0.3-1.2-0.2-0.5-0.3-0.6-0.3-0.8-0.1-0.2 0.4-0.2 0.9 0.1 1.8 0.1 0.4 0.3 0.8 0.3 0.8 0 0.5-2.8-3.2-3.5-4.6-0.3-0.7-0.6-1.5-0.7-3-0.1-1.1-0.3-2.3-0.4-2.5-0.3-0.7-0.8-0.6-1.4 0.4-1 1.6-0.8 2.9 1 6.7 0.6 1.3 1 2.4 1 2.7-0.1 0.4-0.2 0.4-0.9 0.5-0.5 0-0.9 0.1-1 0.3-0.1 0.1-0.2 0.8-0.2 1.5-0.1 0.7-0.2 1.5-0.3 1.7l-0.2 0.4-0.5-0.5c-0.3-0.3-0.7-0.9-0.9-1.4-0.3-0.8-0.4-1.2-0.3-4.1 0.1-3.5 0-3.7-0.8-3.5-0.7 0.2-1.1 1.3-1.4 4.1-0.2 2.1-0.5 3.2-0.7 3.2 0 0-0.2-0.4-0.4-0.9-0.4-1.1-0.6-1.4-1-1.4-0.6 0-0.8 0.6-0.4 2 0.3 1.5 0.3 2.5-0.1 2.5-0.2 0-0.3-0.3-0.4-0.9-0.1-0.5-0.2-1-0.2-1.1-0.4-0.6-1 0.1-1.3 1.5-0.1 0.8-0.4 1.3-0.6 1.3-0.3 0-0.5-1.3-0.5-2.5 0-1.6 0.4-2.5 2.2-4.3 1.4-1.5 1.5-1.6 1.5-2.3 0-0.4-0.1-1-0.3-1.2-0.4-0.7-0.3-1.1 0.5-3.2 1.3-3.3 1.6-4.5 0.9-4.5-0.4 0-1.5 1.3-2.1 2.5-0.6 1.2-1 2.4-1.4 4.9-0.2 1.1-0.5 2.2-0.7 2.5-0.4 0.6-2.7 2.8-3.2 3.1-0.3 0.2-0.3 0.1-0.2-0.3 0.1-0.3 0.2-0.8 0.4-1.2 0.4-1.1 0.3-1.2-0.3-1.1l-0.6 0.1 0.1-1.4c0.2-2.4 1.4-5.2 3.5-8.1 2.1-2.8 1.9-4.1-0.7-4.1-0.9 0-1 0.1-1.8 0.7-0.4 0.4-0.9 0.9-1 1.1-0.1 0.2-0.3 1.2-0.3 2.2-0.1 2.1-0.3 2.4-2.1 5.1l-1.2 1.7 0.2 2.9c0.2 2.8 0.1 4.3-0.2 4.8-0.1 0.2-0.2 0.2-0.7-0.1-0.3-0.2-0.6-0.3-0.7-0.2-0.1 0.1-0.1 0.6-0.1 1.2 0.1 1.2-0.1 1.7-0.8 1.5-0.4-0.1-0.4-0.2-0.8-2.4-0.5-3-0.8-2.8-1.7 1.1-0.6 2.7-0.8 3.1-1.8 3.1-0.3 0-0.8 0.2-1.3 0.7-0.8 0.7-1.1 0.8-1.2 0.6z" style="fill:#808080;"/>
<path d="m603.4 317c-3.9-0.8-7.3-3.4-8.8-6.7-0.6-1.3-1.5-4.9-2-8.3-0.5-3.1-0.5-8.7-0.1-10.8 1-4.5 2.8-7.9 6.2-11.2 2.1-2.1 3.7-3.3 5.5-4.2 1.4-0.7 1.4-0.7 3.5-0.7 2.5-0.1 3.2 0.1 5.4 1.2 3.9 1.9 6.2 6.4 5.4 10.2-0.3 1.3-1.2 3-2 3.8-0.8 0.8-2 1.3-3.9 1.5-2.4 0.3-2.6 0.4-3 1.3-0.4 1-0.6 3.9-0.3 5.4 0.3 1.4 0.8 2.3 2.4 4.4 0.7 1 1.5 2.1 1.7 2.5 1.6 3.2-0.3 8.4-3.8 10.7-1.6 1-4 1.4-6.3 0.9zm2.1-13.3c2-2 2.5-2.6 2.5-2.9 0-0.3-0.1-0.4-0.8-0.4-1.8 0-5 3.2-5 5 0 0.4 0.3 0.8 0.6 0.8 0.1 0 1.4-1.1 2.8-2.5zm3.3-12.8c0.2-0.2-0.2-0.9-0.8-1.4-0.7-0.6-4.5-3-4.6-3-0.1 0-0.2 0.1-0.3 0.2-0.3 0.4 0.1 1.5 0.9 2.3 1.3 1.4 4.2 2.5 4.9 1.9z"/>
<path d="m658.5 317c-2.9-0.8-5-3.2-6-6.6-0.3-1-0.3-1.5-0.3-2.6 0.1-1.8 0.4-2.5 2.2-4.8 2.2-2.9 2.5-3.7 2.5-6.6 0-2.1-0.2-3.3-0.7-3.9-0.3-0.4-0.6-0.4-2.2-0.6-2.4-0.3-3.2-0.6-4.2-1.5-1.4-1.3-2.4-4-2.3-6.2 0.2-2.2 1.1-4.2 3-6.1 1.3-1.3 2.6-2.1 4.6-2.8 1-0.3 1.4-0.4 3.3-0.3 2.1 0.1 2.2 0.1 3.4 0.6 2.3 1.1 5.2 3.4 7.3 6 2.3 2.7 3.6 5.3 4.4 8.7 0.6 2.4 0.7 7.4 0.3 10.5-0.6 4.2-1.5 8.1-2.5 10-1.4 2.7-4.3 5-7.6 5.9-1.5 0.4-4.2 0.6-5.2 0.3zm5.5-11.5c0.1-1.8-3.2-5.2-5.1-5.2-0.6 0-0.8 0.4-0.6 0.9 0.1 0.2 1.2 1.3 2.5 2.6 1.9 1.8 2.5 2.3 2.7 2.3 0.3 0 0.4-0.2 0.4-0.7zm-4.2-14.9c1.8-0.7 3.1-2 3.3-3.2 0.1-0.6-0.2-1-0.6-0.9-0.2 0.1-1.3 0.8-2.6 1.6-2.5 1.6-3.1 2.3-2.6 2.8 0.3 0.3 1 0.2 2.4-0.3z"/>
<path d="m646.6 317.4c-0.2-0.2-0.5-0.6-0.7-1-0.3-0.6-0.3-1-0.4-4.3 0-2.6 0-3.8 0.2-4.3 0.1-0.4 0.8-2 1.6-3.6 1.6-3.4 1.8-3.9 2.2-6.6 0.5-3.1 0.6-3.5 1.8-4.7 0.5-0.6 0.8-0.7 1-0.6 0.2 0.1 0.9 0.2 1.7 0.2 0.8 0 1.5 0.2 1.7 0.3 0.4 0.3 0.6 1.5 0.6 3.4 0 3-0.4 3.9-3 7.1-0.3 0.3-0.7 1.1-1 1.7-0.3 0.8-0.5 1-0.5 0.8-0.1-0.2-0.2-0.1-0.4 0.5-0.8 1.8-1.1 3.2-1.3 5.5-0.2 3.1-0.3 3.6-0.7 4.5-0.5 1.1-0.7 1.3-1.6 1.3-0.6 0-0.9-0.1-1.1-0.3z"/>
<path d="m617.7 317.7c-0.4-0.2-1-1.5-1.2-2.5-0.1-0.5-0.2-1.9-0.3-3-0.1-1.4-0.2-2.5-0.5-3.4-0.5-1.8-1.2-3.2-1.3-3-0.1 0.1-0.2-0.1-0.5-0.7-0.2-0.5-0.6-1.3-1-1.8-2.7-3.3-2.8-3.7-2.8-7 0-3.5 0.2-3.8 2.6-3.8 0.5 0 1.1-0.1 1.3-0.2 0.3-0.1 0.4 0 1.1 0.7 1 1 1.3 2 1.7 4.8 0.3 2.4 0.7 3.4 2.2 6.6 0.8 1.6 1.4 3.1 1.5 3.8 0.2 0.7 0.2 2.1 0.2 4.2 0 2.9 0 3.1-0.4 3.9-0.2 0.4-0.5 1-0.6 1.1-0.3 0.3-1.6 0.6-2 0.4z"/>
<g transform="matrix(0.07461733 0 0 0.07461733 440.17131 151.49571)">
<path d="m-850.4 146.2c0 0 16.4 117.9-1.4 176.5-15.1 49.5-37.2 91.2-38.1 142-1.1 56.3 27.7 91.4 42.2 146.5 10.8 41.1 9.3 84.8 11.2 126.1 1.9 41.3 108.9 31 107 0.4-1.9-30.5 0.5-134.1 12.9-200.3 6.2-33 32.5-64.1 30.6-97.3-2.3-40.2-40.8-74.6-50.3-114.1-14.2-59.7-15.7-182.2-15.7-182.2-37.4-23.5-62.8-13.1-98.4 2.5z"/>
</g>
<path d="m394.7 185c-2.7-5 3.3-16.4 7.2-15.6-1.2-2.6-1.3-2.2-3.2-5 0.7-0.7 5.3-3.8 5.7-1.9 1.1 4.4 0.6 4.3 1.6 4.8 2.1 1 1.5-1.9 0.9-5.8-0.2-1.4 5-1.5 4.5-0.2-0.6 1.6-1.6 6.3-0.2 5.3 1.4-1 1.4-3.5 2.7-4.1 1.2-0.5 1.8 0.2 2.5 1.3 0.6 1.2-1.1 2.7-0.7 4 0.7 2.5 2 3.3 3.2 5.6 1.2 2.4 3.4 4.8 3.7 9 0.3 4.2-3.6 3-2.9 5.3 1.2 3.6-2.5-5.6-3.9-8.3-0.6-1.1-0.8-3.1-2-3.2-2-0.2-5.7 0.5-6.3 0.9-3.5 2.8-4.1 4-6.4 7.5-1.2 1.9-4.9 2-6.4 0.4z"/>
<path d="m386.5 192.5c-6.5-7.5-0.1-12.1 6.1-13.8 2.8-0.7 5.3 2.8 8.1 2.5 3.9-0.4 8.4-6.9 12.3-6.6 1.7 0.1 3.9 1.6 4.8 3.1 3 4.5 0.9 11.1 1.9 16.9 1.1 5.6 2.2 13.6-2.2 17-5.7 4.4-15.9 1.2-20.9-4-4.7-4.8-6-10.8-10.3-15z" style="fill:#808080;"/>
<path d="m411.7 173.5c-4.5 0.8-6.7 6.1-11.4 6.4-3.3 0-5.8-3.5-9.2-2.8-4.9 0.2-8.3 1.8-9.7 6.2-1 4.3 0.3 6.6 2.4 8.9 5.3 5 7.2 12.6 12.7 17.4 5 4.3 11.7 6.8 18.3 6 3.6-0.4 7.3-2.6 8.3-6.3 1.7-5.8 0-11.8-0.9-17.6-0.8-5.3-0.9-11.1-4.4-15.4-1.6-1.6-3.8-3.1-6.2-2.8zm-1 3c5.7-0.6 8.9 4.7 0.1 13.2 8.3-6.3 8.1 1.9 9.2 6.6 0.7 4 1.1 8.3-0.4 12.2-0.9 2.3-2 5-4.2 1.4-3.7-5.9-8.1-15.7-5.2-19.2-4.1 0.8-12.8-4.2-11.8 3.4 1.3-2.2 1.7-4.2 4.1-3.6 3.1 0.8 3.3 5 4.6 7.7 1.1 4 3.2 8.4 2.1 12.5-0.5 2-3.4 1.3-5.2 0.5-4.4-1.8-8.1-4.9-10.5-9-2.1-3.3-2.2-5.2 3-7.3-3.7-0.8-13.3-0.3-11.4-10.2 0.8-4.4 5.3-5.4 8.5-4.9 3.4 0.5 5.3 3.4 8.5 2.3 3.2-1.1 5.4-5.1 8.8-5.7z"/>

<!--Title-->
<svg id="AnnotDivLn-P00X-ID0" x="0%" y="0%">
<svg width="18%" height="24%">
<svg class="button" id="BtnContainerP00XBtnID0">

<rect id="P00XBtnImgId0B" class="circle btnCon" x="-5%" y="25%" width="100%" height="43%" fill="white" rx="15" ry="15"/>

<svg id="P00XBtnImgId0T" class="btnTon" x="0%">
<svg viewBox="0 0 400 400">
<g transform="scale(0.365, 0.365)">
<g transform="translate(-60, 300)">
<path id="P00XDigitPath0DH" d="m 106.53335,354.43 c 0.0327,-1.22648 3.95043,-20.89477 8.70605,-43.70731 l 8.64657,-41.47736 H 106.26006 88.63415 v -15.16376 -15.16376 h 20.48169 c 19.77057,0 20.51455,-0.13933 21.42801,-4.01394 4.93098,-20.91544 14.54246,-70.95318 13.7762,-71.71944 -0.53758,-0.53758 -13.28683,-0.97742 -28.33166,-0.97742 H 88.63415 v -14.27178 -14.27178 h 31.09929 c 28.09308,0 31.18455,-0.30178 31.98126,-3.12195 0.48508,-1.71707 4.68591,-21.78676 9.33518,-44.599302 l 8.45322,-41.477352 h 14.65485 14.65485 l -8.64657,41.477352 c -4.75562,22.812542 -8.67334,42.882232 -8.70606,44.599302 -0.0545,2.86293 2.67878,3.12195 32.94401,3.12195 18.15192,0 33.00349,-0.28689 33.00349,-0.63753 0,-0.35065 3.13928,-15.80431 6.97617,-34.341471 3.8369,-18.537156 7.90775,-38.319951 9.04634,-43.961763 l 2.07018,-10.25784 h 14.71459 14.7146 l -8.53918,41.477352 c -4.69654,22.812542 -8.56526,42.882232 -8.59718,44.599302 -0.0514,2.76903 1.95873,3.12195 17.78172,3.12195 h 17.83973 v 14.27178 14.27178 h -20.41039 c -11.61869,0 -20.88311,0.76485 -21.5078,1.77563 -1.26052,2.03957 -15.16892,68.33931 -15.16892,72.3085 0,2.20346 4.59889,2.62667 28.54355,2.62667 h 28.54356 v 15.16376 15.16376 h -32.07752 c -31.79897,0 -32.08563,0.0348 -33.01331,4.01394 -0.51469,2.20767 -4.18379,20.06969 -8.15355,39.69338 -3.96976,19.6237 -7.66491,37.48572 -8.21144,39.69338 -0.92577,3.73956 -1.95602,4.01394 -15.07208,4.01394 -11.14262,0 -14.07838,-0.54222 -14.07838,-2.60025 0,-1.43014 3.61255,-19.97231 8.02788,-41.20483 4.41533,-21.23251 8.02787,-39.7307 8.02787,-41.10707 0,-2.05715 -5.87315,-2.50249 -33.00348,-2.50249 -18.15192,0 -33.00349,0.38179 -33.00349,0.84843 0,0.96898 -15.4987,76.4409 -16.95271,82.55227 -0.8916,3.74754 -1.89993,4.01394 -15.19277,4.01394 -10.23264,0 -14.22106,-0.6273 -14.17831,-2.22997 z M 226,238.1287 c 0,-0.434 3.21115,-16.13465 7.13589,-34.89033 3.92474,-18.75568 7.13589,-35.66052 7.13589,-37.5663 0,-3.30201 -1.50609,-3.46506 -32.00621,-3.46506 -17.60342,0 -32.43574,0.69498 -32.96072,1.54441 -1.12738,1.82415 -15.31182,69.21293 -15.31182,72.74488 0,1.95211 6.39768,2.42151 33.00349,2.42151 18.15191,0 33.00348,-0.3551 33.00348,-0.78911 z"/>
</g>
</g>
</svg>

<svg viewBox="0 0 400 400">
<g transform="scale(0.37, 0.37)">
<g transform="translate(175, 300)">
<path id="P00XDigitPath0D1" d="m 176.29871,358.09364 c -20.50105,-4.98061 -40.58042,-19.4385 -52.24756,-37.62016 -16.78007,-26.14946 -24.3114,-62.90261 -24.32214,-118.69282 -0.0129,-66.9279 9.87082,-104.020609 34.95564,-131.185517 11.48468,-12.437011 21.5433,-18.838934 37.30911,-23.745809 13.8716,-4.317323 38.89165,-4.60793 54.26264,-0.630255 35.36819,9.152511 59.62952,40.96431 70.28468,92.158211 3.74795,18.0075 5.36057,80.44329 2.72153,105.36883 -6.88364,65.01493 -31.83287,102.85216 -75.28112,114.16897 -12.50815,3.25796 -34.66589,3.34093 -47.68278,0.17858 z M 216,328.04735 c 19.90951,-6.43005 35.6255,-27.23126 41.55812,-55.00504 5.14304,-24.07729 7.2635,-67.9449 4.89102,-101.18417 -3.40139,-47.65466 -10.47467,-69.05748 -28.04226,-84.852257 -21.47364,-19.306642 -50.85858,-18.763028 -70.93387,1.312258 -10.9745,10.974495 -15.80865,21.895169 -21.75097,49.136779 -3.28055,15.03916 -3.83468,24.06633 -3.9067,63.64306 -0.12617,69.32152 5.0892,92.28608 25.62658,112.84038 16.39075,16.40427 32.26041,20.66441 52.55808,14.10899 z"/>
</g>
</g>
</svg>

<svg viewBox="0 0 400 400">
<g transform="scale(0.37, 0.37)">
<g transform="translate(400, 300)">
<path id="P00XDigitPath0D2" d="m 176.29871,358.09364 c -20.50105,-4.98061 -40.58042,-19.4385 -52.24756,-37.62016 -16.78007,-26.14946 -24.3114,-62.90261 -24.32214,-118.69282 -0.0129,-66.9279 9.87082,-104.020609 34.95564,-131.185517 11.48468,-12.437011 21.5433,-18.838934 37.30911,-23.745809 13.8716,-4.317323 38.89165,-4.60793 54.26264,-0.630255 35.36819,9.152511 59.62952,40.96431 70.28468,92.158211 3.74795,18.0075 5.36057,80.44329 2.72153,105.36883 -6.88364,65.01493 -31.83287,102.85216 -75.28112,114.16897 -12.50815,3.25796 -34.66589,3.34093 -47.68278,0.17858 z M 216,328.04735 c 19.90951,-6.43005 35.6255,-27.23126 41.55812,-55.00504 5.14304,-24.07729 7.2635,-67.9449 4.89102,-101.18417 -3.40139,-47.65466 -10.47467,-69.05748 -28.04226,-84.852257 -21.47364,-19.306642 -50.85858,-18.763028 -70.93387,1.312258 -10.9745,10.974495 -15.80865,21.895169 -21.75097,49.136779 -3.28055,15.03916 -3.83468,24.06633 -3.9067,63.64306 -0.12617,69.32152 5.0892,92.28608 25.62658,112.84038 16.39075,16.40427 32.26041,20.66441 52.55808,14.10899 z"/>
</g>
</g>
</svg>

<svg viewBox="0 0 400 400">
<g transform="scale(0.37, 0.37)">
<g transform="translate(625, 300)">
<path id="P00XDigitPath0D3" d="m 173.83716,359.45692 c -18.66018,-2.9667 -40.72659,-15.27459 -54.14712,-30.20144 -12.54222,-13.94997 -23.357256,-37.46217 -23.357256,-50.77931 0,-4.35004 1.69981,-4.85216 24.912116,-7.35898 l 11.07205,-1.19575 4.20831,13.47979 c 9.9409,31.84202 28.45628,46.88499 57.61067,46.80621 18.87657,-0.0509 30.75866,-4.4471 43.50372,-16.09538 12.13935,-11.09468 18.27787,-22.34007 21.12761,-38.70447 5.15035,-29.57556 -10.10458,-57.9459 -36.54341,-67.96155 -9.19277,-3.48242 -13.13951,-3.88251 -30.53819,-3.09563 l -19.981,0.90367 1.1639,-9.47298 c 2.47018,-20.10455 1.22861,-18.63983 17.85405,-21.06302 24.52854,-3.57506 42.00178,-13.6186 50.067,-28.77829 5.8138,-10.92782 5.80462,-35.68077 -0.0173,-46.625834 -9.49327,-17.847159 -29.24664,-27.706407 -52.21785,-26.062824 -25.94334,1.856235 -45.58888,20.568374 -50.80921,48.395168 -0.67414,3.59344 -2.17129,6.53523 -3.327,6.53729 -5.47229,0.009 -34.39481,-6.07992 -34.39481,-7.24191 0,-4.29405 6.71947,-22.935104 11.56967,-32.096404 11.06272,-20.895821 33.65768,-38.236081 56.75931,-43.559326 12.11645,-2.791958 38.2133,-2.39756 50.33891,0.760762 39.4862,10.284847 64.13386,39.653402 64.21488,76.514248 0.0551,25.09015 -12.34555,46.7623 -33.75292,58.98855 l -9.00459,5.14273 11.10661,4.04967 c 28.16696,10.2702 45.00697,33.86408 47.4156,66.43221 3.46337,46.82958 -29.08593,89.37712 -77.01763,100.67534 -10.80422,2.54672 -36.47932,3.40987 -47.81614,1.60746 z"/>
</g>
</g>
</svg>
</svg>
</svg>
</svg>
</svg>


<!--1-->
<svg x="4%" y="18.999999999999993%">

<svg width="18%" height="24%">
<rect class="box"/>
</svg> 

<svg width="18%" height="24%">
<g transform="scale(1, 1)">
<svg>
<line class="line" x1="50%" y1="25%" x2="50%" y2="65%"/>
</svg>
</g>
</svg> 

<svg class="button" x="4.5%" y="0%" width="9%" height="12%">
<g transform="scale(1, 1)">
<svg class="btnCoff">
<circle class="circle" cx="50%" cy="50%" r="40%"/>
</svg>
<svg x="13%" y="14%" viewBox="0 0 400 400">
<g transform='scale(0.65 0.65)' class="btnToff">
<path d="m 212.51385,236.61457 c 0,-68.08913 -0.49101,-123.79842 -1.09113,-123.79842 -0.60011,0 -4.60949,2.85695 -8.90973,6.34877 -15.76274,12.79946 -51.27108,33.48609 -64.55957,37.61144 -4.16868,1.29415 -4.22034,1.09606 -4.21593,-16.16673 l 0.004,-17.47694 10.15495,-5.30595 c 29.94812,-15.64787 65.50005,-45.926729 76.91039,-65.503008 L 226,43.413996 h 12.01405 12.01403 V 201.91351 360.413 h -18.75714 -18.75733 z">
</path>
</g>
</svg>
</g>
</svg>

</svg> 

<!--2-->
<svg x="28.999999999999996%" y="18.000000000000004%">

<svg width="18%" height="24%">
<rect class="box"/>
</svg>

<svg width="18%" height="24%">
<g transform="scale(1, 1)">
<svg>
<line class="line" x1="50%" y1="75%" x2="50%" y2="35%"/>
</svg>
</g>
</svg>

<svg class="button" x="4.5%" y="12%" width="9%" height="12%">
<g transform="scale(1, 1)">
<svg class="btnCoff">
<circle class="circle" cx="50%" cy="50%" r="40%"/>
</svg>
<svg x="17%" y="14%" viewBox="0 0 400 400">
<g transform='scale(0.65 0.65)' class="btnToff">
<path d="m 89.58885,354.9505 c 0,-9.08544 6.69,-27.66163 14.99891,-41.64758 10.46314,-17.61208 34.70133,-42.26454 77.8164,-79.14641 56.76554,-48.55888 74.07604,-71.84823 75.69209,-101.83532 0.68123,-12.64079 0.13245,-16.68621 -3.36721,-24.82137 -8.17409,-19.001199 -28.08368,-32.149009 -51.18595,-33.801968 -35.32602,-2.527564 -61.4689,17.237938 -67.12098,50.747268 l -2.17961,12.92219 -6.8452,-0.99309 c -3.76485,-0.5462 -12.12302,-1.53321 -18.57371,-2.19334 -13.38172,-1.36943 -13.19184,-0.9572 -8.8754,-19.26663 7.64833,-32.442768 27.80077,-55.331672 58.28661,-66.201255 15.8151,-5.638798 53.26342,-7.118703 70.21955,-2.774978 19.81582,5.076306 31.22816,11.324708 43.8938,24.032434 24.5068,24.58821 31.59249,58.249839 19.35698,91.958319 -9.63325,26.53929 -30.89598,50.38432 -93.27576,104.60387 -34.31549,29.82651 -56.29682,52.07913 -56.29682,56.99163 0,0.67875 35.04478,1.23408 77.87727,1.23408 h 77.87727 V 342.58568 360.413 H 193.73797 89.58885 Z"> </path>
</g>
</svg>
</g>
</svg>

</svg> 

<!--3-->
<svg x="53%" y="21.999999999999996%">

<svg width="18%" height="24%">
<rect class="box"/>
</svg>

<svg width="18%" height="24%">
<g transform="scale(1, 1)">
<svg>
<line class="line" x1="50%" y1="25%" x2="63%" y2="59%"/>
</svg>
</g>
</svg>

<svg class="button" x="4.5%" y="0%" width="9%" height="12%">
<g transform="scale(1, 1)">
<svg class="btnCoff">
<circle class="circle" cx="50%" cy="50%" r="40%"/>
</svg>
<svg x="18%" y="14%" viewBox="0 0 400 400">
<g transform='scale(0.65 0.65)' class="btnToff">
<path d="m 173.83716,359.45692 c -18.66018,-2.9667 -40.72659,-15.27459 -54.14712,-30.20144 -12.54222,-13.94997 -23.357256,-37.46217 -23.357256,-50.77931 0,-4.35004 1.69981,-4.85216 24.912116,-7.35898 l 11.07205,-1.19575 4.20831,13.47979 c 9.9409,31.84202 28.45628,46.88499 57.61067,46.80621 18.87657,-0.0509 30.75866,-4.4471 43.50372,-16.09538 12.13935,-11.09468 18.27787,-22.34007 21.12761,-38.70447 5.15035,-29.57556 -10.10458,-57.9459 -36.54341,-67.96155 -9.19277,-3.48242 -13.13951,-3.88251 -30.53819,-3.09563 l -19.981,0.90367 1.1639,-9.47298 c 2.47018,-20.10455 1.22861,-18.63983 17.85405,-21.06302 24.52854,-3.57506 42.00178,-13.6186 50.067,-28.77829 5.8138,-10.92782 5.80462,-35.68077 -0.0173,-46.625834 -9.49327,-17.847159 -29.24664,-27.706407 -52.21785,-26.062824 -25.94334,1.856235 -45.58888,20.568374 -50.80921,48.395168 -0.67414,3.59344 -2.17129,6.53523 -3.327,6.53729 -5.47229,0.009 -34.39481,-6.07992 -34.39481,-7.24191 0,-4.29405 6.71947,-22.935104 11.56967,-32.096404 11.06272,-20.895821 33.65768,-38.236081 56.75931,-43.559326 12.11645,-2.791958 38.2133,-2.39756 50.33891,0.760762 39.4862,10.284847 64.13386,39.653402 64.21488,76.514248 0.0551,25.09015 -12.34555,46.7623 -33.75292,58.98855 l -9.00459,5.14273 11.10661,4.04967 c 28.16696,10.2702 45.00697,33.86408 47.4156,66.43221 3.46337,46.82958 -29.08593,89.37712 -77.01763,100.67534 -10.80422,2.54672 -36.47932,3.40987 -47.81614,1.60746 z"> </path>
</g>
</svg>
</g>
</svg>

</svg>


<!--4-->
<svg x="77%" y="17.000000000000004%">

<svg width="18%" height="24%">
<rect class="box"/>
</svg>

<svg width="18%" height="24%">
<g transform="scale(1, 1)">
<svg>
<line class="line" x1="50%" y1="25%" x2="50%" y2="65%"/>
</svg>
</g>
</svg>

<svg class="button" x="4.5%" y="0%" width="9%" height="12%">
<g transform="scale(1, 1)">
<svg class="btnCoff">
<circle class="circle" cx="50%" cy="50%" r="40%"/>
</svg>
<svg x="17%" y="14%" viewBox="0 0 400 400">
<g transform='scale(0.65 0.65)' class="btnToff">
<path d="M 225.63619,322.89833 V 285.38365 H 157.1719 88.707623 l 0.0428,-18.2884 0.0428,-18.28841 L 161.153,146.11042 233.51278,43.414 h 14.81901 14.81901 v 103.16535 103.16536 h 21.57094 21.57094 v 17.81947 17.81947 H 284.72174 263.1508 v 37.51468 37.51467 h -18.75734 -18.75733 z m 0,-145.74451 c 0,-40.17103 -0.71425,-71.79506 -1.59928,-70.80895 -0.8796,0.98006 -20.84734,29.63659 -44.37274,63.68115 -23.52541,34.04458 -45.6678,65.9086 -49.20529,70.80896 l -6.43183,8.90973 h 50.80457 50.80457 z"> </path>
</g>
</svg>
</g>
</svg>

</svg>


<!--5-->
<svg x="5%" y="62%">

<svg width="18%" height="24%">
<rect class="box"/>
</svg>

<svg width="18%" height="24%">
<g transform="scale(1, 1)">
<svg>
<line class="line" x1="50%" y1="75%" x2="50%" y2="35%"/>
</svg>
</g>
</svg>

<svg class="button" x="4.5%" y="12%" width="9%" height="12%">
<g transform="scale(1, 1)">
<svg class="btnCoff">
<circle class="circle" cx="50%" cy="50%" r="40%"/>
</svg>
<svg x="17%" y="16%" viewBox="0 0 400 400">
<g transform='scale(0.65 0.65)' class="btnToff">
<path d="m 168.94319,357.50038 c -36.2159,-7.8427 -64.36078,-35.59431 -71.68144,-70.67989 -1.42482,-6.82864 -1.59203,-11.38468 -0.45645,-12.43693 0.98565,-0.91329 9.8143,-2.21966 19.61924,-2.90303 l 17.82716,-1.24248 2.32857,9.80273 c 4.89951,20.62576 18.05941,37.54708 34.99137,44.99271 12.37523,5.44186 33.42823,5.8781 47.57322,0.98575 20.31323,-7.02576 38.98274,-30.76157 43.58285,-55.40981 7.21847,-38.67801 -7.21922,-72.1779 -37.13926,-86.17451 -9.34397,-4.37112 -13.05416,-5.00017 -29.54284,-5.00896 -17.75081,-0.009 -19.59598,0.36511 -31.45832,6.38612 -6.93081,3.51789 -16.04953,10.13686 -20.26382,14.70884 l -7.66235,8.31267 -13.1038,-1.31597 c -7.20709,-0.72378 -14.97323,-1.85579 -17.25809,-2.51556 l -4.15428,-1.1996 15.07987,-80.19424 15.07988,-80.194223 h 78.34767 78.34768 v 17.82094 17.820939 h -63.50637 -63.50637 l -8.54021,42.676464 c -4.69711,23.47205 -8.29803,42.92708 -8.00205,43.23343 0.29599,0.30632 5.9152,-2.37331 12.48713,-5.95476 19.0005,-10.35454 30.96785,-13.01726 54.01241,-12.01769 27.57288,1.19598 44.85965,8.85699 64.09288,28.40418 30.29589,30.79042 36.80496,83.52891 15.62201,126.57444 -22.03333,44.77354 -70.69674,66.79346 -122.71629,55.52844 z"> </path>
</g>
</svg>
</g>
</svg>

</svg>


<!--6-->
<svg x="28.000000000000004%" y="59.00000000000001%">

<svg width="18%" height="24%">
<rect class="box"/>
</svg>

<svg width="18%" height="24%">
<g transform="scale(1, 1)">
<svg>
<line class="line" x1="50%" y1="25%" x2="59%" y2="56%"/>
</svg>
</g>
</svg>

<svg class="button" x="4.5%" y="0%" width="9%" height="12%">
<g transform="scale(1, 1)">
<svg class="btnCoff">
<circle class="circle" cx="50%" cy="50%" r="40%"/>
</svg>
<svg x="17%" y="16%" viewBox="0 0 400 400">
<g transform='scale(0.65 0.65)' class="btnToff">
<path d="M 175.74827,357.67012 C 142.20336,349.55065 114.73048,321.82093 103.73678,284.98535 94.986776,255.66754 92.383876,195.43915 98.168426,156.13951 108.93161,83.015553 146.47661,43.413998 205.03996,43.413998 c 28.92539,0 48.94394,7.634731 65.26368,24.890453 10.66124,11.272692 17.65882,24.334472 21.224,39.616999 2.36744,10.14833 2.3268,11.11238 -0.47419,11.24645 -1.68497,0.0806 -9.90685,0.71581 -18.27085,1.41148 l -15.20727,1.26484 -3.75124,-11.2725 c -8.23361,-24.741997 -25.69318,-37.615031 -51.05373,-37.642165 -29.2521,-0.03132 -54.43881,24.307968 -64.93809,62.753175 -3.79722,13.90426 -8.51143,56.71617 -6.47006,58.75755 0.60746,0.60746 2.28845,-0.55389 3.73553,-2.58077 6.76774,-9.47946 21.10372,-22.05107 30.70913,-26.92968 26.85579,-13.64012 54.21117,-14.30462 80.69121,-1.9601 14.61323,6.81243 35.33077,27.93071 42.5636,43.3869 24.0215,51.33277 3.65329,120.67674 -42.28341,143.95462 -19.53429,9.89877 -48.24689,12.87347 -71.03,7.35887 z m 49.00532,-32.22828 c 16.55359,-8.27804 28.82455,-23.88085 33.99036,-43.21955 3.35354,-12.55426 3.1571,-38.56899 -0.3839,-50.8385 -3.88745,-13.46998 -14.09248,-28.06589 -24.39327,-34.88884 -23.64225,-15.65998 -57.87381,-12.14364 -77.46254,7.95711 -12.72781,13.0605 -17.5936,25.10471 -18.46538,45.70711 -1.7053,40.29993 17.66026,70.86044 50.26078,79.31587 9.11219,2.3634 27.79648,0.2962 36.45395,-4.0332 z"> </path>
</g>
</svg>
</g>
</svg>

</svg>


<!--7-->
<svg x="51%" y="67%">

<svg width="18%" height="24%">
<rect class="box"/>
</svg>

<svg width="18%" height="24%">
<g transform="scale(1, 1)">
<svg>
<line class="line" x1="25%" y1="75%" x2="49%" y2="56%"/>
</svg>
</g>
</svg>

<svg class="button" x="0%" y="12%" width="9%" height="12%">
<g transform="scale(1, 1)">
<svg class="btnCoff">
<circle class="circle" cx="50%" cy="50%" r="40%"/>
</svg>
<svg x="18%" y="19%" viewBox="0 0 400 400">
<g transform='scale(0.63 0.63)' class="btnToff">
<path d="m 140.98091,351.34224 c 0.0168,-13.58986 4.97377,-43.867 11.57509,-70.70154 15.97709,-64.94729 46.39458,-128.96012 86.18299,-181.369964 L 253.59895,79.69701 H 174.36871 95.138484 V 61.555505 43.413996 H 199.21345 303.28843 v 14.364911 c 0,13.999171 -0.18734,14.570462 -7.36051,22.438187 -21.44234,23.518736 -48.59975,66.365736 -68.98288,108.836196 -27.15358,56.57743 -38.83097,96.98804 -46.89641,162.28895 l -1.12034,9.07076 h -18.97931 -18.97932 l 0.0112,-9.07076 z"> </path>
</g>
</svg>
</g>
</svg>

</svg>


<!--8-->
<svg x="82%" y="59.00000000000001%">

<svg width="18%" height="24%">
<rect class="box"/>
</svg>

<svg width="18%" height="24%">
<g transform="scale(1, 1)">
<svg>
<line class="line" x1="50%" y1="75%" x2="43%" y2="40%"/>
</svg>
</g>
</svg>

<svg class="button" x="4.5%" y="12%" width="9%" height="12%">
<g transform="scale(1, 1)">
<svg class="btnCoff">
<circle class="circle" cx="50%" cy="50%" r="40%"/>
</svg>
<svg x="17%" y="17%" viewBox="0 0 400 400">
<g transform='scale(0.65 0.65)' class="btnToff">
<path d="m 173.4216,357.85439 c -27.63349,-5.99601 -54.31184,-25.96967 -65.53331,-49.06377 -16.39434,-33.73997 -11.85335,-74.95142 10.94425,-99.32391 7.88321,-8.42778 27.42723,-20.39198 33.31117,-20.39198 5.9722,0 3.5309,-3.69646 -5.29228,-8.01324 -12.81432,-6.26945 -24.7581,-18.24441 -30.66046,-30.74043 -6.58446,-13.94015 -6.75386,-39.73309 -0.36777,-55.996616 8.07932,-20.57572 25.26277,-37.015714 47.69133,-45.627939 13.08974,-5.026254 44.20637,-6.92879 59.93125,-3.66432 25.11933,5.21475 47.56127,22.510469 58.74514,45.274139 5.9894,12.190856 6.32754,13.916606 6.32754,32.294726 0,17.49562 -0.50732,20.44867 -5.12985,29.86168 -5.90103,12.01641 -15.6452,21.53503 -28.94404,28.27407 -5.11134,2.59011 -9.29333,4.99651 -9.29333,5.34757 0,0.35106 5.26669,3.23107 11.70374,6.40001 29.55607,14.55042 45.50407,40.72397 45.50407,74.6804 0,44.39145 -30.60028,81.3791 -75.13257,90.81538 -15.53004,3.29077 -38.30456,3.23755 -53.80488,-0.12586 z m 55.88163,-32.86153 c 12.53903,-5.78235 24.37317,-17.69279 30.24784,-30.44282 4.02209,-8.72933 4.82246,-13.15937 4.89285,-27.08193 0.0766,-15.14942 -0.45648,-17.74381 -5.93131,-28.86667 -7.02578,-14.27385 -17.07083,-24.04705 -31.59403,-30.73898 -8.66934,-3.99461 -13.09671,-4.78931 -26.97996,-4.84284 -14.14303,-0.0545 -18.14843,0.65493 -26.97997,4.77881 -14.04218,6.55699 -24.47622,16.42104 -30.63424,28.96079 -4.57113,9.3083 -5.12985,12.45597 -5.12985,28.90016 0,16.01305 0.63228,19.79674 4.77992,28.60391 8.847,18.78589 20.27127,28.40134 40.47745,34.06862 13.76846,3.86167 34.42967,2.38917 46.8513,-3.33905 z M 215.95183,170.5606 c 11.65129,-3.23609 23.78493,-12.90241 29.86709,-23.79377 4.62031,-8.2736 5.59929,-12.12077 5.6352,-22.14495 0.0562,-15.67283 -3.16532,-24.653049 -12.46166,-34.738376 -11.99014,-13.00777 -19.53135,-16.12063 -39.05384,-16.12063 -19.01967,0 -26.5436,2.96248 -38.20223,15.04182 -8.89597,9.216987 -12.72887,18.768996 -12.79158,31.877916 -0.0774,16.18537 2.99158,24.66731 12.75305,35.24632 13.17907,14.28285 34.65599,20.07493 54.25397,14.63167 z"> </path>
</g>
</svg>
</g>
</svg>

</svg>


</svg>