<svg xmlns="http://www.w3.org/2000/svg" viewBox="0 0 512 384">
<rect width="512" height="384" id="P006WIImgRct3" fill="#808080"/>

  <ellipse
     style="fill:#000000;stroke:#000000;stroke-width:7.40817404;"
     cx="255.30145"
     cy="197.13371"
     rx="150.56358"
     ry="81.11689"
     id="ellipse27" />
  <path
     style="fill:#000000;fill-opacity:1;stroke:#808080;stroke-width:7.39474869;stroke-linejoin:miter;"
     d="m 390.50859,200.69264 a 131.29955,69.638062 0 0 1 -41.46608,50.78749 l -89.83346,-50.78749 z"
     id="path29" />
  <path
     style="fill:#000000;fill-opacity:1;stroke:#808080;stroke-width:8.08091927;stroke-linejoin:round;stroke-miterlimit:4;stroke-dasharray:none;stroke-opacity:1"
     d="m 451.66926,48.42384 a 100.86436,108.25468 0 0 1 -26.04733,72.60281 L 350.8049,48.42384 Z"
     transform="matrix(0.85502704,0.51858342,-0.90504566,0.42531441,0,0)"
     id="path31" />
  <path
     style="fill:#000000;stroke:#808080;stroke-width:7.42733288;"
     d="m -140.77474,231.51389 a 70.942009,130.02452 0 0 1 -22.13339,83.47335 l -48.53761,-94.82772 z"
     transform="matrix(-0.18190282,-0.98331651,0.99857736,-0.05332212,0,0)"
     id="path33" />
  <path
     style="fill:#000000;stroke:#808080;stroke-width:8.17306709;stroke-linejoin:round;"
     d="m 30.092758,360.70837 a 103.62208,107.79063 0 0 1 -32.7251818,78.6124 L -73.52932,360.70837 Z"
     transform="matrix(0.86760305,-0.49725742,0.89539224,0.44527827,0,0)"
     id="path35" />
  <path
     style="fill:#000000;stroke:#808080;stroke-width:7.27478981;stroke-linejoin:miter;"
     d="m -120.61334,200.15042 a 126.55719,69.922539 0 0 1 -39.96839,50.99496 l -86.5888,-50.99496 z"
     transform="scale(-1,1)"
     id="path37" />
  <path
     style="fill:#000000;stroke:#808080;stroke-width:8.08091927;stroke-linejoin:round;"
     d="M 192.84298,362.98007 A 100.86436,108.25468 0 0 1 168.74045,433.2054 L 91.978622,362.98007 Z"
     transform="matrix(-0.85502704,0.51858342,0.90504566,0.42531441,0,0)"
     id="path39" />
  <path
     style="fill:#000000;stroke:#808080;stroke-width:7.40836763;"
     d="m -113.59613,-271.64749 a 70.533806,130.06796 0 0 1 -21.84341,80.48471 l -48.25832,-94.85941 z"
     transform="matrix(0.18301995,-0.9831092,-0.99859523,-0.05298641,0,0)"
     id="path41" />
  <path
     style="fill:#000000;stroke:#808080;"
     d="m -238.22491,48.123955 a 99.089935,102.81457 0 0 1 -31.29388,74.983325 l -67.79606,-74.983325 z"
     transform="matrix(-0.85643112,-0.51626131,-0.88611155,0.46347202,0,0)"
     id="path43" />
  <ellipse
     style="fill:#000000;fill-opacity:0;stroke:#000000;stroke-width:12.13850212;"
     cx="255.52884"
     cy="189.48254"
     rx="145.89174"
     ry="80.178474"
     id="ellipse45" />
</svg>
