<svg xmlns="http://www.w3.org/2000/svg" viewBox="0 0 512 384"> 
<rect y="0" x="0" height="384" width="512" style="fill:none;" /> 
<rect y="-0.15634018" x="-38.563488" height="421.06638" width="643.83453" style="fill:#808080;stroke:#808080;stroke-width:1.30260539;" /> 
<circle style="fill:#000000;" cx="380.31183" cy="804.42157" r="122.5" /> 
<ellipse style="fill:#000000;stroke:#000000;stroke-width:6;stroke-linejoin:round;" cx="-329.75464" cy="595.27142" rx="122.5" ry="65.399628" /> 
<path style="fill:#808080;stroke:#000000;" d="m -220.44214,597.54895 a 106.185,56.689465 0 0 1 -33.53458,41.34399 l -72.65042,-41.34399 z" /> 
<path style="fill:#808080;stroke:#000000;stroke-width:6.57399748;" d="M 564.88915,819.76324 A 82.05529,88.067467 0 0 1 543.6991,878.82717 L 482.83386,819.76324 Z" transform="matrix(0.85502704,0.51858342,-0.90504566,0.42531441,0,0)" /> 
<path style="fill:#808080;stroke:#000000;" d="m -522.17257,-424.71973 a 57.380737,105.81304 0 0 1 -17.90237,67.93003 l -39.25917,-77.17014 z" transform="matrix(-0.18301995,-0.9831092,0.99859523,-0.05298642,0,0)" /> 
<path style="fill:#808080;stroke:#000000;stroke-width:6.57965454;stroke-linejoin:round;" d="m -731.86228,425.17664 a 83.420006,86.775871 0 0 1 -26.34511,63.2862 l -57.0749,-63.2862 z" transform="matrix(0.86760305,-0.49725742,0.89539224,0.44527827,0,0)" /> 
<path style="fill:#808080;stroke:#000000;stroke-width:6;stroke-linejoin:round;" d="m 442.8187,597.19299 a 106.185,56.689465 0 0 1 -33.53459,41.344 l -72.65041,-41.344 z" transform="scale(-1,1)" /> 
<path style="fill:#808080;stroke:#000000;stroke-width:6.57399748;"  d="m 903.15228,406.48389 a 82.05529,88.067467 0 0 1 -19.60793,57.12978 l -62.44737,-57.12978 z" transform="matrix(-0.85502704,0.51858342,0.90504566,0.42531441,0,0)" /> 
<path style="fill:#808080;stroke:#000000;stroke-width:6.02588942;" d="m -557.59454,232.98213 a 57.380737,105.81304 0 0 1 -17.77008,65.47602 l -39.25916,-77.17014 z" transform="matrix(0.18301995,-0.9831092,-0.99859523,-0.05298641,0,0)" /> 
<path style="fill:#808080;fill-opacity:1;stroke:#000000;stroke-width:6.57965454;stroke-linejoin:round;" d="m -375.63566,821.44574 a 83.420006,86.775871 0 0 1 -26.34511,63.2862 l -57.07489,-63.2862 z" transform="matrix(-0.86760305,-0.49725742,-0.89539224,0.44527827,0,0)" /> 
<ellipse style="fill:#000000;fill-opacity:0;stroke:#000000;stroke-width:9.68991566;stroke-linejoin:round;"  cx="-329.56961" cy="585.88037" rx="118.77851" ry="62.756741" /> 
<ellipse style="fill:#000000;stroke:#000000;stroke-width:7.40817404;" cx="255.30145" cy="197.13371" rx="150.56358" ry="81.11689" /> 
<path style="fill:#000000;fill-opacity:1;stroke:#808080;stroke-width:7.39474869;stroke-linejoin:miter;" d="m 390.50859,200.69264 a 131.29955,69.638062 0 0 1 -41.46608,50.78749 l -89.83346,-50.78749 z" /> 
<path style="fill:#000000;fill-opacity:1;stroke:#808080;stroke-width:8.08091927;stroke-linejoin:round;stroke-miterlimit:4;stroke-dasharray:none;stroke-opacity:1" d="m 451.66926,48.42384 a 100.86436,108.25468 0 0 1 -26.04733,72.60281 L 350.8049,48.42384 Z" transform="matrix(0.85502704,0.51858342,-0.90504566,0.42531441,0,0)" /> 
<path style="fill:#000000;stroke:#808080;stroke-width:7.42733288;" d="m -140.77474,231.51389 a 70.942009,130.02452 0 0 1 -22.13339,83.47335 l -48.53761,-94.82772 z" transform="matrix(-0.18190282,-0.98331651,0.99857736,-0.05332212,0,0)" /> 
<path style="fill:#000000;stroke:#808080;stroke-width:8.17306709;stroke-linejoin:round;" d="m 30.092758,360.70837 a 103.62208,107.79063 0 0 1 -32.7251818,78.6124 L -73.52932,360.70837 Z" transform="matrix(0.86760305,-0.49725742,0.89539224,0.44527827,0,0)" /> 
<path style="fill:#000000;stroke:#808080;stroke-width:7.27478981;stroke-linejoin:miter;" d="m -120.61334,200.15042 a 126.55719,69.922539 0 0 1 -39.96839,50.99496 l -86.5888,-50.99496 z" transform="scale(-1,1)" /> 
<path style="fill:#000000;stroke:#808080;stroke-width:8.08091927;stroke-linejoin:round;" d="M 192.84298,362.98007 A 100.86436,108.25468 0 0 1 168.74045,433.2054 L 91.978622,362.98007 Z" transform="matrix(-0.85502704,0.51858342,0.90504566,0.42531441,0,0)" /> 
<path style="fill:#000000;stroke:#808080;stroke-width:7.40836763;" d="m -113.59613,-271.64749 a 70.533806,130.06796 0 0 1 -21.84341,80.48471 l -48.25832,-94.85941 z" transform="matrix(0.18301995,-0.9831092,-0.99859523,-0.05298641,0,0)" /> 
<path style="fill:#000000;stroke:#808080;" d="m -238.22491,48.123955 a 99.089935,102.81457 0 0 1 -31.29388,74.983325 l -67.79606,-74.983325 z" transform="matrix(-0.85643112,-0.51626131,-0.88611155,0.46347202,0,0)" /> 
<ellipse style="fill:#000000;fill-opacity:0;stroke:#000000;stroke-width:12.13850212;" cx="255.52884" cy="189.48254" rx="145.89174" ry="80.178474" /> 
</svg> 
