<svg xmlns="http://www.w3.org/2000/svg" viewBox="0 0 512 384">
<rect width="512" height="384" id="P006WIImgRct5" fill="#fff"/>

<path d="m 212.50672,291.07881 c 0.004,-43.80594 1.70469,-72.66186 5.05663,-85.79066 6.94274,-27.19291 23.45136,-43.07193 39.71413,-38.19946 14.5852,4.36983 29.18635,26.52479 36.51114,55.40003 3.30703,13.03667 2.3638,26.99984 3.15049,69.13141 1.05906,56.71944 -1.20317,43.1158 -11.16707,47.08846 -21.56785,1.10289 -45.64596,-0.32572 -67.30608,-0.32572 -10.03668,-1.73096 -5.95758,-35.14053 -5.95924,-47.30406 z" style="fill:#808080;" /> 
<path d="m 211.5275,352.55544 c -10.82937,-0.65575 -12.44124,-2.33211 -13.82612,-14.37951 -1.49734,-13.02541 0.40005,-94.92332 2.67222,-115.34436 1.85187,-16.6434 3.34898,-22.97217 11.42792,-48.30919 10.76214,-33.75215 10.80025,-35.13327 1.27988,-46.40476 -6.677,-7.90515 -8.27232,-10.98872 -7.80951,-15.09484 8.61593,-21.243963 16.88301,-30.09378 30.13947,-46.984047 l 19.80547,-0.0266 19.80547,-0.0266 c 10.79496,12.276847 22.35226,25.116724 29.52361,39.724907 2.2804,4.82032 2.81186,10.22639 1.29076,13.12986 -0.46001,0.87805 -3.2533,4.31838 -6.20735,7.64518 -5.70598,6.42599 -7.89738,9.99679 -8.64381,14.08473 -0.49175,2.69318 1.87876,11.54161 9.02986,33.70574 7.95841,24.66631 10.13373,33.27392 10.96024,43.36905 2.90364,35.46594 5.14752,121.93741 3.27197,126.09049 -2.07964,3.60375 -4.27037,6.19092 -6.87766,9.48939 l -44.3845,-0.12054 c -24.41148,-0.0663 -47.56754,-0.31323 -51.45792,-0.54881 z m 77.56523,-8.79503 c 6.6569,-0.93463 10.23187,-3.09982 12.35144,-7.48063 1.37279,-2.83734 1.57242,-4.955 1.98534,-21.06128 0.66208,-25.82414 -0.7731,-82.85399 -2.26233,-89.89934 -2.88694,-13.65769 -11.77687,-35.21254 -19.01037,-46.0933 -4.95359,-7.45126 -11.35513,-13.42709 -17.79103,-16.60789 -5.23574,-2.58764 -5.83135,-2.71338 -12.85232,-2.71338 -6.83863,0 -7.70751,0.17006 -12.21817,2.39061 -17.18656,8.4609 -27.64142,31.23849 -31.27621,68.14018 -2.06401,20.95443 -2.93389,76.11871 -1.47746,93.69374 0.81335,9.815 2.06628,13.57401 5.5413,16.62514 2.76368,2.42652 4.56483,2.88152 14.75494,3.72723 9.41825,0.78164 55.34007,0.24973 62.25487,-0.72108 z" style="fill:#000000;" /> 
<rect style="fill:#000000;" width="38.149395" height="12.716466" x="235.57341" y="49.956573" /> 
<path style="fill:#000000;" d="m 247.18788,47.385272 c -4.88284,-4.415526 -4.81772,-7.676381 -4.81772,-7.676381 0,0 7.2073,-7.729262 12.0785,-7.688107 4.87119,0.04114 12.44157,8.217779 12.44157,8.217779 0,0 0.0655,2.701059 -4.64633,7.032003 -15.12335,0.1981 -0.0794,-0.0794 -15.05602,0.114603 z" /> 
</svg> 