<svg xmlns="http://www.w3.org/2000/svg" viewBox="0 0 512 384"> 
<rect y="0" x="0" height="384" width="512" style="fill:none;" /> 
<rect y="0" x="-184.36148" height="73.159096" width="440.36148" style="fill:#808080;" /> 
<path d="m 352.98139,302.80798 c -3.22982,-0.56792 -3.92864,-1.5536 -4.68706,-6.61109 -0.49021,-3.26902 -0.68145,-14.46972 -0.42498,-24.89044 0.43798,-17.7942 0.67109,-19.15124 3.83207,-22.30826 3.25058,-3.24647 3.33823,-3.88326 2.56135,-18.60944 -0.85934,-16.28969 -1.9971,-19.31083 -9.01515,-23.93817 -3.77309,-2.48779 -10.13727,-2.60252 -144.86342,-2.61138 -133.969599,-0.008 -141.336059,-0.13965 -149.418199,-2.65515 -15.73134,-4.89615 -26.36729,-15.12591 -33.3282,-32.0554 -3.31259,-8.0565 -3.37605,-9.02786 -3.40882,-52.17516 l -0.0335,-43.9658 h 18.28977 18.28978 v 42.34786 42.34787 l 4.78348,4.78349 4.78347,4.78348 57.472099,0.1753 c 31.60966,0.0963 97.35787,0.57118 146.10715,1.05517 l 88.63505,0.87997 8.00542,3.93122 c 9.2734,4.55389 20.24204,15.8242 25.15802,25.84992 2.96667,6.05027 3.39053,9.15189 3.85151,28.18516 0.39246,16.20359 0.99917,21.78611 2.50339,23.03448 2.61355,2.16904 2.93711,49.79065 0.34918,51.39006 -1.91074,1.18091 -33.86686,2.03679 -39.44252,1.05639 z" style="fill:#000000;" /> 
<circle r="4.92417" cy="263.19699" cx="358.77444" style="fill:#808080;" /> 
<circle r="4.92417" cy="275.50742" cx="358.77444" style="fill:#808080;" /> 
<circle r="4.92417" cy="288.16949" cx="358.77444" style="fill:#808080;" /> 
<path d="m 227.21106,17.48073 c -5.63833,-3.32767 -15.26148,-3.74339 -21.41715,-0.92523 l -3.29614,1.50902 -0.35115,-1.39907 c -1.32949,-5.29711 -3.82362,-43.79628 -3.17183,-48.95998 0.85247,-6.75346 6.0832,-10.24771 16.05273,-10.72358 6.33392,-0.30232 9.29069,0.61275 13.2703,4.10688 4.00121,3.5131 4.47081,7.00599 3.26609,24.29284 -0.51671,7.4143398 -1.12254,17.4821598 -1.34631,22.3729198 -0.505,11.0375102 -0.54816,11.1771002 -3.00654,9.7262002 z" style="fill:#000000;" /> 
<path d="M 264.63987,53.72601 C 253.9756,52.90903 242.78778,51.91053 240.03685,51.53025 l -2.52559,-0.34917 1.17715,-3.09803 c 2.55953,-6.73607 1.88466,-15.04261 -1.72212,-21.19711 -0.86047,-1.46829 -1.40027,-2.83384 -1.19956,-3.03457 0.2007,-0.20071 5.12348,-0.58493 10.93947,-0.85381 5.81598,-0.26888 14.14826,-0.77292 18.5162,-1.12007 12.71882,-1.01088 21.02546,-0.8174 24.0602,0.56043 3.39289,1.54043 6.67531,6.05152 7.61129,10.46035 1.41529,6.66654 -1.52348,16.73513 -5.76831,19.7629 -1.79996,1.28387 -2.66147,1.40207 -10.84753,1.48812 -4.89077,0.0514 -11.92796,-0.13906 -15.63818,-0.42328 z" style="fill:#000000;" /> 
<path d="m 213.73912,123.26423 c -4.83122,-0.5921 -9.21556,-2.38684 -11.72533,-4.7998 -2.2482,-2.16148 -2.62331,-2.91417 -3.01015,-6.04003 -0.77181,-6.23687 2.26364,-49.8106 3.55777,-51.07128 0.0764,-0.0745 2.20877,0.5622 4.73847,1.41483 5.99148,2.01942 12.76548,1.77735 18.05721,-0.64528 l 3.45478,-1.58165 0.5008,1.35685 c 0.27544,0.74627 0.68326,5.3584 0.90629,10.24917 0.22302,4.89076 0.82824,14.95858 1.34495,22.37292 1.20472,17.28685 0.73512,20.77972 -3.26609,24.29284 -3.82407,3.35758 -9.44944,5.07757 -14.5587,4.45143 z" style="fill:#000000;" /> 
<path d="m 141.46164,53.73188 c -0.96379,-0.28883 -2.30447,-1.02403 -2.97928,-1.63376 -2.75109,-2.48586 -5.38718,-10.04062 -5.38718,-15.43916 0,-5.81673 3.9758,-12.73428 8.37545,-14.57257 2.44148,-1.02011 12.53284,-1.10851 23.85153,-0.2089 4.36794,0.34715 12.64694,0.84871 18.39782,1.11453 5.75086,0.26585 10.79229,0.6911 11.20312,0.94501 0.55367,0.34219 0.4055,0.94128 -0.57242,2.31466 -3.51728,4.93957 -4.63077,14.80843 -2.3901,21.18354 0.67032,1.90717 1.13739,3.54894 1.03796,3.64837 -0.34207,0.34208 -11.78516,1.45173 -24.33417,2.35972 -13.74473,0.99453 -24.46739,1.10826 -27.20273,0.28856 z" style="fill:#000000;" /> 
<path d="m -132.91831,15.49107 c -5.63834,-3.32767 -15.26148,-3.74339 -21.41715,-0.92523 l -3.29614,1.50902 -0.35115,-1.39907 c -1.32949,-5.2971102 -3.82362,-43.79628 -3.17184,-48.95998 0.85247,-6.75346 6.0832,-10.24771 16.05274,-10.72358 6.33392,-0.30232 9.29068,0.61275 13.2703,4.10688 4.0012,3.5131 4.47081,7.00599 3.26608,24.29284 -0.5167,7.4143398 -1.12253,17.48215976 -1.3463,22.3729198 -0.50501,11.0375102 -0.54816,11.1771002 -3.00654,9.7262002 z" style="fill:#000000;" /> 
<path d="m -95.489509,51.73635 c -10.664271,-0.81698 -21.852081,-1.81548 -24.603021,-2.19576 l -2.52559,-0.34917 1.17716,-3.09803 c 2.55952,-6.73607 1.88465,-15.04261 -1.72212,-21.19711 -0.86047,-1.46829 -1.40028,-2.83384 -1.19957,-3.03457 0.20071,-0.20071 5.12348,-0.58493 10.93948,-0.85381 5.81597,-0.26888 14.148261,-0.77292 18.516191,-1.12007 12.71882,-1.01088 21.02546,-0.8174 24.06021,0.56043 3.39289,1.54043 6.6753,6.05152 7.61129,10.46035 1.41528,6.66654 -1.52348,16.73513 -5.76831,19.7629 -1.79997,1.28387 -2.66148,1.40207 -10.84754,1.48812 -4.89076,0.0514 -11.92795,-0.13906 -15.63818,-0.42328 z" style="fill:#000000;" /> 
<path d="m -146.39025,121.27457 c -4.83122,-0.5921 -9.21557,-2.38684 -11.72534,-4.7998 -2.2482,-2.16148 -2.6233,-2.91417 -3.01014,-6.04003 -0.77182,-6.23687 2.26364,-49.8106 3.55777,-51.07128 0.0764,-0.0745 2.20877,0.5622 4.73847,1.41483 5.99147,2.01942 12.76548,1.77735 18.05721,-0.64528 l 3.45477,-1.58165 0.50081,1.35685 c 0.27544,0.74627 0.68326,5.3584 0.90628,10.24917 0.22303,4.89076 0.82825,14.95858 1.34495,22.37292 1.20473,17.28685 0.73512,20.77972 -3.26608,24.29284 -3.82407,3.35758 -9.44944,5.07757 -14.5587,4.45143 z" style="fill:#000000;" /> 
<path d="m -218.66773,51.74222 c -0.9638,-0.28883 -2.30447,-1.02403 -2.97928,-1.63376 -2.75109,-2.48586 -5.38718,-10.04062 -5.38718,-15.43916 0,-5.81673 3.9758,-12.73428 8.37544,-14.57257 2.44149,-1.02011 12.53284,-1.10851 23.85154,-0.2089 4.36793,0.34715 12.64694,0.84871 18.39782,1.11453 5.75086,0.26585 10.79228,0.6911 11.20312,0.94501 0.55367,0.34219 0.40549,0.94128 -0.57243,2.31465 -3.51727,4.93958 -4.63077,14.80844 -2.39009,21.18355 0.67032,1.90717 1.13738,3.54894 1.03795,3.64837 -0.34207,0.34208 -11.78515,1.45173 -24.33416,2.35972 -13.74474,0.99453 -24.46739,1.10826 -27.20273,0.28856 z" style="fill:#000000;" /> 
<circle style="fill:#000000;" cx="215.00497" cy="39.720657" r="15.757343" /> 
<circle style="fill:#000000;" cx="-145.50943" cy="37.756241" r="15.757343" /> </svg> 
