
<svg xmlns="http://www.w3.org/2000/svg" viewBox="0 0 1024 768">

<style>
.line { stroke-linecap: round; stroke-width: 11px; stroke: blue; } 
.box { stroke-width:0; stroke:green; height: 100%; width: 100%; fill: none; } 
.button { width: 9%; height: 12%; } 
.white { fill: white; }  
.blue { fill: blue; } 

</style>  




<!--1-->
<svg x="3%" y="6.999999999999995%">

<svg width="18%" height="24%">
<rect class="box"/>
</svg> 

<svg width="18%" height="24%">
<g transform="scale(1, 1)">
<svg>
<line class="line" x1="50%" y1="25%" x2="50%" y2="65%"/>
</svg>
</g>
</svg> 

<svg class="button" x="4.5%" y="0%" width="9%" height="12%">
<g transform="scale(1, 1)">
	<circle class="blue" cx="50%" cy="50%" r="45%"/>
	<circle class="white" cx="50%" cy="50%" r="35%"/>
	<circle class="blue" cx="50%" cy="50%" r="20%"/>
</g>
</svg>

</svg> 

<!--2-->
<svg x="19%" y="7.9999999999999964%">

<svg width="18%" height="24%">
<rect class="box"/>
</svg>

<svg width="18%" height="24%">
<g transform="scale(1, 1)">
<svg>
<line class="line" x1="75%" y1="25%" x2="45%" y2="55%"/>
</svg>
</g>
</svg>

<svg class="button" x="9%" y="0%" width="9%" height="12%">
<g transform="scale(1, 1)">
	<circle class="blue" cx="50%" cy="50%" r="45%"/>
	<circle class="white" cx="50%" cy="50%" r="35%"/>
	<circle class="blue" cx="50%" cy="50%" r="20%"/>
</g>
</svg>

</svg> 

<!--3-->
<svg x="14.000000000000002%" y="43.00000000000001%">

<svg width="18%" height="24%">
<rect class="box"/>
</svg>

<svg width="18%" height="24%">
<g transform="scale(1, 1)">
<svg>
<line class="line" x1="75%" y1="25%" x2="45%" y2="55%"/>
</svg>
</g>
</svg>

<svg class="button" x="9%" y="0%" width="9%" height="12%">
<g transform="scale(1, 1)">
	<circle class="blue" cx="50%" cy="50%" r="45%"/>
	<circle class="white" cx="50%" cy="50%" r="35%"/>
	<circle class="blue" cx="50%" cy="50%" r="20%"/>
</g>
</svg>

</svg>


<!--4-->
<svg x="36%" y="20.999999999999996%">

<svg width="18%" height="24%">
<rect class="box"/>
</svg>

<svg class="button" x="4.5%" y="0%" width="9%" height="12%">
<g transform="scale(1, 1)">
	<circle class="blue" cx="50%" cy="50%" r="45%"/>
	<circle class="white" cx="50%" cy="50%" r="35%"/>
	<circle class="blue" cx="50%" cy="50%" r="20%"/>
</g>
</svg>

</svg>


<!--5-->
<svg x="53%" y="3.0000000000000027%">

<svg width="18%" height="24%">
<rect class="box"/>
</svg>

<svg width="18%" height="24%">
<g transform="scale(1, 1)">
<svg>
<line class="line" x1="50%" y1="25%" x2="50%" y2="65%"/>
</svg>
</g>
</svg>

<svg class="button" x="4.5%" y="0%" width="9%" height="12%">
<g transform="scale(1, 1)">
	<circle class="blue" cx="50%" cy="50%" r="45%"/>
	<circle class="white" cx="50%" cy="50%" r="35%"/>
	<circle class="blue" cx="50%" cy="50%" r="20%"/>
</g>
</svg>

</svg>


<!--6-->
<svg x="56.99999999999999%" y="37%">

<svg width="18%" height="24%">
<rect class="box"/>
</svg>

<svg width="18%" height="24%">
<g transform="scale(1, 1)">
<svg>
<line class="line" x1="25%" y1="50%" x2="65%" y2="50%"/>
</svg>
</g>
</svg>

<svg class="button" x="0%" y="6%" width="9%" height="12%">
<g transform="scale(1, 1)">
	<circle class="blue" cx="50%" cy="50%" r="45%"/>
	<circle class="white" cx="50%" cy="50%" r="35%"/>
	<circle class="blue" cx="50%" cy="50%" r="20%"/>
</g>
</svg>

</svg>


<!--7-->
<svg x="40%" y="43.99999999999999%">

<svg width="18%" height="24%">
<rect class="box"/>
</svg>

<svg width="18%" height="24%">
<g transform="scale(1, 1)">
<svg>
<line class="line" x1="50%" y1="25%" x2="50%" y2="54%"/>
</svg>
</g>
</svg>

<svg class="button" x="4.5%" y="0%" width="9%" height="12%">
<g transform="scale(1, 1)">
	<circle class="blue" cx="50%" cy="50%" r="45%"/>
	<circle class="white" cx="50%" cy="50%" r="35%"/>
	<circle class="blue" cx="50%" cy="50%" r="20%"/>
</g>
</svg>

</svg>


<!--8-->
<svg x="72%" y="5.000000000000004%">

<svg width="18%" height="24%">
<rect class="box"/>
</svg>

<svg width="18%" height="24%">
<g transform="scale(1, 1)">
<svg>
<line class="line" x1="50%" y1="25%" x2="50%" y2="65%"/>
</svg>
</g>
</svg>

<svg class="button" x="4.5%" y="0%" width="9%" height="12%">
<g transform="scale(1, 1)">
	<circle class="blue" cx="50%" cy="50%" r="45%"/>
	<circle class="white" cx="50%" cy="50%" r="35%"/>
	<circle class="blue" cx="50%" cy="50%" r="20%"/>
</g>
</svg>

</svg>

