<svg xmlns="http://www.w3.org/2000/svg" viewBox="0 0 512 384">
<rect y="0" x="0" height="384" width="512" style="fill:none;" />
<path d="m 303.16458,332.62137 c -1.2967,-1.39914 -2.62807,-4.23528 -2.95864,-6.30251 -0.33055,-2.06725 -1.6333,-4.98539 -2.89495,-6.48479 -6.16515,-7.32687 -12.25712,-9.54371 -106.22759,-38.65617 -28.98885,-8.98086 -66.56928,-21.29828 -74.03452,-24.26564 -1.53102,-0.60857 -2.6289,-1.7764 -2.6289,-2.79637 0,-14.82762 23.80568,-162.3791 32.15278,-199.288092 l 1.45933,-6.452791 h 43.45712 c 72.32124,0 176.49024,2.713611 178.42459,4.647989 1.28857,1.288563 4.9876,26.297499 8.36183,56.533924 5.95088,53.32564 13.07668,91.23096 24.35091,129.5336 11.52636,39.15922 15.48831,54.71621 14.23846,55.90884 -0.46052,0.43945 -5.56934,2.19001 -11.35294,3.89013 -21.79933,6.40798 -49.63039,17.93343 -59.51691,24.64722 -8.08486,5.49036 -26.19387,11.59515 -34.45254,11.61445 -5.30046,0.0133 -6.30239,-0.29013 -8.37803,-2.52979 z" style="fill:#000000;" />
<path d="m 236.3682,305.30119 c -2.23072,-0.26001 -20.71007,-1.99455 -41.06524,-3.85455 -52.43676,-4.79149 -58.57608,-5.60135 -63.2303,-8.34089 -2.38464,-1.40364 -2.88818,-4.16509 -1.81441,-9.95019 1.129,-6.08263 2.87139,-10.4304 4.18001,-10.4304 3.29032,0 27.33467,6.14225 53.76701,13.73504 23.49615,6.74935 48.40256,14.64992 53.55061,16.98679 2.01577,0.91503 2.27731,1.13038 1.85892,1.53068 -0.77175,0.73835 -2.88007,0.83248 -7.2466,0.32352 z" style="fill:#000000;" />
<path d="m 97.554467,70.138267 v -7.942663 h 19.772143 c 10.87468,0 19.77215,0.123595 19.77215,0.274728 0,0.151039 -0.68441,3.677723 -1.52093,7.836916 -0.83651,4.159211 -1.52093,7.609773 -1.52093,7.667938 0,0.05809 -8.21304,0.105755 -18.25123,0.105755 H 97.554467 v -7.942667 z" style="fill:#808080;stroke-width:1.89271903" />
<path d="m 381.31956,74.616576 c -0.22613,-1.905405 -0.68422,-5.479596 -1.01801,-7.942667 l -0.60686,-4.478305 h 18.3634 18.36344 v 7.942663 7.942662 h -17.34542 -17.3454 z" style="fill:#808080;" />
</svg>
