<svg xmlns="http://www.w3.org/2000/svg" viewBox="0 0 512 384"> 
<rect y="0" x="0" height="384" width="512" style="fill:none;" /> 

<rect y="310.0766" x="-20.118013" height="223.83191" width="106.55067" style="fill:#808080;stroke-width:0.7384699" /> 
<rect y="184.63741" x="-16.031511" height="127.1689" width="563.4812" style="fill:#808080;stroke-width:0.6697005" /> 
<rect y="312.77682" x="457.54974" height="220.30075" width="90.062561" style="fill:#808080;stroke-width:0.40068099" /> 
<rect y="315.96213" x="63.267838" height="217.49611" width="400.83286" style="fill:#000000;stroke-width:0.7384699" /> 
<path d="m 138.22412,371.5122 c -66.196068,-0.67437 -69.655777,-0.91896 -71.577682,-5.06017 -1.15352,-2.48554 -2.171648,-22.21661 -2.230726,-43.23084 l -0.04239,-15.0666 15.394358,-49.83256 c 8.466898,-27.40789 16.610995,-53.95734 18.098,-58.99874 3.81294,-12.92711 3.67373,-12.83388 20.46255,-13.70332 7.04504,-0.36485 67.19017,-0.85898 133.65586,-1.09807 130.8911,-0.47085 177.50341,0.13188 184.06743,2.38011 1.94884,0.66749 3.54334,1.44903 3.54334,1.73675 0,0.28772 5.57321,27.69843 12.38491,60.9127 l 12.38491,60.38958 -0.12244,16.03829 c -0.15827,20.73337 -1.14113,37.8833 -2.31925,40.46903 -1.36696,3.00013 -4.15678,3.50912 -23.44708,4.27778 -23.48746,0.93591 -231.96832,1.48171 -300.25183,0.78606 z m 300.04574,-74.67772 2.29003,-2.29003 -0.44923,-7.22106 c -0.85889,-13.80599 -9.10388,-71.22769 -11.33354,-78.93162 -1.61171,-5.56882 -3.09806,-7.04824 -7.87259,-7.83589 -15.68315,-2.58721 -289.48022,-2.56927 -302.05243,0.0198 -4.64821,0.95724 -6.09188,3.1176 -10.00464,14.97139 -6.03905,18.29546 -20.603147,72.55453 -20.603147,76.75779 0,1.17845 0.694501,3.02557 1.543343,4.10469 l 1.543336,1.96204 76.969718,0.19349 c 42.33334,0.10642 119.87933,0.27583 172.32441,0.37646 l 95.35471,0.18297 z" style="fill:#000000;" /> 
<rect y="305.82626" x="-14.899386" height="14.007766" width="561.72565" style="fill:#000000;stroke-width:0.62693572" /> 
<ellipse style="fill:#000000;fill-opacity:1;stroke:#000000;stroke-width:1.06271052;stroke-linejoin:round;stroke-miterlimit:4;"  cx="160.8521" cy="282.5351" rx="21.598505" ry="11.636305" /> 
<path style="fill:#000000;fill-opacity:1;stroke:#808080;stroke-width:1.06078458;stroke-linejoin:miter;stroke-miterlimit:4;" d="m 180.24772,283.04565 a 18.83506,9.9896536 0 0 1 -5.94835,7.28552 l -12.88671,-7.28552 z" /> 
<path style="fill:#000000;stroke:#808080;stroke-width:1.1592164;stroke-linejoin:round;stroke-miterlimit:4;" d="m 404.46873,190.58791 a 14.4691,15.529248 0 0 1 -3.73651,10.41495 l -10.73259,-10.41495 z" transform="matrix(0.85502704,0.51858342,-0.90504566,0.42531441,0,0)" /> 
<path style="fill:#000000;fill-opacity:1;stroke:#808080;stroke-width:1.06545889;stroke-linejoin:miter;stroke-miterlimit:4;" d="m -282.91521,109.75892 a 10.176706,18.652157 0 0 1 -3.17506,11.97434 l -6.96277,-13.60314 z" transform="matrix(-0.18190282,-0.98331651,0.99857736,-0.05332212,0,0)" /> 
<path style="fill:#000000;fill-opacity:1;stroke:#808080;stroke-width:1.17243516;stroke-linejoin:round;stroke-miterlimit:4;"  d="m -202.93384,391.30499 a 14.864697,15.46268 0 0 1 -4.69446,11.27704 l -10.17024,-11.27704 z" transform="matrix(0.86760305,-0.49725742,0.89539224,0.44527827,0,0)" /> 
<path style="fill:#000000; stroke:#808080;stroke-width:1.04357636;" d="m -141.53095,282.96786 a 18.154764,10.030462 0 0 1 -5.73351,7.31529 l -12.42125,-7.31529 z" transform="scale(-1,1)" /> 
<path style="fill:#000000;fill-opacity:1;stroke:#808080;stroke-width:1.1592164;stroke-linejoin:round;stroke-miterlimit:4;"  transform="matrix(-0.85502704,0.51858342,0.90504566,0.42531441,0,0)" /> 
<path style="fill:#000000;fill-opacity:1;stroke:#808080;stroke-width:1.06273818;stroke-linejoin:miter;stroke-miterlimit:4;" d="m -265.75127,-209.09112 a 10.11815,18.658388 0 0 1 -3.13346,11.54562 l -6.9227,-13.60768 z" transform="matrix(0.18301995,-0.9831092,-0.99859523,-0.05298641,0,0)" /> 
<path style="fill:#000000;fill-opacity:1;stroke:#808080;stroke-width:1.11973286;stroke-linejoin:round;stroke-miterlimit:4;" d="m -365.25639,186.70071 a 14.214557,14.748859 0 0 1 -4.48914,10.75644 l -9.72542,-10.75644 z" transform="matrix(-0.85643112,-0.51626131,-0.88611155,0.46347202,0,0)" /> 
<ellipse style="fill:#000000;fill-opacity:0;stroke:#000000;stroke-width:1.74128103;stroke-linejoin:round;stroke-miterlimit:4;" cx="160.88472" cy="281.43756" rx="20.928326" ry="11.501688" /> 
</svg> 
