<svg xmlns="http://www.w3.org/2000/svg" viewBox="0 0 1024 768">
<rect width="1024" height="768" id="P006WIImgRctX" fill="#fff"/>

<rect   y="301.78427"   x="-5.7972593"   width="0"   height="0"   />
<rect   style="fill:none"   width="1024"   height="768"   x="2.6767292"   y="4.2783632"    />
<rect   y="472.21518"   x="-13.874117"   height="303.10226"   width="144.28572"   style="fill:#808080"   />
<rect   y="302.35153"   x="-8.3403749"   height="172.20593"   width="1055.3468"   style="fill:#808080"   />
<rect   y="475.87167"   x="632.96033"   height="298.32056"   width="414.2663"   style="fill:#808080"   />
<path      d="m 149.07669,293.76862 c -0.68509,-0.73922 -1.38851,-2.23767 -1.56316,-3.32987 -0.17465,-1.09221 -0.86294,-2.63398 -1.52952,-3.42618 -3.2573,-3.87108 -6.47592,-5.04233 -56.124331,-20.42362 -15.31598,-4.74495 -35.171248,-11.25274 -39.115435,-12.82052 -0.808897,-0.32153 -1.38896,-0.93854 -1.38896,-1.47743 0,-7.83404 12.577511,-85.79145 16.987621,-105.29196 l 0.771017,-3.40927 h 22.960162 c 38.210236,0 93.246926,1.43371 94.268926,2.45572 0.6808,0.6808 2.63515,13.89403 4.41789,29.86916 3.14409,28.17409 6.90894,48.20101 12.86557,68.43784 6.08985,20.6894 8.1831,28.90878 7.52276,29.5389 -0.24331,0.23218 -2.94251,1.15707 -5.99822,2.05531 -11.51747,3.3856 -26.22174,9.47496 -31.44519,13.02213 -4.27156,2.90077 -13.83928,6.12618 -18.20267,6.13638 -2.80045,0.007 -3.32981,-0.15329 -4.42646,-1.33659 z"   style="fill:#000000"    />
<path      d="m 113.78547,279.33426 c -1.17857,-0.13737 -10.94196,-1.0538 -21.696424,-2.03651 -27.70447,-2.53154 -30.94812,-2.95942 -33.407129,-4.40683 -1.259897,-0.7416 -1.525941,-2.20059 -0.958624,-5.25709 0.596496,-3.2137 1.517059,-5.5108 2.20846,-5.5108 1.738408,0 14.442021,3.2452 28.407293,7.25677 12.413974,3.56596 25.573034,7.74015 28.292954,8.97481 1.06502,0.48345 1.2032,0.59723 0.98215,0.80872 -0.40775,0.3901 -1.52166,0.43983 -3.82868,0.17093 z"   style="fill:#000000"    />
<path      d="m 40.444552,155.08818 v -4.19643 h 10.446429 c 5.745535,0 10.446428,0.0653 10.446428,0.14515 0,0.0798 -0.361607,1.94309 -0.803571,4.14056 -0.441964,2.19748 -0.803572,4.02055 -0.803572,4.05128 0,0.0307 -4.339285,0.0559 -9.642857,0.0559 h -9.642857 v -4.19643 z"   style="fill:#000000"   />
<path      d="m 190.36913,157.45425 c -0.11947,-1.0067 -0.3615,-2.89509 -0.53785,-4.19643 l -0.32063,-2.36607 h 9.70213 9.70214 v 4.19643 4.19643 h -9.16428 -9.16428 z"   style="fill:#000000"   />
<path      d="m 615.11625,272.54343 c 0.002,-21.40541 0.83298,-35.50562 2.47088,-41.9209 3.39251,-13.28759 11.45931,-21.04674 19.40598,-18.66585 7.12694,2.13528 14.26167,12.96112 17.84087,27.07077 1.61595,6.37026 1.15505,13.19325 1.53946,33.7805 0.5175,27.71549 -0.58792,21.06818 -5.4567,23.00939 -10.53895,0.53892 -22.30452,-0.15916 -32.88856,-0.15916 -4.90434,-0.84582 -2.91112,-17.17113 -2.91193,-23.11475 z"   style="fill:#808080"    />
<rect   y="142.78654"   x="255.41161"   height="37.142857"   width="223.57143"   style="fill:#808080"  />
<rect   y="480.18509"   x="99.042946"   height="294.52264"   width="542.78833"   style="fill:#000000"/>
<path      d="m 200.54509,555.40829 c -89.63949,-0.9132 -94.32446,-1.24441 -96.92701,-6.85223 -1.56204,-3.3658 -2.94074,-30.08466 -3.02074,-58.5411 l -0.0574,-20.40246 20.84629,-67.48082 c 11.46546,-37.11444 22.4938,-73.0664 24.50743,-79.89323 5.1633,-17.50526 4.97478,-17.37901 27.70939,-18.55637 9.54005,-0.49406 90.98566,-1.16318 180.99025,-1.48695 177.24636,-0.6376 240.36647,0.17858 249.25515,3.22303 2.63902,0.90388 4.79822,1.9622 4.79822,2.35182 0,0.38962 7.54697,37.50787 16.77104,82.48501 l 16.77104,81.77663 -0.1658,21.71828 c -0.21432,28.07612 -1.54526,51.29972 -3.14062,54.80118 -1.85107,4.06264 -5.62891,4.75188 -31.75089,5.79277 -31.80558,1.26736 -314.1202,2.00646 -406.5864,1.06444 z m 406.30733,-101.12493 3.10105,-3.10105 -0.60833,-9.7784 c -1.16307,-18.69541 -12.32803,-96.45307 -15.34733,-106.88536 -2.1825,-7.54103 -4.19524,-9.54439 -10.66067,-10.61098 -21.23737,-3.50348 -392.00002,-3.47918 -409.0247,0.0268 -6.29438,1.29624 -8.24932,4.2217 -13.54779,20.27353 -8.17779,24.77481 -27.89978,98.2498 -27.89978,103.94165 0,1.59581 0.94046,4.09708 2.08992,5.55837 l 2.08991,2.65691 104.22864,0.26201 c 57.32575,0.14411 162.33476,0.37351 233.35333,0.50978 l 129.1247,0.24777 3.10105,-3.10104 z"   style="fill:#000000"  />
<rect   y="466.45956"   x="-6.8073044"   height="18.968634"   width="1055.3853"   style="fill:#000000"  />
<path      d="m 614.63776,302.58348 c -5.29168,-0.32042 -6.07931,-1.13957 -6.75602,-7.02642 -0.73166,-6.36476 0.19548,-46.38351 1.30576,-56.36208 0.9049,-8.13266 1.63645,-11.22516 5.58416,-23.60589 5.25883,-16.49271 5.27745,-17.16758 0.6254,-22.6753 -3.26266,-3.86279 -4.0422,-5.36955 -3.81605,-7.37597 4.2101,-10.38069 8.24974,-14.70508 14.7274,-22.95837 l 9.67778,-0.013 9.67778,-0.013 c 5.27487,5.99898 10.92225,12.27308 14.42647,19.41125 1.1143,2.35541 1.37399,4.99704 0.63072,6.4158 -0.22478,0.42905 -1.5897,2.11014 -3.03317,3.73575 -2.78818,3.14001 -3.85899,4.88485 -4.22373,6.88239 -0.24029,1.316 0.91804,5.63971 4.41237,16.47003 3.88881,12.05299 4.95176,16.25903 5.35563,21.19193 1.41884,17.33014 2.51529,59.58372 1.59882,61.61309 -1.0162,1.76094 -2.08668,3.02514 -3.36071,4.63691 l -21.68812,-0.0589 c -11.92847,-0.0324 -23.24349,-0.15306 -25.14449,-0.26817 z m 37.90161,-4.29762 c 3.25284,-0.4567 4.99972,-1.51469 6.03543,-3.65535 0.6708,-1.38644 0.76835,-2.42122 0.97012,-10.29142 0.32352,-12.61875 -0.37777,-40.48592 -1.10547,-43.92857 -1.41068,-6.67372 -5.75467,-17.20632 -9.28926,-22.52311 -2.42053,-3.641 -5.54859,-6.56104 -8.69344,-8.11531 -2.5584,-1.26443 -2.84944,-1.32587 -6.28018,-1.32587 -3.34164,0 -3.76621,0.0831 -5.97031,1.16815 -8.39807,4.13435 -13.50675,15.26443 -15.28286,33.29614 -1.00856,10.23921 -1.43362,37.19478 -0.72195,45.78268 0.39744,4.79602 1.00967,6.63282 2.70771,8.12373 1.35045,1.18571 2.23057,1.40803 7.20988,1.82128 4.60215,0.38195 27.04147,0.12204 30.42033,-0.35235 z"   style="fill:#000000"    />
<path      d="m 528.22047,296.52208 c -1.63978,-0.28833 -1.99457,-0.78876 -2.37962,-3.35645 -0.24888,-1.65968 -0.34597,-7.34627 -0.21576,-12.63687 0.22236,-9.03411 0.34071,-9.72308 1.94554,-11.3259 1.65032,-1.64823 1.69482,-1.97153 1.3004,-9.44801 -0.43629,-8.27027 -1.01393,-9.8041 -4.57699,-12.1534 -1.9156,-1.26305 -5.14669,-1.3213 -73.54713,-1.3258 -68.01634,-0.004 -71.75629,-0.0709 -75.85959,-1.34802 -7.9868,-2.48577 -13.38667,-7.67942 -16.92072,-16.27452 -1.6818,-4.09028 -1.71402,-4.58344 -1.73066,-26.48931 l -0.017,-22.32143 h 9.28571 9.28572 v 21.5 21.5 l 2.42857,2.42858 2.42857,2.42857 29.17857,0.089 c 16.04822,0.0489 49.42857,0.28999 74.17857,0.53571 l 45,0.44676 4.06435,1.99588 c 4.7081,2.31201 10.27688,8.03394 12.77272,13.124 1.50618,3.07172 1.72137,4.64641 1.95541,14.3096 0.19925,8.22656 0.50728,11.0608 1.27097,11.6946 1.3269,1.10122 1.49117,25.2787 0.17728,26.09072 -0.97008,0.59955 -17.1942,1.03408 -20.02496,0.53633 z"   style="fill:#000000"   />
<circle   r="2.5"   cy="276.41159"   cx="531.16162"   style="fill:#808080"  />
<circle   r="2.5"   cy="282.66159"   cx="531.16162"   style="fill:#808080"    />
<circle   r="2.5"   cy="289.09012"   cx="531.16162"   style="fill:#808080" />
<path      d="m 464.3669,151.6615 c -2.86258,-1.68946 -7.74825,-1.90052 -10.87348,-0.46974 l -1.67345,0.76613 -0.17828,-0.71031 c -0.67498,-2.68934 -1.94125,-22.23536 -1.61034,-24.85697 0.4328,-3.42873 3.08844,-5.20276 8.14997,-5.44436 3.21573,-0.15349 4.71688,0.31109 6.73733,2.08506 2.03141,1.7836 2.26983,3.55694 1.65819,12.33347 -0.26233,3.76426 -0.56991,8.87569 -0.68352,11.35873 -0.25639,5.60374 -0.2783,5.67461 -1.52642,4.93799 z"   style="fill:#000000"/>
<path      d="m 483.3695,170.06322 c -5.41425,-0.41478 -11.0943,-0.92172 -12.49095,-1.11479 l -1.28224,-0.17727 0.59764,-1.57287 c 1.29947,-3.4199 0.95684,-7.63713 -0.87432,-10.76177 -0.43686,-0.74545 -0.71092,-1.43874 -0.60902,-1.54065 0.1019,-0.1019 2.60119,-0.29697 5.55397,-0.43348 2.95277,-0.13651 7.18307,-0.39241 9.40067,-0.56866 6.45734,-0.51322 10.67462,-0.41499 12.21536,0.28453 1.72257,0.78208 3.38905,3.07236 3.86425,5.31072 0.71854,3.3846 -0.77347,8.49642 -2.92857,10.03362 -0.91384,0.65182 -1.35123,0.71183 -5.50729,0.75552 -2.48304,0.0261 -6.05582,-0.0706 -7.9395,-0.2149 z"   style="fill:#000000" />
<path      d="m 457.5272,205.36776 c -2.45281,-0.30061 -4.67874,-1.2118 -5.95295,-2.43686 -1.14141,-1.09738 -1.33185,-1.47952 -1.52825,-3.06652 -0.39185,-3.16646 1.14925,-25.28883 1.80628,-25.92888 0.0388,-0.0378 1.12139,0.28543 2.40572,0.71831 3.04187,1.02526 6.48103,0.90236 9.16764,-0.32761 l 1.75399,-0.803 0.25426,0.68887 c 0.13984,0.37888 0.34689,2.72046 0.46012,5.2035 0.11323,2.48304 0.4205,7.59447 0.68283,11.35873 0.61164,8.77653 0.37322,10.54986 -1.65819,12.33347 -1.94148,1.70464 -4.79748,2.57788 -7.39145,2.25999 z"   style="fill:#000000" />
<path      d="m 420.83194,170.0662 c -0.48932,-0.14664 -1.16998,-0.5199 -1.51258,-0.82946 -1.39673,-1.26207 -2.73507,-5.09762 -2.73507,-7.83846 0,-2.95315 2.01851,-6.46519 4.25221,-7.39849 1.23954,-0.51791 6.36292,-0.56279 12.10942,-0.10606 2.2176,0.17625 6.42085,0.43089 9.34057,0.56585 2.91971,0.13497 5.47924,0.35087 5.68782,0.47978 0.2811,0.17373 0.20587,0.47789 -0.29062,1.17515 -1.78572,2.50782 -2.35104,7.51824 -1.21345,10.75488 0.34032,0.96827 0.57745,1.8018 0.52697,1.85228 -0.17367,0.17367 -5.98332,0.73704 -12.35445,1.19803 -6.9782,0.50492 -12.42209,0.56266 -13.81082,0.1465 z"   style="fill:#000000"   />
<path      d="m 281.52929,150.65135 c -2.86258,-1.68946 -7.74825,-1.90052 -10.87348,-0.46974 l -1.67345,0.76613 -0.17828,-0.71031 c -0.67498,-2.68934 -1.94125,-22.23536 -1.61034,-24.85697 0.4328,-3.42873 3.08844,-5.20276 8.14997,-5.44436 3.21573,-0.15349 4.71688,0.31109 6.73733,2.08506 2.03141,1.7836 2.26983,3.55694 1.65819,12.33347 -0.26233,3.76426 -0.56991,8.87569 -0.68352,11.35873 -0.25639,5.60374 -0.2783,5.67461 -1.52642,4.93799 z"   style="fill:#000000"  />
<path      d="m 300.53189,169.05307 c -5.41425,-0.41478 -11.0943,-0.92172 -12.49095,-1.11479 l -1.28224,-0.17727 0.59764,-1.57287 c 1.29947,-3.4199 0.95684,-7.63713 -0.87432,-10.76177 -0.43686,-0.74545 -0.71092,-1.43874 -0.60902,-1.54065 0.1019,-0.1019 2.60119,-0.29697 5.55397,-0.43348 2.95277,-0.13651 7.18307,-0.39241 9.40067,-0.56866 6.45734,-0.51322 10.67462,-0.41499 12.21536,0.28453 1.72257,0.78208 3.38905,3.07236 3.86425,5.31072 0.71854,3.3846 -0.77347,8.49642 -2.92857,10.03362 -0.91384,0.65182 -1.35123,0.71183 -5.50729,0.75552 -2.48304,0.0261 -6.05582,-0.0706 -7.9395,-0.2149 z"   style="fill:#000000" />
<path      d="m 274.68959,204.35761 c -2.45281,-0.30061 -4.67874,-1.2118 -5.95295,-2.43686 -1.14141,-1.09738 -1.33185,-1.47952 -1.52825,-3.06652 -0.39185,-3.16646 1.14925,-25.28883 1.80628,-25.92888 0.0388,-0.0378 1.12139,0.28543 2.40572,0.71831 3.04187,1.02526 6.48103,0.90236 9.16764,-0.32761 l 1.75399,-0.803 0.25426,0.68887 c 0.13984,0.37888 0.34689,2.72046 0.46012,5.2035 0.11323,2.48304 0.4205,7.59447 0.68283,11.35873 0.61164,8.77653 0.37322,10.54986 -1.65819,12.33347 -1.94148,1.70464 -4.79748,2.57788 -7.39145,2.25999 z"   style="fill:#000000"  />
<path      d="m 237.99433,169.05605 c -0.48932,-0.14664 -1.16998,-0.5199 -1.51258,-0.82946 -1.39673,-1.26207 -2.73507,-5.09762 -2.73507,-7.83846 0,-2.95315 2.01851,-6.46519 4.25221,-7.39849 1.23954,-0.51791 6.36292,-0.56279 12.10942,-0.10606 2.2176,0.17625 6.42085,0.43089 9.34057,0.56585 2.91971,0.13497 5.47924,0.35087 5.68782,0.47978 0.2811,0.17373 0.20587,0.47789 -0.29062,1.17515 -1.78572,2.50782 -2.35104,7.51824 -1.21345,10.75488 0.34032,0.96827 0.57745,1.8018 0.52697,1.85228 -0.17367,0.17367 -5.98332,0.73704 -12.35445,1.19803 -6.9782,0.50492 -12.42209,0.56266 -13.81082,0.1465 z"   style="fill:#000000"  />
<circle   style="fill:#000000"   cx="458.16986"   cy="162.95271"   r="8" />
<circle   style="fill:#000000"   cx="275.13678"   cy="161.95538"   r="8" />
<rect   style="fill:#000000"   width="18.641388"   height="6.2137961"   x="626.38763"   y="154.72104"/>
<path      style="fill:#000000"   d="m 770.49615,437.29693 c -111.1678,1.23798 -127.36551,-10.19777 -123.70744,-22.26494 3.65806,-12.06713 37.01058,-10.79955 42.85479,-19.47077 5.84385,-8.67121 -32.68391,-6.05679 -20.85386,-16.88081 11.83005,-10.82401 48.69372,-3.61178 51.65096,-10.73945 2.957,-7.12771 -25.72735,-8.7193 -19.50342,-16.75665 6.22392,-8.03734 41.10303,-14.53125 99.66761,-10.46881 16.40968,2.22807 48.13933,2.72596 57.44851,13.86741 -0.19833,12.3966 -21.98356,9.93803 -31.63827,19.10535 -9.65471,9.16732 17.77653,10.85338 8.26506,17.72499 -9.51147,6.87161 -47.90806,5.36144 -36.7247,19.32169 35.87418,20.79197 -1.61221,22.94996 -27.45924,26.56199 z" />
<ellipse   style="fill:#000000"   cx="829.83875"   cy="449.0199"   rx="11.957949"   ry="4.5992112"   transform="rotate(-3.7207648)" />
<ellipse   style="fill:#000000"   cx="798.46393"   cy="461.81085"   rx="20.039261"   ry="7.0566044"   transform="matrix(0.99461967,-0.103594,0.1257999,0.99205564,0,0)"/>
<ellipse   style="fill:#000000"   cx="794.02789"   cy="461.54739"   rx="13.613663"   ry="5.1511159"   transform="rotate(-3.7207648)" />
<path      style="fill:#000000"   d="m 695.41451,380.69445 c 0,0 0.69648,2.33321 3.0095,10.08135 2.31303,7.74814 16.86208,12.78198 29.68166,11.50012 11.24917,-1.12478 11.69717,-4.68784 24.69623,-5.98764 12.99954,-1.29986 15.48686,1.96972 26.73636,0.84489 12.81959,-1.28186 23.60679,-8.84908 21.29361,-16.59722 -2.31307,-7.74811 -3.00937,-10.08134 -3.00937,-10.08134 z"/>
<path      style="fill:#808080;stroke:#808080;stroke-width:7"   d="m 766.71258,350.34856 c -11.25407,1.23846 -11.52899,5.789 -24.53396,7.22014 -13.00517,1.43112 -15.6668,-2.79632 -26.9212,-1.55787 -12.82499,1.41129 -23.29724,10.90043 -20.59058,20.85465 2.70701,9.95424 17.58155,16.65411 30.40672,15.24278 11.2539,-1.2384 11.52914,-5.78902 24.53415,-7.2201 13.00516,-1.43112 15.66643,2.79633 26.92103,1.55786 12.82499,-1.4113 23.29724,-10.90045 20.59071,-20.85468 -2.70717,-9.95423 -17.58172,-16.65408 -30.40687,-15.24278 z"  />
<path      style="fill:#808080"   d="m 692.89163,378.97834 c 0,0 0.73803,2.51705 3.18903,10.87567 2.45101,8.35862 17.86795,13.78908 31.45225,12.40623 11.92022,-1.21341 12.39495,-5.0572 26.16944,-6.45942 13.77501,-1.40227 16.41067,2.12492 28.33124,0.91146 13.58432,-1.38286 25.01502,-9.5463 22.56384,-17.90493 -2.45099,-8.35859 -3.18883,-10.87566 -3.18883,-10.87566 z"  />
<path      style="fill:#000000"   d="m 766.71258,350.34856 c -11.25403,1.23846 -11.52895,5.789 -24.53392,7.22014 -13.00517,1.43112 -15.6668,-2.79632 -26.9212,-1.55787 -12.82499,1.41129 -23.29724,10.90043 -20.59058,20.85465 2.70701,9.95424 17.58155,16.65411 30.40672,15.24278 11.2539,-1.2384 11.52914,-5.78902 24.53415,-7.2201 13.00516,-1.43112 15.66643,2.79633 26.92103,1.55786 12.825,-1.4113 23.2972,-10.90045 20.5907,-20.85468 -2.7072,-9.95423 -17.5817,-16.65408 -30.4069,-15.24278 z"/>
<g   transform="matrix(0.20001537,-0.01999969,0.02938986,0.09844893,689.39561,360.53219)"   style="fill:#808080">  
<path          d="m 144.144,134.762 c -6.504,0 -11.774,5.272 -11.774,11.764 0,6.504 5.269,11.776 11.774,11.776 6.502,0 11.771,-5.272 11.771,-11.776 0,-6.491 -5.27,-11.764 -11.771,-11.764 z"    />  
<path          d="m 97.063,170.072 c -6.504,0 -11.774,5.272 -11.774,11.764 0,6.504 5.269,11.776 11.774,11.776 6.502,0 11.771,-5.272 11.771,-11.776 10e-4,-6.491 -5.27,-11.764 -11.771,-11.764 z"   />
</g>
<path      style="fill:#000000"   d="m 785.51808,389.56856 c -1.3005,0.13014 -2.1994,0.75464 -2.0086,1.39368 0.1904,0.64029 1.3999,1.05384 2.7006,0.92379 1.2997,-0.12986 2.1987,-0.75436 2.0077,-1.39457 -0.1901,-0.63912 -1.4001,-1.05287 -2.6997,-0.9229 z" />
<g   transform="matrix(-0.32297921,0.03229494,-0.04745792,-0.15897257,811.07765,380.5191)"   style="fill:#808080">  
<path          d="m 144.144,134.762 c -6.504,0 -11.774,5.272 -11.774,11.764 0,6.504 5.269,11.776 11.774,11.776 6.502,0 11.771,-5.272 11.771,-11.776 0,-6.491 -5.27,-11.764 -11.771,-11.764 z"     />  
<path          d="m 97.063,170.072 c -6.504,0 -11.774,5.272 -11.774,11.764 0,6.504 5.269,11.776 11.774,11.776 6.502,0 11.771,-5.272 11.771,-11.776 10e-4,-6.491 -5.27,-11.764 -11.771,-11.764 z" />
</g>
<g   transform="matrix(-0.32297921,0.03229494,-0.04745792,-0.15897257,811.07771,380.5191)"   style="fill:#808080">  
<path          d="m 144.144,134.762 c -6.504,0 -11.774,5.272 -11.774,11.764 0,6.504 5.269,11.776 11.774,11.776 6.502,0 11.771,-5.272 11.771,-11.776 0,-6.491 -5.27,-11.764 -11.771,-11.764 z"/>  
<path          d="m 97.063,170.072 c -6.504,0 -11.774,5.272 -11.774,11.764 0,6.504 5.269,11.776 11.774,11.776 6.502,0 11.771,-5.272 11.771,-11.776 10e-4,-6.491 -5.27,-11.764 -11.771,-11.764 z"/>
</g>
<g   transform="matrix(-0.40810804,0.04080704,-0.05996658,-0.20087356,810.65967,404.7229)"   style="fill:#808080">  
<path          d="m 144.144,134.762 c -6.504,0 -11.774,5.272 -11.774,11.764 0,6.504 5.269,11.776 11.774,11.776 6.502,0 11.771,-5.272 11.771,-11.776 0,-6.491 -5.27,-11.764 -11.771,-11.764 z" />  
<path          style="fill:#808080"     d="m 97.063,170.072 c -6.504,0 -11.774,5.272 -11.774,11.764 0,6.504 5.269,11.776 11.774,11.776 6.502,0 11.771,-5.272 11.771,-11.776 10e-4,-6.491 -5.27,-11.764 -11.771,-11.764 z" />
</g>
<g   transform="matrix(-0.40810804,0.04080704,-0.05996658,-0.20087356,810.65975,404.7229)"   style="fill:#808080">  
<path          d="m 144.144,134.762 c -6.504,0 -11.774,5.272 -11.774,11.764 0,6.504 5.269,11.776 11.774,11.776 6.502,0 11.771,-5.272 11.771,-11.776 0,-6.491 -5.27,-11.764 -11.771,-11.764 z" />  
<path          d="m 97.063,170.072 c -6.504,0 -11.774,5.272 -11.774,11.764 0,6.504 5.269,11.776 11.774,11.776 6.502,0 11.771,-5.272 11.771,-11.776 10e-4,-6.491 -5.27,-11.764 -11.771,-11.764 z" />
</g>
<path      style="fill:#808080"   d="m 779.21204,368.24894 c -1.30049,0.13014 -2.19937,0.75464 -2.00857,1.39368 0.19037,0.64029 1.39993,1.05384 2.7006,0.92379 1.29967,-0.12986 2.19869,-0.75436 2.00774,-1.39457 -0.19019,-0.63912 -1.40011,-1.05287 -2.69977,-0.9229 z" />
<path      style="fill:#808080"   d="m 779.21211,368.24894 c -1.3005,0.13014 -2.1994,0.75464 -2.0086,1.39368 0.1904,0.64029 1.3999,1.05384 2.7006,0.92379 1.2997,-0.12986 2.1987,-0.75436 2.0077,-1.39457 -0.1901,-0.63912 -1.4001,-1.05287 -2.6997,-0.9229 z"/>
<path      style="fill:#808080"   d="m 718.31686,395.58964 c -1.30049,0.13014 -2.19937,0.75464 -2.00857,1.39368 0.19037,0.64029 1.39993,1.05384 2.7006,0.92379 1.29967,-0.12986 2.19869,-0.75436 2.00774,-1.39457 -0.19019,-0.63912 -1.40011,-1.05287 -2.69977,-0.9229 z"/>
<path      d="m 718.31693,395.58964 c -1.3005,0.13014 -2.1994,0.75464 -2.0086,1.39368 0.1904,0.64029 1.3999,1.05384 2.7006,0.92379 1.2997,-0.12986 2.1987,-0.75436 2.0077,-1.39457 -0.1901,-0.63912 -1.4001,-1.05287 -2.6997,-0.9229 z" />
<path      style="fill:#808080"   d="m 744.4148,391.86136 c -1.30049,0.13014 -2.19937,0.75464 -2.00857,1.39368 0.19037,0.64029 1.39993,1.05384 2.7006,0.92379 1.29967,-0.12986 2.19869,-0.75436 2.00774,-1.39457 -0.19019,-0.63912 -1.40011,-1.05287 -2.69977,-0.9229 z" />
<path      style="fill:#000000"   d="m 744.41487,391.86136 c -1.3005,0.13014 -2.1994,0.75464 -2.0086,1.39368 0.1904,0.64029 1.3999,1.05384 2.7006,0.92379 1.2997,-0.12986 2.1987,-0.75436 2.0077,-1.39457 -0.1901,-0.63912 -1.4001,-1.05287 -2.6997,-0.9229 z" />
<g   transform="matrix(0.20001537,-0.01999969,0.02938986,0.09844893,692.51121,348.50989)"   style="fill:#808080">  
<path          d="m 144.144,134.762 c -6.504,0 -11.774,5.272 -11.774,11.764 0,6.504 5.269,11.776 11.774,11.776 6.502,0 11.771,-5.272 11.771,-11.776 0,-6.491 -5.27,-11.764 -11.771,-11.764 z" />  
<path          d="m 97.063,170.072 c -6.504,0 -11.774,5.272 -11.774,11.764 0,6.504 5.269,11.776 11.774,11.776 6.502,0 11.771,-5.272 11.771,-11.776 10e-4,-6.491 -5.27,-11.764 -11.771,-11.764 z" />
</g>
<g   transform="matrix(0.20001537,-0.01999969,0.02938986,0.09844893,692.51125,348.50989)"   style="fill:#808080">  
<path          d="m 144.144,134.762 c -6.504,0 -11.774,5.272 -11.774,11.764 0,6.504 5.269,11.776 11.774,11.776 6.502,0 11.771,-5.272 11.771,-11.776 0,-6.491 -5.27,-11.764 -11.771,-11.764 z" />  
<path          d="m 97.063,170.072 c -6.504,0 -11.774,5.272 -11.774,11.764 0,6.504 5.269,11.776 11.774,11.776 6.502,0 11.771,-5.272 11.771,-11.776 10e-4,-6.491 -5.27,-11.764 -11.771,-11.764 z"  />
</g>
<path      d="m 724.84139,379.12308 c -1.3005,0.13014 -2.1994,0.75464 -2.0086,1.39368 0.1904,0.64029 1.3999,1.05384 2.7006,0.92379 1.2997,-0.12986 2.1987,-0.75436 2.0077,-1.39457 -0.1901,-0.63912 -1.4001,-1.05287 -2.6997,-0.9229 z" />
<path      style="fill:#808080"   d="m 738.20105,366.69549 c -1.3005,0.13014 -2.1994,0.75464 -2.0086,1.39368 0.1904,0.64029 1.3999,1.05384 2.7006,0.92379 1.2997,-0.12986 2.1987,-0.75436 2.0077,-1.39457 -0.1901,-0.63912 -1.4001,-1.05287 -2.6997,-0.9229 z" />
<path      style="fill:#000000"   d="m 758.39589,389.68653 c -1.3005,0.13014 -2.1994,0.75464 -2.0086,1.39368 0.1904,0.64029 1.3999,1.05384 2.7006,0.92379 1.2997,-0.12986 2.1987,-0.75436 2.0077,-1.39457 -0.1901,-0.63912 -1.4001,-1.05287 -2.6997,-0.9229 z" />
<path      style="fill:#000000"   d="m 704.02517,392.79343 c -1.3005,0.13014 -2.1994,0.75464 -2.0086,1.39368 0.1904,0.64029 1.3999,1.05384 2.7006,0.92379 1.2997,-0.12986 2.1987,-0.75436 2.0077,-1.39457 -0.1901,-0.63912 -1.4001,-1.05287 -2.6997,-0.9229 z" />
<path      style="fill:#808080"   d="m 780.45489,358.61755 c -1.3005,0.13014 -2.1994,0.75464 -2.0086,1.39368 0.1904,0.64029 1.3999,1.05384 2.7006,0.92379 1.2997,-0.12986 2.1987,-0.75436 2.0077,-1.39457 -0.1901,-0.63912 -1.4001,-1.05287 -2.6997,-0.9229 z" />
<path      style="fill:#808080"   d="m 773.61971,376.01618 c -1.3005,0.13014 -2.1994,0.75464 -2.0086,1.39368 0.1904,0.64029 1.3999,1.05384 2.7006,0.92379 1.2997,-0.12986 2.1987,-0.75436 2.0077,-1.39457 -0.1901,-0.63912 -1.4001,-1.05287 -2.6997,-0.9229 z" />
<path      style="fill:#000000"   d="m 793.19315,383.47273 c -1.3005,0.13014 -2.1994,0.75464 -2.0086,1.39368 0.1904,0.64029 1.3999,1.05384 2.7006,0.92379 1.2997,-0.12986 2.1987,-0.75436 2.0077,-1.39457 -0.1901,-0.63912 -1.4001,-1.05287 -2.6997,-0.9229 z" />
<path      style="fill:#000000"   d="m 632.06291,153.46459 c -2.38596,-2.15761 -2.35414,-3.751 -2.35414,-3.751 0,0 3.52179,-3.77684 5.90206,-3.75673 2.38027,0.0201 6.07947,4.01555 6.07947,4.01555 0,0 0.032,1.31985 -2.27039,3.43613 -7.3899,0.0968 -0.0388,-0.0388 -7.357,0.056 z" />
<rect   style="fill:#000000"   width="259.22977"   height="150.74432"   x="731.79999"   y="140.28751"   ry="2.03578" />
<rect   style="fill:#808080"   width="157.05162"   height="129.93025"   x="749.46039"   y="150.37918"   ry="2.03578"/>
<rect   style="fill:#808080"   width="8.8302116"   height="9.4609413"   x="942.44983"   y="195.35005"   ry="2.03578"/>
<rect   style="fill:#808080"   width="8.8302116"   height="9.4609413"   x="956.73969"   y="195.35005"   ry="2.03578" />
<rect   style="fill:#808080"   width="8.8302116"   height="9.4609413"   x="971.12848"   y="195.35005"   ry="2.03578"/>
<rect   style="fill:#808080"   width="8.8302116"   height="9.4609413"   x="942.44983"   y="209.06311"   ry="2.03578"/>
<rect   style="fill:#808080"   width="8.8302116"   height="9.4609413"   x="956.73969"   y="209.06311"   ry="2.03578"/>
<rect   style="fill:#808080"   width="8.8302116"   height="9.4609413"   x="971.12848"   y="209.06311"   ry="2.03578"/>
<rect   style="fill:#808080"   width="8.8302116"   height="9.4609413"   x="942.22681"   y="222.21294"   ry="2.03578"/>
<rect   style="fill:#808080"   width="8.8302116"   height="9.4609413"   x="956.51666"   y="222.21294"   ry="2.03578"/>
<rect   style="fill:#808080"   width="8.8302116"   height="9.4609413"   x="970.90546"   y="222.21294"   ry="2.03578" />
<rect   style="fill:#808080"   width="3.5679445"   height="137.36584"   x="925.94891"   y="148.11691"   ry="2.430311" />
<rect   style="fill:#808080"   width="37.686409"   height="17.839722"   x="942.22681"   y="164.85281"   ry="2.03578"/>
<rect   style="fill:none;stroke:#000000;stroke-width:3.56599998;stroke-linejoin:round"   width="140"   height="115.82329"   x="757.97522"   y="157.54813"   ry="1.8147485" />
<ellipse   style="fill:none;stroke:#808080;stroke-width:3.48612499;stroke-linejoin:round"   cx="961.15668"   cy="259.52368"   rx="12.948635"   ry="13.256937" />
<rect   style="fill:none;stroke:#808080;stroke-width:3.56599998;stroke-linejoin:round"   width="1.2614588"   height="11.353129"   x="960.43939"   y="247.19614"   ry="0.63072938" />
<path      style="fill:#000000;fill-opacity:1"   d="m 749.32299,301.55249 c -3.32044,-1.04392 -5.6665,-3.95777 -5.67277,-7.04564 l -0.002,-0.86725 h 16.24128 16.24128 v 0.83066 c 0,2.43256 -1.8068,5.22585 -4.21247,6.51245 -1.26436,0.6762 -1.63631,0.70061 -11.55577,0.75849 -5.63714,0.0329 -10.60505,-0.052 -11.0398,-0.18871 z" />
<path      style="fill:#000000"   d="m 951.44963,301.55249 c -3.32044,-1.04392 -5.6665,-3.95777 -5.67277,-7.04564 l -0.002,-0.86725 h 16.24128 16.24128 v 0.83066 c 0,2.43256 -1.8068,5.22585 -4.21247,6.51245 -1.26436,0.6762 -1.63631,0.70061 -11.55577,0.75849 -5.63714,0.0329 -10.60505,-0.052 -11.0398,-0.18871 z" />
<ellipse   style="fill:#000000;stroke:#000000;stroke-width:1.26026165;stroke-linejoin:round;stroke-miterlimit:4"   cx="223.04184"   cy="437.43622"   rx="25.613533"   ry="13.79942"  />
<path      style="fill:#000000;stroke:#808080;stroke-width:1.25797772;stroke-linejoin:miter"   d="m 246.04296,438.04167 a 22.33638,11.846668 0 0 1 -7.05412,8.63985 l -15.28226,-8.63985 z" />
<path      style="fill:#000000;stroke:#808080;stroke-width:1.25467718;stroke-linejoin:round"   d="m 237.8517,447.25026 a 22.204647,11.854495 1.0400102e-6 0 1 -14.96697,2.95517 l 0.29571,-11.85345 z" />
<path      style="fill:#000000;stroke:#808080;stroke-width:1.25821364;stroke-linejoin:miter"   d="m 223.29529,425.34904 a 22.196831,11.925617 1.3227127e-6 0 1 14.865,2.94527 l -14.60693,8.97954 z" />
<path      style="fill:#000000;stroke:#808080;stroke-width:1.26789355;stroke-linejoin:round"   d="m 238.99449,428.67801 a 11.97937,22.438549 89.99999 0 1 7.14434,8.72316 l -22.43841,0.0425 z"/>
<path      style="fill:#000000;stroke:#808080;stroke-width:1.23757064"   d="m 200.12901,437.94944 a 21.529619,11.895063 0 0 0 6.79933,8.67515 l 14.73029,-8.67515 z" />
<path      style="fill:#000000;fill-opacity:1;stroke:#808080;stroke-width:1.25467718;stroke-linejoin:round;stroke-miterlimit:4"   d="m 207.44549,447.17582 a 11.854495,22.204647 89.999999 0 0 14.31804,2.95471 l 0.35322,-11.85299 z" />
<path      style="fill:#000000;fill-opacity:1;stroke:#808080;stroke-width:1.25487995;stroke-linejoin:miter"   d="m 222.22108,425.34778 a 11.854496,22.204645 89.999998 0 0 -14.35273,2.9277 l 14.61207,8.92599 z" />
<path      style="fill:#000000;stroke:#808080;stroke-width:1.22741115"   d="m 207.06405,428.61725 a 11.893224,21.180853 89.999996 0 0 -6.7439,8.66043 l 21.18072,0.0422 z" />
<circle   style="fill:#000000;fill-opacity:0;stroke:#000000;stroke-width:2.06497431;stroke-linejoin:round"   cx="223.08054"   id="ellipse204"   cy="4.2783632"   r="0" />



<style>
.line { stroke-linecap: round; stroke-width: 11px; stroke: blue; } 
.box { stroke-width:0; stroke:green; height: 100%; width: 100%; fill: none; } 
.button { width: 9%; height: 12%; } 
.white { fill: white; }  
.blue { fill: blue; } 

</style> 




<!--1-->
<svg x="3%" y="6.999999999999995%">

<svg width="18%" height="24%">
<rect class="box"/>
</svg> 

<svg width="18%" height="24%">
<g transform="scale(1, 1)">
<svg>
<line class="line" x1="50%" y1="25%" x2="50%" y2="65%"/>
</svg>
</g>
</svg> 

<svg class="button" x="4.5%" y="0%" width="9%" height="12%">
<g transform="scale(1, 1)">
	<circle class="blue" cx="50%" cy="50%" r="45%"/>
	<circle class="white" cx="50%" cy="50%" r="35%"/>
	<circle class="blue" cx="50%" cy="50%" r="20%"/>
</g>
</svg>

</svg> 

<!--2-->
<svg x="19%" y="7.9999999999999964%">

<svg width="18%" height="24%">
<rect class="box"/>
</svg>

<svg width="18%" height="24%">
<g transform="scale(1, 1)">
<svg>
<line class="line" x1="75%" y1="25%" x2="45%" y2="55%"/>
</svg>
</g>
</svg>

<svg class="button" x="9%" y="0%" width="9%" height="12%">
<g transform="scale(1, 1)">
	<circle class="blue" cx="50%" cy="50%" r="45%"/>
	<circle class="white" cx="50%" cy="50%" r="35%"/>
	<circle class="blue" cx="50%" cy="50%" r="20%"/>
</g>
</svg>

</svg> 

<!--3-->
<svg x="14.000000000000002%" y="43.00000000000001%">

<svg width="18%" height="24%">
<rect class="box"/>
</svg>

<svg width="18%" height="24%">
<g transform="scale(1, 1)">
<svg>
<line class="line" x1="75%" y1="25%" x2="45%" y2="55%"/>
</svg>
</g>
</svg>

<svg class="button" x="9%" y="0%" width="9%" height="12%">
<g transform="scale(1, 1)">
	<circle class="blue" cx="50%" cy="50%" r="45%"/>
	<circle class="white" cx="50%" cy="50%" r="35%"/>
	<circle class="blue" cx="50%" cy="50%" r="20%"/>
</g>
</svg>

</svg>


<!--4-->
<svg x="43%" y="15%">

<svg width="18%" height="24%">
<rect class="box"/>
</svg>

<svg width="18%" height="24%">
<g transform="scale(1, 1)">
<svg>
<line class="line" x1="50%" y1="25%" x2="50%" y2="65%"/>
</svg>
</g>
</svg>

<svg class="button" x="4.5%" y="0%" width="9%" height="12%">
<g transform="scale(1, 1)">
	<circle class="blue" cx="50%" cy="50%" r="45%"/>
	<circle class="white" cx="50%" cy="50%" r="35%"/>
	<circle class="blue" cx="50%" cy="50%" r="20%"/>
</g>
</svg>

</svg>


<!--5-->
<svg x="53%" y="3.0000000000000027%">

<svg width="18%" height="24%">
<rect class="box"/>
</svg>

<svg width="18%" height="24%">
<g transform="scale(1, 1)">
<svg>
<line class="line" x1="50%" y1="25%" x2="50%" y2="65%"/>
</svg>
</g>
</svg>

<svg class="button" x="4.5%" y="0%" width="9%" height="12%">
<g transform="scale(1, 1)">
	<circle class="blue" cx="50%" cy="50%" r="45%"/>
	<circle class="white" cx="50%" cy="50%" r="35%"/>
	<circle class="blue" cx="50%" cy="50%" r="20%"/>
</g>
</svg>

</svg>


<!--6-->
<svg x="56.99999999999999%" y="37%">

<svg width="18%" height="24%">
<rect class="box"/>
</svg>

<svg width="18%" height="24%">
<g transform="scale(1, 1)">
<svg>
<line class="line" x1="25%" y1="50%" x2="65%" y2="50%"/>
</svg>
</g>
</svg>

<svg class="button" x="0%" y="6%" width="9%" height="12%">
<g transform="scale(1, 1)">
	<circle class="blue" cx="50%" cy="50%" r="45%"/>
	<circle class="white" cx="50%" cy="50%" r="35%"/>
	<circle class="blue" cx="50%" cy="50%" r="20%"/>
</g>
</svg>

</svg>


<!--7-->
<svg x="40%" y="43.99999999999999%">

<svg width="18%" height="24%">
<rect class="box"/>
</svg>

<svg width="18%" height="24%">
<g transform="scale(1, 1)">
<svg>
<line class="line" x1="50%" y1="25%" x2="50%" y2="54%"/>
</svg>
</g>
</svg>

<svg class="button" x="4.5%" y="0%" width="9%" height="12%">
<g transform="scale(1, 1)">
	<circle class="blue" cx="50%" cy="50%" r="45%"/>
	<circle class="white" cx="50%" cy="50%" r="35%"/>
	<circle class="blue" cx="50%" cy="50%" r="20%"/>
</g>
</svg>

</svg>


<!--8-->
<svg x="72%" y="5.000000000000004%">

<svg width="18%" height="24%">
<rect class="box"/>
</svg>

<svg width="18%" height="24%">
<g transform="scale(1, 1)">
<svg>
<line class="line" x1="50%" y1="25%" x2="50%" y2="65%"/>
</svg>
</g>
</svg>

<svg class="button" x="4.5%" y="0%" width="9%" height="12%">
<g transform="scale(1, 1)">
	<circle class="blue" cx="50%" cy="50%" r="45%"/>
	<circle class="white" cx="50%" cy="50%" r="35%"/>
	<circle class="blue" cx="50%" cy="50%" r="20%"/>
</g>
</svg>



</svg>
</svg>