<svg xmlns="http://www.w3.org/2000/svg" viewBox="0 0 512 384">
<rect width="512" height="384" id="P006WIImgRct6" fill="#fff"/>

<path style="fill:#000000;" d="M 278.4791,273.84193 C 87.854793,275.96474 60.07987,256.35537 66.352524,235.66326 72.62516,214.97122 129.81618,217.1448 139.83751,202.27587 c 10.0207,-14.86889 -56.044533,-10.38584 -35.75902,-28.94626 20.28549,-18.5604 83.49724,-6.19328 88.56815,-18.4154 5.0705,-12.2222 -44.11581,-14.95137 -33.44337,-28.73336 10.67243,-13.78198 70.48117,-24.91737 170.90443,-17.95133 28.13841,3.82057 82.54662,4.67432 98.50948,23.77906 -0.34008,21.25699 -37.69617,17.04117 -54.25153,32.76077 -16.55535,15.71961 30.4822,18.61077 14.17247,30.39382 -16.30973,11.78305 -82.15006,9.1935 -62.97345,33.13175 61.51502,35.6529 -2.76453,39.3533 -47.08557,45.54701 z" /> 
<ellipse style="fill:#000000;" cx="413.32458" cy="227.28062" rx="20.504818" ry="7.8864694" transform="rotate(-3.7207648)" /> 
<ellipse style="fill:#000000;" cx="394.35892" cy="210.27278" rx="34.362198" ry="12.100269" transform="matrix(0.99461967,-0.103594,0.1257999,0.99205564,0,0)" /> 
<ellipse style="fill:#000000;" cx="351.91812" cy="248.76208" rx="23.343943" ry="8.8328447" transform="rotate(-3.7207648)" /> 
<path style="fill:#808080;" d="m 149.73331,176.78318 c 0,0 1.19428,4.00085 5.16052,17.28693 3.96625,13.28608 28.91415,21.91782 50.89644,19.71975 19.28945,-1.9287 20.05765,-8.03844 42.34773,-10.26726 22.29088,-2.22893 26.556,3.37757 45.846,1.44877 21.98232,-2.19807 40.4796,-15.1739 36.51309,-28.45998 -3.96632,-13.28603 -5.1603,-17.28692 -5.1603,-17.28692 z" /> 
<path style="fill:#808080;stroke:#808080;stroke-width:12" d="m 271.99125,124.74775 c -19.29785,2.12364 -19.76926,9.92665 -42.06947,12.38069 -22.30054,2.45401 -26.86455,-4.79497 -46.16297,-2.67135 -21.99157,2.42001 -39.94879,18.69144 -35.30757,35.76038 4.64183,17.06897 30.14786,28.55753 52.13974,26.13747 19.29756,-2.12354 19.76953,-9.92669 42.0698,-12.38062 22.30051,-2.45401 26.86392,4.79498 46.16267,2.67132 21.99157,-2.42001 39.9488,-18.69148 35.30779,-35.76042 -4.6421,-17.06897 -30.14814,-28.55748 -52.13999,-26.13747 z" /> 
<g transform="matrix(0.34297511,-0.03429435,0.05039608,0.1688147,139.41236,142.21006)" style="fill:#808080;fill-opacity:1;stroke:#808080;stroke-width:49.15569305;stroke-miterlimit:4;stroke-dasharray:none;stroke-opacity:1"> 
<path style="fill:#808080;" d="m 144.144,134.762 c -6.504,0 -11.774,5.272 -11.774,11.764 0,6.504 5.269,11.776 11.774,11.776 6.502,0 11.771,-5.272 11.771,-11.776 0,-6.491 -5.27,-11.764 -11.771,-11.764 z" /> 
<path style="fill:#808080;" d="m 97.063,170.072 c -6.504,0 -11.774,5.272 -11.774,11.764 0,6.504 5.269,11.776 11.774,11.776 6.502,0 11.771,-5.272 11.771,-11.776 10e-4,-6.491 -5.27,-11.764 -11.771,-11.764 z" /> 
</g> 
<path style="fill:#808080;" d="m 304.23775,192 c -2.23001,0.22316 -3.77136,1.29401 -3.44419,2.38981 0.32644,1.09793 2.40052,1.80706 4.63084,1.58406 2.2286,-0.22268 3.77019,-1.29354 3.44275,-2.39134 -0.32612,-1.09592 -2.40082,-1.8054 -4.6294,-1.58253 z" /> 
<path style="fill:#808080;" d="m 145.40721,173.84048 c 0,0 1.26553,4.3161 5.46838,18.64899 4.20285,14.33289 30.63895,23.64475 53.93255,21.27351 20.44011,-2.08069 21.25415,-8.6718 44.8739,-11.07625 23.62061,-2.40453 28.14009,3.64369 48.58081,1.56292 23.29363,-2.37125 42.89435,-16.36946 38.69121,-30.70237 -4.20282,-14.33284 -5.46802,-18.64896 -5.46802,-18.64896 z" /> 
<path style="fill:#000000;" d="m 271.99125,124.74775 c -19.29778,2.12364 -19.7692,9.92665 -42.0694,12.38069 -22.30054,2.45401 -26.86455,-4.79497 -46.16297,-2.67135 -21.99157,2.42001 -39.94879,18.69144 -35.30757,35.76038 4.64183,17.06897 30.14786,28.55753 52.13974,26.13747 19.29755,-2.12354 19.76951,-9.92669 42.06979,-12.38062 22.30052,-2.45401 26.86393,4.79498 46.16268,2.67132 21.99158,-2.42001 39.94873,-18.69148 35.30777,-35.76042 -4.64215,-17.06897 -30.1481,-28.55748 -52.14004,-26.13747 z" /> 
<g transform="matrix(0.34297511,-0.03429435,0.05039608,0.1688147,139.41243,142.21006)" style="fill:#808080"> 
<path style="fill:#808080" d="m 144.144,134.762 c -6.504,0 -11.774,5.272 -11.774,11.764 0,6.504 5.269,11.776 11.774,11.776 6.502,0 11.771,-5.272 11.771,-11.776 0,-6.491 -5.27,-11.764 -11.771,-11.764 z" /> 
<path style="fill:#808080" d="m 97.063,170.072 c -6.504,0 -11.774,5.272 -11.774,11.764 0,6.504 5.269,11.776 11.774,11.776 6.502,0 11.771,-5.272 11.771,-11.776 10e-4,-6.491 -5.27,-11.764 -11.771,-11.764 z" /> 
</g> 
<path style="fill:#000000;" d="m 304.23786,192 c -2.23002,0.22316 -3.7714,1.29401 -3.44423,2.38981 0.32648,1.09793 2.40047,1.80706 4.63084,1.58406 2.22865,-0.22268 3.7702,-1.29354 3.44268,-2.39134 -0.32597,-1.09592 -2.40081,-1.8054 -4.62929,-1.58253 z" /> 
<g transform="matrix(-0.5538266,0.05537754,-0.08137817,-0.27259723,348.06598,176.48249)" style="fill:#808080;fill-opacity:1;stroke:none;stroke-width:49.15569305;stroke-miterlimit:4;stroke-dasharray:none;stroke-opacity:1"> 
<path style="fill:#808080;" d="m 144.144,134.762 c -6.504,0 -11.774,5.272 -11.774,11.764 0,6.504 5.269,11.776 11.774,11.776 6.502,0 11.771,-5.272 11.771,-11.776 0,-6.491 -5.27,-11.764 -11.771,-11.764 z" /> 
<path style="fill:#808080;" d="m 97.063,170.072 c -6.504,0 -11.774,5.272 -11.774,11.764 0,6.504 5.269,11.776 11.774,11.776 6.502,0 11.771,-5.272 11.771,-11.776 10e-4,-6.491 -5.27,-11.764 -11.771,-11.764 z" /> 
</g> 
<g transform="matrix(-0.5538266,0.05537754,-0.08137817,-0.27259723,348.06608,176.48249)" style="fill:#808080;stroke:none"> 
<path style="fill:#808080;stroke:none" d="m 144.144,134.762 c -6.504,0 -11.774,5.272 -11.774,11.764 0,6.504 5.269,11.776 11.774,11.776 6.502,0 11.771,-5.272 11.771,-11.776 0,-6.491 -5.27,-11.764 -11.771,-11.764 z" /> 
<path style="fill:#808080;stroke:none" d="m 97.063,170.072 c -6.504,0 -11.774,5.272 -11.774,11.764 0,6.504 5.269,11.776 11.774,11.776 6.502,0 11.771,-5.272 11.771,-11.776 10e-4,-6.491 -5.27,-11.764 -11.771,-11.764 z" /> 
</g> 
<g transform="matrix(-0.69980074,0.06997362,-0.10282732,-0.3444467,347.34925,217.98581)" style="fill:#808080;"> 
<path style="fill:#808080;fill-opacity:1;stroke:none;stroke-width:49.15569305;stroke-miterlimit:4;stroke-dasharray:none;stroke-opacity:1" d="m 144.144,134.762 c -6.504,0 -11.774,5.272 -11.774,11.764 0,6.504 5.269,11.776 11.774,11.776 6.502,0 11.771,-5.272 11.771,-11.776 0,-6.491 -5.27,-11.764 -11.771,-11.764 z" /> 
<path style="fill:#808080;" d="m 97.063,170.072 c -6.504,0 -11.774,5.272 -11.774,11.764 0,6.504 5.269,11.776 11.774,11.776 6.502,0 11.771,-5.272 11.771,-11.776 10e-4,-6.491 -5.27,-11.764 -11.771,-11.764 z" /> 
</g> 
<g transform="matrix(-0.69980074,0.06997362,-0.10282732,-0.3444467,347.34938,217.98581)" style="fill:#808080;stroke:none"> 
<path style="fill:#808080;stroke:none" d="m 144.144,134.762 c -6.504,0 -11.774,5.272 -11.774,11.764 0,6.504 5.269,11.776 11.774,11.776 6.502,0 11.771,-5.272 11.771,-11.776 0,-6.491 -5.27,-11.764 -11.771,-11.764 z" /> 
<path style="fill:#808080;stroke:none" d="m 97.063,170.072 c -6.504,0 -11.774,5.272 -11.774,11.764 0,6.504 5.269,11.776 11.774,11.776 6.502,0 11.771,-5.272 11.771,-11.776 10e-4,-6.491 -5.27,-11.764 -11.771,-11.764 z" /> 
</g> 
<path
style="fill:#808080;" d="m 293.42462,155.44232 c -2.23001,0.22315 -3.77135,1.29401 -3.44418,2.38979 0.32644,1.09794 2.40052,1.80707 4.63083,1.58407 2.22861,-0.22268 3.7702,-1.29354 3.44277,-2.39133 -0.32613,-1.09592 -2.40084,-1.80539 -4.62942,-1.58253 z" /> 
<path style="fill:#808080;stroke:none;stroke-width:0.24418752" d="m 293.42474,155.44232 c -2.23002,0.22315 -3.77141,1.29401 -3.44424,2.38979 0.3265,1.09794 2.40048,1.80707 4.63084,1.58407 2.22866,-0.22268 3.77021,-1.29354 3.4427,-2.39133 -0.32598,-1.09592 -2.40082,-1.80539 -4.6293,-1.58253 z" /> 
<path style="fill:#808080;fill-opacity:1;stroke:none;stroke-width:12.00320625;stroke-miterlimit:4;stroke-dasharray:none;stroke-opacity:1" d="m 189.00497,202.32461 c -2.23001,0.22315 -3.77136,1.29401 -3.44419,2.3898 0.32644,1.09794 2.40053,1.80707 4.63085,1.58407 2.22859,-0.22268 3.77018,-1.29353 3.44275,-2.39134 -0.32612,-1.09592 -2.40082,-1.80539 -4.62941,-1.58253 z" id="path873-9-87-8" /> 
<path style="fill:#000000;stroke:none;stroke-width:0.24418752" d="m 189.00509,202.32461 c -2.23003,0.22315 -3.77141,1.29401 -3.44424,2.3898 0.32649,1.09794 2.40048,1.80707 4.63085,1.58407 2.22864,-0.22268 3.7702,-1.29353 3.44268,-2.39134 -0.32597,-1.09592 -2.40081,-1.80539 -4.62929,-1.58253 z" /> 
<path style="fill:#808080;fill-opacity:1;stroke:none;stroke-width:12.00320625;stroke-miterlimit:4;stroke-dasharray:none;stroke-opacity:1" d="m 233.75625,195.93157 c -2.23,0.22315 -3.77135,1.29401 -3.44418,2.3898 0.32644,1.09793 2.40052,1.80707 4.63083,1.58406 2.22863,-0.22267 3.77022,-1.29353 3.44279,-2.39133 -0.32613,-1.09593 -2.40086,-1.8054 -4.62944,-1.58253 z" /> 
<path style="fill:#000000;stroke:none;stroke-width:0.24418752" d="m 233.75637,195.93157 c -2.23002,0.22315 -3.7714,1.29401 -3.44423,2.3898 0.32649,1.09793 2.40046,1.80707 4.63083,1.58406 2.22868,-0.22267 3.77023,-1.29353 3.44272,-2.39133 -0.32598,-1.09593 -2.40084,-1.8054 -4.62932,-1.58253 z" /> 
<g transform="matrix(0.34297511,-0.03429435,0.05039608,0.1688147,144.75489,121.5949)" style="fill:#808080;fill-opacity:1;stroke:none;stroke-width:49.15569305;stroke-miterlimit:4;stroke-dasharray:none;stroke-opacity:1"> 
<path style="fill:#808080;fill-opacity:1;stroke:none;stroke-width:49.15569305;stroke-miterlimit:4;stroke-dasharray:none;stroke-opacity:1" d="m 144.144,134.762 c -6.504,0 -11.774,5.272 -11.774,11.764 0,6.504 5.269,11.776 11.774,11.776 6.502,0 11.771,-5.272 11.771,-11.776 0,-6.491 -5.27,-11.764 -11.771,-11.764 z" /> 
<path style="fill:#808080;fill-opacity:1;stroke:none;stroke-width:49.15569305;stroke-miterlimit:4;stroke-dasharray:none;stroke-opacity:1" d="m 97.063,170.072 c -6.504,0 -11.774,5.272 -11.774,11.764 0,6.504 5.269,11.776 11.774,11.776 6.502,0 11.771,-5.272 11.771,-11.776 10e-4,-6.491 -5.27,-11.764 -11.771,-11.764 z" /> 
</g> 
<g transform="matrix(0.34297511,-0.03429435,0.05039608,0.1688147,144.75496,121.5949)" style="fill:#808080;stroke:none"> 
<path style="fill:#808080;" d="m 144.144,134.762 c -6.504,0 -11.774,5.272 -11.774,11.764 0,6.504 5.269,11.776 11.774,11.776 6.502,0 11.771,-5.272 11.771,-11.776 0,-6.491 -5.27,-11.764 -11.771,-11.764 z" /> 
<path style="fill:#808080;" d="m 97.063,170.072 c -6.504,0 -11.774,5.272 -11.774,11.764 0,6.504 5.269,11.776 11.774,11.776 6.502,0 11.771,-5.272 11.771,-11.776 10e-4,-6.491 -5.27,-11.764 -11.771,-11.764 z" /> 
</g> <path style="fill:#808080;" d="m 200.19286,174.08868 c -2.23002,0.22315 -3.7714,1.29401 -3.44422,2.3898 0.32648,1.09793 2.40046,1.80707 4.63083,1.58407 2.22865,-0.22268 3.7702,-1.29354 3.44269,-2.39134 -0.32597,-1.09592 -2.40081,-1.80539 -4.6293,-1.58253 z" /> 
<path style="fill:#808080;" d="m 223.10126,152.77855 c -2.23003,0.22315 -3.77141,1.29401 -3.44423,2.3898 0.32648,1.09793 2.40047,1.80707 4.63084,1.58407 2.22865,-0.22269 3.7702,-1.29354 3.44269,-2.39133 -0.32598,-1.09593 -2.40082,-1.80541 -4.6293,-1.58254 z" /> 
<path style="fill:#000000;" d="m 257.73026,192.20229 c -2.23003,0.22315 -3.77141,1.29401 -3.44424,2.3898 0.32649,1.09794 2.40048,1.80707 4.63084,1.58407 2.22865,-0.22269 3.77021,-1.29354 3.44269,-2.39134 -0.32597,-1.09592 -2.40082,-1.8054 -4.62929,-1.58253 z" /> 
<path style="fill:#000000;" d="m 164.49838,197.52982 c -2.23003,0.22317 -3.77141,1.29402 -3.44423,2.38981 0.32648,1.09793 2.40047,1.80706 4.63084,1.58406 2.22864,-0.22267 3.7702,-1.29353 3.44268,-2.39132 -0.32597,-1.09594 -2.40081,-1.80541 -4.62929,-1.58255 z" /> 
<path style="fill:#808080;" d="m 295.55567,138.92695 c -2.23001,0.22316 -3.77136,1.29402 -3.44418,2.38981 0.32643,1.09793 2.40052,1.80706 4.63084,1.58405 2.22859,-0.22267 3.77018,-1.29353 3.44275,-2.39132 -0.32613,-1.09593 -2.40083,-1.80541 -4.62941,-1.58254 z" /> 
<path style="fill:#808080;" d="m 295.55579,138.92695 c -2.23003,0.22316 -3.77141,1.29402 -3.44423,2.38981 0.32648,1.09793 2.40046,1.80706 4.63083,1.58405 2.22865,-0.22267 3.77021,-1.29353 3.44269,-2.39132 -0.32597,-1.09593 -2.40081,-1.80541 -4.62929,-1.58254 z" /> 
<path style="fill:#808080;" d="m 283.83509,168.76114 c -2.23001,0.22316 -3.77135,1.29402 -3.44418,2.3898 0.32643,1.09794 2.40051,1.80707 4.63083,1.58406 2.22861,-0.22267 3.7702,-1.29353 3.44276,-2.39132 -0.32612,-1.09593 -2.40083,-1.80541 -4.62941,-1.58254 z" id="path873-9-87-3" /> 
<path style="fill:#808080;" d="m 283.8352,168.76114 c -2.23001,0.22316 -3.7714,1.29402 -3.44423,2.3898 0.32649,1.09794 2.40047,1.80707 4.63084,1.58406 2.22866,-0.22267 3.7702,-1.29353 3.44269,-2.39132 -0.32598,-1.09593 -2.40081,-1.80541 -4.6293,-1.58254 z" /> 
<path style="fill:#000000;" d="m 317.39864,181.54722 c -2.23002,0.22315 -3.77141,1.29401 -3.44424,2.3898 0.3265,1.09793 2.40048,1.80707 4.63084,1.58406 2.22866,-0.22268 3.77021,-1.29354 3.4427,-2.39133 -0.32598,-1.09592 -2.40081,-1.80541 -4.6293,-1.58253 z" id="path873-9-8-7" /> 
<path style="fill:#808080;" d="m 162.90013,158.10606 c -2.23001,0.22316 -3.7714,1.29402 -3.44422,2.3898 0.32648,1.09795 2.40046,1.80707 4.63083,1.58407 2.22865,-0.22268 3.7702,-1.29353 3.44269,-2.39133 -0.32597,-1.09592 -2.40081,-1.8054 -4.6293,-1.58254 z" /> 
</svg> 