<svg xmlns="http://www.w3.org/2000/svg" viewBox="0 0 512 384"> 
<rect y="0" x="0" height="384" width="512" style="fill:none;" /> 
<rect y="152.35419" x="210.32835" height="87.995468" width="361.97165" style="fill:#808080;stroke-width:1.95849133" /> 
<path d="m 272.20399,170.98678 c -6.78176,-4.00252 -18.35645,-4.50254 -25.76046,-1.11287 l -3.96458,1.81505 -0.42237,-1.6828 c -1.5991,-6.37134 -4.59903,-52.678 -3.81507,-58.88888 1.02535,-8.12303 7.31685,-12.325896 19.30817,-12.898273 7.61841,-0.363634 11.1748,0.737006 15.96147,4.939733 4.81263,4.22554 5.37747,8.42677 3.92843,29.21933 -0.62149,8.91795 -1.35018,21.02748 -1.61934,26.91007 -0.60741,13.27587 -0.65932,13.44377 -3.61625,11.69864 z" style="fill:#000000;" /> 
<path d="M 317.22322,214.58245 C 304.39627,213.5998 290.93961,212.3988 287.6308,211.9414 l -3.03777,-0.41998 1.41588,-3.7263 c 3.07858,-8.10211 2.26685,-18.09319 -2.07136,-25.4958 -1.03497,-1.76605 -1.68425,-3.40853 -1.44284,-3.64997 0.24141,-0.24141 6.1625,-0.70355 13.15796,-1.02696 6.99543,-0.32341 17.01748,-0.92966 22.27121,-1.34722 15.29814,-1.21587 25.28934,-0.98315 28.93952,0.67409 4.08095,1.85283 8.02903,7.27875 9.15483,12.58167 1.7023,8.01849 -1.83244,20.12894 -6.9381,23.77074 -2.16499,1.54423 -3.20121,1.6864 -13.04737,1.78991 -5.8826,0.0618 -14.3469,-0.16726 -18.80954,-0.50913 z" style="fill:#000000;stroke-width:2.36910892" /> 
<path d="m 256,298.22275 c -5.81098,-0.71218 -11.08445,-2.87088 -14.10319,-5.77318 -2.70413,-2.59982 -3.1553,-3.50515 -3.62059,-7.26492 -0.92834,-7.50169 2.7227,-59.91199 4.27927,-61.42834 0.0919,-0.0896 2.6567,0.67621 5.69942,1.70175 7.20652,2.42895 15.35426,2.13779 21.71913,-0.77614 l 4.1554,-1.9024 0.60236,1.63201 c 0.3313,0.89761 0.82183,6.44507 1.09008,12.32766 0.26825,5.88259 0.99621,17.99213 1.6177,26.91007 1.44904,20.79255 0.8842,24.99376 -3.92843,29.21933 -4.59958,4.03848 -11.36576,6.10728 -17.51115,5.35416 z" style="fill:#000000;stroke-width:2.36910892" /> 
<path d="m 169.06494,214.58951 c -1.15925,-0.3474 -2.77181,-1.2317 -3.58347,-1.96508 -3.309,-2.98998 -6.47968,-12.07681 -6.47968,-18.57016 0,-6.99633 4.78207,-15.31674 10.07395,-17.52783 2.93661,-1.22698 15.07445,-1.33331 28.68854,-0.25127 5.25373,0.41756 15.21169,1.02083 22.12882,1.34056 6.91711,0.31976 12.98091,0.83125 13.47506,1.13665 0.66596,0.41159 0.48773,1.13218 -0.68851,2.78406 -4.23056,5.9413 -5.56986,17.81153 -2.87479,25.47948 0.80626,2.29394 1.36804,4.26866 1.24845,4.38826 -0.41144,0.41144 -14.17514,1.74612 -29.26904,2.83826 -16.53211,1.19621 -29.42928,1.333 -32.71933,0.34707 z" style="fill:#000000;stroke-width:2.36910892" /> 
<circle style="fill:#000000;" cx="257.05942" cy="197.76726" r="18.952871" /> 
</svg> 