<svg xmlns="http://www.w3.org/2000/svg" viewBox="0 0 512 384">
<rect width="512" height="384" fill="none"/>

<!-- orange -->
<g>
<path style="fill:#ff7f2a" d="M215.42424 112.66906C195.33122 112.26442 174.98411 115.40761 155.73862 121.19558C144.29433 124.63734 133.10641 129.659 123.33787 136.54331C109.97681 145.95943 97.541178 157.49296 88.663358 171.21781C79.966888 184.66185 73.506058 200.22502 71.610328 216.12413C69.281108 235.65667 71.798918 256.36701 78.999978 274.67287C85.410208 290.96818 96.531068 305.75828 109.69544 317.30545C124.73621 330.49824 143.33368 340.19347 162.55984 345.72717C181.53986 351.19011 202.0217 351.63832 221.67702 349.70621C244.52637 347.46022 267.98055 342.69457 288.18384 331.78802C304.99529 322.71297 321.19113 310.08918 331.01254 293.70292C344.14738 271.78864 351.43695 244.6044 348.93076 219.18116C346.89679 198.54302 336.40302 178.3977 322.85835 162.69413C306.14239 143.31393 282.38354 130.14615 258.62525 120.62999C245.03228 115.18541 230.0637 112.96692 215.42424 112.6719C215.42424 112.6719 215.42424 112.66906 215.42424 112.66906" />

<path style="fill:#008000" d="M38.897697 152.9189C39.247207 149.86174 40.021557 148.69403 43.227117 146.39015C44.554317 145.43627 45.308617 144.77018 44.903327 144.90994C44.498037 145.04971 44.055997 145.05361 43.921007 144.91894C43.570287 144.56822 46.557807 138.75732 48.578437 135.85998C49.519327 134.51085 50.604327 132.51046 50.989537 131.41466C51.374747 130.31887 52.155367 128.61295 52.724257 127.62372C53.293147 126.6345 54.302417 124.42026 54.967067 122.70319C56.429457 118.92524 58.767487 115.59477 60.798527 114.39643C62.117857 113.61801 62.272927 113.33672 62.072397 112.08575C61.903237 111.03046 62.142697 110.22286 62.996497 108.96909C63.630327 108.03832 64.148917 106.9776 64.148917 106.61192C64.148917 105.50892 65.381347 103.97547 67.477877 102.46986C68.803027 101.51821 69.376147 100.82052 69.203117 100.36961C69.036507 99.935445 69.680217 99.018525 71.006397 97.800945C72.432267 96.491865 73.068787 95.553895 73.068787 94.761819C73.068787 92.775279 76.960317 88.602965 81.334827 85.899369C82.476557 85.193744 82.714777 84.796239 82.540937 83.886851C82.251557 82.373041 84.490357 80.258931 90.357447 76.505695C94.167567 74.068322 94.821217 73.478593 94.765207 72.528956C94.679707 71.078443 96.872157 69.961845 100.56344 69.57603C102.9927 69.322123 103.28767 69.176746 103.72512 68.01783C104.41236 66.197101 105.82097 65.839061 112.29686 65.839061C112.29686 65.839061 118.01739 65.839061 118.01739 65.839061C118.01739 65.839061 118.29552 64.730871 118.29552 64.730871C118.70935 63.082044 120.01265 62.981051 127.1061 64.048139C138.879 65.819173 146.44178 68.002991 154.93708 72.084574C166.80471 77.786405 174.99808 85.774018 178.15259 94.71711C178.60685 96.004915 179.18227 97.058035 179.43131 97.057375C179.68036 97.056705 182.29248 96.431515 185.23604 95.668055C189.49661 94.563002 191.82671 94.233653 196.66274 94.05295C196.66274 94.05295 202.73753 93.825959 202.73753 93.825959C202.73753 93.825959 203.26545 88.417876 203.26545 88.417876C203.97539 81.145269 205.43486 71.619817 205.93212 71.013507C206.15384 70.743171 206.40464 70.040742 206.48947 69.452554C206.82958 67.094282 209.30729 67.106445 212.01022 69.479654C212.88579 70.248411 213.89296 71.439726 214.24837 72.12702C214.92721 73.43976 215.13199 77.048801 214.56008 77.62071C214.37611 77.804682 214.20387 78.490397 214.17733 79.144519C214.15083 79.798645 213.88007 82.340805 213.57572 84.793767C213.253 87.394777 212.99759 95.295185 212.96294 103.74846C212.96294 103.74846 212.90354 118.24324 212.90354 118.24324C212.90354 118.24324 214.39358 121.58818 214.39358 121.58818C215.2131 123.42791 216.16336 125.58023 216.50527 126.37112C217.03614 127.5991 217.27331 127.75527 218.12923 127.44045C218.75916 127.20875 219.62861 127.28839 220.46951 127.65482C221.31009 128.02111 223.7556 128.24533 227.04791 128.25797C229.93014 128.26907 232.28832 128.45141 232.28832 128.66326C232.28832 130.0739 226.46463 133.70574 223.22942 134.31266C221.31234 134.67231 221.15744 135.07621 222.67196 135.76627C223.27006 136.03879 223.97902 136.67208 224.24742 137.17359C224.67021 137.96359 224.53981 138.20473 223.27145 138.97836C220.16654 140.8722 215.34947 140.78386 212.32335 138.77759C212.32335 138.77759 210.42109 137.51642 210.42109 137.51642C210.42109 137.51642 202.328 137.74846 202.328 137.74846C202.328 137.74846 194.23491 137.9805 194.23491 137.9805C194.23491 137.9805 193.19193 136.85511 193.19193 136.85511C192.61829 136.23614 192.14895 135.48845 192.14895 135.19358C192.14895 134.89871 191.31878 134.2831 190.30413 133.82556C187.88221 132.73342 186.35104 131.50114 186.35104 130.64412C186.35104 129.93558 188.30301 129.96249 196.77734 130.78787C196.77734 130.78787 199.39875 131.0432 199.39875 131.0432C199.39875 131.0432 199.08671 128.54565 199.08671 128.54565C198.90022 127.05309 198.94443 126.04812 199.19657 126.04812C199.42862 126.04812 200.54238 126.56449 201.67159 127.19562C202.8008 127.82675 203.91433 128.22593 204.1461 128.08269C204.70358 127.73814 205.77217 122.83711 206.43729 117.57425C207.3499 110.35307 206.33015 104.6981 203.84324 103.18909C201.98245 102.05999 199.66564 99.707115 199.85506 99.138835C200.21457 98.060305 194.01152 96.852075 192.59846 97.725395C192.3358 97.887725 190.17442 98.204705 187.7954 98.429775C185.41638 98.654855 182.53695 99.148885 181.39667 99.527625C179.49954 100.15774 179.30002 100.3627 179.04772 101.9405C178.55253 105.03729 173.66427 110.23337 168.0417 113.63962C160.59565 118.15056 148.06718 120.42384 138.91391 118.92483C137.28792 118.65854 135.60133 118.65279 134.45398 118.90963C133.43918 119.13679 129.44029 119.63427 125.56757 120.01513C110.60374 121.48677 91.225887 126.5928 77.751727 132.61453C68.415417 136.78701 54.046227 145.14525 44.883787 151.73307C42.014777 153.7959 39.428257 155.48367 39.135967 155.48367C38.752337 155.48367 38.686067 154.77043 38.897717 152.91921C38.897717 152.91921 38.897697 152.9189 38.897697 152.9189" />
</g>

</svg>
