<svg xmlns="http://www.w3.org/2000/svg" viewBox="0 0 512 384">
<rect width="512" height="384" id="P003WIImgRct2" fill="#fff"/>

  <!-- apple -->
  <g
     id="g10"
     style="fill:#008000">
    <path
       id="path4"
       d="M255.823364667 110.501389876C252.678680923 111.714793712 267.347721357 95.4087331486 282.636422731 87.6215177146C299.778684937 72.9596871241 415.715144685 100.381854283 385.640631454 82.5154877282C371.79193568 74.6264697689 267.628952001 33.1434948716 255.826414536 110.5078986C255.826414536 110.5078986 255.82290894 110.500887407 255.82290894 110.500887407" />
    <path
       id="path6"
       d="M261.410128801 103.684944252C261.410128801 103.684944252 256.342321503 115.59081502 256.342321503 115.59081502C249.094103231 129.577619614 243.199699626 129.672597912 240.000001385 114.75088576C240.000001385 114.75088576 239.834116554 69.3362674224 239.834116554 69.3362674224C239.646146464 68.385058841 244.028773221 66.0544330534 251.835351234 65.3849459C251.835351234 65.3849459 259.9428964 106.609675181 259.9428964 106.609675181C259.9428964 106.609675181 261.410128801 103.684944252 261.410128801 103.684944252" />
    <path
       id="path8"
       d="M282.660424383 101.298088695C432.539682986 65.7511989475 426.87933638 343.66761744 253.660878978 321.451845498C246.268557316 320.503768583 249.274103931 319.822631164 229.500938218 321.723272158C99.1086484216 318.581591541 79.1549912248 94.5427689912 212.415478362 98.3775177413C229.555345078 103.25717967 234.749926434 103.322559047 244.589621936 111.377076221C255.067067257 107.366919103 273.046489302 101.445358809 282.660424383 101.298088695C282.660424383 101.298088695 282.660424383 101.298088695 282.660424383 101.298088695"
       style="fill:#ff0000" />
  </g>
</svg>
