<?xml version="1.0" encoding="UTF-8" standalone="no"?>
<svg
   xmlns:dc="http://purl.org/dc/elements/1.1/"
   xmlns:cc="http://creativecommons.org/ns#"
   xmlns:rdf="http://www.w3.org/1999/02/22-rdf-syntax-ns#"
   xmlns:svg="http://www.w3.org/2000/svg"
   xmlns="http://www.w3.org/2000/svg"
   xmlns:sodipodi="http://sodipodi.sourceforge.net/DTD/sodipodi-0.dtd"
   xmlns:inkscape="http://www.inkscape.org/namespaces/inkscape"
   viewBox="0 0 512 384"
   version="1.1"
   id="svg14"
   sodipodi:docname="monopI04-wi7.svg"
   inkscape:version="0.92.3 (2405546, 2018-03-11)">
  <metadata
     id="metadata20">
    <rdf:RDF>
      <cc:Work
         rdf:about="">
        <dc:format>image/svg+xml</dc:format>
        <dc:type
           rdf:resource="http://purl.org/dc/dcmitype/StillImage" />
        <dc:title></dc:title>
      </cc:Work>
    </rdf:RDF>
  </metadata>
  <defs
     id="defs18" />
  <sodipodi:namedview
     pagecolor="#ffffff"
     bordercolor="#666666"
     borderopacity="1"
     objecttolerance="10"
     gridtolerance="10"
     guidetolerance="10"
     inkscape:pageopacity="0"
     inkscape:pageshadow="2"
     inkscape:window-width="1366"
     inkscape:window-height="705"
     id="namedview16"
     showgrid="true"
     inkscape:zoom="0.56054688"
     inkscape:cx="256"
     inkscape:cy="101.4131"
     inkscape:window-x="-8"
     inkscape:window-y="-8"
     inkscape:window-maximized="1"
     inkscape:current-layer="svg14">
    <inkscape:grid
       type="xygrid"
       id="grid827"
       spacingx="256"
       spacingy="192" />
  </sodipodi:namedview>
  <rect
     width="512"
     height="384"
     fill="none"
     id="rect2" />
  <!-- peach -->
  <g
     id="g12"
     transform="matrix(1.2617905,0,0,1.2617905,-802.14283,-547.06426)">
    <path
       style="fill:#ff7f2a"
       d="m 803.27733,505.68965 c -15.05681,2.18901 -26.67506,5.83593 -36.88718,12.76545 -10.57644,6.87713 -18.9127,16.3082 -25.00878,28.86346 -6.19904,12.76972 -12.03497,29.49342 -11.30571,46.37552 0.72987,16.56713 6.82595,37.19912 15.47414,52.67387 8.38866,15.37057 19.17408,29.8023 35.37687,38.65947 16.25581,8.65002 41.57652,15.42236 61.2715,13.07799 19.5384,-2.6569 40.53471,-12.66066 54.7593,-27.97884 13.85904,-15.57771 25.58148,-42.51475 28.55215,-63.92779 2.76109,-21.57022 0.26015,-46.89094 -11.30693,-63.92779 -11.8778,-17.24582 -39.38996,-31.52158 -57.99012,-37.77363 -18.86214,-6.26483 -37.72428,-1.10699 -52.93706,1.18559 0,0 0.002,0.007 0.002,0.007"
       id="path4"
       inkscape:connector-curvature="0" />
    <path
       style="fill:#008000"
       d="m 825.26634,502.12679 c 9.74239,4.01186 19.85094,8.54401 30.32381,14.01562 10.3687,5.31381 22.35127,13.70247 32.14545,18.13105 9.79723,4.16782 18.91333,4.58455 26.1548,7.71118 6.98252,3.12602 11.35871,4.48036 16.3612,11.30571 5.00066,6.82534 9.48102,16.56773 13.65007,29.43736 1.14781,-9.63821 1.82224,-19.27764 1.82224,-29.12482 -0.10357,-9.95137 1.09481,-21.67441 -1.82224,-29.74991 -3.12602,-8.12851 -9.48347,-14.06801 -16.04744,-18.4442 -6.66816,-4.48098 -12.34752,-5.00188 -23.49788,-8.02311 -11.51286,-3.2826 -30.68693,-11.46229 -44.02629,-10.68124 -13.33632,0.8304 -24.74742,5.77988 -35.06189,15.4187 0,0 -0.002,0.004 -0.002,0.004"
       id="path6"
       inkscape:connector-curvature="0" />
    <path
       style="fill:#803300"
       d="m 837.45583,510.43138 c -7.71057,1.19838 -15.47354,1.82347 -23.49787,2.08361 -8.28326,0.20836 -22.81978,-0.15596 -24.69624,-0.88523 -1.77107,-0.78165 8.96195,-2.81409 13.70368,-3.85589 4.58455,-1.19899 9.06614,-2.13661 13.65008,-3.02245 -5.73054,-12.34751 -8.49284,-20.0063 -8.90956,-23.75801 -0.46851,-3.75111 5.15784,2.65751 6.82595,1.77167 1.51092,-1.0942 0.98941,-7.19027 3.28199,-7.45042 2.29196,-0.20836 9.01312,2.55273 10.73302,6.25204 1.51092,3.59575 -2.7093,9.90019 -1.19777,14.90146 1.56575,4.94948 4.7399,9.27328 10.10732,13.96322 0,0 -6e-4,0 -6e-4,0"
       id="path8"
       inkscape:connector-curvature="0" />
    <path
       style="fill:#aa4400"
       d="m 833.84907,521.0642 c 9.42986,1.30256 17.81912,4.94949 25.58087,10.73302 7.66061,5.73114 14.79788,11.14975 20.21709,24.07055 5.15846,12.76546 10.73302,34.59644 11.30632,52.6233 0.52029,18.13044 -2.08544,36.00196 -8.02494,55.01884 6.14908,-10.52405 10.21334,-22.45545 12.19216,-36.57464 1.98186,-14.22397 2.39737,-33.0849 -0.57147,-47.56902 -3.18025,-14.74549 -8.07612,-29.43798 -18.13349,-39.28516 -10.32056,-9.79418 -24.18082,-15.99444 -42.56775,-19.01567 0,0 10e-4,-10e-4 10e-4,-10e-4"
       id="path10"
       inkscape:connector-curvature="0" />
  </g>
</svg>
