<svg xmlns="http://www.w3.org/2000/svg" viewBox="0 0 512 384">
<rect width="512" height="384" id="P003WIImgRct6" fill="#fff"/>
  <!-- pear -->
  <g
     id="g10">
    <path
       id="path4"
       d="M262.290637362 103.950478062C256.412997531 106.399891672 249.996072402 105.796958063 244.249079688 107.712451622C232.509339208 111.625865417 224.777193767 122.329723526 221.637945122 134.10117685C220.685780649 137.671804755 219.334984961 141.717958337 218.94652768 145.410450829C218.552994564 149.146388468 217.104733922 155.506433068 215.899200642 159.123700782C215.052437681 161.663455365 209.948217209 168.962284713 209.458632803 171.100692064C188.986640248 188.055419777 175.058490981 215.814309013 175.058490981 244.899171319C175.058490981 295.980045898 215.438512881 337.390106279 265.254469127 337.390106279C315.06921207 337.390106279 355.451716231 295.980045898 355.451716231 244.899171319C355.451716231 228.256941448 342.844731347 194.239735822 341.720322391 191.9899161C339.962981192 188.474666009 333.303183995 175.739627582 331.761732788 172.87717896C329.987093674 169.581603475 327.338542556 166.616914607 325.834403195 163.181297256C319.44034159 148.565772954 312.393356072 134.154795931 305.907539828 119.564817776C305.01632991 117.556768131 304.569611829 115.292043707 303.487423587 113.367099743C300.153879515 107.440182006 296.76571455 104.087759386 291.275096073 100.427291411C289.08087679 98.9650499585 282.222576565 99.184702303 279.462423846 98.7247492027C278.990782965 98.6462741088 268.242900885 101.4702755 262.290637362 103.950478062C262.290637362 103.950478062 262.290637362 103.950478062 262.290637362 103.950478062"
       style="fill:#808000" />
    <path
       id="path6"
       d="M261.99996784 105.130287095C268.109838293 84.9231730271 242.824450625 50.4569640809 224.164720704 47.1601430131C205.823699845 43.9194188365 186.482371991 52.4394753704 170.155634261 59.6794717735C167.33364762 60.9307432325 153.995196942 62.1164740741 153.692861903 62.4011772624C153.272647254 62.7973373466 154.896224595 62.1708278164 155.425914782 62.4011772624C158.032946453 63.5350366234 159.452755699 64.1662546592 162.35738051 64.8505908721C167.33985884 66.0244001781 174.774455666 69.7791829712 178.820152868 73.0154401896C202.395328918 91.8727492478 206.460628197 105.44527833 234.176317172 101.370784665C241.831323266 100.245618786 244.837242169 100.245618786 250.121788389 101.370784665C252.185215849 101.810378766 261.405983732 107.094924986 261.99996784 105.130287095C261.99996784 105.130287095 261.99996784 105.130287095 261.99996784 105.130287095"
       style="fill:#008000" />
    <path
       id="path8"
       d="M264.444962356 113.013327341C264.916558712 106.405056557 263.712717377 99.7818699399 263.206335962 93.1986332677C263.050120435 91.1486411894 263.558716962 89.1544610431 263.432355364 87.1193068797C263.273290244 84.5688663263 263.109861687 82.0154871311 262.980572578 79.4635327319C262.782058419 75.4819179581 264.670959496 71.7742758775 265.683688931 67.9800106506C265.84274292 67.3820638283 265.964329225 66.7739430719 266.13294493 66.1787011359C266.264549333 65.7224992564 267.009161096 65.0401555317 266.584694322 64.827916579C266.011336363 64.5408980971 265.408157868 65.3563934635 264.782650147 65.5033255543C264.36811242 65.6006124084 260.461199257 65.9344487974 260.279983012 65.9535833629C259.274700361 66.0596638799 255.970431395 65.7594549035 255.77634746 65.9535833629C255.086300932 66.6436298911 255.77634746 67.9050752843 255.77634746 68.8808156794C255.77634746 72.6157181153 256.203519121 76.414446961 256.451711911 80.139186594C256.707640898 83.9786111764 257.303873513 87.7904859917 257.577668106 91.6224637885C258.013533249 97.7271359623 257.802897192 103.959383037 257.802897192 110.086106156C257.802897192 112.344140717 256.690899545 118.321215727 259.37905554 119.543189818C261.990317074 120.730412243 264.313613972 114.840717302 264.445207243 113.013327341C264.445207243 113.013327341 264.444962356 113.013327341 264.444962356 113.013327341"
       style="fill:#803300" />
  </g>
</svg>
