<svg xmlns="http://www.w3.org/2000/svg" viewBox="0 0 512 384">
<rect width="512" height="384" id="P003WIImgRct1" fill="#fff"/>

<rect width="512" height="384" fill="none"/>
<path d="m309.07 114.08c-51.583 15.34-88.582 2.9157-118.64 23.209-13.287 8.969-25.794 29.13-29.135 44.817-3.918 18.385 0.71658 45.42 9.7678 61.894 10.418 18.978 37.34 34.047 54.111 47.725 19.94 16.281 43.265 46.581 68.493 51.661 10.853 2.1829 27.508-1.7066 35.766-9.0791 16.881-15.071 20.947-48.663 26.708-70.542 7.8627-29.811 21.892-71.354 15.696-101.56-3.3661-16.429-14.999-39.136-29.572-47.42-8.6554-4.9234-23.647-3.5377-33.192-0.70574" fill="#f00"/>
<path d="m233.07 150.9c-7.2577-3.8789-4.8171-11.756-2.3865-17.861 2.6368-5.6293-7.5873 3.4898-11.058 1.8761-14.559 4.7714-26.433 15.615-41.299 19.47-13.443 2.7214-24.432-8.0157-37.126-10.06 6.5256-7.0871 17.48-5.4498 26.254-7.0518 18.232-3.7321 35.67-10.561 53.61-15.442 3.4852-3.2069-6.0695-9.2453-7.0133-14.493 2.0021-4.5169 3.6647-9.2794 4.8449-13.968 5.9861-5.3302 13.057-7.1404 18.835-0.27738 3.3652 2.6768 11.293 10.195 8.5751 0.85625-1.9237-15.594-4.3384-31.755-12.874-45.291 2.7098-4.6404 12.333-12.737 11.707-1.7109 5.8568 22.118 11.47 44.299 17.182 66.455 8.5224 0.13422 15.825-5.1096 23.979-6.8242 8.2578-4.1187 17.148-6.5511 26.406-6.83 14.211-1.3558 29.126-4.2693 40.181-13.985 3.888-3.6934 15.423-4.4757 8.8182 3.0825-4.5726 9.8524-8.4893 21.879-19.731 25.969-11.17 4.5668-23.226 6.1184-34.944 8.7061 2.0044 6.2594-2.6882 11.369-5.0851 16.739-2.8988 7.4676-17.679 8.7766-21.488 0.67172-3.9082-4.2911-12.457-15.341-17.289-11.361-2.502 7.6574-1.3416 19.917-11.019 22.419-7.3863 0.31584-13.919 7.372-19.08-1.0887" fill="#008000"/>
<ellipse cx="263.87" cy="285.62" rx="6.1017" ry="12.203" fill="#ff0"/>
<ellipse cx="290.64" cy="303.46" rx="6.661" ry="13.05" fill="#ff0" stroke-width="1.0517"/>
<ellipse cx="329.69" cy="242.9" rx="6.1017" ry="10.983" fill="#ff0" stroke-width=".94868"/>
<ellipse transform="rotate(-9.1179)" cx="243.94" cy="256.28" rx="6.1017" ry="12.203" fill="#ff0"/>
<ellipse cx="250.35" cy="237.11" rx="6.1017" ry="12.203" fill="#ff0"/>
<ellipse cx="59.775" cy="411.69" rx="6.1017" ry="12.203" fill="#ff0"/>
<ellipse cx="322.96" cy="297.8" rx="7.1186" ry="12.203" fill="#ff0" stroke-width="1.0634"/>
<ellipse cx="271.82" cy="166.3" rx="6.1017" ry="11.186" fill="#ff0" stroke-width=".95023"/>
<ellipse transform="rotate(-3.8141)" cx="336.24" cy="255.26" rx="6.1017" ry="12.203" fill="#ff0"/>
<ellipse transform="rotate(7.6119)" cx="361.54" cy="149.29" rx="7.435" ry="12.288" fill="#ff0" stroke-width="1.091"/>
<ellipse cx="321.47" cy="160.49" rx="6.1017" ry="12.203" fill="#ff0"/>
<ellipse cx="223.93" cy="205.48" rx="6.1017" ry="12.203" fill="#ff0"/>
<ellipse cx="197.41" cy="230.1" rx="6.1017" ry="12.203" fill="#ff0"/>
<ellipse cx="290.09" cy="260.16" rx="6.1017" ry="12.203" fill="#ff0"/>
<ellipse cx="182.03" cy="193.68" rx="6.1017" ry="12.203" fill="#ff0"/>
<ellipse cx="198.71" cy="163.99" rx="6.1017" ry="12.203" fill="#ff0"/>
<ellipse cx="232.47" cy="164.4" rx="6.1017" ry="12.203" fill="#ff0"/>
<ellipse cx="227.1" cy="265.59" rx="6.1017" ry="12.203" fill="#ff0"/>
<ellipse cx="341.9" cy="151.79" rx="6.1017" ry="12.203" fill="#ff0"/>
<ellipse transform="rotate(-6.2176)" cx="344.49" cy="216.4" rx="5.2881" ry="11.797" fill="#ff0" stroke-width=".9153"/>
</svg>
