<?xml version="1.0" encoding="UTF-8" standalone="no"?>
<svg
   xmlns:dc="http://purl.org/dc/elements/1.1/"
   xmlns:cc="http://creativecommons.org/ns#"
   xmlns:rdf="http://www.w3.org/1999/02/22-rdf-syntax-ns#"
   xmlns:svg="http://www.w3.org/2000/svg"
   xmlns="http://www.w3.org/2000/svg"
   xmlns:sodipodi="http://sodipodi.sourceforge.net/DTD/sodipodi-0.dtd"
   xmlns:inkscape="http://www.inkscape.org/namespaces/inkscape"
   viewBox="0 0 512 384"
   version="1.1"
   id="svg16"
   sodipodi:docname="monopI04-wi4.svg"
   inkscape:version="0.92.3 (2405546, 2018-03-11)">
  <sodipodi:namedview
     pagecolor="#ffffff"
     bordercolor="#666666"
     borderopacity="1"
     objecttolerance="10"
     gridtolerance="10"
     guidetolerance="10"
     inkscape:pageopacity="0"
     inkscape:pageshadow="2"
     inkscape:window-width="1366"
     inkscape:window-height="705"
     id="namedview18"
     showgrid="true"
     inkscape:zoom="0.56054688"
     inkscape:cx="256"
     inkscape:cy="192"
     inkscape:window-x="-8"
     inkscape:window-y="-8"
     inkscape:window-maximized="1"
     inkscape:current-layer="svg16">
    <inkscape:grid
       spacingy="191.8"
       spacingx="256"
       id="grid829"
       type="xygrid" />
  </sodipodi:namedview>
  <metadata
     id="metadata22">
    <rdf:RDF>
      <cc:Work
         rdf:about="">
        <dc:format>image/svg+xml</dc:format>
        <dc:type
           rdf:resource="http://purl.org/dc/dcmitype/StillImage" />
        <dc:title></dc:title>
      </cc:Work>
    </rdf:RDF>
  </metadata>
  <defs
     id="defs20" />
  <rect
     id="rect2"
     fill="none"
     height="384"
     width="512" />
  <!-- banana -->
  <g
     id="g14">
    <path
       id="path4"
       d="M79.289674 165.08732C79.289674 165.08732 75.654344 172.91276 73.258504 176.47953C73.097174 176.71971 72.924654 176.96877 72.742374 177.22532C69.116054 182.32929 61.629374 190.39662 61.629374 190.39662C61.629374 190.39662 81.600824 235.66117 99.082314 253.22623C122.560494 276.81664 151.009224 292.66442 184.689354 302.10506C216.353894 310.98073 265.239024 314.919 297.650984 309.36152C340.091774 302.08446 373.972554 287.89491 406.983174 260.24576C426.776624 243.6671 442.734674 220.86141 448.801824 195.04688C452.516874 179.24009 445.180584 146.32368 445.180584 146.32368C445.180584 146.32368 443.092704 120.83488 446.520844 108.79641C448.493774 101.86817 457.242914 90.03277 457.242914 90.03277C457.242914 90.03277 445.741804 91.22627 440.882224 89.55892C436.064164 87.9058 429.767594 80.65095 429.767594 80.65095C429.767594 80.65095 423.008044 112.96491 415.694864 127.56005C412.332524 134.27038 402.292264 145.65355 402.292264 145.65355C402.292264 145.65355 366.377724 185.47623 343.435814 197.2129C316.837014 210.82037 287.406714 215.07367 257.544214 216.01719C233.366124 216.7811 209.327964 212.38442 185.684694 205.88394C162.741734 199.576 141.453484 186.91582 119.260534 178.33429C106.168914 173.27205 79.289674 165.08732 79.289674 165.08732C79.289674 165.08732 79.289674 165.08732 79.289674 165.08732"
       style="fill:#ffff00" />
    <path
       id="path6"
       d="M429.552204 80.67085C429.552204 80.67085 442.346244 90.38485 442.346244 90.38485C442.346244 90.38485 457.983404 89.20021 457.983404 89.20021C457.983404 89.20021 449.121794 101.48769 447.084784 108.6282C443.679944 120.56352 445.426294 145.82569 445.426294 145.82569C445.426294 145.82569 437.687664 151.57352 433.106104 152.22271C427.125384 153.07015 420.782564 151.28201 415.336604 148.66881C411.899654 147.0196 406.570324 141.32408 406.570324 141.32408C406.570324 141.32408 413.255064 132.37955 415.573534 127.34541C422.367424 112.59373 429.552204 80.67085 429.552204 80.67085C429.552204 80.67085 429.552204 80.67085 429.552204 80.67085"
       style="fill:#803300" />
    <path
       id="path8"
       d="M429.607174 80.76367C429.607174 80.76367 438.416454 75.60084 443.293644 75.59024C446.894624 75.58224 450.328014 76.90475 452.948104 79.37502C455.589534 81.86542 457.980424 89.32536 457.980424 89.32536C457.980424 89.32536 447.714364 92.3671 442.892704 91.02086C437.504004 89.51629 429.607174 80.76367 429.607174 80.76367C429.607174 80.76367 429.607174 80.76367 429.607174 80.76367"
       style="fill:#803300" />
    <path
       id="path10"
       d="M61.771284 189.91478C61.771284 189.91478 58.366334 180.58053 58.366334 180.58053C58.366334 180.58053 65.880694 172.59652 65.880694 172.59652C65.880694 172.59652 71.281644 162.26425 71.281644 162.26425C71.281644 162.26425 79.617884 165.43438 79.617884 165.43438C79.617884 165.43438 75.196424 174.14609 72.279654 178.17358C69.186504 182.44459 61.771284 189.91478 61.771284 189.91478C61.771284 189.91478 61.771284 189.91478 61.771284 189.91478"
       style="fill:#803300" />
    <path
       id="path12"
       d="M58.281484 180.25219C58.281484 180.25219 62.166784 169.68187 62.166784 169.68187C62.166784 169.68187 70.908724 162.19694 70.908724 162.19694C70.908724 162.19694 65.709274 172.59585 65.709274 172.59585C65.709274 172.59585 58.281484 180.25219 58.281484 180.25219"
       style="fill:#803300" />
  </g>
</svg>
