<svg xmlns="http://www.w3.org/2000/svg" viewBox="0 0 512 384">
<rect width="512" height="384" id="P003WIImgRct3" fill="#fff"/>
  <!-- orange -->
  <path
     style="fill:#ff7f2a"
     d="m 215.42424,112.66906 c -31.15556,0.0141 -63.59442,5.67936 -90.23842,22.6052 -31.429975,20.367 -54.739231,55.55769 -54.409943,93.79968 -0.868332,33.94786 13.960844,67.87761 40.339963,89.45807 28.7202,24.55891 67.62026,35.41605 105.01325,31.65267 37.29409,-2.34951 75.97639,-13.52044 102.72935,-40.90851 21.72973,-23.19434 32.00525,-56.23496 30.2787,-87.70664 C 345.7831,182.27635 317.01791,149.21999 282.84009,131.84202 262.0652,120.43257 239.3936,112.45368 215.42424,112.6689" />
  <path
     style="fill:#008000"
     d="m 38.897697,152.9189 c -0.263634,-5.38656 7.317591,-6.40362 5.810042,-10.25645 4.314947,-7.32173 8.21864,-14.82895 11.501824,-22.6825 5.864296,-4.98205 5.82831,-12.34691 11.268314,-17.51009 4.226802,-4.127506 5.767247,-10.508816 10.719885,-14.324511 5.186782,-3.523487 6.721214,-10.048133 13.445299,-12.471372 3.2995,-3.737929 6.378119,-6.548814 11.745109,-6.959466 2.50928,-4.588158 8.76941,-2.363728 13.19516,-2.87545 3.47857,-3.070813 9.38067,-2.48156 14.7503,-1.104535 16.62616,2.954613 34.29048,9.690527 44.03974,24.264768 2.30337,4.57551 3.59004,10.612712 9.86267,6.668761 5.68129,-1.70052 11.63799,-1.58264 17.50149,-1.842096 1.0718,-8.600701 1.03955,-17.652814 4.37794,-25.697799 9.02493,-1.091677 8.08159,10.689782 6.46025,16.665607 -0.84574,11.126931 -0.55101,22.299113 -0.67218,33.449473 2.26675,4.03573 2.56189,10.69945 8.48548,9.65857 3.495,0.76085 15.62091,-0.8581 7.58305,3.88755 -2.97208,2.47521 -10.50788,2.07327 -4.52042,5.89071 -4.05433,5.33268 -10.59052,1.25895 -15.31597,-0.1268 -4.96693,0.14241 -9.93385,0.28482 -14.90077,0.42723 -0.80411,-3.34206 -12.80859,-7.89045 -4.48059,-7.78765 2.77857,-0.98701 11.00469,3.53928 9.33239,-1.6472 -1.308,-5.89135 7.13725,3.66779 6.16462,-3.87281 1.13053,-6.75042 3.13462,-14.45128 -0.54518,-20.72857 -4.29695,-5.386165 -9.87682,-8.201387 -16.91075,-5.514495 -8.91859,-1.579195 -9.15967,7.491385 -14.80933,11.610805 -9.8991,8.52604 -23.9067,10.49153 -36.48161,8.68048 -24.9516,2.24008 -50.146584,7.81649 -71.936689,20.65178 -8.87011,4.73916 -17.003295,10.69042 -25.431804,16.11083 -0.805889,-0.46667 -0.07738,-1.89916 -0.23827,-2.56477 z" />
</svg>
