<svg xmlns="http://www.w3.org/2000/svg" viewBox="0 0 1024 768">
<rect width="1024" height="768" id="P012WIImgRct0" fill="#fff"/>

<path style="fill:#000000;" d="m 100.383,655.12412 c -2.078395,-2.66663 -1.960245,-2.87243 8.94951,-15.58768 l 11.05573,-12.88537 0,-268.53779 0,-268.53778 211.04615,0 211.04612,0 0,267.87757 0,267.87754 12.1403,14.14018 c 8.492,9.89086 11.931,14.77358 11.4437,16.2479 -0.6338,1.91768 -21.567,2.10774 -232.13594,2.10774 l -231.43936,0 z m 439.30671,-23.78957 c -21.3421,3.86699 -396.23753,3.86699 -415.36991,0 15.08642,-2.75709 385.56471,-2.81009 415.36991,0 z m -2.9131,-270.87952 0,-264.25655 -205.34222,0 -205.34221,0 0,264.25655 0,264.25654 205.34221,0 205.34222,0 z m -410.67878,-0.9385 -0.13811,-263.48748 205.31859,-0.27621 205.7329,0.41432 0,263.62558 -0.1381,265.00662 -205.45669,0 -205.59481,0.13811 z m 185.94313,132.73562 0,-120.53808 -87.84083,0 -87.84083,0 0,120.53808 0,120.53807 87.84083,0 87.84083,0 z m 13.68948,-132.45941 0,-252.9975 -3.99276,0 -3.99278,0 0,252.9975 0,252.99748 3.99278,0 3.99276,0 z m 199.63827,132.45941 0,-120.53808 -96.9672,0 -96.96712,0 0,120.53808 0,120.53807 96.96712,0 96.9672,0 z M 268.40574,364.09812 c -24.31308,-0.19948 -64.09815,-0.19948 -88.41122,0 -24.31309,0.1995 -4.55868,-0.25876 44.0675,-0.25876 48.62618,0 68.6568,0.45826 44.34372,0.25876 z m 208.76457,-7e-5 c -26.8228,-0.19799 -70.7147,-0.19799 -97.5375,0 -26.82286,0.19798 -6.0488,-1.98379 47.5968,-1.98379 53.6457,0 76.7635,2.18177 49.9407,1.98379 z m -165.12935,-8.27911 c 0,-0.87159 -30.04081,-1.32459 -87.84083,-1.32459 -57.80003,0 -87.84083,0.453 -87.84083,1.32459 0,0.8716 30.0408,1.32459 87.84083,1.32459 57.80002,0 87.84083,-0.45299 87.84083,-1.32459 z m 213.32775,0 c 0,-0.87267 -33.0829,-1.32459 -96.9672,-1.32459 -63.88421,0 -96.96712,0.45192 -96.96712,1.32459 0,0.87268 33.08291,1.32459 96.96712,1.32459 63.8843,0 96.9672,-0.45191 96.9672,-1.32459 z m -213.32775,-127.16105 0,-121.86265 -87.84083,0 -87.84083,0 0,121.86265 0,121.86268 87.84083,0 87.84083,0 z m 213.32775,0 0,-121.86265 -96.9672,0 -96.96712,0 0,118.55117 0,118.55119 14.25987,0 14.25987,0 0,3.31148 0,3.31149 82.70728,0 82.7073,0 z" />
<rect style="fill:#808080;" width="364.71164" height="20" x="632.22827" y="388.34171" />
<rect style="fill:#808080;" width="20" height="50.507626" x="666.09167" y="407.49237" />
<rect style="fill:#808080;" width="20" height="50.507626" x="950.95471" y="407.49237" />
<path style="fill:#000000" d="m 207.14036,617.82174 c -1.57659,-4.86736 -5.54925,-17.02686 -8.82813,-27.02109 -3.27888,-9.99424 -5.9616,-18.3459 -5.9616,-18.55925 0,-0.21335 16.03071,-0.38791 35.62379,-0.38791 19.6266,0 35.62379,0.19294 35.62379,0.42966 0,0.37161 -5.84294,18.28737 -15.05281,46.1553 l -2.63453,7.97175 -17.95198,0.13065 -17.95199,0.13065 -2.86654,-8.84976 z m -14.2915,-58.54868 0,-8.34543 35.12556,0 35.12556,0 0,8.34543 0,8.34544 -35.12556,0 -35.12556,0 0,-8.34544 z" />
<path style="fill:#000000;" d="m 317.94501,360.08814 0,-252.45922 3.86699,0 3.86699,0 0,252.45922 0,252.45922 -3.86699,0 -3.86699,0 0,-252.45922 z" />
<rect style="fill:#000000;" width="130.37282" height="37.565048" x="657.77454" y="318.53342" />
<rect style="fill:#808080;" width="5.6468143" height="26.912878" x="667.49097" y="324.28268" />
<rect style="fill:#808080;" width="10.334314" height="26.912878" x="676.53735" y="324.28268" />
<rect style="fill:#000000;" width="130.37282" height="28.450001" x="658.17957" y="359.11877" />
<circle style="fill:#808080;" cx="676.29004" cy="373.17554" r="10" />
<path style="fill:#000000;" d="m 657.75951,317.27846 0.2818,-31.30175 130.4306,0.17952 0.128,4.32406 -125.2138,-0.1274 c 0,0 0.1777,21.74695 0.3881,21.95737 l 124.4896,0.74547 -0.1527,4.37481 z" />
<path style="fill:#808080" d="m 590.91471,681.68511 c -0.162,-0.49019 -0.2945,-1.37744 -0.2945,-1.97173 0,-1.02136 -0.4364,-1.08072 -7.9465,-1.08072 l -7.9465,0 -0.3172,-9.43589 c -0.7323,-21.77953 -1.3307,-36.73744 -2.0002,-49.99686 -0.391,-7.7459 -0.7111,-15.07647 -0.7112,-16.28999 -10e-5,-1.21351 -0.1074,-2.08193 -0.2384,-1.92984 -0.1311,0.1522 -0.022,10.0177 0.2414,21.9234 0.423,19.09002 0.091,53.57215 -0.5224,54.25723 -0.6512,0.72755 -17.8247,-3.58258 -28.0337,-7.03566 -10.9656,-3.70918 -23.788,-10.40541 -27.7584,-14.49648 l -2.0274,-2.08897 -0.2486,-16.32495 c -0.7383,-48.49221 6.3975,-94.87245 23.6465,-153.69273 l 3.4434,-11.74231 -1.2564,-2.48926 c -2.7456,-5.43981 -5.0299,-14.86231 -5.0727,-20.92449 -0.016,-2.18352 0.09,-2.39423 1.196,-2.39423 0.6671,0 1.2129,-0.12556 1.2129,-0.27926 0,-0.15367 -1.7278,-2.67898 -3.8395,-5.61199 -37.3266,-51.84406 -71.8343,-142.35482 -95.3706,-250.14868 -7.6638,-35.09981 -13.8704,-72.40923 -15.0487,-90.46202 l -0.3154,-4.83373 2.1578,-2.578 c 6.3875,-7.63112 15.1559,-9.39479 29.2092,-5.87516 2.9353,0.73513 7.6792,1.92309 10.5419,2.63992 l 5.205,1.30333 5.2262,-2.87415 c 7.9656,-4.3806 12.2195,-5.87383 17.6474,-6.19458 5.6592,-0.33444 6.9953,0.0997 12.9083,4.19365 8.2125,5.68605 10.5244,5.92429 15.0741,1.55336 1.7942,-1.72355 5.0642,-4.17384 7.2668,-5.44506 3.4178,-1.97251 4.5712,-2.34937 7.8688,-2.57102 4.826,-0.32438 6.9741,0.29424 14.3396,4.12969 3.2097,1.67144 6.9465,3.33665 8.3039,3.70047 2.389,0.64028 2.5376,0.60588 4.6411,-1.07453 3.4638,-2.76718 10.4834,-6.77894 14.696,-8.39896 3.3233,-1.27802 4.7185,-1.49392 9.7035,-1.50148 5.2155,-0.008 6.5076,0.20802 12.4018,2.07282 3.6188,1.14491 7.0429,2.08166 7.6092,2.08166 0.7625,0 1.0694,0.40185 1.1831,1.54918 l 0.1535,1.54921 13.3423,0.28167 13.3422,0.28168 0.1388,5.1505 0.1388,5.15051 -3.7775,0.33158 c -2.0777,0.18241 -8.0351,0.4916 -13.2385,0.68721 l -9.4609,0.35559 -0.043,40.07486 c -0.044,40.92579 -0.3015,54.86865 -2.386,129.36492 -0.6546,23.39286 -1.4115,52.0389 -1.682,63.65787 -0.5794,24.88808 -0.6064,69.17991 -0.049,79.99488 l 0.3922,7.60514 3.8983,11.83023 c 2.1441,6.50665 4.0338,12.21789 4.1993,12.69168 0.2186,0.62546 -0.5704,1.45339 -2.8799,3.02203 l -3.1809,2.16055 0.3083,6.27315 c 0.1697,3.45025 2.3257,55.19964 4.7913,114.9986 3.2043,77.71392 4.3319,108.84646 3.9534,109.15006 -0.2912,0.23342 -2.2761,1.07925 -4.4109,1.87948 -4.4501,1.66832 -11.4895,2.33175 -15.8814,1.49653 l -2.7818,-0.52889 -0.3046,1.8851 c -0.3271,2.02461 -0.8825,2.43129 -1.3576,0.99388 z" />
<path style="fill:#808080" d="m 72.193785,681.68511 c 0.16195,-0.49019 0.29449,-1.37744 0.29449,-1.97173 0,-1.02136 0.4364,-1.08072 7.94646,-1.08072 l 7.94648,0 0.31726,-9.43589 c 0.7323,-21.77952 1.33068,-36.73746 2.00012,-49.99686 0.39108,-7.74592 0.71114,-15.07647 0.71125,-16.28999 9e-5,-1.21351 0.10742,-2.08193 0.23839,-1.92985 0.13109,0.15222 0.0224,10.0177 -0.24143,21.92342 -0.42299,19.09001 -0.091,53.57214 0.52239,54.25721 0.65122,0.72754 17.824805,-3.58258 28.033745,-7.03564 10.96562,-3.7092 23.78801,-10.40543 27.75838,-14.4965 l 2.02747,-2.08896 0.24853,-16.32496 c 0.73833,-48.49221 -6.39751,-94.87245 -23.64642,-153.69272 l -3.4434,-11.74231 1.25637,-2.48927 c 2.74557,-5.4398 5.02987,-14.86231 5.07272,-20.92449 0.0162,-2.18351 -0.0898,-2.39422 -1.196,-2.39422 -0.66711,0 -1.21293,-0.12557 -1.21293,-0.27926 0,-0.15367 1.72774,-2.67897 3.83945,-5.61198 37.3266,-51.84407 71.83433,-142.35483 95.37063,-250.1487 7.66386,-35.09982 13.87043,-72.40924 15.04867,-90.46202 l 0.31549,-4.83373 -2.15787,-2.578 c -6.38743,-7.63111 -15.15587,-9.39478 -29.20918,-5.87515 -2.93532,0.73513 -7.67917,1.92309 -10.54191,2.63992 l -5.20499,1.30332 -5.22624,-2.87414 c -7.96553,-4.3806 -12.21947,-5.87382 -17.64739,-6.19458 -5.65918,-0.33444 -6.99526,0.0997 -12.90831,4.19365 -8.21246,5.68604 -10.52437,5.92428 -15.07411,1.55337 -1.7941,-1.72356 -5.06414,-4.17385 -7.26676,-5.44506 -3.41778,-1.97252 -4.57114,-2.34938 -7.86876,-2.57103 -4.82606,-0.32438 -6.97417,0.29424 -14.33959,4.1297 -3.20973,1.67143 -6.9465,3.33665 -8.30391,3.70046 -2.38901,0.64029 -2.53767,0.60588 -4.64112,-1.07452 -3.463845,-2.76719 -10.483455,-6.77895 -14.696045,-8.39897 -3.3233,-1.27802 -4.71852,-1.49391 -9.70348,-1.50148 -5.21544,-0.008 -6.50762,0.20802 -12.40174,2.07283 -3.61882,1.1449 -7.04298,2.08166 -7.60925,2.08166 -0.76251,0 -1.06938,0.40184 -1.1831,1.54918 l -0.15351,1.5492 -13.34225,0.28167 -13.34226,0.28168 -0.13879,5.15049 -0.13881,5.15051 3.77756,0.33159 c 2.07768,0.1824 8.03502,0.4916 13.2385,0.6872 l 9.46088,0.35559 0.0434,40.07486 c 0.0443,40.92579 0.30146,54.86863 2.38601,129.36491 0.65457,23.39287 1.41145,52.03893 1.68197,63.6579 0.5794,24.88807 0.60638,69.1799 0.0487,79.99486 l -0.39218,7.60514 -3.89832,11.83023 c -2.14409,6.50664 -4.03377,12.2179 -4.19932,12.69169 -0.21854,0.62546 0.57044,1.45338 2.8799,3.02204 l 3.1809,2.16054 -0.30832,6.27315 c -0.16965,3.45026 -2.32563,55.19963 -4.79124,114.99859 -3.20429,77.71393 -4.33191,108.84647 -3.95342,109.15006 0.29124,0.23344 2.27613,1.07926 4.4109,1.87949 4.45016,1.66833 11.48949,2.33174 15.88145,1.49653 l 2.78176,-0.5289 0.30455,1.88511 c 0.32714,2.02461 0.88253,2.43128 1.3576,0.99388 z" />


<rect style="opacity:1;fill:#808080;" width="122.63883" height="22.649515" x="663.18884" y="290.15051" />
<path style="fill:#808080;" d="m 206.26528,548.13552 c -1.89799,-0.29025 -2.33418,-0.92101 -3.17888,-4.59695 -0.53847,-2.34329 -1.16494,-10.63186 -1.39217,-18.41904 -0.37898,-12.98798 -0.2642,-14.6217 1.38839,-19.76124 4.57645,-14.23278 16.10286,-21.47987 32.53812,-20.45795 8.21962,0.51108 12.79857,2.45362 17.26744,7.32543 4.96349,5.41103 5.49351,7.79997 5.04263,22.72849 -0.40256,13.32818 -1.6711,19.25473 -6.41858,29.98719 l -1.6705,3.77647 -20.6883,-0.12299 c -11.37856,-0.0676 -21.67823,-0.27437 -22.88815,-0.45941 z m 14.28654,-2.49582 c 1.31382,-1.49843 3.92007,-6.30053 3.92007,-7.22284 0,-0.29276 -1.30969,0.24046 -2.91043,1.18492 -2.7063,1.59676 -3.04991,1.62582 -4.89886,0.41434 -3.39958,-2.22749 -3.83609,-0.89337 -1.03362,3.15909 1.47755,2.1366 2.90626,3.88838 3.17489,3.89285 0.26863,0.004 1.05521,-0.63829 1.74795,-1.42836 z m 29.44766,-21.75278 c 1.72684,-3.33446 0.81686,-4.14516 -1.8965,-1.68961 -1.44242,1.30537 -1.68346,1.30058 -4.02055,-0.08 -1.36738,-0.80773 -2.69278,-1.26196 -2.94534,-1.0094 -0.25256,0.25256 0.76247,2.363 2.25562,4.68988 3.03332,4.72702 3.19308,4.68082 6.60677,-1.91089 z m -36.20391,-6.48483 c 3.67483,-5.07295 3.26553,-7.14551 -0.79495,-4.02544 -1.90169,1.46125 -2.17523,1.47595 -4.28426,0.23011 -1.23908,-0.73194 -2.49074,-1.09293 -2.78147,-0.80219 -0.58689,0.58688 3.8151,7.92666 4.78245,7.97415 0.33578,0.0165 1.72098,-1.503 3.07823,-3.37663 z m 27.39612,-16.70447 c 3.17504,-4.78195 2.59063,-5.91044 -1.62905,-3.1456 -1.95839,1.2832 -2.2435,1.27817 -4.54268,-0.08 -1.34922,-0.797 -2.65255,-1.24969 -2.89627,-1.00595 -0.52899,0.52898 5.01737,8.74626 5.90339,8.74626 0.0918,0 1.51592,-2.03162 3.16461,-4.51473 z"/>
<path style="fill:#808080;" d="m 198.91411,494.55801 c -9.40131,-6.31399 -17.08903,-16.8616 -18.36739,-25.2002 -1.10311,-7.19544 3.1537,-17.8297 9.62693,-24.04976 11.18173,-10.74441 31.94675,-10.53397 44.10131,0.44693 5.2153,4.71172 6.92135,8.62161 6.96042,15.95181 0.0306,5.74414 -2.86304,18.30904 -4.44112,19.28435 -0.30455,0.18822 -3.10932,0.57118 -6.23283,0.85102 -3.12351,0.27983 -8.24262,1.25191 -11.37581,2.16016 -5.04157,1.46145 -6.3397,2.29436 -11.28799,7.24265 l -5.59129,5.5913 z m -0.64321,-18.4424 c 2.21669,-4.17851 1.81709,-5.29268 -1.19128,-3.32153 -1.91293,1.2534 -2.24405,1.2589 -3.94774,0.0656 -3.76135,-2.63455 -4.15487,-1.16513 -0.97486,3.6402 1.18867,1.79621 2.61489,3.26584 3.16937,3.26584 0.55447,0 1.87951,-1.64255 2.94451,-3.6501 z m 26.86384,-1.7095 c 3.78647,-5.37191 3.34904,-7.00181 -0.96782,-3.60616 l -2.1681,1.70543 -2.86776,-1.77238 c -1.68422,-1.04091 -2.86776,-1.38232 -2.86776,-0.82725 0,1.20798 4.80028,8.21823 5.62743,8.21823 0.34288,0 1.80268,-1.67304 3.24401,-3.71787 z M 198.57023,450.476 c 2.62428,-4.69534 2.39199,-5.8902 -0.67594,-3.47696 -2.21735,1.74417 -2.42749,1.7655 -4.62174,0.46933 -2.68953,-1.58875 -3.27676,-1.67472 -3.27676,-0.47974 0,1.4783 4.98092,8.21371 5.73122,7.74999 0.38718,-0.23929 1.66663,-2.15747 2.84322,-4.26262 z m 29.74257,-0.84853 c 2.50469,-4.27392 2.08414,-5.16166 -1.30274,-2.74998 -2.35692,1.67827 -2.61041,1.70034 -5.0487,0.43945 -1.41196,-0.73015 -2.75779,-1.13695 -2.99073,-0.904 -0.23295,0.23295 0.78436,2.28765 2.26068,4.56601 3.05704,4.7178 3.58355,4.61732 7.08149,-1.35148 z" />
<path style="fill:#808080;" d="m 234.68411,441.92762 c -0.81176,-1.31345 -11.92287,-6.48835 -13.93125,-6.48835 -3.11395,0 -4.4934,-1.81316 -4.99601,-6.56687 l -0.47736,-4.51473 1.98872,2.37844 1.98872,2.37843 2.6549,-4.31477 c 1.4602,-2.37311 2.4375,-4.53215 2.1718,-4.79786 -0.26571,-0.2657 -1.60421,0.17916 -2.97446,0.98858 -2.39808,1.41658 -2.55296,1.41593 -4.13673,-0.0174 -1.99739,-1.8076 -1.5768,-5.21854 1.35748,-11.00906 3.93344,-7.76228 11.6307,-12.32869 21.79676,-12.93096 6.8083,-0.40333 9.7933,0.57354 14.17656,4.63942 6.57883,6.10249 7.81785,17.65318 2.93022,27.31689 -3.68912,7.29403 -20.18723,16.7602 -22.54935,12.9382 z m 14.88913,-8.57757 c 1.20257,-2.05203 1.98249,-3.93495 1.73316,-4.18428 -0.24934,-0.24933 -1.55724,0.19877 -2.90646,0.99577 -2.29917,1.35815 -2.58428,1.36317 -4.54268,0.08 -2.50823,-1.64345 -2.96817,-1.69379 -2.96817,-0.32485 0,1.26606 4.75131,7.16434 5.77117,7.16434 0.39958,0 1.71042,-1.67893 2.91298,-3.73095 z m -4.00922,-25.20997 c 3.49726,-5.16691 3.05349,-7.29418 -0.89773,-4.30339 -1.36549,1.03356 -1.84503,1.01027 -3.87384,-0.18817 -1.27348,-0.75227 -2.54709,-1.1361 -2.83024,-0.85295 -0.56541,0.5654 4.29553,8.02134 5.22368,8.0123 0.31692,-0.003 1.38707,-1.20359 2.37813,-2.66779 z" />
<rect style="fill:#808080;" width="93.912621" height="102.06581" x="843.00391" y="260.3194" />
<path d="m 682.99381,308.80914 c -1.7199,-1.1889 -3.0239,-2.03249 -3.098,-2.00408 -0.07,0.027 -1.3313,0.9268 -2.8022,1.99958 -1.4709,1.07278 -2.7086,1.95051 -2.7504,1.95051 -0.077,0 -0.2112,-15.19928 -0.1349,-15.32338 0.023,-0.0373 2.6888,-0.0679 5.9241,-0.0679 4.6254,0 5.8905,0.0242 5.9203,0.11317 0.021,0.0622 0.01,3.54939 -0.025,7.74921 l -0.063,7.63603 -2.9701,-2.05314 z" style="fill:#000000" />
<path style="fill:#000000;" d="m 848.12352,360.74323 c 0.0154,-0.35813 -0.21011,-1.76092 -0.50107,-3.11731 -0.50278,-2.3438 -0.50721,-2.53073 -0.0893,-3.76771 0.39185,-1.15989 0.41417,-1.67474 0.20501,-4.73013 -0.12911,-1.88572 -0.16358,-5.11232 -0.0766,-7.17022 l 0.15758,-3.74167 -0.80448,-0.0345 c -0.62276,-0.0267 -1.04136,-0.304 -1.85329,-1.2276 -0.57685,-0.65617 -1.03897,-1.42262 -1.02693,-1.70317 0.012,-0.28055 0.37565,-1.14923 0.80802,-1.93037 0.43236,-0.78115 1.01671,-1.9627 1.29855,-2.62568 0.46424,-1.09205 0.66289,-1.26878 2.112,-1.87888 0.87976,-0.37041 1.73118,-0.6678 1.89206,-0.6609 0.63752,0.0274 0.31775,-1.14962 -0.50755,-1.86813 -0.5963,-0.51916 -0.94813,-1.13428 -1.18195,-2.06637 -0.59277,-2.36303 -0.46139,-2.78765 1.33448,-4.31262 1.19982,-1.01885 1.78646,-1.34842 2.35661,-1.32395 1.38737,0.0595 3.50189,1.63014 3.9431,2.92885 0.27161,0.79943 -0.17338,3.79492 -0.61766,4.15782 -0.19114,0.15612 -0.52904,0.42354 -0.75087,0.59424 -0.96273,0.74083 -0.0971,2.02913 1.63284,2.42974 0.66555,0.15414 1.53877,0.5818 1.94045,0.95035 0.4017,0.36856 1.00317,0.6818 1.3366,0.69612 0.82062,0.0352 2.46749,-1.49758 2.50321,-2.32981 0.0151,-0.35212 0.17851,-1.14714 0.3631,-1.76673 0.30655,-1.02888 0.28934,-1.18026 -0.19858,-1.74643 -0.48512,-0.56291 -0.51516,-0.81433 -0.32667,-2.73408 0.11416,-1.16277 0.4397,-4.5629 0.72341,-7.55582 0.5855,-6.17645 1.48134,-12.63518 1.91558,-13.81065 0.34475,-0.93325 0.94494,-1.32911 2.8213,-1.86081 2.33333,-0.6612 2.34976,-0.69533 2.54898,-5.29931 0.0953,-2.19732 0.30407,-4.39933 0.4644,-4.8933 0.28134,-0.86676 1.48016,-1.96805 2.8621,-2.62927 0.84883,-0.40614 2.43607,-0.0112 3.35935,0.83593 1.46316,1.34245 2.7933,6.38717 2.60175,9.86741 l -0.0935,1.6981 1.50636,0.62366 c 1.61662,0.6693 2.09169,1.20922 2.76642,3.1441 0.70851,2.0317 2.33789,7.73757 3.20833,11.23505 0.92554,3.71889 1.44193,5.0588 1.89915,4.9279 0.16527,-0.0474 0.89381,-2.33913 1.61897,-5.09289 0.72514,-2.75377 1.47874,-5.1209 1.67465,-5.26031 0.23575,-0.16777 0.28323,-0.38055 0.1404,-0.6293 -0.39235,-0.68328 -0.15796,-2.14014 0.75048,-4.6647 1.07995,-3.00117 2.23644,-5.33013 2.9227,-5.88573 0.27765,-0.22479 1.37303,-0.69738 2.43416,-1.05017 1.64935,-0.54833 1.94459,-0.73577 2.03445,-1.29152 0.0754,-0.46618 -0.0301,-0.69169 -0.37265,-0.79718 -0.32929,-0.10141 -0.51448,-0.46313 -0.59593,-1.16416 -0.065,-0.55938 -0.3473,-1.33556 -0.62734,-1.72484 -0.47207,-0.6562 -0.47773,-0.73968 -0.0777,-1.14532 0.3937,-0.3992 0.4055,-0.61421 0.13474,-2.45381 -0.16324,-1.10897 -0.23382,-2.18774 -0.15685,-2.39728 0.077,-0.20955 1.01723,-0.73051 2.08946,-1.1577 1.65298,-0.65859 2.13722,-0.74628 3.18384,-0.57654 1.40924,0.22854 3.63064,1.38587 3.95539,2.06071 0.12029,0.24999 0.30406,1.79559 0.40835,3.43466 0.17058,2.68044 0.14477,3.04261 -0.2566,3.60134 -0.24543,0.34167 -0.456,0.84866 -0.46793,1.12666 -0.0319,0.74267 1.34454,1.81133 3.67985,2.85712 2.85649,1.27913 3.45278,1.99374 4.80699,5.76088 0.61747,1.71766 1.29801,3.78736 1.5123,4.59931 0.38757,1.46849 0.38656,1.47929 -0.18877,2.04134 -0.72302,0.70632 -0.72392,0.81477 -0.0293,3.47835 0.52447,2.01087 0.5612,2.67496 0.46213,8.3524 -0.11498,6.58875 -0.10527,6.64366 1.18605,6.70817 0.64461,0.0327 1.7092,-1.20005 1.75556,-2.03208 0.0171,-0.30565 -0.0366,-0.90775 -0.11919,-1.33801 -0.12803,-0.66703 -0.004,-0.94227 0.839,-1.86801 1.22704,-1.34683 1.57704,-1.56772 2.8634,-1.80717 0.91315,-0.16997 1.03742,-0.28119 1.14133,-1.02158 0.0675,-0.48085 -0.0531,-1.11591 -0.28643,-1.50762 -0.32134,-0.53958 -0.3595,-1.04335 -0.18814,-2.48411 0.31346,-2.63564 0.8255,-3.5622 2.28458,-4.13414 1.55661,-0.61018 2.6359,-0.3719 3.56938,0.78804 0.73118,0.90858 0.80536,1.16704 1.80523,6.29013 0.33868,1.73532 0.94283,3.93406 1.34254,4.8861 0.69795,1.66243 0.72474,1.89084 0.67619,5.76701 -0.0401,3.20147 -0.15609,4.42981 -0.56086,5.94041 -0.66105,2.46703 -0.58361,3.4304 0.74059,9.21439 0.59768,2.61053 1.06861,5.14664 1.04649,5.63579 l -0.0402,0.88935 -1.7022,5.2e-4 c -0.93622,2.5e-4 -1.72661,0.0235 -1.75642,0.0517 -0.0531,0.0502 -1.21651,8.31154 -1.2367,8.78212 -0.006,0.13175 0.18913,0.25613 0.43285,0.27642 1.10066,0.0916 -0.67897,0.42663 -2.04407,0.38481 l -1.45385,-0.0445 0.14064,-4.88597 0.14063,-4.88599 -0.72492,-0.11449 c -0.39869,-0.063 -0.83468,-0.0138 -0.96887,0.1094 -0.13419,0.12314 -0.4366,2.35979 -0.67203,4.97033 -0.23542,2.61054 -0.46793,4.78304 -0.51667,4.82777 -0.0488,0.0448 -1.09423,0.11964 -2.32331,0.16644 l -2.23465,0.0851 0.88779,-0.82362 0.88779,-0.82361 0.22269,-4.1836 c 0.12258,-2.30099 0.17102,-4.3764 0.10786,-4.61203 -0.16085,-0.60015 -1.40398,-1.03449 -3.17895,-1.11066 l -1.51078,-0.0648 0.18371,-0.94512 c 0.10108,-0.51981 0.32719,-1.73945 0.50255,-2.71034 0.17536,-0.97086 0.91906,-3.46598 1.65267,-5.54469 1.58144,-4.48113 2.53111,-8.28822 2.62746,-10.53304 0.0665,-1.54839 -0.24104,-2.9358 -0.65462,-2.95355 -0.10516,-0.005 -0.58505,0.57435 -1.06641,1.28634 -0.48135,0.71199 -1.06505,1.42663 -1.29707,1.58809 -0.6433,0.44765 -1.93065,0.30396 -2.62614,-0.29313 -0.34275,-0.29426 -0.92554,-0.54799 -1.29506,-0.56385 -0.42948,-0.0184 -0.92176,-0.32718 -1.36452,-0.85578 -0.39996,-0.47751 -0.84885,-0.77459 -1.06226,-0.70303 -0.67871,0.22756 -0.76574,1.97966 -0.44303,8.91881 0.39644,8.52521 0.46124,18.51862 0.135,20.81861 -0.18798,1.32545 -0.16484,1.83042 0.0991,2.16438 0.18935,0.23957 0.45271,0.81191 0.58527,1.27185 l 0.241,0.83628 -0.93813,-0.0383 c -0.516,-0.0202 -1.69175,2.6e-4 -2.61285,0.0475 l -1.67473,0.086 -0.55277,-1.00932 c -0.80688,-1.47331 -0.88901,-7.30351 -0.15262,-10.83306 0.28105,-1.34705 0.4503,-2.82645 0.3761,-3.28755 -0.19756,-1.22797 -3.43916,-12.88402 -3.66109,-13.16453 -0.11056,-0.13972 -0.35492,-0.11263 -0.58904,0.0653 -0.33044,0.25111 -0.4177,0.95137 -0.50102,4.02112 -0.0976,3.59613 -0.12674,3.76931 -0.89408,5.32395 l -0.79321,1.60689 -0.22746,7.37095 -0.22747,7.37097 -0.68093,1.29171 c -0.78284,1.48499 -0.64769,1.44667 -5.34815,1.51645 -3.06187,0.0455 -3.58254,-0.18778 -1.79328,-0.80347 0.82912,-0.2853 1.13986,-0.57046 1.49515,-1.3721 0.24667,-0.55657 0.54533,-1.0078 0.66369,-1.00272 0.11834,0.005 0.23461,-0.44335 0.25835,-0.99648 0.032,-0.74614 0.17713,-1.07021 0.56214,-1.25548 0.62452,-0.30053 0.66836,-0.81857 0.26783,-3.16516 -0.16823,-0.98561 -0.38291,-5.39764 -0.47706,-9.8045 -0.0941,-4.40686 -0.30269,-9.10454 -0.46342,-10.43927 -0.28534,-2.36955 -0.26109,-2.8764 0.41928,-8.7596 0.17961,-1.553 0.17499,-3.33093 -0.0145,-5.54529 -0.18111,-2.11662 -0.19187,-3.90841 -0.0307,-5.11061 0.29999,-2.23773 0.14295,-4.77427 -0.28848,-4.65856 -0.16557,0.0444 -0.95111,1.7612 -1.74564,3.81506 -1.48915,3.84947 -2.03057,4.92322 -3.44151,6.82525 -0.9937,1.33954 -1.19074,3.10548 -0.49052,4.39623 0.24206,0.44621 0.49214,1.17724 0.55572,1.62452 0.1,0.70339 -0.0119,0.91581 -0.82782,1.57249 -1.32952,1.06995 -2.0647,1.33481 -2.53178,0.91205 -0.20579,-0.18626 -0.36211,-0.61985 -0.34736,-0.96352 0.0424,-0.98749 -1.83317,-5.45428 -2.7906,-6.64606 -1.1945,-1.48686 -1.38264,-1.96297 -2.94821,-7.461 -0.75549,-2.65314 -1.46903,-4.82801 -1.58564,-4.83301 -0.11661,-0.005 -0.31581,0.60574 -0.44261,1.35719 -0.26737,1.58424 0.009,4.2161 0.75099,7.1507 0.28318,1.12002 0.49086,2.59588 0.46151,3.27971 -0.0382,0.88968 0.61085,3.63342 2.28193,9.64659 1.3181,4.74298 2.36609,9.02953 2.40597,9.84104 0.0865,1.75931 -0.0146,1.82714 -3.49929,2.34814 -1.33894,0.20018 -2.47211,0.40125 -2.51816,0.44682 -0.0461,0.0456 -0.0132,0.65765 0.073,1.36021 0.3375,2.75107 0.0561,4.92034 -1.38894,10.70801 -0.98522,3.94591 -1.38399,5.98821 -1.3144,6.73168 0.0965,1.03092 0.073,1.07145 -0.69058,1.19036 -0.43475,0.0677 -1.16932,0.10686 -1.63232,0.087 l -0.84187,-0.0361 0.52043,-1.05773 c 0.80589,-1.63794 1.1653,-5.73891 0.80699,-9.2081 -0.23961,-2.31999 -0.22341,-3.37077 0.0887,-5.75201 0.48364,-3.68971 0.38427,-4.4895 -0.56281,-4.53015 -0.38368,-0.0165 -1.05736,0.0261 -1.49708,0.0946 l -0.79951,0.12453 -0.14244,3.20228 c -0.0786,1.76125 -0.28497,3.9395 -0.45904,4.84055 -1.0157,5.25773 -1.22721,10.43068 -0.48916,11.96431 0.20963,0.43565 0.11061,0.47186 -1.14285,0.41806 -0.75479,-0.0324 -1.74375,-0.001 -2.19764,0.0696 l -0.82529,0.12855 0.47403,-0.82763 c 0.86761,-1.51483 0.96947,-2.20269 0.72203,-4.87623 -0.43829,-4.73565 -0.55367,-9.84693 -0.27925,-12.37015 l 0.27021,-2.48458 -2.67762,-0.29831 -2.67762,-0.2983 0.16489,-1.16814 c 0.0907,-0.64249 0.58998,-2.79605 1.10956,-4.78565 0.51957,-1.98964 0.8885,-3.71777 0.81985,-3.84033 -0.33759,-0.60253 -1.31578,-0.22317 -2.14395,0.83145 -0.94806,1.20732 -2.53431,2.30456 -4.29666,2.97207 l -1.13325,0.42923 -0.35593,4.39509 c -0.19573,2.41731 -0.46704,6.97602 -0.60286,10.13051 -0.29932,6.95098 -0.46382,8.04496 -1.24938,8.30565 -0.74414,0.24697 -0.95986,0.78552 -0.68294,1.705 0.21544,0.71531 0.4304,0.88808 2.06598,1.66043 l 0.74724,0.35288 -0.6554,0.15558 c -0.36048,0.0856 -2.19373,0.16741 -4.0739,0.18185 -1.88018,0.0144 -3.73505,0.0742 -4.12193,0.1328 -0.62045,0.094 -0.70013,0.0297 -0.67548,-0.5446 z m 4.15216,-2.0053 c 0.0299,-0.69758 -0.0238,-1.27167 -0.11946,-1.27577 -0.31044,-0.0133 -1.39504,1.03611 -1.40909,1.36338 -0.0185,0.43027 0.66441,1.14597 1.11174,1.16517 0.26574,0.0114 0.3769,-0.32268 0.41681,-1.25278 z M 932.2548,327.642 c -0.0839,-0.0914 -0.3331,0.0547 -0.55389,0.32451 -0.47616,0.58198 -0.43596,2.42753 0.0673,3.09286 0.28726,0.37973 0.35022,0.19684 0.48457,-1.40739 0.085,-1.0141 0.0863,-1.91857 0.002,-2.00997 z m -66.00626,-2.63106 c 0.13747,-0.47285 0.3533,-2.45632 0.4796,-4.40771 0.16169,-2.49882 0.36621,-3.87094 0.69148,-4.64016 0.31665,-0.74886 0.4954,-1.89956 0.56859,-3.66051 0.11817,-2.8467 0.008,-3.71611 -0.47284,-3.73676 -0.38556,-0.0165 -0.3755,-0.0597 -1.85955,7.98311 -0.98161,5.31984 -1.13808,6.559 -0.9562,7.5725 0.36851,2.05349 1.09004,2.46785 1.54892,0.88953 z m 48.80527,-2.18989 c 0.62499,-1.05628 0.26673,-5.18641 -0.77238,-8.90266 -0.29349,-1.04966 -0.51976,-2.23098 -0.50285,-2.62515 0.0415,-0.96586 -0.41617,-2.03042 -0.88139,-2.05039 -0.32593,-0.014 -0.37588,0.47191 -0.35767,3.47895 0.0374,6.18439 0.6005,9.94795 1.55287,10.37946 0.54725,0.24795 0.6701,0.21215 0.96142,-0.28021 z" />
<path d="m 831.45291,389.14002 c -0.1372,-0.16681 -0.2495,-32.20395 -0.2495,-71.19367 v -70.89038 h 58.5668 58.5668 v 71.19366 71.19366 h -58.3173 c -32.0745,0 -58.4295,-0.13647 -58.5668,-0.30327 z m 115.3871,-71.11785 v -69.14656 h -56.8827 -56.8827 v 69.14656 69.14656 h 56.8827 56.8827 z m -112.2685,-0.001 v -67.32841 l 55.2923,0.11524 55.2922,0.11525 0.095,67.21318 0.095,67.21319 h -55.3871 -55.387 V 318.0212 Z m 108.9005,0.23204 v -65.27673 l -53.5459,-0.11677 c -29.4503,-0.0643 -53.6161,-0.0315 -53.7018,0.0728 -0.2648,0.3219 -0.1716,129.97185 0.094,130.29426 0.1373,0.1668 24.3031,0.30327 53.7018,0.30327 h 53.4523 v -65.27673 z m -104.0355,-0.23054 v -61.41306 h 50.5208 50.5209 v 61.41306 61.41307 h -50.5209 -50.5208 z m 96.5509,0 v -55.95412 h -46.0301 -46.0301 v 55.95412 55.95413 h 46.0301 46.0301 z"/>
<rect style="fill:#000000;" width="93.221268" height="16.40625" x="843.82111" y="358.67188" />



</svg>