<svg xmlns="http://www.w3.org/2000/svg" viewBox="0 0 512 384">
<rect width="512" height="384" id="P012WIImgRct5" fill="#fff"/>

<rect style="fill:#000000;" width="449.61536" height="24.655935" x="31.619011" y="213.60936" />
<rect style="fill:#000000;" width="24.655935" height="62.26564" x="73.3657" y="237.21823" />
<rect style="fill:#000000;" width="24.655935" height="62.26564" x="424.54391" y="237.21823" />
<rect style="fill:#808080;" width="160.72319" height="46.31007" x="63.112373" y="127.54993" />
<rect style="fill:#000000;" width="6.9613748" height="33.178108" x="75.090759" y="134.6376" />
<rect style="fill:#000000;" width="12.740109" height="33.178108" x="86.243111" y="134.6376" />
<rect style="fill:#808080;" width="160.72319" height="35.073071" x="63.611671" y="177.58342" />
<circle style="fill:#000000;" cx="85.938232" cy="194.91257" r="12.327968" />
<path style="fill:#808080;" d="m 63.093845,126.00283 0.347398,-38.5887 160.794427,0.22131 0.1578,5.33069 -154.363171,-0.15706 c 0,0 0.21906,26.80957 0.478445,27.06897 l 153.470386,0.91902 -0.18825,5.39326 z"/>
<rect style="fill:#000000;" width="151.18877" height="27.922249" x="69.787102" y="92.559578" />
<path d="m 94.202601,115.56187 c -2.120281,-1.46566 -3.727854,-2.50564 -3.819199,-2.47062 -0.08626,0.0333 -1.641224,1.14256 -3.454549,2.46508 -1.813315,1.32252 -3.339151,2.40458 -3.390676,2.40458 -0.09491,0 -0.260367,-18.73762 -0.166312,-18.89061 0.02837,-0.046 3.314749,-0.0837 7.303213,-0.0837 5.702177,0 7.26179,0.0298 7.29853,0.13952 0.02594,0.0766 0.01234,4.37568 -0.03079,9.5532 l -0.07762,9.41367 -3.661525,-2.53111 z" style="fill:#808080;" />
</svg>