<svg xmlns="http://www.w3.org/2000/svg" viewBox="0 0 512 384">
<rect width="512" height="384" id="P012WIImgRct2" fill="#fff"/>

<path style="fill:#000000;" d="m 132.2514,342.09468 c -1.11966,-1.43655 -1.05602,-1.54742 4.82124,-8.39732 l 5.95589,-6.94155 V 182.09031 37.42482 h 113.69386 113.69383 v 144.30983 144.3098 l 6.54018,7.61754 c 4.57476,5.32836 6.42741,7.95875 6.16489,8.753 -0.34143,1.03308 -11.61847,1.13547 -125.05525,1.13547 H 133.38605 Z m 236.66137,-12.8158 c -11.49732,2.0832 -213.45932,2.0832 -223.76624,0 8.12728,-1.48529 207.70972,-1.51385 223.76624,0 z M 367.34344,183.35184 V 40.992724 H 256.72239 146.10135 V 183.35184 325.71097 H 256.72239 367.34344 Z M 146.10438,182.84627 146.03,40.901451 256.63833,40.752649 367.46984,40.975853 V 182.99506 l -0.0744,142.7632 H 256.7127 l -110.75713,0.0744 z m 100.17046,71.50674 V 189.41726 H 198.95362 151.6324 v 64.93575 64.93574 h 47.32122 47.32122 z m 7.37474,-71.35795 V 46.701363 h -2.15096 -2.15097 V 182.99506 319.28875 h 2.15097 2.15096 z m 107.54826,71.35795 v -64.93575 h -52.23775 -52.2377 v 64.93575 64.93574 h 52.2377 52.23775 z M 222.76788,185.31444 c -13.09784,-0.10746 -34.53068,-0.10746 -47.62852,0 -13.09783,0.10748 -2.45583,-0.13939 23.73986,-0.13939 26.19567,0 36.98648,0.24687 23.88866,0.13939 z m 112.46472,-4e-5 c -14.44987,-0.10666 -38.09511,-0.10666 -52.54497,0 -14.44989,0.10666 -3.25859,-1.06869 25.64114,-1.06869 28.89978,0 41.3537,1.17535 26.90383,1.06869 z m -88.95776,-4.46008 c 0,-0.46954 -16.18346,-0.71358 -47.32122,-0.71358 -31.13778,0 -47.32122,0.24404 -47.32122,0.71358 0,0.46954 16.18344,0.71357 47.32122,0.71357 31.13777,0 47.32122,-0.24403 47.32122,-0.71357 z m 114.923,0 c 0,-0.47013 -17.82229,-0.71358 -52.23775,-0.71358 -34.41542,0 -52.2377,0.24345 -52.2377,0.71358 0,0.47012 17.82228,0.71357 52.2377,0.71357 34.41546,0 52.23775,-0.24345 52.23775,-0.71357 z m -114.923,-68.50364 V 46.701363 H 198.95362 151.6324 V 112.35068 178 h 47.32122 47.32122 z m 114.923,0 V 46.701363 h -52.23775 -52.2377 v 63.865357 63.86538 h 7.68201 7.68203 V 176.21605 178 h 44.55569 44.55572 z" />
<path style="fill:#000000;" d="M 249.45545,183.1542 V 47.150479 h 2.08321 2.0832 V 183.1542 319.15792 h -2.0832 -2.08321 z" />
<path style="fill:#808080;" d="m 396.50848,356.4035 c -0.0873,-0.26408 -0.15865,-0.74204 -0.15865,-1.0622 0,-0.55022 -0.2351,-0.5822 -4.2809,-0.5822 h -4.28091 l -0.17087,-5.08326 c -0.39451,-11.73297 -0.71688,-19.79103 -1.07755,-26.93409 -0.21063,-4.17283 -0.38307,-8.12193 -0.38313,-8.77566 -6e-5,-0.65375 -0.0578,-1.12158 -0.12843,-1.03965 -0.0707,0.082 -0.0118,5.3967 0.13005,11.81048 0.22788,10.28409 0.0491,28.86015 -0.28143,29.22921 -0.35081,0.39195 -9.60244,-1.92999 -15.10219,-3.79022 -5.90734,-1.99819 -12.81496,-5.60555 -14.95388,-7.80948 l -1.0922,-1.12535 -0.13391,-8.79451 c -0.39774,-26.12352 3.44643,-51.10927 12.73873,-82.79666 l 1.85501,-6.32578 -0.67684,-1.34099 c -1.4791,-2.93051 -2.70968,-8.00657 -2.73274,-11.27236 -0.009,-1.17629 0.0485,-1.28981 0.64429,-1.28981 0.35939,0 0.65342,-0.0677 0.65342,-0.15044 0,-0.0828 -0.93079,-1.4432 -2.0684,-3.02326 -20.10843,-27.92921 -38.69826,-76.68877 -51.37762,-134.759 -4.12861,-18.908815 -7.4722,-39.007979 -8.10698,-48.733301 l -0.16991,-2.604004 1.16245,-1.388807 c 3.44105,-4.111005 8.16472,-5.061121 15.73544,-3.165041 1.5813,0.396026 4.13691,1.035998 5.6791,1.422167 l 2.804,0.702123 2.81545,-1.548349 c 4.29119,-2.359898 6.58283,-3.164324 9.50692,-3.337117 3.0487,-0.180169 3.76847,0.05371 6.95389,2.259185 4.42421,3.06316 5.66967,3.191503 8.12067,0.836819 0.96656,-0.928504 2.72817,-2.248512 3.91473,-2.933339 1.84123,-1.062622 2.46258,-1.265643 4.23905,-1.38505 2.59984,-0.174748 3.75705,0.158513 7.72497,2.22473 1.72911,0.90043 3.74218,1.797505 4.47343,1.993501 1.287,0.344928 1.36704,0.326396 2.50025,-0.578867 1.86599,-1.490722 5.64755,-3.651921 7.91695,-4.52465 1.79031,-0.68849 2.54193,-0.804798 5.22743,-0.808871 2.80966,-0.0043 3.50575,0.112064 6.68104,1.116661 1.94951,0.61678 3.79412,1.121423 4.0992,1.121423 0.41076,0 0.57609,0.216482 0.63735,0.834566 l 0.0827,0.834584 7.1877,0.151741 7.18766,0.151744 0.0748,2.774656 0.0747,2.774658 -2.035,0.17863 c -1.11929,0.09827 -4.32864,0.264826 -7.13179,0.370211 l -5.09674,0.191556 -0.0232,21.588957 c -0.0237,22.04736 -0.16243,29.558594 -1.28537,69.690904 -0.35264,12.60209 -0.76041,28.03416 -0.90613,34.29348 -0.31212,13.40759 -0.32667,37.2683 -0.0264,43.09449 l 0.21129,4.09702 2.10008,6.37312 c 1.15505,3.50523 2.17307,6.58196 2.26223,6.83721 0.11775,0.33694 -0.30729,0.78296 -1.55146,1.62801 l -1.7136,1.16392 0.1661,3.37944 c 0.0915,1.85871 1.25287,29.73691 2.58113,61.95154 1.72621,41.86571 2.33368,58.63729 2.12976,58.80084 -0.15687,0.12575 -1.22617,0.58141 -2.37621,1.01251 -2.39735,0.89874 -6.18957,1.25615 -8.55556,0.8062 l -1.4986,-0.28492 -0.16409,1.01553 c -0.17622,1.09069 -0.47542,1.30977 -0.73136,0.53542 z" />
<path style="fill:#808080;" d="m 117.06543,356.4035 c 0.0873,-0.26408 0.15865,-0.74204 0.15865,-1.0622 0,-0.55022 0.23509,-0.5822 4.28087,-0.5822 h 4.2809 l 0.17091,-5.08326 c 0.39452,-11.73297 0.71687,-19.79105 1.0775,-26.93409 0.21068,-4.17284 0.38311,-8.12193 0.38316,-8.77566 5e-5,-0.65375 0.0578,-1.12158 0.12842,-1.03965 0.0707,0.082 0.012,5.39669 -0.13006,11.81049 -0.22786,10.28408 -0.049,28.86014 0.28143,29.22919 0.35081,0.39195 9.60249,-1.92999 15.1022,-3.7902 5.90737,-1.99821 12.81499,-5.60556 14.95389,-7.80949 l 1.09222,-1.12535 0.13389,-8.79452 c 0.39775,-26.12351 -3.44643,-51.10927 -12.7387,-82.79665 l -1.85501,-6.32578 0.67682,-1.341 c 1.47909,-2.9305 2.70967,-8.00656 2.73276,-11.27235 0.009,-1.17629 -0.0484,-1.28981 -0.6443,-1.28981 -0.35939,0 -0.65342,-0.0677 -0.65342,-0.15044 0,-0.0828 0.93075,-1.4432 2.06836,-3.02326 20.10842,-27.92921 38.69827,-76.68877 51.37764,-134.75901 4.12864,-18.908813 7.47223,-39.007985 8.10696,-48.733291 l 0.16997,-2.604013 -1.16249,-1.388806 c -3.441,-4.110997 -8.1647,-5.061113 -15.73544,-3.165033 -1.5813,0.396026 -4.13688,1.035998 -5.67909,1.422167 l -2.80402,0.702116 -2.81544,-1.548342 c -4.29115,-2.359898 -6.58282,-3.164319 -9.50692,-3.337117 -3.04869,-0.180169 -3.76847,0.05371 -6.95392,2.259185 -4.42418,3.06316 -5.66964,3.191503 -8.12066,0.836824 -0.9665,-0.928509 -2.72812,-2.248517 -3.91471,-2.933339 -1.84122,-1.062627 -2.46255,-1.265648 -4.23904,-1.385055 -2.59987,-0.174748 -3.75708,0.158513 -7.72495,2.224735 -1.72914,0.900425 -3.74219,1.797506 -4.47344,1.993496 -1.287,0.344934 -1.36709,0.326396 -2.50026,-0.578861 -1.86602,-1.490728 -5.64759,-3.651927 -7.91698,-4.524656 -1.79031,-0.68849 -2.54195,-0.804793 -5.22742,-0.808871 -2.80963,-0.0043 -3.50575,0.112064 -6.68101,1.116666 -1.94951,0.616775 -3.79415,1.121422 -4.0992,1.121422 -0.41079,0 -0.5761,0.216478 -0.63737,0.834569 l -0.0827,0.834577 -7.18769,0.151741 -7.187674,0.151744 -0.07478,2.77465 -0.07478,2.774656 2.035023,0.178638 c 1.119287,0.09826 4.328595,0.264826 7.131791,0.370204 l 5.09673,0.191563 0.0233,21.588948 c 0.0239,22.04736 0.16241,29.558583 1.28539,69.690903 0.35262,12.6021 0.76036,28.03417 0.9061,34.2935 0.31214,13.40758 0.32666,37.26829 0.0262,43.09448 l -0.21127,4.09701 -2.10009,6.37312 c -1.15506,3.50523 -2.17306,6.58197 -2.26224,6.83722 -0.11773,0.33694 0.3073,0.78295 1.55144,1.62802 l 1.71361,1.16391 -0.16611,3.37944 c -0.0914,1.85871 -1.25285,29.73691 -2.5811,61.95153 -1.72621,41.86572 -2.33367,58.6373 -2.12978,58.80084 0.15689,0.12576 1.22619,0.58142 2.37622,1.01252 2.39738,0.89875 6.18957,1.25615 8.55559,0.8062 l 1.49858,-0.28492 0.16408,1.01553 c 0.17622,1.09069 0.47542,1.30976 0.73135,0.53542 z"/>
</svg>