<svg xmlns="http://www.w3.org/2000/svg" viewBox="0 0 512 384">
<rect width="512" height="384" id="P012WIImgRct8" fill="#fff"/>

<rect style="fill:#ffffff;" width="191.63409" height="208.27113" x="161.19659" y="74.253151" />
<path style="fill:#808080;" d="m 171.64349,279.17375 c 0.0313,-0.73078 -0.42875,-3.59326 -1.02247,-6.36105 -1.02594,-4.78266 -1.03499,-5.1641 -0.18222,-7.68822 0.79959,-2.36683 0.84512,-3.41742 0.41832,-9.65211 -0.26344,-3.84793 -0.33379,-10.43198 -0.15625,-14.63125 l 0.32156,-7.6351 -1.6416,-0.0703 c -1.27077,-0.0545 -2.12495,-0.62032 -3.78175,-2.50499 -1.17708,-1.33894 -2.12006,-2.90293 -2.0955,-3.47541 0.0245,-0.57248 0.76654,-2.34508 1.64882,-3.93903 0.88226,-1.59398 2.07465,-4.005 2.64976,-5.35786 0.9473,-2.22838 1.35268,-2.58901 4.30966,-3.83395 1.79521,-0.75585 3.53257,-1.3627 3.86085,-1.34861 1.30091,0.0559 0.6484,-2.34587 -1.03568,-3.81202 -1.21677,-1.05938 -1.93471,-2.31457 -2.41183,-4.21654 -1.20959,-4.82191 -0.94151,-5.68837 2.72308,-8.80016 2.4483,-2.07902 3.64537,-2.75153 4.8088,-2.7016 2.83101,0.12133 7.14581,3.3264 8.04612,5.97648 0.55423,1.63129 -0.35379,7.74376 -1.26037,8.48429 -0.39004,0.31857 -1.07954,0.86424 -1.5322,1.21257 -1.9645,1.5117 -0.19815,4.14056 3.33191,4.95803 1.35809,0.31453 3.13996,1.18718 3.95959,1.93925 0.81969,0.75205 2.04702,1.39125 2.72742,1.42046 1.67451,0.0718 5.03505,-3.05591 5.10794,-4.75412 0.0308,-0.71852 0.36427,-2.3408 0.74093,-3.6051 0.62553,-2.0995 0.59041,-2.40839 -0.40523,-3.56368 -0.98991,-1.14867 -1.0512,-1.6617 -0.66658,-5.57906 0.23294,-2.3727 0.89724,-9.31086 1.47617,-15.41808 1.19474,-12.60341 3.02276,-25.78281 3.90885,-28.18142 0.70347,-1.90435 1.9282,-2.71214 5.75701,-3.7971 4.7613,-1.34923 4.79484,-1.41886 5.20135,-10.81355 0.19445,-4.48376 0.62047,-8.97708 0.94763,-9.98505 0.57408,-1.76867 3.02036,-4.01592 5.84028,-5.36518 1.7321,-0.82876 4.97094,-0.0228 6.85494,1.70576 2.98566,2.73935 5.6999,13.0334 5.30904,20.13503 l -0.1908,3.46507 3.07382,1.27262 c 3.2988,1.36572 4.2682,2.46746 5.64503,6.41569 1.44576,4.14581 4.7706,15.78897 6.54677,22.92577 1.88863,7.58862 2.94236,10.32277 3.87533,10.05566 0.33725,-0.0968 1.82388,-4.77312 3.30362,-10.39233 1.47969,-5.61923 3.01744,-10.44949 3.41721,-10.73396 0.48106,-0.34235 0.57794,-0.77653 0.28649,-1.28413 -0.80062,-1.39426 -0.32232,-4.36708 1.5314,-9.51859 2.2037,-6.12405 4.56359,-10.87642 5.96394,-12.01017 0.56655,-0.45868 2.80175,-1.42305 4.96704,-2.14292 3.36558,-1.1189 3.96804,-1.50139 4.1514,-2.63544 0.15394,-0.95125 -0.0614,-1.41142 -0.76041,-1.62669 -0.67194,-0.20692 -1.04982,-0.94503 -1.21601,-2.37553 -0.13275,-1.14144 -0.7087,-2.72528 -1.28013,-3.51962 -0.96328,-1.33903 -0.97485,-1.50937 -0.15858,-2.3371 0.80335,-0.8146 0.82744,-1.25333 0.27494,-5.00714 -0.3331,-2.26292 -0.47712,-4.46421 -0.32006,-4.89179 0.15708,-0.42759 2.07571,-1.49064 4.26367,-2.36235 3.37298,-1.3439 4.3611,-1.52283 6.49679,-1.17645 2.87563,0.46632 7.40853,2.82793 8.0712,4.20498 0.24545,0.51013 0.62044,3.66399 0.83326,7.00863 0.34807,5.46959 0.29542,6.20862 -0.5236,7.34874 -0.50081,0.69719 -0.93049,1.73174 -0.95484,2.29901 -0.065,1.51546 2.74361,3.69612 7.50894,5.83012 5.82884,2.61014 7.04562,4.06834 9.80895,11.7554 1.25997,3.50499 2.64866,7.72833 3.08592,9.38516 0.79087,2.99652 0.78882,3.01857 -0.38517,4.16546 -1.47537,1.4413 -1.47722,1.66259 -0.0598,7.09779 1.0702,4.10329 1.14516,5.45841 0.943,17.04355 -0.23462,13.44472 -0.2148,13.55676 2.4202,13.6884 1.31538,0.0667 3.48773,-2.44877 3.58232,-4.14659 0.0349,-0.62368 -0.0747,-1.85229 -0.2432,-2.73027 -0.26126,-1.36111 -0.008,-1.92275 1.71202,-3.81177 2.50384,-2.74829 3.21804,-3.19904 5.84293,-3.68765 1.86334,-0.34682 2.11692,-0.57378 2.32895,-2.08459 0.13788,-0.9812 -0.10842,-2.27708 -0.58447,-3.07637 -0.65572,-1.10106 -0.73358,-2.12902 -0.38392,-5.06898 0.63963,-5.37818 1.68448,-7.26888 4.66183,-8.43594 3.17635,-1.24513 5.37869,-0.75889 7.28351,1.60803 1.49202,1.854 1.64339,2.38141 3.68367,12.83537 0.69111,3.54102 1.9239,8.02768 2.73953,9.97037 1.42422,3.39229 1.47888,3.85836 1.3798,11.76791 -0.0818,6.53278 -0.3185,9.03929 -1.14446,12.12173 -1.34889,5.03414 -1.19088,6.99996 1.51122,18.80251 1.21961,5.32693 2.18055,10.50201 2.13543,11.50017 l -0.0819,1.81475 -3.47344,10e-4 c -1.91039,5.1e-4 -3.52325,0.048 -3.58408,0.10544 -0.10841,0.10246 -2.48234,16.96017 -2.52355,17.9204 -0.0132,0.26886 0.38595,0.52266 0.88326,0.56407 2.24596,0.18691 -1.38548,0.87057 -4.17104,0.78522 l -2.96666,-0.0909 0.28698,-9.9701 0.28695,-9.97014 -1.47922,-0.23362 c -0.81356,-0.12845 -1.70323,-0.0281 -1.97704,0.22322 -0.27382,0.25128 -0.89091,4.81529 -1.37132,10.14225 -0.4804,5.32695 -0.95483,9.76006 -1.0543,9.85135 -0.0995,0.0914 -2.23283,0.24414 -4.74085,0.33963 l -4.55993,0.17365 1.8116,-1.68065 1.81158,-1.68062 0.45442,-8.53687 c 0.25012,-4.6953 0.34897,-8.93031 0.22008,-9.41112 -0.32821,-1.22464 -2.8649,-2.11093 -6.48683,-2.26637 l -3.08286,-0.13209 0.37489,-1.92857 c 0.20624,-1.0607 0.66766,-3.54945 1.02547,-5.53061 0.35784,-1.98109 1.8754,-7.07253 3.37237,-11.31426 3.22703,-9.14398 5.16487,-16.91259 5.36148,-21.49326 0.13572,-3.15958 -0.49184,-5.99068 -1.33577,-6.02689 -0.21459,-0.01 -1.19383,1.172 -2.17608,2.62484 -0.98223,1.45286 -2.17329,2.91113 -2.64674,3.2406 -1.31271,0.91345 -3.93962,0.62025 -5.35879,-0.59815 -0.6994,-0.60045 -1.88863,-1.11822 -2.64265,-1.15056 -0.87638,-0.0376 -1.8809,-0.66764 -2.78439,-1.74628 -0.81613,-0.97439 -1.73213,-1.5806 -2.16759,-1.43457 -1.38496,0.46434 -1.56253,4.03961 -0.90403,18.19934 0.80896,17.39618 0.94119,37.78832 0.27548,42.48156 -0.3836,2.70467 -0.33638,3.73508 0.20222,4.41656 0.38638,0.48885 0.92376,1.65673 1.19428,2.59528 l 0.49175,1.70647 -1.91431,-0.0781 c -1.05292,-0.0412 -3.4521,5.3e-4 -5.33166,0.097 l -3.41738,0.17547 -1.12797,-2.05957 c -1.64647,-3.00637 -1.81406,-14.90324 -0.31141,-22.10549 0.57348,-2.74872 0.91886,-5.76754 0.76746,-6.70843 -0.40313,-2.50575 -7.01781,-26.29057 -7.47068,-26.86298 -0.22559,-0.2851 -0.72423,-0.22983 -1.20196,0.13324 -0.67429,0.51239 -0.85234,1.94132 -1.02237,8.20532 -0.19916,7.33812 -0.25861,7.69149 -1.82442,10.86381 l -1.6186,3.27897 -0.46412,15.04084 -0.46418,15.04089 -1.38948,2.6358 c -1.59742,3.03023 -1.32165,2.95203 -10.9132,3.09442 -6.24793,0.0927 -7.31039,-0.38319 -3.65929,-1.63952 1.69185,-0.58218 2.32594,-1.16407 3.05094,-2.79987 0.50334,-1.13571 1.11276,-2.05647 1.35428,-2.0461 0.24149,0.01 0.47874,-0.90467 0.52719,-2.03338 0.0652,-1.52255 0.36143,-2.18381 1.14708,-2.56188 1.27438,-0.61324 1.36383,-1.67034 0.54651,-6.45869 -0.34328,-2.01118 -0.78133,-11.01419 -0.97346,-20.00664 -0.19202,-8.99244 -0.61766,-18.57834 -0.94563,-21.30193 -0.58225,-4.83521 -0.53276,-5.86946 0.85556,-17.87447 0.3665,-3.16898 0.35708,-6.79695 -0.0296,-11.31547 -0.36958,-4.3191 -0.39153,-7.97535 -0.0627,-10.42849 0.61215,-4.56622 0.2917,-9.74218 -0.58865,-9.50606 -0.33787,0.0905 -1.9408,3.59381 -3.56208,7.78484 -3.03872,7.85506 -4.14351,10.04611 -7.0226,13.92732 -2.02771,2.73339 -2.42979,6.33692 -1.00094,8.97075 0.49393,0.91052 1.00424,2.40223 1.13397,3.31493 0.20406,1.43532 -0.0243,1.86877 -1.68922,3.20876 -2.71297,2.18329 -4.21313,2.72376 -5.16624,1.86109 -0.41992,-0.38008 -0.7389,-1.26485 -0.7088,-1.96612 0.0866,-2.01503 -3.74068,-11.12977 -5.69438,-13.56166 -2.43745,-3.03403 -2.82135,-4.00555 -6.01598,-15.22462 -1.54163,-5.41388 -2.99765,-9.85182 -3.23561,-9.86202 -0.23795,-0.01 -0.64443,1.23604 -0.90315,2.76943 -0.5456,3.23272 0.0184,8.60318 1.53242,14.59141 0.57786,2.28547 1.00163,5.29704 0.94174,6.69243 -0.078,1.81545 1.24647,7.41422 4.65642,19.68442 2.68964,9.67833 4.82814,18.42527 4.90951,20.08121 0.17652,3.58998 -0.0298,3.72839 -7.14051,4.79151 -2.73216,0.40848 -5.04447,0.81878 -5.13843,0.91177 -0.094,0.093 -0.027,1.34197 0.14897,2.77558 0.68869,5.61372 0.11454,10.04024 -2.83423,21.85032 -2.01039,8.05185 -2.8241,12.21928 -2.68211,13.73636 0.19692,2.10366 0.14897,2.18636 -1.40916,2.429 -0.88714,0.13804 -2.38606,0.21806 -3.33085,0.17754 l -1.71789,-0.0737 1.06196,-2.15837 c 1.64448,-3.34231 2.37787,-11.71057 1.64672,-18.78966 -0.48894,-4.73406 -0.45587,-6.87824 0.181,-11.73731 0.98689,-7.52904 0.78413,-9.16108 -1.14845,-9.24402 -0.7829,-0.0336 -2.1576,0.0533 -3.05488,0.19303 l -1.63144,0.25411 -0.29066,6.53444 c -0.16023,3.59392 -0.58148,8.03878 -0.93669,9.87743 -2.07259,10.72869 -2.50419,21.2844 -0.99817,24.41385 0.42778,0.88897 0.22571,0.96286 -2.33205,0.85309 -1.54019,-0.066 -3.55822,-0.002 -4.4844,0.14202 l -1.68405,0.26232 0.96728,-1.68885 c 1.77042,-3.09108 1.97826,-4.4947 1.47335,-9.95022 -0.89436,-9.66336 -1.1298,-20.09322 -0.56982,-25.242 l 0.55137,-5.06993 -5.46384,-0.6087 -5.46383,-0.6087 0.33646,-2.38367 c 0.18508,-1.31104 1.20389,-5.7055 2.26413,-9.76539 1.06021,-4.05999 1.81302,-7.58633 1.67295,-7.83642 -0.68888,-1.22948 -2.68494,-0.45538 -4.37487,1.69663 -1.93457,2.4636 -5.17139,4.70258 -8.76757,6.06466 l -2.31252,0.87594 -0.72629,8.96843 c -0.39941,4.93267 -0.95302,14.23498 -1.23017,20.67189 -0.61078,14.18388 -0.94644,16.41621 -2.54943,16.94815 -1.51847,0.50397 -1.95866,1.60291 -1.39357,3.47916 0.43962,1.45964 0.87825,1.81219 4.21575,3.38821 l 1.52479,0.72006 -1.33739,0.31747 c -0.73558,0.17467 -4.47642,0.3416 -8.31304,0.37108 -3.83661,0.0295 -7.62157,0.15146 -8.41103,0.27098 -1.26605,0.19181 -1.42866,0.0606 -1.37836,-1.11128 z m 8.4727,-4.09193 c 0.0611,-1.42344 -0.0485,-2.59491 -0.24376,-2.60329 -0.63347,-0.0272 -2.84664,2.11424 -2.87531,2.78205 -0.0377,0.878 1.35576,2.33843 2.26855,2.3776 0.54227,0.0233 0.76909,-0.65844 0.85052,-2.55636 z m 163.202,-63.45302 c -0.17122,-0.18652 -0.6797,0.11156 -1.13024,0.66218 -0.97165,1.18756 -0.8896,4.9535 0.13739,6.31115 0.58618,0.77486 0.71466,0.40167 0.98879,-2.87187 0.17346,-2.06931 0.1761,-3.91495 0.005,-4.10145 z m -134.68957,-5.36885 c 0.28053,-0.96486 0.72094,-5.01225 0.97865,-8.99418 0.32994,-5.09897 0.74727,-7.89887 1.411,-9.46851 0.64615,-1.52808 1.0109,-3.87615 1.16027,-7.46948 0.24111,-5.80886 0.0165,-7.58294 -0.96489,-7.62507 -0.78674,-0.0336 -0.76622,-0.12182 -3.7945,16.28999 -2.00302,10.85545 -2.32232,13.38401 -1.9512,15.45212 0.75199,4.19027 2.22431,5.03581 3.16067,1.81513 z m 99.58996,-4.46858 c 1.27533,-2.1554 0.54428,-10.58316 -1.57609,-18.16638 -0.59888,-2.1419 -1.06059,-4.55246 -1.02608,-5.35678 0.0847,-1.97089 -0.84923,-4.1432 -1.79853,-4.18393 -0.66509,-0.0286 -0.767,0.96294 -0.72986,7.09898 0.0763,12.61961 1.22536,20.29936 3.16872,21.17989 1.11669,0.50596 1.36738,0.4329 1.96184,-0.57178 z" />
<path d="m 137.62616,337.11903 c -0.27998,-0.34038 -0.50913,-65.714 -0.50913,-145.27477 V 47.188376 H 256.62594 376.13487 V 192.46311 337.73787 H 257.13505 c -65.44985,0 -119.22874,-0.27848 -119.50889,-0.61884 z M 373.08015,191.99899 V 50.901462 H 257.00773 140.93532 V 191.99899 333.09648 h 116.07241 116.07242 z m -229.09032,-0.002 V 54.60945 l 112.82711,0.235158 112.82691,0.235174 0.19384,137.152358 0.19386,137.15237 H 257.011 143.99064 V 191.99699 Z m 222.21772,0.47349 V 59.269523 L 256.94406,59.031237 c -60.09502,-0.131259 -109.40672,-0.06422 -109.58159,0.148639 -0.54034,0.65686 -0.35017,265.215004 0.1918,265.872904 0.28017,0.34038 49.59188,0.61884 109.58161,0.61884 H 366.20836 V 192.47071 Z M 153.91714,192 V 66.683132 H 257.00773 360.09852 V 192 317.3169 H 257.00773 153.91714 Z m 197.01766,0 V 77.822406 H 257.00773 163.08067 V 192 306.17761 h 93.92706 93.92707 z" />
<rect style="fill:#808080;" width="190.22334" height="33.47789" x="162.8642" y="274.94702" />
</svg>
