<svg xmlns="http://www.w3.org/2000/svg" viewBox="0 0 512 384">
<rect width="512" height="384" id="P012WIImgRct6" fill="#fff"/>

<rect style="fill:#808080;" width="724.34705" height="39.72163" x="70.919334" y="289.80994" />
<rect style="fill:#808080;" width="39.72163" height="100.31226" x="138.17482" y="327.84467" />
<rect style="fill:#808080;" width="39.72163" height="100.31226" x="703.93591" y="327.84467" />
<rect style="fill:#000000;" width="258.93103" height="74.607246" x="279.89847" y="151.16496" />
<rect style="fill:#808080;" width="11.215034" height="53.451168" x="299.19614" y="162.58347" />
<rect style="fill:#808080;" width="20.52479" height="53.451168" x="317.16296" y="162.58347" />
<rect style="fill:#000000;" width="258.93103" height="56.504021" x="280.70285" y="231.77077" />
<circle style="fill:#808080;" cx="316.67178" cy="259.68869" r="19.860815" />

<g transform="rotate(97.32612,284.46812,177.58589)">
<path d="m 141.25016,245.87833 0.55967,-62.16783 259.04581,0.35654 0.25422,8.58794 -248.68481,-0.25303 c 0,0 0.35291,43.19121 0.77078,43.60911 l 247.24651,1.48058 -0.30328,8.68874 z"
style="fill:#000000;" />
<rect y="192" x="152.03322" height="44.98378" width="243.57072" style="fill:#808080;" />
<path style="fill:#000000;" d="m 191.36752,229.05755 c -3.41585,-2.36123 -6.00572,-4.03668 -6.15287,-3.98026 -0.13903,0.0537 -2.64408,1.84071 -5.56541,3.97134 -2.92132,2.13062 -5.37949,3.87386 -5.46251,3.87386 -0.15289,0 -0.41945,-30.187 -0.26793,-30.43347 0.0457,-0.0741 5.34018,-0.13485 11.76574,-0.13485 9.18643,0 11.69901,0.048 11.7582,0.22478 0.0417,0.1234 0.0198,7.04938 -0.0496,15.39056 l -0.12501,15.16577 -5.89885,-4.07771 z" />
</g>

<g transform="rotate(90,111.75634,-221.49382)">
<path d="m 141.25016,245.87833 0.55967,-62.16783 259.04581,0.35654 0.25422,8.58794 -248.68481,-0.25303 c 0,0 0.35291,43.19121 0.77078,43.60911 l 247.24651,1.48058 -0.30328,8.68874 z"
style="fill:#000000;stroke-width:1.98608148" />
<rect y="192" x="152.03322" height="44.98378" width="243.57072" style="fill:#808080;" />
<path style="fill:#000000;" d="m 191.36752,229.05755 c -3.41585,-2.36123 -6.00572,-4.03668 -6.15287,-3.98026 -0.13903,0.0537 -2.64408,1.84071 -5.56541,3.97134 -2.92132,2.13062 -5.37949,3.87386 -5.46251,3.87386 -0.15289,0 -0.41945,-30.187 -0.26793,-30.43347 0.0457,-0.0741 5.34018,-0.13485 11.76574,-0.13485 9.18643,0 11.69901,0.048 11.7582,0.22478 0.0417,0.1234 0.0198,7.04938 -0.0496,15.39056 l -0.12501,15.16577 -5.89885,-4.07771 z" />
</g>
</svg>