<svg xmlns="http://www.w3.org/2000/svg" viewBox="0 0 1024 768">
<rect width="1024" height="768" id="P011WIImgRctX" fill="#fff"/>

<path style="fill:#ff0000;" d="M 224,192 A 96.00003,95.999985 0 0 1 128,287.99989 96.00003,95.999985 0 0 1 32,192 96.00003,95.999985 0 0 1 128,95.99989 96.00003,95.999985 0 0 1 224,192 Z" />
  
<path style="fill:#ff0066;" d="M 736,576 A 96.000006,96.000016 0 0 1 640.00001,671.99996 96.000006,96.000016 0 0 1 544,576 96.000006,96.000016 0 0 1 640.00001,479.99996 96.000006,96.000016 0 0 1 736,576 Z" />

<path style="fill:#ffff00;" d="m 736,192 a 96.000013,96.000013 0 0 1 -96,96 96.000013,96.000013 0 0 1 -96,-96 96.000013,96.000013 0 0 1 96,-96 96.000013,96.000013 0 0 1 96,96 z" />
  
<path style="fill:#ff6600;" d="M 992.00001,576 A 95.999994,96.000002 0 0 1 896.00008,672 95.999994,96.000002 0 0 1 800,576 a 95.999994,96.000002 0 0 1 96.00008,-96 95.999994,96.000002 0 0 1 95.99993,96 z" />

<path style="fill:#ffffff;" d="m 1544.0279,424.36237 a 74.285715,71.42857 0 0 1 -74.2857,71.4286 74.285715,71.42857 0 0 1 -74.2857,-71.4286 74.285715,71.42857 0 0 1 74.2857,-71.4285 74.285715,71.42857 0 0 1 74.2857,71.4285 z" />

<path style="fill:#0000ff;" d="M 224,576 A 96.00003,95.999985 0 0 1 128,671.99989 96.00003,95.999985 0 0 1 32,576 96.00003,95.999985 0 0 1 128,479.99989 96.00003,95.999985 0 0 1 224,576 Z" />

<path style="fill:#008000;" d="M 480,576 A 96.00003,95.999985 0 0 1 384,671.99989 96.00003,95.999985 0 0 1 288,576 96.00003,95.999985 0 0 1 384,479.99989 96.00003,95.999985 0 0 1 480,576 Z" />

<path style="fill:#aa4400;" d="M 480,192 A 96.00003,95.999985 0 0 1 384,287.99988 96.00003,95.999985 0 0 1 288,192 96.00003,95.999985 0 0 1 384,95.99988 96.00003,95.999985 0 0 1 480,192 Z" />

<path style="fill:#800080;" d="m 992.00005,192 a 96.000013,96.000013 0 0 1 -96,96 A 96.000013,96.000013 0 0 1 800,192 a 96.000013,96.000013 0 0 1 96.00005,-96 96.000013,96.000013 0 0 1 96,96 z" />

</svg>
