<svg xmlns="http://www.w3.org/2000/svg" viewBox="0 0 1024 768">
<rect width="1024" height="768" x="0" y="0" fill="none"/>

<path d="m 106.85873,205.38026 c -0.43617,-5.68244 0.47076,-16.84003 -0.92779,-16.12466 0,0 -0.22858,0.99486 -0.26786,1.30563 -0.2647,2.11422 -0.0183,11.24129 -0.32241,14.58259 0,0 -1.08219,8.74393 -1.6847,11.19612 -0.60251,2.45173 -1.68696,17.40854 -2.89228,21.0869 -1.205019,3.67805 -2.530597,8.58137 -1.32558,12.38225 1.20502,3.80073 2.5309,10.17557 1.32558,15.93777 -1.205019,5.76221 -2.530597,13.79183 -1.807528,17.83791 0.531954,2.9772 0.723073,5.82354 1.205318,6.4365 0.48165,0.61291 0,1.83848 0,3.4327 0,1.59342 0.24082,5.02658 -0.301404,6.31409 0,0.91886 0.783054,3.4324 0.361684,4.59694 -0.421964,1.16496 0,1.83925 -0.542525,2.32919 -0.542228,0.49056 -1.446142,1.77822 -3.434512,1.28798 -1.20532,-0.36835 -1.265297,-1.28798 -1.084456,-1.47186 0.180542,-0.1837 -0.663092,-0.0607 -0.663092,-0.0607 -0.420005,0.78274 -1.927787,1.03761 -2.651159,-0.0613 -0.120262,-0.184 -0.541925,0.67398 -1.50612,0.48994 -0.964198,-0.184 -0.542228,-0.61261 -0.542228,-0.61261 0,0 -1.2656,0.061 -1.566706,-0.67429 -0.06028,0.18374 -0.662789,0.42892 -1.145036,-0.0613 -0.481948,-0.49025 -0.421667,-2.08386 -0.240822,-2.88108 0.180538,-0.79727 1.026742,-2.17573 1.325577,-2.69743 0.421668,-0.73528 1.98837,-3.55537 1.92809,-4.35202 -0.03747,-0.49297 0.120258,-4.22993 0.481948,-5.14894 0.361686,-0.91993 0.421966,-2.02314 0.421966,-3.24901 0,-1.22614 0.301406,-8.15304 -2.108931,-16.67367 -2.410336,-8.52034 -3.555073,-12.68834 -3.615054,-18.57353 -0.06028,-5.88489 2.590576,-9.43996 1.023873,-18.32787 -1.566404,-8.88897 -2.229193,-14.7734 -2.410034,-15.32545 -0.180845,-0.55099 -1.159543,-13.15729 -1.159543,-13.15729 -0.138088,-13.72792 0.320288,-11.42062 0.506117,-16.40341 0.355495,-9.55614 0.158786,-7.8595 1.51836,-13.38754 0.238256,-1.83683 0.37075,-3.48089 0.609006,-5.31848 0.09926,-0.76613 0.303669,-1.72504 0.403232,-2.49116 1.389337,-4.78216 1.381177,-3.82295 0.784258,-8.19627 -0.394318,-2.89621 0.09941,-2.52168 0.394927,-5.509 0.05197,-0.52953 0.573198,-9.9006 -0.420005,-14.95771 -0.674726,-1.97402 -1.349452,-3.94834 -2.024477,-5.92191 h -0.08415 c 0.03038,4.85739 -1.669289,8.39071 -2.530901,12.52956 -0.282067,1.96419 -0.361383,3.60856 -0.649193,5.57139 -0.08838,0.60644 -0.258801,1.03596 -0.349752,1.66113 -0.392204,2.69845 0.42605,3.77218 -0.519262,8.64422 -1.094125,5.63787 -3.463823,10.56158 -4.555075,16.21969 -0.180845,0.9364 -0.08355,1.9435 -0.04774,2.85708 0.08838,0.60901 0.243995,0.95634 0.373926,1.5942 0.180539,0.88549 0.268923,1.98943 0.43254,2.84304 0.201544,1.0488 0.217254,2.31304 0.2514,3.54056 0.03126,1.10984 0.156671,1.89455 0.04351,3.30413 -0.03295,0.41094 -0.005,5.48845 -0.473489,7.35581 -0.216649,0.86116 -0.708868,0.79664 -0.918115,0.64647 -0.863574,-1.15637 -0.09291,-3.79499 -0.948783,-6.58695 -0.08445,0.0574 -0.08445,0.007 -0.168907,0.0642 0.01268,0.61143 -0.100774,1.40097 -0.02705,2.33903 0.117695,1.50733 0.05711,2.13658 0.01057,2.72459 -0.125698,1.59722 -0.203053,2.97915 -0.592839,3.80994 -0.210757,0.44932 -0.785617,0.84454 -1.309717,0.2233 -0.292644,-0.49887 -0.333586,-1.23478 -0.364253,-2.27497 -0.132651,-4.54057 -0.1464,-3.06603 -0.201543,-4.07449 -0.05862,-1.08521 -0.09216,-1.92899 -0.09216,-1.92899 -0.134463,-0.0357 -0.225713,-0.0535 -0.354285,-0.003 -0.327391,2.97598 -0.02689,2.37483 -0.447197,5.95937 -0.07418,0.63257 -0.02099,1.81719 -0.185074,2.5803 -0.336758,1.56564 -1.763258,1.36728 -1.880046,0.15516 -0.04004,-0.41396 -0.133858,-0.8592 -0.187035,-1.22164 -0.05741,-0.3916 -0.02479,-0.94576 -0.03837,-1.35806 -0.02099,-0.6359 -0.08536,-1.19172 -0.134161,-1.82339 -0.05635,-0.73108 0.314852,-2.70359 0.0034,-4.16242 -0.0039,0 -0.172532,0 -0.168605,0 -0.110895,0.65856 -0.339175,1.65494 -0.599639,2.93776 -0.04004,0.19776 -0.06028,0.54872 -0.102884,0.75163 -0.234023,1.11709 -0.210455,1.74875 -0.327242,2.43964 -0.183412,1.09141 0.008,1.25669 -0.378454,1.98278 -0.421668,0.79302 -1.077959,0.43164 -1.253364,0.0121 -0.272099,-0.65131 -0.425142,-1.71355 -0.422273,-3.01783 0.0056,-2.41653 0.410336,-2.92432 0.426805,-6.13674 0.0034,-0.66536 0.04034,-1.25049 -0.0426,-1.86569 v 0.32165 c -0.367881,0.62079 -0.509596,1.22813 -1.180847,1.54434 -0.334341,0.11936 -0.60447,0.18825 -0.855568,0.0551 -0.245354,-0.12887 -0.410638,-0.079 -0.320139,-0.56444 0.06965,-0.37317 0.240218,-0.88548 0.304275,-1.34567 0.09639,-0.69225 0.08385,-1.3141 0.247925,-2.0405 0.09548,-0.42136 0.357756,-0.9373 0.48391,-1.34235 0.206374,-0.66233 0.295816,-1.57863 0.47681,-1.88442 0.136425,-0.23161 0.453844,-0.60055 0.651158,-0.86086 0.05227,-0.069 1.351261,-1.99154 1.856171,-2.65508 0.507026,-0.66612 0.861007,-1.2298 0.861007,-1.2298 0.0077,-1.77459 0.462157,-2.83699 0.314247,-4.54389 -0.255625,-2.95469 -0.07478,0.2659 -0.353376,-18.31579 0.722165,-10.3129 1.668683,-7.49676 2.588917,-16.84818 0.613082,-6.20216 0.724881,-8.5019 1.112553,-9.78956 0.370451,-1.23086 0.95785,-4.39523 0.854663,-6.59844 -0.06934,-1.48074 -0.06799,-2.14851 -0.233115,-3.09368 -0.309715,-1.77579 -0.216197,-6.45702 1.771415,-10.46972 1.733951,-3.50129 4.127217,-5.14399 7.49797,-6.54012 2.346433,-0.97205 2.180548,-0.42151 6.493138,-2.75163 2.579547,-1.39402 8.734563,-5.024628 9.914046,-7.684399 0.01873,-2.465484 -0.05529,-2.182057 0.0015,-4.498875 0,0 -0.485422,-2.009066 -0.684395,-3.413055 -1.035504,-0.01119 -1.626983,-0.97432 -1.983233,-2.16317 -0.316362,-1.054544 -0.283576,-2.910114 -0.289771,-3.157281 -0.02463,-0.96193 -0.06663,-1.880949 0.754648,-2.231456 0.218308,-0.05152 0.256985,-0.0568 0.355189,-0.03141 0.126303,0.03218 0.193081,0.170873 0.319533,0.203053 -0.159541,-5.021308 0.640278,-8.950913 3.880652,-11.156384 5.76326,-3.922348 12.72007,-0.662486 14.59362,4.720355 0.62698,1.801787 0.63634,4.282073 0.42166,6.436178 h 0.0842 c 0.18311,-0.1541 0.21831,-0.245959 0.58574,-0.186886 0.6501,0.285392 0.84469,1.045326 0.86297,2.411849 0.0267,2.031274 -0.0906,3.389035 -1.41517,4.819919 -0.33072,0.357456 -0.64692,0.315756 -1.12963,0.507328 -0.0313,0.701769 -0.40837,2.812512 -0.40837,2.812512 0,0 -0.25729,4.255635 -0.0983,4.825208 0.65931,2.351263 8.42213,7.230554 12.96149,9.227984 2.68138,1.18055 7.31894,1.77792 10.42923,6.73426 2.09443,3.33571 2.89335,8.08235 2.37257,11.25187 -0.20683,1.25457 -0.43753,4.37378 -0.0687,6.488 1.6495,8.16333 0.78864,2.46004 1.87657,13.43905 0.55945,5.63455 0.6989,4.90785 1.82324,10.13191 0.1325,0.61626 0.11995,1.03279 0.20335,1.82279 0.25125,2.39704 0.84907,4.59647 0.37649,15.85271 -0.42287,10.02827 -0.59828,8.08145 -0.14246,10.32696 0.1825,0.90527 -0.46277,1.27376 2.12373,4.65267 0.22663,0.29582 0.46654,0.73622 0.6921,0.98127 0.25593,0.27874 0.49389,0.36365 0.67337,0.74482 0.19852,0.42333 0.10923,0.78245 0.20849,1.24989 0.12192,0.56504 0.24883,1.01632 0.62018,1.86569 0.15305,0.35157 -0.0113,1.32664 0.0987,2.0337 0.0619,0.3984 0.29627,0.77957 0.36078,1.16921 0,0.003 0.14187,0.1964 0.11512,0.37513 -0.0387,0.25487 -0.30276,0.51065 -0.81296,0.40082 -0.97386,-0.15712 -1.07282,-0.94154 -1.60311,-1.51609 0.0121,0.80662 -0.0899,1.10001 0.16603,4.49131 0.0645,0.85527 0.58816,4.58318 -0.18114,6.11287 -0.2653,0.52803 -0.86434,0.45264 -1.17888,0.077 -0.84077,-1.00347 -0.0564,-1.61429 -1.3484,-7.75949 -0.1686,-0.79634 -0.35489,-0.0922 -0.35489,-0.0922 -0.0242,3.84712 0.25171,1.97432 -0.0378,4.8098 -0.14232,1.37876 -0.0567,4.12177 -0.82263,4.32679 -0.70374,0.18931 -1.11286,-0.3502 -1.23599,-0.81825 -0.32059,-1.22496 -0.29552,-2.72881 -0.30428,-2.88005 -0.0233,-0.4123 -0.15501,-1.3777 -0.17147,-1.79982 -0.0552,-1.39205 0.0751,-1.9367 -0.19671,-4.06663 -0.0216,-0.17737 -0.22088,-0.20396 -0.22088,-0.20396 -0.29627,0.27482 -0.12857,1.27724 -0.17918,1.74513 -0.4759,4.36955 0.0668,4.84409 -0.65735,6.50114 -0.24596,0.56217 -0.979,0.58635 -1.27406,0.0742 -0.21786,-0.37952 -0.23055,-0.86509 -0.25759,-0.95967 -0.2653,-0.91993 -0.20155,-1.93458 -0.28147,-2.80541 -0.0535,-0.57562 -0.1399,-0.73788 -0.12932,-1.2023 0.0352,-1.57683 0.34884,-2.56293 0.0622,-4.17752 -0.0564,-0.0283 -0.11285,-0.0571 -0.16891,-0.0852 -0.11255,0.1748 -0.0693,0.33087 -0.12569,0.56142 -0.18311,0.74452 -0.21212,1.83623 -0.33298,2.69814 -0.19022,1.3623 0.13763,3.07585 -0.72277,3.43437 -0.42167,-0.0289 -0.39327,-0.0574 -0.64572,-0.31485 -0.81221,-2.0482 -0.2727,-4.69679 -0.47092,-7.17965 -0.23961,-2.98686 -0.01,-2.82233 0.0529,-3.80496 0.28962,-4.69437 0.14594,-2.47681 0.48421,-4.86192 0.34175,-2.40883 0.4614,-2.09443 0.62442,-3.20714 0.31107,-2.12313 -0.10062,-3.15017 -0.75526,-5.69633 -0.0742,-0.29023 -0.1757,-0.52833 -0.24505,-0.82837 -0.3156,-1.35474 -0.88457,-2.87098 -1.24399,-4.17058 -2.91857,-10.54949 -2.18886,-8.17013 -2.59148,-10.97569 -0.1943,-1.35111 -0.17118,-0.83004 -0.0171,-5.38859 -0.12223,-0.84575 -0.35716,-1.57712 -0.47999,-2.42257 -0.27149,-1.87204 -0.42967,-3.85844 -0.70086,-5.73003 -0.85466,-3.96103 -2.41064,-7.37152 -2.44644,-12.10064 -0.0557,0.0285 -0.11226,0.0571 -0.16861,0.086 -0.42423,1.67881 -1.23009,3.59798 -1.93126,5.31425 -0.36335,0.89047 -0.0631,0.95574 -0.38102,2.32332 -0.43602,1.87702 -0.62623,9.64241 -0.13371,13.30218 0.14005,1.05031 0.18084,0.2733 0.42197,3.08929 0.0429,0.50672 -0.0248,0.87627 -0.0677,1.45611 -0.0352,0.47394 -0.0338,1.16423 -0.0964,1.5519 -0.22178,1.37287 -0.48935,2.34658 -0.17374,3.77187 0.30518,1.3762 0.40444,0.64285 1.32211,5.27906 0.15017,0.75721 0.11346,1.15108 0.22148,2.01919 0.0854,0.68681 0.31394,1.85194 0.42846,2.45732 0.11256,0.59163 0.1606,1.35277 0.27014,1.93594 0.23689,1.26122 1.22118,4.51595 1.27814,9.37666 0.10636,8.99382 0.67623,8.38557 0.60794,15.44707 -0.0928,8.5995 -1.29687,22.29026 -2.14927,26.30643 -1.14473,5.39417 -1.92808,12.3827 -1.50581,13.73094 0.42106,1.34855 1.8678,11.95333 1.02357,16.85756 -0.84333,4.90331 -5.18146,21.14763 -5.12118,24.45793 0.06,3.31035 -0.89424,6.26199 0.06,8.39765 0.60281,1.34854 0.18115,4.1076 0.42197,4.90391 0.24112,0.79696 0.54222,3.06512 1.38586,3.73941 0.84363,0.67456 2.28947,4.10696 1.98837,5.21062 -0.30141,1.10317 -0.78336,1.96146 -1.56671,1.65521 -0.66249,0.73562 -1.50642,0.55162 -1.68696,0.49029 -0.18084,-0.0614 -0.66279,1.34854 -2.10893,0.24533 -0.36139,0.55128 -0.84333,0.9802 -1.86811,0.55128 -1.02417,-0.42888 -0.72277,-0.55128 -0.72277,-0.55128 l -0.78335,0.1224 c 0,0 0.12026,1.59388 -1.32588,1.59388 -1.44584,0 -3.55477,-0.98096 -3.43421,-2.57441 0.12026,-1.59419 -0.12056,-3.73968 0.60251,-5.94621 -0.72307,-1.53258 -0.78336,-3.98433 -0.42167,-5.14959 0.36139,-1.16393 0,-2.69678 -0.0606,-3.49343 -0.0603,-0.79726 1.14503,-5.63984 1.14503,-6.98807 0,-1.34916 0.12057,-13.67019 -0.72306,-15.50899 -0.84364,-1.8385 -1.92809,-9.07223 -0.66279,-14.09822 0,0 1.52742,-7.29447 1.5667,-9.13357 0.06,-2.82007 -3.07313,-11.46308 -3.07313,-14.89547 0,-3.43301 -2.04865,-16.48998 -2.28947,-17.47095 -0.24082,-0.98081 -1.37619,-7.52683 -1.37619,-7.52683" />
<path d="m 683.3882,429.12999 c -1.13853,-14.8328 1.22885,-43.9575 -2.4218,-42.0902 0,0 -0.59667,2.5969 -0.69921,3.4081 -0.69093,5.5187 -0.0477,29.3432 -0.84157,38.065 0,0 -2.82485,22.8243 -4.39758,29.2252 -1.57273,6.3998 -4.40349,45.4416 -7.54974,55.0432 -3.14546,9.6009 -6.60562,22.4 -3.46016,32.3215 3.14546,9.921 6.60641,26.5613 3.46016,41.6024 -3.14546,15.0411 -6.60562,36.0009 -4.71819,46.5624 1.38856,7.7714 1.88744,15.2012 3.14625,16.8012 1.25724,1.5999 0,4.799 0,8.9604 0,4.1593 0.62862,13.1209 -0.78676,16.4817 0,2.3985 2.044,8.9596 0.94411,11.9994 -1.10146,3.0409 0,4.801 -1.41616,6.0799 -1.41538,1.2805 -3.77487,4.6417 -8.96512,3.362 -3.14625,-0.9615 -3.30281,-3.362 -2.83076,-3.842 0.47127,-0.4795 -1.73087,-0.1585 -1.73087,-0.1585 -1.09634,2.0432 -5.03211,2.7085 -6.92033,-0.1601 -0.31392,-0.4803 -1.41459,1.7593 -3.93143,1.2789 -2.51685,-0.4803 -1.41538,-1.5991 -1.41538,-1.5991 0,0 -3.3036,0.1593 -4.08958,-1.7601 -0.15735,0.4796 -1.73008,1.1196 -2.98889,-0.1601 -1.25803,-1.2797 -1.10068,-5.4395 -0.62862,-7.5205 0.47126,-2.0811 2.68011,-5.6793 3.46016,-7.0411 1.10068,-1.9193 5.19025,-9.2806 5.0329,-11.3601 -0.0978,-1.2868 0.31391,-11.0414 1.25803,-13.4403 0.94411,-2.4013 1.10146,-5.281 1.10146,-8.4809 0,-3.2006 0.78676,-21.2819 -5.50495,-43.5234 -6.29171,-22.2406 -9.27982,-33.1204 -9.43639,-48.4825 -0.15735,-15.3614 6.76219,-24.6412 2.67262,-47.8413 -4.08879,-23.2029 -5.81887,-38.5631 -6.29092,-40.0041 -0.47206,-1.4383 -3.02676,-34.3445 -3.02676,-34.3445 -0.36045,-35.8341 0.83605,-29.8113 1.32112,-42.8179 0.92795,-24.9444 0.41448,-20.5157 3.96338,-34.9455 0.62192,-4.7947 0.96777,-9.0862 1.58969,-13.8829 0.2591,-1.9998 0.79267,-4.5029 1.05256,-6.5027 3.62659,-12.4829 3.60529,-9.979 2.04715,-21.3947 -1.02929,-7.56 0.2595,-6.5824 1.03088,-14.3802 0.13566,-1.3822 1.49622,-25.8436 -1.09634,-39.0442 -1.76124,-5.1528 -3.52248,-10.3063 -5.2845,-15.4579 H 624.817 c 0.0793,12.6792 -4.35735,21.9023 -6.60642,32.7059 -0.73628,5.1272 -0.94332,9.4194 -1.69459,14.543 -0.2307,1.583 -0.67555,2.7042 -0.91296,4.3361 -1.02377,7.0438 1.11212,9.8465 -1.35543,22.564 -2.856,14.7166 -9.04163,27.5689 -11.89013,42.3383 -0.47206,2.4443 -0.21808,5.0732 -0.12462,7.4579 0.2307,1.5897 0.6369,2.4963 0.97606,4.1613 0.47126,2.3114 0.70197,5.193 1.12906,7.4212 0.52609,2.7377 0.5671,6.0378 0.65623,9.242 0.0816,2.897 0.40896,4.9453 0.11358,8.6248 -0.086,1.0726 -0.013,14.3265 -1.23595,19.2008 -0.56552,2.2479 -1.85036,2.0795 -2.39656,1.6875 -2.25419,-3.0184 -0.24253,-9.906 -2.47661,-17.1939 -0.22045,0.1498 -0.22045,0.018 -0.4409,0.1676 0.0331,1.596 -0.26305,3.6569 -0.0706,6.1056 0.30722,3.9345 0.14907,5.5771 0.0276,7.1119 -0.32811,4.1693 -0.53003,7.7765 -1.54749,9.9452 -0.55014,1.1728 -2.0507,2.2045 -3.41876,0.5828 -0.76389,-1.3022 -0.87076,-3.2231 -0.95081,-5.9383 -0.34626,-11.8523 -0.38215,-8.0033 -0.52609,-10.6357 -0.15301,-2.8327 -0.24056,-5.0352 -0.24056,-5.0352 -0.35099,-0.093 -0.58918,-0.1396 -0.92479,-0.01 -0.85459,7.7682 -0.0702,6.199 -1.16732,15.5557 -0.19364,1.6512 -0.0548,4.7434 -0.4831,6.7354 -0.87904,4.0868 -4.60264,3.569 -4.90749,0.405 -0.10451,-1.0806 -0.34941,-2.2428 -0.48822,-3.1888 -0.14986,-1.0222 -0.0647,-2.4688 -0.10017,-3.545 -0.0548,-1.6599 -0.22282,-3.1108 -0.3502,-4.7596 -0.1471,-1.9083 0.82186,-7.0572 0.009,-10.8652 -0.0103,0 -0.45036,0 -0.44011,0 -0.28947,1.7191 -0.88535,4.3199 -1.56524,7.6685 -0.10451,0.5162 -0.15735,1.4323 -0.26856,1.9619 -0.61087,2.916 -0.54935,4.5648 -0.8542,6.3683 -0.47876,2.8489 0.0209,3.2803 -0.98788,5.1756 -1.10068,2.07 -2.8138,1.1267 -3.27166,0.032 -0.71026,-1.7001 -1.10975,-4.4729 -1.10226,-7.8774 0.0146,-6.3079 1.0711,-7.6334 1.11409,-16.0188 0.009,-1.7368 0.10529,-3.2641 -0.11121,-4.87 v 0.8396 c -0.96028,1.6204 -1.3302,3.2058 -3.08237,4.0312 -0.87273,0.3116 -1.57785,0.4914 -2.23329,0.1439 -0.64045,-0.3363 -1.07189,-0.2062 -0.83566,-1.4733 0.1818,-0.9741 0.62704,-2.3114 0.79425,-3.5126 0.25161,-1.807 0.21888,-3.4302 0.64716,-5.3263 0.24924,-1.0999 0.93385,-2.4467 1.26315,-3.504 0.5387,-1.7289 0.77217,-4.1207 1.24462,-4.9189 0.35611,-0.6045 1.18467,-1.5676 1.69972,-2.2471 0.13645,-0.1802 3.5272,-5.1985 4.84517,-6.9306 1.32349,-1.7387 2.24749,-3.2101 2.24749,-3.2101 0.0201,-4.6322 1.20637,-7.4054 0.82028,-11.8609 -0.66726,-7.7127 -0.19521,0.694 -0.92242,-47.8098 1.88507,-26.9198 4.35577,-19.5688 6.75786,-43.9789 1.60033,-16.1895 1.89216,-22.1925 2.9041,-25.5537 0.96699,-3.2129 2.50028,-11.4729 2.23093,-17.2239 -0.18101,-3.8652 -0.17746,-5.6083 -0.6085,-8.0755 -0.80845,-4.6353 -0.56434,-16.85476 4.62393,-27.32911 4.52614,-9.13943 10.77329,-13.42737 19.57198,-17.0717 6.1249,-2.53736 5.69189,-1.10029 16.94906,-7.1826 6.7334,-3.63881 22.79986,-13.11581 25.87867,-20.05862 0.0489,-6.43566 -0.14433,-5.69583 0.004,-11.74343 0,0 -1.2671,-5.24427 -1.78648,-8.90911 -2.70298,-0.0292 -4.24692,-2.54327 -5.17684,-5.64653 -0.8258,-2.75268 -0.74022,-7.59628 -0.75639,-8.24146 -0.0643,-2.51093 -0.17392,-4.90985 1.96986,-5.824772 0.56985,-0.13448 0.67081,-0.14828 0.92715,-0.082 0.32969,0.084 0.504,0.44603 0.83408,0.530022 -0.41645,-13.107132 1.67132,-23.364592 10.12968,-29.121552 15.04387,-10.23852 33.20324,-1.72929 38.09377,12.32157 1.63661,4.70321 1.66106,11.17751 1.10067,16.800372 h 0.21966 c 0.47797,-0.402242 0.56986,-0.642022 1.52896,-0.487822 1.69695,0.744952 2.2049,2.728612 2.25262,6.295652 0.0698,5.30224 -0.23662,8.84641 -3.69403,12.58145 -0.86327,0.93307 -1.68867,0.82422 -2.94867,1.32428 -0.0816,1.83183 -1.06597,7.34151 -1.06597,7.34151 0,0 -0.67161,11.1085 -0.25673,12.59526 1.72101,6.13751 21.98431,18.87395 33.83343,24.08786 6.9992,3.08158 19.10465,4.64091 27.22346,17.57847 5.46709,8.7072 7.5525,21.09736 6.19312,29.37076 -0.53989,3.2748 -1.14208,11.4169 -0.17944,16.9357 4.30569,21.3087 2.05859,6.4214 4.89842,35.08 1.46034,14.7079 1.82434,12.811 4.75921,26.4473 0.34586,1.6087 0.31312,2.6959 0.53081,4.7581 0.65583,6.257 2.21634,11.9981 0.98276,41.3804 -1.10383,26.1768 -1.56169,21.095 -0.37188,26.9564 0.47639,2.3631 -1.20795,3.3249 5.5436,12.1449 0.59155,0.7722 1.2178,1.9218 1.80659,2.5614 0.66805,0.7276 1.28918,0.9493 1.75768,1.9443 0.5182,1.105 0.28513,2.0424 0.54423,3.2626 0.31825,1.4749 0.64952,2.6529 1.61887,4.87 0.39949,0.9177 -0.0296,3.4629 0.25752,5.3085 0.16169,1.04 0.77335,2.035 0.94175,3.052 0,0.01 0.37031,0.5127 0.3005,0.9792 -0.10095,0.6653 -0.79031,1.333 -2.12208,1.0463 -2.54208,-0.4101 -2.80039,-2.4577 -4.18461,-3.9575 0.0316,2.1056 -0.23465,2.8714 0.4334,11.7237 0.1684,2.2325 1.53527,11.9635 -0.47284,15.9565 -0.69251,1.3783 -2.25617,1.1815 -3.07724,0.2011 -2.19464,-2.6194 -0.1471,-4.2138 -3.51971,-20.2546 -0.44011,-2.0787 -0.92637,-0.2406 -0.92637,-0.2406 -0.0631,10.0421 0.65702,5.1536 -0.0986,12.555 -0.37149,3.599 -0.14789,10.7591 -2.14732,11.2943 -1.83696,0.4941 -2.9049,-0.9142 -3.22631,-2.1359 -0.83684,-3.1975 -0.77138,-7.123 -0.79425,-7.5178 -0.0607,-1.0762 -0.40462,-3.5962 -0.4476,-4.6981 -0.14395,-3.6337 0.196,-5.0554 -0.51347,-10.6151 -0.0564,-0.463 -0.57656,-0.5324 -0.57656,-0.5324 -0.77335,0.7173 -0.33561,3.334 -0.46772,4.5553 -1.24225,11.4059 0.17431,12.6446 -1.71588,16.97 -0.64203,1.4674 -2.55549,1.5305 -3.32569,0.1936 -0.56868,-0.9907 -0.6018,-2.2581 -0.67239,-2.505 -0.69251,-2.4013 -0.52609,-5.0499 -0.73471,-7.323 -0.1396,-1.5025 -0.36518,-1.9261 -0.33758,-3.1384 0.0919,-4.116 0.9106,-6.69 0.16248,-10.9046 -0.1471,-0.074 -0.29459,-0.149 -0.4409,-0.2224 -0.2938,0.4563 -0.18101,0.8637 -0.32811,1.4655 -0.47797,1.9434 -0.55369,4.7931 -0.86918,7.0429 -0.49651,3.556 0.35927,8.0289 -1.88665,8.9648 -1.10067,-0.075 -1.02653,-0.1499 -1.68552,-0.8219 -2.12011,-5.3464 -0.71183,-12.26 -1.22924,-18.741 -0.62546,-7.7966 -0.0252,-7.3672 0.13803,-9.9321 0.756,-12.2538 0.38096,-6.4653 1.26394,-12.6911 0.89206,-6.2878 1.2044,-5.4671 1.62992,-8.3716 0.812,-5.542 -0.26265,-8.2229 -1.97144,-14.8692 -0.19363,-0.7576 -0.45864,-1.3791 -0.63966,-2.1623 -0.82383,-3.5363 -2.30901,-7.4941 -3.24721,-10.8865 -7.61835,-27.5373 -5.71357,-21.3265 -6.76455,-28.6498 -0.50716,-3.5269 -0.44682,-2.1667 -0.0446,-14.0659 -0.31905,-2.2077 -0.93229,-4.1168 -1.25291,-6.3237 -0.70867,-4.8865 -1.12157,-10.0717 -1.82946,-14.9571 -2.23093,-10.3394 -6.2925,-19.2419 -6.38596,-31.5863 -0.14552,0.074 -0.29302,0.1491 -0.44012,0.2244 -1.10737,4.3822 -3.21092,9.3918 -5.04117,13.8718 -0.94845,2.3244 -0.16485,2.4948 -0.99459,6.0646 -1.13814,4.8996 -1.63465,25.1696 -0.34902,34.7227 0.36558,2.7416 0.47206,0.7134 1.10147,8.064 0.112,1.3227 -0.0647,2.2873 -0.17668,3.8009 -0.0919,1.2371 -0.0883,3.039 -0.25161,4.0509 -0.57892,3.5836 -1.27735,6.1253 -0.45352,9.8457 0.79662,3.5923 1.05572,1.6781 3.4511,13.78 0.392,1.9765 0.29617,3.0047 0.57814,5.2707 0.22282,1.7928 0.81949,4.8341 1.11842,6.4143 0.2938,1.5444 0.41921,3.5312 0.70513,5.0534 0.61836,3.2922 3.18766,11.788 3.33633,24.476 0.27764,23.4766 1.76518,21.8888 1.58693,40.3215 -0.24214,22.4473 -3.38524,58.1843 -5.61025,68.6678 -2.98811,14.0804 -5.03289,32.3226 -3.93064,35.8419 1.0991,3.5201 4.87554,31.2018 2.67183,44.0033 -2.20135,12.7992 -13.52517,55.2018 -13.36782,63.8427 0.15656,8.641 -2.33425,16.3457 0.15656,21.9204 1.57352,3.5201 0.47285,10.7221 1.10147,12.8007 0.6294,2.0803 1.41537,8.0009 3.61751,9.761 2.20214,1.7608 5.97622,10.7204 5.19025,13.6013 -0.78676,2.8796 -2.04479,5.12 -4.08957,4.3206 -1.7293,1.9202 -3.93222,1.4399 -4.40349,1.2798 -0.47206,-0.1602 -1.73008,3.5201 -5.50495,0.6404 -0.94333,1.439 -2.20135,2.5586 -4.87634,1.439 -2.6734,-1.1195 -1.88664,-1.439 -1.88664,-1.439 l -2.04479,0.3195 c 0,0 0.31392,4.1605 -3.46095,4.1605 -3.77408,0 -9.27903,-2.5606 -8.96433,-6.72 0.31391,-4.1613 -0.3147,-9.7617 1.57273,-15.5214 -1.88743,-4.0005 -2.04479,-10.4003 -1.10067,-13.442 0.94332,-3.0382 0,-7.0394 -0.15815,-9.1189 -0.15735,-2.0811 2.9889,-14.7217 2.9889,-18.241 0,-3.5217 0.31471,-35.6834 -1.88743,-40.4832 -2.20214,-4.799 -5.0329,-23.6813 -1.73008,-36.8006 0,0 3.98703,-19.0408 4.08957,-23.8414 0.15656,-7.3613 -8.0218,-29.9221 -8.0218,-38.8817 0,-8.9612 -5.3476,-43.0439 -5.97621,-45.6045 -0.62862,-2.5602 -3.59228,-19.6473 -3.59228,-19.6473" />
<path style="fill:#000000;" d="m 202.98602,311.63524 c -0.19657,-0.19657 -0.54273,-0.3574 -0.76922,-0.3574 -0.22651,0 -1.09799,-0.50729 -1.9366,-1.12732 -2.02176,-1.49473 -1.99001,-3.13226 0.23216,-11.97566 1.12613,-4.4816 1.02788,-14.77881 -0.19144,-20.06405 -0.56956,-2.46884 -1.737,-8.25393 -2.59427,-12.85576 -1.4368,-7.7126 -1.5692,-9.31437 -1.69275,-20.48105 -0.14354,-12.97101 -0.87047,-21.55573 -3.28673,-38.8145 -1.34787,-9.62743 -1.48769,-11.68911 -1.21631,-17.93391 0.55357,-12.7382 2.0464,-20.74239 5.13929,-27.55571 1.58466,-3.49082 1.79094,-4.39905 1.75553,-7.72933 -0.0406,-3.81714 -1.98486,-16.65929 -2.6327,-17.3894 -0.4615,-0.52007 -4.73523,11.76018 -5.66783,16.28599 -0.39991,1.94072 -1.31214,4.83326 -2.02718,6.42788 -0.71505,1.59462 -2.8605,7.12688 -4.76766,12.29391 -3.655,9.90247 -3.90697,11.17421 -4.67768,23.6089 -0.14744,2.37889 -0.46845,4.20141 -0.71339,4.05005 -0.2449,-0.15137 -0.44529,-0.90178 -0.44529,-1.66758 0,-1.93854 -0.54853,-4.48269 -0.9665,-4.48269 -0.19164,0 -0.72296,1.72439 -1.18071,3.832 -0.84486,3.88994 -1.51622,5.52514 -2.04948,4.99189 -0.16215,-0.16217 -0.0646,-1.71326 0.21662,-3.44685 1.0745,-6.6221 0.29356,-7.25288 -1.74155,-1.40669 -0.76018,2.1837 -1.67506,4.21348 -2.03309,4.51062 -0.93154,0.77311 -0.84894,-0.36231 0.33794,-4.64529 1.54891,-5.58944 1.05333,-6.37591 -1.20698,-1.91544 -1.35436,2.67272 -2.74864,4.1355 -2.74864,2.88368 0,-0.41586 0.63273,-2.16751 1.40609,-3.89254 1.45287,-3.24075 2.36998,-6.84482 1.74175,-6.84482 -0.19698,0 -1.07147,0.77877 -1.9433,1.73059 -1.47552,1.6109 -2.68899,2.22494 -2.68709,1.35974 0,-0.20395 0.84412,-1.59461 1.87481,-3.09033 1.24455,-1.80601 2.65654,-3.13469 4.20365,-3.95561 2.07906,-1.10316 2.46079,-1.58185 3.54881,-4.45008 1.74854,-4.60944 2.57846,-8.13717 3.21768,-13.67752 0.78369,-6.7922 1.75364,-10.50562 4.26736,-16.33742 3.16331,-7.33885 4.62934,-13.7996 5.08217,-22.397 0.30441,-5.77966 0.59067,-7.64764 1.47663,-9.63566 1.99669,-4.48048 4.45891,-6.18683 8.9275,-6.18683 1.35828,0 3.69248,-0.45754 5.18712,-1.01675 4.69425,-1.75634 6.39848,-4.99723 5.26489,-10.012025 -0.31935,-1.412769 -0.74958,-3.347421 -0.95604,-4.299237 -0.20648,-0.951826 -0.61787,-1.682261 -0.91421,-1.623189 -0.75374,0.150246 -2.11945,-2.914261 -2.11945,-4.755806 0,-1.441147 0.92322,-2.248337 1.04558,-0.91418 0.0312,0.339937 0.34882,-1.254194 0.70589,-3.542493 0.9782,-6.269409 2.96693,-8.384935 8.28359,-8.811709 6.35134,-0.509829 9.51601,2.408492 10.0945,9.308747 0.23481,2.800751 0.40759,3.31779 0.95645,2.862265 0.54286,-0.450547 0.6699,-0.211664 0.6699,1.259727 0,1.995879 -1.27341,4.921399 -1.95799,4.498312 -0.40463,-0.250075 -0.89758,1.36105 -2.0236,6.61376 -1.2649,5.900558 3.30224,10.432578 10.51342,10.432578 6.7131,0 10.27946,5.01335 10.27963,14.45039 9e-5,7.40644 2.10524,16.7627 5.4384,24.1713 2.27766,5.06257 3.18674,8.45898 3.95568,14.77918 0.69818,5.73856 1.64825,10.11461 3.1018,14.28685 0.96896,2.78137 1.38747,3.33878 3.47897,4.63385 1.97698,1.22416 4.76741,4.31753 6.46034,7.16166 0.80923,1.35954 -1.1542,0.52447 -2.90643,-1.23614 l -1.84541,-1.85419 0.24576,2.0057 c 0.13518,1.10315 0.95713,3.62649 1.82658,5.60744 0.86944,1.98095 1.46744,3.71508 1.32891,3.85362 -0.49073,0.49073 -1.3402,-0.44078 -2.51355,-2.75628 -1.30926,-2.58369 -2.75341,-4.14312 -2.74229,-2.96121 0.004,0.37324 0.44852,2.08908 0.9889,3.81299 1.11085,3.54376 1.32023,6.054 0.43075,5.16453 -0.30348,-0.30349 -1.16352,-2.2849 -1.91119,-4.40314 -1.43581,-4.06783 -2.85363,-5.65141 -2.32742,-2.59955 0.7608,4.41237 0.92741,7.35669 0.41637,7.35669 -0.51536,0 -1.1304,-1.85544 -1.8029,-5.43897 -0.82622,-4.4025 -1.47053,-4.40279 -1.98142,-9.6e-4 -0.18944,1.63218 -0.51592,2.9676 -0.72553,2.9676 -0.2096,0 -0.51948,-2.28066 -0.68859,-5.06814 -0.73804,-12.16439 -0.98826,-13.41619 -4.66999,-23.36287 -1.91254,-5.16702 -4.05056,-10.67767 -4.75112,-12.24588 -0.70057,-1.56821 -1.62092,-4.53206 -2.04523,-6.58633 -0.70494,-3.41283 -4.06743,-13.54955 -5.11626,-15.4237 -0.48595,-0.86834 -0.96815,1.10644 -2.26749,9.28607 -1.17576,7.40185 -1.01168,11.06487 0.65346,14.58634 2.74824,5.8121 3.65017,9.48117 4.80106,19.53087 0.97806,8.54066 0.89455,17.31364 -0.23539,24.72262 -2.39103,15.67785 -3.49318,28.44276 -3.49531,40.48163 -0.002,10.66758 -0.53709,15.22394 -3.37612,28.7417 -2.30111,10.95646 -2.51381,19.29124 -0.70482,27.61914 1.53122,7.04904 1.4805,8.17742 -0.43037,9.57359 -0.8486,0.62003 -1.73862,1.0717 -1.9778,1.0037 -0.23921,-0.0679 -0.43491,0.099 -0.43491,0.37095 0,1.01645 -0.98181,0.44769 -1.28032,-0.74167 -0.17064,-0.67988 -0.47776,-1.23614 -0.68253,-1.23614 -0.20475,0 -0.26595,0.55626 -0.13597,1.23614 0.18816,0.98428 0.0354,1.23612 -0.74972,1.23612 -1.97003,0 -2.30406,-1.21692 -2.4466,-8.91367 -0.0746,-4.02437 -0.33658,-7.84586 -0.58232,-8.49218 -0.29024,-0.76336 -0.19017,-2.72772 0.28554,-5.60571 0.82262,-4.97695 0.61505,-11.27691 -0.66735,-20.25301 -0.99199,-6.94349 -1.0417,-12.20287 -0.19278,-20.3922 0.53398,-5.15123 0.55631,-7.26015 0.10463,-9.88905 -0.31574,-1.83783 -0.66201,-9.23786 -0.76944,-16.44451 -0.16238,-10.89073 -0.40124,-14.38112 -1.41479,-20.67327 -0.67068,-4.16367 -1.47296,-7.82385 -1.78286,-8.13375 -0.3099,-0.30989 -0.56345,-1.74271 -0.56345,-3.18404 0,-2.29096 -0.12439,-2.6206 -0.9889,-2.6206 -0.85952,0 -0.9889,0.32964 -0.9889,2.51959 0,1.38577 -0.30725,3.11018 -0.68277,3.832 -0.3755,0.72183 -1.19391,4.98373 -1.81865,9.47089 -0.94547,6.79082 -1.1207,10.02343 -1.04524,19.28364 0.0661,8.12059 -0.10952,12.19941 -0.6505,15.10276 -0.59161,3.17495 -0.64053,4.97091 -0.24248,8.90014 1.09699,10.82895 1.10455,13.16638 0.0694,21.48671 -1.64539,13.22499 -1.70515,14.64518 -0.85662,20.35963 0.5579,3.75732 0.63988,5.64767 0.28533,6.58017 -0.27358,0.7196 -0.49743,4.15322 -0.49743,7.63028 0,7.39193 -0.50413,9.43618 -2.32701,9.43618 -1.07722,0 -1.20034,-0.16345 -0.9311,-1.23612 0.17889,-0.71283 0.0969,-1.23614 -0.19364,-1.23614 -0.27712,0 -0.50387,0.43187 -0.50387,0.95972 0,1.06642 -0.65688,1.67975 -1.20837,1.12826 z" />

<svg viewBox="0 0 1024 768"> 

<style>
.line { stroke-linecap: round; stroke-width: 11px; stroke: blue; } 
.box { stroke-width:0; stroke:green; height: 100%; width: 100%; fill: none; } 
.circle { stroke: blue; stroke-width: 11px; } 
.button { width: 9%; height: 12%; } 
.btnCoff { fill: white; } 
.btnCon { fill: red; } 
.btnToff { fill: black; } 
.btnTon { fill: white; } 

</style> 




<!--1-->
<svg x="0%" y="3%">

<svg width="18%" height="24%">
<rect class="box"/>
</svg> 

<svg width="18%" height="24%">
<g transform="scale(1, 1)">
<svg>
<line class="line" x1="25%" y1="25%" x2="55%" y2="55%"/>
</svg>
</g>
</svg> 

<svg class="button" x="0%" y="0%" width="9%" height="12%">
<g transform="scale(1, 1)">
<svg class="btnCoff">
<circle class="circle" cx="50%" cy="50%" r="40%"/>
</svg>
<svg x="13%" y="14%" viewBox="0 0 400 400">
<g transform='scale(0.65 0.65)' class="btnToff">
<path d="m 212.51385,236.61457 c 0,-68.08913 -0.49101,-123.79842 -1.09113,-123.79842 -0.60011,0 -4.60949,2.85695 -8.90973,6.34877 -15.76274,12.79946 -51.27108,33.48609 -64.55957,37.61144 -4.16868,1.29415 -4.22034,1.09606 -4.21593,-16.16673 l 0.004,-17.47694 10.15495,-5.30595 c 29.94812,-15.64787 65.50005,-45.926729 76.91039,-65.503008 L 226,43.413996 h 12.01405 12.01403 V 201.91351 360.413 h -18.75714 -18.75733 z">
</path>
</g>
</svg>
</g>
</svg>

</svg> 

<!--2-->
<svg x="13%" y="3%">

<svg width="18%" height="24%">
<rect class="box"/>
</svg>

<svg width="18%" height="24%">
<g transform="scale(1, 1)">
<svg>
<line class="line" x1="75%" y1="25%" x2="45%" y2="55%"/>
</svg>
</g>
</svg>

<svg class="button" x="9%" y="0%" width="9%" height="12%">
<g transform="scale(1, 1)">
<svg class="btnCoff">
<circle class="circle" cx="50%" cy="50%" r="40%"/>
</svg>
<svg x="17%" y="14%" viewBox="0 0 400 400">
<g transform='scale(0.65 0.65)' class="btnToff">
<path d="m 89.58885,354.9505 c 0,-9.08544 6.69,-27.66163 14.99891,-41.64758 10.46314,-17.61208 34.70133,-42.26454 77.8164,-79.14641 56.76554,-48.55888 74.07604,-71.84823 75.69209,-101.83532 0.68123,-12.64079 0.13245,-16.68621 -3.36721,-24.82137 -8.17409,-19.001199 -28.08368,-32.149009 -51.18595,-33.801968 -35.32602,-2.527564 -61.4689,17.237938 -67.12098,50.747268 l -2.17961,12.92219 -6.8452,-0.99309 c -3.76485,-0.5462 -12.12302,-1.53321 -18.57371,-2.19334 -13.38172,-1.36943 -13.19184,-0.9572 -8.8754,-19.26663 7.64833,-32.442768 27.80077,-55.331672 58.28661,-66.201255 15.8151,-5.638798 53.26342,-7.118703 70.21955,-2.774978 19.81582,5.076306 31.22816,11.324708 43.8938,24.032434 24.5068,24.58821 31.59249,58.249839 19.35698,91.958319 -9.63325,26.53929 -30.89598,50.38432 -93.27576,104.60387 -34.31549,29.82651 -56.29682,52.07913 -56.29682,56.99163 0,0.67875 35.04478,1.23408 77.87727,1.23408 h 77.87727 V 342.58568 360.413 H 193.73797 89.58885 Z"> </path>
</g>
</svg>
</g>
</svg>

</svg> 

<!--3-->
<svg x="64%" y="76%">

<svg width="18%" height="24%">
<rect class="box"/>
</svg>

<svg width="18%" height="24%">
<g transform="scale(1, 1)">
<svg>
<line class="line" x1="75%" y1="50%" x2="35%" y2="50%"/>
</svg>
</g>
</svg>

<svg class="button" x="9%" y="6%" width="9%" height="12%">
<g transform="scale(1, 1)">
<svg class="btnCoff">
<circle class="circle" cx="50%" cy="50%" r="40%"/>
</svg>
<svg x="18%" y="14%" viewBox="0 0 400 400">
<g transform='scale(0.65 0.65)' class="btnToff">
<path d="m 173.83716,359.45692 c -18.66018,-2.9667 -40.72659,-15.27459 -54.14712,-30.20144 -12.54222,-13.94997 -23.357256,-37.46217 -23.357256,-50.77931 0,-4.35004 1.69981,-4.85216 24.912116,-7.35898 l 11.07205,-1.19575 4.20831,13.47979 c 9.9409,31.84202 28.45628,46.88499 57.61067,46.80621 18.87657,-0.0509 30.75866,-4.4471 43.50372,-16.09538 12.13935,-11.09468 18.27787,-22.34007 21.12761,-38.70447 5.15035,-29.57556 -10.10458,-57.9459 -36.54341,-67.96155 -9.19277,-3.48242 -13.13951,-3.88251 -30.53819,-3.09563 l -19.981,0.90367 1.1639,-9.47298 c 2.47018,-20.10455 1.22861,-18.63983 17.85405,-21.06302 24.52854,-3.57506 42.00178,-13.6186 50.067,-28.77829 5.8138,-10.92782 5.80462,-35.68077 -0.0173,-46.625834 -9.49327,-17.847159 -29.24664,-27.706407 -52.21785,-26.062824 -25.94334,1.856235 -45.58888,20.568374 -50.80921,48.395168 -0.67414,3.59344 -2.17129,6.53523 -3.327,6.53729 -5.47229,0.009 -34.39481,-6.07992 -34.39481,-7.24191 0,-4.29405 6.71947,-22.935104 11.56967,-32.096404 11.06272,-20.895821 33.65768,-38.236081 56.75931,-43.559326 12.11645,-2.791958 38.2133,-2.39756 50.33891,0.760762 39.4862,10.284847 64.13386,39.653402 64.21488,76.514248 0.0551,25.09015 -12.34555,46.7623 -33.75292,58.98855 l -9.00459,5.14273 11.10661,4.04967 c 28.16696,10.2702 45.00697,33.86408 47.4156,66.43221 3.46337,46.82958 -29.08593,89.37712 -77.01763,100.67534 -10.80422,2.54672 -36.47932,3.40987 -47.81614,1.60746 z"> </path>
</g>
</svg>
</g>
</svg>

</svg>


<!--4-->
<svg x="64%" y="51%">

<svg width="18%" height="24%">
<rect class="box"/>
</svg>

<svg width="18%" height="24%">
<g transform="scale(1, 1)">
<svg>
<line class="line" x1="75%" y1="50%" x2="35%" y2="50%"/>
</svg>
</g>
</svg>

<svg class="button" x="9%" y="6%" width="9%" height="12%">
<g transform="scale(1, 1)">
<svg class="btnCoff">
<circle class="circle" cx="50%" cy="50%" r="40%"/>
</svg>
<svg x="17%" y="14%" viewBox="0 0 400 400">
<g transform='scale(0.65 0.65)' class="btnToff">
<path d="M 225.63619,322.89833 V 285.38365 H 157.1719 88.707623 l 0.0428,-18.2884 0.0428,-18.28841 L 161.153,146.11042 233.51278,43.414 h 14.81901 14.81901 v 103.16535 103.16536 h 21.57094 21.57094 v 17.81947 17.81947 H 284.72174 263.1508 v 37.51468 37.51467 h -18.75734 -18.75733 z m 0,-145.74451 c 0,-40.17103 -0.71425,-71.79506 -1.59928,-70.80895 -0.8796,0.98006 -20.84734,29.63659 -44.37274,63.68115 -23.52541,34.04458 -45.6678,65.9086 -49.20529,70.80896 l -6.43183,8.90973 h 50.80457 50.80457 z"> </path>
</g>
</svg>
</g>
</svg>

</svg>


<!--5-->
<svg x="45%" y="39%">

<svg width="18%" height="24%">
<rect class="box"/>
</svg>

<svg width="18%" height="24%">
<g transform="scale(1, 1)">
<svg>
<line class="line" x1="25%" y1="50%" x2="65%" y2="50%"/>
</svg>
</g>
</svg>

<svg class="button" x="0%" y="6%" width="9%" height="12%">
<g transform="scale(1, 1)">
<svg class="btnCoff">
<circle class="circle" cx="50%" cy="50%" r="40%"/>
</svg>
<svg x="17%" y="16%" viewBox="0 0 400 400">
<g transform='scale(0.65 0.65)' class="btnToff">
<path d="m 168.94319,357.50038 c -36.2159,-7.8427 -64.36078,-35.59431 -71.68144,-70.67989 -1.42482,-6.82864 -1.59203,-11.38468 -0.45645,-12.43693 0.98565,-0.91329 9.8143,-2.21966 19.61924,-2.90303 l 17.82716,-1.24248 2.32857,9.80273 c 4.89951,20.62576 18.05941,37.54708 34.99137,44.99271 12.37523,5.44186 33.42823,5.8781 47.57322,0.98575 20.31323,-7.02576 38.98274,-30.76157 43.58285,-55.40981 7.21847,-38.67801 -7.21922,-72.1779 -37.13926,-86.17451 -9.34397,-4.37112 -13.05416,-5.00017 -29.54284,-5.00896 -17.75081,-0.009 -19.59598,0.36511 -31.45832,6.38612 -6.93081,3.51789 -16.04953,10.13686 -20.26382,14.70884 l -7.66235,8.31267 -13.1038,-1.31597 c -7.20709,-0.72378 -14.97323,-1.85579 -17.25809,-2.51556 l -4.15428,-1.1996 15.07987,-80.19424 15.07988,-80.194223 h 78.34767 78.34768 v 17.82094 17.820939 h -63.50637 -63.50637 l -8.54021,42.676464 c -4.69711,23.47205 -8.29803,42.92708 -8.00205,43.23343 0.29599,0.30632 5.9152,-2.37331 12.48713,-5.95476 19.0005,-10.35454 30.96785,-13.01726 54.01241,-12.01769 27.57288,1.19598 44.85965,8.85699 64.09288,28.40418 30.29589,30.79042 36.80496,83.52891 15.62201,126.57444 -22.03333,44.77354 -70.69674,66.79346 -122.71629,55.52844 z"> </path>
</g>
</svg>
</g>
</svg>

</svg>


<!--6-->
<svg x="47%" y="24%">

<svg width="18%" height="24%">
<rect class="box"/>
</svg>

<svg width="18%" height="24%">
<g transform="scale(1, 1)">
<svg>
<line class="line" x1="25%" y1="50%" x2="65%" y2="50%"/>
</svg>
</g>
</svg>

<svg class="button" x="0%" y="6%" width="9%" height="12%">
<g transform="scale(1, 1)">
<svg class="btnCoff">
<circle class="circle" cx="50%" cy="50%" r="40%"/>
</svg>
<svg x="17%" y="16%" viewBox="0 0 400 400">
<g transform='scale(0.65 0.65)' class="btnToff">
<path d="M 175.74827,357.67012 C 142.20336,349.55065 114.73048,321.82093 103.73678,284.98535 94.986776,255.66754 92.383876,195.43915 98.168426,156.13951 108.93161,83.015553 146.47661,43.413998 205.03996,43.413998 c 28.92539,0 48.94394,7.634731 65.26368,24.890453 10.66124,11.272692 17.65882,24.334472 21.224,39.616999 2.36744,10.14833 2.3268,11.11238 -0.47419,11.24645 -1.68497,0.0806 -9.90685,0.71581 -18.27085,1.41148 l -15.20727,1.26484 -3.75124,-11.2725 c -8.23361,-24.741997 -25.69318,-37.615031 -51.05373,-37.642165 -29.2521,-0.03132 -54.43881,24.307968 -64.93809,62.753175 -3.79722,13.90426 -8.51143,56.71617 -6.47006,58.75755 0.60746,0.60746 2.28845,-0.55389 3.73553,-2.58077 6.76774,-9.47946 21.10372,-22.05107 30.70913,-26.92968 26.85579,-13.64012 54.21117,-14.30462 80.69121,-1.9601 14.61323,6.81243 35.33077,27.93071 42.5636,43.3869 24.0215,51.33277 3.65329,120.67674 -42.28341,143.95462 -19.53429,9.89877 -48.24689,12.87347 -71.03,7.35887 z m 49.00532,-32.22828 c 16.55359,-8.27804 28.82455,-23.88085 33.99036,-43.21955 3.35354,-12.55426 3.1571,-38.56899 -0.3839,-50.8385 -3.88745,-13.46998 -14.09248,-28.06589 -24.39327,-34.88884 -23.64225,-15.65998 -57.87381,-12.14364 -77.46254,7.95711 -12.72781,13.0605 -17.5936,25.10471 -18.46538,45.70711 -1.7053,40.29993 17.66026,70.86044 50.26078,79.31587 9.11219,2.3634 27.79648,0.2962 36.45395,-4.0332 z"> </path>
</g>
</svg>
</g>
</svg>

</svg>


<!--7-->
<svg x="59%" y="20%">

<svg width="18%" height="24%">
<rect class="box"/>
</svg>

<svg width="18%" height="24%">
<g transform="scale(1, 1)">
<svg>
<line class="line" x1="75%" y1="25%" x2="45%" y2="55%"/>
</svg>
</g>
</svg>

<svg class="button" x="9%" y="0%" width="9%" height="12%">
<g transform="scale(1, 1)">
<svg class="btnCoff">
<circle class="circle" cx="50%" cy="50%" r="40%"/>
</svg>
<svg x="18%" y="19%" viewBox="0 0 400 400">
<g transform='scale(0.63 0.63)' class="btnToff">
<path d="m 140.98091,351.34224 c 0.0168,-13.58986 4.97377,-43.867 11.57509,-70.70154 15.97709,-64.94729 46.39458,-128.96012 86.18299,-181.369964 L 253.59895,79.69701 H 174.36871 95.138484 V 61.555505 43.413996 H 199.21345 303.28843 v 14.364911 c 0,13.999171 -0.18734,14.570462 -7.36051,22.438187 -21.44234,23.518736 -48.59975,66.365736 -68.98288,108.836196 -27.15358,56.57743 -38.83097,96.98804 -46.89641,162.28895 l -1.12034,9.07076 h -18.97931 -18.97932 l 0.0112,-9.07076 z"> </path>
</g>
</svg>
</g>
</svg>

</svg>


<!--8-->
<svg x="56%" y="0%">

<svg width="18%" height="24%">
<rect class="box"/>
</svg>

<svg width="18%" height="24%">
<g transform="scale(1, 1)">
<svg>
<line class="line" x1="25%" y1="25%" x2="55%" y2="55%"/>
</svg>
</g>
</svg>

<svg class="button" x="0%" y="0%" width="9%" height="12%">
<g transform="scale(1, 1)">
<svg class="btnCoff">
<circle class="circle" cx="50%" cy="50%" r="40%"/>
</svg>
<svg x="17%" y="17%" viewBox="0 0 400 400">
<g transform='scale(0.65 0.65)' class="btnToff">
<path d="m 173.4216,357.85439 c -27.63349,-5.99601 -54.31184,-25.96967 -65.53331,-49.06377 -16.39434,-33.73997 -11.85335,-74.95142 10.94425,-99.32391 7.88321,-8.42778 27.42723,-20.39198 33.31117,-20.39198 5.9722,0 3.5309,-3.69646 -5.29228,-8.01324 -12.81432,-6.26945 -24.7581,-18.24441 -30.66046,-30.74043 -6.58446,-13.94015 -6.75386,-39.73309 -0.36777,-55.996616 8.07932,-20.57572 25.26277,-37.015714 47.69133,-45.627939 13.08974,-5.026254 44.20637,-6.92879 59.93125,-3.66432 25.11933,5.21475 47.56127,22.510469 58.74514,45.274139 5.9894,12.190856 6.32754,13.916606 6.32754,32.294726 0,17.49562 -0.50732,20.44867 -5.12985,29.86168 -5.90103,12.01641 -15.6452,21.53503 -28.94404,28.27407 -5.11134,2.59011 -9.29333,4.99651 -9.29333,5.34757 0,0.35106 5.26669,3.23107 11.70374,6.40001 29.55607,14.55042 45.50407,40.72397 45.50407,74.6804 0,44.39145 -30.60028,81.3791 -75.13257,90.81538 -15.53004,3.29077 -38.30456,3.23755 -53.80488,-0.12586 z m 55.88163,-32.86153 c 12.53903,-5.78235 24.37317,-17.69279 30.24784,-30.44282 4.02209,-8.72933 4.82246,-13.15937 4.89285,-27.08193 0.0766,-15.14942 -0.45648,-17.74381 -5.93131,-28.86667 -7.02578,-14.27385 -17.07083,-24.04705 -31.59403,-30.73898 -8.66934,-3.99461 -13.09671,-4.78931 -26.97996,-4.84284 -14.14303,-0.0545 -18.14843,0.65493 -26.97997,4.77881 -14.04218,6.55699 -24.47622,16.42104 -30.63424,28.96079 -4.57113,9.3083 -5.12985,12.45597 -5.12985,28.90016 0,16.01305 0.63228,19.79674 4.77992,28.60391 8.847,18.78589 20.27127,28.40134 40.47745,34.06862 13.76846,3.86167 34.42967,2.38917 46.8513,-3.33905 z M 215.95183,170.5606 c 11.65129,-3.23609 23.78493,-12.90241 29.86709,-23.79377 4.62031,-8.2736 5.59929,-12.12077 5.6352,-22.14495 0.0562,-15.67283 -3.16532,-24.653049 -12.46166,-34.738376 -11.99014,-13.00777 -19.53135,-16.12063 -39.05384,-16.12063 -19.01967,0 -26.5436,2.96248 -38.20223,15.04182 -8.89597,9.216987 -12.72887,18.768996 -12.79158,31.877916 -0.0774,16.18537 2.99158,24.66731 12.75305,35.24632 13.17907,14.28285 34.65599,20.07493 54.25397,14.63167 z"> </path>
</g>
</svg>
</g>
</svg>

</svg>


</svg> 

</svg>
