<svg xmlns="http://www.w3.org/2000/svg" viewBox="0 0 512 384">
<rect y="0" x="0" height="384" width="512" style="fill:none;" />
<path style="fill:#000000;" d="m -232.37655,219.79319 c -0.26979,-0.26978 -0.7449,-0.49051 -1.05574,-0.49051 -0.31089,0 -1.50697,-0.69625 -2.65794,-1.54723 -2.77482,-2.05148 -2.73124,-4.29894 0.31863,-16.43629 1.5456,-6.1509 1.41074,-20.28356 -0.26274,-27.53743 -0.78171,-3.38842 -2.38399,-11.32831 -3.56058,-17.64421 -1.97197,-10.58535 -2.15369,-12.78374 -2.32325,-28.10975 -0.197,-17.80239 -1.1947,-29.58471 -4.51096,-53.27195 -1.84992,-13.213411 -2.04181,-16.043011 -1.66936,-24.613851 0.75976,-17.48287 2.80864,-28.46842 7.05355,-37.81953 2.17491,-4.7910797 2.45803,-6.0375997 2.40942,-10.6083297 -0.0557,-5.23893 -2.72417,-22.8644603 -3.61331,-23.8665203 -0.6334,-0.71379 -6.49899,16.1405603 -7.77896,22.35212031 -0.54887,2.66358999 -1.80087,6.63352999 -2.78225,8.82210999 -0.98139,2.1885697 -3.92597,9.7814697 -6.5435,16.8730897 -5.01639,13.5909 -5.36222,15.33633 -6.42,32.40264 -0.20236,3.26497 -0.64294,5.76634 -0.97911,5.55859 -0.33612,-0.20775 -0.61115,-1.23767 -0.61115,-2.28871 0,-2.6606 -0.75285,-6.15238 -1.3265,-6.15238 -0.26302,0 -0.99224,2.36669 -1.62049,5.25932 -1.15955,5.33886 -2.08098,7.58312 -2.81287,6.85125 -0.22254,-0.22257 -0.0886,-2.3514 0.29731,-4.73071 1.47473,-9.08867 0.4029,-9.9544 -2.39023,-1.93066 -1.04333,2.99708 -2.29898,5.7829 -2.79037,6.19072 -1.27851,1.06107 -1.16515,-0.49726 0.46381,-6.37555 2.12584,-7.67136 1.44568,-8.75077 -1.65655,-2.62889 -1.85883,3.66825 -3.77243,5.67587 -3.77243,3.95779 0,-0.57077 0.8684,-2.97486 1.92981,-5.34243 1.99403,-4.44784 3.25274,-9.39434 2.39052,-9.39434 -0.27035,0 -1.47057,1.06884 -2.66714,2.37519 -2.02512,2.21092 -3.69057,3.05368 -3.68796,1.86621 0,-0.27992 1.15853,-2.18856 2.57313,-4.2414 1.70811,-2.47871 3.64604,-4.30229 5.7694,-5.42898 2.85347,-1.51406 3.37738,-2.17105 4.87066,-6.10763 2.39983,-6.32634 3.53888,-11.16807 4.41619,-18.77206 1.07559,-9.3221297 2.40682,-14.4186997 5.85684,-22.4227097 4.34157,-10.0723903 6.35366,-18.9396103 6.97516,-30.7393403 0.41779,-7.93244 0.81068,-10.49619 2.02664,-13.2247 2.7404,-6.149349 6.11975,-8.491273 12.25277,-8.491273 1.86421,0 5.06784,-0.627962 7.1192,-1.395464 6.44274,-2.410534 8.78175,-6.858576 7.22594,-13.741267 -0.4383,-1.938978 -1.02878,-4.594253 -1.31215,-5.900589 -0.28338,-1.306363 -0.84801,-2.30886 -1.25473,-2.227787 -1.03449,0.2062 -2.9089,-3.999751 -2.9089,-6.527234 0,-1.97793 1.26711,-3.085778 1.43504,-1.254689 0.0429,0.466559 0.47874,-1.721346 0.96881,-4.861981 1.34257,-8.604605 4.07204,-11.508125 11.36903,-12.093855 8.71705,-0.69973 13.06048,3.3056 13.85445,12.776029 0.32227,3.843962 0.5594,4.553586 1.3127,3.928382 0.74507,-0.618355 0.91942,-0.290498 0.91942,1.728949 0,2.739297 -1.74772,6.754502 -2.68729,6.17382 -0.55535,-0.343214 -1.2319,1.868009 -2.77734,9.077225 -1.73605,8.098374 4.53225,14.318461 14.42941,14.318461 9.21358,0 14.10832,6.8807 14.10855,19.832803 1.3e-4,10.16516 2.88939,23.0064 7.46407,33.1745203 3.12604,6.94826 4.37373,11.60975 5.42908,20.2840697 0.95824,7.87603 2.26218,13.88205 4.25715,19.60835 1.32987,3.81736 1.90426,4.5824 4.77479,6.35984 2.71336,1.68013 6.54316,5.92571 8.86666,9.82921 1.11066,1.86593 -1.58411,0.71982 -3.989,-1.69658 l -2.53278,-2.54483 0.3373,2.75278 c 0.18553,1.51405 1.31364,4.97727 2.50694,7.69607 1.19328,2.71881 2.01402,5.09886 1.82389,5.289 -0.67351,0.67352 -1.83939,-0.60496 -3.44978,-3.78293 -1.79693,-3.54605 -3.77899,-5.68633 -3.76373,-4.06419 0.006,0.51227 0.61558,2.86722 1.35725,5.23325 1.52461,4.86372 1.81198,8.30896 0.59119,7.08818 -0.41652,-0.41653 -1.59691,-3.13596 -2.62306,-6.0432 -1.97062,-5.58299 -3.91654,-7.75642 -3.19433,-3.56782 1.04417,6.05587 1.27285,10.09688 0.57145,10.09688 -0.70731,0 -1.55144,-2.54654 -2.47443,-7.46486 -1.13396,-6.04232 -2.01826,-6.04272 -2.71945,-9.7e-4 -0.26,2.24013 -0.70809,4.07295 -0.99578,4.07295 -0.28767,0 -0.71297,-3.13014 -0.94506,-6.95589 -1.01295,-16.69533 -1.35637,-18.41339 -6.40945,-32.06497 -2.62492,-7.0916 -5.5593,-14.65484 -6.5208,-16.8071697 -0.96152,-2.15233 -2.22468,-6.22015 -2.80703,-9.03957999 -0.96752,-4.68402001 -5.58246,-18.59643031 -7.02195,-21.16864031 -0.66696,-1.19179 -1.32877,1.51855 -3.11208,12.7449003 -1.6137,10.15886 -1.38851,15.18626 0.89685,20.0193897 3.7719,7.97697 5.00978,13.01267 6.58935,26.80564 1.34238,11.72185 1.22776,23.76255 -0.32307,33.931191 -3.28163,21.51747 -4.7943,39.037 -4.79723,55.56005 -0.003,14.641 -0.73714,20.89449 -4.63364,39.44729 -3.15821,15.03747 -3.45014,26.47675 -0.96735,37.90659 2.10156,9.67463 2.03195,11.22332 -0.59067,13.13952 -1.16468,0.85098 -2.38621,1.47088 -2.71448,1.37755 -0.32831,-0.0932 -0.5969,0.13588 -0.5969,0.50913 0,1.39505 -1.34751,0.61444 -1.75722,-1.01793 -0.23419,-0.93312 -0.65571,-1.69657 -0.93675,-1.69657 -0.28102,0 -0.36501,0.76345 -0.18662,1.69657 0.25824,1.3509 0.0486,1.69655 -1.02897,1.69655 -2.70382,0 -3.16227,-1.6702 -3.3579,-12.2338 -0.10239,-5.52335 -0.46195,-10.76825 -0.79921,-11.65531 -0.39836,-1.04769 -0.26101,-3.74373 0.39189,-7.6937 1.12902,-6.83074 0.84414,-15.47728 -0.91593,-27.79676 -1.36148,-9.52977 -1.4297,-16.74814 -0.26458,-27.9878 0.73288,-7.06994 0.76352,-9.96438 0.1436,-13.57248 -0.43335,-2.52238 -0.90858,-12.67874 -1.05603,-22.56969 -0.22286,-14.94726 -0.5507,-19.73773 -1.94177,-28.373561 -0.92049,-5.71454 -2.02159,-10.73803 -2.44692,-11.16337 -0.42533,-0.42531 -0.77332,-2.39182 -0.77332,-4.37001 0,-3.1443 -0.17072,-3.59672 -1.35724,-3.59672 -1.17968,0 -1.35725,0.45242 -1.35725,3.45808 0,1.90193 -0.42169,4.26865 -0.93708,5.25933 -0.51537,0.99069 -1.63861,6.84005 -2.49605,12.998561 -1.29763,9.32024 -1.53813,13.75691 -1.43457,26.46633 0.0908,11.14531 -0.15031,16.74339 -0.8928,20.72816 -0.81196,4.35755 -0.87911,6.82246 -0.33279,12.21523 1.50559,14.86247 1.51597,18.07053 0.0952,29.48998 -2.25825,18.15098 -2.34028,20.10016 -1.17569,27.9431 0.7657,5.15683 0.87822,7.75129 0.3916,9.03112 -0.37547,0.98764 -0.68271,5.7002 -0.68271,10.47238 0,10.14524 -0.6919,12.95093 -3.19376,12.95093 -1.47845,0 -1.64743,-0.22433 -1.27791,-1.69655 0.24552,-0.97834 0.13299,-1.69657 -0.26577,-1.69657 -0.38033,0 -0.69154,0.59273 -0.69154,1.31719 0,1.46364 -0.90156,2.30542 -1.65846,1.54851 z" />
<path d="m 48.847882,110.73789 c -0.319121,-4.1575 0.344431,-12.320849 -0.678805,-11.797459 0,0 -0.16724,0.72788 -0.195982,0.95525 -0.193664,1.546859 -0.0134,8.224579 -0.235889,10.669219 0,0 -0.79177,6.39741 -1.232589,8.19153 -0.440829,1.79378 -1.234247,12.73679 -2.116111,15.42804 -0.881644,2.691 -1.851487,6.27847 -0.969853,9.05934 0.881647,2.78077 1.851717,7.44486 0.969853,11.66071 -0.881644,4.21587 -1.851487,10.09067 -1.322463,13.05094 0.389197,2.17825 0.529028,4.26075 0.881859,4.70921 0.352398,0.44843 0,1.34511 0,2.5115 0,1.16581 0.176199,3.67766 -0.220526,4.61965 0,0.67226 0.572924,2.51128 0.264632,3.36331 -0.308732,0.85232 0,1.34566 -0.396937,1.70413 -0.396725,0.35891 -1.058052,1.30101 -2.512823,0.94233 -0.881867,-0.2695 -0.925751,-0.94233 -0.79344,-1.07687 0.1321,-0.1344 -0.485142,-0.0444 -0.485142,-0.0444 -0.30729,0.57268 -1.410445,0.75916 -1.939697,-0.0448 -0.08798,-0.13463 -0.396492,0.49311 -1.10194,0.35845 -0.705437,-0.13461 -0.396706,-0.44821 -0.396706,-0.44821 0,0 -0.925961,0.0447 -1.14627,-0.49333 -0.04414,0.13443 -0.484926,0.31382 -0.837757,-0.0449 -0.35261,-0.3587 -0.308503,-1.52464 -0.176199,-2.10792 0.132093,-0.58332 0.751209,-1.59185 0.969852,-1.97354 0.308511,-0.53797 1.45477,-2.60126 1.410667,-3.18412 -0.02747,-0.36068 0.08799,-3.09478 0.352615,-3.76717 0.26462,-0.67306 0.308722,-1.48021 0.308722,-2.37711 0,-0.8971 0.220524,-5.9651 -1.542975,-12.19913 -1.763497,-6.23382 -2.601036,-9.2833 -2.644918,-13.58914 -0.04414,-4.30563 1.895364,-6.90666 0.749098,-13.40942 -1.146036,-6.50352 -1.630957,-10.80882 -1.763267,-11.21272 -0.132324,-0.40312 -0.848373,-9.6264 -0.848373,-9.6264 -0.101025,-10.0439 0.234333,-8.35579 0.370292,-12.001399 0.260097,-6.99166 0.116179,-5.75033 1.110894,-9.79486 0.174323,-1.3439 0.271259,-2.54676 0.445582,-3.89122 0.07265,-0.56053 0.222177,-1.26211 0.295018,-1.82264 1.016495,-3.49881 1.010528,-2.79702 0.573792,-5.99672 -0.2885,-2.11898 0.07273,-1.84496 0.288941,-4.0306 0.03801,-0.38743 0.419379,-7.24368 -0.30729,-10.94367 -0.493655,-1.44427 -0.98731,-2.88876 -1.481192,-4.33271 h -0.06153 c 0.02225,3.55386 -1.22132,6.13899 -1.851705,9.16714 -0.206375,1.43708 -0.264401,2.64016 -0.474978,4.07625 -0.06468,0.44369 -0.189351,0.75795 -0.255893,1.21535 -0.286956,1.9743 0.311721,2.75988 -0.379918,6.32446 -0.800503,4.1249 -2.534267,7.72728 -3.332668,11.86699 -0.132321,0.68509 -0.06118,1.42193 -0.03491,2.09034 0.06468,0.44558 0.178514,0.6997 0.273577,1.16638 0.132086,0.64787 0.196756,1.45555 0.316457,2.08009 0.147468,0.76734 0.158958,1.69231 0.183942,2.59042 0.02287,0.812 0.114633,1.38613 0.03182,2.417429 -0.02408,0.30066 -0.0037,4.01558 -0.346413,5.38181 -0.15851,0.63006 -0.518641,0.58286 -0.671732,0.47298 -0.631825,-0.84604 -0.06797,-2.77657 -0.694169,-4.81927 -0.06182,0.042 -0.06182,0.006 -0.123579,0.0469 0.0093,0.44735 -0.07373,1.02501 -0.01971,1.71133 0.08611,1.10283 0.04174,1.56321 0.0078,1.99342 -0.09197,1.1686 -0.148561,2.17967 -0.433748,2.78752 -0.154204,0.32873 -0.574794,0.61789 -0.958245,0.16337 -0.214106,-0.365 -0.244059,-0.90342 -0.266497,-1.66446 -0.09705,-3.32207 -0.107111,-2.24324 -0.147455,-2.98106 -0.04291,-0.79399 -0.06746,-1.41133 -0.06746,-1.41133 -0.09837,-0.0261 -0.165131,-0.0392 -0.259211,-0.002 -0.239538,2.17734 -0.01967,1.73752 -0.327186,4.36011 -0.05429,0.46282 -0.01542,1.32953 -0.135412,1.88785 -0.246385,1.14549 -1.29007,1.00036 -1.37551,0.11352 -0.02928,-0.30287 -0.09793,-0.62863 -0.13685,-0.8938 -0.04201,-0.28651 -0.0181,-0.69195 -0.02809,-0.99361 -0.01542,-0.46525 -0.06248,-0.87191 -0.09816,-1.33407 -0.04126,-0.53489 0.230353,-1.97805 0.0021,-3.04539 -0.0032,0 -0.126236,0 -0.123359,0 -0.08114,0.48182 -0.248157,1.21081 -0.438716,2.14938 -0.02928,0.14469 -0.04414,0.40147 -0.07528,0.54992 -0.171219,0.81731 -0.153977,1.27946 -0.239422,1.78495 -0.134198,0.79851 0.0059,0.91944 -0.276893,1.45068 -0.30851,0.5802 -0.788677,0.3158 -0.917011,0.009 -0.199085,-0.47652 -0.311056,-1.2537 -0.308954,-2.20797 0.0043,-1.76803 0.30022,-2.13955 0.312264,-4.48988 0.0021,-0.48681 0.02949,-0.9149 -0.03119,-1.36501 v 0.23533 c -0.269158,0.45419 -0.372845,0.89855 -0.86396,1.1299 -0.244614,0.0873 -0.442253,0.13773 -0.625965,0.0403 -0.179502,-0.0943 -0.300438,-0.0578 -0.234225,-0.41297 0.05096,-0.27302 0.175751,-0.64785 0.222621,-0.98455 0.07053,-0.506479 0.06131,-0.961449 0.181384,-1.492909 0.06988,-0.30829 0.261755,-0.68577 0.354054,-0.98212 0.15099,-0.48459 0.216432,-1.15499 0.348852,-1.37872 0.09981,-0.16945 0.332045,-0.43938 0.476415,-0.62984 0.03827,-0.0506 0.988643,-1.45709 1.35805,-1.94257 0.370959,-0.48736 0.629947,-0.89976 0.629947,-0.89976 0.0059,-1.29837 0.338127,-2.07566 0.22991,-3.3245 -0.187018,-2.16177 -0.05473,0.19454 -0.258538,-13.40057 0.528363,-7.54534 1.220879,-5.48493 1.894151,-12.32681 0.448566,-4.53775 0.530358,-6.22033 0.813996,-7.162438 0.271034,-0.900542 0.7008,-3.21573 0.625304,-4.827686 -0.05069,-1.083367 -0.04974,-1.571937 -0.170555,-2.263461 -0.226599,-1.299239 -0.158182,-4.724215 1.296039,-7.66007 1.268626,-2.561683 3.019637,-3.763551 5.485812,-4.785012 1.716744,-0.711195 1.595385,-0.308396 4.75065,-2.01321 1.887305,-1.019917 6.390559,-3.676219 7.25351,-5.622215 0.01369,-1.803845 -0.04046,-1.596482 4.13e-4,-3.291557 0,0 -0.355155,-1.469914 -0.500724,-2.497131 -0.757615,-0.0082 -1.190365,-0.712852 -1.451013,-1.582665 -0.231471,-0.771543 -0.207478,-2.129151 -0.212007,-2.309989 -0.01803,-0.703789 -0.04872,-1.376179 0.552122,-1.632627 0.159728,-0.03769 0.188028,-0.04156 0.259878,-0.02298 0.09241,0.02355 0.141262,0.125018 0.233788,0.148563 -0.1164,-3.673916 0.468782,-6.548976 2.839577,-8.162589 4.216632,-2.8697508 9.306514,-0.4846958 10.677279,3.453608 0.458721,1.318256 0.465573,3.132935 0.308504,4.708967 h 0.0616 c 0.133974,-0.112745 0.159728,-0.179953 0.428547,-0.136737 0.475645,0.208805 0.618013,0.764804 0.631391,1.764606 0.01951,1.486158 -0.06629,2.479549 -1.035394,3.52645 -0.241971,0.261523 -0.473317,0.231013 -0.826488,0.37118 -0.02299,0.513517 -0.298835,2.057827 -0.298835,2.057827 0,0 -0.188245,3.113593 -0.07192,3.53032 0.482376,1.720278 6.16197,5.290162 9.483156,6.751565 1.961803,0.863737 5.35483,1.300796 7.630439,4.927055 1.532373,2.440541 2.116895,5.913374 1.735872,8.232325 -0.151327,0.917893 -0.320115,3.200033 -0.05027,4.746881 1.206837,5.97263 0.576999,1.799864 1.372978,9.83256 0.409309,4.12247 0.511342,3.59078 1.333953,7.41291 0.09694,0.45088 0.08775,0.75563 0.148783,1.33363 0.183819,1.75377 0.621209,3.36296 0.275451,11.59848 -0.309392,7.33709 -0.437727,5.91272 -0.104231,7.55562 0.133528,0.66233 -0.338584,0.93193 1.553807,3.40409 0.16581,0.21643 0.341338,0.53864 0.506367,0.71793 0.187249,0.20394 0.361351,0.26606 0.492665,0.54494 0.145249,0.30973 0.07994,0.57247 0.152543,0.91448 0.0892,0.4134 0.182056,0.74357 0.453748,1.365 0.111976,0.25723 -0.0083,0.97063 0.07221,1.487949 0.04524,0.29148 0.216762,0.57036 0.263963,0.85544 0,0.002 0.103796,0.14369 0.08423,0.27446 -0.02834,0.18647 -0.221512,0.37361 -0.594794,0.29325 -0.712519,-0.11495 -0.784918,-0.68887 -1.172901,-1.10923 0.0089,0.59016 -0.06577,0.80481 0.121468,3.28602 0.04718,0.62576 0.43032,3.35324 -0.13253,4.47243 -0.1941,0.38632 -0.632383,0.33117 -0.862509,0.0564 -0.615139,-0.73417 -0.0413,-1.18107 -0.986545,-5.67715 -0.123352,-0.58263 -0.259648,-0.0675 -0.259648,-0.0675 -0.01771,2.81471 0.184157,1.4445 -0.02769,3.51904 -0.104135,1.00876 -0.04146,3.01565 -0.601872,3.16566 -0.514892,0.1385 -0.814214,-0.25623 -0.9043,-0.59867 -0.234562,-0.89623 -0.216223,-1.99651 -0.222631,-2.10716 -0.01707,-0.30165 -0.113409,-1.00798 -0.125453,-1.31682 -0.04041,-1.01849 0.05499,-1.41697 -0.143917,-2.97532 -0.01576,-0.12976 -0.161608,-0.14921 -0.161608,-0.14921 -0.216762,0.20107 -0.09406,0.93447 -0.13109,1.2768 -0.348191,3.19693 0.04883,3.54413 -0.480944,4.75649 -0.179952,0.41131 -0.716282,0.42901 -0.932157,0.0543 -0.159397,-0.27767 -0.168678,-0.63293 -0.188459,-0.70213 -0.194106,-0.67306 -0.147467,-1.41541 -0.205941,-2.05255 -0.03918,-0.42115 -0.102357,-0.53986 -0.09462,-0.87965 0.02575,-1.15368 0.255228,-1.87515 0.04553,-3.05645 -0.04126,-0.0208 -0.08256,-0.0418 -0.123577,-0.0623 -0.08234,0.12789 -0.05069,0.24207 -0.09196,0.41076 -0.133974,0.54472 -0.155196,1.34347 -0.243626,1.97407 -0.139171,0.99672 0.100695,2.25041 -0.528802,2.51272 -0.308512,-0.0211 -0.28773,-0.042 -0.472436,-0.23036 -0.594251,-1.49854 -0.199521,-3.43636 -0.344545,-5.25292 -0.175309,-2.185299 -0.0073,-2.064929 0.0387,-2.783869 0.211902,-3.43458 0.106779,-1.81213 0.354269,-3.55717 0.250036,-1.7624 0.33758,-1.53237 0.456851,-2.34647 0.22759,-1.55336 -0.07362,-2.30479 -0.552579,-4.16767 -0.05429,-0.21234 -0.128549,-0.38655 -0.179289,-0.60606 -0.23091,-0.99118 -0.647193,-2.10053 -0.910162,-3.05136 -2.135337,-7.71844 -1.601462,-5.9776 -1.896028,-8.03026 -0.142164,-0.98853 -0.125244,-0.60729 -0.01249,-3.94251 -0.08943,-0.61879 -0.26131,-1.15389 -0.351176,-1.77245 -0.198636,-1.36966 -0.314362,-2.82299 -0.512782,-4.19233 -0.625305,-2.89804 -1.763725,-5.3933 -1.789915,-8.85331 -0.04078,0.0209 -0.08213,0.0418 -0.123362,0.0629 -0.310384,1.22829 -0.899981,2.63243 -1.412989,3.88812 -0.26584,0.6515 -0.04616,0.69926 -0.278768,1.69984 -0.319006,1.3733 -0.458179,7.05477 -0.09783,9.73241 0.102463,0.76845 0.132312,0.19996 0.308727,2.26025 0.0314,0.37074 -0.0181,0.64111 -0.04952,1.06535 -0.02575,0.34675 -0.02473,0.8518 -0.07053,1.13543 -0.162263,1.00445 -0.358033,1.71685 -0.127117,2.75965 0.223281,1.00689 0.295909,0.47034 0.967312,3.86238 0.109868,0.55401 0.08301,0.84217 0.162042,1.47732 0.06248,0.5025 0.229689,1.35495 0.313477,1.79787 0.08236,0.43286 0.117502,0.98974 0.197645,1.41642 0.17332,0.92275 0.893465,3.30405 0.935143,6.86034 0.07782,6.580249 0.494757,6.135219 0.44479,11.301689 -0.0679,6.29174 -0.948838,16.30847 -1.572489,19.24686 -0.837531,3.94659 -1.410661,9.05968 -1.101712,10.0461 0.30806,0.98666 1.366556,8.74554 0.748883,12.33368 -0.617013,3.58746 -3.790966,15.47246 -3.746859,17.89441 0.04388,2.42199 -0.65426,4.58152 0.04388,6.14405 0.441033,0.98665 0.132534,3.00529 0.308722,3.58791 0.17642,0.58309 0.396715,2.24257 1.013959,2.7359 0.617233,0.49354 1.675068,3.00482 1.454773,3.8123 -0.220528,0.80713 -0.573143,1.43508 -1.146269,1.21102 -0.484708,0.53821 -1.102161,0.40359 -1.23425,0.35871 -0.132311,-0.0449 -0.484925,0.98665 -1.542984,0.1795 -0.2644,0.40334 -0.617008,0.71715 -1.366776,0.40334 -0.749327,-0.31379 -0.528816,-0.40334 -0.528816,-0.40334 l -0.573125,0.0896 c 0,0 0.08798,1.16615 -0.97007,1.16615 -1.057833,0 -2.600812,-0.71771 -2.512607,-1.88354 0.08798,-1.16638 -0.08821,-2.7361 0.440818,-4.3505 -0.529023,-1.12129 -0.573133,-2.91509 -0.308507,-3.76763 0.264405,-0.85159 0,-1.97308 -0.04435,-2.55593 -0.04414,-0.58331 0.837748,-4.12634 0.837748,-5.11277 0,-0.9871 0.08822,-10.00165 -0.529019,-11.34701 -0.617241,-1.34512 -1.410664,-6.63761 -0.484922,-10.31482 0,0 1.117523,-5.33693 1.146265,-6.68249 0.04387,-2.06327 -2.248433,-8.38685 -2.248433,-10.89813 0,-2.51173 -1.498875,-12.06474 -1.675067,-12.78245 -0.176192,-0.71761 -1.006871,-5.50693 -1.006871,-5.50693" />
<ellipse style="fill:#808080;" cx="259.81406" cy="191.04283" rx="159.36453" ry="159.81052" />
<path style="fill:#808080;" d="m 175.03295,51.231062 -0.1865,-4.360012 -1.45046,2.388881 c -1.51206,2.490329 -3.60725,3.670683 -4.6394,2.613664 -0.74148,-0.759346 0.2487,-7.483792 2.16332,-14.691461 1.13245,-4.263178 2.19721,-6.354238 6.08469,-11.949661 5.15131,-7.414524 5.5612,-8.756348 5.67274,-18.5704218 l 0.0532,-4.6829758 h 10.64594 10.64594 l -0.61679,2.9616085 c -0.73503,3.5293997 -0.36478,11.2047881 0.94771,19.6458601 0.52477,3.374973 1.11365,8.499666 1.30862,11.388206 l 0.35449,5.251893 -3.91652,1.454601 c -6.43994,2.391804 -16.18335,6.964284 -21.37564,10.031359 -2.68015,1.583159 -5.01516,2.878471 -5.18893,2.878471 -0.17376,0 -0.39986,-1.962005 -0.50243,-4.360012 z" />
<path style="fill:#808080;" d="M 347.55028,59.443396 C 326.88573,45.386607 305.28299,37.02868 279.42465,33.086138 265.71736,30.99623 239.24942,31.817243 226.74924,34.720085 l -2.33993,0.543389 0.27786,-4.816024 c 0.15283,-2.648812 0.4226,-7.447423 0.5995,-10.663581 0.17689,-3.216158 0.93963,-8.537937 1.69496,-11.8261765 l 1.37333,-5.9786171 h 60.68786 60.68784 l 1.36181,7.0957057 c 0.95191,4.9598859 1.53768,11.4622699 1.94607,21.6024819 0.32134,7.978727 0.89963,18.716968 1.2851,23.862758 0.38547,5.14579 0.60631,9.433788 0.49077,9.528885 -0.11555,0.0951 -3.3844,-1.986382 -7.26413,-4.62551 z" />
<path style="fill:#808080;" d="m 389.34497,79.401109 c -0.98721,-1.515164 -2.24033,-13.254116 -2.25158,-21.092211 -0.004,-2.494561 -0.29234,-4.712219 -0.64169,-4.92813 -0.99302,-0.613724 -1.17812,0.579946 -1.76113,11.357598 -0.30053,5.555452 -0.88706,10.730656 -1.30459,11.510811 -0.93701,1.750829 -2.34405,1.824669 -3.22987,0.169502 -1.03077,-1.926001 -1.90207,-12.987403 -1.47474,-18.722223 0.21098,-2.831403 0.19243,-5.646189 -0.0412,-6.25508 -0.89311,-2.327395 -1.65107,0.325104 -2.36429,8.273893 -0.45053,5.021078 -1.05987,8.529605 -1.5794,9.094089 -2.4905,2.705981 -3.39371,-4.039222 -3.07906,-22.99459 0.20487,-12.34261 0.51597,-16.534953 1.68496,-22.706258 1.51596,-8.002994 1.82842,-14.0278549 0.95682,-18.4488346 l -0.52849,-2.6806 h 10.36611 10.3661 l 0.40456,7.0957057 c 0.47093,8.2600709 1.90184,11.8957649 7.32426,18.6096939 1.75248,2.169879 3.19878,4.582419 3.214,5.361199 0.0152,0.778781 0.46014,2.551278 0.9887,3.938883 0.52855,1.387604 1.21291,4.509715 1.52079,6.938023 0.30788,2.428308 0.64349,4.971887 0.74581,5.652398 0.35165,2.338817 -2.11292,1.952528 -4.4142,-0.691869 l -2.12133,-2.437611 0.5225,8.830211 c 1.00844,17.042674 0.62153,22.390894 -1.61984,22.390894 -1.95412,0 -2.473,-1.321095 -3.22596,-8.213409 -2.00044,-18.311251 -3.46576,-19.665232 -3.93424,-3.63531 -0.18538,6.343347 -0.64462,12.313882 -1.02053,13.26786 -0.82866,2.102953 -2.25412,2.231306 -3.50245,0.315365 z" />
<path style="fill:#808080;" d="m 261.53023,375.78273 c -2.25433,-0.47233 -3.90207,-2.14946 -3.76954,-3.83678 0.0568,-0.72323 0.0486,-0.72975 -0.83462,-0.66026 -0.61511,0.0484 -1.09965,0.26912 -1.56098,0.71106 -0.85507,0.81915 -1.65233,1.11423 -3.01045,1.11423 -1.42199,0 -2.16175,-0.29796 -3.16876,-1.27629 l -0.82729,-0.80373 -0.86459,0.59916 c -0.47552,0.32954 -1.20634,0.69717 -1.62403,0.81697 -1.43078,0.41034 -3.47746,-0.29833 -3.26026,-1.12889 0.0914,-0.3494 -0.0587,-0.44106 -0.92668,-0.566 -1.4096,-0.20291 -2.36461,-0.62112 -2.94642,-1.29025 -0.45833,-0.52712 -0.51946,-0.54006 -1.01572,-0.2149 -1.20382,0.78877 -2.98656,-0.32814 -3.36434,-2.10779 -0.35561,-1.67521 -0.18172,-5.41535 0.32887,-7.07358 0.39969,-1.29806 4.83531,-9.71588 5.35713,-10.16663 0.0873,-0.0754 1.41314,-0.008 2.94624,0.14921 6.04687,0.62123 14.38361,0.84898 20.76802,0.56737 3.32764,-0.14678 6.48056,-0.32585 7.00651,-0.39794 l 0.95625,-0.13107 -0.34615,1.37418 c -0.33491,1.32952 -0.32346,1.51354 0.35237,5.66298 0.81005,4.97345 0.85427,6.55372 0.2473,8.83623 -0.24241,0.91156 -0.44314,2.11575 -0.44607,2.67596 -0.0109,2.09196 -0.29521,2.68837 -2.1159,4.43897 -0.98929,0.95122 -2.18542,1.85716 -2.85657,2.16355 -1.32072,0.60293 -3.57746,0.84738 -5.02432,0.54424 z" />
<path style="fill:#808080;" d="m 313.74525,375.98725 c -2.7103,-0.45222 -5.54919,-2.09115 -6.85937,-3.96001 l -0.67758,-0.96651 0.0236,-5.83202 c 0.0243,-6.00742 0.20692,-8.0654 0.99753,-11.24223 l 0.45848,-1.84226 -0.44478,-1.18878 c -0.53826,-1.43863 -1.05652,-3.93983 -1.25431,-6.05352 l -0.14607,-1.56098 3.19322,-1.07052 c 6.91803,-2.31925 12.84518,-4.80888 20.33389,-8.54098 2.55907,-1.27534 4.69147,-2.31881 4.73867,-2.31881 0.0472,0 0.0858,1.55594 0.0858,3.45764 0,3.2565 0.0509,3.66898 0.87476,7.09051 1.14333,4.74825 1.77339,6.28522 3.25904,7.95022 2.99481,3.35635 5.87943,10.49715 5.62471,13.9238 -0.12992,1.74776 -0.89558,3.71843 -1.82942,4.70859 -0.62799,0.66585 -0.88003,0.77865 -1.73996,0.77865 -0.64064,0 -1.11078,0.12673 -1.29541,0.3492 -0.55483,0.66853 -1.65512,1.05947 -3.03937,1.07991 -1.16516,0.0172 -1.47651,0.11127 -2.00697,0.60636 -1.3374,1.24821 -2.52579,1.40892 -4.10499,0.55512 l -0.98281,-0.53136 -0.93226,0.8971 c -1.33592,1.28553 -2.56024,1.38434 -4.73463,0.3821 -0.86944,-0.40075 -1.58049,-0.87028 -1.58049,-1.04365 0,-0.24885 -0.22282,-0.28284 -1.05924,-0.16157 -1.36989,0.19862 -1.39372,0.21685 -1.39372,1.06615 0,1.23721 -0.87664,2.64608 -1.99847,3.21179 -1.04882,0.52889 -1.62351,0.57081 -3.50988,0.25606 z"  />
<path style="fill:#000000;" d="m 242.64032,349.78492 c -1.12743,-0.13991 -2.04987,-0.34402 -2.04987,-0.45357 0,-0.10955 0.67944,-1.72358 1.50986,-3.58673 1.13173,-2.53915 1.61361,-5.04617 1.9241,-10.01021 0.22783,-3.64246 0.85725,-8.32563 1.39872,-10.40703 0.79767,-3.06623 0.92019,-6.1782 0.64568,-16.39897 -0.38736,-14.42211 -1.7243,-24.00854 -5.1458,-36.89767 -9.2354,-34.79067 -10.42423,-40.93753 -10.42423,-53.89857 0,-6.08862 0.47083,-10.75713 1.96378,-19.47167 1.76059,-10.27683 1.93239,-12.40913 1.66043,-20.60844 -0.20445,-6.16375 -0.94652,-12.87264 -2.27602,-20.57691 -3.57056,-20.69098 -6.29195,-41.29474 -7.69567,-58.264262 -1.1924,-14.414879 -1.32271,-19.10055 -0.94724,-34.059387 0.5097,-20.306121 1.05948,-28.71533 1.93352,-29.574352 0.3469,-0.34094 3.89476,-1.130126 7.88412,-1.753745 9.20888,-1.439536 40.41368,-1.647328 47.93543,-0.319201 7.79302,1.376023 7.17529,0.758506 6.64756,6.645251 -0.25314,2.823739 -0.69137,14.926145 -0.97384,26.894235 -0.51983,22.023807 -1.43909,31.37605 -4.71175,47.935431 -0.51419,2.60176 -1.94064,13.67106 -3.16988,24.59845 -2.44032,21.69323 -4.29353,33.94114 -5.7557,38.03952 -2.00866,5.63015 -4.07219,15.52098 -4.43319,21.24904 -0.3508,5.56601 -0.19494,6.7317 2.19252,16.39897 1.41358,5.72387 2.90691,13.01718 3.31851,16.20736 1.03855,8.04956 0.4112,20.18481 -1.54241,29.83588 -2.32103,11.46613 -4.13069,24.5864 -4.57562,33.17384 -0.32627,6.29726 -0.12411,9.21638 1.25348,18.0993 0.90338,5.8251 1.90586,11.08318 2.22774,11.68462 0.69584,1.3002 0.55885,24.04772 -0.15169,25.18668 -0.37114,0.59493 -3.69445,0.76364 -13.54226,0.68746 -7.17772,-0.0555 -13.97285,-0.21541 -15.10028,-0.35532 z" />

</svg>
