<svg xmlns="http://www.w3.org/2000/svg" viewBox="0 0 512 384">
<rect y="0" x="0" height="384" width="512" style="fill:none;" />
<path style="fill:#000000;" d="m 324.95609,252.33688 c -3.13931,-0.94526 -6.29084,-3.31912 -7.15627,-5.39038 -0.6792,-1.62556 -0.73549,-3.88785 -0.27617,-11.09928 0.31731,-4.98167 0.83143,-9.90907 1.14251,-10.94977 0.39481,-1.32087 0.29045,-2.65396 -0.34564,-4.41511 -1.75252,-4.85223 -0.94086,-29.68356 1.34008,-40.99741 1.57181,-7.79644 1.65324,-9.16384 1.6565,-27.81818 0.004,-23.40069 -0.6976,-33.47548 -2.82706,-40.58997 -2.47625,-8.27309 -3.62375,-17.481993 -3.61856,-29.039541 0.004,-9.764757 0.18033,-11.302331 2.85085,-24.913812 4.02755,-20.528145 4.45191,-23.614887 4.05527,-29.497196 -0.28138,-4.172948 -4.39071,-22.6901548 -5.91953,-26.67418779 -0.30042,-0.78287325 3.11745,-0.90962595 24.52793,-0.90962595 h 24.87699 l -0.28533,4.92889044 c -0.19359,3.3441158 0.13975,7.3493563 1.03673,12.4569053 2.30384,13.118357 3.43898,26.348685 3.45991,40.325944 0.0226,15.085735 0.60822,11.603926 -8.64605,51.404443 -9.31401,40.05751 -9.83992,43.28601 -10.89987,66.91346 -0.3528,7.86429 -0.25279,9.65192 0.68806,12.29922 0.69801,1.96399 1.28752,6.32889 1.61091,11.92772 0.68141,11.79694 1.71102,15.41672 6.05616,21.29152 4.57511,6.18573 6.99784,14.29124 5.54246,18.5429 -0.91166,2.6633 -3.0029,4.74487 -4.27607,4.25631 -0.44782,-0.17184 -1.17828,0.12621 -1.62323,0.66235 -0.47518,0.57256 -1.81821,0.9748 -3.2547,0.9748 -1.34513,0 -2.44569,0.23587 -2.44569,0.52415 0,1.21073 -2.8687,2.07588 -4.64453,1.40072 -1.36909,-0.52054 -2.05735,-0.45856 -3.11211,0.28022 -1.84372,1.29139 -5.04644,1.1935 -6.77612,-0.20711 -1.95643,-1.58422 -4.38912,-1.07773 -4.38912,0.91383 0,3.31416 -3.66832,4.80735 -8.34831,3.39819 z" />
<circle style="fill:#808080;" cx="254.34148" cy="191.84668" r="106.38327" />
<path id="path1141" d="m 48.847882,110.73789 c -0.319121,-4.1575 0.344431,-12.320849 -0.678805,-11.797459 0,0 -0.16724,0.72788 -0.195982,0.95525 -0.193664,1.546859 -0.0134,8.224579 -0.235889,10.669219 0,0 -0.79177,6.39741 -1.232589,8.19153 -0.440829,1.79378 -1.234247,12.73679 -2.116111,15.42804 -0.881644,2.691 -1.851487,6.27847 -0.969853,9.05934 0.881647,2.78077 1.851717,7.44486 0.969853,11.66071 -0.881644,4.21587 -1.851487,10.09067 -1.322463,13.05094 0.389197,2.17825 0.529028,4.26075 0.881859,4.70921 0.352398,0.44843 0,1.34511 0,2.5115 0,1.16581 0.176199,3.67766 -0.220526,4.61965 0,0.67226 0.572924,2.51128 0.264632,3.36331 -0.308732,0.85232 0,1.34566 -0.396937,1.70413 -0.396725,0.35891 -1.058052,1.30101 -2.512823,0.94233 -0.881867,-0.2695 -0.925751,-0.94233 -0.79344,-1.07687 0.1321,-0.1344 -0.485142,-0.0444 -0.485142,-0.0444 -0.30729,0.57268 -1.410445,0.75916 -1.939697,-0.0448 -0.08798,-0.13463 -0.396492,0.49311 -1.10194,0.35845 -0.705437,-0.13461 -0.396706,-0.44821 -0.396706,-0.44821 0,0 -0.925961,0.0447 -1.14627,-0.49333 -0.04414,0.13443 -0.484926,0.31382 -0.837757,-0.0449 -0.35261,-0.3587 -0.308503,-1.52464 -0.176199,-2.10792 0.132093,-0.58332 0.751209,-1.59185 0.969852,-1.97354 0.308511,-0.53797 1.45477,-2.60126 1.410667,-3.18412 -0.02747,-0.36068 0.08799,-3.09478 0.352615,-3.76717 0.26462,-0.67306 0.308722,-1.48021 0.308722,-2.37711 0,-0.8971 0.220524,-5.9651 -1.542975,-12.19913 -1.763497,-6.23382 -2.601036,-9.2833 -2.644918,-13.58914 -0.04414,-4.30563 1.895364,-6.90666 0.749098,-13.40942 -1.146036,-6.50352 -1.630957,-10.80882 -1.763267,-11.21272 -0.132324,-0.40312 -0.848373,-9.6264 -0.848373,-9.6264 -0.101025,-10.0439 0.234333,-8.35579 0.370292,-12.001399 0.260097,-6.99166 0.116179,-5.75033 1.110894,-9.79486 0.174323,-1.3439 0.271259,-2.54676 0.445582,-3.89122 0.07265,-0.56053 0.222177,-1.26211 0.295018,-1.82264 1.016495,-3.49881 1.010528,-2.79702 0.573792,-5.99672 -0.2885,-2.11898 0.07273,-1.84496 0.288941,-4.0306 0.03801,-0.38743 0.419379,-7.24368 -0.30729,-10.94367 -0.493655,-1.44427 -0.98731,-2.88876 -1.481192,-4.33271 h -0.06153 c 0.02225,3.55386 -1.22132,6.13899 -1.851705,9.16714 -0.206375,1.43708 -0.264401,2.64016 -0.474978,4.07625 -0.06468,0.44369 -0.189351,0.75795 -0.255893,1.21535 -0.286956,1.9743 0.311721,2.75988 -0.379918,6.32446 -0.800503,4.1249 -2.534267,7.72728 -3.332668,11.86699 -0.132321,0.68509 -0.06118,1.42193 -0.03491,2.09034 0.06468,0.44558 0.178514,0.6997 0.273577,1.16638 0.132086,0.64787 0.196756,1.45555 0.316457,2.08009 0.147468,0.76734 0.158958,1.69231 0.183942,2.59042 0.02287,0.812 0.114633,1.38613 0.03182,2.417429 -0.02408,0.30066 -0.0037,4.01558 -0.346413,5.38181 -0.15851,0.63006 -0.518641,0.58286 -0.671732,0.47298 -0.631825,-0.84604 -0.06797,-2.77657 -0.694169,-4.81927 -0.06182,0.042 -0.06182,0.006 -0.123579,0.0469 0.0093,0.44735 -0.07373,1.02501 -0.01971,1.71133 0.08611,1.10283 0.04174,1.56321 0.0078,1.99342 -0.09197,1.1686 -0.148561,2.17967 -0.433748,2.78752 -0.154204,0.32873 -0.574794,0.61789 -0.958245,0.16337 -0.214106,-0.365 -0.244059,-0.90342 -0.266497,-1.66446 -0.09705,-3.32207 -0.107111,-2.24324 -0.147455,-2.98106 -0.04291,-0.79399 -0.06746,-1.41133 -0.06746,-1.41133 -0.09837,-0.0261 -0.165131,-0.0392 -0.259211,-0.002 -0.239538,2.17734 -0.01967,1.73752 -0.327186,4.36011 -0.05429,0.46282 -0.01542,1.32953 -0.135412,1.88785 -0.246385,1.14549 -1.29007,1.00036 -1.37551,0.11352 -0.02928,-0.30287 -0.09793,-0.62863 -0.13685,-0.8938 -0.04201,-0.28651 -0.0181,-0.69195 -0.02809,-0.99361 -0.01542,-0.46525 -0.06248,-0.87191 -0.09816,-1.33407 -0.04126,-0.53489 0.230353,-1.97805 0.0021,-3.04539 -0.0032,0 -0.126236,0 -0.123359,0 -0.08114,0.48182 -0.248157,1.21081 -0.438716,2.14938 -0.02928,0.14469 -0.04414,0.40147 -0.07528,0.54992 -0.171219,0.81731 -0.153977,1.27946 -0.239422,1.78495 -0.134198,0.79851 0.0059,0.91944 -0.276893,1.45068 -0.30851,0.5802 -0.788677,0.3158 -0.917011,0.009 -0.199085,-0.47652 -0.311056,-1.2537 -0.308954,-2.20797 0.0043,-1.76803 0.30022,-2.13955 0.312264,-4.48988 0.0021,-0.48681 0.02949,-0.9149 -0.03119,-1.36501 v 0.23533 c -0.269158,0.45419 -0.372845,0.89855 -0.86396,1.1299 -0.244614,0.0873 -0.442253,0.13773 -0.625965,0.0403 -0.179502,-0.0943 -0.300438,-0.0578 -0.234225,-0.41297 0.05096,-0.27302 0.175751,-0.64785 0.222621,-0.98455 0.07053,-0.506479 0.06131,-0.961449 0.181384,-1.492909 0.06988,-0.30829 0.261755,-0.68577 0.354054,-0.98212 0.15099,-0.48459 0.216432,-1.15499 0.348852,-1.37872 0.09981,-0.16945 0.332045,-0.43938 0.476415,-0.62984 0.03827,-0.0506 0.988643,-1.45709 1.35805,-1.94257 0.370959,-0.48736 0.629947,-0.89976 0.629947,-0.89976 0.0059,-1.29837 0.338127,-2.07566 0.22991,-3.3245 -0.187018,-2.16177 -0.05473,0.19454 -0.258538,-13.40057 0.528363,-7.54534 1.220879,-5.48493 1.894151,-12.32681 0.448566,-4.53775 0.530358,-6.22033 0.813996,-7.162438 0.271034,-0.900542 0.7008,-3.21573 0.625304,-4.827686 -0.05069,-1.083367 -0.04974,-1.571937 -0.170555,-2.263461 -0.226599,-1.299239 -0.158182,-4.724215 1.296039,-7.66007 1.268626,-2.561683 3.019637,-3.763551 5.485812,-4.785012 1.716744,-0.711195 1.595385,-0.308396 4.75065,-2.01321 1.887305,-1.019917 6.390559,-3.676219 7.25351,-5.622215 0.01369,-1.803845 -0.04046,-1.596482 4.13e-4,-3.291557 0,0 -0.355155,-1.469914 -0.500724,-2.497131 -0.757615,-0.0082 -1.190365,-0.712852 -1.451013,-1.582665 -0.231471,-0.771543 -0.207478,-2.129151 -0.212007,-2.309989 -0.01803,-0.703789 -0.04872,-1.376179 0.552122,-1.632627 0.159728,-0.03769 0.188028,-0.04156 0.259878,-0.02298 0.09241,0.02355 0.141262,0.125018 0.233788,0.148563 -0.1164,-3.673916 0.468782,-6.548976 2.839577,-8.162589 4.216632,-2.8697508 9.306514,-0.4846958 10.677279,3.453608 0.458721,1.318256 0.465573,3.132935 0.308504,4.708967 h 0.0616 c 0.133974,-0.112745 0.159728,-0.179953 0.428547,-0.136737 0.475645,0.208805 0.618013,0.764804 0.631391,1.764606 0.01951,1.486158 -0.06629,2.479549 -1.035394,3.52645 -0.241971,0.261523 -0.473317,0.231013 -0.826488,0.37118 -0.02299,0.513517 -0.298835,2.057827 -0.298835,2.057827 0,0 -0.188245,3.113593 -0.07192,3.53032 0.482376,1.720278 6.16197,5.290162 9.483156,6.751565 1.961803,0.863737 5.35483,1.300796 7.630439,4.927055 1.532373,2.440541 2.116895,5.913374 1.735872,8.232325 -0.151327,0.917893 -0.320115,3.200033 -0.05027,4.746881 1.206837,5.97263 0.576999,1.799864 1.372978,9.83256 0.409309,4.12247 0.511342,3.59078 1.333953,7.41291 0.09694,0.45088 0.08775,0.75563 0.148783,1.33363 0.183819,1.75377 0.621209,3.36296 0.275451,11.59848 -0.309392,7.33709 -0.437727,5.91272 -0.104231,7.55562 0.133528,0.66233 -0.338584,0.93193 1.553807,3.40409 0.16581,0.21643 0.341338,0.53864 0.506367,0.71793 0.187249,0.20394 0.361351,0.26606 0.492665,0.54494 0.145249,0.30973 0.07994,0.57247 0.152543,0.91448 0.0892,0.4134 0.182056,0.74357 0.453748,1.365 0.111976,0.25723 -0.0083,0.97063 0.07221,1.487949 0.04524,0.29148 0.216762,0.57036 0.263963,0.85544 0,0.002 0.103796,0.14369 0.08423,0.27446 -0.02834,0.18647 -0.221512,0.37361 -0.594794,0.29325 -0.712519,-0.11495 -0.784918,-0.68887 -1.172901,-1.10923 0.0089,0.59016 -0.06577,0.80481 0.121468,3.28602 0.04718,0.62576 0.43032,3.35324 -0.13253,4.47243 -0.1941,0.38632 -0.632383,0.33117 -0.862509,0.0564 -0.615139,-0.73417 -0.0413,-1.18107 -0.986545,-5.67715 -0.123352,-0.58263 -0.259648,-0.0675 -0.259648,-0.0675 -0.01771,2.81471 0.184157,1.4445 -0.02769,3.51904 -0.104135,1.00876 -0.04146,3.01565 -0.601872,3.16566 -0.514892,0.1385 -0.814214,-0.25623 -0.9043,-0.59867 -0.234562,-0.89623 -0.216223,-1.99651 -0.222631,-2.10716 -0.01707,-0.30165 -0.113409,-1.00798 -0.125453,-1.31682 -0.04041,-1.01849 0.05499,-1.41697 -0.143917,-2.97532 -0.01576,-0.12976 -0.161608,-0.14921 -0.161608,-0.14921 -0.216762,0.20107 -0.09406,0.93447 -0.13109,1.2768 -0.348191,3.19693 0.04883,3.54413 -0.480944,4.75649 -0.179952,0.41131 -0.716282,0.42901 -0.932157,0.0543 -0.159397,-0.27767 -0.168678,-0.63293 -0.188459,-0.70213 -0.194106,-0.67306 -0.147467,-1.41541 -0.205941,-2.05255 -0.03918,-0.42115 -0.102357,-0.53986 -0.09462,-0.87965 0.02575,-1.15368 0.255228,-1.87515 0.04553,-3.05645 -0.04126,-0.0208 -0.08256,-0.0418 -0.123577,-0.0623 -0.08234,0.12789 -0.05069,0.24207 -0.09196,0.41076 -0.133974,0.54472 -0.155196,1.34347 -0.243626,1.97407 -0.139171,0.99672 0.100695,2.25041 -0.528802,2.51272 -0.308512,-0.0211 -0.28773,-0.042 -0.472436,-0.23036 -0.594251,-1.49854 -0.199521,-3.43636 -0.344545,-5.25292 -0.175309,-2.185299 -0.0073,-2.064929 0.0387,-2.783869 0.211902,-3.43458 0.106779,-1.81213 0.354269,-3.55717 0.250036,-1.7624 0.33758,-1.53237 0.456851,-2.34647 0.22759,-1.55336 -0.07362,-2.30479 -0.552579,-4.16767 -0.05429,-0.21234 -0.128549,-0.38655 -0.179289,-0.60606 -0.23091,-0.99118 -0.647193,-2.10053 -0.910162,-3.05136 -2.135337,-7.71844 -1.601462,-5.9776 -1.896028,-8.03026 -0.142164,-0.98853 -0.125244,-0.60729 -0.01249,-3.94251 -0.08943,-0.61879 -0.26131,-1.15389 -0.351176,-1.77245 -0.198636,-1.36966 -0.314362,-2.82299 -0.512782,-4.19233 -0.625305,-2.89804 -1.763725,-5.3933 -1.789915,-8.85331 -0.04078,0.0209 -0.08213,0.0418 -0.123362,0.0629 -0.310384,1.22829 -0.899981,2.63243 -1.412989,3.88812 -0.26584,0.6515 -0.04616,0.69926 -0.278768,1.69984 -0.319006,1.3733 -0.458179,7.05477 -0.09783,9.73241 0.102463,0.76845 0.132312,0.19996 0.308727,2.26025 0.0314,0.37074 -0.0181,0.64111 -0.04952,1.06535 -0.02575,0.34675 -0.02473,0.8518 -0.07053,1.13543 -0.162263,1.00445 -0.358033,1.71685 -0.127117,2.75965 0.223281,1.00689 0.295909,0.47034 0.967312,3.86238 0.109868,0.55401 0.08301,0.84217 0.162042,1.47732 0.06248,0.5025 0.229689,1.35495 0.313477,1.79787 0.08236,0.43286 0.117502,0.98974 0.197645,1.41642 0.17332,0.92275 0.893465,3.30405 0.935143,6.86034 0.07782,6.580249 0.494757,6.135219 0.44479,11.301689 -0.0679,6.29174 -0.948838,16.30847 -1.572489,19.24686 -0.837531,3.94659 -1.410661,9.05968 -1.101712,10.0461 0.30806,0.98666 1.366556,8.74554 0.748883,12.33368 -0.617013,3.58746 -3.790966,15.47246 -3.746859,17.89441 0.04388,2.42199 -0.65426,4.58152 0.04388,6.14405 0.441033,0.98665 0.132534,3.00529 0.308722,3.58791 0.17642,0.58309 0.396715,2.24257 1.013959,2.7359 0.617233,0.49354 1.675068,3.00482 1.454773,3.8123 -0.220528,0.80713 -0.573143,1.43508 -1.146269,1.21102 -0.484708,0.53821 -1.102161,0.40359 -1.23425,0.35871 -0.132311,-0.0449 -0.484925,0.98665 -1.542984,0.1795 -0.2644,0.40334 -0.617008,0.71715 -1.366776,0.40334 -0.749327,-0.31379 -0.528816,-0.40334 -0.528816,-0.40334 l -0.573125,0.0896 c 0,0 0.08798,1.16615 -0.97007,1.16615 -1.057833,0 -2.600812,-0.71771 -2.512607,-1.88354 0.08798,-1.16638 -0.08821,-2.7361 0.440818,-4.3505 -0.529023,-1.12129 -0.573133,-2.91509 -0.308507,-3.76763 0.264405,-0.85159 0,-1.97308 -0.04435,-2.55593 -0.04414,-0.58331 0.837748,-4.12634 0.837748,-5.11277 0,-0.9871 0.08822,-10.00165 -0.529019,-11.34701 -0.617241,-1.34512 -1.410664,-6.63761 -0.484922,-10.31482 0,0 1.117523,-5.33693 1.146265,-6.68249 0.04387,-2.06327 -2.248433,-8.38685 -2.248433,-10.89813 0,-2.51173 -1.498875,-12.06474 -1.675067,-12.78245 -0.176192,-0.71761 -1.006871,-5.50693 -1.006871,-5.50693"
/>
<path style="fill:#000000;" d="m 260.00521,251.93017 c -2.40444,-1.04791 -3.71592,-2.61789 -3.2346,-3.87218 0.6175,-1.60917 -1.43769,-1.84104 -3.4078,-0.38447 -2.34034,1.73028 -5.47403,1.73779 -7.3052,0.0175 -1.32312,-1.24301 -1.50809,-1.2634 -2.86159,-0.31537 -1.97109,1.38061 -4.44751,1.27385 -5.75048,-0.24791 -0.59405,-0.6938 -1.59376,-1.26146 -2.22158,-1.26146 -0.62781,0 -1.4973,-0.35478 -1.93219,-0.78841 -0.43488,-0.43363 -1.6864,-0.78841 -2.78115,-0.78841 -2.80687,0 -3.76064,-2.01882 -3.39922,-7.19504 0.23009,-3.29544 0.82169,-5.04173 3.2051,-9.46094 7.90125,-14.65011 8.10798,-15.22028 8.68115,-23.94296 0.28795,-4.38197 1.12597,-10.61824 1.86228,-13.85836 1.2244,-5.388 1.30803,-7.11176 0.97929,-20.18334 -0.55014,-21.87519 -2.0527,-30.88957 -9.9865,-59.91263 -2.78133,-10.174495 -4.92296,-18.848257 -4.7592,-19.275025 0.39266,-1.02324 9.68339,-2.777386 19.07885,-3.6022 7.91789,-0.695099 20.0535,-0.01309 27.70913,1.557228 l 3.78438,0.776249 -0.21529,3.753184 c -0.11842,2.064251 -1.05156,8.152524 -2.07366,13.529494 -4.22003,22.20041 -6.21004,37.79095 -6.21983,48.72865 -0.007,7.59453 3.16162,30.23134 4.63453,33.11158 0.72503,1.41776 0.80977,4.58784 0.46778,17.49965 -0.2297,8.67252 -0.63627,16.1197 -0.90349,16.54927 -0.26722,0.42957 -0.004,3.91871 0.5846,7.75366 0.85226,5.55146 0.9232,7.46406 0.34803,9.38381 -0.39733,1.32615 -0.72241,3.42083 -0.72241,4.65485 0,2.813 -2.19647,5.54893 -5.89042,7.33715 -3.09975,1.50056 -4.98302,1.60772 -7.67051,0.43646 z" />
<path style="fill:#808080;" d="m 225.86057,87.291632 c -3.89216,-17.415372 -5.06259,-32.740248 -3.39485,-44.450008 0.25938,-1.821231 1.10602,-6.788225 1.88142,-11.037764 2.31577,-12.691447 2.49503,-14.360648 2.51465,-23.4154508 l 0.0176,-8.12026275 24.99265,-3.7816e-4 c 13.74596,-2.0801e-4 24.99136,0.1060574 24.98979,0.23614534 -0.002,0.13008794 -0.63268,2.24752467 -1.40244,4.70541507 -4.09601,13.0787593 -5.84966,23.2712453 -5.41669,31.4826843 0.22881,4.339424 0.63805,6.463282 2.40885,12.501186 2.04971,6.988885 3.61185,14.396937 4.55928,21.621233 0.62771,4.786429 1.23232,15.244925 0.97897,16.934352 l -0.19728,1.315604 -3.53872,-0.703181 c -8.47878,-1.68483 -22.67915,-2.335824 -30.81776,-1.41279 -5.06552,0.5745 -12.10011,1.792243 -14.34819,2.483781 -1.66226,0.511332 -1.91052,0.692831 -2.05013,1.498796 -0.11474,0.662452 -0.44152,-0.347831 -1.17714,-3.639362 z" />
</svg>
