<svg xmlns="http://www.w3.org/2000/svg" viewBox="0 0 1024 768">

<style>
.line { stroke-linecap: round; stroke-width: 11px; stroke: red; } 
.box { stroke-width:0; stroke:green; height: 100%; width: 100%; fill: none; } 
.circle { stroke: red; stroke-width: 11px; } 
.button { width: 9%; height: 12%; } 
.btnCoff { fill: white; } 
.btnCon { fill: red; } 
.btnToff { fill: black; } 
.btnTon { fill: white; } 

</style> 

<rect width="1024" height="768" x="0" y="0" fill="none"/>
<circle r="93.301949" cy="383.11322" cx="417.91077" style="fill:#ffffff;"/>
<circle r="8.7111731" cy="384.57135" cx="128.85715" style="fill:#ffffff;" />
<circle r="10.132867" cy="383.14288" cx="174.28574" style="fill:#ffffff;" />
<circle r="12.620831" cy="383.49994" cx="228.07144" style="fill:#ffffff;" />
<circle r="7.6449027" cy="384.21423" cx="281.00003" style="fill:#ffffff;" />
<circle r="36.196148" cy="382.56372" cx="950.8689" id="path4297-8" style="fill:#ffffff;" />
<path d="m -3.9991555,382.73784 c 0,-211.45276 -0.5469231,-385.0095494 0,-385.0095494 2.7401003,0 29.4253755,56.0549874 43.5127285,93.1556814 23.758658,62.571208 39.679014,128.583958 48.526592,201.212468 4.506162,36.99045 5.141078,132.29999 1.128396,169.38804 C 78.258256,562.32522 51.532503,656.70697 10.098938,740.71805 L -3.9991555,767.7474 Z" style="fill:#ffffff;"/>
<path d="m 881.73582,384.02258 c 0,22.2823 -18.06,40.3444 -40.3404,40.3444 -22.2801,0 -40.3423,-18.0619 -40.3423,-40.3444 0,-22.2801 18.0622,-40.3423 40.3423,-40.3423 22.2804,0 40.3404,18.0622 40.3404,40.3423 z" style="fill:#ffffff;"/>
<path d="m 856.09142,317.3026 c -0.4225,-0.0756 -0.849,-0.12319 -1.2841,-0.13951 -7.9468,-0.31577 -16.6399,9.17138 -23.7207,24.40188 2.2645,-0.69951 4.6071,-1.22464 7.0112,-1.55884 0.4143,-0.78982 0.8328,-1.56519 1.2595,-2.31789 2.8719,-5.09738 5.9323,-9.16294 8.8615,-11.76184 2.3916,-2.12307 4.5948,-3.2061 6.3672,-3.13624 l 0,0 c 0.1805,0.0111 0.3567,0.0244 0.5331,0.0577 2.1129,0.37341 3.8481,2.57835 4.9273,4.363 1.9816,3.26575 3.5856,8.05726 4.6442,13.85803 1.1321,6.19285 1.6369,13.30669 1.4934,21.13847 -0.1517,8.20508 -1.005,16.81001 -2.5437,25.57721 -2.929,16.70549 -8.0205,32.06939 -14.33,43.27343 -2.872,5.09527 -5.9363,9.16105 -8.8615,11.75784 -2.3918,2.12519 -4.595,3.20821 -6.3671,3.13836 -0.1808,-0.0111 -0.357,-0.0244 -0.5375,-0.0577 -2.1129,-0.37341 -3.8442,-2.58045 -4.9274,-4.36088 -1.9773,-3.26576 -3.5813,-8.05759 -4.6438,-13.85837 -0.2174,-1.18965 -0.4103,-2.4163 -0.5784,-3.6717 -2.1292,-1.12813 -4.1559,-2.42052 -6.0637,-3.86463 1.5591,17.60803 6.9703,29.83791 15.2407,31.29824 0.4267,0.0778 0.8533,0.12317 1.2843,0.1395 13.4354,0.53302 29.0088,-26.92892 35.298,-62.81785 6.4962,-37.04238 0.6483,-69.03558 -13.0625,-71.4582 z" style="fill:#808080;"/>
<circle r="74.465126" cy="384.88675" cx="648.99243" id="path4297-2-1-2" style="fill:#ffffff;" />
<path d="m 657.41082,432.84848 c -49.56699,34.52631 -91.73883,55.98259 -111.26717,56.6108 -6.55212,0.21076 -9.98077,-1.25784 -10.97287,-4.70001 -0.73087,-2.53563 0.4202,-8.96089 2.36122,-13.18024 4.81056,-10.45713 14.78538,-23.63401 30.62713,-40.45871 3.7084,-3.93847 7.19645,-7.66529 7.75117,-8.28176 0.71035,-0.78939 3.66301,-3.54137 4.00446,-3.11329 1.0175,2.5394 2.80823,5.91441 4.49866,8.13853 -3.47628,2.89497 -7.1333,5.704 -9.20659,8.71398 -6.78567,9.85144 -9.29108,16.72073 -7.80225,21.39247 0.76785,2.40945 0.83429,2.48132 3.38448,3.6607 8.33582,3.85497 31.53339,-4.96527 61.78217,-23.49094 10.91167,-6.68277 18.59079,-12.0582 36.04513,-25.2318 26.60394,-20.07924 45.60772,-37.31776 60.83551,-55.18453 13.0307,-15.28891 18.38175,-27.07139 14.50282,-31.9342 -3.70186,-4.64094 -10.69018,-4.36299 -25.57054,1.01689 -7.66219,2.77021 -12.6213,4.76179 -12.6213,4.76179 -1.55948,-2.29765 -3.93371,-4.81824 -4.99421,-5.71264 -0.34658,-1.16014 22.96637,-11.99511 30.25178,-15.41383 21.4838,-10.0814 38.17798,-14.01233 45.1155,-10.62322 10.57006,5.16362 -3.35508,29.75962 -35.6025,62.88476 -4.18329,4.29718 -10.58689,10.51684 -14.23004,13.82138 -16.65839,15.10994 -56.57298,47.74256 -68.89256,56.32387 z" style="fill:#808080;" />
<path style="fill:#808080;" d="m 504.67001,514.21678 c -2.40043,-2.40043 -2.67269,-3.30961 -2.21284,-7.38941 0.75018,-6.65557 8.46596,-21.21358 17.80664,-33.59726 11.4691,-15.20551 51.54163,-60.59189 53.49778,-60.59189 0.38758,0 1.20357,1.32167 1.81331,2.93704 1.04319,2.76372 0.81313,3.22572 -3.89833,7.82869 -13.34282,13.03553 -32.01976,36.60355 -37.30614,47.07579 -5.53884,10.97239 -5.49752,19.55411 0.10811,22.4529 14.32148,7.40592 56.33944,-10.5018 111.14135,-47.36759 28.86377,-19.41694 73.6982,-56.07045 96.47143,-78.86833 30.34768,-30.38052 45.96008,-52.47712 45.96008,-65.04838 0,-3.00783 -0.73259,-4.7381 -3.06184,-7.23157 l -3.06185,-3.27772 -8.30237,0.55353 c -10.09889,0.67332 -22.59307,4.63583 -38.58399,12.23687 -10.28721,4.88987 -26.81709,13.7783 -32.39855,17.42131 -1.76341,1.15098 -2.4216,1.10619 -4.43142,-0.30155 l -2.36041,-1.65329 6.10172,-2.76978 c 3.35594,-1.52338 12.26263,-6.24737 19.79264,-10.49776 39.21311,-22.13422 70.57036,-33.40675 83.27047,-29.93468 5.51655,1.50817 6.81761,4.35788 5.27456,11.55283 -2.07058,9.65479 -11.00386,24.41729 -24.9886,41.29438 -11.0415,13.32511 -42.25213,44.78275 -55.34419,55.7822 -32.65373,27.43438 -79.67461,64.00423 -97.14297,75.5516 -53.76631,35.54196 -93.48601,54.6236 -116.65765,56.04322 -8.49304,0.52033 -8.83002,0.45577 -11.48694,-2.20115 z"/>

<!--Title-->
<svg id="AnnotDivLn-P00X-ID0" x="82%" y="0%">
<svg width="18%" height="24%">
<svg class="button" id="BtnContainerP00XBtnID0">

<rect id="P00XBtnImgId0B" class="circle btnCon" x="5%" y="25%" width="100%" height="43%" fill="white" rx="15" ry="15"/>

<svg id="P00XBtnImgId0T" class="btnTon" x="7%">
<svg viewBox="0 0 400 400">
<g transform="scale(0.365, 0.365)">
<g transform="translate(-60, 300)">
<path id="P00XDigitPath0DH" d="m 106.53335,354.43 c 0.0327,-1.22648 3.95043,-20.89477 8.70605,-43.70731 l 8.64657,-41.47736 H 106.26006 88.63415 v -15.16376 -15.16376 h 20.48169 c 19.77057,0 20.51455,-0.13933 21.42801,-4.01394 4.93098,-20.91544 14.54246,-70.95318 13.7762,-71.71944 -0.53758,-0.53758 -13.28683,-0.97742 -28.33166,-0.97742 H 88.63415 v -14.27178 -14.27178 h 31.09929 c 28.09308,0 31.18455,-0.30178 31.98126,-3.12195 0.48508,-1.71707 4.68591,-21.78676 9.33518,-44.599302 l 8.45322,-41.477352 h 14.65485 14.65485 l -8.64657,41.477352 c -4.75562,22.812542 -8.67334,42.882232 -8.70606,44.599302 -0.0545,2.86293 2.67878,3.12195 32.94401,3.12195 18.15192,0 33.00349,-0.28689 33.00349,-0.63753 0,-0.35065 3.13928,-15.80431 6.97617,-34.341471 3.8369,-18.537156 7.90775,-38.319951 9.04634,-43.961763 l 2.07018,-10.25784 h 14.71459 14.7146 l -8.53918,41.477352 c -4.69654,22.812542 -8.56526,42.882232 -8.59718,44.599302 -0.0514,2.76903 1.95873,3.12195 17.78172,3.12195 h 17.83973 v 14.27178 14.27178 h -20.41039 c -11.61869,0 -20.88311,0.76485 -21.5078,1.77563 -1.26052,2.03957 -15.16892,68.33931 -15.16892,72.3085 0,2.20346 4.59889,2.62667 28.54355,2.62667 h 28.54356 v 15.16376 15.16376 h -32.07752 c -31.79897,0 -32.08563,0.0348 -33.01331,4.01394 -0.51469,2.20767 -4.18379,20.06969 -8.15355,39.69338 -3.96976,19.6237 -7.66491,37.48572 -8.21144,39.69338 -0.92577,3.73956 -1.95602,4.01394 -15.07208,4.01394 -11.14262,0 -14.07838,-0.54222 -14.07838,-2.60025 0,-1.43014 3.61255,-19.97231 8.02788,-41.20483 4.41533,-21.23251 8.02787,-39.7307 8.02787,-41.10707 0,-2.05715 -5.87315,-2.50249 -33.00348,-2.50249 -18.15192,0 -33.00349,0.38179 -33.00349,0.84843 0,0.96898 -15.4987,76.4409 -16.95271,82.55227 -0.8916,3.74754 -1.89993,4.01394 -15.19277,4.01394 -10.23264,0 -14.22106,-0.6273 -14.17831,-2.22997 z M 226,238.1287 c 0,-0.434 3.21115,-16.13465 7.13589,-34.89033 3.92474,-18.75568 7.13589,-35.66052 7.13589,-37.5663 0,-3.30201 -1.50609,-3.46506 -32.00621,-3.46506 -17.60342,0 -32.43574,0.69498 -32.96072,1.54441 -1.12738,1.82415 -15.31182,69.21293 -15.31182,72.74488 0,1.95211 6.39768,2.42151 33.00349,2.42151 18.15191,0 33.00348,-0.3551 33.00348,-0.78911 z"/>
</g>
</g>
</svg>

<svg viewBox="0 0 400 400">
<g transform="scale(0.37, 0.37)">
<g transform="translate(175, 300)">
<path id="P00XDigitPath0D1" d="m 176.29871,358.09364 c -20.50105,-4.98061 -40.58042,-19.4385 -52.24756,-37.62016 -16.78007,-26.14946 -24.3114,-62.90261 -24.32214,-118.69282 -0.0129,-66.9279 9.87082,-104.020609 34.95564,-131.185517 11.48468,-12.437011 21.5433,-18.838934 37.30911,-23.745809 13.8716,-4.317323 38.89165,-4.60793 54.26264,-0.630255 35.36819,9.152511 59.62952,40.96431 70.28468,92.158211 3.74795,18.0075 5.36057,80.44329 2.72153,105.36883 -6.88364,65.01493 -31.83287,102.85216 -75.28112,114.16897 -12.50815,3.25796 -34.66589,3.34093 -47.68278,0.17858 z M 216,328.04735 c 19.90951,-6.43005 35.6255,-27.23126 41.55812,-55.00504 5.14304,-24.07729 7.2635,-67.9449 4.89102,-101.18417 -3.40139,-47.65466 -10.47467,-69.05748 -28.04226,-84.852257 -21.47364,-19.306642 -50.85858,-18.763028 -70.93387,1.312258 -10.9745,10.974495 -15.80865,21.895169 -21.75097,49.136779 -3.28055,15.03916 -3.83468,24.06633 -3.9067,63.64306 -0.12617,69.32152 5.0892,92.28608 25.62658,112.84038 16.39075,16.40427 32.26041,20.66441 52.55808,14.10899 z"/>
</g>
</g>
</svg>

<svg viewBox="0 0 400 400">
<g transform="scale(0.37, 0.37)">
<g transform="translate(400, 300)">
<path id="P00XDigitPath0D2" d="m 176.29871,358.09364 c -20.50105,-4.98061 -40.58042,-19.4385 -52.24756,-37.62016 -16.78007,-26.14946 -24.3114,-62.90261 -24.32214,-118.69282 -0.0129,-66.9279 9.87082,-104.020609 34.95564,-131.185517 11.48468,-12.437011 21.5433,-18.838934 37.30911,-23.745809 13.8716,-4.317323 38.89165,-4.60793 54.26264,-0.630255 35.36819,9.152511 59.62952,40.96431 70.28468,92.158211 3.74795,18.0075 5.36057,80.44329 2.72153,105.36883 -6.88364,65.01493 -31.83287,102.85216 -75.28112,114.16897 -12.50815,3.25796 -34.66589,3.34093 -47.68278,0.17858 z M 216,328.04735 c 19.90951,-6.43005 35.6255,-27.23126 41.55812,-55.00504 5.14304,-24.07729 7.2635,-67.9449 4.89102,-101.18417 -3.40139,-47.65466 -10.47467,-69.05748 -28.04226,-84.852257 -21.47364,-19.306642 -50.85858,-18.763028 -70.93387,1.312258 -10.9745,10.974495 -15.80865,21.895169 -21.75097,49.136779 -3.28055,15.03916 -3.83468,24.06633 -3.9067,63.64306 -0.12617,69.32152 5.0892,92.28608 25.62658,112.84038 16.39075,16.40427 32.26041,20.66441 52.55808,14.10899 z"/>
</g>
</g>
</svg>

<svg viewBox="0 0 400 400">
<g transform="scale(0.37, 0.37)">
<g transform="translate(625, 300)">
<path id="P00XDigitPath0D3" d="M 225.63619,322.89833 V 285.38365 H 157.1719 88.707623 l 0.0428,-18.2884 0.0428,-18.28841 L 161.153,146.11042 233.51278,43.414 h 14.81901 14.81901 v 103.16535 103.16536 h 21.57094 21.57094 v 17.81947 17.81947 H 284.72174 263.1508 v 37.51468 37.51467 h -18.75734 -18.75733 z m 0,-145.74451 c 0,-40.17103 -0.71425,-71.79506 -1.59928,-70.80895 -0.8796,0.98006 -20.84734,29.63659 -44.37274,63.68115 -23.52541,34.04458 -45.6678,65.9086 -49.20529,70.80896 l -6.43183,8.90973 h 50.80457 50.80457 z"/>
</g>
</g>
</svg>
</svg>
</svg>
</svg>
</svg>




<!--1-->
<svg x="3.6%" y="42%">

<svg width="18%" height="24%">
<rect class="box"/>
</svg> 

<svg width="18%" height="24%">
<g transform="scale(1, 1)">
<svg>
<line class="line" x1="50%" y1="75%" x2="50%" y2="35%"/>
</svg>
</g>
</svg> 

<svg class="button" x="4.5%" y="12%" width="9%" height="12%">
<g transform="scale(1, 1)">
<svg class="btnCoff">
<circle class="circle" cx="50%" cy="50%" r="40%"/>
</svg>
<svg x="13%" y="14%" viewBox="0 0 400 400">
<g transform='scale(0.65 0.65)' class="btnToff">
<path d="m 212.51385,236.61457 c 0,-68.08913 -0.49101,-123.79842 -1.09113,-123.79842 -0.60011,0 -4.60949,2.85695 -8.90973,6.34877 -15.76274,12.79946 -51.27108,33.48609 -64.55957,37.61144 -4.16868,1.29415 -4.22034,1.09606 -4.21593,-16.16673 l 0.004,-17.47694 10.15495,-5.30595 c 29.94812,-15.64787 65.50005,-45.926729 76.91039,-65.503008 L 226,43.413996 h 12.01405 12.01403 V 201.91351 360.413 h -18.75714 -18.75733 z">
</path>
</g>
</svg>
</g>
</svg>

</svg> 

<!--2-->
<svg x="8%" y="32.99999999999999%">

<svg width="18%" height="24%">
<rect class="box"/>
</svg>

<svg width="18%" height="24%">
<g transform="scale(1, 1)">
<svg>
<line class="line" x1="50%" y1="25%" x2="50%" y2="65%"/>
</svg>
</g>
</svg>

<svg class="button" x="4.5%" y="0%" width="9%" height="12%">
<g transform="scale(1, 1)">
<svg class="btnCoff">
<circle class="circle" cx="50%" cy="50%" r="40%"/>
</svg>
<svg x="17%" y="14%" viewBox="0 0 400 400">
<g transform='scale(0.65 0.65)' class="btnToff">
<path d="m 89.58885,354.9505 c 0,-9.08544 6.69,-27.66163 14.99891,-41.64758 10.46314,-17.61208 34.70133,-42.26454 77.8164,-79.14641 56.76554,-48.55888 74.07604,-71.84823 75.69209,-101.83532 0.68123,-12.64079 0.13245,-16.68621 -3.36721,-24.82137 -8.17409,-19.001199 -28.08368,-32.149009 -51.18595,-33.801968 -35.32602,-2.527564 -61.4689,17.237938 -67.12098,50.747268 l -2.17961,12.92219 -6.8452,-0.99309 c -3.76485,-0.5462 -12.12302,-1.53321 -18.57371,-2.19334 -13.38172,-1.36943 -13.19184,-0.9572 -8.8754,-19.26663 7.64833,-32.442768 27.80077,-55.331672 58.28661,-66.201255 15.8151,-5.638798 53.26342,-7.118703 70.21955,-2.774978 19.81582,5.076306 31.22816,11.324708 43.8938,24.032434 24.5068,24.58821 31.59249,58.249839 19.35698,91.958319 -9.63325,26.53929 -30.89598,50.38432 -93.27576,104.60387 -34.31549,29.82651 -56.29682,52.07913 -56.29682,56.99163 0,0.67875 35.04478,1.23408 77.87727,1.23408 h 77.87727 V 342.58568 360.413 H 193.73797 89.58885 Z"> </path>
</g>
</svg>
</g>
</svg>

</svg> 

<!--3-->
<svg x="13.3%" y="42%">

<svg width="18%" height="24%">
<rect class="box"/>
</svg>

<svg width="18%" height="24%">
<g transform="scale(1, 1)">
<svg>
<line class="line" x1="50%" y1="75%" x2="50%" y2="35%"/>
</svg>
</g>
</svg>

<svg class="button" x="4.5%" y="12%" width="9%" height="12%">
<g transform="scale(1, 1)">
<svg class="btnCoff">
<circle class="circle" cx="50%" cy="50%" r="40%"/>
</svg>
<svg x="18%" y="14%" viewBox="0 0 400 400">
<g transform='scale(0.65 0.65)' class="btnToff">
<path d="m 173.83716,359.45692 c -18.66018,-2.9667 -40.72659,-15.27459 -54.14712,-30.20144 -12.54222,-13.94997 -23.357256,-37.46217 -23.357256,-50.77931 0,-4.35004 1.69981,-4.85216 24.912116,-7.35898 l 11.07205,-1.19575 4.20831,13.47979 c 9.9409,31.84202 28.45628,46.88499 57.61067,46.80621 18.87657,-0.0509 30.75866,-4.4471 43.50372,-16.09538 12.13935,-11.09468 18.27787,-22.34007 21.12761,-38.70447 5.15035,-29.57556 -10.10458,-57.9459 -36.54341,-67.96155 -9.19277,-3.48242 -13.13951,-3.88251 -30.53819,-3.09563 l -19.981,0.90367 1.1639,-9.47298 c 2.47018,-20.10455 1.22861,-18.63983 17.85405,-21.06302 24.52854,-3.57506 42.00178,-13.6186 50.067,-28.77829 5.8138,-10.92782 5.80462,-35.68077 -0.0173,-46.625834 -9.49327,-17.847159 -29.24664,-27.706407 -52.21785,-26.062824 -25.94334,1.856235 -45.58888,20.568374 -50.80921,48.395168 -0.67414,3.59344 -2.17129,6.53523 -3.327,6.53729 -5.47229,0.009 -34.39481,-6.07992 -34.39481,-7.24191 0,-4.29405 6.71947,-22.935104 11.56967,-32.096404 11.06272,-20.895821 33.65768,-38.236081 56.75931,-43.559326 12.11645,-2.791958 38.2133,-2.39756 50.33891,0.760762 39.4862,10.284847 64.13386,39.653402 64.21488,76.514248 0.0551,25.09015 -12.34555,46.7623 -33.75292,58.98855 l -9.00459,5.14273 11.10661,4.04967 c 28.16696,10.2702 45.00697,33.86408 47.4156,66.43221 3.46337,46.82958 -29.08593,89.37712 -77.01763,100.67534 -10.80422,2.54672 -36.47932,3.40987 -47.81614,1.60746 z"> </path>
</g>
</svg>
</g>
</svg>

</svg>


<!--4-->
<svg x="18.4%" y="34%">

<svg width="18%" height="24%">
<rect class="box"/>
</svg>

<svg width="18%" height="24%">
<g transform="scale(1, 1)">
<svg>
<line class="line" x1="50%" y1="25%" x2="50%" y2="65%"/>
</svg>
</g>
</svg>

<svg class="button" x="4.5%" y="0%" width="9%" height="12%">
<g transform="scale(1, 1)">
<svg class="btnCoff">
<circle class="circle" cx="50%" cy="50%" r="40%"/>
</svg>
<svg x="17%" y="14%" viewBox="0 0 400 400">
<g transform='scale(0.65 0.65)' class="btnToff">
<path d="M 225.63619,322.89833 V 285.38365 H 157.1719 88.707623 l 0.0428,-18.2884 0.0428,-18.28841 L 161.153,146.11042 233.51278,43.414 h 14.81901 14.81901 v 103.16535 103.16536 h 21.57094 21.57094 v 17.81947 17.81947 H 284.72174 263.1508 v 37.51468 37.51467 h -18.75734 -18.75733 z m 0,-145.74451 c 0,-40.17103 -0.71425,-71.79506 -1.59928,-70.80895 -0.8796,0.98006 -20.84734,29.63659 -44.37274,63.68115 -23.52541,34.04458 -45.6678,65.9086 -49.20529,70.80896 l -6.43183,8.90973 h 50.80457 50.80457 z"> </path>
</g>
</svg>
</g>
</svg>

</svg>


<!--5-->
<svg x="32%" y="53%">

<svg width="18%" height="24%">
<rect class="box"/>
</svg>

<svg width="18%" height="24%">
<g transform="scale(1, 1)">
<svg>
<line class="line" x1="50%" y1="75%" x2="50%" y2="35%"/>
</svg>
</g>
</svg>

<svg class="button" x="4.5%" y="12%" width="9%" height="12%">
<g transform="scale(1, 1)">
<svg class="btnCoff">
<circle class="circle" cx="50%" cy="50%" r="40%"/>
</svg>
<svg x="17%" y="16%" viewBox="0 0 400 400">
<g transform='scale(0.65 0.65)' class="btnToff">
<path d="m 168.94319,357.50038 c -36.2159,-7.8427 -64.36078,-35.59431 -71.68144,-70.67989 -1.42482,-6.82864 -1.59203,-11.38468 -0.45645,-12.43693 0.98565,-0.91329 9.8143,-2.21966 19.61924,-2.90303 l 17.82716,-1.24248 2.32857,9.80273 c 4.89951,20.62576 18.05941,37.54708 34.99137,44.99271 12.37523,5.44186 33.42823,5.8781 47.57322,0.98575 20.31323,-7.02576 38.98274,-30.76157 43.58285,-55.40981 7.21847,-38.67801 -7.21922,-72.1779 -37.13926,-86.17451 -9.34397,-4.37112 -13.05416,-5.00017 -29.54284,-5.00896 -17.75081,-0.009 -19.59598,0.36511 -31.45832,6.38612 -6.93081,3.51789 -16.04953,10.13686 -20.26382,14.70884 l -7.66235,8.31267 -13.1038,-1.31597 c -7.20709,-0.72378 -14.97323,-1.85579 -17.25809,-2.51556 l -4.15428,-1.1996 15.07987,-80.19424 15.07988,-80.194223 h 78.34767 78.34768 v 17.82094 17.820939 h -63.50637 -63.50637 l -8.54021,42.676464 c -4.69711,23.47205 -8.29803,42.92708 -8.00205,43.23343 0.29599,0.30632 5.9152,-2.37331 12.48713,-5.95476 19.0005,-10.35454 30.96785,-13.01726 54.01241,-12.01769 27.57288,1.19598 44.85965,8.85699 64.09288,28.40418 30.29589,30.79042 36.80496,83.52891 15.62201,126.57444 -22.03333,44.77354 -70.69674,66.79346 -122.71629,55.52844 z"> </path>
</g>
</svg>
</g>
</svg>

</svg>


<!--6-->
<svg x="54%" y="26%">

<svg width="18%" height="24%">
<rect class="box"/>
</svg>

<svg width="18%" height="24%">
<g transform="scale(1, 1)">
<svg>
<line class="line" x1="50%" y1="25%" x2="50%" y2="65%"/>
</svg>
</g>
</svg>

<svg class="button" x="4.5%" y="0%" width="9%" height="12%">
<g transform="scale(1, 1)">
<svg class="btnCoff">
<circle class="circle" cx="50%" cy="50%" r="40%"/>
</svg>
<svg x="17%" y="16%" viewBox="0 0 400 400">
<g transform='scale(0.65 0.65)' class="btnToff">
<path d="M 175.74827,357.67012 C 142.20336,349.55065 114.73048,321.82093 103.73678,284.98535 94.986776,255.66754 92.383876,195.43915 98.168426,156.13951 108.93161,83.015553 146.47661,43.413998 205.03996,43.413998 c 28.92539,0 48.94394,7.634731 65.26368,24.890453 10.66124,11.272692 17.65882,24.334472 21.224,39.616999 2.36744,10.14833 2.3268,11.11238 -0.47419,11.24645 -1.68497,0.0806 -9.90685,0.71581 -18.27085,1.41148 l -15.20727,1.26484 -3.75124,-11.2725 c -8.23361,-24.741997 -25.69318,-37.615031 -51.05373,-37.642165 -29.2521,-0.03132 -54.43881,24.307968 -64.93809,62.753175 -3.79722,13.90426 -8.51143,56.71617 -6.47006,58.75755 0.60746,0.60746 2.28845,-0.55389 3.73553,-2.58077 6.76774,-9.47946 21.10372,-22.05107 30.70913,-26.92968 26.85579,-13.64012 54.21117,-14.30462 80.69121,-1.9601 14.61323,6.81243 35.33077,27.93071 42.5636,43.3869 24.0215,51.33277 3.65329,120.67674 -42.28341,143.95462 -19.53429,9.89877 -48.24689,12.87347 -71.03,7.35887 z m 49.00532,-32.22828 c 16.55359,-8.27804 28.82455,-23.88085 33.99036,-43.21955 3.35354,-12.55426 3.1571,-38.56899 -0.3839,-50.8385 -3.88745,-13.46998 -14.09248,-28.06589 -24.39327,-34.88884 -23.64225,-15.65998 -57.87381,-12.14364 -77.46254,7.95711 -12.72781,13.0605 -17.5936,25.10471 -18.46538,45.70711 -1.7053,40.29993 17.66026,70.86044 50.26078,79.31587 9.11219,2.3634 27.79648,0.2962 36.45395,-4.0332 z"> </path>
</g>
</svg>
</g>
</svg>

</svg>


<!--7-->
<svg x="77%" y="46%">

<svg width="18%" height="24%">
<rect class="box"/>
</svg>

<svg width="18%" height="24%">
<g transform="scale(1, 1)">
<svg>
<line class="line" x1="50%" y1="75%" x2="44%" y2="33%"/>
</svg>
</g>
</svg>

<svg class="button" x="4.5%" y="12%" width="9%" height="12%">
<g transform="scale(1, 1)">
<svg class="btnCoff">
<circle class="circle" cx="50%" cy="50%" r="40%"/>
</svg>
<svg x="18%" y="19%" viewBox="0 0 400 400">
<g transform='scale(0.63 0.63)' class="btnToff">
<path d="m 140.98091,351.34224 c 0.0168,-13.58986 4.97377,-43.867 11.57509,-70.70154 15.97709,-64.94729 46.39458,-128.96012 86.18299,-181.369964 L 253.59895,79.69701 H 174.36871 95.138484 V 61.555505 43.413996 H 199.21345 303.28843 v 14.364911 c 0,13.999171 -0.18734,14.570462 -7.36051,22.438187 -21.44234,23.518736 -48.59975,66.365736 -68.98288,108.836196 -27.15358,56.57743 -38.83097,96.98804 -46.89641,162.28895 l -1.12034,9.07076 h -18.97931 -18.97932 l 0.0112,-9.07076 z"> </path>
</g>
</svg>
</g>
</svg>

</svg>


<!--8-->
<svg x="79%" y="31.999999999999996%">

<svg width="18%" height="24%">
<rect class="box"/>
</svg>

<svg width="18%" height="24%">
<g transform="scale(1, 1)">
<svg>
<line class="line" x1="75%" y1="25%" x2="75%" y2="59%"/>
</svg>
</g>
</svg>

<svg class="button" x="9%" y="0%" width="9%" height="12%">
<g transform="scale(1, 1)">
<svg class="btnCoff">
<circle class="circle" cx="50%" cy="50%" r="40%"/>
</svg>
<svg x="17%" y="17%" viewBox="0 0 400 400">
<g transform='scale(0.65 0.65)' class="btnToff">
<path d="m 173.4216,357.85439 c -27.63349,-5.99601 -54.31184,-25.96967 -65.53331,-49.06377 -16.39434,-33.73997 -11.85335,-74.95142 10.94425,-99.32391 7.88321,-8.42778 27.42723,-20.39198 33.31117,-20.39198 5.9722,0 3.5309,-3.69646 -5.29228,-8.01324 -12.81432,-6.26945 -24.7581,-18.24441 -30.66046,-30.74043 -6.58446,-13.94015 -6.75386,-39.73309 -0.36777,-55.996616 8.07932,-20.57572 25.26277,-37.015714 47.69133,-45.627939 13.08974,-5.026254 44.20637,-6.92879 59.93125,-3.66432 25.11933,5.21475 47.56127,22.510469 58.74514,45.274139 5.9894,12.190856 6.32754,13.916606 6.32754,32.294726 0,17.49562 -0.50732,20.44867 -5.12985,29.86168 -5.90103,12.01641 -15.6452,21.53503 -28.94404,28.27407 -5.11134,2.59011 -9.29333,4.99651 -9.29333,5.34757 0,0.35106 5.26669,3.23107 11.70374,6.40001 29.55607,14.55042 45.50407,40.72397 45.50407,74.6804 0,44.39145 -30.60028,81.3791 -75.13257,90.81538 -15.53004,3.29077 -38.30456,3.23755 -53.80488,-0.12586 z m 55.88163,-32.86153 c 12.53903,-5.78235 24.37317,-17.69279 30.24784,-30.44282 4.02209,-8.72933 4.82246,-13.15937 4.89285,-27.08193 0.0766,-15.14942 -0.45648,-17.74381 -5.93131,-28.86667 -7.02578,-14.27385 -17.07083,-24.04705 -31.59403,-30.73898 -8.66934,-3.99461 -13.09671,-4.78931 -26.97996,-4.84284 -14.14303,-0.0545 -18.14843,0.65493 -26.97997,4.77881 -14.04218,6.55699 -24.47622,16.42104 -30.63424,28.96079 -4.57113,9.3083 -5.12985,12.45597 -5.12985,28.90016 0,16.01305 0.63228,19.79674 4.77992,28.60391 8.847,18.78589 20.27127,28.40134 40.47745,34.06862 13.76846,3.86167 34.42967,2.38917 46.8513,-3.33905 z M 215.95183,170.5606 c 11.65129,-3.23609 23.78493,-12.90241 29.86709,-23.79377 4.62031,-8.2736 5.59929,-12.12077 5.6352,-22.14495 0.0562,-15.67283 -3.16532,-24.653049 -12.46166,-34.738376 -11.99014,-13.00777 -19.53135,-16.12063 -39.05384,-16.12063 -19.01967,0 -26.5436,2.96248 -38.20223,15.04182 -8.89597,9.216987 -12.72887,18.768996 -12.79158,31.877916 -0.0774,16.18537 2.99158,24.66731 12.75305,35.24632 13.17907,14.28285 34.65599,20.07493 54.25397,14.63167 z"> </path>
</g>
</svg>
</g>
</svg>

</svg>


</svg>