<svg xmlns="http://www.w3.org/2000/svg" viewBox="0 0 512 368">
<rect width="512" height="368" id="P013WIImgRct4" fill="#fff"/>

<path d="m 273.93337,297.83527 c 34.9848,-2.44553 64.6639,-9.93056 92.7498,-23.39133 17.5733,-8.42234 25.1521,-15.69716 31.3941,-30.13481 4.6679,-10.79692 6.8218,-26.93699 4.7251,-35.40702 -3.1948,-12.90548 -13.7462,-26.3594 -28.1155,-35.84955 -10.6536,-7.03619 -18.6043,-9.80728 -42.897,-14.95109 -17.8232,-3.77393 -23.297,-5.38862 -29.9952,-8.84811 -6.4335,-3.32277 -10.129,-6.32197 -12.2504,-9.94212 -5.8128,-9.91946 1.109,-19.23779 17.0015,-22.88788 6.9501,-1.59626 20.5219,-1.60114 28.8284,-0.0104 6.7944,1.30117 10.6344,0.9795 18.8787,-1.58148 7.9935,-2.48307 14.4198,-7.14993 14.4198,-10.47189 0,-1.1843 -3.5187,-0.84333 -10.3023,0.99835 -7.2384,1.96515 -16.0758,2.63739 -37.6332,2.86266 -21.3762,0.22337 -22.8634,0.44367 -31.4775,4.66268 -8.5156,4.17075 -14.7349,12.03361 -14.8344,18.75446 -0.057,3.87385 2.0705,8.48103 6.4086,13.87605 7.5092,9.3386 23.0987,17.66305 53.1161,28.3627 13.3005,4.74093 18.2151,6.92685 23.2291,10.33176 9.3082,6.32109 14.0852,16.34601 13.1557,27.60796 -0.3996,4.84005 -4.0106,16.76359 -6.1014,20.14664 -1.9932,3.2251 -8.5225,8.94475 -15.2317,13.34305 -19.7471,12.94533 -44.1596,19.19568 -78.7228,20.15544 -29.3053,0.81376 -57.7737,-3.04117 -83.1891,-11.2647 -11.6007,-3.75357 -19.4422,-7.03028 -23.4904,-9.81578 -5.6574,-3.89288 -9.9104,-8.32487 -11.9349,-12.43726 -1.8006,-3.65747 -1.9581,-4.48942 -1.9377,-10.23448 0.027,-7.69709 0.8452,-11.53946 3.1776,-14.92797 3.9316,-5.71195 11.6833,-11.38372 20.4049,-14.92986 2.6286,-1.0688 3.552,-1.74885 3.3434,-2.46226 -1.7216,-5.88714 -5.3979,-26.21008 -5.3982,-29.84151 -2e-4,-2.1412 -0.2978,-2.14717 -7.3406,-0.14745 -12.5705,3.56925 -23.9773,8.64239 -32.2327,14.33539 -5.5228,3.80858 -15.4523,14.05882 -18.3622,18.95538 -7.1627,12.05266 -7.9254,21.67881 -2.9166,36.81096 4.0887,12.35242 10.2756,22.60431 19.4034,32.15216 18.0373,18.86734 50.5863,30.63241 97.5835,35.27226 11.5076,1.1361 36.3538,1.62136 46.5441,0.90903 0,0 0,2e-5 0,2e-5" style="fill:#808000;" />
<path d="m 271.87967,244.15255 c 12.5075,-1.31621 24.5464,-5.83338 29.9511,-11.23806 6.4432,-6.44325 9.3009,-16.62179 7.3614,-26.21993 -1.5732,-7.78533 -8.1298,-20.52891 -13.4805,-26.20095 -12.2568,-12.99286 -36.5644,-20.89958 -76.4526,-24.8684 -5.3388,-0.5312 -10.8974,-0.96583 -12.3525,-0.96583 0,0 -2.6455,0 -2.6455,0 0,0 0.5189,3.94206 0.5189,3.94206 0.9901,7.5218 2.4956,12.98236 4.9378,17.91031 3.9501,7.9707 3.7634,7.83491 11.1617,8.11555 12.4956,0.47401 30.541,4.38798 38.2563,8.29767 4.3315,2.19489 8.5646,6.3041 10.2864,9.98521 2.893,6.18513 1.7731,7.58845 -7.1439,8.95123 -6.7087,1.02529 -19.4885,0.8052 -23.6029,-0.40648 -3.0546,-0.89957 -8.3906,-4.41912 -16.0669,-10.59752 -6.8755,-5.53384 -10.293,-9.58507 -14.2073,-16.8418 -5.2971,-9.82045 -7.339,-16.82905 -9.6912,-33.26284 -2.8779,-20.10654 -8.5803,-35.24435 -17.8447,-47.37119 -5.2022,-6.809506 -14.5314,-13.543246 -18.9142,-13.652076 -2.8492,-0.0708 -1.3254,-1.23623 1.8584,-1.42142 0,0 3.2776,-0.19065 3.2776,-0.19065 0,0 -2.0115,-2.28559 -2.0115,-2.28559 -1.1063,-1.25707 -3.5018,-2.92668 -5.3232,-3.71025 -2.905,-1.2497 -3.9706,-1.37626 -8.6772,-1.03057 -11.4756,0.84288 -23.1512,5.13349 -31.7569,11.67028 -2.3738,1.80311 -5.6808,3.96996 -7.3489,4.81523 -3.2338,1.63871 -5.6802,4.214226 -5.6802,5.980096 0,1.671 5.9593,6.29718 10.6511,8.26848 7.1185,2.99088 18.6897,4.9911 28.8488,4.98686 11.4176,-0.005 15.082,-0.63369 18.7481,-3.21778 3.6487,-2.57188 4.5367,-1.94503 1.4151,0.99902 -1.5961,1.50523 -3.7665,2.64165 -6.812,3.56669 -4.0658,1.23495 -5.4158,1.3252 -14.942,0.9989 -16.3592,-0.56036 -29.3777,-3.34853 -33.6384,-7.20437 -1.3694,-1.23933 -2.2546,-0.6093 -1.0995,0.78256 4.134,4.98116 20.2851,8.68652 38.1967,8.76305 0,0 10.7776,0.0461 10.7776,0.0461 0,0 6.0063,-2.97967 6.0063,-2.97967 6.2308,-3.09098 10.2018,-6.5762 10.9671,-9.62541 0.4557,-1.81584 -1.3111,-4.49075 -5.9585,-9.020676 -4.8128,-4.69114 -1.1896,-4.49759 4.1866,0.223636 7.9395,6.97216 6.9564,12.17156 -3.8044,20.12231 0,0 -2.3686,1.7501 -2.3686,1.7501 0,0 2.0641,2.28777 2.0641,2.28777 6.4965,7.20033 8.9299,15.65009 13.0527,45.32427 3.0964,22.28712 6.4791,33.36253 14.2104,46.52708 8.3206,14.16797 14.8434,19.82537 27.9481,24.23999 10.2059,3.43815 32.9482,5.25065 47.1412,3.75706 0,0 0,-5e-5 0,-5e-5" style="fill:#808000;" />
</svg>
