<svg xmlns="http://www.w3.org/2000/svg" viewBox="0 0 512 384">
<rect width="512" height="384" fill="none"/>
<path d="m 303.57878,339.23346 c -0.96118,-0.84368 -1.77329,-2.82095 -2.48655,-6.05386 -0.19949,-0.90435 -0.80107,-2.58598 -1.33684,-3.73696 -0.53575,-1.15099 -1.12969,-2.8271 -1.31982,-3.72469 -0.19015,-0.89763 -0.53976,-1.84651 -0.77699,-2.10864 -0.23722,-0.26213 -0.68823,-1.78259 -1.00225,-3.3788 -0.31399,-1.59622 -0.73086,-3.0948 -0.92632,-3.33038 -0.41839,-0.50414 -1.05625,-3.17702 -1.35053,-5.65924 -0.1514,-1.27607 -0.40653,-1.95707 -0.92944,-2.47998 -0.46117,-0.4612 -0.72123,-1.06598 -0.72188,-1.67889 0,-0.52692 -0.34575,-2.1688 -0.76707,-3.64847 -0.42135,-1.47984 -0.8747,-3.44428 -1.00754,-4.36537 -0.28072,-1.94711 -0.86435,-3.8422 -1.3338,-4.33128 -2.23233,-2.32484 -2.46107,-2.91929 -2.65834,-6.90888 -0.11858,-2.39812 -0.33923,-3.9543 -0.64429,-4.54415 -0.26188,-0.50642 -0.46475,-1.6523 -0.4658,-2.63099 0,-0.9536 -0.19727,-2.10858 -0.43619,-2.56658 -0.31419,-0.60234 -0.3848,-1.36322 -0.25526,-2.7504 0.10276,-1.10036 0.0212,-2.72008 -0.19135,-3.80032 -0.2037,-1.03548 -0.42949,-2.892 -0.50179,-4.1256 -0.0723,-1.23363 -0.18165,-3.07746 -0.24299,-4.09721 -0.0613,-1.01989 -0.21991,-2.02886 -0.35232,-2.24216 -0.1324,-0.21331 -0.33444,-1.86768 -0.44894,-3.67628 -0.11442,-1.80869 -0.29414,-3.62484 -0.39923,-4.03591 -0.10509,-0.41107 -0.24728,-1.72416 -0.31599,-2.91799 -0.0688,-1.19383 -0.24832,-2.4046 -0.39912,-2.69061 -0.91974,-1.7446 -1.30543,-3.74413 -1.40178,-7.26794 -0.16005,-5.85147 -0.72531,-12.52269 -1.12144,-13.2345 -0.19761,-0.35504 -0.93107,-1.27881 -1.62988,-2.05279 -0.6988,-0.774 -1.27056,-1.55995 -1.27056,-1.74658 0,-0.18665 -0.24231,-0.64741 -0.53846,-1.0239 -0.45153,-0.57403 -0.62044,-0.62459 -1.04634,-0.31316 -0.27935,0.20427 -0.5079,0.52472 -0.5079,0.71214 0,0.42734 -0.49794,0.44541 -0.75624,0.0275 -0.10643,-0.17231 -0.4171,-0.28936 -0.69029,-0.26015 -1.21281,0.12974 -2.45865,-0.46593 -3.63651,-1.73875 -1.1632,-1.25697 -1.23716,-1.43746 -1.05873,-2.58392 0.1056,-0.67788 0.23682,-1.83793 0.29176,-2.57785 0.055,-0.73992 0.25017,-1.81527 0.43384,-2.38967 0.18365,-0.57442 0.33395,-1.41997 0.33395,-1.87901 0,-0.77101 -0.0513,-0.80765 -0.67266,-0.48095 -0.36996,0.19453 -1.0384,0.73171 -1.48543,1.19381 -1.38551,1.43224 -4.38329,2.64924 -6.54176,2.65573 -1.16435,0.003 -2.95943,0.53022 -2.95943,0.86841 0,0.11475 -0.7063,0.95265 -1.56953,1.8619 -1.52933,1.61083 -3.65176,3.21796 -4.85805,3.67865 -0.91673,0.35015 -4.30408,0.463 -4.49751,0.14989 -0.0943,-0.15256 -0.62648,-0.27755 -1.18257,-0.27755 -0.55608,0 -1.10259,-0.14806 -1.21444,-0.32907 -0.11476,-0.18561 -0.57349,-0.25506 -1.0524,-0.15921 -0.46697,0.0934 -0.92945,0.0398 -1.02775,-0.11942 -0.0983,-0.15905 -0.44285,-0.28919 -0.76567,-0.28919 -0.70849,0 -3.01467,-2.07033 -4.15518,-3.73008 -1.14142,-1.66114 -1.36249,-3.28075 -0.74719,-5.47359 0.45741,-1.63015 0.45944,-1.85437 0.0242,-2.69572 -0.69645,-1.34675 -0.96625,-1.39222 -2.24612,-0.3786 -0.63734,0.50479 -1.49876,0.9178 -1.91424,0.9178 -0.41549,0 -1.8719,0.47086 -3.23652,1.04635 -1.36455,0.57548 -2.82139,1.05091 -3.23739,1.05651 -0.41606,0.007 -1.29458,0.27005 -1.95227,0.58774 -0.65771,0.31771 -1.4649,0.58611 -1.79373,0.59649 -0.32887,0.01 -1.53963,0.29301 -2.69063,0.6281 -1.15097,0.33509 -2.73895,0.72781 -3.52887,0.87268 -2.53078,0.46426 -5.60095,1.81356 -9.62521,4.23055 -0.98656,0.59246 -2.39914,1.39776 -3.13904,1.78958 -1.30946,0.69334 -1.35113,0.75999 -1.56393,2.50086 -0.24306,1.98844 0.265,8.83297 0.74267,10.00548 0.3272,0.80304 0.60542,5.62277 0.53154,9.20905 -0.027,1.30333 0.15838,2.86526 0.46072,3.88643 0.77909,2.63081 0.98317,3.65055 0.73066,3.65055 -0.12725,0 -0.3952,0.39588 -0.59561,0.87975 -0.40085,0.96773 -0.23523,2.55993 0.50828,4.88583 0.30032,0.9396 0.38748,1.86332 0.25387,2.69063 -0.32095,1.98731 -0.18428,4.00511 0.39805,5.87629 0.47128,1.51418 0.48587,1.82614 0.11825,2.52767 -0.35981,0.68674 -0.35976,1.10635 0,2.95676 0.2308,1.18605 0.46213,2.29101 0.51403,2.45542 0.052,0.16439 -0.015,0.82705 -0.14856,1.47243 -0.26759,1.29284 0.17453,3.5223 1.03759,5.23204 0.49598,0.98258 0.49338,1.06448 -0.0641,2.00934 -0.65949,1.11773 -1.50797,4.59138 -1.44856,5.9301 0.0218,0.49062 0.37047,1.61479 0.77489,2.49818 0.40443,0.88338 0.65783,1.73152 0.56315,1.88476 -0.25498,0.41256 0.4336,3.20332 1.16055,4.70378 0.34882,0.71992 0.65468,1.9548 0.67973,2.74415 0.0272,0.8586 0.30263,1.87096 0.68548,2.51985 0.35199,0.59653 0.64045,1.37962 0.64109,1.7402 0,0.36054 0.27327,1.10196 0.6059,1.64752 0.34593,0.56741 0.57658,1.41054 0.53891,1.96994 -0.0371,0.5519 0.19746,1.42423 0.53858,2.00234 0.33243,0.56345 0.6937,1.47082 0.80281,2.01641 0.10909,0.54559 0.47349,1.37831 0.8097,1.85049 0.33621,0.47216 0.76437,1.29762 0.95149,1.83433 0.18708,0.53672 0.78039,1.55258 1.31842,2.25745 0.74238,0.97254 0.96742,1.55311 0.93335,2.40765 -0.0361,0.9047 0.21681,1.47724 1.28651,2.91276 0.73225,0.98271 1.46591,1.93999 1.63034,2.12732 0.16439,0.18729 0.56803,0.71364 0.89688,1.1696 0.32885,0.45597 0.96442,1.29221 1.41239,1.85835 0.84296,1.06534 1.25445,2.46753 1.07992,3.68015 -0.0933,0.64728 -0.22084,0.69293 -1.71342,0.61262 -2.01615,-0.10842 -2.51168,-0.4136 -3.70226,-2.28001 -0.52449,-0.82213 -1.05853,-1.62932 -1.18672,-1.79375 -0.12824,-0.16438 -0.92778,-1.37045 -1.77681,-2.68003 -0.84907,-1.30958 -2.05749,-3.05831 -2.68536,-3.88643 -0.6279,-0.82796 -1.43014,-2.37027 -1.78279,-3.42755 -0.35264,-1.05709 -1.22169,-3.1728 -1.9312,-4.70138 -0.70952,-1.52868 -1.72231,-4.16148 -2.25067,-5.85087 -0.52833,-1.68929 -1.20985,-3.43262 -1.51444,-3.87417 -0.30459,-0.44154 -0.6978,-1.58505 -0.8738,-2.54113 -0.17599,-0.95613 -0.42021,-1.87291 -0.54267,-2.03734 -0.34337,-0.46109 -1.42175,-3.57133 -2.38391,-6.87599 -1.03261,-3.54653 -2.23783,-6.62727 -2.86295,-7.31786 -0.28992,-0.32033 -0.49878,-1.34103 -0.58683,-2.86784 -0.0751,-1.30375 -0.19488,-2.70678 -0.26601,-3.1178 -0.12308,-0.71119 -0.29695,-5.89034 -0.66765,-19.88062 -0.23525,-8.87812 -0.97595,-17.45487 -1.56913,-18.16968 -0.18913,-0.22788 -0.56543,-1.72569 -0.83622,-3.32858 -0.42879,-2.53796 -0.44748,-3.55728 -0.14473,-7.89634 0.37947,-5.4395 0.35502,-5.32112 2.46869,-11.97888 1.37944,-4.34504 1.53974,-4.67748 2.87379,-5.95642 1.84524,-1.76908 8.46315,-6.22365 10.37768,-6.98539 0.82424,-0.32796 2.17129,-0.86859 2.99343,-1.20142 0.82215,-0.33283 1.89838,-0.6757 2.39166,-0.76192 0.49328,-0.0863 1.16223,-0.34009 1.48656,-0.56416 0.3243,-0.22409 1.2401,-0.40743 2.03503,-0.40743 1.29547,0 3.48434,-0.3777 4.6996,-0.81094 0.24664,-0.0879 1.96669,-0.14706 3.82246,-0.13157 3.33396,0.0281 3.37731,0.0195 3.65773,-0.71815 0.15605,-0.41059 0.82392,-1.2603 1.48408,-1.8883 1.04081,-0.99007 1.20031,-1.31397 1.20031,-2.43745 0,-0.71259 -0.15839,-1.73352 -0.3519,-2.26876 -0.33822,-0.93528 -0.38267,-0.95721 -1.14321,-0.56391 -1.07771,0.55728 -4.75819,1.02089 -5.67868,0.71532 -0.41169,-0.13673 -0.9503,-0.22186 -1.19693,-0.18936 -0.76542,0.10092 -5.81082,-0.73138 -6.16808,-1.01744 -0.18618,-0.14906 -1.66602,-0.52667 -3.28852,-0.83923 -1.62246,-0.31256 -4.16087,-0.96519 -5.64071,-1.4503 -5.19646,-1.70346 -7.4485,-2.09977 -11.48352,-2.0209 -3.45204,0.0676 -3.74892,0.11992 -4.26013,0.75128 -0.30227,0.37328 -0.54958,0.83359 -0.54958,1.02288 0,0.18933 -0.32851,1.37928 -0.73001,2.64434 -0.40152,1.2651 -0.86464,3.27147 -1.02919,4.45864 -0.17701,1.27735 -0.53953,2.48382 -0.88796,2.95508 -0.32386,0.43804 -0.75839,1.38962 -0.96563,2.11462 -0.20723,0.72503 -0.54258,1.52001 -0.74518,1.76665 -0.53558,0.65197 -2.05993,3.79705 -2.6805,5.53069 -0.29432,0.82212 -0.76635,1.76383 -1.04895,2.09268 -0.28261,0.32887 -0.87827,1.67417 -1.32371,2.98957 -0.44542,1.31541 -1.05548,2.66071 -1.35563,2.98956 -0.58998,0.64636 -1.42342,2.57835 -1.57962,3.66163 -0.0533,0.36965 -0.45008,1.0423 -0.88175,1.49478 -0.97942,1.02671 -1.4207,2.16746 -1.4207,3.67268 0,0.80734 -0.11525,1.1248 -0.3737,1.03003 -0.20552,-0.0753 -0.51563,-0.0375 -0.68909,0.0841 -0.40562,0.28431 -1.32886,4.16176 -1.32886,5.58091 0,1.00731 -0.0461,1.06411 -0.61681,0.75873 -0.54291,-0.29056 -0.81502,-0.12175 -2.27189,1.40952 -1.89687,1.99374 -2.19356,2.59939 -2.19356,4.47777 0,1.07896 -0.11542,1.38401 -0.56838,1.50246 -0.35949,0.0939 -0.62297,0.49573 -0.7169,1.0931 -0.61396,3.90409 -0.92201,5.1585 -1.32338,5.38871 -0.36664,0.21021 -0.41331,0.64502 -0.24856,2.3169 0.16685,1.6931 0.12574,2.05814 -0.23133,2.05814 -0.62164,0 -0.79735,1.05765 -0.54625,3.28851 0.25031,2.22419 0.22379,3.91215 -0.0833,5.3011 -0.14756,0.66781 -0.008,1.62049 0.45481,3.08404 0.52712,1.67021 0.60996,2.35055 0.39202,3.21916 -0.27046,1.07775 -0.30422,1.09948 -1.58037,1.01687 -2.52096,-0.16321 -2.75196,-0.51528 -3.67149,-5.59587 -0.68449,-3.78239 -0.58709,-8.98424 0.24628,-13.15407 0.26291,-1.31543 0.51535,-2.92979 0.56103,-3.58748 0.0456,-0.65771 0.55922,-3.55011 1.14126,-6.42758 0.58204,-2.87745 1.13651,-6.1573 1.23217,-7.28886 0.10909,-1.29097 0.38111,-2.34868 0.73023,-2.84008 0.8872,-1.24859 3.91246,-7.25626 3.91812,-7.78034 0.005,-0.42524 1.233,-2.6687 3.37165,-6.15672 2.17398,-3.54591 6.14415,-11.80727 6.46522,-13.45301 1.03981,-5.33189 1.94792,-8.57797 2.71809,-9.71609 0.27815,-0.41107 1.07936,-1.85831 1.78044,-3.21617 1.44686,-2.8022 2.16728,-3.78749 5.07987,-6.94836 1.1363,-1.23318 2.31021,-2.5297 2.6087,-2.88117 0.62039,-0.73052 2.29029,-1.36047 2.94274,-1.11013 0.24201,0.0928 0.44,0.02 0.44,-0.16205 0,-0.42667 11.79353,-0.45866 13.03481,-0.0353 0.47668,0.16255 1.74119,0.42598 2.80995,0.58539 4.96926,0.74111 6.19378,1.03896 8.17436,1.98815 1.16755,0.55953 2.48009,1.01732 2.91678,1.01732 0.43669,0 0.96671,0.20813 1.17782,0.46253 0.21112,0.25439 1.116,0.80889 2.01084,1.23222 1.67329,0.79158 3.48016,0.83404 4.82666,0.11342 1.13389,-0.60683 1.74796,-2.72042 2.62325,-9.0285 0.1908,-1.37486 0.0691,-1.41825 -4.58271,-1.63369 -1.94934,-0.0903 -3.94771,-0.2118 -4.44099,-0.27006 -0.49328,-0.0583 -2.28078,-0.25175 -3.97225,-0.43006 -1.69142,-0.17825 -3.9785,-0.51246 -5.08226,-0.74263 -1.10382,-0.23017 -3.15039,-0.51468 -4.54802,-0.63227 -2.71211,-0.22812 -3.68374,-0.48457 -4.34622,-1.14724 -0.44766,-0.44766 -3.7244,-1.21929 -6.47929,-1.52577 -0.93908,-0.10443 -2.48618,-0.56612 -3.438,-1.02589 -1.87694,-0.90663 -4.2404,-1.63925 -6.36449,-1.9729 -0.7399,-0.11625 -1.68163,-0.37913 -2.09268,-0.58425 -0.41108,-0.20513 -1.43769,-0.53513 -2.2814,-0.73334 -0.98528,-0.23148 -1.83404,-0.67358 -2.37285,-1.23595 -0.46135,-0.48155 -0.93738,-0.87558 -1.05781,-0.87558 -0.47013,0 -7.23265,-3.33545 -7.69006,-3.79285 -0.26692,-0.26695 -1.17774,-0.79155 -2.024,-1.16582 -1.91725,-0.84789 -2.8793,-1.98159 -2.60898,-3.07446 0.41869,-1.69257 2.42675,-2.05168 5.08974,-0.9102 0.73467,0.31491 1.6012,0.57256 1.92567,0.57256 0.32442,0 1.40279,0.40331 2.39633,0.89629 0.99356,0.49295 1.9169,0.82802 2.05185,0.74465 0.1349,-0.0834 0.47611,0.0791 0.75811,0.36111 0.53403,0.53401 1.88896,0.62283 3.63293,0.23811 1.08317,-0.23898 3.62095,0.43137 5.76806,1.52372 4.58868,2.33428 6.15402,2.9125 8.18094,3.02185 1.12884,0.0608 2.4338,0.30788 2.89997,0.54891 0.4662,0.2411 1.15697,0.4431 1.53508,0.44893 0.37812,0.007 1.00958,0.18908 1.40318,0.40722 0.52614,0.29161 1.00122,0.32034 1.79375,0.10859 1.44834,-0.38705 3.39375,-0.29557 5.557,0.2614 2.3765,0.61183 6.3014,1.34051 12.56155,2.33218 0.65771,0.10409 1.39763,0.0543 1.64427,-0.11092 0.36326,-0.24326 -0.29213,-1.02583 -3.45146,-4.12112 -3.03799,-2.97626 -4.11693,-4.25027 -4.88165,-5.76388 -0.53995,-1.06877 -1.16762,-2.14971 -1.39479,-2.40208 -0.70183,-0.77969 -2.1599,-3.69928 -2.5255,-5.05715 -0.61621,-2.28848 -1.65295,-3.44309 -5.12471,-5.70678 -3.44009,-2.24309 -5.94056,-4.31842 -5.94056,-4.93038 0,-0.20114 -0.41574,-1.69392 -0.92384,-3.31723 -0.84739,-2.70737 -0.92557,-3.31034 -0.94479,-7.28646 -0.0222,-4.59855 0.35288,-7.15644 1.33224,-9.08441 0.5477,-1.07817 0.59076,-1.80027 0.59756,-10.01503 0.003,-4.869109 -0.007,-9.189319 -0.0237,-9.600389 -0.017,-0.41107 0.0375,-1.62184 0.12075,-2.69061 0.59579,-7.64044 0.77762,-9.003677 1.4401,-10.797708 0.3875,-1.049398 0.87755,-2.749446 1.08895,-3.777926 0.21798,-1.060207 0.67965,-2.213464 1.06629,-2.663425 0.37504,-0.43647 0.77218,-1.276668 0.8825,-1.867111 0.11025,-0.590427 0.30553,-1.208051 0.4338,-1.372467 0.12825,-0.164382 0.40483,-0.837083 0.61455,-1.494795 0.20968,-0.657696 0.82522,-2.071482 1.3679,-3.141732 0.55489,-1.094482 1.01935,-2.500708 1.06142,-3.21378 0.0485,-0.821078 0.21555,-1.267808 0.47416,-1.267808 0.21965,0 0.47843,-0.235431 0.57502,-0.523175 0.22661,-0.675017 2.60412,-6.025165 3.60752,-8.117865 0.42598,-0.888564 0.99372,-1.834736 1.26159,-2.102627 0.2679,-0.267891 0.72452,-0.953467 1.01478,-1.523475 0.29022,-0.570058 0.90966,-1.656463 1.37658,-2.41422 0.46686,-0.757806 0.94825,-1.699515 1.06971,-2.0927 0.48139,-1.55805 2.22744,-3.501674 3.62546,-4.035608 1.88363,-0.719384 2.38162,-0.372866 2.2526,1.56746 -0.0844,1.268341 -1.43751,4.34502 -2.15163,4.892111 -0.10725,0.08227 -0.58056,0.822127 -1.05173,1.644272 -0.47114,0.822127 -0.98352,1.582066 -1.13863,1.688739 -0.15506,0.106591 -0.20867,0.740636 -0.11908,1.408741 0.13174,0.981713 0.008,1.460736 -0.64724,2.496644 -0.4456,0.705028 -1.01838,1.685458 -1.2729,2.178738 -0.25449,0.49328 -1.08721,2.06527 -1.85048,3.493313 -0.76323,1.428043 -1.38772,2.793598 -1.38772,3.034409 0,0.240927 -0.53811,1.608347 -1.19582,3.038589 -0.65772,1.430358 -1.19583,2.795563 -1.19583,3.033809 0,0.238213 -0.26906,0.989991 -0.59791,1.670653 -0.32886,0.680645 -0.59792,1.548607 -0.59792,1.928784 0,0.380178 -0.12074,0.691255 -0.26827,0.691255 -0.14756,0 -0.4231,0.889063 -0.61233,1.975734 -0.18925,1.086654 -0.55367,2.295621 -0.80985,2.686641 -0.68634,1.047466 -0.11242,4.70676 0.83054,5.295705 0.6913,0.431755 0.70367,0.860365 0.0603,2.089835 -0.27541,0.52622 -0.7958,1.99442 -1.15646,3.26281 -0.63368,2.22821 -0.66426,3.64607 -0.0864,4.00332 0.16638,0.10276 0.1694,0.31086 0.008,0.51874 -0.68291,0.87686 -1.03343,3.72382 -1.12852,9.166319 -0.056,3.20631 -0.17609,6.36777 -0.26683,7.02548 -0.0908,0.65769 -0.0381,1.63268 0.11692,2.16666 0.4603,1.58578 -0.19381,6.68496 -1.2347,9.62489 -1.48655,4.19885 -1.48667,4.19766 0.60994,5.49184 0.9865,0.60888 2.1889,1.18614 2.67201,1.28277 0.8717,0.17432 0.88105,0.16138 1.23628,-1.72132 0.72088,-3.82066 1.8587,-6.75461 5.72083,-14.75201 0.95283,-1.9731 2.0507,-4.05832 2.43972,-4.63381 0.38904,-0.57549 1.15857,-1.85354 1.71009,-2.8401 0.55155,-0.98656 1.09903,-1.861 1.21663,-1.94321 0.11758,-0.0823 0.59111,-0.75149 1.05216,-1.48728 0.46105,-0.73579 1.35558,-1.992269 1.98791,-2.792199 0.63228,-0.79991 1.14961,-1.77693 1.14961,-2.17119 0,-0.50561 0.33674,-0.92937 1.14281,-1.43822 0.62855,-0.39679 2.14203,-1.75973 3.36326,-3.02873 5.16746,-5.36985 6.4225,-6.50829 9.34807,-8.48259 3.37193,-2.27527 6.72772,-3.619473 9.03627,-3.619473 0.69247,0 2.37302,-0.211315 3.73456,-0.469597 4.4395,-0.842163 9.01354,-0.190613 12.8082,1.824376 1.07398,0.570291 2.12934,1.036874 2.34529,1.036874 0.21593,0 0.81205,0.477741 1.32473,1.061622 0.51265,0.583898 1.29344,1.248468 1.73502,1.476828 1.13176,0.58526 6.20246,5.63233 7.81204,7.77554 1.75579,2.33809 2.32025,3.28165 4.11303,6.87601 3.52231,7.061049 4.0709,8.647619 5.68676,16.442609 1.72911,8.34149 2.1928,16.15889 1.22354,20.628 -0.6942,3.20093 -0.7222,3.73696 -0.19512,3.73696 0.53928,0 2.43933,-1.87381 4.12619,-4.0694 0.95275,-1.24001 1.69075,-1.8912 2.36122,-2.08346 1.38066,-0.396 2.00758,-1.42178 2.51865,-4.12141 0.24487,-1.29341 0.56098,-2.50417 0.70251,-2.69061 0.14157,-0.18641 0.41699,-1.08229 0.61211,-1.99085 0.19513,-0.90855 0.82275,-2.42875 1.3947,-3.3782 0.57196,-0.94945 1.03992,-1.82884 1.03992,-1.95416 0,-0.12525 0.67349,-2.2593 1.49663,-4.74206 0.82315,-2.48285 1.58208,-5.36685 1.68648,-6.40902 0.10442,-1.04204 0.42712,-2.36864 0.71708,-2.94802 0.28994,-0.57934 0.61599,-1.72285 0.72448,-2.54113 0.10843,-0.81823 0.26408,-1.9586 0.34572,-2.53408 0.45338,-3.196159 0.74605,-5.563899 1.03471,-8.370799 0.17754,-1.72647 0.44615,-3.267 0.59684,-3.42305 0.15073,-0.15622 0.27407,-0.57181 0.27407,-0.92357 0,-0.35175 0.47085,-1.06802 1.04633,-1.5917 0.57551,-0.52369 1.06316,-1.21796 1.08373,-1.54282 0.0206,-0.32489 0.0625,-0.69156 0.0931,-0.814903 0.0696,-0.279483 0.52091,-4.889429 0.63662,-6.502306 0.0471,-0.657696 0.1703,-5.420666 0.27356,-10.584548 0.13024,-6.511584 0.30155,-9.626401 0.55908,-10.164532 0.24759,-0.517313 0.30178,-1.323501 0.16272,-2.419982 -0.56891,-4.484953 0.12374,-9.865563 1.26997,-9.865563 1.17238,0 2.94579,0.949536 2.99196,1.601985 0.0989,1.402078 -0.0863,9.660477 -0.23407,10.430891 -0.11475,0.598571 -0.0368,0.822127 0.28638,0.822127 0.37561,0 0.41597,0.471879 0.26221,3.064304 -0.0999,1.685376 -0.15722,3.568942 -0.12724,4.185401 0.10775,2.219176 0.11741,2.815465 0.10059,6.203337 -0.01,1.890895 -0.003,3.908866 0.015,4.484353 0.0177,0.575488 0.005,3.611096 -0.0271,6.745649 -0.0408,3.909747 0.053,5.946257 0.2988,6.485567 0.30165,0.66206 0.23746,1.17882 -0.40619,3.26939 -0.97229,3.15787 -1.76098,6.35551 -1.6526,6.7005 0.0461,0.1469 -0.19746,1.07413 -0.5413,2.060689 -1.84578,5.29601 -2.54133,7.61951 -2.36587,7.9035 0.10742,0.17395 -0.13191,1.09016 -0.53189,2.03608 -1.23513,2.92064 -2.6418,8.92535 -2.714,11.58546 -0.0668,2.46453 -2.12636,8.33461 -4.98211,14.20044 -0.76046,1.56205 -1.47999,3.23562 -1.59894,3.71872 -0.22527,0.91516 -2.40443,3.22364 -3.98659,4.22306 -0.50366,0.31818 -1.97126,1.39485 -3.26132,2.39258 -3.93486,3.04307 -8.70173,5.86851 -10.55645,6.25655 -0.91015,0.19044 -1.92385,0.49199 -2.2527,0.67008 -1.05456,0.57113 -8.21771,8.18156 -8.40576,8.93044 -0.24436,0.97361 0.352,1.61156 1.5065,1.61156 0.5225,0 1.0999,0.14989 1.2831,0.33314 0.74802,0.748 5.53577,-0.9314 10.20309,-3.5791 3.07416,-1.74387 3.9519,-1.99694 8.41742,-2.42729 1.56204,-0.15056 3.51273,-0.46998 4.33486,-0.70989 2.20408,-0.64316 4.24817,-0.87488 4.47539,-0.50737 0.38173,0.61764 2.48707,0.2933 5.70498,-0.87884 1.79999,-0.65568 3.40721,-1.19391 3.57162,-1.19606 0.16438,-0.003 1.15186,-0.40739 2.1943,-0.90056 1.04243,-0.49313 2.12749,-0.89662 2.41122,-0.89662 0.28378,0 1.96867,-0.47086 3.74413,-1.04635 3.48853,-1.13074 4.51097,-1.25 5.33758,-0.62275 0.37856,0.28714 0.8557,0.33464 1.64425,0.16371 0.61105,-0.1324 1.91814,-0.41542 2.9047,-0.62881 0.98656,-0.21337 1.95239,-0.39394 2.14633,-0.40123 0.19393,-0.008 0.45178,-0.11242 0.57301,-0.23367 0.12124,-0.12124 0.56992,-0.22042 0.99713,-0.22042 0.42718,0 1.27874,-0.26906 1.89231,-0.59791 0.61355,-0.32885 1.48602,-0.59865 1.9388,-0.59959 0.45276,0 1.36132,-0.15122 2.01903,-0.33387 0.6577,-0.18272 2.27206,-0.50422 3.58748,-0.71442 1.31539,-0.21022 3.73696,-0.73704 5.38121,-1.17075 2.85294,-0.75249 4.96118,-0.84615 6.76569,-0.30065 0.61974,0.18738 0.97683,1.86814 0.51513,2.42448 -0.66249,0.79823 -3.41169,1.90027 -5.56178,2.2294 -1.1921,0.18252 -2.16745,0.42751 -2.16745,0.54449 0,0.11692 -0.29772,0.1907 -0.66161,0.16389 -0.36389,-0.027 -0.99325,0.12324 -1.39861,0.33363 -0.40536,0.21029 -0.85086,0.31197 -0.99006,0.22595 -0.13923,-0.0859 -0.21608,0.0133 -0.17091,0.22132 0.0495,0.22706 -0.63325,0.60594 -1.71159,0.94996 -0.98654,0.31475 -2.60092,0.84094 -3.58746,1.16931 -0.98656,0.32838 -2.71341,0.78455 -3.83742,1.01371 -1.12401,0.22918 -2.16611,0.49234 -2.31577,0.58484 -0.14973,0.0924 -0.57534,0.22546 -0.94594,0.29544 -3.38628,0.63943 -4.9854,1.18031 -5.31604,1.79798 -0.46072,0.8609 -1.22249,1.19123 -4.07926,1.7689 -1.28688,0.26023 -2.54155,0.55552 -2.78819,0.65623 -0.24664,0.10076 -0.65023,0.21155 -0.89687,0.24626 -2.21555,0.31202 -7.69754,1.4845 -7.97705,1.70607 -0.19451,0.15423 -0.95079,0.32037 -1.6806,0.36915 -0.72981,0.0488 -2.09023,0.46217 -3.02305,0.91861 -1.43007,0.69968 -2.25358,0.86548 -5.24787,1.05663 -3.3504,0.21385 -5.68884,0.68034 -5.68884,1.13482 0,0.36427 -4.24159,1.91736 -11.95826,4.37851 -1.72648,0.55066 -3.63919,1.21451 -4.25057,1.47529 -0.6113,0.26078 -1.75481,0.47621 -2.54113,0.47873 -2.005,0.007 -2.1868,0.19111 -2.03526,2.06748 0.14723,1.82346 0.6461,2.49427 2.95796,3.97792 1.93109,1.23918 3.06013,2.30711 3.30945,3.13007 0.34057,1.12441 1.79012,2.05809 4.04698,2.60657 1.18575,0.28821 2.58965,0.77989 3.1196,1.09266 0.53012,0.31278 1.73197,0.83296 2.67078,1.15594 2.06178,0.70938 4.87749,2.37157 6.97557,4.11783 1.07062,0.89117 1.96518,2.04732 2.90164,3.75012 0.74462,1.35399 1.74673,2.87399 2.22699,3.37761 0.9449,0.99119 3.3504,4.81738 4.42784,7.04252 0.36784,0.75979 0.96284,2.64321 1.32225,4.18537 0.7074,3.0353 1.35786,4.93636 1.93115,5.644 0.19983,0.24664 0.69805,1.05383 1.10718,1.79373 0.40912,0.73992 1.04495,1.88344 1.41293,2.54113 0.36799,0.65771 1.08089,1.93575 1.58428,2.8401 0.50336,0.90433 1.36483,2.20504 1.91435,2.89039 0.5495,0.6854 0.99912,1.43404 0.99912,1.66366 0,0.43566 4.22185,6.88229 5.37733,8.21145 0.36522,0.42008 0.86707,1.2511 1.11518,1.84671 0.47553,1.14163 3.3292,5.34744 4.48525,6.61053 1.01003,1.10351 1.57825,2.48405 1.57825,3.83472 0,0.82736 0.3824,1.92733 1.23144,3.54233 1.11612,2.12298 3.96954,6.60754 4.4389,6.97615 0.32885,0.25836 2.0894,2.98771 2.7029,4.19018 0.32313,0.63339 0.93917,1.53045 1.36898,1.99344 0.42981,0.463 0.98695,1.24539 1.2381,1.73867 0.61283,1.20362 3.87447,5.64818 5.10527,6.95701 0.54358,0.57799 1.31311,1.69189 1.71013,2.47534 0.39698,0.78344 1.43407,2.27762 2.30463,3.32051 3.10614,3.72081 3.64487,4.87537 2.9125,6.24371 -0.52456,0.98014 -1.42805,1.29104 -2.22819,0.76675 -0.98883,-0.64789 -1.98106,-1.65537 -2.82876,-2.87225 -1.25222,-1.79752 -3.42754,-4.22277 -4.11275,-4.58539 -0.67194,-0.35558 -2.42914,-2.59403 -3.89989,-4.96776 -0.45384,-0.73257 -1.4386,-1.96925 -2.18836,-2.74816 -0.74975,-0.77893 -1.74823,-2.13024 -2.21885,-3.00302 -1.23263,-2.28561 -2.17617,-3.44728 -2.96003,-3.64399 -0.44393,-0.11142 -0.88051,-0.62248 -1.23794,-1.44912 -0.30372,-0.70235 -0.9981,-1.91631 -1.54311,-2.69772 -0.54499,-0.78142 -0.99089,-1.47424 -0.99089,-1.53963 0,-0.0654 -0.43722,-0.58611 -0.97161,-1.15714 -0.53438,-0.57107 -1.47635,-1.84779 -2.0933,-2.83718 -0.97675,-1.56643 -1.30018,-1.85142 -2.5029,-2.20542 -1.57441,-0.46339 -1.81022,-0.73384 -3.8132,-4.37373 -0.80228,-1.45791 -1.73213,-2.77608 -2.06635,-2.92924 -0.34895,-0.15988 -0.76019,-0.80457 -0.96588,-1.51411 -0.19701,-0.6796 -0.72481,-1.71631 -1.17293,-2.30383 -0.44812,-0.5875 -1.26404,-2.0057 -1.8132,-3.1516 -0.54912,-1.14586 -1.24392,-2.33629 -1.54397,-2.6454 -0.6494,-0.66895 -2.78779,-4.62605 -2.78779,-5.1588 0,-0.20492 -0.44343,-0.99602 -0.98544,-1.75798 -0.54198,-0.76195 -1.24827,-1.92348 -1.56953,-2.5812 -0.32122,-0.65769 -0.68497,-1.24066 -0.80828,-1.29545 -0.12325,-0.0548 -0.22423,-0.22036 -0.22423,-0.3679 0,-0.14757 -0.45267,-0.97714 -1.00593,-1.84358 -0.55323,-0.8664 -1.42273,-2.40246 -1.93218,-3.41349 -0.50945,-1.01094 -1.25177,-2.09412 -1.64958,-2.40708 -0.90472,-0.71164 -2.11968,-3.08432 -3.06969,-5.99497 -0.40138,-1.22955 -1.00667,-2.859 -1.34512,-3.62093 -1.99228,-4.48586 -2.52559,-5.13429 -4.84907,-5.89693 -0.84942,-0.27875 -2.55342,-1.01149 -3.78659,-1.6283 -1.2332,-0.61682 -2.54136,-1.21095 -2.90701,-1.32027 -0.36569,-0.10942 -0.92316,-0.52719 -1.23885,-0.92853 -0.31571,-0.40135 -0.77195,-0.72973 -1.01386,-0.72973 -0.24189,0 -0.76065,-0.25055 -1.15277,-0.5568 -0.39213,-0.30625 -1.31837,-0.86381 -2.05829,-1.23898 -1.87634,-0.95138 -3.21258,-1.96211 -4.8114,-3.63949 -0.75538,-0.79245 -1.46166,-1.44079 -1.56953,-1.44079 -0.47394,0 -0.11841,1.10223 0.80952,2.51019 1.69712,2.5749 2.58187,4.46402 2.58187,5.51247 0,0.71034 0.15522,1.04256 0.5337,1.14153 0.41445,0.10842 0.54787,0.48618 0.59724,1.69102 0.0718,1.75391 0.48322,2.94327 1.35761,3.92499 0.32918,0.3696 0.77534,1.33206 0.99142,2.1388 0.3694,1.37914 0.58561,2.33346 1.78842,7.89422 0.26674,1.2332 0.80482,3.49869 1.19578,5.03413 0.76933,3.02187 0.86962,4.43114 0.42552,5.97943 -0.3003,1.0471 -0.27781,1.20938 0.97942,7.07331 1.15376,5.38121 1.66629,9.15256 1.35556,9.97469 -0.40952,1.08317 -0.32781,5.72351 0.16005,9.08857 0.10093,0.69618 0.31543,3.08194 0.47666,5.3017 0.16122,2.21976 0.35736,4.37223 0.43584,4.7833 0.54134,2.83587 0.81601,4.66433 1.04029,6.92532 0.1414,1.42483 0.48317,3.27149 0.75962,4.10408 0.27647,0.83235 0.42271,1.64272 0.32502,1.80081 -0.0978,0.15805 0.0241,1.27097 0.27062,2.47311 0.24654,1.20214 0.59381,3.50377 0.77171,5.11455 0.17791,1.61083 0.59011,3.89779 0.91605,5.08226 0.93103,3.38359 0.99168,4.19674 0.42403,5.68316 -0.35698,0.93471 -0.46575,1.83132 -0.35705,2.94319 0.0859,0.87942 0.29541,3.01289 0.46538,4.74085 0.16997,1.72811 0.60833,4.08256 0.97416,5.23175 0.36583,1.14936 0.64673,2.17185 0.62428,2.27221 -0.1374,0.61386 1.16743,6.65268 1.64644,7.6195 0.31797,0.64173 0.60447,1.77217 0.63669,2.51209 0.0675,1.54847 0.3244,2.46195 1.68205,5.97911 0.61441,1.59174 0.9957,3.13157 1.02052,4.12171 0.024,0.95745 0.50986,2.98222 1.2324,5.13579 0.65599,1.95532 1.27402,4.14831 1.37339,4.87329 0.16272,1.18703 0.0989,1.38239 -0.64105,1.96448 -1.06006,0.83385 -1.31854,0.8153 -2.44762,-0.17579 0,0 -0.001,1.8e-4 -0.001,1.8e-4" />
</svg>
