<svg xmlns="http://www.w3.org/2000/svg" viewBox="0 0 512 384">
<rect width="512" height="384" fill="none"/>
<path style="fill:#426e34;" d="m 330.99766,69.884357 c -0.96728,0.02978 -1.93456,0.08934 -2.76793,0.193448 -2.32147,0.297634 -4.80665,0.729199 -6.69658,2.113148 -1.88991,1.383971 -3.45245,4.226297 -4.03283,5.759068 -0.56548,1.517903 -1.23514,3.720335 -2.29172,5.342391 -0.4018,0.610124 -0.95239,1.309555 -1.59229,2.023864 -6.38408,1.473244 -12.70864,3.303644 -18.89926,5.446554 -11.89014,4.09235 -23.17018,9.74725 -34.80735,14.53902 -12.85744,5.29775 -26.25061,9.4645 -38.6765,15.69978 -9.4645,4.74713 -18.52722,10.3425 -27.15837,16.45871 -3.77984,2.66377 -10.72941,8.80973 -10.72941,8.80973 0,0 -13.36342,-0.0297 -19.8963,1.13098 -6.04181,1.08633 -12.45565,2.05362 -17.61946,5.35727 -4.03284,2.57447 -8.55676,6.04181 -9.56868,10.72942 -0.90774,4.18164 0.78871,9.24127 3.83938,12.24731 2.84233,2.79769 11.48837,3.4227 11.48837,3.4227 0,0 -4.59834,3.83937 -4.59834,3.83937 0,0 -9.47938,-1.96434 -13.78007,-0.37204 -5.00012,1.84528 -9.85143,5.77396 -11.87528,10.69966 -3.1846,7.81269 -0.37202,17.05396 1.51789,25.26845 2.24708,9.82165 5.56561,19.807 11.48836,27.94707 5.90788,8.12519 14.13724,14.73248 22.97674,19.5094 7.48528,4.06258 16.4587,4.41974 24.47973,7.27693 7.81269,2.78282 16.22062,4.77692 22.97673,9.59846 9.85142,7.02396 18.12542,16.12537 24.10771,27.15837 10.655,-14.72803 11.533,-19.73261 34.83711,-16.44831 -7.396,-2.58489 -16.30991,-7.09391 -12.24731,-18.38882 -10.78893,-2.03873 -21.57788,-4.00306 -32.53053,-4.97036 5.83349,-10.03 5.20847,-17.94684 3.05068,-29.46498 0,0 5.35726,-0.92262 8.05078,-1.16073 6.74122,-0.61012 13.51223,-1.07145 20.26834,-0.75893 3.98819,0.17855 8.21446,-0.0297 11.89014,1.51787 5.10429,2.1578 8.42283,7.2472 13.00626,10.34252 4.25606,2.88696 8.45258,6.2799 13.40807,7.64898 5.53582,1.54766 11.47347,0.55062 17.21764,0.38693 4.85131,-0.13394 11.4735,-1.14587 14.53904,-1.14587 3.06555,0 23.7208,1.51789 23.7208,1.51789 -11.02704,-10.37228 -13.34854,-8.2889 -4.21141,-22.18802 0,0 -6.86029,1.08633 -10.32763,1.16074 -3.8245,0.0893 -7.94661,0.69943 -11.48837,-0.77381 -2.82744,-1.19053 -4.98523,-3.70545 -6.89003,-6.11623 -1.5179,-1.93457 -3.58639,-4.06259 -3.4227,-6.518 0.0893,-1.54767 1.33931,-3.02091 2.66375,-3.8245 2.64888,-1.5923 9.19664,-1.14587 9.19664,-1.14587 0,0 -14.97059,-5.34238 -19.92606,-11.10144 -1.41371,-1.65182 -2.51494,-3.97332 -2.29172,-6.1311 0.74406,-7.08349 7.41088,-12.15801 11.48836,-17.9766 4.70249,-6.71147 8.75021,-14.18189 14.94083,-19.53916 6.74122,-5.83347 16.548,-7.26207 23.34876,-13.00625 4.50903,-3.79473 6.6817,-9.8663 11.08657,-13.78008 5.17869,-4.61321 12.84256,-6.08645 17.61945,-11.11634 1.62205,-1.69646 3.43759,-6.10132 3.43759,-6.10132 0,0 6.87516,-4.40487 9.18176,-7.649 2.30661,-3.22924 4.55368,-7.17277 4.22629,-11.11632 -0.28275,-3.24413 -2.5447,-6.25015 -4.98525,-8.42282 -3.75007,-3.34829 -8.98829,-4.58344 -13.78007,-6.11621 -4.95547,-1.577411 -10.1937,-2.142919 -15.31286,-3.080435 -3.86914,-0.699419 -7.70851,-1.636934 -11.59253,-2.291717 -0.19345,-1.235148 -0.49109,-2.693514 -0.84823,-3.61615 -0.53574,-1.398839 -1.2054,-2.842337 -2.29172,-3.839389 -2.4703,-2.261949 -7.85733,-3.645909 -9.00319,-4.404855 -0.7143,-0.476192 -2.29173,-0.61014 -3.91379,-0.580377 0,0 0,0 0,0 M 181.14299,146.82069 c 0.46132,-0.0743 0.96728,0.19345 1.17562,0.62501 0.20833,0.41667 0.10419,0.98216 -0.23811,1.30956 0,0 -5.49119,6.02691 -8.00613,9.12223 -1.91969,2.36613 -3.46734,5.25309 -5.78883,7.72339 -2.36613,2.50006 -5.14892,4.31557 -7.54481,6.38408 -2.2322,1.93457 -6.69658,5.92276 -6.69658,5.92276 -0.43157,0.4613 -1.26492,0.4613 -1.6816,0 -0.41668,-0.47621 -0.34227,-1.30955 0.16371,-1.68159 0,0 4.44952,-3.97331 6.72635,-5.93764 2.54471,-2.20244 5.2531,-4.01796 7.36623,-6.26503 2.05362,-2.17267 3.58641,-4.98523 5.68467,-7.57458 2.61911,-3.22924 8.09542,-9.22641 8.09542,-9.22641 0.16371,-0.19345 0.4018,-0.32739 0.6399,-0.38691 0.0297,-0.0151 0.0743,-0.0151 0.10418,-0.0151 0,0 0,0 0,0 m 111.9669,22.20289 c 0.46132,-0.0297 0.92262,0.22323 1.13097,0.6399 0.19345,0.41667 0.10419,0.95241 -0.20835,1.27979 0,0 -2.27682,2.52981 -4.89593,5.83346 -2.61911,3.30365 -5.55072,7.41089 -6.75611,10.29787 -1.33933,3.22925 -0.61013,7.45552 -1.87504,11.57766 -1.56254,5.14892 -5.08941,9.19664 -6.32456,13.73543 -0.61014,2.27684 -0.58038,4.80665 -0.69941,7.41089 -0.14873,2.96137 -0.40179,5.86323 -0.0297,8.60139 0.49107,3.57151 1.86015,7.06862 3.03578,10.69965 0.59525,1.86016 2.08338,5.68466 2.08338,5.68466 0.20835,0.56549 -0.0893,1.26492 -0.65477,1.48813 -0.55062,0.20833 -1.26492,-0.0893 -1.47325,-0.65478 0,0 -1.48813,-3.77986 -2.14291,-5.80371 -0.87799,-2.75303 -1.94946,-5.55072 -2.6191,-8.49721 -0.10419,0.22322 -0.29763,0.43154 -0.52085,0.53572 -6.6817,3.55663 -6.45849,4.40486 -18.9439,6.07158 -0.59524,0.0743 -1.22025,-0.38693 -1.29467,-0.98218 -0.0893,-0.59525 0.38692,-1.22027 0.98217,-1.29466 12.41099,-1.65183 11.35441,-2.17268 18.18495,-5.80372 0.14873,-0.0893 0.32738,-0.13393 0.50596,-0.13393 0.29761,-0.0297 0.59525,0.0743 0.81846,0.28274 -0.0743,-0.43155 -0.14889,-0.84823 -0.20832,-1.27978 -0.43156,-3.08043 -0.14874,-6.11622 0,-9.03295 0.11895,-2.50005 0.0743,-5.19358 0.80358,-7.88709 1.41373,-5.20846 4.94059,-9.28595 6.32454,-13.79497 1.0417,-3.4227 0.25299,-7.73828 1.93457,-11.80086 1.39885,-3.36318 4.41975,-7.48531 7.08351,-10.84849 2.67864,-3.36315 5.0001,-5.93762 5.0001,-5.93762 0.19348,-0.22322 0.47622,-0.35716 0.75896,-0.38692 0,0 0,0 0,0 m -143.20274,13.79496 c 0.25298,-0.0297 0.53573,0.0297 0.74407,0.17858 9.31569,5.98229 21.53323,14.82177 31.4293,25.29821 9.89607,10.47644 17.51529,22.64934 17.32183,35.40261 -0.0151,0.59525 -0.56549,1.13098 -1.16073,1.1161 -0.59526,-0.0151 -1.131,-0.56549 -1.11611,-1.16073 0.19346,-11.81577 -7.00909,-23.55711 -16.69682,-33.8252 -9.68771,-10.25323 -21.78623,-18.98854 -30.99773,-24.9113 -0.41669,-0.23811 -0.63991,-0.75896 -0.53574,-1.22026 0.10418,-0.46132 0.53574,-0.83336 1.01193,-0.87801 0,0 0,0 0,0 m 34.24186,9.18176 c 0.22322,-0.0151 0.46132,0.0297 0.65478,0.14874 18.82485,9.43474 30.4025,26.4887 37.30742,45.58141 0.23811,0.5655 -0.0743,1.30957 -0.65478,1.51789 -0.58035,0.20835 -1.29466,-0.14872 -1.47324,-0.72917 -6.78588,-18.75044 -18.02126,-35.23893 -36.19132,-44.36117 -0.44643,-0.20832 -0.7143,-0.72917 -0.6399,-1.22026 0.0893,-0.47619 0.50597,-0.87799 0.99704,-0.93751 0,0 0,0 0,0 m -54.00423,9.00317 c 0.34227,-0.0446 0.69943,0.0596 0.95241,0.29764 0,0 5.19358,4.71736 7.44065,7.82755 3.30365,4.58345 4.98523,9.9556 7.69363,14.43488 3.36318,5.56559 7.18768,10.86333 11.02704,16.17597 3.76498,5.19356 6.71146,10.93774 11.30979,14.73247 4.137,3.43758 9.53891,5.37215 14.82177,7.47042 1.20539,0.46133 2.96138,0.46133 4.71737,1.41372 2.00898,1.10123 3.46735,2.76792 4.8513,4.31558 1.38397,1.53277 2.7084,2.91673 4.28582,3.69056 3.46734,1.69648 7.58945,2.36612 11.50325,2.17267 1.1012,-0.0446 3.03579,-0.58038 4.62808,-1.13097 1.57741,-0.55061 2.81257,-1.07146 2.81257,-1.07146 0.55061,-0.26786 1.30955,0 1.54766,0.5655 0.25297,0.56548 -0.0743,1.30955 -0.65478,1.51788 0,0 -1.30956,0.56548 -2.97627,1.14586 -1.6667,0.56549 -3.63102,1.17562 -5.2531,1.25003 -4.25604,0.20834 -8.72045,-0.52085 -12.60445,-2.41076 -2.08339,-1.01194 -3.57151,-2.66377 -4.97036,-4.21141 -1.39884,-1.56255 -2.7084,-2.99114 -4.27094,-3.83939 -1.04167,-0.58036 -2.70839,-0.58036 -4.46438,-1.27979 -5.23821,-2.06849 -10.86335,-4.06259 -15.41703,-7.84245 -5.0894,-4.21139 -8.06566,-10.14903 -11.68181,-15.13427 -3.85426,-5.31263 -7.72339,-10.69965 -11.16099,-16.36943 -2.90185,-4.79178 -4.56854,-10.04489 -7.58945,-14.25628 -1.88993,-2.60422 -7.14303,-7.48529 -7.14303,-7.48529 -0.65478,-0.56549 -0.26786,-1.87504 0.59525,-1.97923 0,0 0,0 0,0" />
</svg>
