<svg xmlns="http://www.w3.org/2000/svg" viewBox="0 0 1024 768">
<rect width="1024" height="768" id="P013WIImgRctX" fill="#fff"/>

<!-- cat -->
<path d="M402.73973 284.29672C396.94573 283.78005 391.17306 282.5578 384.93569 280.52702C377.87471 278.22812 376.00554 277.11808 374.64007 274.41282C371.9141 269.01199 374.41246 264.47881 380.11739 264.47434C381.69452 264.47354 385.2446 265.40133 390.67409 267.23452C399.94863 270.36592 405.13891 271.06718 410.82673 269.95734C419.30646 268.30271 428.91302 259.83842 434.26269 249.30816C439.84493 238.32001 446.50441 210.15374 445.76652 200.65255C445.19511 193.29514 441.32224 184.09927 437.00282 179.84392C437.00282 179.84392 434.51618 177.39413 434.51618 177.39413C434.51618 177.39413 397.94181 177.01101 397.94181 177.01101C377.82593 176.80028 359.80454 176.58608 357.89424 176.53503C355.984 176.48403 351.63008 176.61723 348.21888 176.8315C342.70552 177.17761 341.82395 177.12027 340.28067 176.31514C337.85813 175.05127 337.05905 173.23274 337.96912 171.0546C339.60939 167.12885 344.01909 163.78456 347.58723 163.76027C349.6512 163.74627 350.49014 162.43705 350.93274 158.53956C351.11867 156.90218 351.94025 151.65516 352.75845 146.87949C354.49975 136.7161 354.48012 132.04589 352.66385 124.38753C351.52961 119.60502 351.48217 119.51569 350.23512 119.81761C349.53556 119.987 347.3912 120.25469 345.46988 120.41252C342.15284 120.68501 341.78979 120.60568 338.27535 118.84068C329.54159 114.45441 322.0321 109.76171 318.4229 106.43473C315.13506 103.40399 312.56346 101.84622 309.85815 101.24654C308.54464 100.95535 306.94493 100.37312 306.30327 99.952676C305.36599 99.338566 304.30669 99.255576 300.91647 99.530656C297.08773 99.841306 296.53158 99.771236 294.91967 98.775026C290.97017 96.334076 290.53598 93.427086 293.69469 90.573384C297.94352 86.734824 299.09958 86.675904 311.96482 89.642254C318.44843 91.137226 320.17039 91.740676 323.19997 93.579766C325.16786 94.774336 328.19719 96.283546 329.9318 96.933546C331.6664 97.583576 333.45233 98.272996 333.90049 98.465616C334.53601 98.738766 334.90575 98.317176 335.58075 96.549646C336.3862 94.440726 336.39249 93.999436 335.67165 90.190864C335.24564 87.939964 334.76222 85.086264 334.59735 83.849344C334.43253 82.612424 333.88153 80.916134 333.37293 80.079804C332.469 78.593404 332.38844 78.567714 329.78989 78.937934C327.07547 79.324694 323.1815 80.556444 322.21269 81.334804C320.13848 83.001314 313.06619 85.984614 310.24143 86.384644C307.21646 86.813044 306.88441 86.760394 304.91718 85.540314C301.03839 83.134664 300.5873 82.500284 300.57759 79.437514C300.57259 77.768474 299.98181 74.810804 299.08907 71.981844C297.28137 66.253374 297.26856 65.447934 298.89377 59.703434C298.89377 59.703434 300.1848 55.140224 300.1848 55.140224C300.1848 55.140224 298.3217 53.501284 298.3217 53.501284C297.29696 52.599866 296.123 51.615538 295.71291 51.313886C294.36685 50.323789 295.39638 49.133395 297.59876 49.133395C297.59876 49.133395 299.60398 49.133395 299.60398 49.133395C299.60398 49.133395 297.42865 44.791877 297.42865 44.791877C294.9016 39.748493 294.2583 37.474936 295.2505 37.09419C295.61865 36.952891 299.3701 37.702482 303.587 38.75991C312.2881 40.941808 312.55692 40.962753 319.15058 39.972949C324.23505 39.209685 326.23916 39.322289 337.05507 40.978957C346.17699 42.376127 347.95703 43.00103 360.81529 49.320168C367.66851 52.688172 375.17361 56.187144 377.49319 57.095694C383.18442 59.324794 397.51419 66.607354 403.19961 70.159964C420.92826 81.237964 431.07902 91.725076 438.18227 106.30177C443.87687 117.9878 445.92109 126.82395 446.47936 142.16585C446.95312 155.186 447.19683 156.24006 452.15854 166.72643C458.89443 180.96235 460.78171 188.14087 461.19791 201.10872C461.59835 213.58626 460.1289 223.24918 455.7951 236.63608C447.08579 263.53902 433.77584 280.05534 417.99163 283.54655C413.85698 284.46106 407.87955 284.75506 402.73982 284.29672C402.73982 284.29672 402.73973 284.29672 402.73973 284.29672M374.51475 163.54021C377.82574 162.21758 379.78042 161.1628 379.88016 160.64493C379.96636 160.19687 378.69463 157.85368 377.05388 155.43787C374.1425 151.15121 371.04401 145.2686 371.04324 144.02649C371.04301 143.68537 370.87539 143.40751 370.67071 143.40903C370.46606 143.40983 369.69218 145.63283 368.95099 148.34751C368.20983 151.06214 366.50737 155.69394 365.16778 158.64035C361.44366 166.83144 361.40071 166.22741 365.68403 165.89876C368.31185 165.69713 370.73615 165.04964 374.51475 163.54021C374.51475 163.54021 374.51475 163.54021 374.51475 163.54021"
style="fill:#000000" />

<!-- spider -->
<path d="m 604.27833,450.11713 c -3.01357,-6.06979 -4.29494,-13.01316 -6.51504,-19.30469 -1.61704,-7.20777 -4.90966,-13.6919 -4.65912,-21.34315 -0.3831,-7.63164 -2.30479,-14.99697 -2.63161,-22.59114 0.57594,-6.12447 -3.61039,-6.50102 -7.15075,-8.64161 0.3915,-3.47108 1.57778,-7.09135 -2.46525,-3.31538 -5.22814,1.41144 -11.29057,8.0855 -16.11751,1.46958 -0.44518,-3.86525 -0.16724,-6.9999 -4.87544,-3.95309 -5.5542,2.61338 -17.51485,2.13802 -16.4698,10.55029 0.89362,6.72965 1.24033,13.14669 1.43585,19.74256 1.19704,6.1069 0.51674,12.01813 1.13146,17.92962 1.59505,7.13675 3.93084,14.3985 8.09364,20.35685 4.49016,6.45126 -3.77303,2.30199 -4.39066,-1.63703 -4.55551,-7.22855 -6.03182,-15.90594 -9.46955,-23.6392 -1.04029,-9.92207 -0.0357,-20.05944 -2.34373,-29.81482 -0.57849,-7.99416 3.06357,-16.31851 11.35747,-18.46065 3.75639,-2.12456 14.86441,0.10261 11.57768,-6.33609 -7.68034,2.04001 -15.06326,-4.50336 -22.64616,-2.43212 -1.57249,7.16513 -5.30886,13.60171 -8.27255,20.24718 -1.28534,4.83804 -3.9884,7.40613 -6.11231,11.77402 -2.22092,4.83016 -0.31574,11.5204 -1.90116,15.4151 -5.04466,-3.96536 -1.28928,-12.87687 -0.77954,-18.58852 0.91579,-9.17984 8.89703,-15.87726 10.05896,-25.07159 2.07606,-7.24183 8.35243,-13.13038 16.29837,-10.59073 5.60764,0.28054 16.31915,7.84327 14.44892,-2.93076 -8.45607,-0.42732 -16.7849,-1.78229 -24.70904,-4.68777 -3.59039,-1.41669 -14.04715,-3.99088 -12.03931,-7.9867 6.66364,1.52734 12.91471,3.56674 19.53525,5.38213 4.14072,-0.31466 10.93714,2.60683 13.54269,1.20531 -5.54469,-5.14627 -7.80502,-12.59604 -13.92114,-16.88147 -2.58437,-7.34824 1.36507,-14.77782 0.19227,-22.32967 -0.55683,-7.12601 2.78374,-13.57894 5.12713,-19.97998 2.21114,-2.92503 5.3296,-14.32642 8.87631,-11.5536 -2.5894,6.22993 -5.99972,12.12422 -8.09089,18.73345 -0.8581,6.2954 -1.14568,12.11001 -1.76946,18.82769 2.029,4.48287 -4.78754,12.74633 1.65821,13.89663 1.61689,-7.45097 5.8713,-14.11455 10.11378,-20.22853 4.93387,-5.5308 11.36135,-10.73722 19.29066,-9.46255 10.61251,2.47783 16.42111,13.81095 17.87356,23.86774 2.02364,3.10852 -1.40316,12.6308 1.24433,12.042 5.60803,-4.25255 6.38471,-11.75076 8.58954,-18.14969 0.76802,-7.26402 3.61756,-13.73858 4.00392,-20.89186 1.12066,-5.26654 -1.68908,-14.98005 2.44249,-17.33793 1.28533,6.11624 0.52284,12.97592 0.82956,19.60359 1.09429,8.07038 -2.16458,15.56033 -4.21765,23.22381 -1.04306,7.44394 -3.4731,15.82377 -10.68676,19.47594 -3.16288,1.92971 -13.24781,6.09413 -9.23261,9.36368 6.398,-2.33063 13.06471,-4.38717 19.89569,-4.86498 5.67627,-3.10267 11.74904,-2.26096 17.62585,-4.31124 2.63816,-0.81177 15.28889,-3.37713 8.64,1.0563 -5.84443,1.65059 -11.78098,3.40405 -17.33144,5.67068 -6.87971,1.83951 -13.94117,2.56578 -20.49675,5.28082 -5.35763,0.93263 -12.27509,3.2709 -4.6134,7.68593 6.51217,2.88662 13.07928,6.58856 15.83298,13.8959 2.32,9.01567 8.57724,16.30891 13.45978,24.04828 2.11386,7.58318 8.17293,13.37317 12.31525,19.93648 4.42471,4.04747 -0.90549,5.61323 -2.64997,0.78502 -4.52031,-4.81182 -8.10257,-10.20497 -11.97721,-15.49009 -5.31436,-3.88304 -7.54261,-10.92311 -11.11948,-16.43365 -4.315,-4.8288 -4.70528,-13.01072 -10.40874,-16.07905 -3.10984,-0.40244 -10.27824,-7.43091 -9.5945,-4.97476 3.02145,6.13873 5.3576,12.99713 5.68701,20.00429 1.43068,6.82785 1.31175,13.76241 1.93377,20.71975 0.7487,7.62267 3.2402,15.15923 2.72496,22.75155 0.93514,8.54384 4.01782,16.64452 5.68735,25.00381 -0.36868,0.57476 -1.33191,1.31327 -1.86616,0.34811 z" />	

<!-- snake -->
<path d="M598.85916 701.28873C633.84396 698.8432 663.52306 691.35817 691.60896 677.8974C709.18226 669.47506 716.76106 662.20024 723.00306 647.76259C727.67096 636.96567 729.82486 620.8256 727.72816 612.35557C724.53336 599.45009 713.98196 585.99617 699.61266 576.50602C688.95906 569.46983 681.00836 566.69874 656.71566 561.55493C638.89246 557.781 633.41866 556.16631 626.72046 552.70682C620.28696 549.38405 616.59146 546.38485 614.47006 542.7647C608.65726 532.84524 615.57906 523.52691 631.47156 519.87682C638.42166 518.28056 651.99346 518.27568 660.29996 519.86642C667.09436 521.16759 670.93436 520.84592 679.17866 518.28494C687.17216 515.80187 693.59846 511.13501 693.59846 507.81305C693.59846 506.62875 690.07976 506.96972 683.29616 508.8114C676.05776 510.77655 667.22036 511.44879 645.66296 511.67406C624.28676 511.89743 622.79956 512.11773 614.18546 516.33674C605.66986 520.50749 599.45056 528.37035 599.35106 535.0912C599.29406 538.96505 601.42156 543.57223 605.75966 548.96725C613.26886 558.30585 628.85836 566.6303 658.87576 577.32995C672.17626 582.07088 677.09086 584.2568 682.10486 587.66171C691.41306 593.9828 696.19006 604.00772 695.26056 615.26967C694.86096 620.10972 691.24996 632.03326 689.15916 635.41631C687.16596 638.64141 680.63666 644.36106 673.92746 648.75936C654.18036 661.70469 629.76786 667.95504 595.20466 668.9148C565.89936 669.72856 537.43096 665.87363 512.01556 657.6501C500.41486 653.89653 492.57336 650.61982 488.52516 647.83432C482.86776 643.94144 478.61476 639.50945 476.59026 635.39706C474.78966 631.73959 474.63216 630.90764 474.65256 625.16258C474.67956 617.46549 475.49776 613.62312 477.83016 610.23461C481.76176 604.52266 489.51346 598.85089 498.23506 595.30475C500.86366 594.23595 501.78706 593.5559 501.57846 592.84249C499.85686 586.95535 496.18056 566.63241 496.18026 563.00098C496.18006 560.85978 495.88246 560.85381 488.83966 562.85353C476.26916 566.42278 464.86236 571.49592 456.60696 577.18892C451.08416 580.9975 441.15466 591.24774 438.24476 596.1443C431.08206 608.19696 430.31936 617.82311 435.32816 632.95526C439.41686 645.30768 445.60376 655.55957 454.73156 665.10742C472.76886 683.97476 505.31786 695.73983 552.31506 700.37968C563.82266 701.51578 588.66886 702.00104 598.85916 701.28871C598.85916 701.28871 598.85916 701.28873 598.85916 701.28873"
style="fill:#808000" />

<path d="M596.80546 647.60601C609.31296 646.2898 621.35186 641.77263 626.75656 636.36795C633.19976 629.9247 636.05746 619.74616 634.11796 610.14802C632.54476 602.36269 625.98816 589.61911 620.63746 583.94707C608.38066 570.95421 584.07306 563.04749 544.18486 559.07867C538.84606 558.54747 533.28746 558.11284 531.83236 558.11284C531.83236 558.11284 529.18686 558.11284 529.18686 558.11284C529.18686 558.11284 529.70576 562.0549 529.70576 562.0549C530.69586 569.5767 532.20136 575.03726 534.64356 579.96521C538.59366 587.93591 538.40696 587.80012 545.80526 588.08076C558.30086 588.55477 576.34626 592.46874 584.06156 596.37843C588.39306 598.57332 592.62616 602.68253 594.34796 606.36364C597.24096 612.54877 596.12106 613.95209 587.20406 615.31487C580.49536 616.34016 567.71556 616.12007 563.60116 614.90839C560.54656 614.00882 555.21056 610.48927 547.53426 604.31087C540.65876 598.77703 537.24126 594.7258 533.32696 587.46907C528.02986 577.64862 525.98796 570.64002 523.63576 554.20623C520.75786 534.09969 515.05546 518.96188 505.79106 506.83504C500.58886 500.02553 491.25966 493.29179 486.87686 493.18296C484.02766 493.11216 485.55146 491.94673 488.73526 491.76154C488.73526 491.76154 492.01286 491.57089 492.01286 491.57089C492.01286 491.57089 490.00136 489.2853 490.00136 489.2853C488.89506 488.02823 486.49956 486.35862 484.67816 485.57505C481.77316 484.32535 480.70756 484.19879 476.00096 484.54448C464.52536 485.38736 452.84976 489.67797 444.24406 496.21476C441.87026 498.01787 438.56326 500.18472 436.89516 501.02999C433.66136 502.6687 431.21496 505.24422 431.21496 507.01009C431.21496 508.68109 437.17426 513.30727 441.86606 515.27857C448.98456 518.26945 460.55576 520.26967 470.71486 520.26543C482.13246 520.26043 485.79686 519.63174 489.46296 517.04765C493.11166 514.47577 493.99966 515.10262 490.87806 518.04667C489.28196 519.5519 487.11156 520.68832 484.06606 521.61336C480.00026 522.84831 478.65026 522.93856 469.12406 522.61226C452.76486 522.0519 439.74636 519.26373 435.48566 515.40789C434.11626 514.16856 433.23106 514.79859 434.38616 516.19045C438.52016 521.17161 454.67126 524.87697 472.58286 524.9535C472.58286 524.9535 483.36046 524.9996 483.36046 524.9996C483.36046 524.9996 489.36676 522.01993 489.36676 522.01993C495.59756 518.92895 499.56856 515.44373 500.33386 512.39452C500.78956 510.57868 499.02276 507.90377 494.37536 503.37384C489.56256 498.6827 493.18576 498.87625 498.56196 503.59748C506.50146 510.56964 505.51836 515.76904 494.75756 523.71979C494.75756 523.71979 492.38896 525.46989 492.38896 525.46989C492.38896 525.46989 494.45306 527.75766 494.45306 527.75766C500.94956 534.95799 503.38296 543.40775 507.50576 573.08193C510.60216 595.36905 513.98486 606.44446 521.71616 619.60901C530.03676 633.77698 536.55956 639.43438 549.66426 643.849C559.87016 647.28715 582.61246 649.09965 596.80546 647.60606C596.80546 647.60606 596.80546 647.60601 596.80546 647.60601"
style="fill:#808000" />

<!-- dog -->
<path style="fill:#803300;" d="M352.43392069 428.949759843C347.593469451 434.155473315 336.168609362 435.004199353 333.600147345 443.831531466C331.031685329 452.658863578 321.685041394 493.109960389 310.114851504 512.194669856C308.457122907 534.066804907 305.036059391 554.170760712 308.254630051 578.23253143C308.750689105 581.940379087 311.031398115 584.761714957 311.742545275 588.696277102C314.403049499 591.396504805 322.69847454 590.771586661 322.438818629 595.67210755C322.231481446 599.594074447 306.952475034 599.906049086 303.837572966 597.299801322C297.849016299 592.288829783 299.87394486 579.152953503 295.001521065 573.581977798C295.380347413 581.160442488 294.0026209 588.76119108 297.325829016 594.276941461C299.049440456 597.137031944 306.273300431 598.396556886 306.161880917 602.415410317C305.982640829 608.85158277 287.918146564 603.987878764 286.629555662 601.950354954C284.593969583 598.731784294 284.777085132 592.913747927 282.909112757 587.999662923C280.787297662 582.414154238 279.592686698 582.591456595 279.886252896 575.443168117C280.18466342 568.197993104 277.558069484 558.546156587 276.398337672 550.56173732C274.850090858 539.90421858 273.504336901 529.727257049 270.585145632 522.658415528C237.687323012 517.886753729 213.572264699 504.332327622 177.34154531 502.893562592C163.261994189 525.709372484 140.787224897 540.128995339 120.372263318 556.607457042C118.964501979 563.362386192 121.345004119 570.910816056 121.767429408 578.000003749C124.621706699 579.928045775 131.196426897 578.755718714 131.068536672 583.115612744C130.96293035 586.701383367 118.388027102 587.404779604 115.024126641 585.207393013C108.436811195 580.906599769 111.661195046 563.886542341 106.885657785 558.002623131C92.5047895437 562.30244751 90.4149470053 580.906599769 85.2605833965 595.206083322C87.6691826318 597.419940624 94.7980938035 597.42478495 92.9339968893 601.949386088C90.901317406 606.8828484 73.8696335942 603.271887277 73.1691439533 599.625078138C71.9755018545 593.403993789 76.3431468072 583.223156797 77.5871699037 577.53397952C78.9290483996 571.401061918 79.3417850345 561.009012281 82.2377235357 555.67637745C83.1029202844 554.083562831 86.3457125773 552.987776131 87.5858602125 551.723406863C93.3825815418 545.816234885 103.604110879 537.402608272 105.723019377 528.703166384C109.141176297 514.667214204 113.75200645 499.289383527 112.698849825 481.500047019C108.627677667 497.545425915 101.191636182 508.066334642 88.7484986205 514.98403317C73.6971755636 523.351154246 53.1969538346 516.464459409 35.4996595341 516.844254623C44.4732903132 510.423584014 63.243118545 513.87371349 75.2618930877 511.728645627C109.27972404 505.659673138 96.3744377117 457.73571796 126.41798304 446.620894779C146.660486588 439.132534567 167.140362145 434.994510699 195.711232157 434.994510699C204.699395916 434.994510699 242.429918851 433.729172565 254.540735601 431.971650839C266.651552351 430.214129112 280.502451252 420.354955412 294.302969155 412.904380947C308.103487058 405.453806483 323.35536524 378.98731199 345.92411447 377.327645663C357.505930744 376.476013029 365.97090722 380.528776746 371.502159446 386.163697563C380.044645149 394.867983778 380.925343743 408.415627827 392.894706153 414.7646024C395.333340214 416.058037629 397.372801755 415.685993339 397.777787467 418.252517624C398.375577382 422.048532026 394.39644743 428.609688109 392.428681925 430.576484749C382.701273911 440.302923897 362.103196783 435.475067908 352.43392069 428.948790978C352.43392069 428.948790978 352.43392069 428.949759843 352.43392069 428.949759843" />

<!-- bird -->
<path style="fill:#784421"
d="m 920,453.398 c 1.64172,3.50606 4.45288,6.59357 8.2684,7.70689 3.62349,1.04187 6.40017,3.77072 8.36072,6.88263 2.34946,2.52345 5.524,4.04133 7.91775,6.53602 3.2406,2.94529 6.02381,6.5961 7.63685,10.68231 1.19671,3.07235 -3.9866,-1.57069 -2.7297,2.28974 1.38924,2.89114 -1.61302,3.28765 -3.28449,1.54109 -2.84381,-1.31744 -2.22253,6.27921 -4.1994,1.74939 -2.39348,-0.30867 -3.73927,6.28207 -6.29663,2.27055 -2.89085,-1.92813 -5.41335,0.77251 -3.45758,3.56972 2.2703,3.08548 -1.24579,4.99608 -3.66146,2.70734 -2.51478,-2.03955 -5.51162,-1.70583 -7.97837,-0.7479 -5.45614,-3.66893 -7.18805,-10.53972 -11.59433,-15.18817 -2.20052,-2.93237 -5.62246,-4.58808 -8.71432,-6.41409 -2.66808,-1.83701 -6.1757,-1.37956 -8.89478,-2.24556 0.95036,-3.302 5.05744,-4.16773 7.56676,-6.12893 2.81735,-2.13115 6.91302,-2.63622 7.35105,-6.89163 0.95382,-3.70195 0.77596,-7.68662 0.0816,-11.4165 -1.41226,-3.43745 -2.37932,-7.09887 -4.68153,-10.0934 -2.37225,-3.54136 -4.90472,-7.03913 -8.01391,-9.9678 -1.3109,-2.28106 -4.11583,-6.16509 -2.70852,-8.33792 3.84815,2.87814 4.38348,8.23886 8.03524,11.33957 2.1349,2.42682 4.15839,5.25685 7.5581,5.94859 4.73338,2.3811 7.72195,6.97476 11.26889,10.73124 0.98241,1.04504 1.41836,2.31348 2.16966,3.47682 z" />

<path style="fill:#784421"
d="m 859.903,469.958 c -3.28983,4.05696 -7.50037,7.22833 -11.23098,10.85607 -1.70171,1.69971 -3.60882,3.33605 -4.68479,5.52729 0.56643,1.25716 2.61065,-0.75416 3.81987,-0.27536 1.1048,1.30627 2.81756,0.75353 3.85046,-0.38009 1.19678,-0.99783 3.16349,-1.985 4.30945,-0.36923 0.6854,0.7573 2.68293,2.80209 1.44244,3.42248 -1.76543,-0.15527 -2.04538,-2.4805 -4.00846,-2.17497 -1.35602,-0.27654 -2.8036,0.74369 -1.84473,2.15252 -0.94051,1.4259 -3.02053,0.71873 -4.42126,0.49689 -1.74096,-0.29487 -3.19873,-1.37069 -4.87161,-1.8679 -1.44546,-1.78544 -2.25505,1.54998 -2.78824,2.63745 -0.5889,2.09108 -1.3298,4.51729 -0.11435,6.53059 0.96695,1.62354 -0.66001,2.56831 -1.80188,3.25342 -0.581,1.03439 -0.5434,3.69628 -2.3488,2.32044 -1.13358,-1.24228 -0.2682,-2.91401 0.23064,-4.22599 -0.0349,-1.3115 2.35948,-3.17434 0.98221,-3.99595 -1.47243,0.4778 -3.05996,1.57019 -3.26526,3.22367 -0.8142,1.36443 -1.16976,3.23658 -2.75069,3.95007 -1.8449,-0.01 -0.0368,-2.89959 0.39983,-3.94779 1.03726,-1.71895 1.85984,-3.75408 3.64348,-4.83808 1.67911,-1.59208 2.40715,-3.87536 3.89752,-5.62389 0.84239,-1.03114 1.80169,-2.60241 2.93661,-2.92105 5.62721,-4.61409 9.8124,-10.81863 15.8543,-14.95099 1.14412,-0.56828 2.89034,-2.27208 3.98335,-1.22716 -0.07,0.91931 -0.72253,1.69134 -1.21911,2.42756 z" />

<path style="fill:#784421"
d="m 808.233,361.128 c 5.44504,-2.99674 9.36025,-8.18624 15.49808,-9.83563 5.63418,-2.73454 12.35223,-1.78984 18.23365,-0.3157 7.41105,1.73741 12.10162,8.31264 17.91077,12.68589 3.38122,5.0399 6.95012,9.78195 11.6356,13.77941 5.9694,3.90913 10.15887,9.83081 15.72671,14.2458 5.29037,4.59907 9.90039,9.84157 14.05023,15.47555 4.90639,6.16309 9.93465,12.30515 13.94016,19.1196 3.72326,7.00184 7.58313,14.0832 9.14037,21.93312 1.86925,3.67649 2.28603,13.19131 -3.05633,6.67511 -5.67353,-3.64918 -9.12069,-10.0597 -15.47086,-12.69193 -5.34229,-3.46369 -7.63615,-9.70753 -11.27429,-14.35294 -1.28121,-3.05778 -3.74708,-9.59132 -3.96208,-10.72852 2.53068,6.33659 3.64063,13.51131 7.92248,18.9587 3.50229,4.30928 7.69903,8.55557 9.01082,14.13227 0.50987,4.61195 3.79586,12.88974 -1.9953,15.06513 -6.38535,0.55181 -8.72791,9.55915 -15.31557,8.0158 -3.70879,0.32609 -6.45687,-1.05194 -9.26115,-1.93599 -4.4925,4.65759 -11.73685,-0.58961 -17.27612,2.359 -6.56094,-0.746 -11.27359,-5.79658 -16.87595,-8.74026 -4.40698,-4.80075 -8.94445,-9.59646 -12.65696,-15.03996 -4.48985,-6.10705 -9.08472,-12.22097 -11.51391,-19.50718 -2.64243,-5.57582 -3.64456,-11.53365 -4.56402,-17.52622 -1.03216,-7.69193 -0.93593,-15.5799 -0.29249,-23.30426 0.89955,-6.59157 -3.36698,-12.62338 -6.84295,-17.88928 -3.45581,-5.68225 -12.84007,-1.569 -15.7415,-7.64686 2.22171,-4.22567 9.56368,0.17677 13.03061,-2.93065 z" />

<!-- fish -->
<path
style="fill:#786721"
d="m 764.39905,96.949683 c -4.67727,2.322116 1.29888,6.828217 -4.89663,5.580747 -3.17812,5.16634 -12.59719,11.83276 -9.06458,15.88009 -5.27979,-2.00155 -13.92888,8.51192 -15.02117,12.58432 7.15373,2.60702 20.10252,3.88598 6.50686,5.33003 -19.91682,3.25856 -39.90817,6.07164 -59.86512,9.00622 -6.98722,-0.51803 -16.96757,-8.20756 -23.80034,-2.00509 -2.93072,5.40761 14.67884,5.24787 3.09948,6.09738 -12.30189,1.35592 -25.64099,-0.21949 -35.40738,-8.40941 -10.86111,-6.70854 -22.88427,-12.32051 -35.78849,-13.14665 -3.07952,2.44015 -1.71937,7.93313 -1.84428,11.78114 -0.5101,5.6823 2.63791,6.76301 0.31673,10.9463 0.69024,3.6408 4.4347,7.87393 3.53315,10.0909 3.24429,4.3915 -2.19002,9.33468 -1.24123,13.5409 4.5177,1.85082 -5.63431,3.39256 -3.73052,8.73754 0.43337,3.28706 -4.25449,10.26637 -1.57962,10.77129 14.9818,0.57186 29.16928,-4.48672 43.0966,-9.3257 3.95809,-1.2962 9.35069,-2.57858 12.07462,-3.66907 10.68918,-1.62584 22.12232,-1.27645 32.22611,2.93853 -10.03229,-1.91099 -15.27412,5.07821 -11.57064,15.35031 1.74467,7.52122 3.52069,21.93705 14.2531,15.00151 12.24913,-4.84654 23.36988,-11.92441 34.91825,-18.12155 11.48579,-2.13997 23.25136,0.88661 34.76766,1.83022 2.73726,0.93977 11.93463,0.55706 10.47149,2.27598 -3.10348,3.10167 -1.31837,8.12326 -3.16471,10.82828 0.008,4.49769 -4.55558,10.92705 0.56857,14.10917 4.77687,-0.33386 8.36132,-5.43933 12.00995,-8.38562 2.88184,-1.52315 6.92921,-9.87736 8.67132,-3.65092 3.48154,3.5201 5.46902,-3.39071 7.9358,-5.08622 1.80838,-5.06433 4.66565,-6.60341 9.9578,-4.92438 18.21472,0.2914 36.4059,-1.59038 54.31801,-4.82296 0.59533,5.23246 -2.03407,12.37078 2.86809,15.99522 5.9927,-2.23375 9.18153,-8.88736 13.2847,-13.54026 2.73476,-3.47019 4.4907,-8.5786 9.73125,-8.32525 10.22432,-2.16243 20.16307,-5.24501 30.26292,-6.71277 12.47487,-4.01358 26.98933,-4.4056 37.06197,-13.6507 2.49024,-5.66254 -4.64333,-2.58824 -7.40327,-3.39381 -0.6347,-1.74952 8.25764,-2.29138 7.63464,-6.54984 -2.84195,-7.40914 -11.63465,-10.05366 -18.21054,-13.35744 -9.22187,-3.75244 -18.8752,-5.83127 -28.28173,-8.97709 -15.05143,-2.66702 -29.7535,-7.23073 -45.04599,-8.6463 -15.54841,-2.18279 -31.33372,-1.31339 -46.90797,-2.75581 -8.58564,-9.12618 -19.24777,-19.53949 -29.98509,-27.55213 -2.16957,-1.32985 -4.25649,-3.020564 -6.75977,-3.667107 z" />

<!-- frog -->
<path style="fill:#426e34" d="m 898.63264,587.61101 c -9.21933,-1.0474 -7.69761,12.42499 -17.39296,11.05613 -13.92758,4.50437 -26.91756,11.43777 -40.78115,16.1535 -10.71957,4.45296 -20.89755,10.4564 -29.58377,18.19062 -9.40571,0.23176 -20.93176,-2.1e-4 -27.17959,8.27678 -4.64141,6.44545 5.09019,11.60242 7.64142,11.8241 -4.0747,3.89846 -11.72765,-1.46364 -15.33977,4.85678 -5.59142,6.40794 -1.44184,15.23775 0.0592,22.40571 3.47905,14.01471 15.91214,25.22038 30.23988,27.10068 8.97199,2.42266 18.27309,5.50026 24.42641,12.93863 4.2354,2.83212 6.70763,14.53376 10.29297,5.64059 2.43933,-7.18426 14.25438,-6.02936 16.79741,-5.75826 -6.02902,-0.67407 -7.13716,-7.87821 -7.64892,-10.85387 -5.21976,-1.85072 -15.2938,-1.03072 -17.5265,-3.83148 5.75185,-5.1078 -3.44812,-17.87389 5.99238,-17.09868 7.2674,0.0121 15.99703,-2.49245 22.17439,2.47459 5.35794,5.28234 12.25808,10.60886 20.29547,9.03426 8.43739,-0.91179 16.87603,-0.8238 25.31652,0.0867 -6.49692,-2.653 -5.9983,-9.94761 -3.17237,-13.08599 -6.98417,1.67803 -16.58397,1.08908 -18.42658,-7.38083 0.56639,-4.81449 11.71287,-1.60118 3.18355,-4.5323 -8.42469,-1.72084 -12.8263,-11.2248 -4.53846,-16.81222 5.29604,-6.56421 9.00175,-15.44846 17.83273,-18.03464 8.35125,-1.72277 10.30391,-11.22891 17.45885,-14.54272 6.74686,-3.42035 11.3991,-9.51573 15.89813,-15.41676 3.16687,-8.29694 -7.58859,-11.89618 -13.85616,-12.94846 -6.66223,-1.0546 -13.2173,-1.09689 -15.84558,-7.69263 -2.03431,-0.81314 -4.05793,-2.14446 -6.31752,-2.05019 z m -89.06691,45.72751 c -0.64576,4.45153 -7.87899,11.16306 -12.12619,14.95652 -1.86747,3.10709 -7.99501,4.95327 -2.74411,0.62138 6.20296,-3.98871 9.5737,-10.72884 14.8703,-15.5779 z m 66.54811,13.1964 c 0.151,4.40641 -8.76746,9.33157 -7.11217,15.77107 -2.43677,6.7867 -6.44205,13.50287 -4.26498,21.1053 1.10531,2.16424 4.20236,13.59169 0.56054,6.24469 -0.98406,-4.92764 -2.01258,-7.37052 -6.56559,-3.55284 -3.32922,2.1421 -12.09128,0.66908 -3.72025,-0.46811 7.30239,-0.537 9.44074,-4.50313 8.18576,-11.29323 2.06167,-6.41459 4.60688,-12.59049 6.06959,-19.16967 1.95048,-3.08194 4.15776,-6.21404 6.8471,-8.63721 z m -85.1133,8.19911 c 11.41855,7.18001 23.18088,16.21691 28.26553,29.19907 2.20354,2.60382 0.3384,12.02442 -0.35829,4.32855 -2.74534,-13.94707 -15.12285,-23.13877 -26.0629,-30.88356 -0.49543,-0.60247 -3.84627,-1.69076 -1.84434,-2.64406 z m 20.35183,5.45723 c 11.17895,5.17172 19.02484,16.18432 22.55087,27.71069 -3.74568,-2.53552 -5.0682,-11.41811 -9.47055,-15.39102 -3.08276,-5.31168 -10.18892,-8.25033 -13.46617,-12.13393 z m -32.0977,5.35109 c 7.00635,4.39187 8.308,13.47068 13.56572,19.46555 4.66008,6.9107 9.22739,14.84069 18.0809,16.75382 5.96374,1.96107 10.42449,9.79579 17.82223,6.21788 6.92781,-1.05603 -4.78957,4.05615 -7.46249,1.57224 -6.2433,-3.66127 -12.04981,-7.5768 -18.98399,-10.39164 -6.54824,-6.07298 -11.03168,-14.18753 -15.79978,-21.69274 -0.49788,-4.74949 -7.19415,-8.54325 -7.22259,-11.92511 z" />

<!-- mouse -->
<path style="fill:#808080;" d="m 239.20583,205.94709 c -21.57227,-0.79547 -43.17539,-0.73407 -64.71791,-2.31241 -21.41023,-1.10707 -42.71251,-3.88832 -63.88724,-7.14897 -7.75637,-1.57827 -15.120686,-4.73012 -23.057236,-5.49466 -8.883595,-1.60197 -9.943814,-10.18531 -7.241082,-17.38369 0.208649,-5.31645 -3.434842,-8.96212 -1.99958,-14.06605 -3.257415,-2.22931 -0.719133,-6.21374 0.463516,-8.31533 -3.134648,-2.29706 1.55579,-8.24623 3.405909,-11.23624 2.798139,-2.09428 -2.429628,-0.9101 2.228115,-3.46674 2.55752,-5.22375 7.333376,-9.35982 12.656282,-11.98729 5.913536,-2.82027 11.533326,-6.19426 17.398506,-9.08465 6.4846,-2.40029 13.29454,-3.65188 20.18413,-2.53073 8.28482,-0.16696 16.56504,1.71164 24.36003,4.34861 4.86613,3.01454 12.01816,2.34325 16.48092,-0.21925 5.47176,-3.02069 11.51587,-3.94102 16.92035,-6.61542 3.44877,-4.61038 11.16287,-6.59435 11.75344,1.20036 5.45075,3.85667 13.55316,1.01349 19.20598,5.28389 4.68423,4.3518 16.31298,4.01934 16.49894,10.89542 -1.49722,6.61029 -7.84767,10.06148 -13.38187,11.80989 -4.69568,4.4397 -12.29841,2.17482 -18.21811,3.41009 -6.19366,-0.0345 -8.24215,5.40226 -10.82788,9.63738 -2.49673,4.7291 -7.26603,8.89099 -6.8838,14.72464 -0.58692,6.03375 1.72391,11.6341 4.52239,16.80522 2.58224,3.49235 7.50969,4.74335 9.33634,8.82398 -1.06831,-3.70126 6.59399,2.01094 0.19373,1.20625 -6.48943,0.5459 -12.94068,-1.22843 -19.22707,-2.29051 0.90301,-6.06225 -7.74583,-11.91894 -11.66598,-16.73007 -4.8681,-4.51232 -10.75936,-2.65534 -16.60183,-1.32405 -5.20358,1.02222 -9.02119,3.98954 -12.10361,8.22858 -4.97291,8.88962 7.64345,0.82039 10.58884,6.02044 8.31764,2.65805 -3.96116,4.9495 -7.74315,4.47341 -3.0798,0.007 -6.47477,0.34005 -1.3588,1.05625 22.76035,3.69489 45.8563,4.48186 68.78883,6.62602 10.85064,0.98692 21.8199,1.53845 32.54487,3.34242 -1.8627,2.64277 -5.6733,2.89446 -8.61597,2.31321 z M 134.76906,191.24473 c 0.15285,-0.61273 6.53983,-4.69346 1.89131,-6.22072 -3.54435,2.53442 -11.8447,1.98772 -12.83681,4.65779 3.17999,0.77334 8.89502,2.44967 10.9455,1.56293 z m 18.66424,-2.85619 c -0.84776,-1.19034 -0.84776,1.19035 0,0 z" />


</svg>
