<svg xmlns="http://www.w3.org/2000/svg" viewBox="0 0 512 384">
<rect width="512" height="384" fill="none"/>
<path d="m 290.20208,350.88538 c -7.43154,-0.66269 -14.83571,-2.23038 -22.83592,-4.83511 -9.05659,-2.94863 -11.45404,-4.37239 -13.20543,-7.84223 -3.49639,-6.92724 -0.29193,-12.74161 7.02535,-12.74735 2.02287,-10e-4 6.5763,1.18898 13.5403,3.54028 11.89576,4.01641 18.55295,4.91587 25.84829,3.49236 10.87632,-2.12227 23.19794,-12.97879 30.05956,-26.48517 7.15992,-14.09368 15.70154,-50.22046 14.75511,-62.40692 -0.73291,-9.43681 -5.70035,-21.23166 -11.24055,-26.68969 0,0 -3.18943,-3.14216 -3.18943,-3.14216 0,0 -46.91122,-0.4914 -46.91122,-0.4914 -25.80114,-0.27029 -48.91584,-0.54502 -51.36603,-0.6105 -2.45013,-0.0654 -8.03458,0.10543 -12.40987,0.38026 -7.07158,0.44393 -8.2023,0.37038 -10.18175,-0.6623 -3.10721,-1.62107 -4.13213,-3.95356 -2.96485,-6.7473 2.10385,-5.03527 7.75984,-9.32474 12.33643,-9.3559 2.6473,-0.018 3.72335,-1.69719 4.29104,-6.69621 0.23848,-2.10015 1.29226,-8.83011 2.3417,-14.95551 2.23344,-13.03582 2.20826,-19.02595 -0.12134,-28.84876 -1.4548,-6.13417 -1.51565,-6.24874 -3.11515,-5.86149 -0.89727,0.21726 -3.64768,0.56061 -6.11202,0.76304 -4.25452,0.34951 -4.72017,0.24776 -9.22788,-2.01608 -11.20215,-5.62594 -20.83401,-11.64492 -25.46326,-15.91219 -4.21707,-3.8873 -7.51547,-5.88534 -10.98537,-6.6545 -1.68474,-0.37349 -3.73657,-1.12027 -4.55958,-1.65954 -1.20218,-0.78767 -2.56087,-0.89412 -6.90925,-0.54129 -4.91084,0.39844 -5.62417,0.30857 -7.69165,-0.96919 -5.06573,-3.13083 -5.62263,-6.85941 -1.57119,-10.51963 5.44966,-4.92344 6.93245,-4.99901 23.43374,-1.19429 8.31604,1.91748 10.52467,2.69148 14.41049,5.05034 2.52406,1.53219 6.40956,3.46794 8.63442,4.30165 2.22484,0.83374 4.51552,1.71801 5.09034,1.96507 0.81513,0.35035 1.28937,-0.19039 2.15514,-2.45747 1.03309,-2.70496 1.04116,-3.27097 0.11659,-8.15593 -0.54641,-2.88707 -1.16645,-6.54729 -1.37792,-8.1338 -0.2114,-1.5865 -0.91813,-3.76221 -1.57047,-4.83491 -1.15941,-1.90649 -1.26274,-1.93944 -4.5957,-1.46459 -3.48159,0.49607 -8.47609,2.07594 -9.71871,3.07429 -2.66044,2.13751 -11.73154,5.96396 -15.35465,6.47705 -3.8799,0.54948 -4.3058,0.48195 -6.82902,-1.08296 -4.97503,-3.08555 -5.55361,-3.89922 -5.56606,-7.82761 -0.006,-2.14075 -0.76417,-5.93433 -1.90922,-9.56283 -2.3186,-7.34748 -2.33503,-8.38056 -0.25049,-15.748601 0,0 1.6559,-5.852889 1.6559,-5.852889 0,0 -2.38966,-2.102147 -2.38966,-2.102147 -1.31435,-1.156184 -2.82011,-2.418711 -3.3461,-2.805615 -1.72649,-1.269914 -0.40599,-2.796752 2.41884,-2.796752 0,0 2.57195,0 2.57195,0 0,0 -2.79014,-5.568544 -2.79014,-5.568544 -3.24125,-6.468768 -4.06637,-9.384895 -2.79375,-9.873245 0.4722,-0.181234 5.28391,0.780212 10.69261,2.136499 11.16025,2.798548 11.50505,2.825419 19.96225,1.555876 6.52147,-0.97899 9.09199,-0.834553 22.96475,1.290321 11.70001,1.792046 13.98314,2.593572 30.47547,10.698649 8.79011,4.319896 18.41635,8.807764 21.3915,9.973093 7.29972,2.859101 25.67944,12.199895 32.97171,16.756565 22.73922,14.20893 35.75884,27.65996 44.86965,46.35639 7.30404,14.98881 9.92601,26.32228 10.64206,46.00019 0.60766,16.69998 0.92025,18.05194 7.28426,31.50203 8.63963,18.25935 11.0603,27.4667 11.59413,44.0996 0.51362,16.00401 -1.37114,28.39792 -6.92978,45.5683 -11.17078,34.5064 -28.24247,55.69065 -48.4877,60.16857 -5.30321,1.17297 -12.97001,1.55006 -19.56236,0.96218 0,0 -1.1e-4,0 -1.1e-4,0 M 254,196 c 4.24676,-1.69644 6.75388,-3.04933 6.88181,-3.71356 0.11056,-0.57469 -1.52059,-3.58013 -3.62506,-6.67871 -3.73421,-5.49818 -7.70841,-13.04336 -7.7094,-14.63653 -3e-4,-0.43752 -0.21529,-0.79392 -0.47782,-0.79197 -0.26249,0.001 -1.25509,2.85231 -2.20575,6.33422 -0.95064,3.48186 -3.13425,9.42272 -4.85245,13.20186 -4.77665,10.50611 -4.83174,9.73136 0.66216,9.30983 C 246.044,198.76652 249.15347,197.93603 254,196 c 0,0 0,0 0,0" style="fill:#000000;" />
</svg>
