<svg xmlns="http://www.w3.org/2000/svg" viewBox="0 0 512 368">
<rect width="512" height="368" id="P013WIImgRct7" fill="#fff"/>

<path d="M256.797009431 115.978070463C256.58713447 115.975558137 256.371062437 115.99801355 256.159428847 116.05359578C254.904426108 116.383100546 253.758518151 117.777520651 253.701356744 119.073735114C253.664150387 119.919081502 254.846594747 120.372867465 255.127532655 121.171057486C255.311961339 121.69505699 255.695844811 122.48549469 255.261762665 122.832135914C254.289982854 123.608193536 252.872827391 121.289579474 251.704715254 121.716339984C250.912710341 122.00571213 250.907697652 123.218627421 250.345642385 123.847211483C249.456446331 124.84173383 248.078854027 125.323897118 247.233157111 126.355625822C246.867422206 126.801695355 246.644028536 127.356189716 246.427800978 127.890872589C246.196463571 128.462666112 246.215198348 129.134749312 245.90762978 129.669408258C244.977566551 131.286185997 243.36413858 132.407927767 242.065481178 133.746722573C240.916761809 134.930782001 239.44165535 135.84621392 238.567222205 137.244981546C238.307375876 137.660628002 237.96439547 138.15513758 238.089018822 138.629201607C238.419999879 139.888236032 241.585662728 140.05054428 241.016812216 141.22146783C240.236136699 142.828447496 237.387003048 139.573034777 235.740017574 140.265096954C234.636795239 140.7286451 234.442616336 142.276058704 233.726591352 143.234762454C232.897918437 144.344636473 232.095768511 145.492949085 231.092393205 146.447920236C229.867681943 147.613424339 228.354675247 148.436462464 227.015078889 149.46805957C225.474879251 150.654296347 223.375866442 151.394391811 222.459621008 153.108875121C222.195061075 153.603958945 222.535828241 154.269845072 222.316992649 154.786726319C222.127108628 155.23521247 221.351027079 155.407151302 221.3606457 155.894111937C221.367823776 156.267072772 221.805758156 156.513280758 222.124057946 156.707854455C224.281416544 158.026777956 226.968086422 158.173150877 229.414266847 158.813578764C232.725142162 159.680403149 235.985280447 161.119463706 239.405956389 161.170954433C239.405956389 161.170954433 234.364076228 162.286714473 234.364076228 162.286714473C234.364076228 162.286714473 225.320562593 163.905825087 225.320562593 163.905825087C225.320562593 163.905825087 207.870876638 166.464545771 207.870876638 166.464545771C207.870876638 166.464545771 197.753283654 168.066907543 197.753283654 168.066907543C197.753283654 168.066907543 183.181168492 170.407534369 183.181168492 170.407534369C183.181168492 170.407534369 168.659275931 172.135727803 168.659275931 172.135727803C168.659275931 172.135727803 159.170936963 173.654165909 159.170936963 173.654165909C159.170936963 173.654165909 157.870616641 173.956171468 157.870616641 173.956171468C157.870616641 173.956171468 158.046766612 173.847184357 158.046766612 173.847184357C158.046766612 173.847184357 154.11227207 173.100568808 154.11227207 173.100568808C152.314511122 172.439432173 150.510397578 171.808874139 148.692669618 171.204575898C147.275298813 170.733335248 145.852927282 170.284693572 144.422588087 169.853925304C143.162297499 169.474360641 141.892830937 169.106867107 140.622311591 168.763324418C140.622311591 168.763324418 137.098833647 168.494864398 137.098833647 168.494864398C137.098833647 168.494864398 132.962982126 169.308606916 132.962982126 169.308606916C132.962982126 169.308606916 130.253174919 170.667667822 130.253174919 170.667667822C130.253174919 170.667667822 129.095423137 172.764981819 129.095423137 172.764981819C129.095423137 172.764981819 129.095423137 174.325399704 129.095423137 174.325399704C129.095423137 174.325399704 130.655852985 175.273360268 130.655852985 175.273360268C131.702356561 175.541640836 132.744541328 175.835092522 133.77667679 176.154229754C134.73250931 176.449822899 136.399760884 176.572962782 137.342050768 176.909267578C138.30722675 177.253683599 138.688801275 177.777910409 139.523264504 178.192815131C139.523264504 178.192815131 139.162506397 178.276678979 139.162506397 178.276678979C139.162506397 178.276678979 135.328672399 178.61224204 135.328672399 178.61224204C135.328672399 178.61224204 131.184243079 178.939442644 131.184243079 178.939442644C131.184243079 178.939442644 123.608657827 179.258232936 123.608657827 179.258232936C123.608657827 179.258232936 118.818321354 179.174249454 118.818321354 179.174249454C118.818321354 179.174249454 112.501268062 178.284981619 112.501268062 178.284981619C112.501268062 178.284981619 107.702605023 177.127265728 107.702605023 177.127265728C107.702605023 177.127265728 102.560040391 175.793363977 102.560040391 175.793363977C102.560040391 175.793363977 98.0467417388 173.234643293 98.0467417388 173.234643293C98.0467417388 173.234643293 97.929380206 173.234643293 97.929380206 173.234643293C97.929380206 173.234643293 89.8673607109 167.823630604 89.8673607109 167.823630604C89.8673607109 167.823630604 81.8136558198 163.31865852 81.8136558198 163.31865852C81.8136558198 163.31865852 71.7465247059 158.42764954 71.7465247059 158.42764954C71.7465247059 158.42764954 61.0082435421 154.979577278 61.0082435421 154.979577278C61.0082435421 154.979577278 51.897638829 153.159121649 51.897638829 153.159121649C51.897638829 153.159121649 48.3489060224 152.966174982 48.3489060224 152.966174982C48.3489060224 152.966174982 46.2431936769 154.400749241 46.2431936769 154.400749241C46.2431936769 154.400749241 46.2431936769 157.471362409 46.2431936769 157.471362409C46.2431936769 157.471362409 46.5284503933 159.199555842 46.5284503933 159.199555842C46.5284503933 159.199555842 45.6643297497 162.941295133 45.6643297497 162.941295133C45.6643297497 162.941295133 46.142509206 167.060493518 46.142509206 167.060493518C46.142509206 167.060493518 46.0502709371 172.043597205 46.0502709371 172.043597205C46.0502709371 172.043597205 46.9143556903 174.442928725 46.9143556903 174.442928725C46.9143556903 174.442928725 48.927781913 175.692906811 48.927781913 175.692906811C48.927781913 175.692906811 46.5284743202 176.93452244 46.5284743202 176.93452244C46.5284743202 176.93452244 46.1425331329 179.33385396 46.1425331329 179.33385396C46.1425331329 179.33385396 48.0636971598 183.50325102 48.0636971598 183.50325102C48.0636971598 183.50325102 48.9697377638 186.909439212 48.9697377638 186.909439212C48.9697377638 186.909439212 49.5989199995 189.015163521 49.5989199995 189.015163521C49.5989199995 189.015163521 52.0402193334 190.693014719 52.0402193334 190.693014719C52.0402193334 190.693014719 50.7482614691 192.228261486 50.7482614691 192.228261486C50.7482614691 192.228261486 51.8976149021 194.719867165 51.8976149021 194.719867165C51.8976149021 194.719867165 51.8472487397 198.176242068 51.8472487397 198.176242068C51.8472487397 198.176242068 48.6340789946 207.379216648 48.6340789946 207.379216648C48.6340789946 207.379216648 49.2632612303 208.427861683 49.2632612303 208.427861683C49.2632612303 208.427861683 51.8471649955 210.063780957 51.8471649955 210.063780957C51.8471649955 210.063780957 47.1996363336 211.640971611 47.1996363336 211.640971611C47.1996363336 211.640971611 45.614059295 215.432909575 45.614059295 215.432909575C45.614059295 215.432909575 44.8002689234 218.880981838 44.8002689234 218.880981838C44.8002689234 218.880981838 43.8942283195 222.81547638 43.8942283195 222.81547638C43.8942283195 222.81547638 43.4076864055 225.835615714 43.4076864055 225.835615714C43.4076864055 225.835615714 42.3590174434 229.23320218 42.3590174434 229.23320218C42.3590174434 229.23320218 41.100629045 231.817105945 41.100629045 231.817105945C41.100629045 231.817105945 51.1342026564 231.540271504 51.1342026564 231.540271504C51.1342026564 231.540271504 63.4748934456 230.189608946 63.4748934456 230.189608946C63.4748934456 230.189608946 75.6727524978 226.934567095 75.6727524978 226.934567095C75.6727524978 226.934567095 83.6762467515 224.22477185 83.6762467515 224.22477185C83.6762467515 224.22477185 91.0000251187 221.649242506 91.0000251187 221.649242506C91.0000251187 221.649242506 100.412647354 218.830460151 100.412647354 218.830460151C100.412647354 218.830460151 101.436145198 218.528442628 101.436145198 218.528442628C101.436145198 218.528442628 107.677768882 216.766691692 107.677768882 216.766691692C107.677768882 216.766691692 107.182780766 216.74994285 107.182780766 216.74994285C107.182780766 216.74994285 110.093932988 215.860675015 110.093932988 215.860675015C110.093932988 215.860675015 119.103877157 215.097238843 119.103877157 215.097238843C119.103877157 215.097238843 130.035164805 215.474733828 130.035164805 215.474733828C130.035164805 215.474733828 139.238139385 216.817021964 139.238139385 216.817021964C139.238139385 216.817021964 147.467934429 219.736488791 147.467934429 219.736488791C146.630707642 219.482360995 145.721125854 219.214606819 144.707940511 218.931120695C144.707940511 218.931120695 142.182753403 220.256624098 142.182753403 220.256624098C142.18281322 220.256624098 140.365623615 220.779367439 139.439388692 220.969706072C138.487683566 221.165308626 138.059918126 221.197538185 137.098797756 221.338826636C136.529301218 221.410966293 135.475583676 221.563057748 135.14408819 221.313703372C134.812568778 221.064313105 134.243790047 221.335596502 133.483009762 222.261687863C132.294858832 223.70811791 134.108459399 224.386697268 133.524881869 225.776851204C132.981932245 227.162016377 133.24860971 228.962624628 133.164147689 231.003435208C133.116772392 232.65245447 133.156969614 234.108144234 133.298389663 235.751899574C133.434485972 237.328731324 133.763098264 238.881037983 134.112156107 240.424659171C134.463965546 241.980949662 134.929009125 243.515670036 135.404078081 245.038893526C135.952447152 246.796804192 136.718922043 248.479440773 137.199398483 250.257162927C137.435282004 251.129969041 137.332001463 252.103734787 137.727908211 252.916544155C137.894152438 253.257777896 138.423188558 253.404545611 138.474571615 253.780652835C138.557239116 254.771813449 137.248699898 254.43957623 139.481296689 256.012208805C139.521374277 256.542130222 139.620718841 256.917459821 140.202741121 257.278983589C140.639335594 257.602415703 141.124944358 257.870074171 141.63731538 258.050806146C142.281607464 258.278064013 142.967556313 258.431471448 143.650753566 258.428313095C144.62849118 258.423527711 146.528324359 257.857847516 146.528324359 257.857847516C146.528324359 257.857847516 151.796804397 255.55917654 151.796804397 255.55917654C151.796804397 255.55917654 157.073575112 253.15984502 157.073575112 253.15984502C157.073575112 253.15984502 163.398966936 250.374608204 163.398966936 250.374608204C163.398966936 250.374608204 168.961125965 247.404942703 168.961125965 247.404942703C168.961125965 247.404942703 173.944480884 244.821038938 173.944480884 244.821038938C173.944480884 244.821038938 180.278450508 241.171633624 180.278450508 241.171633624C180.278450508 241.171633624 184.97644104 238.201968123 184.97644104 238.201968123C184.97644104 238.201968123 189.003305449 236.280839986 189.003305449 236.280839986C189.003305449 236.280839986 192.451353785 234.368086271 192.451353785 234.368086271C192.451353785 234.368086271 196.067189633 233.512375939 196.067189633 233.512375939C196.067189633 233.512375939 203.743459356 233.378145929 203.743459356 233.378145929C203.743459356 233.378145929 220.891115825 234.938563813 220.891115825 234.938563813C220.891115825 234.938563813 234.045501278 236.557662464 234.045501278 236.557662464C234.045501278 236.557662464 245.706464217 238.185195353 245.706464217 238.185195353C245.706464217 238.185195353 247.979964075 238.428484256 247.979964075 238.428484256C247.979964075 238.428484256 247.292053219 238.730489815 247.292053219 238.730489815C247.292053219 238.730489815 245.4715617 240.123120186 245.4715617 240.123120186C245.4715617 240.123120186 244.708149454 241.557694446 244.708149454 241.557694446C244.708149454 241.557694446 244.372586393 243.478822582 244.372586393 243.478822582C244.372586393 243.478822582 244.271854068 249.418440706 244.271854068 249.418440706C244.271854068 249.418440706 242.786937573 249.519053397 242.786937573 249.519053397C242.786937573 249.519053397 242.786937573 254.024025481 242.786937573 254.024025481C242.786937573 254.024025481 241.880896969 257.47208578 241.880896969 257.47208578C241.880896969 257.47208578 240.65609 261.003902256 240.65609 261.003902256C240.65609 261.003902256 240.723205005 265.785648964 240.723205005 265.785648964C240.723205005 265.785648964 241.536959487 267.480284895 241.536959487 267.480284895C241.536959487 267.480284895 242.619162024 268.79738995 242.619162024 268.79738995C242.619162024 268.79738995 244.347379385 269.443344956 244.347379385 269.443344956C244.347379385 269.443344956 246.050389737 268.788991602 246.050389737 268.788991602C246.050389737 268.788991602 251.897637994 264.661454686 251.897637994 264.661454686C251.897637994 264.661454686 264.548672873 252.77392776 264.548672873 252.77392776C264.548672873 252.77392776 265.999995975 251.23866903 265.999995975 251.23866903C265.999995975 251.23866903 267.535254705 253.033977468 267.535254705 253.033977468C267.535254705 253.033977468 268.214779176 254.728625362 268.214779176 254.728625362C268.214779176 254.728625362 269.364084755 255.953456258 269.364084755 255.953456258C269.364084755 255.953456258 271.260089628 255.953456258 271.260089628 255.953456258C271.260089628 255.953456258 272.484896597 255.005471767 272.484896597 255.005471767C272.484896597 255.005471767 274.38090147 252.765517448 274.38090147 252.765517448C274.38090147 252.765517448 276.008386505 250.324242041 276.008386505 250.324242041C276.008386505 250.324242041 277.703058326 248.629594147 277.703058326 248.629594147C277.703058326 248.629594147 279.599003382 245.919786939 279.599003382 245.919786939C279.599003382 245.919786939 281.343981548 241.968376066 281.343981548 241.968376066C281.343981548 241.968376066 281.503382676 241.985244543 281.503382676 241.985244543C281.503382676 241.985244543 289.817221019 242.757055137 289.817221019 242.757055137C289.817221019 242.757055137 309.330531871 242.513766235 309.330531871 242.513766235C309.330531871 242.513766235 324.187999457 241.27216257 324.187999457 241.27216257C324.187999457 241.27216257 340.966547326 239.258724383 340.966547326 239.258724383C340.966547326 239.258724383 353.810600652 237.144625653 353.810600652 237.144625653C353.810600652 237.144625653 354.599160089 236.968451756 354.599160089 236.968451756C354.599160089 236.968451756 354.481678922 242.035586779 354.481678922 242.035586779C354.481678922 242.035586779 354.607510583 248.360954675 354.607510583 248.360954675C354.607510583 248.360954675 354.867560292 252.220019608 354.867560292 252.220019608C354.867560292 252.220019608 356.235031509 254.669693363 356.235031509 254.669693363C356.235031509 254.669693363 358.030327984 256.104267622 358.030327984 256.104267622C358.030327984 256.104267622 359.473288628 255.844205951 359.473288628 255.844205951C359.473288628 255.844205951 361.360895152 254.728445911 361.360895152 254.728445911C361.360895152 254.728445911 365.706406292 250.257031329 365.706406292 250.257031329C365.706406292 250.257031329 372.350708042 242.119558297 372.350708042 242.119558297C372.350708042 242.119558297 378.995009791 232.765461303 378.995009791 232.765461303C378.995009791 232.765461303 380.29535404 231.146338726 380.29535404 231.146338726C380.29535404 231.146338726 384.683012446 230.148000036 384.683012446 230.148000036C384.683012446 230.148000036 402.233382872 226.121159554 402.233382872 226.121159554C402.233382872 226.121159554 408.00520152 224.359408618 408.00520152 224.359408618C408.00520152 224.359408618 414.045480189 223.27720608 414.045480189 223.27720608C414.045480189 223.27720608 413.936373443 223.235333974 413.936373443 223.235333974C413.936373443 223.235333974 413.995114026 223.226959552 413.995114026 223.226959552C413.995114026 223.226959552 418.265195557 222.824269522 418.265195557 222.824269522C418.265195557 222.824269522 424.766940729 221.138043903 424.766940729 221.138043903C424.766940729 221.138043903 432.980118529 219.032319594 432.980118529 219.032319594C432.980118529 219.032319594 447.854227286 215.248696234 447.854227286 215.248696234C447.854227286 215.248696234 455.505254111 212.698361934 455.505254111 212.698361934C455.505254111 212.698361934 462.753578942 208.537279479 462.753578942 208.537279479C462.753578942 208.537279479 466.109293301 205.584243186 466.109293301 205.584243186C466.109293301 205.584243186 466.931470058 203.721831706 466.931470058 203.721831706C466.931470058 203.721831706 466.553927218 202.161425786 466.553927218 202.161425786C466.553927218 202.161425786 465.362653825 201.163087096 465.362653825 201.163087096C465.362653825 201.163087096 464.347566292 200.928184578 464.347566292 200.928184578C464.347566292 200.928184578 462.308968952 201.423112877 462.308968952 201.423112877C462.308968952 201.423112877 460.312315499 201.968395375 460.312315499 201.968395375C460.312315499 201.968395375 458.105954573 201.82577898 458.105954573 201.82577898C458.105954573 201.82577898 456.302247786 201.188198396 456.302247786 201.188198396C456.302247786 201.188198396 461.881047987 198.738536604 461.881047987 198.738536604C461.881047987 198.738536604 464.699842306 197.127800411 464.699842306 197.127800411C464.699842306 197.127800411 466.176348489 195.517052255 466.176348489 195.517052255C466.176348489 195.517052255 466.386091852 193.688198278 466.386091852 193.688198278C466.386091852 193.688198278 465.631065991 191.263707604 465.631065991 191.263707604C465.631065991 191.263707604 463.827347241 189.082493868 463.827347241 189.082493868C463.827347241 189.082493868 460.832450806 186.330814554 460.832450806 186.330814554C460.832450806 186.330814554 457.417948009 184.149612782 457.417948009 184.149612782C457.417948009 184.149612782 453.290423056 181.825782652 453.290423056 181.825782652C453.290423056 181.825782652 448.777124404 179.451610287 448.777124404 179.451610287C448.777124404 179.451610287 443.089073895 177.077437922 443.089073895 177.077437922C443.089073895 177.077437922 437.770395184 175.181445012 437.770395184 175.181445012C437.770395184 175.181445012 432.501939073 173.377750189 432.501939073 173.377750189C432.501939073 173.377750189 427.803936577 171.951574278 427.803936577 171.951574278C427.803936577 171.951574278 424.817366709 171.57406733 424.817366709 171.57406733C424.817366709 171.57406733 420.639367922 170.05561726 420.639367922 170.05561726C420.639367922 170.05561726 415.748358943 168.302276635 415.748358943 168.302276635C415.748358943 168.302276635 410.765255256 166.968374884 410.765255256 166.968374884C408.850730949 166.540071088 407.704858882 166.573748225 405.47156821 166.196552326C405.47156821 166.196552326 401.083909804 165.223396718 401.083909804 165.223396718C401.083909804 165.223396718 394.640941106 163.637831642 394.640941106 163.637831642C394.640941106 163.637831642 388.466444391 162.211655732 388.466444391 162.211655732C388.466444391 162.211655732 379.968177364 160.189855087 379.968177364 160.189855087C379.968177364 160.189855087 372.845744011 158.931466689 372.845744011 158.931466689C372.845744011 158.931466689 363.147745425 157.522063548 363.147745425 157.522063548C363.147745425 157.522063548 353.181286819 156.0958996 353.181286819 156.0958996C353.181286819 156.0958996 343.894292866 155.307304273 343.894292866 155.307304273C343.894292866 155.307304273 331.142597443 154.627779802 331.142597443 154.627779802C331.142597443 154.627779802 314.171031127 154.376116479 314.171031127 154.376116479C314.171031127 154.376116479 303.675991011 153.235173357 303.675991011 153.235173357C303.675991011 153.235173357 300.756512221 153.327531261 300.756512221 153.327531261C300.95026044 153.15546083 301.082528442 152.952572529 301.092087246 152.698313135C300.132103406 150.65357854 297.393823165 149.579379556 295.605357826 147.949848769C292.170995687 144.820447164 288.90306919 141.506341715 285.546553279 138.293722289C282.435671109 135.31628054 279.412588763 132.252917229 276.201046049 129.384187432C274.21274309 127.608319614 272.158353983 125.905249445 270.06842144 124.249949367C268.377458292 122.910508534 266.6630348 121.585651158 264.883972739 120.365653499C263.640622408 119.513139803 262.396721759 118.652275613 261.05013874 117.974723917C259.681686519 117.286182586 258.264901924 115.99249002 256.796710345 115.978075249C256.796710345 115.978075249 256.796949614 115.978526271 256.796949614 115.978526271" style="fill:#786721" />

</svg>
