<svg xmlns="http://www.w3.org/2000/svg" viewBox="0 0 512 368">
<rect width="512" height="368" id="P013WIImgRct2" fill="#fff"/>

<path style="fill:#808080;" d="m 449.94175,322.71002 c -55.6581,-2.05238 -111.39577,-1.89395 -166.97711,-5.96621 -55.24005,-2.85632 -110.20156,-10.03215 -164.83399,-18.4449 -20.01202,-4.07204 -39.012502,-12.20406 -59.489409,-14.17664 -22.920352,-4.1332 -25.655799,-26.27886 -18.682545,-44.85124 0.53832,-13.71683 -8.862159,-23.12294 -5.159072,-36.29147 -8.404376,-5.75178 -1.855421,-16.03193 1.195915,-21.45418 -8.087629,-5.92659 4.014056,-21.2759 8.787499,-28.99034 7.21941,-5.40341 -6.268616,-2.34816 5.748713,-8.94446 6.598596,-13.47767 18.920667,-24.14905 32.654157,-30.92813 15.257392,-7.27652 29.756872,-15.981665 44.889502,-23.439095 16.73073,-6.192926 34.30089,-9.422102 52.07658,-6.529461 21.37547,-0.430776 42.73904,4.416161 62.85071,11.219751 12.555,7.777735 31.0078,6.04575 42.52206,-0.5657 14.11755,-7.7936 29.71181,-10.168124 43.65578,-17.068282 8.8981,-11.895138 28.80104,-17.013923 30.32478,3.097037 14.06335,9.950475 34.9682,2.614851 49.55288,13.632815 12.0857,11.227995 42.08874,10.370195 42.56852,28.111005 -3.86294,17.05508 -20.24757,25.9594 -34.52625,30.47045 -12.1152,11.45474 -31.73081,5.61118 -47.0041,8.79829 -15.9801,-0.089 -21.26537,13.93822 -27.93674,24.86515 -6.44177,12.20143 -18.74693,22.93944 -17.76075,37.9907 -1.51428,15.56753 4.44784,30.01686 11.66813,43.35874 6.66237,9.01054 19.37557,12.2382 24.08847,22.76654 -2.75632,-9.54952 17.01299,5.18839 0.49982,3.11222 -16.74322,1.40847 -33.38794,-3.16944 -49.60729,-5.90967 2.32982,-15.64109 -19.98484,-30.75181 -30.09912,-43.16488 -12.56007,-11.64213 -27.75995,-6.85097 -42.83399,-3.41614 -13.42563,2.6374 -23.27537,10.29332 -31.22824,21.23036 -12.83048,22.93591 19.72068,2.11665 27.32002,15.53319 21.46015,6.85798 -10.22009,12.77008 -19.97792,11.54173 -7.94614,0.0164 -16.70542,0.87735 -3.50581,2.72522 58.72345,9.53308 118.31274,11.56353 177.48044,17.09563 27.99546,2.54632 56.297,3.96933 83.96825,8.6237 -4.80591,6.81854 -14.63756,7.46793 -22.22989,5.96827 z m -269.45482,-37.9332 c 0.39436,-1.5809 16.87324,-12.10952 4.87972,-16.04996 -9.1447,6.53899 -30.56025,5.12847 -33.11994,12.01745 8.20459,1.99528 22.94983,6.32036 28.24022,4.03251 z m 48.15515,-7.36919 c -2.18726,-3.07118 -2.18726,3.07118 0,0 z" />

</svg>
