<svg xmlns="http://www.w3.org/2000/svg" viewBox="0 0 512 384">
<rect width="512" height="384" fill="none"/>
<path d="M403.013389048 118.695722535C397.691113394 124.419616717 385.129005692 125.352830574 382.304877331 135.058846243C379.48074897 144.764861913 369.203719409 189.242525083 356.481815341 210.226955744C354.65907241 234.276270372 350.897474966 256.381408707 354.436426252 282.838323385C354.981864809 286.915258336 357.489600103 290.017427756 358.271539041 294.343650756C361.196869202 297.312654705 370.318027752 296.625540226 370.032531801 302.013865338C369.804552866 306.326223119 353.004658288 306.669258076 349.579685474 303.803578042C342.995026224 298.293808571 345.221509799 283.850363372 339.864081803 277.724850662C340.28062111 286.057681938 338.765749799 294.415021994 342.419757107 300.479818023C344.314937832 303.624605672 352.257871692 305.009511177 352.135360778 309.428403535C351.93827896 316.505239551 332.075622528 311.157399557 330.658764347 308.917050765C328.420548665 305.378099479 328.621896704 298.980934046 326.567975173 293.577688156C324.234957023 287.436188112 322.921433752 287.631147816 323.244215154 279.771306307C323.572329333 271.804930222 320.684284625 261.192342586 319.409113361 252.413141442C317.706748234 240.694755915 316.22704026 229.504766051 313.017269709 221.732283114C276.844740364 216.485633925 250.329231119 201.581986627 210.492061899 199.999999303C195.011001378 225.086929254 170.29905906 240.941910854 147.851963319 259.06066148C146.304072777 266.487987344 148.921531317 274.787799389 149.386010633 282.582647C152.524409946 284.702617989 159.753587437 283.413592502 159.612967074 288.207472493C159.496844497 292.150175417 145.670220088 292.923592908 141.971472436 290.507471412C134.728440723 285.778574324 138.27379134 267.064312021 133.022886925 260.594697799C117.210523554 265.322539327 114.912654447 285.778574324 109.245217323 301.501446012C111.89357298 303.935676958 119.732106474 303.940998738 117.682454462 308.915995205C115.447438446 314.340539213 96.7203961728 310.370138838 95.9501783475 306.360319901C94.6377194323 299.519973271 99.4401263671 288.325728181 100.807981283 282.07023867C102.283431831 275.326838614 102.737253292 263.900348369 105.921458404 258.03690038C106.872777311 256.285528688 110.438362791 255.080673103 111.801955883 253.690445817C118.175692286 247.195256259 129.414686516 237.944131903 131.744515995 228.378736597C135.502924769 212.945616084 140.572723703 196.037053819 139.414730577 176.476947227C134.938310209 194.11950842 126.762075633 205.687674588 113.080325713 213.293972822C96.5307714448 222.493968498 73.9899265966 214.921767045 54.5310174059 215.339361911C64.3978959965 208.279568789 85.0361019299 212.073129904 98.2512427221 209.714547414C135.655255248 203.041452041 121.46536212 150.347080172 154.499483356 138.125863322C176.756963165 129.892100735 199.275430145 125.342176017 230.690287401 125.342176017C240.573153325 125.342176017 282.059425882 123.950882176 295.375775071 122.018415998C308.692113264 120.085949821 323.921752627 109.245383251 339.095997088 101.053161342C354.27024155 92.8609504281 371.040316563 63.7599353184 395.855582796 61.9350702725C408.590274531 60.9986567494 417.897871338 65.4548455544 423.97971026 71.6506739435C433.372532528 81.2213910312 434.340887732 96.1175944336 447.501706775 103.098550431C450.183081664 104.520741389 452.425552571 104.111656974 452.870855883 106.93366322C453.528150797 111.107533749 449.152932228 118.321801457 446.98928745 120.484368684C436.293596468 131.178993111 413.645163683 125.87057168 403.013389048 118.69465598C403.013389048 118.69465598 403.013389048 118.695722535 403.013389048 118.695722535" style="fill:#803300;" />

</svg>
