<svg xmlns="http://www.w3.org/2000/svg" viewBox="0 0 512 384">
<rect width="512" height="384" fill="none"/>
<path d="M331.162992 239.152590775C333.539766311 242.507161726 333.215715133 244.543981556 338.509463053 248.737323498C343.803210973 252.93066544 346.720184582 251.7326166 352.338154683 255.925787538C357.95595378 260.11912948 356.659578066 261.437051605 360.981001449 265.510520261C365.302424833 269.583988918 364.978373655 268.026491226 369.623848216 272.219833168C374.269322778 276.413175109 375.349721374 276.652750677 379.563241701 282.283717025C383.776591024 287.914683374 385.937388217 291.628703178 386.477587515 294.743869565C387.017769713 297.858864949 383.020414608 292.946796306 381.724038894 294.743869565C380.427594779 296.540942824 383.236545628 300.614411481 381.291896556 301.932333606C379.347247483 303.25022153 376.538347934 299.056913789 373.945425503 300.015387061C371.352503071 300.973860333 372.540958628 305.04732899 370.920377833 305.766226695C369.299831239 306.485090199 369.731973578 302.052206891 367.463204926 302.890806878C365.194504676 303.729475266 364.438157257 308.162324374 361.845405828 309.120797646C359.252483397 310.079253818 359.792682695 307.083977816 357.091857207 306.724699967C354.391031719 306.365268215 352.230234525 304.568177855 351.041761868 307.68319034C349.853357612 310.798185724 355.363185252 317.387625345 352.338188883 319.184869607C349.313141214 320.981942867 344.667666653 316.069874223 338.941793495 314.871825384C333.215920337 313.673742343 335.700768708 320.023640598 329.434525249 314.392571647C323.168452792 308.761605299 320.143405123 300.015472563 313.877332667 292.3485414C307.611260211 284.680755222 309.663983344 287.436301754 304.370235424 283.72228195C299.076487504 280.008262146 298.212237028 279.768686579 292.702340988 277.492291181C287.192444947 275.215895784 281.142520612 278.091349802 282.330822265 274.616871365C283.519226521 271.142427128 291.513868331 267.907558458 297.455889609 263.594514235C303.397910887 259.281470011 303.289836827 263.115277599 306.098736376 257.364523466C308.907635925 251.613769334 308.907635925 248.139239596 308.691658807 240.591326703C308.475579088 233.04341381 307.287191933 232.923540524 305.2344859 227.172700891C303.181779867 221.421861257 303.938058885 223.099232234 300.480937278 217.587968168C297.023815672 212.076704101 295.403166476 210.279630842 291.40579427 205.127815628C287.408422064 199.976000414 287.192444947 201.773244676 284.491448455 196.980878315C281.790622967 192.188511953 280.386002189 187.87546773 280.60215031 185.958521185C280.818212929 184.04157464 282.762947503 185.958521185 285.355698931 189.313092136C287.948621363 192.667663088 288.056695423 195.06393177 290.973669032 199.376975994C293.890642641 203.690020218 294.106790762 203.330571365 297.023764371 206.565440035C299.94073798 209.800308704 298.752265323 209.560733137 302.641563469 212.316279668C306.530861614 215.0718262 307.39511209 213.514379809 312.580956953 217.587797164C317.766630812 221.661265821 319.279154647 224.177236785 323.384600913 228.610154294C327.490047179 233.043071803 327.057750938 232.683622951 329.002400011 235.3194672C330.947049083 237.95531145 328.786337392 235.798703836 331.163197204 239.153360289C331.163197204 239.153360289 331.162992 239.152590775 331.162992 239.152590775" style="fill:#784421" />
<path d="M228.395162838 267.470730631C223.582960098 274.040333873 207.997893985 285.913432222 202.826755403 292.799733502C197.655445817 299.686034782 205.627788801 294.145341055 207.710779511 295.015935752C209.793599218 295.88661595 208.859938519 296.836436458 211.158205233 296.282385895C213.456489047 295.728318232 214.461988216 293.591136589 216.904085772 292.799733502C219.346012325 292.008210712 218.91508411 291.612457868 220.926082448 293.116346038C222.937080785 294.620251308 224.660793646 297.390572522 224.948079123 298.815371684C225.2353817 300.240119545 223.439796169 299.448596756 222.075224355 298.815371684C220.710584139 298.182146612 221.500636301 296.836521959 219.489655064 296.282471397C217.478656726 295.728403734 215.539479758 295.570088916 214.031060001 296.599083933C212.522777047 297.628061849 215.323878847 299.448511254 213.456489047 300.398434363C211.589133448 301.348271971 210.152706064 301.110816844 206.561466601 300.398434363C202.970398141 299.686051883 201.821256234 298.340410129 199.091873201 297.549007042C196.362661171 296.757484252 197.36816034 294.699579721 195.644447479 297.232411606C193.920734619 299.765243492 192.699771342 303.168789777 192.197021758 307.680539789C191.694255073 312.192289801 194.136198726 312.587991345 193.633483342 315.279240651C193.130716658 317.970489956 191.478842266 316.545673694 190.186057621 318.445366009C188.893238775 320.345041225 189.683290936 322.323890949 188.46234476 322.877941512C187.241364383 323.432009175 185.73313273 322.719592493 185.302204515 320.661739262C184.8712763 318.603715028 185.8049712 317.653962922 186.7386661 314.646186582C187.672361 311.638410242 189.683342237 309.580386008 189.036949914 308.630633902C188.390540491 307.680796294 185.876809669 309.263858973 184.152925805 310.846836151C182.429212945 312.42988173 183.434677913 312.667336857 182.141927468 314.962713616C180.849108622 317.258090375 180.346393238 319.078591081 178.981787223 320.02851419C177.617147008 320.978351798 176.037111086 321.532402361 176.683503409 318.762081147C177.329912832 315.991828335 179.197251331 312.588179448 181.567527517 308.947178036C183.937632701 305.306176624 184.00945407 306.968328312 186.16426615 304.1980755C188.318907226 301.427822688 187.95980038 300.952775631 190.186262825 297.865824782C192.41272527 294.778873932 192.556368008 294.383172389 195.070286934 291.850272102C197.584034856 289.317371814 193.490182611 294.066474351 200.241596519 287.734394637C206.992976227 281.402143919 215.037140581 271.587240808 222.075292756 266.521440234C229.113957941 261.455639659 233.207946989 260.901589097 228.395744249 267.471277841C228.395744249 267.471277841 228.395162838 267.470730631 228.395162838 267.470730631" style="fill:#784421" />
<path d="M140.037778396 81.3678827728C142.683369831 79.7918483273 144.234369399 78.9052648255 147.336026529 76.6398136371C150.437854662 74.3741914453 149.890473227 74.3741914453 152.444919925 72.3057360124C154.999366623 70.2372805794 154.634445666 69.9416159429 157.553813321 68.3656498987C160.473180976 66.7896154532 161.203022889 67.2821219424 164.122390544 66.0015298292C167.041758199 64.7210061173 165.946995328 64.326997506 169.23128394 63.2434182487C172.515572551 62.1598902923 173.610335422 61.9628774365 177.259373987 61.6673667029C180.908583555 61.3718559693 180.908583555 61.9628774365 183.82795121 62.0613753142C186.747318865 62.159873192 185.105174559 61.470353847 188.936844606 62.0613753142C192.768514653 62.6523967814 195.140500872 63.2434182487 199.154460394 64.4254953837C203.168590919 65.6075212178 201.89136757 65.1149976284 204.993195704 66.7896154532C208.095023837 68.4641477765 208.459944794 68.7595730084 211.561772927 71.1236930779C214.66360106 73.4878131474 214.846061538 73.9803025362 217.400508236 76.2457537247C219.954954934 78.5113759165 219.042635442 77.8217881702 221.779559718 80.1858398384C224.516483995 82.5498915066 225.519914024 82.7469556634 228.348136941 85.7020629995C231.176188855 88.6571703355 231.267504596 89.2481576021 233.09210938 92.0062691826C234.916714164 94.7643807632 233.639490815 94.2717203711 235.646556078 96.7343383184C237.653621341 99.1969562656 238.292147514 98.9999605101 241.120370431 101.856398965C243.948422345 104.713008423 243.218580431 104.811506301 246.95910574 108.160605148C250.699460046 111.509703995 251.703078179 111.31270824 256.081958658 115.252794354C260.46101014 119.192880467 260.096089183 119.685369856 264.474969662 123.920949603C268.854021144 128.15652935 269.036481622 127.959533594 273.59782258 132.195113341C278.15933454 136.430693088 278.797860713 137.021680355 282.720675497 140.863268591C286.643490282 144.704856827 285.73118789 143.424384416 289.289252721 147.561466285C292.847146548 151.698548154 293.303383246 152.88069369 296.952592814 157.411767071C300.601802383 161.942840451 300.966723339 161.942840451 303.886090994 165.685930809C306.805458649 169.429021167 305.893156257 168.739536023 308.630063433 172.384128503C311.366970609 176.028720984 311.640575825 175.831725228 314.833719699 180.264300731C318.02669257 184.696876233 318.574074005 185.485030258 321.402296922 190.114601516C324.230348836 194.744172774 323.774283142 194.251683386 326.146269361 198.782756766C328.518255581 203.313830146 328.518255581 203.11683439 330.8902418 208.23906604C333.26222802 213.361126687 333.900754193 214.444774346 335.634214239 219.271341359C337.367503283 224.097908373 336.63772977 223.211427473 337.82373998 227.545505098C339.00971599 231.879582722 339.739489502 233.061728259 340.378186678 236.607651858C341.016781252 240.153746461 340.560647157 239.365763439 340.378186678 241.729712505C340.1957262 244.093832574 341.746640266 246.359283763 339.648361865 246.06379013C337.550151865 245.768279396 336.090468037 243.798338941 331.985021771 240.547737972C327.879746508 237.297137002 327.605970289 237.100141247 323.22708981 233.061557256C318.848038328 229.022973264 319.212959285 228.136492364 314.469157849 224.393402006C309.72518541 220.650311648 308.447962061 221.536792548 304.251542061 218.089195823C300.054951057 214.641599098 300.511187755 214.54310122 297.682964838 210.603015107C294.854912924 206.662928993 295.037373403 205.283958704 292.938992399 202.328851368C290.840782399 199.373744032 291.66176905 203.215366469 289.289782831 198.782756766C286.917796611 194.350147063 285.549428525 190.016103639 283.451047521 184.598378355C281.352837521 179.180653072 279.710693215 173.763098792 280.896600823 177.112197639C282.082576833 180.461296486 285.366797043 190.607090905 288.19501996 197.99511575C291.023071874 205.382798589 290.019624744 203.117176397 292.209150485 206.663271C294.398676226 210.209365602 294.398676226 208.928893191 296.953122924 212.179494161C299.507569622 215.43009513 299.781174838 215.922584519 302.426937277 219.665674877C305.072528712 223.408765235 305.437449669 222.423786457 307.535830673 227.151855593C309.634040673 231.879924729 309.725356414 232.86507451 310.820119284 238.578122423C311.914865054 244.29134134 312.006095294 245.374817995 311.914865054 250.004389253C311.823549314 254.633960511 311.823549314 254.732458389 310.455198327 257.096578458C309.08676184 259.460698528 309.269222318 258.081608537 306.441067802 259.460698528C303.613015888 260.839737218 302.609397755 260.445711506 299.142648665 262.612801619C295.675899575 264.779891733 295.767215316 265.469411078 292.574071442 268.12902478C289.381098571 270.788638483 289.928480007 272.069110894 286.370415176 273.251085427C282.812521348 274.433111261 281.079061302 273.054089672 278.342325129 272.857076816C275.605417952 272.66006396 277.430039837 272.463068205 275.422957474 272.463068205C273.415875111 272.463068205 272.686050298 273.645094039 270.314064078 272.857076816C267.942077859 272.069059593 268.580775035 269.212484336 265.935012596 269.310982213C263.289421161 269.409480091 263.745486855 272.463085305 259.73135633 273.251068327C255.717225805 274.03908555 253.710160542 272.758561838 249.878661498 272.463051104C246.046991452 272.167540371 247.415530541 271.773531759 244.404847146 272.069042493C241.394334754 272.364553226 241.029413797 273.349566205 237.836269923 273.645076938C234.643297052 273.940587672 235.190678487 274.137583427 231.632613656 273.251068327C228.074719829 272.364536126 227.709798872 272.266038248 223.604352606 270.098965235C219.499077343 267.931840921 220.411379735 268.030509802 215.211341602 264.582913078C210.011303469 261.135316353 207.548172512 260.642826964 202.804200073 256.308749339C198.060227634 251.974671714 199.611227202 251.186688692 196.235622849 247.246602579C192.8601895 243.306516465 192.495268544 244.38999312 189.30212467 240.548404885C186.109151799 236.706816649 186.200296536 235.820335749 183.46338936 231.880249635C180.726482184 227.940163521 181.091403141 228.629648666 178.354495964 224.78806043C175.617588788 220.946472194 175.161523094 220.946472194 172.515760655 216.513896692C169.870169219 212.081321189 170.052629698 212.081321189 167.771788216 207.057587417C165.491117737 202.034024648 165.582262475 202.329518281 163.392736734 196.419303609C161.203210993 190.509088937 160.290908601 188.440633504 159.013685252 183.416899732C157.736479003 178.393336963 159.013702352 181.052779662 158.283860438 176.324710526C157.554035625 171.596641391 156.732963472 171.104152002 156.094334697 164.504452185C155.455723023 157.904752369 155.82064398 156.427284203 155.729413741 149.926082264C155.638098 143.424880325 155.638098 143.030888814 155.729413741 138.499815434C155.820558478 133.968742054 155.820558478 134.953720831 156.094334697 131.80161774C156.368025415 128.649514648 157.189097568 129.43749767 156.824176611 125.891403068C156.459255654 122.345308465 155.911874219 121.458827565 154.63465087 117.617239329C153.357444621 113.775651093 153.448674861 113.874148971 151.715283215 110.525050124C149.981994172 107.175951277 149.799533694 107.372947032 147.70115269 104.220843941C145.60294269 101.068740849 145.60294269 100.280757827 143.322101208 97.9166377577C141.041430729 95.5525176882 141.679991103 95.9466802025 138.578128769 94.7645346661C135.476300636 93.582508832 135.111379679 94.1735302992 130.914788675 93.1885002206C126.718197672 92.203470142 124.80244815 92.104955164 121.791935758 90.8243801511C118.781423365 89.5438564393 119.784870495 89.5438564393 118.872568103 88.0662685706C117.960282811 86.5887320029 117.047963319 86.0961400121 118.14274329 84.914165479C119.23748906 83.7321396449 120.058492811 83.7321396449 123.251636685 83.3381310335C126.444609556 82.9441224222 127.539372427 83.4366289113 130.914805776 83.3381310335C134.290239125 83.2396331558 134.472699603 83.4366289113 136.753541085 82.9441224222C139.034211564 82.451615933 137.39215276 82.9441224222 140.037829697 81.3680879767C140.037829697 81.3680879767 140.037778396 81.3678827728 140.037778396 81.3678827728" style="fill:#784421" />
</svg>
