<svg xmlns="http://www.w3.org/2000/svg" viewBox="0 0 512 384">
<rect width="512" height="384" fill="none"/>
<path style="fill:#808080;" d="m 372.27887,327.172 c -20.18707,-2.28633 -39.84579,-7.87648 -69.60582,-19.79314 -22.1068,-8.85211 -43.00287,-18.13833 -41.75287,-18.55499 0.61928,-0.20643 12.25576,3.80993 25.85884,8.92524 30.67932,11.53668 39.057,14.193 55.72666,17.66931 19.66275,4.1005 32.57371,5.55646 48.55571,5.47559 23.00218,-0.11637 36.73292,-4.79144 48.7196,-16.58813 10.10811,-9.9479 14.42478,-21.94342 13.38335,-37.19082 -1.23317,-18.05462 -10.90786,-30.44153 -38.77024,-49.63916 -7.22013,-4.97479 -13.9907,-9.93833 -15.0457,-11.03012 -1.84306,-1.90731 -2.04293,-1.88128 -5.10261,0.6645 -4.71045,3.9193 -6.73058,4.7951 -21.0546,9.128 -7.18614,2.17375 -15.23357,4.90723 -17.88319,6.07438 -4.21579,1.85706 -4.73313,2.45814 -4.14221,4.81256 0.9523,3.79425 -0.71996,5.10757 -17.12522,13.4495 -7.8794,4.00661 -17.90432,9.99555 -22.2776,13.30876 -8.37273,6.3432 -10.73661,6.25271 -5.79814,-0.22196 4.02789,-5.28082 3.01351,-7.10091 -1.68833,-3.02933 -4.04033,3.49872 -16.0393,11.38409 -17.32291,11.38409 -1.6658,0 9.17198,-9.9928 12.60421,-11.6215 3.97839,-1.88788 4.84596,-3.84646 1.70381,-3.84646 -2.18516,0 -5.53366,2.08157 -11.23825,6.98619 -4.06038,3.49098 -12.7049,7.76422 -14.49767,7.16663 -0.59355,-0.19785 2.16439,-2.8098 6.12875,-5.80433 3.96436,-2.99453 7.20793,-6.08049 7.20793,-6.85768 0,-2.06526 2.4909,-3.05129 16.1751,-6.4029 12.14075,-2.97358 25.8078,-8.77423 26.62322,-11.29957 0.23129,-0.71631 -4.12768,-3.64414 -9.7441,-6.54491 -12.61254,-6.51412 -17.58626,-11.18136 -17.58626,-16.50259 0,-2.66802 -0.50285,-3.83016 -1.65728,-3.83016 -2.42819,0 -2.10713,6.47702 0.5185,10.46028 1.18868,1.80331 3.29845,4.15388 4.68837,5.2235 3.09883,2.38472 1.51998,2.51507 -4.54499,0.37522 -8.4972,-2.99798 -21.06599,-5.03601 -37.98168,-6.15872 -22.00546,-1.46053 -21.34722,-1.21308 -17.73732,-6.66801 2.19654,-3.3192 2.8922,-5.76421 2.8922,-10.1651 0,-7.61714 -5.35965,-18.62293 -7.43432,-15.26603 -0.35322,0.57152 0.6068,3.38819 2.13336,6.25928 1.52657,2.87108 2.77559,6.65745 2.77559,8.41417 0,5.29215 -3.95927,11.58201 -9.2377,14.67537 -2.65209,1.55424 -7.49784,5.92606 -10.76831,9.71514 -7.23948,8.38749 -10.20834,10.94103 -14.56263,12.52544 -2.54411,0.92573 -3.84722,2.5113 -5.44819,6.62912 -1.15736,2.97681 -2.97678,6.30182 -4.04317,7.38891 -2.17756,2.21981 -5.86254,1.49818 -4.91805,-0.96312 1.04011,-2.71048 -2.2407,-1.70274 -6.03565,1.85394 -2.20942,2.0707 -4.30959,3.15182 -5.34835,2.75321 -0.94072,-0.36099 -3.18544,0.39398 -4.98828,1.67771 -4.43182,3.15574 -5.1831,1.96509 -0.98759,-1.5652 1.84866,-1.55555 3.36122,-3.29541 3.36122,-3.86636 0,-0.57094 1.49507,-1.33709 3.32237,-1.70254 2.40629,-0.48127 4.23414,-2.1022 6.62913,-5.87869 4.4026,-6.9422 4.31511,-10.52915 -0.3435,-14.08245 -8.06081,-6.14828 -17.07972,-8.07374 -28.67477,-6.1218 -6.8117,1.14669 -8.53608,1.9124 -11.59111,5.14704 l -3.58895,3.79995 -1.10804,-2.91438 c -0.60942,-1.6029 -2.3308,-4.51747 -3.82527,-6.47683 -1.80826,-2.37075 -2.50348,-4.37988 -2.07824,-6.006 0.4806,-1.83779 -0.64691,-3.94868 -4.54839,-8.51542 l -5.18739,-6.0719 h 4.50485 c 3.78251,0 5.21348,0.70863 8.92426,4.41941 2.43068,2.43068 4.41942,4.91661 4.41942,5.52428 0,0.60767 0.49718,1.10485 1.10485,1.10485 2.05515,0 1.12121,-2.18524 -2.77896,-6.50227 l -3.88382,-4.29892 7.69811,-1.73845 c 8.89816,-2.00946 19.27847,-6.95436 24.82918,-11.82795 2.12469,-1.8655 5.37791,-6.42328 7.22938,-10.12839 2.74886,-5.50096 3.36631,-8.09743 3.36631,-14.15597 0,-9.71142 -0.97261,-14.32475 -3.02002,-14.32475 -1.19663,0 -1.4518,0.74565 -0.94551,2.7629 2.77711,11.06491 1.2024,20.71528 -4.7127,28.88083 -5.97514,8.24844 -19.63273,15.27809 -32.24409,16.59623 -5.81237,0.60752 -7.01796,0.34102 -12.52985,-2.7697 -6.38208,-3.60181 -16.06595,-6.02542 -14.60037,-3.65406 0.43276,0.70022 1.87615,1.29658 3.20755,1.32525 1.33139,0.0287 5.15523,1.49677 8.49741,3.26243 l 6.0767,3.21031 -5.63471,0.0522 c -4.58611,0.0424 -6.50713,-0.57985 -10.32267,-3.34381 -5.03595,-3.64802 -7.95072,-3.40625 -3.40096,0.2821 l 2.73875,2.22021 -5.09404,-0.76391 c -3.29637,-0.49431 -5.35875,-0.33557 -5.84415,0.44981 -0.54087,0.87516 -1.37416,0.87972 -2.98739,0.0163 -1.23051,-0.65853 -2.56759,-0.8404 -2.9713,-0.40415 -0.40371,0.43626 -0.10943,1.0162 0.65394,1.28873 0.76337,0.27255 1.08381,0.98766 0.71208,1.58913 -0.38742,0.62686 -1.86961,-0.003 -3.473,-1.47544 -1.94148,-1.78314 -2.94864,-2.14443 -3.29238,-1.18106 -0.272373,0.76337 -0.949948,1.10692 -1.505716,0.76343 -1.307157,-0.80786 -1.28465,0.24374 0.05894,2.75428 0.917871,1.71505 0.517381,2.08784 -2.825848,2.63038 -4.60005,0.74645 -7.08242,-1e-4 -7.08242,-2.13001 0,-2.50539 -2.014862,-1.75277 -2.534831,0.94684 l -0.478809,2.48593 -0.150462,-2.48593 c -0.175888,-2.90603 -2.34345,-3.40593 -2.395307,-0.55242 -0.03347,1.84142 -0.105028,1.84142 -1.502871,0 -0.807253,-1.06343 -2.247023,-1.9335 -3.199491,-1.9335 -0.958842,0 -2.602011,-1.97247 -3.681601,-4.41942 -2.004223,-4.54267 -5.618496,-6.40574 -4.286725,-2.2097 1.018615,3.20937 -1.458453,2.75006 -2.961683,-0.54917 -1.763785,-3.87109 0.05095,-9.17766 6.613243,-19.33821 15.596411,-24.14828 46.513401,-55.10646 68.163981,-68.2548 6.1545,-3.737615 15.74935,-6.883913 20.91655,-6.858861 l 3.39024,0.01644 -4.0494,3.574339 c -3.94654,3.483542 -6.44671,7.198252 -6.44671,9.578402 0,2.21335 2.25516,1.1817 3.52918,-1.61446 1.74381,-3.82726 15.64436,-14.866739 20.35878,-16.168452 7.63352,-2.107717 15.53305,3.094381 18.13577,11.942992 1.83655,6.24385 0.57162,15.10876 -3.33442,23.36806 -3.41926,7.23004 -6.32141,9.44789 -15.41305,11.77883 -2.69363,0.6906 -5.12199,1.92904 -5.39633,2.75209 -0.76477,2.29428 6.76782,0.71849 14.09595,-2.94883 5.22792,-2.61628 6.582,-3.96671 9.10196,-9.07749 5.88319,-11.93181 6.24925,-26.03183 0.8684,-33.44983 -2.87694,-3.966141 -2.7944,-4.187943 1.55827,-4.187943 2.47098,0 9.51517,-2.938919 20.87199,-8.708038 33.08591,-16.807235 51.75002,-22.61601 72.62543,-22.603012 19.81972,0.01234 34.929,4.728326 52.48716,16.382554 15.7463,10.451608 31.60252,28.020309 42.88961,47.521699 8.55464,14.78038 17.28687,45.63071 17.33346,61.2379 0.0245,8.19531 0.84056,9.49659 10.86429,17.32332 15.55401,12.1449 23.05685,19.11927 33.31152,30.96519 12.75499,14.73424 14.68673,19.5397 14.82063,36.86825 0.0887,11.48583 -0.20026,13.45055 -3.00668,20.4398 -1.70767,4.2529 -4.81788,10.09136 -6.91156,12.97436 -6.78622,9.34466 -21.17189,18.21555 -35.48816,21.88368 -10.14112,2.59837 -33.74848,3.65761 -47.30318,2.12244 z M 121.32793,163.60405 c 5.14356,-4.04592 2.91753,-12.17132 -3.76581,-13.74583 -3.62652,-0.85436 -8.47005,2.8443 -10.69356,8.16592 -1.54918,3.7077 -1.50683,4.01618 0.80871,5.89119 3.33869,2.7035 10.01143,2.55134 13.65066,-0.31128 z m 52.06139,-31.9301 c 0.93404,-1.80624 2.95933,-5.14237 4.50065,-7.41362 3.87351,-5.70793 3.46316,-11.79951 -0.82822,-12.29506 -2.31309,-0.2671 -4.25631,0.8942 -8.75982,5.23501 -3.18304,3.06804 -5.45767,5.90792 -5.05475,6.31085 0.40293,0.40292 3.24083,-1.61358 6.30646,-4.48111 8.81789,-8.2481 12.60524,-4.67434 5.75643,5.43178 -3.80455,5.61399 -5.96381,10.49623 -4.64216,10.49623 0.56273,0 1.78737,-1.47783 2.72141,-3.28408 z m 14.48935,-12.4601 c -0.9374,-6.07664 -3.93968,-10.12441 -7.852,-10.58634 -4.32846,-0.51106 -10.48857,0.7826 -10.48857,2.20265 0,0.69534 1.02555,0.89902 2.48592,0.49372 1.36726,-0.37945 3.53462,-0.97096 4.81636,-1.31446 3.70941,-0.9941 8.18209,3.6159 8.93189,9.20616 0.34628,2.58165 1.12486,4.6939 1.73018,4.6939 0.67187,0 0.81843,-1.82912 0.37622,-4.69563 z" />
<path style="fill:#808080;" d="m 378.68013,327.89772 c -19.84224,-1.31623 -39.17746,-5.91296 -62.70048,-14.90635 -25.45068,-9.73037 -65.21424,-27.14492 -59.93835,-26.25014 3.38705,0.57443 10.2791,2.97438 30.10728,10.48393 26.86602,10.17501 33.99597,12.5584 47.90633,16.01407 19.49707,4.84355 39.24434,7.5235 55.67376,7.55562 14.6211,0.0286 24.2828,-1.57128 33.7064,-5.58138 8.94076,-3.80463 19.02881,-12.43805 23.60333,-20.19986 8.2085,-13.92778 8.23987,-33.87409 0.0748,-47.59353 -5.08617,-8.54614 -20.41053,-21.77371 -41.45127,-35.77957 -3.54199,-2.35775 -6.56397,-4.76093 -6.71551,-5.34041 -0.42785,-1.63609 -1.97046,-1.25494 -4.55213,1.12476 -3.41532,3.14813 -7.84464,5.18076 -16.86939,7.74144 -4.37792,1.24218 -9.20283,2.72963 -10.722,3.30543 -1.51918,0.5758 -4.50228,1.56245 -6.62913,2.19257 -2.12684,0.63011 -4.86136,1.71385 -6.0767,2.40832 -2.16606,1.23771 -2.21295,1.33037 -2.37395,4.69175 -0.1601,3.34256 -0.22284,3.46906 -2.48593,5.01223 -1.27692,0.87072 -7.12334,4.0143 -12.99205,6.98574 -13.98682,7.08178 -19.43418,10.40479 -27.42566,16.73023 -3.63423,2.87658 -6.10437,4.49399 -7.47488,4.09338 -1.67622,-1.90363 3.27738,-5.93616 5.28311,-8.2794 1.95767,-2.2871 2.15311,-2.50588 0.85893,-2.50588 -0.40823,0 -1.9221,-0.0354 -3.72224,1.71162 -1.80015,1.74705 -4.63569,3.90131 -6.30122,4.78725 -0.88429,0.88594 -2.56667,1.8686 -3.60843,2.5526 -5.54826,3.86503 -6.43782,2.98435 -3.28985,-1.12245 3.11941,-4.06952 7.99448,-6.71887 10.29342,-8.28664 0.95868,-0.64614 1.0863,-1.07248 0.33714,-1.35433 -0.86368,-0.99944 -6.55037,2.32361 -8.30324,3.62491 -3.10986,2.15225 -5.80243,4.84135 -10.8832,6.87578 -4.13569,1.65602 -3.64041,0.41907 -3.31115,-0.49607 0.10128,-0.2815 2.19657,-3.33428 3.99798,-4.49324 1.80142,-1.7449 5.83243,-4.60315 6.04026,-4.91704 0.55867,-0.84376 -0.007,-1.44908 -1.37722,-1.47477 -2.65929,-0.0498 5.68705,-2.89893 15.25867,-5.20866 14.52971,-3.50617 24.42383,-7.34321 27.66883,-10.73026 1.38726,-1.44799 1.41135,-1.56785 0.48206,-2.39864 -0.538,-0.48097 -4.70706,-2.75471 -9.26458,-5.05276 -13.19585,-6.65376 -17.39376,-10.6492 -17.85251,-16.99147 -0.19295,-2.66744 -0.40855,-3.25958 -1.1365,-3.12133 -1.4654,0.27831 -1.5088,5.47395 -0.0705,8.44498 1.30179,2.68914 5.20734,6.71031 8.89079,9.154 3.16367,2.09886 2.34469,2.03963 -4.11119,-0.2973 -12.61503,-4.56645 -22.56788,-6.29606 -42.89625,-7.4545 -10.0604,-0.5733 -19.74115,-1.54173 -20.60359,-2.06111 -0.242,-0.14574 0.58807,-1.38031 1.84461,-2.74349 4.20441,-4.56124 5.82148,-10.75908 4.39167,-16.83218 -1.16097,-4.93116 -4.67285,-10.97586 -6.37683,-10.97586 -1.25436,0 -0.94642,1.60941 0.84086,4.39464 5.14707,8.02103 4.61152,16.54995 -1.40699,22.4071 -1.25393,1.2203 -3.47138,2.83155 -4.92769,3.58056 -1.63472,0.84077 -4.25544,3.14553 -6.84936,6.02358 -11.31766,12.55737 -13.71751,14.69804 -18.0122,16.06684 -3.11074,0.99146 -3.3817,1.30215 -4.74062,5.43584 -2.54358,7.73733 -4.93191,10.64063 -8.41076,10.07177 -1.42214,0.47684 -1.57379,0.81825 -2.84091,1.65438 -1.63103,3.43509 -5.36551,6.1101 -7.5251,5.39024 -0.10735,-1.43552 1.69491,-3.41219 3.21836,-4.68554 1.16014,-1.55274 0.44655,-1.43809 -0.10071,-2.13182 -0.79836,-1.01207 -2.92781,-0.17999 -4.0667,0.48066 0,0 -2.5191,0.88264 -3.58862,1.66245 -1.52426,1.31924 -4.49659,2.85386 -5.31381,2.69799 -0.76799,-0.14649 -2.94973,-0.004 1.09373,-3.2759 2.05549,-1.79268 3.09831,-2.25741 2.47565,-3.03471 -0.50974,0.0386 -1.98646,-0.20654 -4.00317,0.84427 -3.43626,1.79047 -6.21128,3.71906 -6.86256,3.06778 -0.16406,-0.16407 -0.37013,-0.76125 1.39212,-2.4013 2.88493,-2.68489 2.96374,-2.40946 1.2828,-2.40946 -0.33151,0 -1.9881,-0.49329 -4.39745,1.05225 -2.40935,1.54553 -2.93751,0.93287 -3.08342,0.78696 -0.63906,-0.63906 1.89131,-2.72211 4.43485,-3.56694 2.30979,-0.76719 4.9535,-1.44921 10.55536,-1.13797 l 5.41508,-0.79504 3.17676,-0.0346 c 4.62493,-4.17835 7.65041,-10.65858 6.49242,-13.90606 -1.23692,-3.46888 -8.35287,-7.97354 -15.51718,-9.82295 -4.18059,-1.07919 -10.7828,-1.08168 -17.14728,-0.006 -6.7404,1.13871 -8.68581,2.08888 -11.35166,5.5443 -2.53898,3.291 -3.84009,4.10959 -3.84009,2.41598 0,-1.85359 -1.35155,-4.47975 -4.32767,-8.40898 l -2.83919,-3.74843 0.64441,-2.40936 c 0.61387,-2.29518 0.56771,-2.5013 -0.9741,-4.34972 -0.89017,-1.0672 -3.18817,-3.82738 -5.10666,-6.13372 l -3.48815,-4.19335 h 4.76418 c 7.6544,0.11663 9.92456,-0.80205 9.92456,-0.80205 4.35809,-0.54451 12.37956,-2.77363 16.89433,-4.69483 16.99056,-7.23013 25.85076,-21.30501 23.81901,-37.8377 -0.7868,-6.4023 -1.52743,-8.59358 -2.90457,-8.59358 -1.24328,0 -1.25924,0.35488 -0.21112,4.69563 0.44018,1.82301 0.80422,5.51601 0.80896,8.20667 0.0163,9.27772 -2.68937,15.76213 -9.37713,22.47267 -4.44944,4.46459 -10.55078,8.08132 -17.68317,10.48216 -4.03925,1.35965 -14.98561,3.11358 -16.09515,3.30889 0,0 -4.66922,0.31745 -10.46445,0.45596 l -11.55783,-0.76329 c -1.06343,-0.15837 -3.19376,-0.55584 -4.73409,-0.88327 -2.44485,-0.51971 -3.07331,-0.45541 -4.94764,0.50618 -1.2834,0.88759 -4.76265,2.61477 -4.79874,2.6274 -1.26354,0.56017 -3.02897,1.23812 -4.22713,1.62401 -0.69466,0.22048 -1.74209,0.55412 -1.74209,0.55412 l -1.557976,0.51923 c -0.699634,0.43239 -4.887438,1.00666 -8.184227,1.12228 l -2.846764,0.0999 -5.952625,-1.10777 c -0.480603,-0.18443 -1.102084,-0.33532 -1.381068,-0.33532 -1.868727,-1.0618 -5.228356,-2.41045 -7.49624,-8.2479 -1.140147,-3.10287 -1.542015,-3.5894 -2.622339,-3.17484 -0.744138,0.28555 -0.755191,0.6292 -0.0912,2.83548 0.415561,1.38081 0.550376,2.51056 0.299588,2.51056 -0.954382,0 -3.76137,-2.82946 -4.636465,-4.67359 -0.871384,-1.83631 -0.855457,-2.09595 0.348329,-5.67849 6.568043,-19.5469 44.123187,-61.12514 71.520367,-79.182 6.97974,-4.600183 10.6637,-6.365431 16.10514,-7.717113 3.95073,-0.981383 12.86459,-2.301889 13.2096,-1.956881 0.0847,0.08466 -1.72939,1.699657 -4.03121,3.588881 -4.33279,3.556123 -7.43029,7.638303 -7.43029,9.792323 0,2.59712 1.38065,2.11625 2.98599,-1.04001 1.67523,-3.29362 12.93383,-13.275752 17.43753,-15.460508 7.47459,-3.625932 16.24093,-0.463215 20.16162,7.273894 1.74487,3.443324 2.67315,8.841394 2.23222,12.980594 -0.76113,7.14514 -4.12276,16.46008 -7.30504,20.24201 -1.83098,2.17599 -6.62941,4.57014 -12.66528,6.31927 -2.65419,0.76915 -4.93381,1.50648 -5.06583,1.6385 -0.13202,0.13201 -0.0852,0.64344 0.10397,1.13649 0.26297,0.6853 0.76701,0.81194 2.13984,0.53762 5.33862,-1.06675 13.38333,-4.40597 16.26734,-6.7523 3.95724,-3.21947 8.37336,-14.87446 8.85507,-23.37026 0.45119,-7.9574 -1.0787,-13.376603 -5.1039,-18.079144 l -1.87841,-2.194491 3.70506,-0.312226 c 5.26589,-0.443756 7.97846,-1.491681 18.89681,-7.300227 20.53257,-10.923305 41.97998,-19.599881 55.24109,-22.347852 30.12665,-6.242855 58.81225,1.303616 83.41813,21.945244 16.51467,13.853996 32.33722,35.396926 39.74664,54.116366 2.8375,7.16878 6.23156,19.15071 7.98824,28.20062 1.50187,7.7372 3.08516,20.39255 3.09049,24.7025 0.004,3.56986 0.50174,4.1339 10.49404,11.90162 15.129,11.76083 25.05442,21.14858 36.47833,34.50227 6.35392,7.42723 8.12299,10.66264 10.29381,18.82613 1.30292,4.89967 1.46313,6.53477 1.51133,15.42435 0.0612,11.29437 -0.45342,13.73785 -4.8957,23.24408 -4.49461,9.61821 -9.79504,15.67689 -18.9164,21.62249 -9.49275,6.18769 -19.04743,9.80165 -30.35152,11.48014 -7.13958,1.06013 -23.26011,1.47402 -32.78975,0.84188 z M 119.31557,164.60466 c 2.03752,-0.85288 3.87507,-2.7627 4.66563,-4.84912 1.16,-3.06147 -0.99814,-7.19531 -4.76742,-9.13182 -3.74529,-1.92419 -8.71322,0.71554 -11.38151,6.04759 -2.23223,4.46066 -2.21055,5.95903 0.10611,7.33364 3.4006,2.01779 7.4762,2.23262 11.37719,0.59971 z m 53.56748,-32.62739 c 0.61755,-1.51507 1.93964,-3.73438 2.93798,-4.93179 5.58277,-6.69598 6.35978,-15.15916 1.39177,-15.15916 -2.97748,0 -9.32939,4.86804 -12.79451,9.80558 -2.22958,3.17699 0.1004,2.09875 3.20243,-1.48197 5.36465,-6.19249 11.10241,-8.60678 11.53352,-4.85297 0.27426,2.38808 -1.34396,6.47616 -3.76498,9.5114 -2.21516,2.77714 -4.12497,6.35918 -4.77827,8.96212 -0.62747,2.50007 1.05803,1.12528 2.27206,-1.85321 z m 14.78423,-11.30812 c -0.25598,-4.16719 -1.307,-7.06819 -3.42578,-9.45575 -1.94867,-2.19588 -2.21227,-2.31223 -5.74866,-2.53741 -3.71868,-0.23679 -8.63018,0.98746 -8.63018,2.15116 0,0.7325 1.10672,0.62727 4.08861,-0.38876 6.68802,-2.27884 11.27101,1.43225 12.27046,9.93601 0.44087,3.75113 1.6733,4.00243 1.44555,0.29475 z" />
<path style="fill:#808080;" d="m 136.72995,100.42345 c 0.022,-2.584347 2.58403,-14.6121 3.80072,-17.842747 4.47798,-11.890279 15.32728,-19.523126 21.98231,-15.465295 4.13367,2.520455 4.24463,4.20182 0.97033,14.703396 -1.04888,3.364057 -1.90706,7.121069 -1.90706,8.348917 v 2.232448 l -4.83374,0.958049 c -5.88958,1.167319 -9.90918,2.754249 -15.36275,6.065195 -2.28222,1.385567 -4.26497,2.519217 -4.40611,2.519217 -0.14114,0 -0.25081,-0.68363 -0.2437,-1.51918 z" />
<path style="fill:#808080;" d="m 121.47101,238.98213 c 1.24361,-1.74649 2.22332,-2.5997 5.48432,-4.1237 1.46522,-0.89713 1.29803,-1.17618 0.33878,-1.12434 -1.02302,-0.39257 -3.16322,0.0473 -6.43509,2.22785 -1.96275,0.87241 -4.13879,2.2328 -6.38551,2.71618 -0.83234,0.17907 -2.9995,-0.0474 0.20593,-2.07182 3.63051,-2.29288 4.42217,-3.67203 2.40987,-4.19826 -0.63825,-0.16691 -2.18069,-0.0396 -2.02641,-0.4417 0.15105,-0.3936 0.79853,-0.80264 0.13977,-0.91087 -0.46374,-0.38487 -1.02385,-0.43665 -4.10055,1.0664 -2.42665,1.18549 -3.15592,2.0124 -4.40923,1.9027 0,0 -0.9905,-0.98937 -0.1436,-1.71757 0.84689,-0.72821 4.09769,-2.27606 5.32202,-2.8049 1.22433,-0.52883 4.68898,-1.41101 8.38126,-1.17052 6.80546,0.44326 11.9739,-5.30196 11.78184,-4.17355 0.45275,-0.84044 7.89543,-6.31 7.89543,-6.31 l 2.87858,-2.69643 2.08497,2.33746 c 2.26341,2.53753 5.3728,8.2538 5.3728,9.87731 0,1.94534 -14.60035,8.54238 -19.2548,8.55268 -2.47797,1.0418 -3.96491,2.03411 -6.86317,3.25649 -0.93082,0.39259 -3.12198,1.15418 -2.67721,-0.19341 z" />
<path style="fill:#808080;" d="m 284.89787,245.90662 c 2.96663,-1.15325 7.19825,-1.63566 12.72364,-3.00823 1.62137,-0.40276 10.26851,-2.40002 10.77233,-2.48041 4.35402,-0.90489 -0.75814,0.46461 -5.39092,1.46154 -2.69392,0.6805 -5.33479,1.56997 -6.03741,1.76561 -6.26392,1.74409 -5.74137,2.34172 -5.17626,2.69916 0.0555,0.0351 -1.28197,0.68578 -3.02195,0.99702 -1.12228,0.34662 -3.28884,1.31748 -4.14069,2.34288 -3.20254,2.44822 -7.39137,6.60658 -9.81361,6.30293 -0.66331,-3.27678 5.05031,-7.53781 10.08487,-10.0805 z" />
<path style="fill:#808080;" d="m 116.52774,231.28275 c 0.87352,-0.48677 -0.0133,-0.43001 0.0882,-0.5005 0.10149,-0.0705 1.02032,-0.24658 1.08699,-0.42114 0.1001,-0.26212 0.42533,-0.22062 0.36248,-0.45626 -0.0991,-0.37126 0.21936,-0.2432 0.35966,0.0926 0.0835,0.19976 0.17234,0.47354 0.13744,0.82115 -0.0428,0.42659 -1.27862,0.42569 -1.11424,0.62102 0.0974,0.1157 0.98125,0.006 1.09884,0.0548 0.27076,0.26687 -0.21287,0.93339 -0.65597,1.32028 -0.93401,0.1326 -1.21818,0.20356 -2.52515,0.98828 -0.76259,0.45787 -1.77731,1.31019 -2.27806,1.68775 -1.15439,0.72619 -4.67956,3.25027 -3.85774,0.91672 0.87222,-1.02522 2.24674,-2.50135 3.0271,-2.93215 2.22752,-1.78184 3.10738,-1.60276 4.27045,-2.19255 z" />


</svg>
