<svg xmlns="http://www.w3.org/2000/svg" viewBox="0 0 512 384">

<rect width="512" height="384" fill="none"/>

<path style="fill:#808080;stroke-width:1" d="m 757.18222,249.23405 c -23.92544,3.63851 -48.83948,5.97053 -61.22162,5.73041 34632 -3.69543,0.74049 -8.43069,1.24275 -10.52302,1.11618 -2.77747,-0.16833 -4.6748,0.19679 -7.03125,1.35185 -7.35085,3.6035 -28.58268,16.64093 -40.692,24.98679 -6.50119,4.48074 -6.68594,4.66106 -11.07454,10.80469 -4.67063,6.53845 -6.81315,9.12356 -8.57721,10.3488 -0.58038,0.40306 -9.35096,6.98432 -19.49022,14.62525 0,0 -18.43508,13.89241 -18.43508,13.89241 0,0 -10.99711,5.01728 -10.99711,5.01728 -6.04829,2.75956 -14.87494,6.4726 -19.61483,8.25132 0,0 -8.61796,3.23406 -8.61796,3.23406 0,0 -10.94164,8.38347 -10.94164,8.38347 -10.76444,8.24767 -11.05702,8.43 -18.06438,11.2554 -3.91768,1.57946 -9.65573,3.73548 -12.75179,4.79103 -3.09579,1.05556 -5.47192,2.11836 -5.28007,2.36179 0.19078,0.24368 4.19979,0.95707 8.90678,1.58-13.98196,-0.27091 -34.25421,-3.9963 -56.50223,-10.38293 0,0 -10.31596,-2.96132 -10.31596,-2.96132 0,0 -6.71901,1.34632 -6.71901,1.59 9.64933,1.2891 15.08664,3.35425 21.71774,8.24921 3.45914,2.55321 4.25939,3.40114 4.69789,4.97695 0.58406,2.09876 -0.21723,5.15474 -1.51902,5.79098 -0.46034,0.22525 -0.84092,1.13643 -0.84549,2.02529 0,1.575 -0.11578,1.59725 -4.2961,0.87712 -2.3583,-0.4064 -6.26741,-1.69937 -8.68694,-2.87322 -4.59279,-2.22837 -4.84883,-2.14761 -3.29133,1.03903 0.92036,1.88344 0.55801,3.71022 -0.70538,3.55384 -0.34107,-0.0417 -2.08336,-1.65095 -3.87255,-3.575 -2.84105,-3.05555 -3.79114,-3.66874 -7.50679,-4.8449 -6.07714,-1.9236 -18.1722,-4.74967 -27.68251,-6.46807 -6.81599,-1.23157 -8.95041,-1.30559 -12.80602,-0.44395 -2.54473,0.56895 -5.97377,1.02689 -7.62016,1.01828 -2.6503,-0.0125 -3.54221,0.3563 -7.78277,3.22833 -8.696,5.88977 -17.31347,7.70609 -26.42051,5.56866 -4.19895,-0.98548 -5.547,-0.94209 -10.56166,0.34027 -3.16156,0.80818 -9.80606,1.72902 -14.76565,2.04645 -14.31313,0.91576 -12.80906,0.5502 -15.59897,3.79323 -1.71691,1.99591 -2.81964,2.87812 -3.72069,2.97663 -1.49196,0.16353 -7.8137,-3.79491 -10.2756,-6.43356 0,0 -1.69657,-1.81832 -1.69657,-1.81832 0,0 2.7471,-4.95234 2.7471,-4.95234 2.58322,-4.65697 2.68106,-5.07167 1.64005,-6.95255 -1.25861,-2.27401 -1.81459,-2.34467 -4.97762,-0.63265 -3.49209,1.89011 -5.1181,1.00894 -8.37092,-4.53668 -4.21806,-7.19112 -4.31096,-8.76209 -0.68274,-11.54202 1.64186,-1.25798 1.6738,-1.47689 0.51842,-3.55307 -1.69389,-3.04364 -1.59629,-8.40166 0.22283,-12.26295 1.32925,-2.82096 2.14553,-3.69988 6.61901,-7.12744 4.81571,-3.68987 5.40066,-3.97387 10.40045,-5.05049 8.50916,-1.83228 13.66543,-0.67332 18.78649,4.22254 2.55625,2.44388 6.14597,3.93732 7.31362,3.04269 0.9808,-0.75151 -1.72118,-3.70045 -4.08189,-4.45505 -2.08504,-0.6665 -2.46647,-0.98785 -2.26094,-1.90468 0.19237,-0.85961 0.69271,-0.99379 2.26644,-0.60771 2.5544,0.62658 2.80036,0.41388 3.52089,-3.03716 0.44655,-2.13996 1.1119,-3.24168 2.71248,-4.49277 1.54301,-1.20608 2.22528,-2.28572 2.50498,-3.96408 0.21363,-1.28411 0.99752,-2.77635 1.76763,-3.36636 1.04898,-0.80381 1.3397,-1.83728 1.2032,-4.27797 -0.099,-1.76999 0.40262,-4.83857 1.1151,-6.81913 2.66037,-7.39693 7.07053,-11.60298 22.80407,-21.74852 6.54828,-4.22264 21.52262,-14.1171 33.27632,-21.98784 24.47503,-16.38944 42.12441,-27.89405 42.92214,-27.97854 1.9472,-0.20601 15.64223,18.21549 19.22638,25.86215 0,0 1.52647,3.25686 1.52647,3.25686 0,0 -6.94813,5.12512 -6.94813,5.12512 -6.96673,5.13868 -31.16506,21.64693 -36.34052,24.79162 0,0 -2.75957,1.67683 -2.75957,1.67683 0,0 5.45297,6.92176 5.45297,6.92176 2.99907,3.80698 5.87936,7.81099 6.4005,8.89792 0.88886,1.8536 1.00641,1.90229 1.89339,0.78522 3.45316,-4.3484 14.44914,-15.75607 18.75342,-19.45536 6.04805,-5.19834 11.21939,-8.22027 23.24065,-13.58084 11.17662,-4.98386 15.21472,-7.18543 36.62307,-19.96684 0,0 17.93487,-10.70778 17.93487,-10.70778 0,0 5.28551,-5.91591 5.28551,-5.91591 2.90702,-3.2537 7.73114,-8.63853 10.72025,-11.96624 2.98904,-3.32769 8.29572,-8.47894 11.79249,-11.44719 7.81652,-6.63521 16.2138,-11.20139 27.99589,-15.22347 9.77864,-3.33802 12.98164,-5.31321 15.90985,-9.81082 3.90073,-5.99193 5.69368,-6.7368 13.89663,-5.77323 7.19173,0.84474 19.33676,-1.28769 39.05624,-6.85736 32.86776,-9.28338 36.69966,-10.67194 72.02935,-26.10178 12.18929,-5.32358 23.09513,-10.01025 24.23524,-10.4148 2.02341,-0.71797 2.12762,-0.66586 4.37065,2.18143 3.77131,4.78694 10.33765,18.37541 12.55375,25.97823 0,0 0.78145,2.6814 0.78145,2.6814 0,0 -4.09678,2.65954 -4.09678,2.65954 -8.68358,5.63748 -32.65414,16.98933 -47.60014,22.54248 -21.16702,7.86449 -34.03259,10.27885 -52.96866,9.94015 -7.56342,-0.13552 -25.84235,-2.16492 -33.57546,-3.7281 -3.81812,-0.77191 -5.23357,-0.53973 -13.02784,2.13963 -3.33044,1.14472 -9.374,2.76322 -13.4303,3.59669 -7.21792,1.48311 -7.46643,1.58759 -11.64696,4.89859 -6.9868,5.53385 -28.8409,31.23861 -34.29855,40.34192 -1.5647,2.60972 -2.70545,4.76214 -2.53496,4.7833 0.17033,0.024 5.45841,-3.53272 11.75154,-7.89731 12.20027,-8.46147 18.84223,-12.2559 25.294,-14.44991 6.19613,-2.10713 17.20791,-4.36388 24.7535,-5.07291 7.57731,-0.712 6.45805,-0.0921 15.25019,-8.44535 0,0 2.72561,-2.58942 2.72561,-2.58942 0,0 4.4244,0.78806 4.4244,0.78806 13.12139,2.3369 17.76938,2.30416 47.12969,-0.33265 10.23273,-0.91888 19.92688,-1.6661 21.54286,-1.66029 1.6158,0.005 10.01786,-0.79212 18.67117,-1.77297 43.00192,-4.87417 54.10524,-5.66897 55.86064,-3.99846 1.96994,1.875 4.24332,17.89409 4.12789,29.08858 -0.028,2.78863 -0.21602,5.19567 -0.41602,5.34901 -0.19959,0.15353 -5.75827,1.09907 -12.35168,2.10175 0,0 0,0 0,0 m -398.90216,123.9044 c -4.99105,-0.62736 -9.09998,-0.79196 -9.2538,-0.37073 -0.15228,0.41641 -1.53795,2.10288 -3.07936,3.74706 0,0 -2.80265,2.98954 -2.80265,2.98954 0,0 2.08565,0.51168 2.08565,0.51168 4.05222,0.99391 12.98676,-0.43927 17.44525,-2.79892 5.28543,-2.79708 5.2048,-2.87195 -4.39509,-4.0786 0,0 0,0 0,0 m -12.18194,0.39879 c 0,0 1.49253,-1.97948 1.49253,-1.97948 0,0 -8.75468,-1.71472 -8.75468,-1.71472 -7.59264,-1.48703 -10.74746,-1.78298 -11.64851,-1.09258 -0.12423,0.0949 0.73309,1.1586 1.90466,2.3636 2.68313,2.75995 8.40827,6.59499 10.36819,6.9454 1.69857,0.3038 4.37264,-1.51814 6.63781,-4.52222 0,0 0,0 0,0 m -12.02048,6.23189 c -2.70674,-1.52984 -6.62297,-4.80686 -8.83362,-7.39176 -2.41839,-2.8279 -2.44287,-2.83785 -5.10457,-2.08336 -1.471,0.41725 -4.02218,0.98885 -5.66933,1.27072 -1.98971,0.34068 -3.03283,0.81087 -3.10802,1.40127 -0.0622,0.48888 -1.41505,2.08709 -3.00624,3.55168 -1.59121,1.46467 -2.70205,2.90549 -2.4686,3.20187 0.23326,0.29618 0.19759,1.46463 -0.0797,2.59624 0,0 -0.50403,2.05743 -0.50403,2.05743 0,0 9.35677,-0.56481 9.35677,-0.56481 8.26656,-0.49943 18.7515,-2.12024 20.02503,-3.096 0.24768,-0.18997 -0.0241,-0.61424 -0.60743,-0.94308 0,0 -3e-5,0 -3e-5,0" />

<path style="fill:#808080;stroke-width:1" d="m -82.33683,624.22733 c 0,0 29.529728,-2.04364 37.818748,0 8.289019,2.04364 23.831019,5.10912 35.2284381,10.21823 11.3974195,5.10911 109.5565739,36.78562 181.1856039,36.78562 71.62911,0 263.31331,-23.50193 297.50556,-17.37099 34.19222,6.13094 37.30059,1.02182 56.98704,-1.02182 19.68643,-2.04366 20.20449,-12.14795 37.30061,-5.56332 17.0961,6.58463 47.66189,7.60696 50.77029,11.69426 3.10837,4.08729 8.80708,122.08329 8.80708,127.1924 0,5.10912 -760.00001,-68.94851 -760.00001,-68.94851 0,0 54.39664,-92.98587 54.39664,-92.98587 0,0 0,0 0,0" />

<ellipse style="fill:#808080;" cx="255.05107" cy="298.73077" rx="12.584426" ry="12.410677" />

<ellipse style="fill:#808080;" cx="220.88376" cy="176.55157" rx="14.830887" ry="14.626122" />

<ellipse style="fill:#808080;" cx="290.58929" cy="216.04221" rx="13.347801" ry="13.163511" />

<ellipse style="fill:#808080;" cx="235.71494" cy="59.542542" rx="17.797066" ry="14.626122" />

<ellipse style="fill:#808080;" cx="275.75848" cy="118.04718" rx="7.4154434" ry="8.7756739" />

<ellipse style="fill:#808080;" cx="216.43449" cy="-34.06456" rx="13.347801" ry="14.626122" />

<ellipse style="fill:#808080;" cx="255.39395" cy="253.91039" rx="5.0157008" ry="4.9464507" />

<ellipse style="fill:#808080;" cx="241.77608" cy="205.21414" rx="5.9110594" ry="5.8294477" />

<ellipse style="fill:#808080;" cx="269.55823" cy="220.95367" rx="5.3199549" ry="5.2465034" />

<ellipse style="fill:#808080;" cx="247.68726" cy="158.57854" rx="7.0932722" ry="5.8294477"  />

<ellipse style="fill:#808080;" cx="263.64716"  cy="181.89639" rx="2.9555297" ry="3.4976687" />

<ellipse style="fill:#808080;" cx="240.00276" cy="121.2701" rx="5.3199549" ry="5.8294477" />

</svg>
