<svg xmlns="http://www.w3.org/2000/svg" viewBox="0 0 512 384">

<rect width="512" height="384" fill="none"/>

<path style="fill:#808080;" d="m -76.984914,246.08796 c 0,0 29.529728,-2.04364 37.818748,0 8.289019,2.04364 23.831019,5.10912 35.2284385,10.21823 11.3974195,5.10911 109.5565775,36.78562 181.1856075,36.78562 71.62911,0 263.31331,-23.50193 297.50556,-17.37099 34.19222,6.13094 37.30059,1.02182 56.98704,-1.02182 19.68643,-2.04366 20.20449,-12.14795 37.30061,-5.56332 17.0961,6.58463 47.66189,7.60696 50.77029,11.69426 3.10837,4.08729 8.80708,122.08329 8.80708,127.1924 0,5.10912 -760.00001,-68.94851 -760.00001,-68.94851 0,0 54.396636,-92.98587 54.396636,-92.98587 0,0 0,0 0,0" />

<path style="fill:#808080;stroke-width:1.00000012" d="m 189.3318,303.68073 c 4.10939,-20.79447 6.05904,-24.55238 15.99629,-30.82841 5.47158,-3.45548 10.40903,-6.6061 10.97247,-7.00152 0.56453,-0.39568 -0.23102,-1.95771 -1.76726,-3.4722 -2.14665,-2.11674 -6.52168,-1.56876 -18.92404,2.37052 -8.87212,2.81829 -18.02171,5.12387 -20.33133,5.12387 -2.30971,0 -11.69813,7.08217 -20.86369,15.73806 0,0 -16.66424,15.73796 -16.66424,15.73796 0,0 9.90449,-18.93134 9.90449,-18.93134 0,0 9.90466,-18.93118 9.90466,-18.93118 0,0 20.58377,-5.35271 20.58377,-5.35271 11.3211,-2.94404 20.93593,-5.61397 21.3663,-5.93328 0.43096,-0.31923 -0.32931,-2.62977 -1.68863,-5.13404 -2.14287,-3.94885 -5.73343,-4.69652 -27.03917,-5.6311 -27.72575,-1.21576 -36.31435,-4.77591 -48.44016,-20.07755 -10.19481,-12.86525 -16.45581,-23.12231 -12.23116,-20.03814 1.92789,1.40746 10.466,7.81942 18.97302,14.24851 12.79535,9.66977 18.13932,12.14833 30.92846,14.34471 21.6857,3.7243 29.63961,3.41263 31.44712,-1.23206 2.1595,-5.54979 -0.0966,-6.70649 -19.40607,-9.97278 -13.93425,-2.35633 -19.34349,-4.59387 -28.37035,-11.73594 -15.05356,-11.9105 -30.10586,-27.60277 -28.24098,-29.44186 2.00896,-1.98123 16.08072,6.33223 29.74085,17.57051 7.92821,6.52259 16.09718,10.43709 29.32929,14.05454 10.08695,2.75755 19.39616,4.37024 20.6866,3.58368 4.97417,-3.03175 1.97157,-7.90612 -6.51898,-10.58302 -29.32299,-9.24435 -30.78481,-10.44936 -43.46381,-35.82198 -9.90071,-19.81217 -11.80003,-25.74175 -12.01938,-37.52019 -0.30494,-16.4433 6.29065,-33.305964 17.496,-44.726534 7.29286,-7.43223 19.89709,-14.11024 22.25115,-11.78878 0.68886,0.67963 0.20078,9.47664 -1.09134,19.54914 -1.2891,10.072594 -3.03956,26.161964 -3.88988,35.754444 0,0 -1.54599,17.4408 -1.54599,17.4408 0,0 5.17696,-4.6173 5.17696,-4.6173 7.21843,-6.43784 14.00472,-20.34436 14.7145,-30.15307 0.71827,-9.91953 2.67312,-10.511614 6.14037,-1.86001 6.67666,16.65986 5.14949,31.26474 -4.5396,43.41248 -3.85612,4.83446 -6.98355,6.15296 -14.7681,6.22655 0,0 -9.87626,0.0983 -9.87626,0.0983 0,0 6.30795,3.37853 6.30795,3.37853 3.84729,2.06054 6.93465,6.19329 7.91527,10.59478 1.15519,5.18788 4.66234,9.12741 12.47705,14.01489 12.81182,8.01263 14.96519,8.2576 20.4124,2.32163 2.25955,-2.46218 9.33962,-5.71453 15.73385,-7.22717 13.2343,-3.13113 14.48206,-6.47891 5.48225,-14.7093 -6.69952,-6.12624 -6.83712,-12.43487 -0.35703,-16.45866 7.23968,-4.49651 12.41177,1.00641 12.41177,13.2064 0,5.83449 0.76279,11.36361 1.69418,12.28719 0.9324,0.92316 7.08486,1.67923 13.67315,1.67923 6.58829,0 12.74083,-0.75607 13.67315,-1.67923 0.9324,-0.92316 1.69418,-6.4527 1.69418,-12.28719 0,-12.19983 5.17209,-17.70291 12.41194,-13.2064 6.47849,4.02379 6.34148,10.33242 -0.35787,16.45866 -8.87918,8.11958 -7.86773,12.097 3.5326,13.89468 5.32221,0.83924 12.65691,3.99935 16.29973,7.02236 8.33892,6.9197 8.68242,6.8992 21.79583,-1.3022 7.8899,-4.93444 11.31858,-8.81113 12.50494,-14.13864 1.00591,-4.51691 3.82335,-8.32355 7.32428,-9.89676 8.27986,-3.72044 7.01463,-5.30532 -4.23423,-5.30532 -8.54247,0 -10.6514,-1.05043 -15.09229,-7.51582 -7.42526,-10.80933 -9.17387,-25.84029 -4.38007,-37.65544 4.78213,-11.786854 6.7532,-12.139764 7.53447,-1.34858 0.70902,9.80864 7.49599,23.71507 14.71408,30.15316 0,0 5.1768,4.61722 5.1768,4.61722 0,0 -1.56145,-17.44089 -1.56145,-17.44089 -0.85881,-9.59239 -2.53644,-25.75368 -3.72808,-35.913804 -1.1914,-10.1602 -1.67562,-18.9573 -1.0758,-19.54922 2.21309,-2.18235 15.02314,4.74676 22.08927,11.94831 17.68005,18.019024 22.38943,46.199094 11.60312,69.430364 -15.80988,34.05026 -16.35736,34.88606 -26.04175,39.75866 -5.23434,2.6333 -14.66838,6.29653 -20.96508,8.14066 -10.93425,3.20229 -14.63403,7.95048 -8.91227,11.43788 1.39519,0.85016 11.23625,-0.89989 21.869,-3.89014 14.02766,-3.94449 21.60262,-7.56193 27.60689,-13.18414 10.05687,-9.41682 28.0155,-20.29739 30.10275,-18.23853 1.74425,1.72014 -15.02315,19.26435 -28.79929,30.13349 -6.96557,5.49594 -14.13494,8.3102 -28.24232,11.08673 -19.3361,3.80545 -21.90504,5.42201 -18.08749,11.38058 1.85841,2.90036 5.33616,3.01083 23.52504,0.74683 21.02994,-2.61793 21.63186,-2.87272 40.92737,-17.33672 16.11466,-12.07978 18.78635,-13.45095 15.08448,-7.74137 -18.84297,29.06315 -27.47323,34.20777 -59.75942,35.62389 -21.30624,0.93416 -24.89672,1.68225 -27.03975,5.63102 -1.35916,2.50452 -2.11867,4.8101 -1.6883,5.12387 0.43096,0.31335 8.22954,2.45126 17.33192,4.75021 9.10205,2.29895 18.94135,5.64782 21.86548,7.44197 2.9238,1.79415 9.14304,10.84554 13.82025,20.11434 0,0 8.50441,16.85224 8.50441,16.85224 0,0 -16.77554,-16.25839 -16.77554,-16.25839 -9.22663,-8.9421 -16.7758,-15.58079 -16.7758,-14.75273 0,0.82748 -8.24509,-1.0138 -18.32237,-4.092 -25.59407,-7.81934 -35.1196,-4.69115 -16.92458,5.55751 10.19389,5.74217 14.67922,13.45179 17.18827,29.54561 0,0 1.45367,9.32618 1.45367,9.32618 0,0 -6.2615,-12.01887 -6.2615,-12.01887 -5.7961,-11.12587 -7.48095,-12.49057 -22.67102,-18.36799 -14.43695,-5.58608 -17.47911,-6.03308 -25.31071,-3.7191 -4.89529,1.44644 -12.37784,2.63003 -16.62686,2.63003 -4.24952,0 -11.73215,-1.18392 -16.62744,-2.63003 -7.83151,-2.31398 -10.87368,-1.86698 -25.31054,3.7191 -15.14806,5.86112 -16.89802,7.27295 -22.76822,18.36799 -4.90528,9.27284 -6.04241,10.4208 -4.97618,5.02432 0,0 4.2e-4,9e-5 4.2e-4,9e-5" />

<rect y="350" x="-20" style="fill:#808080;" width="530" height="120" />
</svg>
