<svg xmlns="http://www.w3.org/2000/svg" viewBox="0 0 1024 768">
<rect width="1024" height="768" id="P005WIImgRct0" fill="#fff"/>

<rect y="678.56256" x="-7.0710678" height="104" width="1039.5563" style="fill:#808080;" />
<path d="m 900.45436,313.09304 c -1.04827,-0.63919 -1.81997,-1.78458 -2.2092,-3.27897 -1.69052,-6.49033 3.13153,-16.47464 14.10588,-29.20688 3.68251,-4.27239 6.46645,-6.3656 7.71159,-5.79827 0.28503,0.12986 0.74665,0.54507 1.02582,0.92268 0.61551,0.83252 0.97108,0.86393 1.45305,0.12836 0.29162,-0.44509 0.33489,-0.8666 0.21354,-2.08021 -0.15395,-1.53928 0.0829,-2.68676 0.6258,-3.03197 0.3769,-0.23965 1.88605,-0.20719 3.07187,0.066 2.02228,0.46598 3.86765,1.5595 5.71391,3.3859 1.04736,1.03608 2.09582,1.85989 2.56356,2.01427 1.8466,0.60943 5.47194,-0.44026 8.70777,-2.52128 2.05989,-1.32476 2.829,-1.44185 4.35554,-0.66305 2.37891,1.21362 6.57958,6.04662 11.25238,12.94617 4.57811,6.7597 10.14163,16.49363 10.14163,17.74376 0,0.85714 -0.56777,1.25919 -1.77818,1.25919 l -1.0714,0 -3.40014,-4.25063 c -3.63643,-4.54601 -6.83844,-8.05777 -7.99406,-8.76741 -0.76991,-0.47279 -7.5413,-2.37819 -7.7412,-2.17829 -0.14766,0.14767 3.17316,5.20307 4.90561,7.46803 0.68692,0.89803 1.74951,2.02907 2.36133,2.51341 0.87851,0.69548 4.0074,2.65219 6.82435,4.26776 0.35728,0.20491 -3.1151,1.33365 -6.38758,2.07638 -2.8887,0.65562 -7.66276,0.83984 -9.50021,0.36659 -2.2744,-0.58579 -3.0226,-1.1057 -6.44335,-4.47729 -3.69715,-3.64401 -4.10273,-4.3472 -3.45638,-5.99263 0.346,-0.88084 0.34535,-0.88366 -0.35859,-1.54937 -1.06296,-1.00522 -1.69753,-1.25194 -3.17898,-1.236 -1.72154,0.0185 -3.78091,0.8313 -6.18722,2.44194 -2.37737,1.59126 -3.99083,2.88167 -10.67931,8.54115 -10.63513,8.9989 -12.55712,10.16546 -14.64783,8.8906 z" />
<path d="m 831.05573,289.56793 c -3.50963,-0.77902 -7.10938,-2.34253 -8.70771,-3.78211 -1.72892,-1.55716 -2.07211,-2.6795 -2.25836,-7.38523 l -0.16196,-4.09228 -1.08087,-2.1794 c -1.28614,-2.59321 -1.75699,-3.0536 -5.16887,-5.05413 -4.70159,-2.75671 -12.26532,-7.64425 -16.93617,-10.94381 -13.57861,-9.59216 -22.68209,-18.40081 -26.18879,-25.34071 -1.46395,-2.8972 -1.48954,-3.49662 -0.0727,-1.70421 2.53808,3.21089 7.61935,7.73184 12.36191,10.99872 6.7105,4.6225 17.26045,9.90298 26.04856,13.03787 l 2.79182,0.9959 -0.37424,-0.89567 c -0.50842,-1.21681 -0.47041,-2.11669 0.14285,-3.38355 0.63668,-1.31519 2.89429,-3.8006 3.45225,-3.8006 0.24247,0 0.91967,0.90821 1.65773,2.22321 1.45876,2.59915 4.99145,7.10268 6.95965,8.87225 3.99623,3.59295 13.10631,6.26753 27.13395,7.96611 5.28591,0.64006 13.04061,1.24991 18.88891,1.48547 2.41212,0.0971 4.35241,0.26197 4.3118,0.36625 -0.14199,0.36439 -2.96255,2.65251 -4.64698,3.76975 -5.25919,3.48828 -11.24808,5.27748 -18.57743,5.55006 -5.78856,0.21528 -11.61039,-0.48538 -16.6885,-2.00843 -0.92746,-0.27816 -1.71156,-0.4805 -1.74244,-0.44961 -0.0309,0.0309 1.81427,3.34864 4.10034,7.3728 2.28607,4.02417 4.1579,7.4591 4.15966,7.6332 0.01,0.97403 -6.17139,1.46576 -9.40438,0.74815 z" />
<path d="m 913.2283,256.21604 c -19.41206,-2.09512 -31.14221,-4.50312 -32.68822,-6.71033 -0.2483,-0.35452 -0.45147,-1.16315 -0.45147,-1.79697 0,-1.43855 0.85306,-2.11666 2.6628,-2.11666 1.95638,0 3.22181,-0.33088 3.22181,-0.84243 0,-0.25041 -1.41191,-3.40038 -3.13757,-6.99993 -3.68538,-7.68731 -5.52442,-12.15449 -6.62457,-16.09151 -0.95134,-3.40456 -1.3094,-7.85324 -0.78656,-9.77272 0.40046,-1.47016 2.33726,-3.81585 2.72462,-3.29978 1.5351,2.04536 10.91342,16.34132 13.02703,19.85797 3.19631,5.31798 4.17389,7.18493 4.72213,9.01833 0.21649,0.72397 0.52214,1.3163 0.6792,1.3163 0.6081,0 7.0661,-3.48936 9.85104,-5.32268 3.86939,-2.5472 8.28769,-6.8407 10.12294,-9.83704 2.02609,-3.30796 2.1918,-3.46895 3.4596,-3.36088 1.70644,0.14545 2.31526,1.48576 2.46082,5.4172 0.14841,4.00951 -0.46023,6.86405 -2.2445,10.52698 -2.23197,4.58198 -5.61097,8.31137 -10.3263,11.39707 l -1.31402,0.8599 0.84947,1.57021 c 0.97285,1.7983 3.81375,4.99374 5.1855,5.83258 0.98491,0.60231 0.96056,0.60849 -1.39375,0.35439 z" />
<path style="opacity:1;fill:#808080;" d="m 668.59981,183.07894 c -9.56728,-2.84048 -12.40558,-4.36337 -19.62088,-10.5276 -7.36689,-6.29373 -15.98991,-10.56834 -24.33902,-12.06535 -7.32503,-1.31339 -11.41795,-0.87693 -25.40688,2.70936 -9.05357,2.32103 -11.15528,2.4907 -25.5,2.05861 -17.4253,-0.52489 -27.205,-2.34564 -36.63322,-6.82026 -11.12839,-5.28152 -17.5,-12.6473 -17.5,-20.23056 0,-7.11432 9.35109,-16.5913 20.7632,-21.04274 8.19712,-3.19739 20.8143,-4.66825 40.11779,-4.67675 20.88413,-0.009 32.87099,-1.1102 44.03439,-4.04456 4.67482,-1.2288 13.53112,-2.33534 23.08462,-2.88428 18.01642,-1.03522 21.9622,-2.23673 31.64518,-9.636137 13.54344,-10.349442 11.04413,-9.47539 26.26568,-9.18556 12.7037,0.24188 13.8575,0.10495 17.70784,-2.101603 2.34407,-1.343343 5.14473,-4.132252 6.5,-6.472736 5.87149,-10.139768 17.86453,-17.952633 27.55797,-17.952633 10.09139,0 20.99113,7.776419 26.70538,19.052946 5.47695,10.808246 10.28027,14.168806 24.637,17.236836 10.49804,2.24344 12.69116,3.29333 19.98095,9.565287 3.025,2.60264 6.94805,5.33925 8.71788,6.08136 4.67641,1.96086 11.33574,1.65545 16.82225,-0.77149 9.69371,-4.28799 23.56369,-1.19612 32.69772,7.28892 7.37322,6.84935 15.56149,9.78335 27.56137,9.87575 3.13543,0.0241 7.34013,0.62956 9.34379,1.34538 4.14243,1.47991 12.85699,8.26378 12.85699,10.00857 0,0.6363 -1.93611,3.35716 -4.30247,6.04634 l -4.30247,4.88943 -18.17105,1.28438 c -18.854,1.33266 -27.25712,2.49811 -35.65551,4.94512 -6.87078,2.00192 -12.69932,1.79691 -21.50471,-0.7564 -5.43882,-1.57709 -10.37319,-2.20921 -17.56379,-2.25 -11.52904,-0.0654 -15.88799,1.02955 -23.40793,5.87996 -5.73796,3.70101 -10.79244,4.90374 -20.59207,4.89993 -11.99048,-0.005 -17.07854,-1.20736 -23.63769,-5.58739 -4.68875,-3.13103 -7.36768,-4.20768 -11.25762,-4.52442 -4.80924,-0.39159 -5.48592,-0.1352 -11.69136,4.42978 -9.61498,7.07317 -40.72696,22.01789 -49.41333,23.73582 -13.03192,2.57737 -18.34851,2.61683 -26.5,0.19669 z" />
<path style="fill:#808080;" d="m 424.12809,133.49107 c -7.34729,-1.32538 -13.05374,-3.76084 -17.4835,-7.4618 -5.20163,-4.34584 -13.66549,-6.01623 -30.54478,-6.0282 l -13,-0.009 -8.37318,4.5 -8.37317,4.5 -11.62682,-0.0642 c -9.63171,-0.0532 -13.25699,-0.54017 -21.12683,-2.83802 -8.8965,-2.59763 -11.21519,-2.82452 -36.5,-3.57162 -30.6422,-0.90539 -38.50708,-2.23821 -36.96232,-6.26378 1.06903,-2.78584 9.96199,-5.76654 20.05295,-6.72124 8.97531,-0.84915 10.42655,-1.32137 22.20337,-7.22485 l 12.6004,-6.316327 11.39776,0.22188 c 12.85445,0.25024 17.2266,-1.13073 21.18649,-6.6919 2.86095,-4.017817 14.43472,-9.427672 24.52135,-11.461852 11.02118,-2.22265 16.53443,-5.114857 18.87136,-9.899768 1.99156,-4.07774 7.57153,-8.72551 14.12864,-11.768272 5.05028,-2.343536 14.49364,-2.462325 20.94686,-0.263493 5.80399,1.977619 13.15042,8.719644 14.01688,12.863679 2.31371,11.065928 2.45607,11.265553 17.18487,24.097586 8.63193,7.520307 9.23609,7.723177 23.348,7.839817 11.96591,0.0989 12.76131,0.23786 18.50339,3.2326 3.3,1.72109 7.125,4.34212 8.5,5.8245 4.22435,4.55427 7.6939,5.82213 14.10014,5.15254 l 5.72444,-0.59832 -3.41229,5.66667 c -1.87676,3.11667 -3.41229,5.97731 -3.41229,6.35698 0,0.37966 -8.6625,0.91165 -19.25,1.18218 -17.27038,0.4413 -20.12412,0.76663 -27.75,3.16362 -9.4092,2.95753 -21.50932,4.0171 -29.47172,2.58077 z" />
<path style="fill:#808080;" d="m 603.59981,88.585943 c -1.375,-0.43804 -4.91144,-2.02079 -7.85876,-3.517221 -10.91574,-5.542211 -40.83869,-5.350756 -60.13464,0.384758 -1.92137,0.571106 -6.44976,1.038375 -10.06309,1.038375 -5.81268,0 -7.58543,-0.518294 -15.38472,-4.497972 l -8.81503,-4.497972 -12.12188,0.103096 c -13.54467,0.115198 -19.07094,-1.259838 -28.1065,-6.993399 -5.1714,-3.28154 -8.77652,-4.4871 -16.64222,-5.565194 -4.4929,-0.615809 -4.71587,-0.813793 -7.70228,-6.839081 -1.69149,-3.412702 -2.75941,-6.50857 -2.37316,-6.879705 0.38626,-0.371135 3.62728,-1.426068 7.20228,-2.344297 3.575,-0.918228 10.88407,-3.937238 16.24237,-6.708911 l 9.74237,-5.039406 10.25763,0.616918 c 5.6417,0.339304 12.77153,0.898063 15.84406,1.241686 7.41099,0.828821 10.397,-0.801779 17.29119,-9.442381 7.70977,-9.662774 12.21538,-11.554622 27.62238,-11.598305 20.2455,-0.0574 28.49108,4.395605 32.94996,17.794547 3.40166,10.222 6.5395,12.207181 23.98088,15.171693 10.86414,1.846579 13.57167,2.861176 20.8912,7.828583 6.218,4.219855 9.94221,5.36578 20.17796,6.208679 5.08726,0.418929 11.17705,1.955298 18.93012,4.775802 l 11.43012,4.158186 -5.43012,0.772357 c -2.98657,0.424797 -8.80512,2.377915 -12.93012,4.340262 -6.12598,2.914256 -9.32032,3.741763 -17.43614,4.516904 -5.67342,0.541868 -11.80523,1.775784 -14.29286,2.876182 -5.43383,2.403646 -10.02752,3.129096 -13.271,2.095816 z" />
<path style="fill:#000000;" d="m 955.83069,130.94442 c -2.22003,-4.35163 -10.46316,-12.59619 -16.73157,-16.7345 -6.18081,-4.08047 -11.98679,-5.70621 -23.75778,-6.65241 l -10.82513,-0.87018 -4.8317,-4.51949 C 887.19878,90.488903 865.51232,85.308159 850.6234,90.447483 c -6.02367,2.07924 -5.90622,2.10996 -11.95997,-3.12905 l -4.2447,-3.673431 2.00652,-7.934682 c 7.20109,-28.476459 30.04741,-48.536858 59.43674,-52.188911 29.25174,-3.634957 57.93804,11.97359 70.70323,38.470446 6.77965,14.07259 8.66694,29.117938 5.51935,43.999995 -1.59257,7.52978 -7.76688,21.14936 -11.76846,25.95941 l -2.46199,2.95941 -2.02343,-3.96625 z" />
<path  d="m 360.83598,367.93513 c 2.12266,1.29398 3.84788,4.3747 5.8015,6.36524 2.67667,3.10865 4.83865,6.64848 7.64477,9.63574 3.34311,-0.20788 4.22646,-3.91613 6.32005,-5.90486 1.64915,-1.9419 4.11194,-3.46496 6.27146,-4.27955 2.49634,0.0539 4.34928,-1.84528 6.80222,-2.42672 2.04389,-0.37115 3.95497,-0.44243 6.23528,-0.87347 1.96738,0.0258 3.86778,0.10371 5.89873,0.27743 2.37177,-0.44232 4.58241,-0.0268 6.91365,0.24637 2.52391,0.597 6.8801,-1.31084 7.95421,-1.07007 -2.23147,2.14151 -5.18855,3.49465 -7.03228,6.00933 -1.96952,1.69753 -3.87646,3.73877 -5.52244,5.51184 -2.00797,1.34042 -3.56038,3.29254 -5.83476,4.15905 -0.7766,1.36338 -3.07037,1.41214 -4.13938,2.31683 -2.50249,0.95966 -4.95857,1.63268 -7.64763,1.73079 -2.53284,-0.33297 -5.1834,-0.0559 -7.54336,-0.94414 -3.37311,-0.12561 -4.7705,-5.49316 -8.09664,-4.0998 2.26366,2.67188 5.36214,4.57467 7.85833,7.05403 2.1318,2.7341 5.78257,2.69663 8.91801,2.91968 2.54872,0.35559 5.34186,0.98888 7.34107,2.43044 2.06639,1.10453 4.01864,2.6641 5.24785,4.582 1.12288,1.65151 3.09744,2.97536 3.2323,5.13342 1.42011,1.74956 2.10236,4.10788 3.48633,6.05043 1.01086,2.08044 1.5744,4.44134 2.80078,6.50644 0.86119,3.13687 2.59585,5.94315 4.52344,8.55898 -2.31721,-0.83154 -4.3646,-2.7102 -6.75426,-3.38779 -1.93868,-0.9555 -3.8603,-1.16591 -5.89057,-1.5777 -1.68537,-0.0139 -3.29363,-1.09933 -4.66095,-1.51464 -1.7084,-1.51152 -3.63961,-1.50319 -5.49005,-2.93372 -1.40242,-0.44264 -2.93337,-1.91003 -3.83342,-2.95893 -1.36076,-0.75917 -2.65786,-2.53868 -3.07229,-4.5153 -0.90957,-2.2009 -1.41254,-4.6713 -2.2897,-6.96711 -1.26398,-4.14237 -0.55816,-9.36588 -4.27519,-12.38477 -2.3968,-2.30565 -4.84701,-4.68087 -7.74023,-6.34167 0.0634,2.53532 4.56227,3.50719 4.72122,6.74016 0.81413,2.20106 0.73936,4.27574 1.08131,6.3709 -0.19801,2.28204 0.18161,4.84112 -0.51933,6.99487 -0.14955,2.63689 -0.60632,4.97601 -1.64037,7.39454 -0.72878,1.65788 -1.28294,3.562 -2.60658,4.89948 -1.04066,1.75791 -2.06061,3.27659 -3.21281,5.20436 -1.6158,1.60053 -2.74881,3.51328 -4.09185,5.29493 -1.18177,1.87734 -1.91074,4.40865 -3.46587,5.9935 0.73905,-2.83534 0.9395,-5.83352 0.59665,-8.73966 -0.59709,-2.34221 -1.03787,-4.73446 -0.71738,-7.16542 -0.07,-2.33226 0.30145,-4.45436 0.37883,-6.7765 0.0702,-2.68193 0.63852,-5.26611 0.44072,-7.97482 0.25511,-1.75621 0.0274,-3.38988 -0.0542,-5.12578 -0.007,-2.86504 1.48279,-5.7514 3.4171,-8.02487 1.33577,-2.35185 6.56356,-3.78221 4.35481,-6.994 -3.69362,-5.27224 -7.58767,-10.46359 -12.24271,-14.92607 -0.13632,-0.19184 0.003,-0.35267 0.13361,-0.47342 z" style="fill:#808080;" />
<path d="m 183.90922,686.51373 c -1.78515,-0.94373 -3.76638,-2.34328 -4.40272,-3.11008 -1.61818,-1.94975 -0.89431,-9.18389 1.97442,-19.73191 5.183,-19.05709 10.01417,-58.75623 10.05209,-82.6019 0.0269,-17.12434 -0.47725,-23.0232 -5.36467,-62.70817 -3.66024,-29.72136 -4.34887,-33.11802 -6.5707,-32.4111 -6.34776,2.01975 -14.53458,6.03013 -16.67882,8.17021 -2.84491,2.8396 -3.0833,2.72372 -1.50809,-0.73338 1.41059,-3.09585 0.0252,-4.492 -3.65374,-3.68383 -1.52215,0.3343 -6.11396,2.64041 -10.20407,5.12464 -4.09009,2.4842 -7.58396,4.3693 -7.76421,4.18911 -0.18033,-0.18014 0.89494,-1.49901 2.38927,-2.93067 3.86402,-3.70195 3.61806,-5.85678 -0.691,-6.05495 -1.87443,-0.0863 0.0678,-0.47508 4.31679,-0.86416 19.01459,-1.74125 22.2982,-2.31683 27.02083,-4.73638 10.18558,-5.21834 11.0276,-13.77336 2.51567,-25.55425 -1.9994,-2.76722 -4.06624,-5.03351 -4.59294,-5.03619 -0.52687,-0.004 -2.31883,1.39934 -3.98219,3.11558 -1.66353,1.71625 -5.11776,3.98747 -7.67608,5.04718 -7.00875,2.90309 -8.74118,3.86568 -8.74118,4.8567 0,1.38478 -4.64189,8.99231 -5.16671,8.46756 -0.25433,-0.25427 0.66762,-2.4726 2.04885,-4.92959 4.88345,-8.68743 1.27394,-9.51481 -10.39017,-2.38155 -7.07354,4.32583 -10.16203,4.94379 -3.85769,0.77189 2.03698,-1.34808 3.51125,-2.7623 3.27617,-3.14274 -0.23506,-0.38042 -2.78438,-1.03723 -5.66513,-1.45954 l -5.23766,-0.76787 8.17924,-0.6538 c 18.36968,-1.4683 22.81508,-2.19639 26.20642,-4.29241 4.36893,-2.70008 5.60434,-4.94308 3.62737,-6.58566 -1.14598,-0.95228 -5.93055,-1.23146 -21.10434,-1.23146 h -19.62231 l -0.68372,5.45283 c -0.63368,5.05287 -3.8743,12.73792 -9.8998,23.47679 -1.07474,1.91554 -2.252,5.80071 -2.61599,8.63373 -0.36383,2.83301 -0.71533,3.99938 -0.78089,2.59192 -0.0663,-1.40742 -0.55655,-3.37642 -1.09131,-4.37553 -0.80239,-1.49921 -1.21219,-1.61735 -2.34615,-0.67624 -1.80493,1.49798 -5.62172,9.31719 -9.3788,19.2136 -1.66351,4.38217 -3.19228,7.80008 -3.39703,7.59536 -0.20457,-0.20473 0.24883,-2.75031 1.00791,-5.65685 1.49987,-5.74397 1.34078,-6.69918 -0.81801,-4.9076 -0.77394,0.6423 -1.6253,0.94967 -1.89196,0.68306 -0.26652,-0.26663 0.79984,-1.39943 2.36985,-2.51736 1.84063,-1.31062 3.92989,-4.39256 5.88236,-8.67698 1.66542,-3.65441 3.89563,-7.18075 4.95614,-7.83632 4.89152,-3.02363 14.01089,-21.05685 13.49762,-26.69088 l -0.27599,-3.02906 -11.36014,6.30342 c -6.24812,3.46686 -12.79161,6.56636 -14.54108,6.88774 -5.34272,0.98153 -7.81889,2.7744 -12.34499,8.93863 -2.38913,3.254 -4.53435,5.7261 -4.76688,5.49355 -0.23255,-0.23256 1.27315,-2.94857 3.34601,-6.03561 2.07283,-3.08702 3.76892,-6.36677 3.76892,-7.28836 0,-2.95348 -5.75094,-2.06028 -15.69733,2.438 -5.00257,2.2625 -9.2584,3.95097 -9.45713,3.75219 -0.19875,-0.19879 1.69892,-1.68358 4.2171,-3.29954 4.09609,-2.62841 4.96261,-3.65389 4.72359,-5.59021 -0.12172,-0.98216 9.06456,-1.89976 17.2858,-1.72677 6.24732,0.1315 8.76882,-0.22365 12.12256,-1.70714 2.47272,-1.09375 4.07604,-2.34875 3.85361,-3.01618 -0.62102,-1.86308 -5.49802,-4.26536 -10.63818,-5.2402 -2.64031,-0.50072 -11.00882,-3.36591 -18.59656,-6.36708 -14.5651,-5.76087 -17.22499,-6.27291 -21.39187,-4.11809 -1.4237,0.73623 -4.40114,1.74478 -6.61648,2.24126 -2.21536,0.49645 -4.81318,1.15438 -5.77289,1.46206 -1.70319,0.54599 -1.70271,0.52497 0.0192,-0.87803 0.97032,-0.79054 2.49561,-1.43742 3.38977,-1.43742 2.67191,0 8.93279,-2.83819 8.93279,-4.04947 0,-0.6191 -0.92022,-1.56943 -2.04487,-2.11183 -1.91489,-0.92351 -1.85106,-0.9901 1.0049,-1.0477 3.89671,-0.0787 11.08353,1.75715 26.66046,6.81004 6.84351,2.21989 15.84077,4.8508 19.99389,5.84645 8.37292,2.00725 17.54207,2.39466 18.53796,0.78323 1.12355,-1.81806 0.55119,-6.29249 -1.57601,-12.31788 l -2.06416,-5.84704 -6.55725,0.61448 c -5.89595,0.55248 -6.76502,0.42099 -8.61604,-1.30343 -2.61283,-2.43432 -6.73452,-2.4528 -10.67927,-0.0479 -4.02738,2.45529 -4.71205,1.64022 -0.85862,-1.02214 1.65325,-1.14228 3.14127,-2.17429 3.30683,-2.29334 0.68942,-0.49613 -1.8441,-4.03977 -3.53544,-4.94499 -1.00631,-0.53858 -5.59151,-1.39923 -10.18919,-1.91253 -9.53438,-1.06448 -13.49256,-2.52333 -7.02457,-2.58901 4.53861,-0.0461 6.9214,-1.09926 5.97005,-2.63857 -0.90159,-1.45892 -0.0505,-1.25296 3.32342,0.80381 1.63651,0.99783 3.61741,1.81576 4.40178,1.81762 0.78453,10e-4 3.62752,1.64572 6.31791,3.65299 2.6904,2.00729 6.34274,4.01475 8.11623,4.46104 5.37981,1.35375 11.85887,2.0427 11.85256,1.2604 -0.0154,-1.82261 -8.02948,-9.8244 -13.41168,-13.38958 -3.91583,-2.59389 -7.50102,-6.03726 -10.56962,-10.15156 -2.55405,-3.42437 -5.53387,-6.66997 -6.62203,-7.21242 -1.3891,-0.69257 -1.74236,-1.36784 -1.18627,-2.26759 1.0869,-1.75864 -0.63318,-3.61431 -3.35027,-3.61431 -2.57807,0 -6.99296,-2.12282 -10.499,-5.04823 -3.65943,-3.05337 -8.35476,-4.32492 -13.26902,-3.59347 -5.29105,0.78754 -4.50953,-0.21407 1.35436,-1.7356 4.05708,-1.05269 4.37225,-1.33558 4.11173,-3.69154 -0.26793,-2.4223 0.0269,-2.26769 5.83496,3.05384 10.16883,9.3179 14.23634,8.75167 9.02017,-1.2557 -1.77552,-3.40631 -3.07126,-6.35008 -2.87965,-6.54176 0.42117,-0.42117 5.53022,7.31023 9.5791,14.4956 1.61944,2.87412 3.42563,5.22185 4.01379,5.21716 2.32924,-0.0193 10.78383,-5.68323 12.36631,-8.28555 1.12749,-1.85386 1.84361,-2.36348 2.17916,-1.55055 0.35166,0.85226 1.1877,0.40335 2.82263,-1.51554 1.27757,-1.49956 2.32483,-3.0433 2.32736,-3.43057 0,-1.11905 -4.35329,-2.47549 -8.00672,-2.49067 -1.84189,-0.008 -3.96244,-0.41035 -4.71221,-0.89487 -0.94663,-0.61185 0.73554,-0.88524 5.50653,-0.89492 7.75031,-0.0154 8.18018,-0.24857 13.0627,-7.07659 1.88406,-2.63487 5.22469,-6.02849 7.42361,-7.5414 2.19892,-1.5129 3.99814,-3.07519 3.99814,-3.4718 0,-0.3966 -2.67016,-3.28515 -5.9337,-6.41894 -5.17098,-4.96539 -6.25157,-5.61957 -8.40656,-5.08895 -5.3383,1.31443 -13.11484,1.57832 -17.08091,0.57964 -3.44381,-0.86715 -4.64918,-0.80732 -6.95996,0.34545 -1.53713,0.76684 -2.90097,1.39425 -3.03067,1.39425 -0.12957,0 0.23981,-1.26253 0.82134,-2.80567 0.95799,-2.54268 0.84409,-2.97949 -1.21503,-4.66002 -2.08439,-1.70116 -3.06054,-1.80533 -11.81465,-1.26048 -5.24841,0.32665 -10.87169,0.83423 -12.49618,1.12792 -1.79922,0.32533 -2.95359,0.16034 -2.95359,-0.42223 0,-0.52595 1.94253,-1.21053 4.31678,-1.52128 5.13291,-0.67178 8.40657,-1.89235 8.40657,-3.13421 0,-0.49521 -2.29402,-2.36782 -5.09768,-4.16136 -2.80381,-1.79355 -4.87558,-3.48316 -4.60401,-3.75471 0.27158,-0.27156 3.67131,1.5923 7.55492,4.14186 5.9506,3.90653 7.72915,4.63559 11.30879,4.63559 2.74647,0 4.66514,0.50296 5.42882,1.42316 3.00303,3.61847 11.83235,5.67996 19.44065,4.53902 7.24557,-1.08654 7.1312,-1.24057 -17.48644,-23.56742 -13.51137,-12.25387 -17.83921,-17.44222 -8.15444,-9.77554 2.63289,2.08435 7.7794,6.10803 11.43663,8.94146 l 6.64935,5.15176 4.02295,-1.07597 c 2.21265,-0.59178 5.35486,-1.64111 6.98285,-2.33177 l 2.9599,-1.25586 -5.90732,-0.79151 -5.90733,-0.7915 9.25635,-0.45707 c 8.71178,-0.43017 9.42014,-0.61407 12.04181,-3.12631 3.01946,-2.89349 3.63228,-5.65679 1.35847,-6.12504 -0.91011,-0.18743 0.32403,-1.46942 3.4081,-3.53995 7.24066,-4.86119 6.8146,-6.3818 -3.34429,-11.93254 -5.84665,-3.1945 -7.30179,-4.29577 -5.10224,-3.86126 2.96147,0.58505 3.05467,0.5188 2.48186,-1.7635 -0.83525,-3.32816 -0.0949,-2.95227 2.18912,1.11071 1.24456,2.2145 3.03794,3.87295 4.92627,4.5558 1.63318,0.59057 3.70479,1.8864 4.60368,2.87965 2.03808,2.25209 2.82198,2.25081 7.25994,-0.0116 1.96085,-0.9997 4.22849,-1.81763 5.03908,-1.81763 2.75311,0 2.65073,-1.16417 -0.65514,-7.45523 -2.34473,-4.46208 -4.44095,-7.0668 -7.23341,-8.98809 -2.16258,-1.4879 -5.21081,-4.29646 -6.77368,-6.24124 l -2.84159,-3.53597 -3.03146,3.03151 c -1.66732,1.66731 -4.28124,3.76971 -5.80859,4.672 -2.11394,1.24869 -2.64443,2.08222 -2.22152,3.48988 0.4523,1.50482 0.33367,1.63772 -0.63698,0.71334 -1.79638,-1.71112 -6.95267,-1.38842 -8.78129,0.54958 -0.87472,0.92705 -2.73936,3.83363 -4.14363,6.45904 -3.10366,5.80226 -4.23907,5.47851 -1.61234,-0.45973 4.80558,-10.86372 0.67236,-10.9198 -15.22054,-0.20652 -3.66466,2.4702 -6.82663,4.32759 -7.02662,4.12748 -0.20016,-0.2001 1.26448,-1.95385 3.25471,-3.89725 4.87127,-4.75675 4.7035,-5.89101 -0.87191,-5.89101 -2.46969,0 -4.75233,-0.42377 -5.0724,-0.9417 -0.39195,-0.63404 1.29781,-0.7535 5.17211,-0.36568 4.32847,0.43333 6.76718,0.19186 9.84369,-0.97495 2.24931,-0.85306 7.17922,-1.86801 10.95525,-2.25547 10.35445,-1.06239 19.29561,-6.39073 21.29516,-12.69043 1.63951,-5.1658 -6.27574,-9.3621 -27.81387,-14.74568 -15.59131,-3.89709 -24.1325,-6.92108 -19.88647,-7.04072 3.96908,-0.1119 24.73976,3.528 31.56257,5.53098 9.46014,2.77719 9.63297,2.55107 9.17925,-12.00847 l -0.3575,-11.47519 -8.99758,-18.30608 c -4.94871,-10.06833 -8.81462,-18.4891 -8.59091,-18.71283 0.2237,-0.22372 3.37239,4.86212 6.99721,11.30185 3.62468,6.43977 7.03704,11.98475 7.58302,12.3222 0.69053,0.42667 0.82104,-0.59774 0.4286,-3.36395 l -0.56398,-3.97749 2.26668,4.85225 c 2.54174,5.44096 3.98156,5.68922 5.72251,0.98679 1.04346,-2.81814 1.09115,-2.5108 0.50441,3.24911 -1.02749,10.09044 -0.89983,10.59009 5.84526,22.86978 6.65566,12.11725 9.23642,17.7882 13.85875,30.45351 1.50523,4.12437 3.73511,9.00759 4.9555,10.8516 2.8239,4.26736 10.06046,7.87468 17.30681,8.62728 4.56751,0.47437 5.80245,0.28288 7.60625,-1.17936 l 2.15327,-1.74566 -2.05185,-4.0389 c -1.12845,-2.22139 -5.53987,-9.50936 -9.80295,-16.1955 -4.26323,-6.68615 -8.76266,-14.66098 -9.99885,-17.72188 -1.23618,-3.06089 -3.2305,-6.85433 -4.43194,-8.42986 -1.4678,-1.92462 -1.82357,-2.98494 -1.08421,-3.23134 1.81691,-0.60568 1.2526,-5.42183 -1.43952,-12.28334 -1.88896,-4.81494 -2.35579,-7.13118 -1.82245,-9.04232 0.6801,-2.43654 0.75152,-2.35345 1.38405,1.60859 0.36684,2.29783 1.29986,5.40169 2.07349,6.89751 0.77347,1.4958 2.88992,7.7951 4.7032,13.99842 3.35945,11.49308 5.47873,16.28984 7.49409,16.96164 1.6474,0.54913 1.43823,-5.08462 -0.67426,-18.1593 -0.99101,-6.13402 -2.63872,-18.51413 -3.66148,-27.5114 -2.18928,-19.26003 -2.71031,-21.44876 -6.93626,-29.13696 -1.76401,-3.20927 -3.05629,-6.28821 -2.87159,-6.84213 0.18455,-0.55393 1.31232,1.07804 2.50602,3.62658 2.50729,5.35339 3.63985,5.8585 3.76702,1.68004 l 0.0899,-2.95364 1.14898,3.63525 c 0.63192,1.99938 2.66163,13.65493 4.51032,25.90122 8.84607,58.59859 11.20392,68.48846 15.69211,65.82095 2.48028,-1.47405 4.82311,-6.75346 4.80969,-10.83769 0,-1.9994 -0.63334,-6.27116 -1.39276,-9.49282 -0.75924,-3.22165 -1.72986,-9.30372 -2.15689,-13.51571 -0.43255,-4.26851 -1.26888,-7.96273 -1.8896,-8.34624 -0.85403,-0.52786 -0.8248,-0.78492 0.12625,-1.10372 1.95706,-0.65654 1.3087,-10.7389 -1.3899,-21.61599 -2.59591,-10.46324 -3.14081,-16.45993 -0.70192,-7.7249 1.56669,5.61086 2.94317,6.68767 3.84444,3.00728 0.28263,-1.15415 0.79622,5.46742 1.14124,14.7146 0.73144,19.6033 1.73937,28.2169 3.94793,33.73576 l 1.59257,3.98001 0.73889,-3.18083 c 0.40632,-1.74946 0.89304,-10.13328 1.08153,-18.63071 0.32258,-14.5365 0.51943,-15.98709 3.32925,-24.53797 3.92863,-11.95599 3.86734,-16.68 -0.40617,-31.30642 -4.77777,-16.35212 -3.93069,-16.40125 1.5986,-0.0926 2.61835,7.72284 4.97683,13.65285 5.24113,13.17778 0.26431,-0.47504 1.00887,-2.81804 1.65483,-5.20664 0.64582,-2.38862 1.36288,-4.15433 1.59339,-3.9238 0.23049,0.2305 -0.31502,3.26921 -1.21251,6.75275 -1.42053,5.51486 -1.49401,7.25579 -0.56712,13.46637 0.58547,3.92298 1.3207,10.0977 1.63366,13.72162 0.53221,6.15973 1.31992,7.84349 2.65689,5.68007 0.30901,-0.49985 1.04884,-0.89681 1.6441,-0.88218 0.59527,0.0134 -0.25608,1.24408 -1.8918,2.73203 l -2.97429,2.70539 1.84329,11.12739 c 2.3054,13.91544 5.27811,26.70926 6.9745,30.01502 2.98298,5.81286 3.2825,2.04307 2.61188,-32.87188 -0.7997,-41.63462 -1.1204,-44.94064 -5.26341,-54.2586 -1.75799,-3.95378 -3.46197,-8.70717 -3.78676,-10.56303 -0.3294,-1.88274 -2.34855,-5.69913 -4.56783,-8.63373 -4.34871,-5.75019 -4.65851,-7.4288 -0.66495,-3.60274 1.3967,1.33812 2.88077,2.43298 3.29799,2.43298 1.57553,0 -0.40348,-9.00164 -4.06038,-18.46926 -3.91411,-10.13311 -4.55393,-14.38288 -0.88374,-5.86919 3.78739,8.7857 6.38394,17.4124 8.61667,28.62812 1.21596,6.10819 2.89988,12.43818 3.74191,14.06663 l 1.53113,2.96085 0.86967,-2.25206 c 0.47853,-1.23862 1.09149,-7.68063 1.36257,-14.31558 0.27094,-6.63495 0.66021,-11.89601 0.86495,-11.69128 0.20475,0.20474 1.1836,10.31732 2.17538,22.47239 0.99196,12.15505 1.94109,22.23786 2.1095,22.40622 0.16821,0.16841 1.99749,-1.71404 4.06465,-4.18314 4.06955,-4.86061 6.19312,-9.20585 7.34953,-15.03823 l 0.73744,-3.72004 0.1123,3.18083 c 0.16532,4.69634 1.0447,7.27053 2.48358,7.27053 1.39274,0 6.91461,-8.22672 13.00045,-19.36889 2.13288,-3.90493 4.0451,-6.93279 4.24936,-6.72858 0.2041,0.20419 -0.65641,2.69511 -1.91251,5.53538 -2.137,4.83189 -2.84885,7.83871 -1.85594,7.83871 0.2352,0 2.27379,-1.30127 4.53023,-2.8917 2.25641,-1.59043 4.34491,-2.64923 4.64128,-2.35288 0.29637,0.29635 -1.84457,2.25308 -4.75755,4.34832 -2.91302,2.09523 -8.0377,6.52802 -11.38847,9.85062 -3.35074,3.32257 -8.05379,7.92588 -10.45145,10.22954 -2.3975,2.30369 -5.77413,6.55505 -7.50372,9.44743 -2.84709,4.76132 -3.17869,6.04186 -3.50539,13.53338 -0.20112,4.61276 0.0996,9.98372 0.68041,12.13693 0.96211,3.56908 1.27269,3.86245 4.08852,3.86245 2.42499,0 3.15485,-0.42839 3.57381,-2.0979 0.77458,-3.08604 7.79551,-17.64936 7.82488,-16.2307 0.0154,0.66595 -1.15626,3.9377 -2.60002,7.27049 -3.38913,7.82365 -4.06988,10.14927 -2.97082,10.14927 1.04743,0 9.03455,-6.24695 11.16064,-8.72909 4.12216,-4.81233 12.14722,-18.11416 19.87273,-32.93971 4.7435,-9.10296 8.7543,-16.16141 8.91289,-15.68545 0.1586,0.47598 -3.20824,8.32981 -7.48206,17.45302 -4.27398,9.12319 -7.67135,16.67937 -7.54984,16.79153 0.12173,0.11203 3.08375,-0.95987 6.58268,-2.38226 9.79314,-3.98113 9.97389,-3.14513 0.45436,2.10221 -8.40768,4.63444 -8.71368,4.91834 -11.68767,10.83957 -3.61757,7.20266 -5.07462,17.55653 -2.60398,18.50459 1.92988,0.74057 5.84038,-1.43585 11.16775,-6.21559 4.47209,-4.01242 11.08543,-7.93616 13.31184,-7.89809 0.64471,0.0116 -0.91897,1.23944 -3.47493,2.72977 -9.25806,5.39839 -17.34156,14.2496 -15.07946,16.51164 0.482,0.48197 2.62293,1.26876 4.75773,1.74841 3.71235,0.83414 9.59613,4.2054 8.77401,5.02742 -0.21564,0.21571 -1.89322,-0.4935 -3.72799,-1.57601 -2.52801,-1.49153 -4.29484,-1.86009 -7.29582,-1.52182 -3.76956,0.42488 -3.98488,0.32116 -4.48078,-2.15841 -0.39432,-1.97087 -1.03526,-2.60475 -2.63401,-2.60475 -2.88707,0 -4.2942,1.64336 -4.2942,5.01531 0,4.58602 2.6193,12.13084 4.57461,13.17733 1.61489,0.86427 1.78708,1.94506 1.78708,11.21796 0,10.41953 1.38913,27.47206 2.60968,32.03563 0.36873,1.37869 1.10159,2.65048 1.62878,2.82617 1.29305,0.43106 2.06937,-5.76689 2.70016,-21.55813 l 0.5264,-13.17781 8.62568,-17.38982 c 7.97196,-16.072 8.68904,-17.96596 9.4625,-24.9924 0.4602,-4.1814 2.05594,-12.37476 3.54601,-18.20748 1.49023,-5.83272 2.72784,-12.17171 2.75026,-14.08662 l 0.0411,-3.48169 1.10427,2.58446 c 1.08754,2.54536 1.12845,2.55759 2.71268,0.80706 1.47599,-1.63097 3.00634,-7.09069 6.42739,-22.93104 l 1.27568,-5.90727 0.10596,5.32289 c 0.0868,4.33208 0.36003,5.22553 1.46951,4.7998 1.93478,-0.74248 1.69891,0.32136 -0.92875,4.18849 -1.26068,1.85512 -2.68487,5.44412 -3.16497,7.97553 -0.4801,2.53145 -1.85024,5.91389 -3.04474,7.51661 -3.39323,4.5525 -7.14461,15.06056 -7.65948,21.45482 -0.34139,4.23873 -0.1857,5.64271 0.57316,5.17367 1.19527,-0.73873 10.34559,-16.02194 17.19102,-28.713 8.81588,-16.34444 10.08889,-15.71 2.45941,1.22575 -2.764,6.13572 -7.9252,16.44708 -11.46914,22.91414 -15.74963,28.73997 -17.07933,34.06258 -7.33674,29.36745 4.12373,-1.98728 13.22021,-10.49921 18.74238,-17.53808 1.44979,-1.84789 4.51712,-4.30051 6.81619,-5.45028 6.10354,-3.05235 16.55514,-7.08677 17.05751,-6.58439 0.23839,0.23829 -3.99292,2.78826 -9.40276,5.66664 -13.32954,7.09201 -14.45594,7.97093 -16.25579,12.68363 -1.48107,3.87804 -1.47995,4.18302 0.0205,5.84102 0.87062,0.96213 3.68915,2.13436 6.2631,2.60498 3.60857,0.65973 4.01963,0.88036 1.79576,0.96358 -1.58643,0.0594 -4.9296,-0.36409 -7.42915,-0.94107 l -4.54477,-1.04908 -5.6645,4.20933 c -3.11536,2.31511 -7.54275,4.86073 -9.83833,5.65686 -7.02361,2.43582 -8.61226,3.5085 -10.74372,7.25455 -4.55614,8.00744 -5.59895,12.56018 -7.07543,30.89122 -1.21755,15.11783 -1.92973,19.51865 -4.67698,28.90121 -2.29971,7.8544 -3.23623,12.82258 -3.22515,17.11148 0.0192,7.12839 4.68773,36.35225 5.7078,35.72181 2.33603,-1.44374 6.43657,-34.14228 6.6342,-52.9016 0.0757,-7.25246 0.36398,-10.1842 0.82479,-8.40653 0.38911,1.5013 1.12576,2.72965 1.63683,2.72965 2.0776,0 3.57903,-6.8152 4.41647,-20.04771 0.48011,-7.58457 1.04204,-13.95931 1.24867,-14.16607 0.2068,-0.20676 0.58501,2.54558 0.84045,6.11631 0.264,3.68835 0.94772,6.7908 1.58327,7.18358 0.85611,0.52912 0.75737,1.24275 -0.421,3.04101 -0.84677,1.29231 -1.88911,5.12669 -2.31629,8.52086 -0.42719,3.39413 -1.59657,8.0224 -2.59861,10.28503 -1.97824,4.46647 -4.41695,20.529 -3.27792,21.589 0.38578,0.359 0.85308,0.24377 1.0384,-0.25608 0.18552,-0.49984 2.99071,-4.70924 6.23402,-9.35415 3.24333,-4.64493 6.45758,-9.55254 7.14258,-10.90575 0.71943,-1.421 1.51408,-7.25966 1.88092,-13.82062 0.64627,-11.55644 1.93017,-25.01051 2.18991,-22.94754 0.079,0.62483 0.53618,1.13603 1.01674,1.13603 1.23698,0 2.50855,-5.4398 3.58614,-15.34146 1.01771,-9.35276 1.87063,-11.74264 1.95768,-5.48554 l 0.0553,4.01392 2.14063,-4.54407 c 1.17726,-2.49922 2.17065,-3.93061 2.20729,-3.18084 0.0363,0.74978 -0.88357,3.40805 -2.04521,5.90731 -1.16146,2.49921 -2.38769,6.56764 -2.72482,9.04091 -0.33697,2.47326 -1.5994,7.38085 -2.80509,10.90576 -1.9479,5.69423 -4.77856,25.6277 -3.78109,26.62523 0.4553,0.45526 12.57708,-15.58742 28.18781,-37.30585 6.39692,-8.89941 11.81909,-15.9923 12.04943,-15.76195 0.23034,0.23035 -4.10225,7.66532 -9.62791,16.52213 -5.52564,8.85679 -9.82553,16.46088 -9.55538,16.89792 0.75198,1.21669 3.87444,0.94858 7.17099,-0.61577 3.27192,-1.55262 6.5195,-6.82804 9.09884,-14.77989 0.86163,-2.65657 1.758,-4.6387 1.99212,-4.4047 0.23397,0.23401 -0.42117,3.16634 -1.45595,6.51632 -1.03459,3.34995 -1.88121,6.91559 -1.88121,7.92358 0,1.73947 0.10415,1.75638 2.0449,0.33184 3.18896,-2.34078 9.1279,-5.04066 11.13296,-5.06111 1.30856,-0.0134 0.94582,0.42648 -1.29526,1.57045 -1.71203,0.87396 -3.5081,2.23795 -3.99136,3.03109 -1.43082,2.34835 0.14226,7.78013 3.45784,11.94087 3.97446,4.98735 8.98304,13.3918 8.35507,14.01985 -0.26682,0.2667 -1.08847,-0.67771 -1.82608,-2.09877 -0.73761,-1.42102 -3.83512,-5.80718 -6.88316,-9.74703 -3.04807,-3.93987 -5.54825,-7.62054 -5.55598,-8.17933 -0.0442,-3.21701 -1.52814,-3.32142 -7.49867,-0.52751 -3.30776,1.5479 -8.3034,3.04911 -11.11085,3.33886 -4.02533,0.41544 -5.61777,1.07034 -7.55252,3.10589 -3.83638,4.03641 -16.63511,25.59641 -15.73131,26.50018 1.34711,1.34706 13.98452,4.32538 15.84615,3.7345 1.22229,-0.38791 1.54694,-0.22575 1.07536,0.53716 -2.05972,3.3329 6.69406,9.10038 11.84878,7.8066 1.97206,-0.49494 2.1986,-0.83289 1.29132,-1.92603 -1.4286,-1.7214 -0.94233,-1.67276 3.59783,0.35995 2.0708,0.92715 4.79579,1.48873 6.05536,1.24795 1.25957,-0.24079 5.57447,-3.45315 9.58856,-7.13861 4.03813,-3.70735 8.11859,-6.70083 9.13407,-6.70083 1.04535,0 4.14159,-2.35696 7.1936,-5.47605 2.9471,-3.01181 5.35835,-5.19664 5.35835,-4.85521 0,2.09803 -7.98838,10.56377 -11.38654,12.0669 -4.32515,1.91325 -11.33377,8.42681 -11.33377,10.53334 0,1.64601 2.98031,1.7586 10.37341,0.39189 2.88993,-0.53421 5.42424,-0.80146 5.63182,-0.59385 0.2076,0.20759 -1.89196,1.59521 -4.66577,3.08358 l -5.04317,2.70611 3.54694,4.47666 c 1.95089,2.46214 4.47067,6.31698 5.59976,8.56629 3.39465,6.76315 7.68048,12.00086 14.03979,17.15786 6.86137,5.56404 7.35695,7.23556 0.8098,2.73097 -6.35172,-4.37004 -11.28778,-9.62244 -14.64927,-15.58791 -3.79515,-6.73525 -8.95097,-12.42946 -12.6605,-13.9824 -3.78233,-1.58339 -10.0219,-1.5305 -17.96653,0.15226 -7.04161,1.49154 -17.77302,4.83201 -18.94096,5.89587 -1.01295,0.92277 3.1803,9.00566 6.07037,11.70112 l 2.31662,2.16055 4.29087,-2.84217 c 2.36006,-1.56318 4.73196,-2.81814 5.27116,-2.78872 0.53917,0.0295 0.18628,0.5406 -0.78407,1.13601 -3.42168,2.09968 -5.93907,5.07988 -5.42424,6.42148 0.60825,1.58519 5.05189,3.29483 8.56393,3.29483 2.09181,0 2.70823,-0.63077 4.05028,-4.14487 2.16099,-5.65874 2.74601,-4.48797 0.91123,1.82371 -1.86196,6.40496 -1.40033,8.09813 1.86921,6.85505 3.38455,-1.28682 3.64996,-1.13541 1.72955,0.98666 -1.67774,1.8539 -1.65734,1.97927 1.22024,7.52942 1.6095,3.10428 4.05202,6.97015 5.42771,8.5908 l 2.50145,2.94667 8.17939,-5.47569 c 4.49863,-3.01166 8.54937,-5.47658 9.00167,-5.47764 2.55248,-0.005 -11.47421,11.05702 -32.63083,25.73638 -6.99786,4.8554 -14.31549,10.19908 -16.26131,11.87483 l -3.53778,3.04683 7.71966,4.20802 c 8.72521,4.75617 10.39568,5.06557 11.67847,2.16316 0.77299,-1.74877 0.83682,-1.61219 0.44093,0.94341 -1.05484,6.81051 5.20053,4.4 16.34393,-6.29815 4.2495,-4.0797 7.89646,-7.24755 8.10435,-7.03969 0.2079,0.20788 -1.43399,2.55993 -3.6487,5.22677 -4.18756,5.04275 -5.02105,7.39486 -2.62009,7.39486 0.77347,0 -1.6997,1.63587 -5.49611,3.63527 -3.79639,1.99941 -7.63562,3.63525 -8.53184,3.63525 -2.86528,0 -12.24295,5.24495 -16.23335,9.07938 -5.16735,4.96535 -5.11,6.98083 0.22118,7.78028 5.27952,0.79174 9.93453,-0.0967 14.88877,-2.84163 4.36293,-2.41738 7.37861,-2.75623 10.35462,-1.1635 1.06874,0.57199 3.80241,1.53492 6.07479,2.13989 6.41523,1.70789 27.9363,10.82584 26.31638,11.14957 -0.79447,0.1588 -7.49627,-1.59028 -14.89319,-3.88674 -21.15648,-6.56836 -25.79475,-6.92328 -29.98405,-2.29424 -2.23636,2.47119 -1.20207,4.68684 5.50906,11.80097 3.20272,3.39505 5.82313,6.45721 5.82313,6.80477 0,1.38204 -8.25871,-6.24599 -11.70629,-10.81227 l -3.66639,-4.85591 -12.08023,-0.37697 c -10.81037,-0.33733 -12.60596,-0.63248 -17.07884,-2.80767 -2.74915,-1.33688 -5.68094,-2.4347 -6.51493,-2.43958 -0.83381,-0.004 -2.46257,1.52474 -3.61913,3.39918 -1.15674,1.87444 -5.31855,7.408 -9.24892,12.29682 -4.40036,5.47373 -6.94699,9.40704 -6.62818,10.23781 1.43809,3.74735 13.10898,3.92181 21.47919,0.32105 4.09279,-1.76071 5.64842,-1.9229 13.88594,-1.44784 5.1021,0.29425 10.50358,0.92259 12.00314,1.39632 1.88849,0.59657 -0.62513,0.71577 -8.17942,0.38781 -10.41226,-0.45205 -11.17292,-0.3599 -16.81295,2.03616 -4.77382,2.02802 -7.65128,2.58067 -14.99542,2.87995 -4.99848,0.2037 -9.95019,0.55044 -11.00361,0.77058 -1.0534,0.22014 -4.93859,2.93394 -8.63372,6.03072 -7.80547,6.54147 -16.71237,12.43801 -22.84987,15.12683 -2.37428,1.04016 -4.31679,2.36133 -4.31679,2.93591 0,0.57457 1.81392,12.7643 4.03102,27.0883 6.15219,39.74857 7.05647,49.1801 9.16296,95.56061 1.42861,31.45562 2.04536,37.51933 4.99088,49.07466 0.95452,3.74412 1.42689,7.11597 1.04977,7.493 -1.15814,1.15815 -29.20473,10.69448 -31.32703,10.65172 -1.09684,-0.0221 -3.45484,-0.8123 -5.23986,-1.756 z m 23.53359,-200.75106 c 0.66162,-0.41947 1.59086,-2.48919 2.06496,-4.59937 0.47408,-2.11017 2.90683,-8.31246 5.40589,-13.78286 2.49924,-5.47042 4.79501,-11.77824 5.10195,-14.01741 0.62022,-4.52507 1.63446,-5.25453 2.50177,-1.79921 1.51724,6.04548 5.1721,0.0939 13.2684,-21.6067 1.63636,-4.386 3.1476,-7.8021 3.35833,-7.59139 0.21075,0.21069 -0.69842,3.92906 -2.02041,8.26303 -1.32197,4.33394 -2.16746,8.49512 -1.87885,9.24704 0.28849,0.75192 -0.43096,2.6669 -1.59875,4.25554 -1.16777,1.58862 -2.61788,4.14666 -3.2223,5.68453 -0.60458,1.53789 -2.50715,4.12426 -4.22818,5.74756 -5.25094,4.95273 -13.12857,20.97771 -11.89397,24.19499 0.50301,1.31056 0.83128,1.29162 3.34743,-0.19294 5.38141,-3.17506 19.31033,-18.6481 33.28775,-36.97758 2.87457,-3.76972 13.69444,-27.92582 14.5548,-32.4947 0.66492,-3.53124 -1.02925,-3.92906 -7.08587,-1.66402 -5.32974,1.99322 -5.59469,2.00457 -14.54802,0.62382 -8.91225,-1.37446 -9.24085,-1.51213 -14.47661,-6.06606 l -5.35741,-4.65966 -2.78598,5.51897 c -4.37603,8.66905 -9.62253,16.88785 -17.84379,27.95314 l -7.59801,10.22643 0.91264,15.67478 c 1.45655,25.01799 2.3978,28.86483 7.05553,28.83868 1.36163,-0.008 3.01709,-0.35715 3.6787,-0.77661 z M 181.24759,448.1308 c 0,-4.07808 -1.97127,-7.92715 -4.0596,-7.92715 -1.89639,0 -9.84892,-6.62243 -21.92504,-18.25794 -12.86601,-12.39668 -15.52132,-13.75883 -21.18663,-10.8686 -4.46828,2.27956 -10.08414,7.08799 -10.08414,8.63432 0,0.62209 1.70506,1.89992 3.78897,2.83963 3.55139,1.60145 10.20533,7.57021 16.80192,15.07163 2.51172,2.85627 3.94016,3.51704 11.47279,5.30692 4.73227,1.12444 11.82508,3.59457 15.76193,5.4892 3.93668,1.89461 7.66897,3.47956 8.29378,3.52209 0.74375,0.0505 1.13602,-1.26482 1.13602,-3.8101 z m -48.00634,-5.09622 c 3.83733,-0.31769 7.26042,-0.86109 7.60685,-1.20755 1.46701,-1.467 -0.94375,-5.80637 -6.21602,-11.18877 -6.6438,-6.78261 -9.6034,-7.90131 -13.42619,-5.07499 -1.45214,1.0736 -3.66861,2.34296 -4.92548,2.8208 -3.02563,1.15038 -2.98519,4.12512 0.15168,11.11419 l 2.43653,5.42917 3.69798,-0.6576 c 2.03398,-0.36169 6.83767,-0.91754 10.675,-1.23525 z m 149.6395,-10.54176 c 2.66448,-2.77291 6.14066,-5.69786 7.72488,-6.49992 5.66467,-2.86786 7.40909,-5.78315 3.46038,-5.78315 -0.87173,0 -4.96767,-1.63588 -9.10214,-3.63525 -4.13449,-1.9994 -7.905,-3.63528 -8.37877,-3.63528 -1.98201,0 -9.36107,8.03715 -11.78163,12.83229 l -2.61173,5.17393 4.21174,3.49311 c 6.31887,5.24071 7.56706,5.79421 9.76962,4.33248 1.02466,-0.68012 4.04316,-3.50531 6.70765,-6.27821 z m -101.63869,-5.91114 c 1.29923,-2.42761 3.02672,-21.31516 2.3855,-26.08134 -0.28152,-2.09285 -2.11251,-7.40942 -4.06876,-11.81459 -1.95626,-4.4052 -6.07242,-13.98549 -9.14702,-21.28957 -6.86817,-16.316 -9.96425,-21.37931 -14.14028,-23.12413 -5.43307,-2.27012 -7.64351,-1.76922 -9.25222,2.09655 -1.9032,4.57319 -5.88223,11.31331 -6.38301,10.8124 -0.22149,-0.22147 0.85056,-2.7513 2.38233,-5.62186 2.42055,-4.5359 3.7269,-10.41623 2.31408,-10.41623 -0.25909,0 -2.56164,1.09304 -5.1165,2.42897 -4.33194,2.26511 -4.92862,2.35399 -8.84415,1.31764 -5.27179,-1.39529 -20.00401,-8.45795 -18.62342,-8.92803 0.56383,-0.19207 5.37305,1.3042 10.68716,3.32496 5.31396,2.02075 10.22049,3.67408 10.90327,3.67408 0.68294,0 3.4893,-0.99403 6.2364,-2.20895 2.74726,-1.21492 6.48333,-2.48817 8.30246,-2.82947 1.81928,-0.34129 3.48487,-0.90734 3.70162,-1.25791 0.21659,-0.35056 -2.44616,-2.85147 -5.91728,-5.55757 -3.47128,-2.7061 -6.31129,-5.03896 -6.31129,-5.18417 0,-0.14514 1.02212,-0.008 2.27159,0.30614 l 2.27175,0.57015 -1.77253,-3.96088 c -2.47616,-5.53362 -6.12188,-9.84219 -9.53439,-11.26798 -1.5956,-0.66668 -5.38347,-3.07825 -8.41762,-5.35906 -3.03416,-2.28079 -5.94318,-4.14691 -6.46453,-4.14691 -0.52133,0 -2.50997,1.90848 -4.41931,4.24105 -7.64511,9.3399 -9.61559,10.7906 -18.59182,13.68704 -4.67984,1.51008 -8.50878,3.13898 -8.50878,3.61977 0,0.48079 7.2105,7.46017 16.02354,15.50973 8.81289,8.04955 16.90635,16.06386 17.98517,17.8096 1.07901,1.74574 3.57952,7.15019 5.55694,12.00989 4.56166,11.21112 6.95474,15.26354 13.21073,22.37117 2.77048,3.14756 5.6277,7.10279 6.3492,8.78939 1.74598,4.08051 8.58002,13.52861 12.24421,16.92733 l 2.9392,2.72645 -0.60459,-7.60057 c -0.8395,-10.55282 -2.62404,-13.59708 -8.11698,-13.8458 -1.08374,-0.0492 -0.12958,-0.57983 2.11913,-1.17948 l 4.08978,-1.09026 v -5.40942 -5.40942 l -4.08978,-0.28456 c -6.20607,-0.43187 -6.74588,-1.98746 -0.68973,-1.98746 2.81961,0 5.35424,-0.36842 5.6326,-0.81868 0.2782,-0.45028 -0.77457,-5.6646 -2.33969,-11.58739 -3.63083,-13.73996 -4.09688,-16.39365 -2.13082,-12.13192 4.24855,9.20876 5.98267,18.41764 7.23089,38.39681 1.45514,23.29523 2.05704,25.2153 9.10988,29.0614 5.41697,2.95409 8.22536,3.16406 9.53707,0.71309 z m -63.97903,-2.12652 c 1.96717,-1.69212 2.33827,-2.60256 1.85153,-4.54236 -0.85136,-3.39201 -6.53784,-6.89045 -12.47361,-7.67399 l -4.91457,-0.6488 4.54396,-0.46139 c 4.20037,-0.42653 4.52628,-0.63333 4.30921,-2.73346 -0.22196,-2.1455 -0.0947,-2.09497 2.2719,0.90597 1.37885,1.7479 3.57935,4.38515 4.88994,5.86052 l 2.38297,2.68251 6.70512,-6.07886 c 3.68786,-3.34338 8.03453,-6.71549 9.65902,-7.49359 1.62452,-0.77809 2.95361,-1.7887 2.95361,-2.2458 0,-0.45706 -2.16876,-4.01633 -4.8195,-7.90947 -2.65058,-3.89312 -6.16104,-10.35015 -7.80087,-14.34894 -6.37178,-15.53756 -7.2176,-16.56536 -12.96126,-15.75236 -1.89039,0.26758 -2.1689,0.85213 -2.41141,5.06059 -0.27915,4.84277 -2.88928,11.91645 -2.90113,7.86218 0,-1.05642 0.40538,-4.08766 0.90758,-6.73599 0.50239,-2.64838 0.69511,-5.03331 0.4286,-5.29984 -0.96115,-0.96116 -10.37324,10.02628 -12.57421,14.67884 -1.23858,2.61815 -3.3329,5.92656 -4.65393,7.352 -1.42417,1.53666 -2.18123,3.16691 -1.85988,4.00458 0.29824,0.77704 1.39052,4.92067 2.42751,9.20803 3.1888,13.18496 8.15807,21.06216 15.77315,25.00356 3.71963,1.92516 5.38378,1.78546 8.26627,-0.69393 z M 204.8728,404.8134 c 0,-2.0961 0.0726,-2.12501 1.24299,-0.52407 1.18878,1.62591 1.29543,1.60535 2.63226,-0.50789 0.76618,-1.21135 2.2354,-3.83827 3.26479,-5.83765 1.49591,-2.90559 1.87979,-3.2248 1.91188,-1.59044 0.0568,2.85274 1.38326,2.55077 3.99498,-0.9088 2.33874,-3.09813 8.76851,-14.48258 8.76851,-15.52533 0,-0.33338 -1.94253,-0.62409 -4.3168,-0.646 -2.37428,-0.022 -5.95283,-0.6687 -7.95223,-1.43723 -6.78111,-2.60655 -7.04588,-2.56312 -12.54026,2.05643 l -5.18156,4.35651 v 17.82893 c 0,9.80591 0.2474,18.07621 0.54961,18.37848 0.83081,0.83088 7.62125,-13.09849 7.62583,-15.64294 z m 3.77318,6.24537 c 5.54762,-7.29928 7.20498,-10.84293 5.07161,-10.84293 -0.70332,0 -1.71929,0.96727 -2.25799,2.1495 -0.53871,1.18224 -3.05817,4.99855 -5.59879,8.48069 -2.54063,3.48214 -4.61932,6.6386 -4.61932,7.01438 0,1.84411 2.76179,-0.69281 7.40449,-6.80164 z M 93.36579,406.71203 c -0.16802,-3.66718 -3.73654,-17.40197 -4.52123,-17.40197 -0.397,0 -11.48749,5.5164 -11.97752,5.9576 -0.17667,0.15919 1.77727,3.32496 4.34222,7.03523 4.72849,6.84003 7.2372,8.87842 10.52001,8.54752 1.54299,-0.15553 1.79037,-0.78089 1.63652,-4.13838 z m 190.67216,-6.98187 c 5.19641,-3.76606 13.63316,-9.32688 18.74823,-12.35737 10.57719,-6.26665 10.31464,-5.1782 3.52563,-14.6221 -2.14931,-2.98993 -4.43875,-5.21044 -5.38775,-5.22568 -4.28503,-0.0689 -7.96628,4.31393 -5.6059,6.67427 1.22623,1.22625 0.69211,1.81528 -4.96451,5.47456 -6.88616,4.45459 -10.35065,8.58092 -15.13,18.02005 -5.62235,11.10399 -4.16294,11.44114 8.8143,2.03627 z m -19.43385,3.5271 c 5.05092,-2.46751 17.63319,-21.79217 16.3561,-25.12036 -0.29292,-0.76328 -2.26243,-1.65005 -4.45107,-2.00401 -2.15912,-0.34923 -5.78349,-1.80957 -8.05428,-3.24527 -5.44556,-3.44316 -11.13708,-5.3891 -15.7621,-5.3891 -6.71065,0 -20.3119,10.82928 -23.22521,18.49183 -1.21881,3.20558 -1.24061,7.5841 -0.0411,8.32518 0.50617,0.31278 3.13907,-0.48101 5.85108,-1.76398 2.71203,-1.28296 5.56847,-2.33268 6.34779,-2.33268 0.77932,0 3.03273,-1.45993 5.00778,-3.24429 l 3.59103,-3.24425 -0.52371,3.22816 c -0.77946,4.80315 1.29324,5.04504 8.93361,1.04261 3.52373,-1.8459 6.62881,-3.13409 6.90038,-2.86264 0.27142,0.27147 -0.1786,0.75142 -0.99986,1.0666 -2.29592,0.88103 -1.78721,2.0695 1.46037,3.41176 2.79466,1.15508 2.39118,1.25508 -7.49771,1.85828 -13.67566,0.83422 -19.50827,2.04301 -22.52504,4.6683 l -2.46732,2.14714 1.95057,1.97922 c 1.07283,1.08858 4.14017,2.76235 6.8162,3.71945 6.08537,2.17655 17.11991,1.81491 22.33308,-0.73195 z m 22.74795,-25.53458 c 0.21943,-0.65926 -0.39385,-1.13603 -1.46147,-1.13603 -1.98755,0 -3.18377,1.18683 -2.19387,2.1767 0.91439,0.91443 3.22326,0.2571 3.65534,-1.04067 z m -99.40739,-15.22263 c 3.37477,-17.05285 3.40636,-17.72139 2.53384,-53.62001 l -0.79512,-32.71732 -3.31172,-7.35876 c -1.82135,-4.04732 -3.77697,-9.77287 -4.34602,-12.72341 -2.3599,-12.23956 -4.09199,-6.4852 -5.25504,17.45863 -0.48831,10.05351 -1.39875,21.81242 -2.02323,26.13089 -1.03871,7.18423 -0.96541,8.68208 0.8613,17.61897 2.89024,14.13906 4.13116,27.55485 3.50809,37.92279 -0.52876,8.79811 -0.45924,9.25687 2.31614,15.27804 1.83794,3.98734 3.09592,5.78145 3.51742,5.01618 0.36099,-0.65528 1.70839,-6.508 2.99434,-13.006 z m 101.56222,11.08923 c 2.71567,-2.0675 6.25125,-8.13594 6.25125,-10.72967 0,-2.86262 -1.40348,-3.88912 -6.60071,-4.82743 -2.43444,-0.43951 -3.54236,-0.27756 -3.84474,0.56199 -0.69542,1.93101 -1.94489,13.99321 -1.56699,15.12706 0.45734,1.37167 3.88944,1.29306 5.76119,-0.13187 z m -8.02156,-1.52322 c 1.1654,-1.04949 2.7528,-12.35827 2.09987,-14.95987 -0.32924,-1.31172 -1.64632,-3.29301 -2.92675,-4.40286 -1.28042,-1.10982 -3.78155,-4.36943 -5.55803,-7.24356 -1.77633,-2.87412 -3.47839,-5.22165 -3.78219,-5.21672 -0.30395,0.004 -2.53777,3.72013 -4.96435,8.25598 -2.42657,4.53585 -5.59609,9.59566 -7.04336,11.24401 -1.44724,1.64832 -2.63132,3.21798 -2.63132,3.48811 0,0.27015 1.46638,0.97514 3.25867,1.56666 1.79244,0.59151 4.66608,2.31103 6.386,3.82115 5.06767,4.44954 12.23788,6.07974 15.16146,3.4471 z m -53.16802,-2.17184 c 0.65941,-0.65945 1.43541,-3.48957 1.72435,-6.28913 0.5572,-5.39814 -1.37823,-31.55119 -2.33462,-31.54906 -0.31044,6.9e-4 -1.3125,2.55672 -2.22707,5.68009 -0.91437,3.12335 -4.08392,10.74736 -7.04319,16.94221 -2.95944,6.19488 -5.38078,11.80376 -5.38078,12.46422 0,1.26781 2.44014,2.84247 6.30859,4.07127 2.90271,0.92201 7.36944,0.2636 8.95272,-1.3196 z m -23.51923,-5.02291 c 6.09643,-7.69741 15.54882,-28.07503 17.42041,-37.55542 1.20428,-6.10036 0.21249,-23.73922 -1.30206,-23.15694 -0.76447,0.29393 -0.96068,-2.95225 -0.73192,-12.1168 0.17167,-6.88505 -0.11992,-15.29955 -0.64993,-18.69889 -0.52924,-3.39932 -0.81203,-6.33081 -0.62844,-6.51444 0.18379,-0.1836 1.3556,1.37939 2.60428,3.47338 2.23099,3.7412 2.28944,3.77162 3.36987,1.75281 1.32528,-2.47623 0.69542,-8.3504 -1.99543,-18.61265 -2.06102,-7.85997 -3.1182,-10.45136 -4.26404,-10.45136 -1.14772,0 -4.18692,10.9456 -4.19467,15.10694 0,2.62204 -0.34787,3.61591 -1.143,3.31084 -0.62479,-0.23977 -1.13965,0.11914 -1.14424,0.7973 -0.0154,1.70285 -9.0677,20.23053 -12.57265,25.72193 -2.33634,3.66058 -2.86889,5.43272 -2.86889,9.54814 0,5.69402 2.36984,27.13876 3.25343,29.44164 1.23982,3.23071 2.20003,1.2194 2.21186,-4.63279 0.0193,-9.02415 1.22721,-12.26684 1.80524,-4.84224 0.24994,3.20998 0.90381,5.98395 1.45295,6.16441 1.39621,0.45876 5.24316,-8.53434 8.15694,-19.06895 2.65295,-9.59195 4.0759,-11.29156 2.24996,-2.6877 -0.61674,2.90647 -0.99813,5.88162 -0.84725,6.61141 0.36698,1.77645 -5.08157,13.04264 -8.77292,18.13996 -3.65596,5.0483 -4.47542,8.12242 -6.29959,23.62915 -0.79369,6.74796 -1.62531,13.38919 -1.84774,14.7583 -1.00522,6.18444 1.78486,6.13559 6.73783,-0.11798 z m 42.51754,-5.58257 c 11.37358,-8.41523 13.04643,-10.09021 17.17679,-17.19886 5.70669,-9.82154 8.19504,-12.0154 14.18294,-12.5049 7.14935,-0.58443 7.85821,-0.97436 5.08347,-2.79617 -1.2986,-0.85259 -3.75393,-2.663 -5.45648,-4.02315 -3.67397,-2.93537 -13.37912,-5.63686 -17.4839,-4.86679 -6.75615,1.26747 -12.12523,11.8741 -17.74695,35.05864 -2.53288,10.44554 -2.62815,10.90576 -2.25957,10.90576 0.17667,0 3.10333,-2.05855 6.5037,-4.57453 z m -72.96794,-12.86752 c -0.2706,-1.34564 -1.66622,-4.06765 -3.10145,-6.04896 -1.43525,-1.9813 -3.90682,-6.1969 -5.49247,-9.36798 -1.58564,-3.17109 -3.88109,-7.09476 -5.10099,-8.71928 -1.21994,-1.62449 -1.78833,-2.95361 -1.26306,-2.95361 2.21359,0 0.63319,-4.77941 -4.04333,-12.22837 -2.74916,-4.37891 -4.99849,-8.01976 -4.99849,-8.09079 0,-0.0711 1.02245,-0.12896 2.27209,-0.12896 1.24961,0 2.27189,0.4815 2.27189,1.07 0,0.58846 1.46906,3.8602 3.26465,7.27049 1.79544,3.41028 4.27809,9.26776 5.51713,13.01663 2.34267,7.08875 6.61001,15.33364 8.93515,17.26332 1.07932,0.89574 1.44646,0.85781 1.849,-0.19109 1.01154,-2.63628 -5.83908,-29.18995 -11.20406,-43.42778 -2.10177,-5.57771 -2.88835,-6.76225 -4.32911,-6.51965 -7.47798,1.25921 -13.06366,1.08038 -18.35091,-0.58749 -3.12643,-0.98623 -5.88853,-1.46316 -6.13766,-1.05984 -0.78313,1.26693 4.88882,16.34295 10.46676,27.82075 3.77983,7.77789 7.72995,14.06127 13.42654,21.35711 4.4389,5.6854 9.6625,12.55787 11.60784,15.27216 l 3.53687,4.93503 0.68279,-3.1174 c 0.37551,-1.7146 0.46129,-4.21842 0.1909,-5.56406 z m 52.15808,-36.4697 c 1.57869,-4.36575 1.34408,-12.53941 -0.68201,-23.77544 -2.94712,-16.34239 -3.99168,-14.49823 -3.37397,5.95745 0.51375,17.01673 0.94186,20.83615 2.33556,20.83615 0.34596,0 1.12007,-1.35817 1.72042,-3.01816 z m -90.69892,-4.75187 c 0,-2.451 -2.63447,-6.61934 -4.5724,-7.23438 -2.32625,-0.73831 -9.0598,0.33439 -9.0598,1.44325 0,0.45106 1.94251,2.24533 4.31678,3.98727 4.58298,3.36233 9.31542,4.27872 9.31542,1.80386 z m 37.09896,-8.14068 c 0.57094,-1.25318 1.65468,-11.5796 2.40809,-22.94755 0.75341,-11.36798 1.78328,-22.09775 2.28848,-23.84391 1.02024,-3.52582 1.09292,-19.17673 0.10596,-22.72636 -0.39859,-1.43317 -1.28801,-2.27202 -2.40856,-2.27202 -2.86922,0 -5.62486,6.97419 -7.72061,19.53949 -1.04219,6.24812 -3.10463,14.86278 -4.58315,19.14367 l -2.68833,7.78347 3.19956,6.92518 c 1.7599,3.80886 3.19972,7.7546 3.19972,8.7683 0,2.40711 3.56117,11.90824 4.46339,11.90824 0.38372,0 1.16494,-1.02535 1.73588,-2.27851 z m 28.99272,-23.96285 c 5.28885,-8.07866 11.2164,-23.8929 14.69068,-39.19326 1.95452,-8.60712 3.23447,-19.0851 2.33147,-19.0851 -0.32307,0 -3.23638,2.42719 -6.47369,5.3937 -3.37933,3.09644 -7.98681,6.2643 -10.81797,7.43774 l -4.93164,2.04405 v 22.4788 c 0,21.21811 0.27772,25.3539 1.70222,25.3539 0.3294,0 1.90398,-1.99342 3.49893,-4.42983 z m -80.66103,-13.43846 c -3.95202,-11.99477 -14.07186,-31.2077 -16.43745,-31.2077 -3.31362,0 3.74554,22.80851 10.14655,32.78346 2.949,4.59562 6.03971,6.79317 7.55616,5.37259 0.4316,-0.4043 -0.13592,-3.52049 -1.26526,-6.94835 z m 51.8508,-35.76245 c 2.52861,-1.35331 3.60617,-6.52412 3.59624,-17.25678 -0.0154,-13.93939 -2.05626,-15.71297 -5.45267,-4.73288 -2.42199,7.83003 -3.41726,19.59592 -1.82041,21.52014 1.36479,1.64431 1.45911,1.65637 3.67684,0.46952 z" style="fill:#000000;" />
<rect style="fill:#000000;" width="9" height="123" x="381.70432" y="558.47894" />
<rect style="fill:#000000;" width="9" height="123" x="558.27246" y="558.16272" />
<rect style="fill:#000000;"  width="233.5" height="35.5" x="358.20432" y="562.97894" />
<rect style="fill:#000000;" width="12.058995" height="52" x="362.20432" y="637.97894" />
<rect style="fill:#000000;" width="12.010275" height="52" x="575.70428" y="637.97894" />
<rect style="fill:#000000;" width="248.41161" height="5.9508009" x="350.29269" y="633.52814" />
<path style="fill:#000000;" d="M 356.27746,626.41231 H 592.8764 l 5.81287,7.1541 H 350.27708 Z" />
<rect style="fill:#000000;" width="48.477169" height="4.2426405" x="634.72064" y="674.94556" ry="1.7225872" />
<path style="stroke:#000000;stroke-width:3;" d="m 623.995,596.99971 12.37989,80.46022" />
<path style="stroke:#000000;stroke-width:3;" d="m 642.02898,596.56834 6.01041,82.53914" />
<path style="stroke:#000000;stroke-width:3;" d="m 657.74193,596.53333 1.41421,82.57415" />
<path style="stroke:#000000;stroke-width:3;" d="m 673.14268,596.73328 -3.53753,81.78706" />
<path style="stroke:#000000;stroke-width:3;" d="m 690.46832,597.19283 -8.84388,80.46367" />
<rect style="fill:#000000;" width="69.372345" height="4.2426405" x="622.6239" y="596.02246" ry="2.035785" />
<path style="stroke:#000000;stroke-width:3;" d="m 632.94323,661.07947 h 50.42483" />
<path style="stroke:#000000;stroke-width:3;" d="m 629.49806,639.15563 h 56.06239" />
<path style="stroke:#000000;stroke-width:3;" d="m 626.05288,615.979 61.69995,0.3132" />
</svg>
