<svg xmlns="http://www.w3.org/2000/svg" viewBox="0 0 512 384">
<rect width="512" height="384" id="P005WIImgRct1" fill="#fff"/>

<rect y="315" x="-5" height="104" width="520" style="fill:#808080;" />
<path style="fill:#000000" d="m 233.32972,321.54228 c -15.2658,3.40939 -1.56187,-12.93204 -4.1748,-21.33701 2.08707,-20.89546 3.62704,-41.98055 3.01052,-62.96826 -3.30598,-10.87859 -14.67522,-20.41084 -26.6552,-16.86249 -10.78696,0.11411 -14.00048,13.80502 -6.02245,18.75568 -6.28589,-2.2699 0.0466,6.24341 -3.95358,5.98463 2.33993,5.32008 -0.11625,3.91552 -3.06168,3.49271 2.20853,-3.3574 2.6908,-6.04683 0.007,-2.08498 1.6045,-6.31646 -4.41799,-9.61941 -2.53593,-1.21588 4.89574,4.7852 -4.39537,-0.29119 -5.25802,3.73614 3.62823,-3.09196 7.31362,-16.44334 4.26258,-15.97221 -6.25127,1.16178 -3.69825,11.80892 -6.46388,4.58219 1.358,2.21723 -9.79976,-1.44116 -1.59244,-1.86033 0.0701,-3.34692 -6.41353,1.15946 0.11132,-4.01564 4.54916,-10.35894 -9.64105,1.08503 -7.11679,6.96793 -1.33281,5.88775 -1.82671,-6.0998 -5.49936,2.02268 0.41605,2.1417 -6.00393,-0.76779 -3.91373,-1.28387 3.98125,-10.77793 -9.51406,11.52263 -2.9743,-1.45539 -13.60736,4.48376 15.26247,-8.21003 -1.31161,-6.91438 -9.7354,0.99205 5.01293,-1.24111 -2.72618,-4.65253 7.85367,6.96564 19.64215,0.68839 27.95475,-3.87166 -5.99222,-5.82256 -14.9896,0.98628 -13.35336,4.20573 -7.08633,-1.00159 -1.036,-4.6664 3.94386,-7.42121 -5.64721,-3.27615 -11.30647,-1.757 -9.00246,-6.18252 0.62831,-1.59731 6.41874,-6.30151 3.2857,1.50775 2.98123,4.12487 16.34656,5.31263 5.61224,-0.77956 4.01023,-2.36754 8.654,11.78958 16.78687,5.85872 7.80453,-1.16432 18.3326,-4.48706 5.80336,-8.37792 -3.59377,-0.2229 -11.67936,5.11583 -6.89742,-0.45892 -4.81955,-2.27874 -11.43489,-2.08632 -7.16064,-6.642 1.47377,7.64169 23.79215,7.33278 11.16213,-0.64566 -4.10718,0.93855 -7.66526,0.6417 -3.27634,-1.42817 -6.77245,-0.27499 1.49484,-7.59255 1.88686,-0.64697 3.63888,2.54337 4.11235,-6.28671 3.9431,1.0508 3.88252,5.28925 13.61168,19.30325 17.31968,11.8696 -4.48921,-11.01422 -13.98435,-17.91034 -25.85836,-19.42748 -9.62632,-2.13736 -14.21674,12.52136 -18.32889,5.33761 6.52025,0.76209 10.4254,-7.16378 1.7722,-3.83612 -7.87983,0.73327 3.57105,-1.21412 -2.02535,-4.14587 4.70561,3.93068 11.45811,-1.95219 2.81501,-2.83971 4.85447,2.14714 10.54454,-2.22624 11.08266,-2.49744 11.41244,-0.55056 -3.49555,-3.66413 -7.18159,-0.35531 4.22332,-2.57168 5.26711,-1.76232 2.59642,-5.57019 5.23776,3.29993 13.29174,4.40938 4.40745,-1.58448 -3.71638,-1.07532 -12.22896,-0.58123 -3.30207,-1.90823 -4.72679,-9.74824 6.37966,6.74681 3.64575,-3.93447 0.72173,5.06251 7.0188,12.83629 15.13753,12.34425 0.72164,-7.06519 -10.63536,-15.23824 -4.67339,-16.96539 -1.35519,7.68893 4.4252,2.12468 5.51204,1.93539 5.39997,1.75611 -6.36394,3.8635 -0.8167,9.99947 7.33031,-7.42185 -3.30586,6.54447 4.41425,8.65584 4.81368,6.90218 4.5292,1.48978 4.34637,-2.32998 7.86225,3.24116 -6.24662,-15.07714 1.6509,-9.32524 1.83054,0.22938 1.61426,12.56411 4.25122,1.99115 1.65382,-2.06133 2.90989,2.88006 0.84751,3.91507 0.84204,-0.73451 -7.45134,9.85002 -0.20358,3.8362 2.28169,-3.58239 -0.42392,5.50885 2.9975,4.08779 -14.18657,-3.58901 -5.25954,18.02492 2.04048,21.27975 8.13429,6.29523 9.77754,-12.67288 -1.56353,-8.98081 -5.55763,1.09278 -5.11368,0.14133 -3.14961,-1.87113 -6.55571,-4.31117 13.39905,4.79743 3.3129,-4.31701 -4.27577,-4.50194 4.11753,2.69713 2.88975,-4.33685 -1.95831,6.54287 4.63904,12.02791 4.64851,8.57655 1.80252,9.17387 9.12679,2.13802 2.7192,-3.69844 -6.08308,-12.07749 -11.97331,-25.86425 -25.4473,-31.30984 -6.1139,-5.68097 -18.38737,2.78593 -17.61533,3.24181 -1.36877,-6.43244 -13.99604,9.40098 -14.51014,14.00076 0.10813,-4.42923 -7.98289,1.00406 -1.02428,-3.80349 10.2781,-9.33248 -5.11982,-3.06393 -8.02215,-2.57143 4.93457,-2.58022 -7.21951,-6.02986 1.15721,-4.13239 6.16258,4.80266 26.8151,-9.67677 10.00288,-6.34459 -6.0022,3.27628 -8.01977,1.89617 -1.25256,-1.27295 -5.83628,-4.36225 -16.65769,4.33331 -13.47443,-2.00166 5.89287,1.85626 8.56491,-2.43651 3.58125,-6.32967 3.71557,3.43071 14.77264,11.18676 7.94851,1.03179 -4.49017,-1.39386 -7.95833,-7.00641 -0.86994,-2.16748 0.60728,-6.53305 4.34557,12.65902 11.80899,8.89488 6.90025,1.66224 21.83392,-3.04984 9.20376,-8.89613 -4.52695,-4.19539 -11.5036,6.70903 -9.85296,0.10042 -6.60185,-1.64419 13.25274,-1.85335 0.36267,-4.22424 -3.03135,-1.41606 -14.74921,5.75372 -7.51768,-0.11949 -7.14052,-1.69305 -5.66974,-8.22895 0.21465,-1.46388 15.23359,3.01765 -4.98685,-10.73637 -9.15176,-7.5319 7.94439,1.05691 -3.18166,-8.72858 4.71095,-2.43389 3.35763,1.75103 6.56064,5.25177 5.07975,-0.48907 0.35681,6.91261 21.75124,19.75302 12.96977,6.5549 -2.0046,-4.84506 -17.41753,-8.22214 -4.47166,-6.31785 -3.24955,-18.1105 5.6903,15.27019 7.64934,1.57862 3.48996,-1.82197 -2.38162,13.58951 5.52761,15.38185 4.94641,5.02164 20.42529,14.64467 12.72141,0.89391 -1.58278,-10.07068 -7.2338,-15.25179 -15.06166,-8.42987 4.65762,-3.31789 3.89814,-4.98491 1.66501,-7.56476 15.3272,6.76325 -1.60815,-11.62037 -7.9169,-12.73225 -3.52319,-1.63769 -21.0037,0.56701 -8.94381,-2.01948 12.05053,-3.66929 -10.62152,-0.57518 -4.57749,-4.27778 -8.83309,-11.48624 10.84658,8.39861 1.99309,-3.99926 -5.55435,-2.7688 6.86232,-7.37484 1.53979,-0.79641 1.36134,5.31713 12.323,12.21222 4.93414,2.04225 -3.23973,-5.47946 -1.52539,-5.48693 1.53766,-1.42635 8.46557,-5.29854 -4.41357,2.88737 2.79988,6.25218 2.69335,6.10032 11.7317,7.47795 5.1475,-0.13956 -6.00434,-2.36882 -3.85482,-3.4197 0.95776,-1.08085 -0.26616,-4.38364 -3.23838,-13.1594 1.12387,-3.65695 2.14078,-3.1613 2.73795,-4.93629 4.59339,-1.21005 -9.39307,4.19627 0.22461,15.93345 5.12196,20.28214 2.33723,-3.28895 -6.20541,-16.01399 -3.17515,-17.7782 0.30524,8.81 7.39384,10.72698 6.43206,1.49494 3.03711,0.18085 6.74101,16.99071 8.08236,6.24301 -2.23202,-6.77317 0.0522,-6.98944 1.9743,-0.0615 6.20556,-6.61068 -3.63406,-23.07297 -14.22286,-21.10795 -7.35671,-6.19528 -13.08404,8.09378 -16.4539,1.42996 -4.91466,-1.5387 16.14339,-2.17684 3.00629,-4.51832 -4.13314,-2.14522 -13.25531,3.36871 -9.85772,-2.2478 -4.66268,-6.473214 10.93238,6.64181 7.38093,-2.91532 3.16729,8.01624 18.89882,6.17895 8.04818,-0.37081 -4.47147,-0.694069 -5.76313,-2.81451 -0.0842,-1.645426 -3.13812,-3.761632 -7.4241,-9.349605 -0.26058,-3.594267 0.95232,-10.196455 2.44373,10.355573 7.6755,11.241493 16.05332,10.71803 9.04402,-18.726495 -3.4192,-13.40749 5.503,-1.162399 -6.63354,-10.260852 1.69508,-4.057078 11.09167,7.908321 -2.81436,-9.539205 -9.20499,-4.502005 -8.31647,0.662089 7.42303,-1.734061 1.45782,-7.441803 1.47311,6.509103 13.62082,10.722709 5.64671,1.914757 -4.98744,-3.15423 -5.78952,-6.791296 0.51024,-2.082817 -1.39445,-3.117337 -4.07293,-11.335614 0.56561,-4.128272 0.79341,-5.874207 9.61357,-2.554342 4.97582,-9.704341 2.66917,3.638278 10.37523,11.50455 7.46575,1.835172 -4.25942,-3.370806 -0.97382,-3.87454 1.54067,-0.684971 6.37588,-13.521703 -3.26767,17.295431 2.60112,5.652495 0.71883,1.736473 1.86389,5.698785 5.55819,5.140077 -8.29486,1.523518 7.53747,11.203921 2.62687,0.462936 1.42705,-7.959595 -6.36761,-14.711859 -10.17444,-18.892961 7.74629,5.681736 2.91845,-1.612357 2.73565,-4.125875 2.99985,5.068409 6.23918,-7.32063 3.52763,2.575297 -1.86335,7.376093 7.41741,17.254737 8.25246,4.819648 -1.22689,-6.593995 -10.90581,-11.574739 -3.25123,-9.781781 -0.31111,-4.300969 7.20955,17.298866 4.1133,5.005353 -2.04655,-7.419373 -0.24564,-4.352825 2.3018,0.117883 2.49207,-7.463892 -4.22321,-16.773958 -6.34183,-20.19037 9.95001,12.120925 -2.82359,-14.349584 3.77311,-3.677558 5.9144,-8.993163 -0.0187,0.386577 1.9644,3.507324 3.61288,-7.315175 -3.09083,14.935033 4.27778,7.591178 -0.0414,-4.107158 0.51043,-13.02148 1.59735,-3.966952 3.37742,-2.541919 -2.71053,6.633385 2.62598,0.955896 -0.55181,-3.619238 1.10854,-7.945782 1.01284,-1.675364 9.47016,-12.319938 -7.01768,11.680853 4.59144,8.191526 1.97389,-2.770201 -3.82391,12.299892 2.68278,2.810517 1.71638,-3.186336 3.43317,-13.171098 2.76585,-3.292371 3.03119,-3.132918 7.56729,-7.845806 5.37149,-2.285695 -2.79163,0.997778 -18.05213,19.010274 -4.82463,8.549806 7.90714,-6.466437 -2.5748,3.699019 1.66633,3.662997 -9.93544,1.138396 -18.79667,17.145069 -14.27345,25.913848 6.26482,5.389326 7.71415,-14.018266 8.81674,-13.013419 -0.67036,6.11016 0.94649,4.512199 4.39869,2.72032 -4.87862,4.566275 -10.16479,14.613123 -0.87313,5.678525 10.42553,-3.454741 0.25877,-12.993468 -1.04439,-16.679009 5.15771,9.309766 4.17017,-10.595925 5.16167,0.329877 -1.41749,6.879162 4.65861,13.544365 5.5773,3.592837 -2.96632,-6.08973 0.71732,-19.145428 4.06223,-19.805197 -1.72436,4.477388 -6.99213,14.922724 -1.72346,16.632038 2.76334,-3.386717 3.35037,-16.311121 3.88782,-4.45522 4.81326,-3.66777 7.76286,-1.708994 5.91902,4.658132 2.71307,-6.352605 5.15724,-7.185805 1.4042,-0.105508 -4.25821,4.31385 4.2941,10.753098 3.80351,1.272163 2.79755,-10.063955 -0.86428,10.131752 3.65309,-0.248379 3.70525,-4.232665 3.20009,-12.736012 4.87215,-5.805137 10.67391,-9.118216 -11.22296,14.920425 0.099,5.441142 6.44944,-6.503029 -3.51458,4.898412 2.7857,4.901576 -7.52544,-4.954517 -21.1693,8.740196 -16.39869,13.126331 3.9824,-1.219522 3.89152,-7.443049 4.07015,0.08079 4.77235,3.444673 -7.69702,11.994722 -4.87479,19.506727 6.70529,-0.613622 14.08552,-17.320663 7.08707,-17.899193 -1.20334,-7.000384 5.53568,3.271569 3.75917,-5.919612 -1.14927,-7.640561 0.89216,-4.630705 1.92558,-0.885724 2.64648,-3.518145 8.95821,-6.470585 5.02833,-1.436173 10.58877,5.214097 -7.69527,-3.331384 -5.54183,6.321408 -3.38282,8.53184 4.70105,-2.263094 3.94723,2.178978 7.71819,0.419012 -8.5556,2.150394 -5.8164,7.982145 -5.31038,12.289571 9.22902,-2.274176 10.40815,-5.703954 -3.96071,5.455202 9.84922,0.999019 0.67513,4.515885 -10.29448,3.105776 0.68005,11.233902 4.29925,2.877934 -3.55709,5.056131 5.80018,2.416459 -2.74674,5.268405 -4.41887,-0.562601 2.18783,6.298531 -3.23986,1.098629 -3.4496,-5.081879 -7.63261,-2.763196 -5.00357,0.453859 -11.49689,-6.54586 -19.42695,10.023873 -19.99739,19.700263 8.95954,-2.05089 16.38645,-11.66965 13.41252,-19.235514 1.89223,3.355024 6.65248,-2.911103 2.43997,3.922794 1.81061,7.78018 12.89676,-6.414332 11.86111,0.91288 3.87771,2.1306 -19.43237,2.98583 -15.51681,9.1736 9.39681,-2.85483 17.07457,-2.64031 14.08018,5.2218 3.738,-0.70493 -16.74683,16.96198 -3.09764,9.94856 6.18473,-0.60517 -9.75621,5.13346 -8.5369,10.10864 -2.80958,4.54844 -7.06941,14.37207 1.69803,7.06373 4.81414,-6.9659 9.93368,-16.62639 10.87408,-23.79401 3.32742,-1.28709 -0.68019,7.66754 4.54464,1.20434 1.37096,1.37388 -11.29039,13.09409 -1.33551,7.01441 2.5573,-4.64033 3.64423,-12.50926 5.95702,-5.96197 -8.70913,4.46267 2.74549,8.28214 1.48458,0.0391 0.9738,-3.34891 9.7243,-3.33644 1.41612,0.95563 -3.41386,12.70981 8.77584,-4.73096 10.26109,-2.78722 9.0296,-3.33377 -11.08709,7.72436 0.21971,4.67502 4.29921,-3.69334 9.94012,6.35682 1.90215,1.32617 -6.54382,-2.38186 -23.40074,11.78754 -9.79035,9.08848 4.78755,-1.63158 8.82861,-7.5376 10.44789,-3.84064 6.44617,0.72415 -12.31695,1.77068 -1.83437,5.46263 -0.22104,1.29763 -11.49625,-4.24259 -5.16686,1.79211 4.34641,3.91495 10.65043,4.86685 6.30068,7.09523 1.8296,7.03133 -6.84515,-9.57009 -12.34264,-7.72335 -5.64666,-5.00947 -23.08124,8.62937 -8.10499,6.39485 5.91932,-4.18177 10.17556,-1.80049 1.2243,1.0252 -2.44254,6.57853 14.50954,-10.15385 8.49342,-1.12584 7.32117,1.69847 -14.35547,3.04359 -1.70738,4.86312 3.86665,-2.71518 0.54494,5.02654 7.85807,2.73506 6.27677,0.0191 -4.79568,2.12958 3.59867,4.21306 8.67425,7.91216 -4.65508,-3.75804 -1.05539,5.0976 -2.29593,1.64283 -0.98477,-10.9226 -8.44783,-8.77168 -7.84257,-5.45886 -10.99894,-0.0632 -2.58019,4.78952 5.95515,0.73102 7.58526,3.97685 0.41148,1.44338 3.88284,7.59549 -3.24912,6.78329 -1.68605,0.21995 -4.61685,-8.72078 -14.53566,-18.6836 -24.46165,-9.97873 -12.90798,6.08171 9.68986,8.61707 14.29171,6.07193 4.34059,-4.32769 -0.65733,2.65681 4.65843,2.8645 -5.3302,-1.05715 -13.76451,-1.6126 -4.60813,2.9389 1.10945,2.57087 -18.50517,-10.71522 -9.85897,-0.24748 2.81599,5.92091 15.03274,2.38125 14.30341,3.2202 -1.66482,1.73163 14.4231,6.57323 3.3338,3.75594 -10.75601,-5.24403 8.32634,10.83872 -2.04788,3.02932 -2.93529,-6.48158 -19.47783,-7.53874 -9.86772,-1.75348 -0.59998,0.42853 12.11265,7.31295 4.24875,4.22733 1.31668,7.94042 -5.40355,-7.44167 -5.05373,0.96247 1.45471,1.87301 -9.71428,11.83073 -13.80209,16.34474 -5.82988,7.74751 13.04272,-1.99357 14.756,-5.64694 1.25732,-5.35013 0.51208,-10.17741 4.24592,-8.16433 4.16088,-1.85151 -8.59836,13.28973 0.28782,6.71587 4.95257,-6.37328 2.72899,-0.22911 5.52287,-0.28466 7.45783,0.70959 -13.86278,3.53774 -16.35955,8.2616 6.34358,3.29623 13.06352,-6.42429 14.84593,-2.64869 6.02735,-4.26439 1.71871,2.20258 4.6387,3.55607 -6.145,-6.00892 -13.30963,1.54854 -4.03201,2.70689 5.26855,-1.96705 0.0541,2.76719 3.57567,4.56608 -5.34951,-2.59171 -6.72577,-1.61406 -3.27498,-0.0688 -11.11652,3.32059 1.14354,3.66042 4.25743,3.50713 -7.96242,-0.38587 -1.13568,6.67702 -0.40279,7.8995 6.06187,-0.55084 -15.92276,6.89737 -3.51208,5.25459 4.7847,1.13119 13.67509,-12.64608 7.84413,-2.66797 5.93423,-1.30435 6.22137,-0.40152 5.15016,1.27479 2.83858,2.07248 -9.46575,-1.43534 -11.91329,2.49689 -10.29528,-1.12805 -6.29679,5.73352 0.15509,8.28101 6.82094,-1.98455 0.74617,1.29173 3.97597,3.06604 -5.89774,-5.22532 -8.44372,0.15894 -8.71068,1.14534 6.18085,-8.17354 -17.14656,-17.4216 -12.59897,-8.06224 1.38091,5.15306 15.61763,9.38696 7.65764,9.74778 0.42527,9.38621 -5.16229,-13.5665 -5.58223,-1.87479 -0.4806,7.96518 4.10181,16.00437 -1.4095,10.54168 -7.65758,12.58824 3.5909,-8.42897 -0.68187,-13.35247 -2.02627,-8.9436 -4.88756,-7.41466 -8.85269,-0.82453 0.22112,6.19979 9.2606,10.73418 2.72674,11.23216 -2.36067,6.61996 -1.34789,-18.18368 -7.63079,-6.00371 -1.89169,2.58902 -4.95056,9.73341 -2.9636,2.0866 -6.75676,1.2938 11.03832,-8.13742 3.86088,-8.35707 18.28573,-5.26691 -4.17047,-18.23863 -13.29338,-14.56375 -7.62227,2.7764 -15.79482,9.2027 -17.80471,16.9113 -0.84461,25.26618 -1.09214,50.59526 -0.67544,75.87425 -2.11111,7.65369 11.51716,20.9455 -3.6621,17.60465 l -2.66719,-0.056 z m -38.11117,-81.34649 c 2.23922,-7.25894 -6.20283,-9.53336 -3.09075,-0.89679 0.0148,0.98365 3.48432,6.05473 3.09075,0.89679 z m -27.77983,-1.88463 c 6.92979,-0.66139 9.60714,-11.84966 1.10495,-6.57515 -0.66176,0.95078 -4.46471,7.71698 -1.10495,6.57515 z m 17.10563,-3.83493 c -2.82345,-2.52403 12.52575,-4.43771 10.35883,-12.11396 -5.33667,0.69562 -14.23515,3.9868 -8.71466,9.25083 -4.17415,-7.112 -6.24952,7.5093 -1.64417,2.86313 z m 47.63425,-11.84955 c 1.0644,-5.70005 0.83859,-19.92808 -3.94138,-6.94797 -3.13364,2.45122 2.53617,7.76818 3.94138,6.94797 z m 61.52681,-4.9146 c 8.96482,-2.67617 10.16942,-14.38332 -0.58003,-12.16976 -5.27431,0.75463 2.95029,7.68218 -3.6702,2.01588 -12.60323,-2.01422 -20.64416,8.15804 -3.36934,9.54231 2.50499,-0.15571 5.21663,1.75115 7.61957,0.61157 z m -50.83566,-3.00454 c 8.85321,-7.6604 18.81122,-16.29794 17.61832,-29.13458 1.42184,1.4464 -0.13969,5.20973 3.46288,2.31495 -4.32049,4.02279 -2.53201,11.33078 0.032,2.47139 2.051,-5.86527 3.04368,-3.55056 1.50119,0.50457 13.73483,-7.4489 -18.56677,15.78026 -0.51098,9.43031 7.05674,-3.11845 18.51928,-21.6263 10.42096,-23.90448 -7.26644,0.21884 6.37824,11.57129 -2.98519,3.51907 -9.63868,-11.64321 -20.21458,-0.46457 -24.07925,9.5121 -5.11841,4.64881 -8.1129,13.50307 -0.12622,7.06519 1.27063,-3.67366 9.43424,-1.89614 2.01584,1.23711 7.62718,2.64302 -13.45675,0.18981 -9.06888,7.91758 2.8883,-2.09318 12.71861,-4.58323 4.37101,-0.002 6.54128,2.72726 -9.47778,0.11997 -5.13695,7.94502 -0.20825,2.23416 -0.032,4.4508 2.48523,1.12358 z m 30.83776,-5.15473 c 6.57013,-1.23107 10.98553,-13.03169 13.38623,-9.82208 8.40509,-2.62117 -14.35171,9.73041 -1.21631,6.76715 9.72931,-0.0421 15.5197,-15.13666 1.32203,-12.57715 -5.9944,-2.89421 -24.71844,9.1979 -11.86661,7.786 5.59393,-2.25895 -2.63921,2.75784 0.64754,4.89828 -1.35202,-6.11951 -14.71374,-4.1401 -8.44185,0.17869 -11.70026,-1.7678 2.81017,5.46977 6.16897,2.76911 z m -18.00027,-1.25019 c 10.90112,-2.64746 -1.96157,-6.68209 -2.47475,0.91235 l 0.42204,-0.0297 2.05272,-0.88262 z m 7.29098,-5.09123 c -2.00715,-2.2904 -4.79968,1.25685 0,-1e-4 z m -55.42432,-4.46231 c -0.61128,-8.86725 -18.69633,-17.2122 -18.64979,-7.85683 5.27047,3.71573 13.38878,5.21074 18.64979,7.85683 z m 27.36619,-1.84139 c 0.36284,-11.57388 1.26568,-24.02072 -5.64793,-34.07607 -3.88559,-4.31018 -6.8509,13.06154 -4.17395,17.69197 3.00955,4.61902 5.47935,14.73252 9.82188,16.3841 z m -51.58508,-2.70179 c 13.43339,0.17167 -3.45548,-9.02742 -5.89703,0.23701 1.96699,0.23123 3.94922,0.0555 5.89703,-0.23701 z m 59.27038,-4.94223 c 6.09562,-8.79821 14.86818,-18.5622 12.73658,-30.00088 -1.54158,-7.67739 -1.21303,-23.10462 -4.25778,-26.48355 -1.17886,3.66324 -6.60467,11.15271 -1.39006,10.50305 -8.40656,5.03724 -6.49344,21.17977 -9.09675,30.70212 0.70064,2.98257 -0.64463,16.72663 2.00801,15.27926 z m 37.49063,-4.28403 c 7.12016,-1.99223 6.43246,-13.80524 1.07009,-6.37731 0.002,1.29481 -5.33405,10.40992 -1.07009,6.37731 z m 0.33923,-8.27708 c -0.71473,-2.84498 -1.0849,2.55714 0,0 z m -7.00048,-1.29764 c 5.17626,-1.20787 8.65064,-9.60706 12.12786,-4.89015 -7.22925,2.04121 -5.56297,4.66206 -2.17917,3.54077 3.34358,3.34266 6.56691,-3.0037 3.07096,-5.82049 -3.68812,-13.31757 -19.52821,-13.95073 -25.45008,-1.77342 -10.94184,13.10281 14.87884,5.15555 16.59136,-2.64782 -3.26116,5.08079 5.00145,3.00645 -1.32141,6.03064 -5.81861,0.54821 -12.64082,7.22614 -2.8395,5.55998 z m 12.17957,-1.31088 c 0.45719,-1.21317 0.74835,0.87375 0,0 z m -64.29825,0.65373 c 5.98883,-10.72181 -1.01437,-22.73098 -10.9238,-25.93776 9.49735,1.17396 -10.78971,-8.71131 -1.90988,1.85654 4.09894,7.51121 5.76358,20.25983 12.83368,24.08122 z m 15.63785,-6.13949 c 0.32659,-7.52091 6.16834,-21.90068 4.76035,-25.46647 -6.11305,3.01932 -13.80241,11.19647 -8.86303,18.02185 1.00302,1.17386 3.05783,10.13247 4.10268,7.44462 z m 24.57747,-8.08063 c 7.60907,-5.56212 13.98026,-13.11835 16.59387,-22.03805 -2.75669,-4.37027 -7.07392,-16.40243 -1.45049,-8.59483 3.738,-12.5043 -1.3001,15.99798 4.96,3.1057 6.80682,-5.15571 -1.90726,-16.05361 0.7137,-18.01035 0.99262,5.13743 5.21112,-3.87962 2.06233,5.0206 5.82239,11.42177 10.91119,-14.86365 1.97982,-6.92202 3.79832,4.87375 -8.57816,-3.44939 -11.00017,2.66551 -9.08914,1.74333 -12.72196,9.06348 -16.51508,16.76565 -6.0027,8.09899 1.26516,19.28917 0.59279,28.61012 l 0.35094,0.66255 z m -35.30788,-2.4999 c 0.97871,-6.19464 -12.70617,-10.7163 -4.22672,-3.46714 1.24803,0.64509 2.32612,5.65533 4.22672,3.46714 z m 5.21232,-9.88977 c 7.85733,-7.87956 -5.44944,-14.78244 -4.7167,-19.19427 2.76343,5.63301 8.39567,5.16832 1.9323,0.15438 -4.94441,-5.40341 -2.31215,-3.71424 -0.37538,-5.04369 1.10052,-6.01876 0.58895,11.79241 5.63086,1.83532 -0.45309,-6.66606 -15.79654,-5.91824 -8.93477,-9.58775 9.09258,10.03545 0.16834,-14.67902 -1.40455,-1.2542 -4.65495,10.94779 3.24637,22.43179 4.16473,33.57884 1.60969,6.12461 1.54958,4.29392 3.70351,-0.48863 z m -13.74624,0.98567 c -0.88118,-3.55983 -6.09336,-1.44649 -0.45284,0.31452 z m 6.31167,-1.47334 c -1.37915,-5.15635 -2.79596,-24.19765 -7.62566,-11.34228 -0.97544,3.58055 2.10931,13.76537 3.74657,5.90164 0.93516,2.75182 -0.77691,6.54249 3.87909,5.44064 z m 13.33818,-3.55007 c 9.25873,-0.78264 2.15869,-19.00589 -2.26645,-7.35803 0.60456,1.24197 -1.16561,10.62112 2.26645,7.35803 z m -22.79825,-0.29302 c 2.71621,-3.02543 -2.4609,-13.13371 -4.90107,-3.709 -4.83107,4.88163 2.10011,3.29428 4.90107,3.709 z m 76.32131,-2.37086 c 6.71615,-1.55794 21.76918,-17.11614 7.01261,-10.58104 -4.14965,-0.31702 -12.65622,11.28163 -7.01261,10.58104 z m -83.50478,-1.50798 c 9.50046,-3.33842 -0.90203,-15.00348 -2.04424,-5.31906 0.5524,1.04568 -0.19893,9.97002 2.04424,5.31906 z m -39.075,0.18069 c -0.59419,-0.85826 -0.29137,0.88087 0,0 z m 77.4665,-3.74413 c 7.19667,-5.28819 3.33678,-26.17707 -0.1714,-16.87003 7.35917,-0.0818 -7.29728,2.78802 -3.45088,8.32687 -1.85957,1.85456 2.19975,12.62812 3.62228,8.54316 z m -8.65866,-4.51032 c 2.17699,-9.36645 -7.89291,-1.0738 -1.82446,2.11108 l 0.80842,-0.85357 z m 20.79129,-1.74403 c 6.8146,-11.19581 11.22629,-23.76924 13.43701,-36.659103 -3.72354,-12.164987 -11.1116,9.659053 -12.01554,15.259173 -1.9716,5.22 -8.22663,23.65768 -2.23915,22.79174 z m -17.36968,-2.77067 c 0.74826,-4.45915 1.56502,-15.16391 3.08308,-8.94062 1.25945,-8.17275 5.5375,1.76387 3.07434,-7.48118 0.75646,-8.02685 -14.82898,-21.013739 -17.44382,-9.71166 -4.53342,4.8806 -2.7668,13.02433 2.44692,8.84509 -6.5765,4.42872 7.72997,20.42906 3.70831,7.41035 -1.69803,-5.43626 1.38892,-12.25411 1.16081,-2.56171 2.50551,2.15692 5.41649,-14.82731 4.39941,-2.61188 9.81494,-3.18185 -10.07185,7.30378 -2.09394,8.57342 -2.61966,1.11257 0.19227,11.18499 1.66489,6.47819 z m 13.76161,-11.77439 c 2.00636,-6.7552 5.47701,-13.13295 4.44362,-20.386018 -0.3272,-4.421174 1.59509,-16.717597 -5.05622,-12.501314 -2.38499,5.120404 7.59685,-1.435903 1.53272,3.533498 -7.65628,8.159375 -6.32417,22.340494 -2.5625,32.499624 0.88632,1.45196 1.20385,-3.88036 1.64238,-3.14579 z m -33.81773,0.18557 c 4.53613,-10.20441 8.89251,-20.163821 4.71406,-31.307718 -4.1247,-4.34331 -10.04228,-10.912019 -10.98061,-0.439014 -1.40389,8.141618 2.90865,8.251137 6.52375,2.046417 -1.30349,-7.466632 6.59004,4.438716 -1.87694,4.52769 -7.15618,4.584615 -5.40957,15.020295 -1.93418,21.481215 1.31979,0.33122 2.34099,6.35549 3.55392,3.69141 z m 65.64013,-3.34867 c -0.61756,-0.89235 -0.92616,0.86378 0,0 z M 247.76031,99.693516 c 3.56615,-4.991895 -4.86299,-14.71639 -1.53572,-7.524233 -9.14487,-12.005017 1.62368,15.662517 1.53572,7.524233 z m -5.01235,-1.445562 c 1.26102,-6.475667 -7.3745,-14.970211 -7.01515,-5.239288 0.8095,1.97058 6.06869,6.347278 7.01515,5.239288 z m -30.45301,-2.627723 c 3.36376,-7.668128 -5.01021,-13.677049 -6.92759,-17.827529 4.04432,4.195691 9.04327,7.123253 4.26504,-0.351785 -1.99165,-2.228981 -9.65144,-8.214981 -2.03103,-4.206172 -6.95127,-9.992566 -8.99971,7.90284 -3.40058,12.250378 2.32738,2.603176 6.02652,10.41199 8.09416,10.135108 z m 50.13986,-1.58851 c 6.1089,-2.775987 1.56655,-22.464824 5.38446,-8.613151 4.65863,-5.132527 0.45337,-14.295068 0.30341,-14.448805 3.11229,-3.12877 3.76512,6.814579 4.78251,-1.489698 -8.66794,-4.433714 -17.32209,9.664852 -12.40403,18.516817 0.83407,0.829908 -0.68989,11.769024 1.93365,6.034837 z m -28.35891,1.045358 c -2.04877,-4.13844 -3.67669,1.862893 0,0 z m -0.10563,-2.840317 c -1.10909,-1.315831 0.19936,2.5938 0,0 z m -4.02858,-0.855245 c 1.10206,-6.784868 5.7914,-13.651448 3.46144,-20.123783 5.17326,7.258352 -1.06668,-13.111004 -1.63256,-10.334618 -7.99973,8.22832 -4.42497,20.291965 -2.89957,30.331234 l 0.41174,1.632968 z m 19.91392,0.481865 c 3.52431,-6.103771 2.97222,-14.326978 -5.4178,-8.459577 -4.0523,8.859016 6.50019,-0.463913 5.16778,9.183712 l 0.25002,-0.724218 z m 22.65544,-1.927426 c 3.8915,-3.374213 4.89468,-14.906049 -1.52323,-7.251743 -0.3112,1.448765 0.0917,7.799981 1.52323,7.251743 z M 236.1575,86.539579 c 5.47909,-3.402777 -3.22108,-10.894138 -1.89274,-1.044476 -0.71075,1.245837 0.24979,3.718104 1.89274,1.044476 z m 6.55129,-1.663091 c 0.0324,-4.557274 -2.94147,5.286564 0,0 z m -28.76966,-4.999245 c 7.13622,-6.93692 -12.14486,-12.9708 -2.50626,-2.253906 1.16937,0.552646 1.39494,5.962695 2.50626,2.253906 z m 43.9333,-0.602321 c 1.70861,-11.366523 -8.91667,2.601473 0.0983,1.340127 l -0.0983,-1.340127 z m -5.39056,-0.306046 c -1.26038,-2.781837 -3.61416,3.756888 -0.0765,0.364602 z m 12.59024,-9.822556 c 5.01445,-5.400797 4.01962,-6.352274 5.51401,-3.50562 4.48815,-4.74581 -2.01436,-14.369659 -5.72651,-4.281137 -1.32817,1.555357 -5.96184,12.318254 0.2125,7.786757 z m -56.31398,0.06988 c -2.65538,-4.203096 -2.2839,0.53289 0,0 z m 66.37597,-0.935679 c -1.80903,-0.824393 -0.6109,2.283504 0,0 z m -37.0817,-0.152184 c 3.79622,-5.92414 7.43696,-12.659092 4.89296,-19.764599 -2.99222,-9.287837 -3.71624,11.319269 -7.78219,12.951157 0.28884,1.888725 0.75161,6.712654 2.88923,6.813442 z m -0.72809,-13.595888 c 2.76991,-5.184177 4.64159,-18.799559 -3.47071,-8.348651 -0.26751,4.612173 0.0411,8.725319 3.26658,3.936955 -1.23178,3.300297 -4.71362,11.120032 0.20413,4.411696 z m 34.33625,1.974835 c -0.58158,-1.674766 -0.5816,1.674756 0,0 z M 203.83952,171.91147 c 0.86452,-0.91729 0.29914,0.94983 0,0 z m 6.3926,-104.2613 c 1.9418,-3.621899 1.46162,0.803498 0,0 z m 38.93563,-23.962703 c -0.68914,-3.341617 0.89002,1.847814 0,0 z" />
</svg>
