<svg xmlns="http://www.w3.org/2000/svg" viewBox="0 0 1024 768">
<rect width="1024" height="768" id="P005WIImgRctX" fill="#fff"/>

<rect y="678.56256" x="-7.0710678" height="104" width="1039.5563" style="fill:#808080;" />
<path d="m 900.45436,313.09304 c -1.04827,-0.63919 -1.81997,-1.78458 -2.2092,-3.27897 -1.69052,-6.49033 3.13153,-16.47464 14.10588,-29.20688 3.68251,-4.27239 6.46645,-6.3656 7.71159,-5.79827 0.28503,0.12986 0.74665,0.54507 1.02582,0.92268 0.61551,0.83252 0.97108,0.86393 1.45305,0.12836 0.29162,-0.44509 0.33489,-0.8666 0.21354,-2.08021 -0.15395,-1.53928 0.0829,-2.68676 0.6258,-3.03197 0.3769,-0.23965 1.88605,-0.20719 3.07187,0.066 2.02228,0.46598 3.86765,1.5595 5.71391,3.3859 1.04736,1.03608 2.09582,1.85989 2.56356,2.01427 1.8466,0.60943 5.47194,-0.44026 8.70777,-2.52128 2.05989,-1.32476 2.829,-1.44185 4.35554,-0.66305 2.37891,1.21362 6.57958,6.04662 11.25238,12.94617 4.57811,6.7597 10.14163,16.49363 10.14163,17.74376 0,0.85714 -0.56777,1.25919 -1.77818,1.25919 l -1.0714,0 -3.40014,-4.25063 c -3.63643,-4.54601 -6.83844,-8.05777 -7.99406,-8.76741 -0.76991,-0.47279 -7.5413,-2.37819 -7.7412,-2.17829 -0.14766,0.14767 3.17316,5.20307 4.90561,7.46803 0.68692,0.89803 1.74951,2.02907 2.36133,2.51341 0.87851,0.69548 4.0074,2.65219 6.82435,4.26776 0.35728,0.20491 -3.1151,1.33365 -6.38758,2.07638 -2.8887,0.65562 -7.66276,0.83984 -9.50021,0.36659 -2.2744,-0.58579 -3.0226,-1.1057 -6.44335,-4.47729 -3.69715,-3.64401 -4.10273,-4.3472 -3.45638,-5.99263 0.346,-0.88084 0.34535,-0.88366 -0.35859,-1.54937 -1.06296,-1.00522 -1.69753,-1.25194 -3.17898,-1.236 -1.72154,0.0185 -3.78091,0.8313 -6.18722,2.44194 -2.37737,1.59126 -3.99083,2.88167 -10.67931,8.54115 -10.63513,8.9989 -12.55712,10.16546 -14.64783,8.8906 z" />
<path d="m 831.05573,289.56793 c -3.50963,-0.77902 -7.10938,-2.34253 -8.70771,-3.78211 -1.72892,-1.55716 -2.07211,-2.6795 -2.25836,-7.38523 l -0.16196,-4.09228 -1.08087,-2.1794 c -1.28614,-2.59321 -1.75699,-3.0536 -5.16887,-5.05413 -4.70159,-2.75671 -12.26532,-7.64425 -16.93617,-10.94381 -13.57861,-9.59216 -22.68209,-18.40081 -26.18879,-25.34071 -1.46395,-2.8972 -1.48954,-3.49662 -0.0727,-1.70421 2.53808,3.21089 7.61935,7.73184 12.36191,10.99872 6.7105,4.6225 17.26045,9.90298 26.04856,13.03787 l 2.79182,0.9959 -0.37424,-0.89567 c -0.50842,-1.21681 -0.47041,-2.11669 0.14285,-3.38355 0.63668,-1.31519 2.89429,-3.8006 3.45225,-3.8006 0.24247,0 0.91967,0.90821 1.65773,2.22321 1.45876,2.59915 4.99145,7.10268 6.95965,8.87225 3.99623,3.59295 13.10631,6.26753 27.13395,7.96611 5.28591,0.64006 13.04061,1.24991 18.88891,1.48547 2.41212,0.0971 4.35241,0.26197 4.3118,0.36625 -0.14199,0.36439 -2.96255,2.65251 -4.64698,3.76975 -5.25919,3.48828 -11.24808,5.27748 -18.57743,5.55006 -5.78856,0.21528 -11.61039,-0.48538 -16.6885,-2.00843 -0.92746,-0.27816 -1.71156,-0.4805 -1.74244,-0.44961 -0.0309,0.0309 1.81427,3.34864 4.10034,7.3728 2.28607,4.02417 4.1579,7.4591 4.15966,7.6332 0.01,0.97403 -6.17139,1.46576 -9.40438,0.74815 z" />
<path d="m 913.2283,256.21604 c -19.41206,-2.09512 -31.14221,-4.50312 -32.68822,-6.71033 -0.2483,-0.35452 -0.45147,-1.16315 -0.45147,-1.79697 0,-1.43855 0.85306,-2.11666 2.6628,-2.11666 1.95638,0 3.22181,-0.33088 3.22181,-0.84243 0,-0.25041 -1.41191,-3.40038 -3.13757,-6.99993 -3.68538,-7.68731 -5.52442,-12.15449 -6.62457,-16.09151 -0.95134,-3.40456 -1.3094,-7.85324 -0.78656,-9.77272 0.40046,-1.47016 2.33726,-3.81585 2.72462,-3.29978 1.5351,2.04536 10.91342,16.34132 13.02703,19.85797 3.19631,5.31798 4.17389,7.18493 4.72213,9.01833 0.21649,0.72397 0.52214,1.3163 0.6792,1.3163 0.6081,0 7.0661,-3.48936 9.85104,-5.32268 3.86939,-2.5472 8.28769,-6.8407 10.12294,-9.83704 2.02609,-3.30796 2.1918,-3.46895 3.4596,-3.36088 1.70644,0.14545 2.31526,1.48576 2.46082,5.4172 0.14841,4.00951 -0.46023,6.86405 -2.2445,10.52698 -2.23197,4.58198 -5.61097,8.31137 -10.3263,11.39707 l -1.31402,0.8599 0.84947,1.57021 c 0.97285,1.7983 3.81375,4.99374 5.1855,5.83258 0.98491,0.60231 0.96056,0.60849 -1.39375,0.35439 z" />
<path style="opacity:1;fill:#808080;" d="m 668.59981,183.07894 c -9.56728,-2.84048 -12.40558,-4.36337 -19.62088,-10.5276 -7.36689,-6.29373 -15.98991,-10.56834 -24.33902,-12.06535 -7.32503,-1.31339 -11.41795,-0.87693 -25.40688,2.70936 -9.05357,2.32103 -11.15528,2.4907 -25.5,2.05861 -17.4253,-0.52489 -27.205,-2.34564 -36.63322,-6.82026 -11.12839,-5.28152 -17.5,-12.6473 -17.5,-20.23056 0,-7.11432 9.35109,-16.5913 20.7632,-21.04274 8.19712,-3.19739 20.8143,-4.66825 40.11779,-4.67675 20.88413,-0.009 32.87099,-1.1102 44.03439,-4.04456 4.67482,-1.2288 13.53112,-2.33534 23.08462,-2.88428 18.01642,-1.03522 21.9622,-2.23673 31.64518,-9.636137 13.54344,-10.349442 11.04413,-9.47539 26.26568,-9.18556 12.7037,0.24188 13.8575,0.10495 17.70784,-2.101603 2.34407,-1.343343 5.14473,-4.132252 6.5,-6.472736 5.87149,-10.139768 17.86453,-17.952633 27.55797,-17.952633 10.09139,0 20.99113,7.776419 26.70538,19.052946 5.47695,10.808246 10.28027,14.168806 24.637,17.236836 10.49804,2.24344 12.69116,3.29333 19.98095,9.565287 3.025,2.60264 6.94805,5.33925 8.71788,6.08136 4.67641,1.96086 11.33574,1.65545 16.82225,-0.77149 9.69371,-4.28799 23.56369,-1.19612 32.69772,7.28892 7.37322,6.84935 15.56149,9.78335 27.56137,9.87575 3.13543,0.0241 7.34013,0.62956 9.34379,1.34538 4.14243,1.47991 12.85699,8.26378 12.85699,10.00857 0,0.6363 -1.93611,3.35716 -4.30247,6.04634 l -4.30247,4.88943 -18.17105,1.28438 c -18.854,1.33266 -27.25712,2.49811 -35.65551,4.94512 -6.87078,2.00192 -12.69932,1.79691 -21.50471,-0.7564 -5.43882,-1.57709 -10.37319,-2.20921 -17.56379,-2.25 -11.52904,-0.0654 -15.88799,1.02955 -23.40793,5.87996 -5.73796,3.70101 -10.79244,4.90374 -20.59207,4.89993 -11.99048,-0.005 -17.07854,-1.20736 -23.63769,-5.58739 -4.68875,-3.13103 -7.36768,-4.20768 -11.25762,-4.52442 -4.80924,-0.39159 -5.48592,-0.1352 -11.69136,4.42978 -9.61498,7.07317 -40.72696,22.01789 -49.41333,23.73582 -13.03192,2.57737 -18.34851,2.61683 -26.5,0.19669 z" />
<path style="fill:#808080;" d="m 424.12809,133.49107 c -7.34729,-1.32538 -13.05374,-3.76084 -17.4835,-7.4618 -5.20163,-4.34584 -13.66549,-6.01623 -30.54478,-6.0282 l -13,-0.009 -8.37318,4.5 -8.37317,4.5 -11.62682,-0.0642 c -9.63171,-0.0532 -13.25699,-0.54017 -21.12683,-2.83802 -8.8965,-2.59763 -11.21519,-2.82452 -36.5,-3.57162 -30.6422,-0.90539 -38.50708,-2.23821 -36.96232,-6.26378 1.06903,-2.78584 9.96199,-5.76654 20.05295,-6.72124 8.97531,-0.84915 10.42655,-1.32137 22.20337,-7.22485 l 12.6004,-6.316327 11.39776,0.22188 c 12.85445,0.25024 17.2266,-1.13073 21.18649,-6.6919 2.86095,-4.017817 14.43472,-9.427672 24.52135,-11.461852 11.02118,-2.22265 16.53443,-5.114857 18.87136,-9.899768 1.99156,-4.07774 7.57153,-8.72551 14.12864,-11.768272 5.05028,-2.343536 14.49364,-2.462325 20.94686,-0.263493 5.80399,1.977619 13.15042,8.719644 14.01688,12.863679 2.31371,11.065928 2.45607,11.265553 17.18487,24.097586 8.63193,7.520307 9.23609,7.723177 23.348,7.839817 11.96591,0.0989 12.76131,0.23786 18.50339,3.2326 3.3,1.72109 7.125,4.34212 8.5,5.8245 4.22435,4.55427 7.6939,5.82213 14.10014,5.15254 l 5.72444,-0.59832 -3.41229,5.66667 c -1.87676,3.11667 -3.41229,5.97731 -3.41229,6.35698 0,0.37966 -8.6625,0.91165 -19.25,1.18218 -17.27038,0.4413 -20.12412,0.76663 -27.75,3.16362 -9.4092,2.95753 -21.50932,4.0171 -29.47172,2.58077 z" />
<path style="fill:#808080;" d="m 603.59981,88.585943 c -1.375,-0.43804 -4.91144,-2.02079 -7.85876,-3.517221 -10.91574,-5.542211 -40.83869,-5.350756 -60.13464,0.384758 -1.92137,0.571106 -6.44976,1.038375 -10.06309,1.038375 -5.81268,0 -7.58543,-0.518294 -15.38472,-4.497972 l -8.81503,-4.497972 -12.12188,0.103096 c -13.54467,0.115198 -19.07094,-1.259838 -28.1065,-6.993399 -5.1714,-3.28154 -8.77652,-4.4871 -16.64222,-5.565194 -4.4929,-0.615809 -4.71587,-0.813793 -7.70228,-6.839081 -1.69149,-3.412702 -2.75941,-6.50857 -2.37316,-6.879705 0.38626,-0.371135 3.62728,-1.426068 7.20228,-2.344297 3.575,-0.918228 10.88407,-3.937238 16.24237,-6.708911 l 9.74237,-5.039406 10.25763,0.616918 c 5.6417,0.339304 12.77153,0.898063 15.84406,1.241686 7.41099,0.828821 10.397,-0.801779 17.29119,-9.442381 7.70977,-9.662774 12.21538,-11.554622 27.62238,-11.598305 20.2455,-0.0574 28.49108,4.395605 32.94996,17.794547 3.40166,10.222 6.5395,12.207181 23.98088,15.171693 10.86414,1.846579 13.57167,2.861176 20.8912,7.828583 6.218,4.219855 9.94221,5.36578 20.17796,6.208679 5.08726,0.418929 11.17705,1.955298 18.93012,4.775802 l 11.43012,4.158186 -5.43012,0.772357 c -2.98657,0.424797 -8.80512,2.377915 -12.93012,4.340262 -6.12598,2.914256 -9.32032,3.741763 -17.43614,4.516904 -5.67342,0.541868 -11.80523,1.775784 -14.29286,2.876182 -5.43383,2.403646 -10.02752,3.129096 -13.271,2.095816 z" />
<path style="fill:#000000;" d="m 955.83069,130.94442 c -2.22003,-4.35163 -10.46316,-12.59619 -16.73157,-16.7345 -6.18081,-4.08047 -11.98679,-5.70621 -23.75778,-6.65241 l -10.82513,-0.87018 -4.8317,-4.51949 C 887.19878,90.488903 865.51232,85.308159 850.6234,90.447483 c -6.02367,2.07924 -5.90622,2.10996 -11.95997,-3.12905 l -4.2447,-3.673431 2.00652,-7.934682 c 7.20109,-28.476459 30.04741,-48.536858 59.43674,-52.188911 29.25174,-3.634957 57.93804,11.97359 70.70323,38.470446 6.77965,14.07259 8.66694,29.117938 5.51935,43.999995 -1.59257,7.52978 -7.76688,21.14936 -11.76846,25.95941 l -2.46199,2.95941 -2.02343,-3.96625 z" />
<path  d="m 360.83598,367.93513 c 2.12266,1.29398 3.84788,4.3747 5.8015,6.36524 2.67667,3.10865 4.83865,6.64848 7.64477,9.63574 3.34311,-0.20788 4.22646,-3.91613 6.32005,-5.90486 1.64915,-1.9419 4.11194,-3.46496 6.27146,-4.27955 2.49634,0.0539 4.34928,-1.84528 6.80222,-2.42672 2.04389,-0.37115 3.95497,-0.44243 6.23528,-0.87347 1.96738,0.0258 3.86778,0.10371 5.89873,0.27743 2.37177,-0.44232 4.58241,-0.0268 6.91365,0.24637 2.52391,0.597 6.8801,-1.31084 7.95421,-1.07007 -2.23147,2.14151 -5.18855,3.49465 -7.03228,6.00933 -1.96952,1.69753 -3.87646,3.73877 -5.52244,5.51184 -2.00797,1.34042 -3.56038,3.29254 -5.83476,4.15905 -0.7766,1.36338 -3.07037,1.41214 -4.13938,2.31683 -2.50249,0.95966 -4.95857,1.63268 -7.64763,1.73079 -2.53284,-0.33297 -5.1834,-0.0559 -7.54336,-0.94414 -3.37311,-0.12561 -4.7705,-5.49316 -8.09664,-4.0998 2.26366,2.67188 5.36214,4.57467 7.85833,7.05403 2.1318,2.7341 5.78257,2.69663 8.91801,2.91968 2.54872,0.35559 5.34186,0.98888 7.34107,2.43044 2.06639,1.10453 4.01864,2.6641 5.24785,4.582 1.12288,1.65151 3.09744,2.97536 3.2323,5.13342 1.42011,1.74956 2.10236,4.10788 3.48633,6.05043 1.01086,2.08044 1.5744,4.44134 2.80078,6.50644 0.86119,3.13687 2.59585,5.94315 4.52344,8.55898 -2.31721,-0.83154 -4.3646,-2.7102 -6.75426,-3.38779 -1.93868,-0.9555 -3.8603,-1.16591 -5.89057,-1.5777 -1.68537,-0.0139 -3.29363,-1.09933 -4.66095,-1.51464 -1.7084,-1.51152 -3.63961,-1.50319 -5.49005,-2.93372 -1.40242,-0.44264 -2.93337,-1.91003 -3.83342,-2.95893 -1.36076,-0.75917 -2.65786,-2.53868 -3.07229,-4.5153 -0.90957,-2.2009 -1.41254,-4.6713 -2.2897,-6.96711 -1.26398,-4.14237 -0.55816,-9.36588 -4.27519,-12.38477 -2.3968,-2.30565 -4.84701,-4.68087 -7.74023,-6.34167 0.0634,2.53532 4.56227,3.50719 4.72122,6.74016 0.81413,2.20106 0.73936,4.27574 1.08131,6.3709 -0.19801,2.28204 0.18161,4.84112 -0.51933,6.99487 -0.14955,2.63689 -0.60632,4.97601 -1.64037,7.39454 -0.72878,1.65788 -1.28294,3.562 -2.60658,4.89948 -1.04066,1.75791 -2.06061,3.27659 -3.21281,5.20436 -1.6158,1.60053 -2.74881,3.51328 -4.09185,5.29493 -1.18177,1.87734 -1.91074,4.40865 -3.46587,5.9935 0.73905,-2.83534 0.9395,-5.83352 0.59665,-8.73966 -0.59709,-2.34221 -1.03787,-4.73446 -0.71738,-7.16542 -0.07,-2.33226 0.30145,-4.45436 0.37883,-6.7765 0.0702,-2.68193 0.63852,-5.26611 0.44072,-7.97482 0.25511,-1.75621 0.0274,-3.38988 -0.0542,-5.12578 -0.007,-2.86504 1.48279,-5.7514 3.4171,-8.02487 1.33577,-2.35185 6.56356,-3.78221 4.35481,-6.994 -3.69362,-5.27224 -7.58767,-10.46359 -12.24271,-14.92607 -0.13632,-0.19184 0.003,-0.35267 0.13361,-0.47342 z" style="fill:#808080;" />
<path d="m 198.40769,682.58097 c -29.34819,6.55452 -3.00267,-24.86148 -8.02597,-41.01994 4.01236,-40.17124 6.97292,-80.70691 5.78766,-121.05533 -6.35567,-20.91387 -28.21281,-39.23933 -51.24408,-32.41779 -20.73772,0.21955 -26.91564,26.54004 -11.57804,36.05741 -12.0845,-4.36376 0.0896,12.00282 -7.60067,11.50555 4.49846,10.2276 -0.22349,7.52748 -5.88602,6.71466 4.24585,-6.45454 5.17301,-11.62508 0.0135,-4.0084 3.08462,-12.14341 -8.4935,-18.49313 -4.87527,-2.33759 9.41196,9.19949 -8.45001,-0.55976 -10.10844,7.1826 6.9752,-5.94406 14.06029,-31.61193 8.19473,-30.70628 -12.01794,2.23358 -7.10982,22.70259 -12.42669,8.80926 2.61073,4.26267 -18.83984,-2.77046 -3.06143,-3.57643 0.13477,-6.43438 -12.32988,2.22914 0.21401,-7.71989 8.74567,-19.91498 -18.534726,2.08584 -13.68189,13.39566 -2.562289,11.31899 -3.511809,-11.72677 -10.572399,3.88856 0.799845,4.11745 -11.542441,-1.47609 -7.524067,-2.46821 7.653867,-20.72036 -18.29059,22.1519 -5.718032,-2.79797 -26.159883,8.61998 29.341788,-15.78364 -2.521544,-13.29286 -18.716111,1.90735 9.637253,-2.38597 -5.241029,-8.94431 15.098526,13.39122 37.761631,1.3234 53.742451,-7.44323 -11.51993,-11.19368 -28.817207,1.89606 -25.671575,8.08553 -13.623326,-1.92559 -1.991691,-8.97107 7.581995,-14.26712 -10.856651,-6.29842 -21.736465,-3.37779 -17.307052,-11.88592 1.207911,-3.07078 12.339897,-12.1145 6.316691,2.89871 5.731355,7.93005 31.425941,10.21337 10.789421,-1.49876 7.70959,-4.55147 16.63714,22.66524 32.27242,11.26323 15.00406,-2.23834 35.24406,-8.62616 11.15684,-16.10635 -6.90895,-0.42851 -22.45333,9.83523 -13.26015,-0.88222 -9.26549,-4.38076 -21.98334,-4.01087 -13.76618,-12.76911 2.83329,14.69102 45.73993,14.09716 21.45896,-1.24134 -7.89597,1.80443 -14.7363,1.23365 -6.2987,-2.7455 -13.0199,-0.52868 2.87381,-14.59662 3.62746,-1.24384 6.99567,4.88964 7.90591,-12.08606 7.58053,2.02014 7.46406,10.16857 26.16818,37.11021 33.29674,22.81907 -8.63042,-21.17458 -26.88463,-34.4322 -49.71218,-37.34898 -18.50641,-4.10892 -27.33139,24.07214 -35.23692,10.26142 12.53505,1.46513 20.04261,-13.77206 3.407015,-7.37482 -15.148818,1.40976 6.865265,-2.33408 -3.893693,-7.9704 9.046438,7.55669 22.027988,-3.75288 5.411798,-5.45927 9.33262,4.12795 20.27167,-4.27983 21.30619,-4.80121 21.94019,-1.05851 -6.72012,-7.04415 -13.80646,-0.68305 8.11925,-4.94404 10.12591,-3.38799 4.99157,-10.7086 10.06948,6.34399 25.5531,8.47698 8.47323,-3.04617 -7.14466,-2.06724 -23.50993,-1.11735 -6.34817,-3.66847 -9.08716,-18.74092 12.26478,12.97058 7.00888,-7.564 1.38752,9.73256 13.49351,24.67753 29.1016,23.73167 1.38735,-13.5827 -20.44627,-29.29533 -8.98449,-32.61564 -2.60533,14.78175 8.50736,4.08469 10.59678,3.72077 10.38133,3.37606 -12.23455,7.42749 -1.57009,19.22364 14.09237,-14.26826 -6.35544,12.58167 8.48631,16.6408 9.25421,13.26934 8.7073,2.86411 8.3558,-4.47938 15.11503,6.23114 -12.009,-28.98543 3.17383,-17.92752 3.51917,0.44083 3.10338,24.15424 8.17288,3.82785 3.17944,-3.9628 5.59421,5.53694 1.62932,7.52671 1.61881,-1.41207 -14.32504,18.93643 -0.39137,7.37502 4.38651,-6.8871 -0.81498,10.59055 5.76264,7.85871 -27.2734,-6.89978 -10.11137,34.65251 3.92277,40.9098 15.63801,12.10239 18.79713,-24.36341 -3.00585,-17.26541 -10.68443,2.10088 -9.83095,0.27164 -6.05506,-3.59716 -12.60322,-8.28819 25.7594,9.22291 6.36898,-8.29934 -8.22008,-8.65501 7.91587,5.18511 5.55549,-8.33761 -3.76482,12.5786 8.91846,23.1234 8.93666,16.48834 3.46531,17.63645 17.54608,4.11026 5.22761,-7.11028 -11.6946,-23.21876 -23.01845,-49.72341 -48.92193,-60.19247 -11.75384,-10.92161 -35.34934,5.35584 -33.86511,6.23229 -2.63144,-12.36615 -26.907105,18.07324 -27.895457,26.91626 0.207878,-8.51524 -15.34694,1.93018 -1.969155,-7.31214 19.759442,-17.94155 -9.842753,-5.89049 -15.422418,-4.94367 9.486611,-4.96037 -13.879368,-11.59217 2.224714,-7.94445 11.847435,9.23309 51.551486,-18.60326 19.230336,-12.19717 -11.539118,6.29842 -15.417854,3.6452 -2.408023,-2.44732 -11.220133,-8.38625 -32.024073,8.33068 -25.904325,-3.84823 11.328929,3.5687 16.465868,-4.68413 6.884883,-12.16852 7.143112,6.59545 28.400105,21.5062 15.280855,1.9836 -8.632261,-2.67974 -15.299732,-13.46966 -1.672446,-4.16697 1.167487,-12.55975 8.354266,24.33668 22.702546,17.10027 13.26559,3.19554 41.97527,-5.86337 17.69405,-17.10277 -8.70298,-8.06557 -22.11545,12.89812 -18.94212,0.19321 -12.69193,-3.16094 25.47812,-3.56312 0.69722,-8.12113 -5.82771,-2.72223 -28.355054,11.06137 -14.45259,-0.22973 -13.727503,-3.25476 -10.899957,-15.8199 0.41267,-2.81433 29.28626,5.80147 -9.587128,-20.64031 -17.594083,-14.47992 15.272934,2.03206 -6.116674,-16.78037 9.056705,-4.67893 6.454977,3.36625 12.612698,10.09628 9.765728,-0.94029 0.68595,13.28933 41.81632,37.97474 24.93412,12.60166 -3.8538,-9.3146 -33.484852,-15.80701 -8.59669,-12.14603 -6.24719,-34.81699 10.93949,29.35665 14.70571,3.03501 6.70938,-3.50275 -4.57862,26.12555 10.62672,29.57121 9.50938,9.65392 39.26721,28.15414 24.45666,1.7185 -3.04287,-19.36072 -13.90684,-29.32128 -28.95575,-16.20631 8.95419,-6.37841 7.49411,-9.58337 3.20095,-14.54298 29.46624,13.00211 -3.09164,-22.33997 -15.22008,-24.47754 -6.77326,-3.14842 -40.379185,1.09007 -17.19429,-3.88241 23.1669,-7.05411 -20.419665,-1.10577 -8.80013,-8.22392 -16.981444,-22.08207 20.85232,16.14617 3.83167,-7.6885 -10.678127,-5.32296 13.19267,-14.17798 2.96022,-1.53108 2.61714,10.22207 23.69071,23.47773 9.48578,3.92618 -6.22831,-10.53415 -2.93253,-10.54851 2.95613,-2.74213 16.27488,-10.18633 -8.48501,5.55091 5.38271,12.0197 5.17791,11.72772 22.55395,14.37612 9.89597,-0.26831 -11.54323,-4.554 -7.41082,-6.57431 1.84126,-2.07791 -0.51169,-8.42746 -6.22572,-25.29868 2.16062,-7.03042 4.11561,-6.07753 5.26366,-9.48991 8.83071,-2.32629 -18.05799,8.06724 0.4318,30.63168 9.84686,38.99197 4.49327,-6.32285 -11.92978,-30.78653 -6.10417,-34.1782 0.58682,16.93704 14.21451,20.62241 12.36551,2.874 5.83878,0.34768 12.95946,32.66436 15.53818,12.00204 -4.29102,-13.02126 0.10038,-13.43704 3.79555,-0.11823 11.93007,-12.70888 -6.98641,-44.3573 -27.34316,-40.57959 -14.14313,-11.9103 -25.15381,15.56013 -31.6323,2.74907 -9.44833,-2.95813 31.03535,-4.18493 5.77953,-8.68639 -7.94588,-4.12413 -25.48306,6.47629 -18.95127,-4.32134 -8.9639,-12.44464 21.01729,12.76875 14.1897,-5.60465 6.08904,15.41106 36.3326,11.87891 15.47246,-0.71288 -8.59631,-1.33433 -11.07951,-5.41083 -0.16187,-3.1633 -6.03298,-7.23166 -14.27269,-17.97443 -0.50097,-6.90991 1.83082,-19.60247 4.69803,19.9084 14.756,21.61155 30.86218,20.60521 17.38695,-36.00131 -6.57334,-25.77562 10.5794,-2.23469 -12.75284,-19.7263 3.25876,-7.79966 21.32351,15.20359 -5.41055,-18.33894 -17.69642,-8.65502 -15.98824,1.27285 14.27064,-3.3337 2.80264,-14.30672 2.83203,12.51362 26.18575,20.6142 10.85568,3.68109 -9.58825,-6.06394 -11.13023,-13.05613 0.98093,-4.00417 -2.6808,-5.99303 -7.83012,-21.79248 1.08738,-7.93652 1.52531,-11.29305 18.48189,-4.91067 9.56591,-18.6564 5.13142,6.9945 19.94617,22.11727 14.35275,3.52807 -8.18865,-6.48031 -1.87215,-7.44872 2.96191,-1.31683 12.2575,-25.99522 -6.28203,33.25011 5.0006,10.8668 1.38193,3.33834 3.5833,10.9558 10.68551,9.88169 -15.9467,2.92894 14.49064,21.53932 5.0501,0.89 2.74347,-15.30217 -12.2416,-28.28326 -19.56016,-36.32136 14.89209,10.92303 5.61067,-3.09971 5.25924,-7.9319 5.76715,9.74392 11.99469,-14.07376 6.78179,4.95096 -3.58224,14.18039 14.25983,33.17188 15.8652,9.26567 -2.35868,-12.67681 -20.9662,-22.25219 -6.25043,-18.80528 -0.5981,-8.26853 13.86021,33.25673 7.90774,9.6227 -3.93445,-14.26361 -0.47224,-8.36823 4.42517,0.22662 4.79094,-14.34917 -8.11904,-32.2476 -12.19205,-38.81557 19.12869,23.30222 -5.4283,-27.58678 7.25373,-7.07004 11.37031,-17.28917 -0.036,0.7432 3.77652,6.74277 6.94569,-14.06328 -5.94206,28.7123 8.22395,14.59387 -0.0796,-7.89591 0.98129,-25.03353 3.07087,-7.62637 6.49302,-4.8868 -5.21094,12.75255 5.04839,1.83769 -1.06084,-6.95791 2.13114,-15.2756 1.94717,-3.22087 18.20619,-23.68481 -13.49135,22.45622 8.82695,15.74806 3.79476,-5.32566 -7.35139,23.64629 5.15759,5.40316 3.29971,-6.12567 6.6002,-25.32117 5.31729,-6.32951 5.8274,-6.02297 14.54796,-15.08342 10.32658,-4.39422 -5.36685,1.91822 -34.70486,36.54687 -9.27526,16.43685 15.20132,-12.4316 -4.94999,7.11129 3.20349,7.04202 -19.10068,2.18855 -36.13622,32.96106 -27.44041,49.81885 12.04398,10.36088 14.83029,-26.94982 16.95,-25.01803 -1.28876,11.74666 1.8196,8.67461 8.45639,5.22976 -9.37905,8.77858 -19.5416,28.09345 -1.67858,10.91686 20.04288,-6.64167 0.49748,-24.97969 -2.00782,-32.06506 9.9156,17.89782 8.01708,-20.37047 9.92321,0.63419 -2.72509,13.22504 8.95609,26.03876 10.72225,6.90714 -5.70269,-11.70738 1.37903,-36.8067 7.80956,-38.07508 -3.31505,8.60767 -13.44224,28.68863 -3.31332,31.97475 5.31247,-6.51089 6.44102,-31.35781 7.47425,-8.56508 9.2534,-7.05121 14.92395,-3.28549 11.3792,8.95518 5.21583,-12.21277 9.9147,-13.81457 2.69954,-0.20284 -8.18632,8.29329 8.25533,20.67262 7.31218,2.44571 5.37824,-19.34775 -1.66156,19.47808 7.02299,-0.47751 7.12327,-8.13721 6.15211,-24.48473 9.36662,-11.16027 20.52037,-17.52957 -21.57592,28.68423 0.19032,10.4605 12.39891,-12.50194 -6.75671,9.41709 5.35545,9.42317 -14.46751,-9.52495 -40.69756,16.80286 -31.52615,25.23511 7.65608,-2.34451 7.48136,-14.30912 7.82478,0.15534 9.17475,6.62233 -14.79737,23.05962 -9.37169,37.50129 12.89079,-1.17967 27.07913,-33.29862 13.62476,-34.41083 -2.31341,-13.45811 10.64222,6.28953 7.22692,-11.38033 -2.20944,-14.68885 1.71516,-8.90245 3.70189,-1.7028 5.08781,-6.76355 17.22198,-12.43957 9.66687,-2.76101 20.3567,10.024 -14.79401,-6.40452 -10.65406,12.15278 -6.5034,16.40229 9.03768,-4.35076 7.58847,4.18903 14.83807,0.80556 -16.44797,4.13411 -11.18192,15.34552 -10.20909,23.62648 17.74261,-4.37207 20.00947,-10.96572 -7.61439,10.48751 18.93492,1.92058 1.29792,8.68169 -19.79093,5.97079 1.30739,21.59694 8.26522,5.53275 -6.83843,9.72033 11.15073,4.6456 -5.28055,10.12842 -8.4952,-1.08159 4.20605,12.10882 -6.22856,2.11209 -6.6318,-9.76981 -14.67354,-5.31219 -9.61927,0.87254 -22.10254,-12.58429 -37.34792,19.27071 -38.44458,37.87337 17.22453,-3.94279 31.50262,-22.43467 25.7853,-36.9799 3.63777,6.44998 12.78926,-5.59655 4.6908,7.54151 3.48086,14.95723 24.79376,-12.33145 22.80274,1.75498 7.45482,4.09604 -37.35835,5.74021 -29.83076,17.63607 18.06518,-5.48835 32.82552,-5.07595 27.06887,10.03881 7.18622,-1.35522 -32.19545,32.609 -5.95515,19.12589 11.89002,-1.16342 -18.75612,9.86905 -16.41202,19.43357 -5.40137,8.74441 -13.5908,27.63008 3.26443,13.58002 9.25509,-13.3918 19.09729,-31.96396 20.90519,-45.74354 6.3969,-2.47441 -1.30764,14.74067 8.73698,2.31531 2.63564,2.64126 -21.70555,25.17313 -2.56749,13.48504 4.91636,-8.92091 7.00596,-24.04878 11.45226,-11.46174 -16.74314,8.57937 5.27815,15.92223 2.85407,0.0752 1.87211,-6.43822 18.69478,-6.41424 2.72246,1.83717 -6.56308,24.43438 16.87138,-9.09517 19.72675,-5.35837 17.35922,-6.40911 -21.31472,14.8499 0.42238,8.98763 8.26515,-7.10037 19.10968,12.22086 3.65684,2.54954 -12.58036,-4.57908 -44.98745,22.66133 -18.82175,17.47236 9.20397,-3.13672 16.97283,-14.49084 20.08586,-7.38348 12.39264,1.39207 -23.67909,3.40414 -3.52654,10.50174 -0.42494,2.49462 -22.1013,-8.15631 -9.93318,3.44527 8.35588,7.52652 20.47524,9.35652 12.11293,13.64039 3.51736,13.51773 -13.15967,-18.39813 -23.72848,-14.84789 -10.85559,-9.63066 -44.37322,16.58985 -15.58168,12.29388 11.37978,-8.03924 19.56231,-3.46124 2.35369,1.97093 -4.69574,12.64721 27.8943,-19.52049 16.32843,-2.16434 14.07481,3.26533 -27.5981,5.85126 -3.2824,9.34921 7.43356,-5.21991 1.04764,9.66354 15.10698,5.25818 12.06697,0.0365 -9.2196,4.09411 6.91837,8.09941 16.67607,15.21104 -8.9493,-7.22469 -2.02896,9.80003 -4.41388,3.15844 -1.89321,-20.99847 -16.24079,-16.86322 -15.07718,-10.49463 -21.14524,-0.12112 -4.96036,9.20771 11.44866,1.40534 14.58251,7.64532 0.79106,2.77491 7.46468,14.6022 -6.24637,13.04076 -3.24139,0.42276 -8.87581,-16.76556 -27.94452,-35.91885 -47.02704,-19.18385 -24.81533,11.69194 18.62856,16.56619 27.47552,11.6731 8.34471,-8.31992 -1.26369,5.10764 8.95574,5.50694 -10.2472,-2.03225 -26.46199,-3.10019 -8.85903,5.64998 2.1329,4.9425 -35.57582,-20.59976 -18.95367,-0.47581 5.41368,11.38281 28.90014,4.578 27.49801,6.19076 -3.20058,3.32916 27.72812,12.63704 6.40916,7.22084 -20.67821,-10.08167 16.00723,20.83719 -3.937,5.82377 -5.64303,-12.46074 -37.44573,-14.493 -18.9705,-3.37107 -1.15344,0.82378 23.28633,14.05909 8.16814,8.1269 2.53129,15.26545 -10.38822,-14.30633 -9.71569,1.85039 2.79665,3.6008 -18.67551,22.74428 -26.53424,31.42255 -11.20782,14.89441 25.07437,-3.83266 28.36811,-10.85625 2.41717,-10.28546 0.98446,-19.56585 8.1627,-15.6957 7.9992,-3.55947 -16.53018,25.54918 0.55332,12.91119 9.52123,-12.25255 5.24644,-0.44064 10.61761,-0.54733 14.33753,1.36418 -26.65092,6.80115 -31.4509,15.88276 12.1954,6.33687 25.11435,-12.35059 28.541,-5.09208 11.58746,-8.19823 3.30419,4.23445 8.91781,6.83653 -11.81365,-11.55199 -25.5875,2.97696 -7.75146,5.20396 10.12868,-3.78171 0.10401,5.31989 6.87415,8.77804 -10.28432,-4.98249 -12.93015,-3.10288 -6.29608,-0.13265 -21.37129,6.38379 2.19843,7.03724 8.18482,6.74252 -15.30759,-0.74188 -2.18332,12.8364 -0.77435,15.18663 11.65382,-1.05909 -30.61119,13.25992 -6.75191,10.10186 9.19849,2.17472 26.29009,-24.31187 15.08019,-5.12916 11.40843,-2.50769 11.96045,-0.77188 9.90107,2.45077 5.45711,3.98434 -18.19771,-2.75953 -22.90305,4.80024 -19.79247,-2.16875 -12.10546,11.02251 0.29815,15.92003 13.11312,-3.8154 1.4345,2.48322 7.64373,5.89437 -11.3383,-10.04558 -16.23289,0.30568 -16.74611,2.20194 11.88255,-15.71359 -32.96392,-33.49263 -24.22127,-15.49963 2.65477,9.9068 30.02458,18.04635 14.72165,18.73995 0.81758,18.04483 -9.92439,-26.08125 -10.73172,-3.60425 -0.92394,15.31297 7.88565,30.76815 -2.70974,20.26622 -14.72154,24.20055 6.90344,-16.20461 -1.31087,-25.66988 -3.89546,-17.19388 -9.39624,-14.25442 -17.01912,-1.58514 0.4251,11.91907 17.80332,20.63631 5.24211,21.59376 -4.53834,12.72655 -2.5913,-34.95782 -14.67005,-11.54223 -3.63674,4.97754 -9.51735,18.71223 -5.69746,4.01142 -12.98973,2.48736 21.22095,-15.64395 7.42247,-16.06614 35.15394,-10.12549 -8.01765,-35.06351 -25.55627,-27.99859 -14.65365,5.33757 -30.36522,17.69201 -34.22919,32.51162 -1.62375,48.57373 -2.09961,97.2684 -1.29852,145.86683 -4.05856,14.71411 22.14151,40.26729 -7.04031,33.8445 l -5.12763,-0.10764 z m -73.26796,-156.387 c 4.30486,-13.95511 -11.92481,-18.32754 -5.9419,-1.72412 0.0284,1.89122 6.69853,11.64029 5.9419,1.72412 z m -53.406158,-3.6231 c 13.322378,-1.2715 18.469528,-22.78079 2.124242,-12.64068 -1.272221,1.82783 -8.583321,14.83576 -2.124242,12.64068 z m 32.885228,-7.37258 c -5.42803,-4.85246 24.0805,-8.5315 19.91465,-23.28888 -10.25965,1.33724 -27.3668,7.66458 -16.75376,17.78444 -8.02473,-13.67261 -12.01459,14.43656 -3.16089,5.50444 z m 91.57589,-22.78059 c 2.04629,-10.95811 1.61217,-38.31136 -7.57723,-13.35737 -6.02436,4.71258 4.87574,14.93424 7.57723,13.35737 z m 118.28405,-9.4482 c 17.23469,-5.14494 19.55051,-27.65161 -1.11509,-23.3962 -10.13976,1.4509 5.67187,14.76888 -7.05589,3.87553 -24.22946,-3.87225 -39.68799,15.68379 -6.47749,18.34489 4.81579,-0.29933 10.02887,3.36664 14.64847,1.17578 z m -97.73053,-5.77609 c 17.02011,-14.72696 36.16419,-31.33258 33.87087,-56.01068 2.73345,2.78067 -0.26855,10.01554 6.65731,4.45035 -8.30606,7.73375 -4.86774,21.78323 0.0615,4.75121 3.943,-11.27573 5.85142,-6.82576 2.88601,0.97008 26.40493,-14.32036 -35.69425,30.33732 -0.98235,18.12957 13.56643,-5.99507 35.60294,-41.57613 20.03408,-45.95592 -13.96958,0.42083 12.26204,22.24559 -5.73896,6.76539 -18.53017,-22.38381 -38.86212,-0.89318 -46.29188,18.28682 -9.84004,8.93723 -15.59688,25.95945 -0.24266,13.58271 2.44276,-7.06261 18.13715,-3.64541 3.87541,2.3783 14.66311,5.08112 -25.87033,0.36489 -17.43473,15.22143 5.5527,-4.02413 24.45127,-8.8113 8.40318,0 12.57548,5.24299 -18.22084,0.2305 -9.87568,15.2741 -0.40036,4.29521 -0.0615,8.55657 4.7778,2.1601 z m 59.28498,-9.91 c 12.63094,-2.36657 21.11945,-25.05318 25.73475,-18.8826 16.15862,-5.0392 -27.59087,18.7065 -2.33833,13.00962 18.7044,-0.0807 29.83631,-29.10001 2.54157,-24.17923 -11.52411,-5.56423 -47.52071,17.68278 -22.81332,14.96844 10.75422,-4.34289 -5.07382,5.30181 1.24488,9.41668 -2.59923,-11.76461 -28.28686,-7.95925 -16.22928,0.34356 -22.49351,-3.39856 5.40249,10.51558 11.85973,5.32353 z m -34.60516,-2.40349 c 20.95718,-5.08957 -3.77108,-12.846 -4.75766,1.75407 l 0.81136,-0.0576 3.94632,-1.69678 z m 14.01675,-9.78772 c -3.8587,-4.40325 -9.22728,2.41636 0,-1.9e-4 z m -106.55214,-8.57869 c -1.17517,-17.04701 -35.94331,-33.09011 -35.85384,-15.10453 10.13237,7.14335 25.73966,10.01746 35.85384,15.10453 z m 52.61096,-3.54005 c 0.69755,-22.25059 2.43324,-46.17932 -10.85804,-65.51062 -7.46996,-8.28608 -13.17071,25.11066 -8.02433,34.01251 5.7858,8.87994 10.53393,28.32294 18.88237,31.49811 z m -99.17129,-5.19415 c 25.82543,0.33009 -6.64309,-17.355 -11.33692,0.45562 3.7815,0.44467 7.5923,0.10574 11.33692,-0.45562 z m 113.94612,-9.50129 c 11.71871,-16.91436 28.58377,-35.68546 24.48582,-57.67612 -2.96366,-14.75965 -2.33203,-44.41813 -8.1855,-50.914 -2.26633,7.04243 -12.69734,21.44084 -2.67236,20.19181 -16.16144,9.68411 -12.48351,40.71774 -17.48832,59.02416 1.34696,5.734 -1.23928,32.15675 3.86036,29.37415 z m 72.07498,-8.2359 c 13.68837,-3.83015 12.36628,-26.54041 2.05723,-12.26023 0.004,2.48923 -10.25461,20.01282 -2.05723,12.26023 z m 0.65217,-15.91256 c -1.37406,-5.46945 -2.08571,4.91597 0,0 z m -13.45829,-2.4948 c 9.95126,-2.32197 16.63068,-18.46926 23.31557,-9.40112 -13.89808,3.92416 -10.6947,8.9628 -4.18941,6.80712 6.42796,6.42608 12.62475,-5.77455 5.90385,-11.1898 -7.09033,-25.60282 -37.54259,-26.82013 -48.92726,-3.40932 -21.03546,25.18986 28.60428,9.91134 31.89656,-5.09054 -6.26951,9.76774 9.61518,5.77993 -2.54039,11.5939 -11.18616,1.0539 -24.30172,13.89204 -5.45888,10.68899 z m 23.41498,-2.51999 c 0.87895,-2.33235 1.43869,1.67968 0,0 z m -123.6121,1.25672 c 11.51341,-20.61243 -1.95009,-43.69989 -21.00078,-49.8649 18.25847,2.257 -20.74299,-16.74729 -3.6717,3.56928 7.88013,14.44013 11.08036,38.94906 24.67248,46.29562 z m 30.06346,-11.80305 c 0.62786,-14.45878 11.85851,-42.10366 9.15168,-48.95884 -11.75222,5.80473 -26.53486,21.52505 -17.039,34.64674 1.92829,2.2566 5.87861,19.47952 7.88732,14.3121 z m 47.2497,-15.5348 c 14.62827,-10.69303 26.87676,-25.21986 31.90137,-42.3678 -5.29967,-8.40163 -13.59947,-31.53328 -2.78853,-16.52336 7.18623,-24.03923 -2.49942,30.75586 9.53549,5.97067 13.08599,-9.91177 -3.66666,-30.86274 1.37208,-34.62453 1.90829,9.87661 10.01827,-7.4585 3.96479,9.652 11.19342,21.9581 20.97654,-28.57507 3.80616,-13.30745 7.3022,9.36969 -16.49134,-6.63138 -21.1476,5.12439 -17.47369,3.35152 -24.45771,17.42436 -31.74991,32.23165 -11.54008,15.57016 2.43225,37.0831 1.13963,55.00235 l 0.67467,1.27383 z m -67.8787,-4.80601 c 1.88155,-11.90918 -24.42735,-20.60187 -8.12578,-6.66562 2.39931,1.2402 4.47192,10.87239 8.12578,6.66562 z m 10.02059,-19.01294 c 15.10556,-15.14838 -10.47645,-28.41887 -9.06776,-36.9006 5.31263,10.82927 16.1405,9.93609 3.71481,0.29679 -9.50554,-10.38792 -4.44507,-7.14053 -0.72167,-9.69637 2.11573,-11.57094 1.13224,22.6706 10.82522,3.52837 -0.87106,-12.81537 -30.36854,-11.3777 -17.17692,-18.43226 17.4803,19.29295 0.32364,-28.22012 -2.70022,-2.41118 -8.94905,21.04691 6.24108,43.12469 8.00661,64.55458 3.0946,11.77442 2.97904,8.25513 7.11993,-0.93933 z m -26.42687,1.89499 c -1.69406,-6.84384 -11.71436,-2.78087 -0.87058,0.60462 z m 12.13405,-2.83258 c -2.65138,-9.91289 -5.37517,-46.51942 -14.66017,-21.80515 -1.87527,6.88343 4.0551,26.46351 7.2027,11.3457 1.79782,5.29028 -1.49359,12.57783 7.45747,10.45945 z m 25.64239,-6.8248 c 17.79972,-1.50473 4.15003,-36.5385 -4.3572,-14.1458 1.16224,2.38772 -2.24087,20.41904 4.3572,14.1458 z m -43.82918,-0.56349 c 5.22186,-5.81626 -4.73103,-25.24921 -9.42221,-7.13047 -9.28763,9.38497 4.03742,6.33323 9.42221,7.13047 z M 309.05179,336.331 c 12.91167,-2.99522 41.85082,-32.90545 13.4816,-20.34187 -7.97762,-0.60947 -24.33132,21.68876 -13.4816,20.34187 z m -160.53626,-2.8991 c 18.26445,-6.418 -1.73414,-28.84386 -3.93001,-10.22586 1.06198,2.01034 -0.38243,19.16732 3.93001,10.22586 z m -75.1209,0.34739 c -1.142321,-1.65006 -0.56015,1.69351 0,0 z m 148.92779,-7.19796 c 13.83545,-10.16651 6.41489,-50.32494 -0.32951,-32.43235 14.14786,-0.15725 -14.02888,5.35992 -6.63425,16.00823 -3.57499,3.56535 4.22897,24.27726 6.96376,16.42412 z m -16.6461,-8.67107 c 4.18521,-18.00679 -15.17396,-2.06436 -3.50749,4.05847 l 1.55417,-1.64084 z m 39.97083,-3.35287 c 13.10094,-21.5237 21.58232,-45.69586 25.83239,-70.47638 -7.15844,-23.38692 -21.36183,18.56935 -23.09964,29.33547 -3.79036,10.03535 -15.81553,45.48147 -4.30471,43.81665 z m -33.39285,-5.32655 c 1.43851,-8.57261 3.00871,-29.15229 5.92716,-17.18814 2.42126,-15.71195 10.64573,3.391 5.91035,-14.38242 1.45428,-15.43146 -28.50842,-40.39849 -33.53539,-18.67047 -8.71541,9.38285 -5.31912,25.03901 4.70415,17.0045 -12.64319,8.51413 14.86072,39.27444 7.12915,14.24625 -3.26442,-10.45109 2.67017,-23.55827 2.23164,-4.92483 4.81679,4.14664 10.41309,-28.50521 8.45778,-5.02129 18.86902,-6.11704 -19.36293,14.04138 -4.02556,16.48223 -5.03625,2.13889 0.36963,21.50282 3.20072,12.45417 z m 26.45642,-22.63601 c 3.85718,-12.98673 10.52943,-25.24783 8.54276,-39.19172 -0.62903,-8.49963 3.06653,-32.13924 -9.72048,-24.03353 -4.58509,9.84388 14.6048,-2.76048 2.94662,6.79309 -14.71904,15.68624 -12.15809,42.94916 -4.92635,62.47988 1.70394,2.79136 2.31438,-7.45991 3.15745,-6.04772 z m -65.01391,0.35676 c 8.72062,-19.61778 17.09567,-38.76456 9.06268,-60.18847 -7.92965,-8.34992 -19.30607,-20.97813 -21.11,-0.84401 -2.69895,15.65211 5.59183,15.86266 12.54178,3.93421 -2.50594,-14.35445 12.66922,8.53334 -3.60838,8.70439 -13.75761,8.81384 -10.39979,28.87623 -3.71843,41.29722 2.53728,0.63676 4.50052,12.2183 6.83235,7.09666 z m 126.19182,-6.43776 c -1.18724,-1.71552 -1.78051,1.66061 0,0 z m -73.73842,-24.43264 c 6.85585,-9.59681 -9.349,-28.29196 -2.95239,-14.46518 -17.58083,-23.07941 3.12149,30.11088 2.95239,14.46518 z m -9.63614,-2.77906 c 2.42429,-12.44934 -14.17733,-28.77993 -13.48648,-10.07243 1.55624,3.7884 11.66693,12.20252 13.48648,10.07243 z m -58.5453,-5.05174 c 6.46676,-14.74182 -9.63203,-26.29385 -13.31815,-34.27307 7.77512,8.06613 17.38551,13.69431 8.19945,-0.6763 -3.82891,-4.28517 -18.5547,-15.79314 -3.90461,-8.08628 -13.36368,-19.21052 -17.30177,15.19305 -6.53755,23.55111 4.47434,5.00454 11.58586,20.01684 15.56086,19.48454 z m 96.39287,-3.05388 c 11.74423,-5.33678 3.01166,-43.18818 10.35152,-16.55861 8.95612,-9.86718 0.87159,-27.48198 0.5833,-27.77754 5.98331,-6.01499 7.23837,13.10089 9.19428,-2.86392 -16.66394,-8.52372 -33.30137,18.58049 -23.8465,35.59822 1.60348,1.59549 -1.3263,22.6257 3.7174,11.60185 z m -54.51943,2.00967 c -3.93873,-7.95607 -7.06836,3.58138 0,0 z m -0.20307,-5.46044 c -2.13221,-2.52966 0.38326,4.98652 0,0 z m -7.74487,-1.6442 c 2.11869,-13.04378 11.13385,-26.24464 6.65455,-38.68756 9.94549,13.95403 -2.05067,-25.20564 -3.13856,-19.8681 -15.37933,15.81877 -8.50692,39.0109 -5.57437,58.3112 l 0.79156,3.13933 z m 38.28411,0.92639 c 6.77541,-11.73439 5.71403,-27.54334 -10.41561,-16.26338 -7.79047,17.03129 12.49649,-0.89185 9.93495,17.6555 l 0.48066,-1.3923 z m 43.55463,-3.70545 c 7.48133,-6.48685 9.40993,-28.65658 -2.92838,-13.94133 -0.59827,2.78522 0.1763,14.99531 2.92838,13.94133 z M 203.84404,230.793 c 10.53344,-6.54175 -6.19246,-20.94374 -3.63876,-2.00796 -1.36639,2.3951 0.48022,7.14797 3.63876,2.00796 z m 12.59472,-3.19725 c 0.0623,-8.76127 -5.65491,10.16333 0,0 z m -55.30909,-9.61094 c 13.71924,-13.33609 -23.34825,-24.9361 -4.81823,-4.3331 2.24809,1.06246 2.68174,11.46317 4.81823,4.3331 z m 84.46089,-1.15795 c 3.28477,-21.85193 -17.14212,5.00127 0.18898,2.57636 z m -10.36324,-0.58837 c -2.42306,-5.34803 -6.94816,7.22254 -0.14708,0.70094 z m 24.20448,-18.88365 c 9.64018,-10.38294 7.72763,-12.21214 10.60057,-6.73949 8.62837,-9.12372 -3.87257,-27.62538 -11.0091,-8.23041 -2.55338,2.99015 -11.46152,23.68159 0.40853,14.9699 z m -108.2625,0.13437 c -5.10491,-8.08037 -4.39075,1.02448 0,0 z m 127.60647,-1.79882 c -3.47783,-1.58489 -1.17444,4.38998 0,0 z m -71.28882,-0.29258 c 7.29815,-11.38904 14.29741,-24.33685 9.40661,-37.99705 -5.75248,-17.85567 -7.14439,21.76107 -14.96109,24.89834 0.55528,3.63105 1.44495,12.90494 5.55448,13.09871 z m -1.39974,-26.13783 c 5.32509,-9.96646 8.92337,-36.14176 -6.67237,-16.05011 -0.51428,8.86682 0.079,16.77425 6.27994,7.56873 -2.36807,6.34475 -9.06185,21.37803 0.39243,8.48138 z m 66.01075,3.79659 c -1.11807,-3.21971 -1.11811,3.21969 0,0 z m -130.38459,221.8622 c 1.66203,-1.7635 0.5751,1.82597 0,0 z m 12.28965,-200.44022 c 3.73307,-6.96303 2.80994,1.54469 0,0 z m 74.85296,-46.06783 c -1.32485,-6.42418 1.71105,3.5524 0,0 z" style="fill:#000000;" />
<rect style="fill:#000000;" width="9" height="123" x="381.70432" y="558.47894" />
<rect style="fill:#000000;" width="9" height="123" x="558.27246" y="558.16272" />
<rect style="fill:#000000;"  width="233.5" height="35.5" x="358.20432" y="562.97894" />
<rect style="fill:#000000;" width="12.058995" height="52" x="362.20432" y="637.97894" />
<rect style="fill:#000000;" width="12.010275" height="52" x="575.70428" y="637.97894" />
<rect style="fill:#000000;" width="248.41161" height="5.9508009" x="350.29269" y="633.52814" />
<path style="fill:#000000;" d="M 356.27746,626.41231 H 592.8764 l 5.81287,7.1541 H 350.27708 Z" />
<rect style="fill:#000000;" width="48.477169" height="4.2426405" x="634.72064" y="674.94556" ry="1.7225872" />
<path style="stroke:#000000;stroke-width:3;" d="m 623.995,596.99971 12.37989,80.46022" />
<path style="stroke:#000000;stroke-width:3;" d="m 642.02898,596.56834 6.01041,82.53914" />
<path style="stroke:#000000;stroke-width:3;" d="m 657.74193,596.53333 1.41421,82.57415" />
<path style="stroke:#000000;stroke-width:3;" d="m 673.14268,596.73328 -3.53753,81.78706" />
<path style="stroke:#000000;stroke-width:3;" d="m 690.46832,597.19283 -8.84388,80.46367" />
<rect style="fill:#000000;" width="69.372345" height="4.2426405" x="622.6239" y="596.02246" ry="2.035785" />
<path style="stroke:#000000;stroke-width:3;" d="m 632.94323,661.07947 h 50.42483" />
<path style="stroke:#000000;stroke-width:3;" d="m 629.49806,639.15563 h 56.06239" />
<path style="stroke:#000000;stroke-width:3;" d="m 626.05288,615.979 61.69995,0.3132" />



<style>
.line { stroke-linecap: round; stroke-width: 11px; stroke: blue; } 
.box { stroke-width:0; stroke:green; height: 100%; width: 100%; fill: none; } 
.button { width: 9%; height: 12%; } 
.white { fill: white; }  
.blue { fill: blue; } 

</style>  



<!--1-->
<svg x="7%" y="70%">

<svg width="18%" height="24%">
<rect class="box"/>
</svg> 

<svg width="18%" height="24%">
<g transform="scale(1, 1)">
<svg>
<line class="line" x1="25%" y1="50%" x2="65%" y2="50%"/>
</svg>
</g>
</svg> 

<svg class="button" x="0%" y="6%" width="9%" height="12%">
<g transform="scale(1, 1)">
	<circle class="blue" cx="50%" cy="50%" r="45%"/>
	<circle class="white" cx="50%" cy="50%" r="35%"/>
	<circle class="blue" cx="50%" cy="50%" r="20%"/>

</g>
</svg>

</svg> 

<!--2-->
<svg x="14%" y="52%">

<svg width="18%" height="24%">
<rect class="box"/>
</svg>

<svg width="18%" height="24%">
<g transform="scale(1, 1)">
<svg>
<line class="line" x1="75%" y1="75%" x2="45%" y2="45%"/>
</svg>
</g>
</svg>

<svg class="button" x="9%" y="12%" width="9%" height="12%">
<g transform="scale(1, 1)">
	<circle class="blue" cx="50%" cy="50%" r="45%"/>
	<circle class="white" cx="50%" cy="50%" r="35%"/>
	<circle class="blue" cx="50%" cy="50%" r="20%"/>

</g>
</svg>

</svg> 

<!--3-->
<svg x="31%" y="36%">

<svg width="18%" height="24%">
<rect class="box"/>
</svg>

<svg width="18%" height="24%">
<g transform="scale(1, 1)">
<svg>
<line class="line" x1="75%" y1="25%" x2="45%" y2="55%"/>
</svg>
</g>
</svg>

<svg class="button" x="9%" y="0%" width="9%" height="12%">
<g transform="scale(1, 1)">
	<circle class="blue" cx="50%" cy="50%" r="45%"/>
	<circle class="white" cx="50%" cy="50%" r="35%"/>
	<circle class="blue" cx="50%" cy="50%" r="20%"/>

</g>
</svg>

</svg>


<!--4-->
<svg x="38%" y="59%">

<svg width="18%" height="24%">
<rect class="box"/>
</svg>

<svg width="18%" height="24%">
<g transform="scale(1, 1)">
<svg>
<line class="line" x1="50%" y1="25%" x2="50%" y2="65%"/>
</svg>
</g>
</svg>

<svg class="button" x="4.5%" y="0%" width="9%" height="12%">
<g transform="scale(1, 1)">
	<circle class="blue" cx="50%" cy="50%" r="45%"/>
	<circle class="white" cx="50%" cy="50%" r="35%"/>
	<circle class="blue" cx="50%" cy="50%" r="20%"/>

</g>
</svg>

</svg>


<!--5-->
<svg x="60%" y="71%">

<svg width="18%" height="24%">
<rect class="box"/>
</svg>

<svg width="18%" height="24%">
<g transform="scale(1, 1)">
<svg>
<line class="line" x1="75%" y1="50%" x2="35%" y2="50%"/>
</svg>
</g>
</svg>

<svg class="button" x="9%" y="6%" width="9%" height="12%">
<g transform="scale(1, 1)">
	<circle class="blue" cx="50%" cy="50%" r="45%"/>
	<circle class="white" cx="50%" cy="50%" r="35%"/>
	<circle class="blue" cx="50%" cy="50%" r="20%"/>

</g>
</svg>

</svg>


<!--6-->
<svg x="54%" y="10%">

<svg width="18%" height="24%">
<rect class="box"/>
</svg>

<svg width="18%" height="24%">
<g transform="scale(1, 1)">
<svg>
<line class="line" x1="25%" y1="75%" x2="55%" y2="45%"/>
</svg>
</g>
</svg>

<svg class="button" x="0%" y="12%" width="9%" height="12%">
<g transform="scale(1, 1)">
	<circle class="blue" cx="50%" cy="50%" r="45%"/>
	<circle class="white" cx="50%" cy="50%" r="35%"/>
	<circle class="blue" cx="50%" cy="50%" r="20%"/>

</g>
</svg>

</svg>


<!--7-->
<svg x="71%" y="27%">

<svg width="18%" height="24%">
<rect class="box"/>
</svg>

<svg width="18%" height="24%">
<g transform="scale(1, 1)">
<svg>
<line class="line" x1="50%" y1="75%" x2="50%" y2="35%"/>
</svg>
</g>
</svg>

<svg class="button" x="4.5%" y="12%" width="9%" height="12%">
<g transform="scale(1, 1)">
	<circle class="blue" cx="50%" cy="50%" r="45%"/>
	<circle class="white" cx="50%" cy="50%" r="35%"/>
	<circle class="blue" cx="50%" cy="50%" r="20%"/>

</g>
</svg>

</svg>


<!--8-->
<svg x="73%" y="1%">

<svg width="18%" height="24%">
<rect class="box"/>
</svg>

<svg width="18%" height="24%">
<g transform="scale(1, 1)">
<svg>
<line class="line" x1="25%" y1="25%" x2="58%" y2="27%"/>
</svg>
</g>
</svg>

<svg class="button" x="0%" y="0%" width="9%" height="12%">
<g transform="scale(1, 1)">
	<circle class="blue" cx="50%" cy="50%" r="45%"/>
	<circle class="white" cx="50%" cy="50%" r="35%"/>
	<circle class="blue" cx="50%" cy="50%" r="20%"/>

</g>
</svg>

</svg>


</svg> 

