<svg xmlns="http://www.w3.org/2000/svg" viewBox="0 0 512 384">
<rect y="0" x="0" height="384" width="512" style="fill:none;" />
<path style="fill:#000;" d="m 44.772043,283.75961 c -14.923315,-4.43066 -19.350564,-6.8061 -30.605176,-16.42123 -11.4910659,-9.81713 -24.941478,-16.48477 -37.964648,-18.81985 -11.425765,-2.04866 -17.810004,-1.36786 -39.630312,4.22613 -14.121991,3.62041 -17.400309,3.88505 -39.775577,3.21108 -27.18045,-0.81874 -42.43508,-3.65879 -57.14146,-10.63843 -17.35836,-8.23826 -27.29697,-19.72759 -27.29697,-31.55616 0,-11.0971 14.58607,-25.87954 32.38698,-32.82301 12.78609,-4.98738 32.46669,-7.28167 62.576799,-7.29492 32.575607,-0.0147 51.273036,-1.73172 68.68601,-6.30881 7.291903,-1.91671 21.1061875,-3.64273 36.007996,-4.49898 28.10248,-1.61476 34.257218,-3.48891 49.360981,-15.0307 21.125412,-16.14334 17.226928,-14.77998 40.969904,-14.32788 19.81556,0.37729 21.61528,0.1637 27.62114,-3.27814 3.65635,-2.09537 8.02489,-6.44559 10.13887,-10.09635 9.15852,-15.81627 27.86557,-28.002984 42.98565,-28.002984 15.74081,0 32.74253,12.129854 41.65577,29.719304 8.54308,16.85897 16.03542,22.10086 38.42944,26.88645 16.37511,3.49939 19.796,5.13702 31.16682,14.92019 4.71847,4.05966 10.83774,8.32831 13.59838,9.48586 7.29438,3.05861 17.68178,2.58223 26.23978,-1.20339 15.12051,-6.6885 36.75527,-1.86574 51.00277,11.36945 11.50093,10.6838 24.27323,15.26033 42.99094,15.40447 4.89073,0.0376 11.44933,0.98199 14.5747,2.09855 6.46147,2.30842 20.05467,12.89007 20.05467,15.61164 0,0.99251 -3.02,5.23657 -6.71111,9.43123 l -6.71111,7.62667 -28.34368,2.0034 c -29.40897,2.07873 -42.51637,3.89663 -55.6164,7.71354 -10.71723,3.12264 -19.80874,2.80286 -33.54361,-1.17986 -8.48362,-2.45999 -16.18037,-3.44599 -27.39646,-3.5096 -17.98331,-0.10208 -24.78253,1.60591 -36.51231,9.17171 -8.95022,5.77292 -16.83433,7.64898 -32.12006,7.64305 -18.70306,-0.007 -26.63955,-1.88328 -36.87071,-8.71537 -7.31363,-4.88387 -11.49228,-6.56325 -17.55992,-7.05731 -7.50158,-0.61081 -8.55708,-0.21088 -18.2365,6.90969 -14.99769,11.03292 -63.526966,34.34409 -77.076205,37.02376 -20.32752,4.02024 -28.620478,4.0818 -41.335382,0.3068 z" />
</svg>
