<svg xmlns="http://www.w3.org/2000/svg" viewBox="0 0 512 384">
<rect y="0" x="0" height="384" width="512" style="fill:none;" />
<path style="fill:#000000;" d="m 126.82316,53.442642 c 9.0717,5.530145 16.44485,18.696356 24.79412,27.20342 11.43941,13.28558 20.67917,28.413908 32.67181,41.180698 14.2876,-0.88842 18.06282,-16.73655 27.01029,-25.235878 7.04804,-8.29918 17.57338,-14.80835 26.80262,-18.2897 10.66872,0.23036 18.58772,-7.886261 29.07096,-10.371186 8.73506,-1.586195 16.90254,-1.890836 26.648,-3.732983 8.40809,0.110271 16.52991,0.443226 25.20967,1.185662 10.13634,-1.890361 19.58407,-0.114527 29.54718,1.052923 10.78656,2.551427 29.40381,-5.602203 33.99428,-4.573211 -9.53674,9.152268 -22.17454,14.935249 -30.05418,25.682345 -8.41723,7.25481 -16.567,15.978558 -23.60151,23.556208 -8.58155,5.72861 -15.21615,14.07148 -24.93627,17.77472 -3.319,5.82674 -13.12199,6.03513 -17.69066,9.90154 -10.69502,4.10135 -21.19167,6.97767 -32.68403,7.39696 -10.82471,-1.42303 -22.15253,-0.23891 -32.23841,-4.03502 -14.41581,-0.53682 -20.3879,-23.47637 -34.60297,-17.5215 9.6743,11.41893 22.91641,19.55098 33.5845,30.14713 9.11077,11.68485 24.71323,11.52472 38.11331,12.47797 10.89259,1.51971 22.82976,4.22622 31.37387,10.38708 8.83122,4.72049 17.17464,11.38569 22.42796,19.58231 4.79892,7.05812 13.23769,12.71593 13.81405,21.93893 6.06918,7.47718 8.98494,17.55603 14.89968,25.858 4.32017,8.89127 6.72859,18.98115 11.96983,27.80687 3.68049,13.40618 11.09399,25.39951 19.33202,36.57889 -9.90317,-3.55378 -18.65319,-11.58269 -28.86599,-14.47853 -8.28543,-4.08358 -16.49793,-4.98282 -25.17479,-6.7427 -7.20285,-0.0595 -14.07614,-4.69825 -19.91973,-6.47318 -7.30126,-6.45986 -15.55476,-6.42426 -23.46307,-12.53798 -5.99358,-1.89172 -12.53648,-8.16298 -16.38306,-12.6457 -5.81555,-3.24452 -11.35902,-10.84969 -13.13019,-19.29726 -3.88727,-9.40608 -6.03683,-19.96394 -9.78559,-29.77564 -5.40193,-17.70344 -2.38544,-40.02741 -18.27108,-52.92936 -10.2433,-9.85377 -20.71489,-20.00487 -33.07978,-27.10269 0.27097,10.83531 19.49799,14.98883 20.1773,28.80572 3.47939,9.40678 3.15984,18.27343 4.62124,27.22761 -0.84624,9.75286 0.77616,20.68972 -2.21949,29.89429 -0.63913,11.26941 -2.59125,21.26621 -7.01052,31.60238 -3.11461,7.08537 -5.48295,15.22309 -11.13986,20.93914 -4.44752,7.51286 -8.80651,14.00331 -13.73073,22.24212 -6.90551,6.84025 -11.74772,15.01485 -17.48752,22.62918 -5.05059,8.02326 -8.16602,18.84144 -14.81226,25.61469 3.15853,-12.11752 4.0152,-24.93099 2.54994,-37.35108 -2.55181,-10.01001 -4.43559,-20.23389 -3.0659,-30.62319 -0.29915,-9.96748 1.28833,-19.03681 1.61903,-28.96104 0.30001,-11.46188 2.72887,-22.50601 1.88351,-34.08235 1.09029,-7.50559 0.11716,-14.48748 -0.23163,-21.90628 -0.0299,-12.24445 6.33707,-24.58002 14.60383,-34.29625 5.70874,-10.05121 28.05097,-16.1642 18.61133,-29.89058 -15.78558,-22.532198 -32.42776,-44.718719 -52.32222,-63.790223 -0.58259,-0.819877 0.0129,-1.507227 0.57102,-2.023275 z" />
</svg>
