<svg xmlns="http://www.w3.org/2000/svg" viewBox="0 0 512 384">
<rect width="512" height="384" id="P005WIImgRct7" fill="#fff"/>

<path style="fill:#000000;" d="m 289.12954,301.35776 c -12.02403,-2.66893 -24.3568,-8.02553 -29.83269,-12.95754 -5.92329,-5.33485 -7.09907,-9.18 -7.73716,-25.30187 l -0.55488,-14.02019 -3.70307,-7.46664 c -4.40633,-8.88436 -6.01946,-10.46166 -17.70859,-17.31549 -16.10769,-9.44452 -42.0211,-26.18927 -58.02348,-37.4936 -46.52043,-32.86282 -77.709041,-63.04133 -89.723024,-86.817497 -5.015504,-9.92583 -5.10318,-11.97945 -0.249072,-5.83863 8.695484,11.000527 26.103966,26.489347 42.352016,37.681707 22.99023,15.83672 59.13446,33.9277 89.2426,44.66786 l 9.5648,3.41196 -1.28215,-3.06857 c -1.74185,-4.1688 -1.61163,-7.2518 0.4894,-11.59208 2.18128,-4.50585 9.91587,-13.02088 11.82744,-13.02088 0.83071,0 3.1508,3.11153 5.6794,7.61674 4.99773,8.9047 17.10076,24.33384 23.84382,30.3964 13.69113,12.30948 44.90234,21.47262 92.96116,27.29196 18.10958,2.19286 44.67725,4.28221 64.71357,5.08924 8.26395,0.33266 14.9114,0.89751 14.77227,1.25477 -0.48646,1.24841 -10.14973,9.08753 -15.92059,12.9152 -18.01803,11.95088 -38.53603,18.0807 -63.64645,19.01455 -19.83166,0.73756 -39.7773,-1.66291 -57.17495,-6.8809 -3.17748,-0.95297 -5.86382,-1.64619 -5.96961,-1.54036 -0.10586,0.10587 6.21571,11.47247 14.0478,25.25928 7.83209,13.78684 14.245,25.55494 14.25103,26.15141 0.0343,3.33703 -21.14324,5.02171 -32.21949,2.56317 z" />
</svg>
