<svg xmlns="http://www.w3.org/2000/svg" viewBox="0 0 512 384">
<rect width="512" height="384" id="P005WIImgRct1" fill="#fff"/>

<rect y="315" x="-5" height="104" width="520" style="fill:#808080;" />
<path style="fill:#000000" d="m 228.82649,324.17928 c -0.92857,-0.49089 -1.95913,-1.21889 -2.29013,-1.61775 -0.84172,-1.01419 -0.46519,-4.77711 1.02702,-10.26379 2.696,-9.91279 5.20899,-30.56278 5.22872,-42.9664 0.014,-8.90744 -0.24825,-11.9758 -2.7905,-32.61843 -1.90392,-15.45993 -2.26212,-17.22674 -3.41783,-16.85903 -3.30187,1.0506 -7.56034,3.13665 -8.6757,4.24984 -1.47981,1.47705 -1.60381,1.41677 -0.78445,-0.38148 0.73374,-1.61035 0.0131,-2.33657 -1.90054,-1.91619 -0.79176,0.17389 -3.18025,1.37344 -5.30777,2.66564 -2.12751,1.29219 -3.94489,2.27275 -4.03865,2.17902 -0.0938,-0.0937 0.46552,-0.77973 1.24281,-1.52442 2.00992,-1.92562 1.88198,-3.04648 -0.35943,-3.14956 -0.97501,-0.0449 0.0353,-0.24712 2.24543,-0.4495 9.89067,-0.90574 11.59868,-1.20513 14.05522,-2.46369 5.29815,-2.71438 5.73614,-7.16438 1.30855,-13.29236 -1.04001,-1.4394 -2.1151,-2.61824 -2.38907,-2.61963 -0.27406,-0.002 -1.20617,0.72788 -2.07139,1.6206 -0.8653,0.89273 -2.66206,2.07413 -3.9928,2.62536 -3.64569,1.51007 -4.54683,2.01078 -4.54683,2.52627 0,0.72031 -2.41454,4.67746 -2.68753,4.4045 -0.1323,-0.13226 0.34727,-1.28615 1.06573,-2.56418 2.54019,-4.51888 0.66266,-4.94925 -5.40457,-1.2388 -3.67939,2.25014 -5.28591,2.57158 -2.00663,0.40151 1.05956,-0.70122 1.82642,-1.43684 1.70414,-1.63473 -0.12227,-0.19788 -1.44833,-0.53953 -2.94679,-0.7592 l -2.72443,-0.39942 4.25453,-0.34008 c 9.55522,-0.76375 11.86755,-1.14248 13.6316,-2.23275 2.27255,-1.40448 2.91516,-2.5712 1.88682,-3.42561 -0.5961,-0.49534 -3.08485,-0.64056 -10.97768,-0.64056 h -10.20679 l -0.35565,2.83636 c -0.32961,2.62831 -2.01526,6.62578 -5.1495,12.21174 -0.55904,0.99639 -1.17141,3.01731 -1.36074,4.49094 -0.18925,1.47362 -0.37209,2.08033 -0.40619,1.34822 -0.0345,-0.73209 -0.2895,-1.75629 -0.56766,-2.27599 -0.41737,-0.77983 -0.63053,-0.84128 -1.22038,-0.35175 -0.93885,0.77919 -2.9242,4.84645 -4.87849,9.99419 -0.8653,2.27944 -1.66051,4.05731 -1.76701,3.95082 -0.10641,-0.10649 0.12943,-1.43061 0.52428,-2.94248 0.78017,-2.9878 0.69742,-3.48466 -0.4255,-2.55275 -0.40258,0.3341 -0.84542,0.49398 -0.98413,0.3553 -0.13863,-0.13869 0.41605,-0.72793 1.23271,-1.30943 0.95742,-0.68174 2.04418,-2.28485 3.05978,-4.51344 0.86629,-1.90089 2.02636,-3.73516 2.578,-4.07616 2.54438,-1.57278 7.28793,-10.95298 7.02095,-13.88359 l -0.14356,-1.5756 -5.90912,3.2788 c -3.25003,1.80333 -6.65371,3.41557 -7.56372,3.58274 -2.77908,0.51056 -4.06709,1.44314 -6.4214,4.64954 -1.24273,1.69261 -2.35859,2.9785 -2.47955,2.85754 -0.12096,-0.12097 0.66225,-1.53374 1.74047,-3.1395 1.07821,-1.60575 1.96045,-3.31175 1.96045,-3.79113 0,-1.53629 -2.99142,-1.07168 -8.16516,1.26816 -2.60215,1.17686 -4.81587,2.05514 -4.91924,1.95174 -0.10338,-0.1034 0.88371,-0.87573 2.19358,-1.71629 2.13063,-1.3672 2.58136,-1.90062 2.45703,-2.90782 -0.0633,-0.51088 4.71504,-0.98818 8.99142,-0.8982 3.24962,0.0684 4.56121,-0.11634 6.3057,-0.88799 1.28621,-0.56893 2.1202,-1.22173 2.0045,-1.5689 -0.32303,-0.96911 -2.85986,-2.21868 -5.53358,-2.72576 -1.37339,-0.26045 -5.72637,-1.75082 -9.67323,-3.31191 -7.57621,-2.99659 -8.95979,-3.26293 -11.12724,-2.14208 -0.74056,0.38296 -2.28931,0.90757 -3.44165,1.16582 -1.15234,0.25824 -2.50363,0.60047 -3.00284,0.76051 -0.88593,0.284 -0.88568,0.27307 0.01,-0.45672 0.50472,-0.41121 1.29812,-0.74769 1.76323,-0.74769 1.38982,0 4.6465,-1.47632 4.6465,-2.10638 0,-0.32203 -0.47867,-0.81636 -1.06367,-1.0985 -0.99605,-0.48037 -0.96285,-0.51501 0.52271,-0.54497 2.02693,-0.0409 5.76524,0.914 13.86777,3.54233 3.55974,1.1547 8.23977,2.5232 10.40007,3.0411 4.35528,1.0441 9.12472,1.24561 9.64275,0.40741 0.58443,-0.94569 0.28671,-3.27312 -0.81978,-6.4073 l -1.0737,-3.04141 -3.41084,0.31963 c -3.06685,0.28738 -3.5189,0.21898 -4.48174,-0.678 -1.35909,-1.26624 -3.50304,-1.27585 -5.55495,-0.0249 -2.09489,1.27715 -2.45103,0.85318 -0.44662,-0.53168 0.85996,-0.59417 1.63397,-1.13098 1.72009,-1.19291 0.35861,-0.25807 -0.95923,-2.10133 -1.839,-2.57219 -0.52345,-0.28015 -2.9085,-0.72783 -5.30004,-0.99483 -4.95942,-0.5537 -7.01832,-1.31254 -3.65391,-1.34671 2.36081,-0.024 3.60025,-0.57179 3.10539,-1.37248 -0.46897,-0.75888 -0.0263,-0.65174 1.72872,0.41811 0.85125,0.51903 1.88164,0.94449 2.28964,0.94546 0.40808,8.2e-4 1.8869,0.85604 3.28634,1.90015 1.39944,1.04411 3.29925,2.08832 4.22175,2.32046 2.79838,0.70417 6.16854,1.06254 6.16526,0.65561 -0.008,-0.94805 -4.17663,-5.11028 -6.97625,-6.96475 -2.03687,-1.34925 -3.90175,-3.14036 -5.49792,-5.28046 -1.32852,-1.78123 -2.87851,-3.46947 -3.44453,-3.75163 -0.72256,-0.36025 -0.90631,-0.7115 -0.61705,-1.17952 0.56536,-0.91477 -0.32936,-1.88002 -1.74269,-1.88002 -1.34101,0 -3.63747,-1.10421 -5.46118,-2.6259 -1.9035,-1.58825 -4.34583,-2.24966 -6.90204,-1.86919 -2.75221,0.40965 -2.34569,-0.11135 0.70448,-0.90279 2.11034,-0.54757 2.27428,-0.69472 2.13877,-1.9202 -0.13937,-1.25999 0.014,-1.17957 3.03513,1.58849 5.28944,4.84682 7.4052,4.55229 4.69195,-0.65317 -0.92356,-1.77183 -1.59756,-3.30307 -1.49789,-3.40277 0.21908,-0.21908 2.87662,3.8025 4.98269,7.54006 0.84237,1.49501 1.78188,2.71621 2.08782,2.71377 1.21158,-0.01 5.60934,-2.9562 6.43249,-4.30983 0.58648,-0.96431 0.95898,-1.22939 1.13352,-0.80654 0.18292,0.44331 0.61779,0.20981 1.46822,-0.78833 0.66455,-0.78001 1.20929,-1.58301 1.21061,-1.78445 0,-0.58209 -2.26442,-1.28765 -4.1648,-1.29555 -0.95808,-0.004 -2.06111,-0.21345 -2.45111,-0.46548 -0.4924,-0.31826 0.3826,-0.46047 2.86429,-0.4655 4.03142,-0.008 4.25502,-0.1293 6.79472,-3.68098 0.98002,-1.37056 2.71769,-3.13579 3.86149,-3.92275 1.14379,-0.78695 2.07968,-1.5996 2.07968,-1.8059 0,-0.2063 -1.38892,-1.70881 -3.08649,-3.33889 -2.68975,-2.58281 -3.25183,-2.92309 -4.37278,-2.64708 -2.77678,0.68372 -6.82184,0.82098 -8.88484,0.30151 -1.79134,-0.45106 -2.41833,-0.41994 -3.62031,0.17969 -0.79956,0.39888 -1.50898,0.72523 -1.57644,0.72523 -0.0674,0 0.12474,-0.65672 0.42723,-1.4594 0.49831,-1.32261 0.43906,-1.54982 -0.63201,-2.42397 -1.08422,-0.88488 -1.59198,-0.93906 -6.14554,-0.65565 -2.73002,0.16991 -5.65504,0.43393 -6.50004,0.5867 -0.93589,0.16922 -1.53635,0.0834 -1.53635,-0.21963 0,-0.27358 1.01043,-0.62967 2.24543,-0.79131 2.66995,-0.34944 4.37278,-0.98433 4.37278,-1.6303 0,-0.25759 -1.19326,-1.23165 -2.65162,-2.16458 -1.45844,-0.93294 -2.53609,-1.81181 -2.39483,-1.95306 0.14126,-0.14126 1.90967,0.82825 3.92978,2.15444 3.09528,2.03203 4.02041,2.41126 5.88241,2.41126 1.42861,0 2.42663,0.26162 2.82386,0.74027 1.56207,1.88219 6.15475,2.9545 10.1123,2.36103 3.76887,-0.56518 3.70938,-0.6453 -9.09579,-12.25888 -7.0281,-6.37402 -9.27928,-9.0728 -4.24163,-5.08488 1.36953,1.0842 4.04655,3.17716 5.9489,4.65102 l 3.45874,2.67975 2.09259,-0.55968 c 1.15094,-0.30782 2.7854,-0.85364 3.63222,-1.2129 l 1.53963,-0.65325 -3.07277,-0.41171 -3.07277,-0.41171 4.8148,-0.23775 c 4.53154,-0.22376 4.90001,-0.31942 6.2637,-1.6262 1.57061,-1.50508 1.88937,-2.94245 0.70663,-3.18601 -0.47341,-0.0975 0.16854,-0.76434 1.77276,-1.84135 3.76632,-2.52861 3.5447,-3.31958 -1.73957,-6.20686 -3.04121,-1.66166 -3.79812,-2.2345 -2.654,-2.00848 1.54045,0.30432 1.58893,0.26986 1.29097,-0.91731 -0.43446,-1.73118 -0.0493,-1.53566 1.1387,0.57775 0.64737,1.1519 1.58022,2.01456 2.56246,2.36976 0.84952,0.30719 1.92709,0.98123 2.39466,1.49788 1.06014,1.17145 1.46789,1.17079 3.77635,-0.006 1.01996,-0.52 2.1995,-0.94546 2.62114,-0.94546 1.43206,0 1.37881,-0.60555 -0.34078,-3.87793 -1.21964,-2.321 -2.31002,-3.67588 -3.76255,-4.67526 -1.12489,-0.77395 -2.71046,-2.23486 -3.52341,-3.24646 l -1.47809,-1.83928 -1.57685,1.57688 c -0.86728,0.86727 -2.22694,1.96086 -3.02141,2.4302 -1.09959,0.64952 -1.37553,1.08309 -1.15555,1.8153 0.23527,0.78275 0.17356,0.85188 -0.33133,0.37105 -0.93441,-0.89006 -3.61652,-0.7222 -4.5677,0.28587 -0.455,0.48222 -1.42491,1.99411 -2.15536,3.35975 -1.61441,3.01812 -2.20501,2.84972 -0.83868,-0.23913 2.49968,-5.6509 0.34974,-5.68007 -7.91715,-0.10743 -1.90622,1.28491 -3.55095,2.25105 -3.65498,2.14696 -0.10412,-0.10408 0.65773,-1.01632 1.69297,-2.0272 2.53386,-2.47428 2.44659,-3.06428 -0.45353,-3.06428 -1.28464,0 -2.47198,-0.22043 -2.63847,-0.48984 -0.20388,-0.3298 0.67507,-0.39194 2.69033,-0.19021 2.25151,0.2254 3.52004,0.0998 5.12032,-0.50713 1.17001,-0.44373 3.73436,-0.97167 5.69851,-1.17321 5.38599,-0.55262 10.03685,-3.32422 11.07694,-6.60109 0.85281,-2.687045 -3.2644,-4.869805 -14.46773,-7.670135 -8.11001,-2.02712 -12.55281,-3.60009 -10.34419,-3.66232 2.06457,-0.0582 12.86869,1.83513 16.41766,2.87701 4.92081,1.44459 5.01071,1.32697 4.7747,-6.24636 l -0.18596,-5.96896 -4.6802,-9.52213 c -2.57413,-5.23717 -4.58503,-9.61733 -4.46867,-9.73371 0.11636,-0.11637 1.75419,2.52909 3.63969,5.8788 1.88542,3.34972 3.6604,6.23401 3.9444,6.40954 0.35919,0.22194 0.42707,-0.31092 0.22294,-1.7498 l -0.29336,-2.06894 1.17904,2.52396 c 1.32212,2.83018 2.07106,2.95932 2.97663,0.51329 0.54277,-1.46589 0.56758,-1.30602 0.26238,1.69006 -0.53446,5.24867 -0.46806,5.50857 3.04048,11.896 3.46203,6.30294 4.80444,9.25275 7.2088,15.840765 0.78297,2.14534 1.94287,4.68541 2.57767,5.64459 1.46888,2.21972 5.23307,4.09612 9.00235,4.48759 2.37584,0.24675 3.01821,0.14714 3.95648,-0.61346 l 1.12005,-0.90803 -1.06729,-2.10088 c -0.58698,-1.15548 -2.88163,-4.94641 -5.09913,-8.42429 -2.21757,-3.477875 -4.558,-7.626085 -5.20102,-9.218245 -0.64302,-1.59216 -1.68039,-3.56537 -2.30533,-4.3849 -0.76349,-1.00111 -0.94855,-1.55265 -0.56397,-1.68082 0.94509,-0.31505 0.65156,-2.82023 -0.74878,-6.38933 -0.98257,-2.50455 -1.22539,-3.70937 -0.94797,-4.70347 0.35376,-1.2674 0.39091,-1.22418 0.71993,0.83672 0.19082,1.19525 0.67614,2.80976 1.07855,3.58783 0.40233,0.77806 1.50323,4.05472 2.44643,7.28145 1.74746,5.97827 2.84983,8.47336 3.89814,8.82281 0.85692,0.28563 0.74812,-2.64483 -0.35072,-9.44579 -0.51549,-3.19068 -1.37257,-9.63035 -1.90457,-14.31039 -1.13878,-10.01834 -1.4098,-11.15684 -3.60798,-15.15595 -0.91757,-1.66934 -1.58976,-3.27089 -1.49369,-3.55902 0.096,-0.28813 0.68262,0.56076 1.30354,1.88641 1.3042,2.78463 1.89331,3.04737 1.95946,0.8739 l 0.0468,-1.53638 0.59766,1.89092 c 0.3287,1.04001 1.38448,7.10278 2.3461,13.47284 4.60139,30.480775 5.82785,35.625115 8.16244,34.237575 1.29015,-0.76675 2.5088,-3.5129 2.50182,-5.637355 0,-1.04001 -0.32944,-3.26202 -0.72446,-4.93781 -0.39493,-1.67578 -0.89981,-4.83944 -1.12193,-7.03036 -0.225,-2.22032 -0.66003,-4.14191 -0.9829,-4.3414 -0.44424,-0.27457 -0.42903,-0.40828 0.0657,-0.57411 1.01799,-0.34151 0.68074,-5.58597 -0.72297,-11.24382 -1.3503,-5.44259 -1.63373,-8.56184 -0.36511,-4.01821 0.81493,2.91856 1.53092,3.47868 1.99973,1.56428 0.14701,-0.60035 0.41416,2.84394 0.59363,7.65398 0.38047,10.1969 0.90475,14.67737 2.05356,17.54807 l 0.8284,2.07025 0.38434,-1.65455 c 0.21135,-0.91 0.46453,-5.27095 0.56257,-9.69099 0.1678,-7.56134 0.27019,-8.31588 1.73175,-12.76373 2.04353,-6.21905 2.01165,-8.67631 -0.21127,-16.28442 -2.48522,-8.50576 -2.0446,-8.53131 0.83153,-0.0482 1.36197,4.01713 2.58876,7.1017 2.72624,6.85459 0.13748,-0.2471 0.52477,-1.46584 0.86078,-2.7083 0.33593,-1.24247 0.70892,-2.16093 0.82882,-2.04102 0.11989,0.1199 -0.16386,1.70053 -0.6307,3.51253 -0.73891,2.86862 -0.77713,3.77419 -0.295,7.0047 0.30454,2.04059 0.68698,5.25244 0.84977,7.13747 0.27684,3.20406 0.68657,4.07989 1.38202,2.95456 0.16073,-0.26001 0.54556,-0.46649 0.85519,-0.45888 0.30964,0.007 -0.1332,0.64712 -0.98404,1.4211 l -1.54711,1.40724 0.95881,5.78805 c 1.19918,7.23829 2.74547,13.89315 3.62787,15.612675 1.55163,3.02363 1.70743,1.06273 1.3586,-17.098705 -0.41597,-21.65676 -0.58279,-23.37643 -2.73783,-28.22328 -0.91444,-2.05661 -1.80078,-4.52914 -1.96973,-5.49449 -0.17134,-0.97933 -1.22162,-2.96447 -2.37601,-4.49094 -2.26203,-2.99103 -2.42318,-3.86418 -0.34588,-1.87401 0.72651,0.69604 1.49847,1.26554 1.71549,1.26554 0.81953,0 -0.20988,-4.68231 -2.11206,-9.60701 -2.03597,-5.27086 -2.36878,-7.48143 -0.45969,-3.05293 1.97006,4.56999 3.32069,9.05727 4.48207,14.89127 0.6325,3.17725 1.50841,6.46987 1.9464,7.31693 l 0.79644,1.54012 0.45237,-1.17143 c 0.24891,-0.64429 0.56775,-3.99518 0.70876,-7.44643 0.14093,-3.45125 0.34341,-6.18786 0.44991,-6.08136 0.1065,0.1065 0.61566,5.36668 1.13155,11.68929 0.51598,6.3226 1.00968,11.56729 1.09728,11.65487 0.0875,0.0876 1.03902,-0.89158 2.11428,-2.17591 2.11683,-2.52831 3.22143,-4.78854 3.82295,-7.82232 l 0.38359,-1.93503 0.0584,1.65455 c 0.086,2.44286 0.54342,3.78185 1.29187,3.78185 0.72445,0 3.59672,-4.27922 6.76234,-10.07496 1.10945,-2.0312 2.1041,-3.60618 2.21035,-3.49996 0.10617,0.10622 -0.34144,1.4019 -0.99481,2.8793 -1.11158,2.51337 -1.48186,4.0774 -0.96539,4.0774 0.12235,0 1.18274,-0.67687 2.35645,-1.50415 1.1737,-0.82728 2.26006,-1.37803 2.41422,-1.22388 0.15416,0.15415 -0.95948,1.17197 -2.4747,2.26183 -1.51523,1.08986 -4.1809,3.39563 -5.92384,5.12392 -1.74293,1.72828 -4.18928,4.12275 -5.43645,5.32103 -1.24709,1.19829 -3.00349,3.40968 -3.90315,4.91419 -1.48095,2.47666 -1.65344,3.14275 -1.82338,7.03956 -0.10461,2.39938 0.0518,5.19315 0.35393,6.31317 0.50045,1.8565 0.662,2.0091 2.12669,2.0091 1.26139,0 1.64103,-0.22283 1.85896,-1.09125 0.40291,-1.60524 4.05493,-9.18053 4.07021,-8.4426 0.008,0.34641 -0.60144,2.04825 -1.35243,3.78184 -1.7629,4.06957 -2.117,5.27927 -1.54531,5.27927 0.54483,0 4.69943,-3.24943 5.80534,-4.54055 2.14419,-2.50319 6.31852,-9.4223 10.33704,-17.13399 2.46739,-4.73502 4.55365,-8.40656 4.63615,-8.15898 0.0825,0.24758 -1.66881,4.33285 -3.89189,9.0784 -2.22316,4.74554 -3.99034,8.67598 -3.92714,8.73432 0.0633,0.0583 1.60405,-0.49929 3.42406,-1.23916 5.09403,-2.07083 5.18804,-1.63598 0.23634,1.09349 -4.37335,2.41066 -4.53253,2.55833 -6.07947,5.63834 -1.88173,3.74655 -2.63963,9.13224 -1.35449,9.62539 1.00385,0.38521 3.03793,-0.74688 5.80903,-3.23312 2.32621,-2.08711 5.76622,-4.12809 6.92431,-4.10829 0.33536,0.006 -0.47801,0.64471 -1.80752,1.41993 -4.8157,2.80803 -9.02043,7.4121 -7.84377,8.58873 0.25072,0.2507 1.36435,0.65996 2.47479,0.90946 1.93103,0.43388 4.99155,2.18749 4.56391,2.61507 -0.11217,0.1122 -0.98478,-0.2567 -1.93916,-0.81978 -1.31497,-0.77584 -2.23401,-0.96755 -3.79501,-0.7916 -1.96078,0.22101 -2.07278,0.16706 -2.33073,-1.12272 -0.20511,-1.02517 -0.53849,-1.35489 -1.3701,-1.35489 -1.50175,0 -2.23368,0.85481 -2.23368,2.60877 0,2.38548 1.36246,6.31001 2.37954,6.85435 0.83999,0.44956 0.92956,1.01175 0.92956,5.835155 0,5.41985 0.72257,14.28993 1.35745,16.66373 0.1918,0.71714 0.57301,1.37868 0.84723,1.47007 0.6726,0.22422 1.07641,-2.99972 1.40453,-11.21373 l 0.27381,-6.8546 4.48675,-9.045525 c 4.14672,-8.36005 4.51971,-9.34521 4.92204,-13.0001 0.23938,-2.17501 1.06942,-6.43689 1.8445,-9.47085 0.77516,-3.03396 1.41892,-6.33126 1.43058,-7.32733 l 0.0214,-1.81104 0.5744,1.34434 c 0.5657,1.324 0.58698,1.33036 1.41103,0.4198 0.76776,-0.84837 1.56379,-3.68831 3.34329,-11.92786 l 0.66356,-3.07274 0.0551,2.76877 c 0.0452,2.25338 0.18728,2.71812 0.76439,2.49667 1.0064,-0.38621 0.88371,0.16716 -0.4831,2.1787 -0.65576,0.96496 -1.39657,2.83182 -1.6463,4.14857 -0.24973,1.31676 -0.96243,3.07618 -1.58376,3.90985 -1.76503,2.36804 -3.71636,7.83394 -3.98417,11.15999 -0.17758,2.20483 -0.0966,2.93513 0.29813,2.69115 0.62174,-0.38426 5.38139,-8.33401 8.94212,-14.93542 4.58569,-8.50176 5.24786,-8.17175 1.2793,0.63759 -1.43773,3.19157 -4.12239,8.55515 -5.96582,11.91907 -8.19236,14.94945 -8.88402,17.71807 -3.81629,15.27584 2.14501,-1.03371 6.87665,-5.46129 9.74908,-9.12265 0.75412,-0.9612 2.34963,-2.23696 3.54552,-2.83503 3.17483,-1.58771 8.61136,-3.68627 8.87268,-3.42495 0.124,0.12395 -2.07697,1.45035 -4.89097,2.94757 -6.93352,3.689 -7.51943,4.14618 -8.45565,6.59755 -0.77039,2.01721 -0.76981,2.17585 0.0107,3.03828 0.45286,0.50046 1.91895,1.11021 3.25782,1.35501 1.87705,0.34317 2.09086,0.45793 0.93409,0.50122 -0.8252,0.0309 -2.56419,-0.18939 -3.86436,-0.48951 l -2.36402,-0.54569 -2.94646,2.18953 c -1.62049,1.20424 -3.92345,2.52837 -5.11753,2.94249 -3.65342,1.26702 -4.47977,1.82499 -5.58848,3.77354 -2.36993,4.165165 -2.91236,6.533325 -3.68037,16.068445 -0.63332,7.86373 -1.00377,10.15287 -2.43279,15.03332 -1.19622,4.08557 -1.68336,6.66983 -1.6776,8.90076 0.01,3.70792 2.43838,18.90907 2.96898,18.58114 1.21512,-0.75098 3.34806,-17.75953 3.45086,-27.51743 0.0394,-3.77246 0.18933,-5.29744 0.42903,-4.37276 0.2024,0.78092 0.58558,1.41986 0.85142,1.41986 1.08068,0 1.86167,-3.54501 2.29728,-10.42806 0.24973,-3.94521 0.54203,-7.26111 0.64951,-7.36866 0.10757,-0.10755 0.3043,1.32411 0.43717,3.18147 0.13732,1.91855 0.49297,3.53232 0.82356,3.73663 0.44531,0.27523 0.39395,0.64643 -0.21899,1.58182 -0.44046,0.67221 -0.98265,2.66671 -1.20485,4.43223 -0.22221,1.7655 -0.83047,4.17295 -1.3517,5.34988 -1.029,2.3233 -2.29753,10.67843 -1.70505,11.2298 0.20067,0.18674 0.44374,0.1268 0.54014,-0.1332 0.0965,-0.26 1.55565,-2.44957 3.2427,-4.86568 1.68706,-2.41613 3.35899,-4.96888 3.7153,-5.67277 0.37422,-0.73915 0.78757,-3.7762 0.97838,-7.18896 0.33617,-6.01123 1.00401,-13.00953 1.13911,-11.93645 0.0411,0.32501 0.2789,0.59092 0.52887,0.59092 0.64343,0 1.30486,-2.82958 1.86538,-7.98005 0.52937,-4.864945 0.97303,-6.108075 1.01831,-2.853365 l 0.0288,2.08789 1.11347,-2.36365 c 0.61237,-1.30001 1.12909,-2.04456 1.14815,-1.65456 0.0189,0.39001 -0.4596,1.77274 -1.06384,3.07276 -0.60415,1.3 -1.24199,3.416235 -1.41735,4.702735 -0.17528,1.2865 -0.83194,3.83924 -1.4591,5.67277 -1.01322,2.96192 -2.48563,13.33056 -1.96678,13.84944 0.23683,0.23681 6.54212,-8.10799 14.66224,-19.4051 3.32743,-4.629135 6.14784,-8.318585 6.26765,-8.198765 0.11982,0.11982 -2.13383,3.98721 -5.00807,8.594185 -2.87423,4.60697 -5.11087,8.56233 -4.97035,8.78966 0.39115,0.63288 2.01534,0.49342 3.73008,-0.3203 1.70193,-0.80761 3.3912,-3.55169 4.73287,-7.68794 0.44819,-1.38185 0.91445,-2.41288 1.03623,-2.29116 0.1217,0.12172 -0.21908,1.64701 -0.75733,3.38954 -0.53816,1.74252 -0.97854,3.59723 -0.97854,4.12155 0,0.90481 0.0542,0.9136 1.06368,0.17261 1.65878,-1.21758 4.74799,-2.62196 5.79095,-2.6326 0.68066,-0.007 0.49198,0.22184 -0.67375,0.81689 -0.89053,0.4546 -1.82478,1.1641 -2.07615,1.57666 -0.74426,1.22152 0.074,4.04693 1.79864,6.21119 2.06736,2.59423 4.67264,6.96591 4.34599,7.2926 -0.13879,0.13873 -0.56618,-0.35252 -0.94986,-1.0917 -0.38367,-0.73916 -1.99488,-3.02068 -3.58036,-5.07004 -1.58549,-2.04937 -2.88599,-3.96392 -2.89001,-4.25458 -0.023,-1.67337 -0.79488,-1.72768 -3.90052,-0.27439 -1.72058,0.80516 -4.31912,1.58603 -5.77945,1.73675 -2.09382,0.2161 -2.92215,0.55675 -3.92854,1.61557 -1.99554,2.09958 -8.65295,13.31428 -8.18283,13.78439 0.70071,0.7007 7.27422,2.24991 8.24257,1.94256 0.63579,-0.20178 0.80466,-0.11743 0.55936,0.27941 -1.07139,1.73365 3.482,4.73367 6.16329,4.0607 1.02579,-0.25745 1.14363,-0.43324 0.6717,-1.00185 -0.74311,-0.89541 -0.49017,-0.87011 1.87145,0.18723 1.07715,0.48227 2.49459,0.77438 3.14977,0.64914 0.65518,-0.12525 2.89963,-1.7962 4.98761,-3.71324 2.10048,-1.92843 4.22298,-3.48553 4.7512,-3.48553 0.54375,0 2.1543,-1.226 3.74184,-2.84843 1.53297,-1.56663 2.78721,-2.7031 2.78721,-2.5255 0,1.09132 -4.15526,5.49487 -5.92285,6.27675 -2.24978,0.99521 -5.8954,4.38332 -5.8954,5.47905 0,0.85619 1.55024,0.91476 5.39586,0.20385 1.50323,-0.27788 2.82148,-0.41689 2.92946,-0.3089 0.10798,0.10798 -0.98413,0.82977 -2.42696,1.60396 l -2.62327,1.40762 1.84499,2.32859 c 1.01478,1.28071 2.32547,3.28585 2.91278,4.45586 1.76577,3.51794 3.9951,6.2424 7.30297,8.92487 3.56903,2.89421 3.82681,3.76367 0.42123,1.42055 -3.30393,-2.27313 -5.87148,-5.00523 -7.62,-8.10824 -1.97409,-3.50343 -4.65596,-6.46534 -6.58551,-7.27312 -1.96743,-0.82362 -5.21302,-0.79611 -9.34552,0.0792 -3.66278,0.77584 -9.24485,2.51343 -9.85237,3.06681 -0.5269,0.47999 1.65427,4.6844 3.15758,6.08648 l 1.20501,1.12384 2.23196,-1.47839 c 1.22761,-0.81311 2.46138,-1.46589 2.74185,-1.45059 0.28046,0.0153 0.0969,0.2812 -0.40784,0.59091 -1.77983,1.09217 -3.08928,2.64236 -2.82148,3.34021 0.31638,0.82456 2.6278,1.71385 4.45463,1.71385 1.08808,0 1.40872,-0.3281 2.1068,-2.15601 1.12407,-2.94346 1.42837,-2.33447 0.47399,0.94863 -0.96852,3.33162 -0.7284,4.21234 0.97229,3.56574 1.76052,-0.66936 1.89857,-0.5906 0.89965,0.51322 -0.8727,0.96433 -0.86209,1.02954 0.63472,3.91652 0.8372,1.61473 2.10771,3.62561 2.82329,4.46861 l 1.30116,1.53275 4.25461,-2.84825 c 2.34002,-1.56655 4.44706,-2.84871 4.68233,-2.84926 1.3277,-0.003 -5.96845,5.75144 -16.97333,13.38709 -3.64002,2.5256 -7.44637,5.30518 -8.45852,6.17684 l -1.84022,1.58485 4.01548,2.18885 c 4.53852,2.47398 5.40744,2.63492 6.0747,1.1252 0.40208,-0.90965 0.43528,-0.8386 0.22935,0.49072 -0.54868,3.54257 2.70512,2.28872 8.5015,-3.27606 2.21043,-2.1221 4.10744,-3.7699 4.21558,-3.66178 0.10814,0.10813 -0.74591,1.33158 -1.89792,2.71877 -2.17821,2.62305 -2.61176,3.84653 -1.36287,3.84653 0.40233,0 -0.88412,0.85092 -2.85887,1.89093 -1.97474,1.04001 -3.97176,1.89092 -4.43794,1.89092 -1.49041,0 -6.36832,2.72822 -8.44398,4.72275 -2.68786,2.58279 -2.65803,3.63116 0.11505,4.04701 2.74621,0.41183 5.16757,-0.0503 7.74458,-1.47811 2.26943,-1.25743 3.83807,-1.43369 5.38608,-0.60521 0.55592,0.29753 1.97787,0.79841 3.15988,1.11309 3.33696,0.88838 14.53141,5.63119 13.68879,5.79959 -0.41326,0.0826 -3.89928,-0.82721 -7.74688,-2.02174 -11.0048,-3.41661 -13.41746,-3.60123 -15.59657,-1.19338 -1.16327,1.28542 -0.62527,2.43792 2.8656,6.13842 1.66594,1.76598 3.02898,3.3588 3.02898,3.53959 0,0.71888 -4.29587,-3.24893 -6.08917,-5.62414 l -1.90712,-2.52586 -6.28368,-0.19608 c -5.62315,-0.17547 -6.55715,-0.329 -8.88377,-1.46045 -1.43001,-0.69539 -2.95501,-1.26644 -3.38882,-1.26898 -0.43372,-0.002 -1.28094,0.79312 -1.88254,1.76813 -0.60169,0.97501 -2.76651,3.85336 -4.81094,6.39634 -2.2889,2.84723 -3.61356,4.89319 -3.44773,5.32532 0.74804,1.94923 6.8188,2.03998 11.17267,0.167 2.12891,-0.91585 2.93809,-1.00022 7.22294,-0.75311 2.65392,0.15306 5.46357,0.4799 6.24358,0.72631 0.98232,0.31032 -0.32517,0.37232 -4.25462,0.20173 -5.41607,-0.23514 -5.81174,-0.18721 -8.74547,1.05913 -2.48316,1.0549 -3.9799,1.34237 -7.80005,1.49804 -2.60002,0.10596 -5.17571,0.28632 -5.72366,0.40083 -0.54794,0.11451 -2.56887,1.52613 -4.49094,3.13695 -4.0601,3.40263 -8.69313,6.46979 -11.88563,7.86841 -1.23501,0.54105 -2.24543,1.22827 -2.24543,1.52715 0,0.29887 0.94353,6.63951 2.09678,14.09031 3.20014,20.67571 3.67051,25.58164 4.76623,49.70703 0.74311,16.36203 1.06392,19.51614 2.59607,25.52679 0.4965,1.94755 0.74221,3.70146 0.54605,3.89758 -0.60242,0.60242 -15.1912,5.56286 -16.29514,5.54062 -0.57054,-0.0115 -1.79708,-0.42253 -2.72558,-0.91341 z m 12.24129,-104.42314 c 0.34414,-0.21819 0.8275,-1.29478 1.07411,-2.39242 0.2466,-1.09763 1.51202,-4.32383 2.81194,-7.16932 1.30001,-2.84551 2.49418,-6.1266 2.65384,-7.29133 0.32262,-2.35377 0.85019,-2.73321 1.30133,-0.93588 0.78921,3.14463 2.69032,0.0489 6.90171,-11.23899 0.85117,-2.28143 1.63726,-4.05836 1.74688,-3.94876 0.10962,0.1096 -0.3633,2.04375 -1.05094,4.29812 -0.68764,2.25435 -1.12744,4.41884 -0.97731,4.80996 0.15006,0.39112 -0.22417,1.38722 -0.83161,2.21357 -0.60743,0.82634 -1.36172,2.15694 -1.67612,2.95688 -0.31448,0.79995 -1.30412,2.14529 -2.19933,2.98967 -2.73134,2.57622 -6.82899,10.91181 -6.18679,12.58532 0.26164,0.6817 0.4324,0.67185 1.7412,-0.10036 2.79921,-1.65155 10.0445,-9.70004 17.31502,-19.23435 1.49525,-1.96086 7.12334,-14.52596 7.57086,-16.90251 0.34587,-1.83682 -0.53537,-2.04375 -3.6858,-0.86556 -2.77233,1.03679 -2.91014,1.0427 -7.56733,0.32448 -4.63582,-0.71494 -4.80674,-0.78655 -7.53019,-3.15533 l -2.78671,-2.42378 -1.44916,2.87076 c -2.27625,4.50931 -5.00528,8.78442 -9.28167,14.54017 l -3.9522,5.3194 0.47472,8.15343 c 0.75765,13.01342 1.24725,15.0144 3.67002,15.00079 0.70827,-0.004 1.56938,-0.18577 1.91353,-0.40396 z m -13.62577,-19.57468 c 0,-2.12126 -1.02538,-4.1234 -2.11165,-4.1234 -0.98643,0 -5.12304,-3.44474 -11.40458,-9.4971 -6.69241,-6.44828 -8.07361,-7.15682 -11.02049,-5.65343 -2.32423,1.18574 -5.24539,3.6869 -5.24539,4.49125 0,0.32358 0.88691,0.98826 1.97088,1.47706 1.8473,0.83302 5.30843,3.93774 8.73973,7.8397 1.3065,1.48572 2.04952,1.82943 5.96771,2.76046 2.46155,0.58489 6.15096,1.86976 8.19876,2.85527 2.04772,0.98551 3.98911,1.80994 4.31411,1.83206 0.38688,0.0263 0.59092,-0.65791 0.59092,-1.98187 z m -24.97109,-2.65086 c 1.99603,-0.16525 3.7766,-0.44791 3.9568,-0.62812 0.76308,-0.76308 -0.49091,-3.02026 -3.23334,-5.81998 -3.45586,-3.52806 -4.99533,-4.10996 -6.9838,-2.63982 -0.75535,0.55845 -1.90827,1.21872 -2.56205,1.46728 -1.57382,0.59838 -1.55278,2.14573 0.0789,5.78118 l 1.26739,2.82405 1.92355,-0.34206 c 1.058,-0.18814 3.5567,-0.47727 5.55273,-0.64253 z m 77.83682,-5.48343 c 1.38596,-1.44236 3.19414,-2.96381 4.01819,-3.38101 2.94655,-1.49175 3.85393,-3.00818 1.79996,-3.00818 -0.45344,0 -2.58399,-0.85092 -4.73459,-1.89092 -2.15061,-1.04001 -4.11188,-1.89093 -4.35832,-1.89093 -1.03097,0 -4.86928,4.18062 -6.12836,6.67487 l -1.35852,2.69129 2.19078,1.81698 c 3.28684,2.72602 3.9361,3.01393 5.08179,2.25359 0.53299,-0.35377 2.1031,-1.82333 3.48907,-3.26569 z m -52.86861,-3.07475 c 0.67581,-1.26275 1.57439,-11.08734 1.24085,-13.56653 -0.14644,-1.08862 -1.09885,-3.8541 -2.11642,-6.1455 -1.01757,-2.29142 -3.15864,-7.27473 -4.75793,-11.07404 -3.57256,-8.48696 -5.18303,-11.12071 -7.35524,-12.0283 -2.82608,-1.18083 -3.97587,-0.92028 -4.81266,1.09055 -0.98997,2.3788 -3.05971,5.88476 -3.3202,5.6242 -0.11521,-0.1152 0.44243,-1.43112 1.2392,-2.92428 1.25908,-2.3594 1.93859,-5.41813 1.2037,-5.41813 -0.13477,0 -1.33247,0.56856 -2.66141,1.26346 -2.25332,1.17823 -2.56369,1.22446 -4.6004,0.68539 -2.74218,-0.72578 -10.40533,-4.39951 -9.6872,-4.64403 0.29328,-0.0999 2.79486,0.6784 5.55906,1.72952 2.76412,1.05112 5.31631,1.91112 5.67147,1.91112 0.35524,0 1.815,-0.51706 3.24394,-1.14901 1.42902,-0.63196 3.37238,-1.29426 4.31863,-1.47179 0.94632,-0.17752 1.81269,-0.47196 1.92544,-0.65431 0.11266,-0.18235 -1.2724,-1.48323 -3.07795,-2.89084 -1.80563,-1.40761 -3.28289,-2.62108 -3.28289,-2.69661 0,-0.0755 0.53167,-0.004 1.18159,0.15924 l 1.18168,0.29657 -0.922,-2.0603 c -1.28801,-2.87838 -3.18437,-5.11955 -4.95943,-5.86119 -0.82997,-0.34678 -2.80028,-1.60119 -4.37853,-2.78758 -1.57825,-1.18638 -3.09142,-2.15707 -3.3626,-2.15707 -0.27118,0 -1.3056,0.99272 -2.29876,2.20604 -3.9767,4.85827 -5.00167,5.61287 -9.67077,7.11949 -2.43427,0.78549 -4.42594,1.63278 -4.42594,1.88287 0,0.25009 3.75063,3.8805 8.33484,8.06758 4.58413,4.18707 8.79404,8.35581 9.35521,9.26388 0.56126,0.90807 1.86193,3.71926 2.89051,6.24709 2.3728,5.8316 3.61759,7.93952 6.87172,11.63664 1.4411,1.63724 2.92732,3.6946 3.30261,4.57191 0.9082,2.12253 4.46301,7.03707 6.36898,8.80496 l 1.52886,1.4182 -0.31448,-3.95353 c -0.43668,-5.48918 -1.36493,-7.07269 -4.22215,-7.20207 -0.56372,-0.0256 -0.0674,-0.3016 1.10229,-0.61352 l 2.12735,-0.56711 v -2.81378 -2.81377 l -2.12735,-0.14802 c -3.22816,-0.22464 -3.50895,-1.0338 -0.35877,-1.0338 1.46666,0 2.78507,-0.19164 2.92987,-0.42585 0.14471,-0.23422 -0.40291,-2.94651 -1.21702,-6.02732 -1.88862,-7.14701 -2.13104,-8.52736 -1.10837,-6.31057 2.20993,4.79005 3.11196,9.58016 3.76123,19.97257 0.75691,12.1173 1.07,13.11605 4.73862,15.11665 2.8177,1.5366 4.27852,1.64582 4.96082,0.37092 z m -33.27948,-1.10614 c 1.02325,-0.88017 1.21628,-1.35375 0.9631,-2.36276 -0.44285,-1.76439 -3.40074,-3.58415 -6.4883,-3.99172 l -2.55638,-0.33748 2.3636,-0.24 c 2.18487,-0.22186 2.3544,-0.32943 2.24149,-1.42184 -0.11546,-1.11601 -0.0493,-1.08973 1.18176,0.47125 0.71722,0.90919 1.86184,2.28099 2.54356,3.04842 l 1.23953,1.39534 3.48775,-3.16199 c 1.91829,-1.7391 4.17926,-3.49315 5.02426,-3.89788 0.84501,-0.40474 1.53635,-0.93042 1.53635,-1.16818 0,-0.23775 -1.1281,-2.08915 -2.50692,-4.11421 -1.37873,-2.02506 -3.20474,-5.38376 -4.05772,-7.46378 -3.31436,-8.08206 -3.75432,-8.61668 -6.74196,-8.19378 -0.98331,0.13918 -1.12818,0.44324 -1.25432,2.63232 -0.1452,2.51903 -1.5029,6.19849 -1.50906,4.08961 0,-0.54951 0.21086,-2.12624 0.47209,-3.50381 0.26132,-1.37758 0.36157,-2.61813 0.22294,-2.75677 -0.49995,-0.49996 -5.39577,5.21529 -6.54063,7.63538 -0.64426,1.36186 -1.73365,3.08277 -2.4208,3.82423 -0.7408,0.79931 -1.13459,1.64731 -0.96744,2.08303 0.15514,0.40419 0.7233,2.55955 1.2627,4.78967 1.6587,6.85832 4.24352,10.95574 8.2046,13.00591 1.93481,1.0014 2.80044,0.92873 4.2998,-0.36096 z m 45.5713,-10.2169 c 0,-1.09031 0.0378,-1.10535 0.64656,-0.2726 0.61836,0.84574 0.67383,0.83504 1.3692,-0.26419 0.39854,-0.63009 1.16277,-1.99652 1.69822,-3.03652 0.77812,-1.51138 0.9778,-1.67742 0.99449,-0.82729 0.0296,1.48389 0.71952,1.32682 2.07804,-0.47272 1.21652,-1.61153 4.56104,-7.53329 4.56104,-8.07569 0,-0.17341 -1.01042,-0.32463 -2.24543,-0.33603 -1.23501,-0.0114 -3.09644,-0.34783 -4.13645,-0.74759 -3.52728,-1.35583 -3.665,-1.33324 -6.52297,1.06968 l -2.69525,2.26609 v 9.27394 c 0,5.10066 0.12868,9.40256 0.28588,9.55979 0.43216,0.43219 3.96429,-6.81334 3.96667,-8.13687 z m 1.96267,3.24861 c 2.88566,-3.79681 3.74776,-5.64009 2.63806,-5.64009 -0.36584,0 -0.89431,0.50314 -1.17452,1.11809 -0.28022,0.61496 -1.59075,2.60006 -2.91228,4.41134 -1.32154,1.81128 -2.4028,3.45315 -2.4028,3.64861 0,0.95924 1.43658,-0.36037 3.85154,-3.53795 z m -59.96441,-2.26101 c -0.0874,-1.90753 -1.94361,-9.05185 -2.35177,-9.05185 -0.20651,0 -5.97536,2.86942 -6.23026,3.09892 -0.0919,0.0828 0.92447,1.72952 2.25866,3.65946 2.45958,3.55793 3.76452,4.61822 5.47211,4.4461 0.80261,-0.0809 0.93129,-0.40619 0.85126,-2.15263 z m 99.18046,-3.63171 c 2.70298,-1.95896 7.09146,-4.85149 9.75212,-6.42784 5.50186,-3.25967 5.36529,-2.6935 1.8339,-7.60586 -1.11799,-1.55525 -2.30887,-2.71028 -2.8025,-2.7182 -2.22891,-0.0358 -4.14376,2.24394 -2.91598,3.4717 0.63784,0.63785 0.36001,0.94424 -2.58235,2.84766 -3.58192,2.31711 -5.38402,4.46347 -7.87006,9.37335 -2.92453,5.77588 -2.1654,5.95125 4.58487,1.05919 z m -10.10876,1.83467 c 2.6273,-1.28351 9.17213,-11.33547 8.50783,-13.06667 -0.15236,-0.39703 -1.17683,-0.85829 -2.31528,-1.04241 -1.12309,-0.18165 -3.00835,-0.94127 -4.18953,-1.68806 -2.83258,-1.79101 -5.79309,-2.80321 -8.19885,-2.80321 -3.49063,0 -10.56549,5.63298 -12.08088,9.61875 -0.63398,1.66742 -0.64532,3.94496 -0.0214,4.33045 0.26329,0.16269 1.63282,-0.25021 3.04351,-0.91756 1.4107,-0.66735 2.89651,-1.21337 3.30188,-1.21337 0.40537,0 1.57751,-0.7594 2.60486,-1.68756 l 1.86792,-1.68754 -0.27241,1.67917 c -0.40545,2.49842 0.67269,2.62424 4.64692,0.54233 1.83291,-0.96017 3.44806,-1.63024 3.58932,-1.48904 0.14118,0.14121 -0.0929,0.39086 -0.52009,0.5548 -1.19425,0.45828 -0.92964,1.07648 0.75963,1.77467 1.45368,0.60083 1.2438,0.65285 -3.90003,0.96661 -7.11356,0.43393 -10.14746,1.0627 -11.71667,2.42828 l -1.28341,1.11686 1.01461,1.02951 c 0.55805,0.56624 2.15356,1.43687 3.54553,1.93472 3.16538,1.13216 8.90514,0.94405 11.61683,-0.38073 z m 11.83263,-13.28213 c 0.11414,-0.34292 -0.20487,-0.59092 -0.7602,-0.59092 -1.03385,0 -1.65608,0.61734 -1.14117,1.13224 0.47563,0.47565 1.67662,0.13373 1.90137,-0.54132 z m -51.70797,-7.91824 c 1.75543,-8.87025 1.77186,-9.218 1.31801,-27.89112 l -0.41359,-17.01831 -1.72263,-3.82775 c -0.9474,-2.10527 -1.96464,-5.08348 -2.26064,-6.61824 -1.22753,-6.366555 -2.1285,-3.373355 -2.73347,9.08132 -0.254,5.22946 -0.72758,11.346 -1.05241,13.5923 -0.5403,3.73697 -0.50217,4.5161 0.44802,9.16474 1.50339,7.3546 2.14887,14.33299 1.82477,19.72601 -0.27504,4.57644 -0.23888,4.81507 1.20477,7.94706 0.95603,2.07406 1.61038,3.00729 1.82963,2.60922 0.18777,-0.34085 0.88864,-3.38521 1.55754,-6.76523 z m 52.82883,5.7682 c 1.41259,-1.07543 3.25167,-4.23201 3.25167,-5.58117 0,-1.48903 -0.73004,-2.02297 -3.43344,-2.51105 -1.26631,-0.22861 -1.84261,-0.14437 -1.99989,0.29233 -0.36173,1.00444 -1.01166,7.27874 -0.81509,7.86853 0.23789,0.71349 2.02314,0.6726 2.99675,-0.0686 z m -4.17251,-0.79232 c 0.6062,-0.54591 1.4319,-6.42831 1.09227,-7.78156 -0.17126,-0.68231 -0.85635,-1.7129 -1.52238,-2.2902 -0.66603,-0.57729 -1.96702,-2.27282 -2.89108,-3.76783 -0.92398,-1.49501 -1.80933,-2.7161 -1.96735,-2.71354 -0.15811,0.002 -1.32006,1.93507 -2.58227,4.29445 -1.26221,2.35938 -2.91088,4.9913 -3.66369,5.84871 -0.7528,0.85739 -1.36871,1.67387 -1.36871,1.81438 0,0.14052 0.76275,0.50723 1.69503,0.81492 0.93236,0.30768 2.42712,1.20211 3.32176,1.98762 2.63601,2.31448 6.36568,3.16245 7.88642,1.79305 z m -27.656,-1.12971 c 0.343,-0.34302 0.74664,-1.81514 0.89694,-3.27137 0.28983,-2.80791 -0.7169,-16.41174 -1.21438,-16.41063 -0.16148,3.6e-4 -0.68271,1.32991 -1.15843,2.95457 -0.47562,1.62465 -2.1243,5.59037 -3.6636,8.8127 -1.53939,3.22234 -2.79888,6.13987 -2.79888,6.48342 0,0.65946 1.26927,1.47854 3.28149,2.11772 1.50988,0.47959 3.8333,0.13711 4.65686,-0.68641 z m -12.23381,-2.61273 c 3.17114,-4.0039 8.08791,-14.60357 9.06144,-19.53491 0.62642,-3.17318 0.11053,-12.34826 -0.67728,-12.04538 -0.39765,0.15289 -0.49971,-1.53565 -0.38072,-6.3027 0.0893,-3.58135 -0.0624,-7.95825 -0.33807,-9.72646 -0.27529,-1.7682 -0.42238,-3.29305 -0.32689,-3.38857 0.0956,-0.0955 0.70514,0.71751 1.35465,1.80673 1.16048,1.94603 1.19088,1.96185 1.75288,0.91174 0.68936,-1.28804 0.36173,-4.34356 -1.03795,-9.681595 -1.07206,-4.08846 -1.62197,-5.4364 -2.21799,-5.4364 -0.597,0 -2.17788,5.69349 -2.18191,7.858055 0,1.36388 -0.18095,1.88086 -0.59454,1.72217 -0.325,-0.12472 -0.59281,0.062 -0.59519,0.41473 -0.008,0.88576 -4.71668,10.52316 -6.53982,13.37958 -1.21528,1.90409 -1.49229,2.82589 -1.49229,4.96658 0,2.96181 1.2327,14.11657 1.69231,15.31444 0.64491,1.68049 1.14437,0.63429 1.15053,-2.4098 0.01,-4.69403 0.63834,-6.38076 0.93901,-2.51875 0.13001,1.66971 0.47013,3.11262 0.75577,3.20649 0.72626,0.23863 2.7273,-4.43924 4.24294,-9.91896 1.37996,-4.98937 2.12012,-5.87344 1.17034,-1.39804 -0.32081,1.51184 -0.51919,3.0594 -0.44071,3.43901 0.19089,0.92404 -2.64324,6.7843 -4.56334,9.43573 -1.90169,2.62594 -2.32794,4.22498 -3.27681,12.291 -0.41285,3.51003 -0.84542,6.96455 -0.96112,7.67671 -0.52288,3.21691 0.92841,3.1915 3.50476,-0.0614 z m 22.11601,-2.90384 c 5.91611,-4.37729 6.78626,-5.24855 8.93472,-8.9462 2.96841,-5.10879 4.26275,-6.24996 7.37743,-6.50458 3.71883,-0.304 4.08755,-0.50682 2.64423,-1.45446 -0.67548,-0.44348 -1.95265,-1.38519 -2.83825,-2.09269 -1.91106,-1.52687 -6.95932,-2.93208 -9.09447,-2.53152 -3.51429,0.65929 -6.30709,6.17646 -9.23129,18.23618 -1.31751,5.43338 -1.36707,5.67277 -1.17535,5.67277 0.0919,0 1.61424,-1.07078 3.38298,-2.3795 z m -37.95516,-6.6932 c -0.14076,-0.69995 -0.8667,-2.11584 -1.61326,-3.14644 -0.74656,-1.0306 -2.03218,-3.22339 -2.85697,-4.87287 -0.82479,-1.64948 -2.0188,-3.69043 -2.65335,-4.53544 -0.63456,-0.845 -0.93022,-1.53636 -0.65699,-1.53636 1.15143,0 0.32936,-2.48607 -2.10319,-6.36074 -1.43001,-2.27775 -2.60002,-4.17158 -2.60002,-4.20853 0,-0.037 0.53184,-0.0671 1.18185,-0.0671 0.65,0 1.18175,0.25046 1.18175,0.55657 0,0.3061 0.76415,2.00793 1.69815,3.78184 0.93392,1.7739 2.2253,4.82075 2.8698,6.77077 1.21857,3.6873 3.43828,7.97598 4.64773,8.97973 0.56142,0.46593 0.7524,0.4462 0.96178,-0.0994 0.52617,-1.37129 -3.03727,-15.18352 -5.82793,-22.58951 -1.09326,-2.90131 -1.50241,-3.51746 -2.25184,-3.39127 -3.88976,0.65499 -6.79522,0.56197 -9.54545,-0.30559 -1.62625,-0.513 -3.06299,-0.76108 -3.19258,-0.55129 -0.40735,0.65901 2.54298,8.50099 5.44442,14.47131 1.96612,4.04577 4.02082,7.31415 6.98397,11.10917 2.30895,2.95733 5.02607,6.53213 6.03797,7.944 l 1.83974,2.56702 0.35516,-1.62156 c 0.19533,-0.89187 0.23995,-2.19426 0.0993,-2.89421 z m 27.13066,-18.97017 c 0.82117,-2.2709 0.69914,-6.52253 -0.35475,-12.36709 -1.53298,-8.5007 -2.07632,-7.54143 -1.75501,3.09884 0.26723,8.85146 0.48992,10.83818 1.21487,10.83818 0.17996,0 0.58262,-0.70647 0.89489,-1.56993 z m -47.17815,-2.47175 c 0,-1.27492 -1.37035,-3.44313 -2.37839,-3.76305 -1.21003,-0.38404 -4.71257,0.17394 -4.71257,0.75073 0,0.23462 1.01042,1.16793 2.24543,2.07402 2.38389,1.74896 4.84553,2.22563 4.84553,0.9383 z m 19.29748,-4.23447 c 0.29698,-0.65186 0.8607,-6.02327 1.2526,-11.93645 0.39189,-5.9132 0.92759,-11.494415 1.19038,-12.402705 0.53069,-1.83399 0.56849,-9.97501 0.0551,-11.82139 -0.20733,-0.74548 -0.66997,-1.18182 -1.25284,-1.18182 -1.49246,0 -2.92584,3.62771 -4.01597,10.16371 -0.54211,3.25003 -1.61491,7.731045 -2.38398,9.957805 l -1.39837,4.04867 1.66429,3.60222 c 0.91543,1.98122 1.66437,4.03365 1.66437,4.56094 0,1.25208 1.85239,6.19421 2.32169,6.19421 0.1996,0 0.60596,-0.53334 0.90294,-1.18519 z m 15.08092,-12.46457 c 2.75106,-4.20222 5.83435,-12.428185 7.64154,-20.386855 1.01667,-4.4771 1.68245,-9.92735 1.21274,-9.92735 -0.16805,0 -1.68344,1.26253 -3.36737,2.8056 -1.7578,1.61065 -4.15444,3.25845 -5.6271,3.86883 l -2.56525,1.06324 v 11.69262 c 0,11.036865 0.14446,13.188145 0.88543,13.188145 0.17134,0 0.99038,-1.0369 1.82001,-2.30423 z m -41.95683,-6.99018 c -2.05569,-6.239225 -7.31965,-16.233065 -8.55014,-16.233065 -1.72362,0 1.94829,11.86412 5.27785,17.052715 1.53396,2.39047 3.14163,3.53355 3.93043,2.79462 0.2245,-0.21031 -0.0707,-1.83123 -0.65814,-3.61427 z m 26.97083,-18.602275 c 1.31529,-0.70394 1.8758,-3.3936 1.87063,-8.97633 -0.008,-7.25075 -1.06959,-8.17329 -2.83627,-2.46186 -1.25983,4.07288 -1.77753,10.19305 -0.94691,11.19396 0.70991,0.85531 0.75897,0.86158 1.91255,0.24423 z" />
</svg>
